00000000: 4d54 6864 0000 0006 0001 014c 01e0 4d54  MThd.......L..MT
00000010: 726b 0000 08ca 00ff 012c 2a31 4d31 204f  rk.......,*1M1 O
00000020: 7065 6e69 6e67 2076 3261 2020 2856 3220  pening v2a  (V2 
00000030: 636f 7079 2920 4d54 2069 6e74 726f 2076  copy) MT intro v
00000040: 3220 4f52 4348 00ff 5405 4100 1e02 3700  2 ORCH..T.A...7.
00000050: ff58 0404 0218 0800 ff51 030f c8f2 9e00  .X.......Q......
00000060: ff58 0402 0218 0887 40ff 5804 0302 1808  .X......@.X.....
00000070: 00ff 5103 0fb1 ca8b 20ff 5804 0502 1808  ..Q..... .X.....
00000080: a540 ff58 0404 0218 088f 00ff 5804 0202  .@.X........X...
00000090: 1808 00ff 5103 0fb1 ca8f 00ff 5804 0302  ....Q.......X...
000000a0: 1808 9640 ff58 0404 0218 088f 00ff 5103  ...@.X........Q.
000000b0: 0f31 c68f 00ff 5804 0402 1808 8f00 ff51  .1....X........Q
000000c0: 030f 31c5 9e00 ff51 0310 cc75 00ff 5804  ..1....Q...u..X.
000000d0: 0502 1808 9260 ff58 0404 0218 0887 40ff  .....`.X......@.
000000e0: 5103 1121 de14 ff51 0311 763f 64ff 5103  Q..!...Q..v?d.Q.
000000f0: 1187 4714 ff51 0311 cb64 78ff 5103 1216  ..G..Q...dx.Q...
00000100: 9914 ff51 0312 23d9 64ff 5103 1255 e614  ...Q..#.d.Q..U..
00000110: ff51 0312 7ed9 64ff 5103 1291 fb14 ff51  .Q..~.d.Q......Q
00000120: 0312 de7b 78ff 5103 1338 1c14 ff51 0313  ...{x.Q..8...Q..
00000130: 420f 64ff 5103 137b 2214 ff51 0313 a9d3  B.d.Q..{"..Q....
00000140: 64ff 5103 13c4 e714 ff51 0314 160e 3cff  d.Q......Q....<.
00000150: 5103 10cc 758f 00ff 5103 1123 8f00 ff58  Q...u...Q..#...X
00000160: 0405 0218 0814 ff51 0311 2439 8148 ff51  .......Q..$9.H.Q
00000170: 0311 65d9 14ff 5103 1176 3f81 34ff 5103  ..e...Q..v?.4.Q.
00000180: 119c 9014 ff51 0311 cb64 8134 ff51 0311  .....Q...d.4.Q..
00000190: cfd9 14ff 5103 1223 d981 48ff 5103 1231  ....Q..#..H.Q..1
000001a0: 7f14 ff51 0312 7ed9 8148 ff51 0312 cb5d  ...Q..~..H.Q...]
000001b0: 14ff 5103 12de 7b81 34ff 5103 130b 4f14  ..Q...{.4.Q...O.
000001c0: ff51 0313 420f 8120 ff51 0312 c1fd 14ff  .Q..B.. .Q......
000001d0: 5103 127e d928 ff51 0312 515a 14ff 5103  Q..~.(.Q..QZ..Q.
000001e0: 1223 d928 ff51 0311 eec6 14ff 5103 11cb  .#.(.Q......Q...
000001f0: 6528 ff51 0311 8b88 14ff 5103 1176 3f28  e(.Q......Q..v?(
00000200: ff51 0311 5da4 14ff 5103 1124 3928 ff51  .Q..]...Q..$9(.Q
00000210: 0311 0499 14ff 5103 10d5 2828 ff51 0310  ......Q...((.Q..
00000220: aba1 14ff 5103 1089 a728 ff51 0310 59c9  ....Q....(.Q..Y.
00000230: 14ff 5103 1040 0228 ff51 0310 31ca 14ff  ..Q..@.(.Q..1...
00000240: 5103 0ff8 e328 ff51 030f e445 14ff 5103  Q....(.Q...E..Q.
00000250: 0fb4 2728 ff51 030f 9640 14ff 5103 0f71  ..'(.Q...@..Q..q
00000260: b128 ff51 030f 4e56 14ff 5103 0f31 6528  .(.Q..NV..Q..1e(
00000270: ff51 030f 2b3d 14ff 5103 0ef3 c728 ff51  .Q..+=..Q....(.Q
00000280: 030e e4b6 14ff 5103 0eb7 7b28 ff51 030e  ......Q...{(.Q..
00000290: a308 14ff 5103 0e7d 0d64 ff51 030f 21f7  ....Q..}.d.Q..!.
000002a0: 00ff 5804 0402 1808 962c ff51 030f 4451  ..X......,.Q..DQ
000002b0: 14ff 5103 0fe3 9928 ff51 030f cfda 14ff  ..Q....(.Q......
000002c0: 5103 0fc2 b014 ff51 030f c112 14ff 5103  Q......Q......Q.
000002d0: 0fa2 4e28 ff51 030f 8d98 14ff 5103 0f82  ..N(.Q......Q...
000002e0: 7014 ff51 030f 7f4d 14ff 5103 0f63 1328  p..Q...M..Q..c.(
000002f0: ff51 030f 4d78 14ff 5103 0f44 3514 ff51  .Q..Mx..Q..D5..Q
00000300: 030f 3fa5 14ff 5103 0f25 d028 ff51 030f  ..?...Q..%.(.Q..
00000310: 13dc 14ff 5103 0f07 e414 ff51 030f 01ff  ....Q......Q....
00000320: 14ff 5103 0eea 6d28 ff51 030e d792 14ff  ..Q...m(.Q......
00000330: 5103 0ecd 6914 ff51 030e c643 14ff 5103  Q...i..Q...C..Q.
00000340: 0eb0 d528 ff51 030e 9d20 14ff 5103 0e94  ...(.Q... ..Q...
00000350: ae14 ff51 030e 9086 14ff 5103 0e78 f228  ...Q......Q..x.(
00000360: ff51 030e 6476 14ff 5103 0e5d 9f14 ff51  .Q..dv..Q..]...Q
00000370: 030e 583e 14ff 5103 0e42 b328 ff51 030e  ..X>..Q..B.(.Q..
00000380: 2c27 14ff 5103 0e28 2b14 ff51 030e 21a2  ,'..Q..(+..Q..!.
00000390: 14ff 5103 0e0e 0528 ff51 030d fbfa 14ff  ..Q....(.Q......
000003a0: 5103 0df4 3e14 ff51 030d eb5b 14ff 5103  Q...>..Q...[..Q.
000003b0: 0dda d628 ff51 030d c80d 14ff 5103 0dc1  ...(.Q......Q...
000003c0: ca14 ff51 030d b81e 14ff 5103 0da9 9d28  ...Q......Q....(
000003d0: ff51 030d 94e7 14ff 5103 0d91 4114 ff51  .Q......Q...A..Q
000003e0: 030d 8670 14ff 5103 0d79 3a28 ff51 030d  ...p..Q..y:(.Q..
000003f0: 63e8 14ff 5103 0d61 8814 ff51 030d 595b  c...Q..a...Q..Y[
00000400: 14ff 5103 0d4a 2928 ff51 030d 3444 14ff  ..Q..J)(.Q..4D..
00000410: 5103 0d33 1c14 ff51 030d 2a03 14ff 5103  Q..3...Q..*...Q.
00000420: 0d1c 5d28 ff51 030d 05ed 28ff 5103 0cfb  ..](.Q....(.Q...
00000430: f714 ff51 030c efc9 28ff 5103 0cdc 1f14  ...Q....(.Q.....
00000440: ff51 030c d9ef 14ff 5103 0ccf 2814 ff51  .Q......Q...(..Q
00000450: 030c c45f 28ff 5103 0cb0 2814 ff51 030c  ..._(.Q...(..Q..
00000460: af17 14ff 5103 0ca3 8914 ff51 030c 9a15  ....Q......Q....
00000470: 28ff 5103 0c85 5928 ff51 030c a15c 14ff  (.Q...Y(.Q...\..
00000480: 5103 0ca8 5b28 ff51 030c b841 14ff 5103  Q...[(.Q...A..Q.
00000490: 0cbd 8d28 ff51 030c cc95 14ff 5103 0cd3  ...(.Q......Q...
000004a0: 0614 ff51 030c e240 14ff 5103 0ce8 c828  ...Q...@..Q....(
000004b0: ff51 030c f836 14ff 5103 0cfe d414 ff51  .Q...6..Q......Q
000004c0: 030d 0d5a 14ff 5103 0d15 2c28 ff51 030d  ...Z..Q...,(.Q..
000004d0: 23e4 14ff 5103 0d2b d114 ff51 030d 394b  #...Q..+...Q..9K
000004e0: 14ff 5103 0d42 4728 ff51 030d 503e 14ff  ..Q..BG(.Q..P>..
000004f0: 5103 0d59 8a28 ff51 030d 6684 14ff 5103  Q..Y.(.Q..f...Q.
00000500: 0d71 2014 ff51 030d 7e47 14ff 5103 0d89  .q ..Q..~G..Q...
00000510: 0928 ff51 030d 965f 14ff 5103 0da1 4814  .(.Q..._..Q...H.
00000520: ff51 030d ad93 14ff 5103 0db9 de28 ff51  .Q......Q....(.Q
00000530: 030d c656 14ff 5103 0dd2 ce14 ff51 030d  ...V..Q......Q..
00000540: de30 14ff 5103 0dec 1828 ff51 030d f7a6  .0..Q....(.Q....
00000550: 14ff 5103 0e05 c114 ff51 030e 1177 14ff  ..Q......Q...w..
00000560: 5103 0e1f c828 ff51 030e 2a59 14ff 5103  Q....(.Q..*Y..Q.
00000570: 0e3a 3128 ff51 030e 44e9 14ff 5103 0e54  .:1(.Q..D...Q..T
00000580: fd14 ff51 030e 5e82 14ff 5103 0e70 2f28  ...Q..^...Q..p/(
00000590: ff51 030e 79d8 14ff 5103 0e8b c914 ff51  .Q..y...Q......Q
000005a0: 030e 9430 14ff 5103 0ea7 cd28 ff51 030e  ...0..Q....(.Q..
000005b0: b056 14ff 5103 0ec4 3e14 ff51 030e cce7  .V..Q...>..Q....
000005c0: 14ff 5103 0ee1 1e28 ff51 030e e873 14ff  ..Q....(.Q...s..
000005d0: 5103 0efe 7014 ff51 030f 05e1 14ff 5103  Q...p..Q......Q.
000005e0: 0f1c 3628 ff51 030f 2244 14ff 5103 0f3a  ..6(.Q.."D..Q..:
000005f0: 7428 ff51 030f 4099 14ff 5103 0f59 2b14  t(.Q..@...Q..Y+.
00000600: ff51 030f 5dda 14ff 5103 0f78 6028 ff51  .Q..]...Q..x`(.Q
00000610: 030f 7d22 14ff 5103 0f98 1414 ff51 030f  ..}"..Q......Q..
00000620: 9ce9 14ff 5103 0fb8 4c28 ff51 030f bb92  ....Q...L(.Q....
00000630: 14ff 5103 0fd9 0914 ff51 030f dc5e 14ff  ..Q......Q...^..
00000640: 5103 0ffa 5028 ff51 030f fc02 14ff 5103  Q...P(.Q......Q.
00000650: 101c 2428 ff51 0310 1ddd 14ff 5103 103e  ..$(.Q......Q..>
00000660: 8928 ff51 0310 6181 3cff 5103 1085 1228  .(.Q..a.<.Q....(
00000670: ff51 0310 a76f 14ff 5103 10a9 3d28 ff51  .Q...o..Q...=(.Q
00000680: 0310 cc34 14ff 5103 10ce 0a14 ff51 0310  ...4..Q......Q..
00000690: f19a 14ff 5103 10f3 7928 ff51 0311 15c3  ....Q...y(.Q....
000006a0: 14ff 5103 1119 9114 ff51 0311 3c76 14ff  ..Q......Q..<v..
000006b0: 5103 1140 5628 ff51 0311 61e1 14ff 5103  Q..@V(.Q..a...Q.
000006c0: 1167 cc28 ff51 0311 89f3 14ff 5103 118f  .g.(.Q......Q...
000006d0: f914 ff51 0311 affe 14ff 5103 11b7 ff28  ...Q......Q....(
000006e0: ff51 0311 f4e0 14ff 5103 120c 0c28 ff51  .Q......Q....(.Q
000006f0: 0312 3740 28ff 5103 1244 7714 ff51 0312  ..7@(.Q..Dw..Q..
00000700: 6345 28ff 5103 127e 3014 ff51 0312 9021  cE(.Q..~0..Q...!
00000710: 28ff 5103 12b9 4714 ff51 0312 bdd9 8204  (.Q...G..Q......
00000720: ff51 0312 37e3 14ff 5103 11fe 6d3c ff51  .Q..7...Q...m<.Q
00000730: 0312 2829 14ff 5103 123a 093c ff51 0312  ..()..Q..:.<.Q..
00000740: 61cd 14ff 5103 1277 353c ff51 0312 a0ab  a...Q..w5<.Q....
00000750: 14ff 5103 12c1 4414 ff51 0312 fb87 14ff  ..Q...D..Q......
00000760: 5103 12fb 8750 ff51 0312 fdeb 14ff 5103  Q....P.Q......Q.
00000770: 132b 5964 ff51 0313 32ac 14ff 5103 135c  .+Yd.Q..2...Q..\
00000780: 1f64 ff51 0313 6b0d 14ff 5103 138d df64  .d.Q..k...Q....d
00000790: ff51 0313 aee1 14ff 5103 13c0 a264 ff51  .Q......Q....d.Q
000007a0: 0313 e77e 14ff 5103 13f4 6f64 ff51 0314  ...~..Q...od.Q..
000007b0: 2407 14ff 5103 1429 4e64 ff51 0314 5f4a  $...Q..)Nd.Q.._J
000007c0: 64ff 5103 1475 5714 ff51 0314 9668 9654  d.Q..uW..Q...h.T
000007d0: ff51 0314 6084 00ff 5804 0402 1808 8d24  .Q..`...X......$
000007e0: ff51 0314 609d 14ff 5103 1460 8390 48ff  .Q..`...Q..`..H.
000007f0: 5103 0cf4 a700 ff58 0403 0218 0884 58ff  Q......X......X.
00000800: 5103 0cf4 b114 ff51 030c f4a4 8634 ff51  Q......Q.....4.Q
00000810: 030b 1378 00ff 5804 0402 1808 8f00 ff58  ...x..X........X
00000820: 0403 0218 088b 20ff 5804 0502 1808 9260  ...... .X......`
00000830: ff58 0404 0218 0800 ff51 030b 1377 9e00  .X.......Q...w..
00000840: ff58 0405 0218 0892 60ff 5804 0402 1808  .X......`.X.....
00000850: ad00 ff51 0308 1a1d 83b3 00ff 5804 0402  ...Q........X...
00000860: 1808 9e00 ff51 0307 d25c cb00 ff58 0404  .....Q...\...X..
00000870: 0218 089a 20ff 5103 07d6 5350 ff51 0307  .... .Q...SP.Q..
00000880: d584 14ff 5103 07db f987 2cff 5103 07e1  ....Q.....,.Q...
00000890: 6514 ff51 0307 e420 8718 ff51 0307 e563  e..Q... ...Q...c
000008a0: 14ff 5103 07ec 5787 2cff 5103 07f1 7014  ..Q...W.,.Q...p.
000008b0: ff51 0307 f4a0 8718 ff51 0307 f522 14ff  .Q.......Q..."..
000008c0: 5103 07fc fa87 2cff 5103 0801 b414 ff51  Q.....,.Q......Q
000008d0: 0308 0566 8704 ff51 0308 07eb 00ff 2f00  ...f...Q....../.
000008e0: 4d54 726b 0000 0013 00ff 0106 4d49 4449  MTrk........MIDI
000008f0: 2d31 00ff 2001 0000 ff2f 004d 5472 6b00  -1.. ..../.MTrk.
00000900: 001a e300 ff01 0f43 5320 5069 6363 6f6c  .......CS Piccol
00000910: 6f20 416c 6c20 00b0 0b7f 00b0 077f ea70  o All .........p
00000920: b001 142e b001 142e b001 162d b001 162e  ...........-....
00000930: b001 172e b001 182e b001 182d b001 182e  ...........-....
00000940: b001 192e b001 192e b001 1b2d b001 1b2e  ...........-....
00000950: b001 1c16 9018 5418 b001 1d2e b001 1d2d  ......T........-
00000960: b001 1d22 9052 230c b001 1e2e b001 1e2e  ...".R#.........
00000970: b001 202d b001 212e b001 212e b001 222e  .. -..!...!...".
00000980: b001 222d b001 232e b001 232e b001 232e  .."-..#...#...#.
00000990: b001 240a 8052 4100 9051 2c23 b001 262e  ..$..RA..Q,#..&.
000009a0: b001 262e b001 272e b001 272d b001 272e  ..&...'...'-..'.
000009b0: b001 272e b001 282e b001 282d b001 282e  ..'...(...(-..(.
000009c0: b001 2821 8051 5000 904f 510d b001 282e  ..(!.QP..OQ...(.
000009d0: b001 292d b001 292e b001 2b2e b001 2b2c  ..)-..)...+...+,
000009e0: b001 2c2e b001 2b2e b001 2b2d b001 2b2e  ..,...+...+-..+.
000009f0: b001 2b2e b001 2b07 9051 4e04 804f 5823  ..+...+..QN..OX#
00000a00: b001 2b22 9052 460b b001 2b02 8051 5e26  ..+".RF...+..Q^&
00000a10: 9051 3506 b001 2b19 8052 4b15 b001 2b11  .Q5...+..RK...+.
00000a20: 904f 4e15 8051 5e08 b001 2b2d b001 2b08  .ON..Q^...+-..+.
00000a30: 904e 6013 804f 5f13 b001 2b2e b001 2b2e  .N`..O_...+...+.
00000a40: b001 2b28 804e 6d04 9052 6001 b001 2b22  ..+(.Nm..R`...+"
00000a50: b001 2c2e b001 2b2e b001 292d b001 282e  ..,...+...)-..(.
00000a60: b001 282e b001 282e b001 272d b001 272e  ..(...(...'-..'.
00000a70: b001 262e b001 2200 b001 222e b001 2016  ..&..."..."... .
00000a80: 9056 3517 b001 1f0a 8052 6324 b001 1e2e  .V5......Rc$....
00000a90: b001 1d2e b001 1c2d b001 1b2e b001 1a2e  .......-........
00000aa0: b001 192e b001 182d b001 172e b001 162e  .......-........
00000ab0: b001 152e b001 142d b001 132e b001 122e  .......-........
00000ac0: b001 112e b001 102d b001 0f2e b001 0e2e  .......-........
00000ad0: b001 0d2e b001 0c2d b001 0b2e b001 0a2e  .......-........
00000ae0: b001 092e b001 082d b001 072e b001 062e  .......-........
00000af0: b001 052e b001 042d b001 032e b001 022e  .......-........
00000b00: b001 002c b001 002e b001 0082 4e80 1862  ...,........N..b
00000b10: 8444 b001 0081 7080 5649 859a 45b0 0136  .D....p.VI..E..6
00000b20: 926c b00b 7e2e b00b 7a2e b00b 772e b00b  .l..~...z...w...
00000b30: 742d b00b 712e b00b 6e2e b00b 6a2e b00b  t-..q...n...j...
00000b40: 672d b00b 642e b00b 6112 b001 301c b00b  g-..d...a...0...
00000b50: 5e12 b001 301c b00b 5b12 b001 301b b00b  ^...0...[...0...
00000b60: 5713 b001 3017 b00b 5516 b001 3018 b00b  W...0...U...0...
00000b70: 5516 b001 3018 b00b 5516 b001 3117 b00b  U...0...U...1...
00000b80: 5517 b001 3117 b00b 5516 b001 3118 b00b  U...1...U...1...
00000b90: 5516 b001 3118 b00b 5516 b001 3117 b00b  U...1...U...1...
00000ba0: 5517 b001 3117 b00b 5516 b001 3118 b00b  U...1...U...1...
00000bb0: 5516 b001 3118 b00b 5516 b001 3117 b00b  U...1...U...1...
00000bc0: 5517 b001 3217 b00b 5516 b001 3218 b00b  U...2...U...2...
00000bd0: 5516 b001 3217 9018 5401 b00b 5516 b001  U...2...T...U...
00000be0: 3217 b00b 5517 b001 3217 b00b 5516 b001  2...U...2...U...
00000bf0: 3318 b00b 550f 8018 6007 b001 3318 b00b  3...U...`...3...
00000c00: 5516 b001 3317 b00b 5517 b001 3317 b00b  U...3...U...3...
00000c10: 5516 b001 3318 b00b 5516 b001 3418 b00b  U...3...U...4...
00000c20: 5516 b001 3417 b00b 5517 b001 3417 b00b  U...4...U...4...
00000c30: 5516 b001 3418 b00b 5516 b001 3418 b00b  U...4...U...4...
00000c40: 550a 9046 390c b001 3517 b00b 5517 b001  U..F9...5...U...
00000c50: 3517 b00b 5516 b001 3518 b00b 5516 b001  5...U...5...U...
00000c60: 3518 b00b 5516 b001 3517 b00b 5516 8046  5...U...5...U..F
00000c70: 4300 9048 3c01 b001 3517 b00b 5516 b001  C..H<...5...U...
00000c80: 3618 b00b 5516 b001 3618 b00b 5516 b001  6...U...6...U...
00000c90: 3617 b00b 5517 b001 3617 b00b 5516 b001  6...U...6...U...
00000ca0: 360b 8048 3800 b001 3700 9045 220d b00b  6..H8...7..E"...
00000cb0: 5521 b001 380d b00b 5521 b001 390c b00b  U!..8...U!..9...
00000cc0: 5521 b001 3a0d b00b 5521 b001 3c0d b00b  U!..:...U!..<...
00000cd0: 5521 b001 3d0b 8045 4000 9043 2c02 b00b  U!..=..E@..C,...
00000ce0: 5521 b001 3e0c b00b 5521 b001 400d b00b  U!..>...U!..@...
00000cf0: 5521 b001 410d b001 4200 b00b 552e b00b  U!..A...B...U...
00000d00: 5500 b001 422d b001 4200 b00b 552e b00b  U...B-..B...U...
00000d10: 5500 b001 422e b001 4200 b00b 552e b00b  U...B...B...U...
00000d20: 5500 b001 422d b001 4200 b00b 552e b00b  U...B-..B...U...
00000d30: 5500 b001 412e b001 4100 b00b 552e b00b  U...A...A...U...
00000d40: 5500 b001 412d b001 4100 b00b 552e b00b  U...A-..A...U...
00000d50: 5500 b001 412e b001 4100 b00b 5520 8043  U...A...A...U .C
00000d60: 400e b001 4100 b00b 552d b00b 5500 b001  @...A...U-..U...
00000d70: 412e b001 4100 b00b 552e b00b 5500 b001  A...A...U...U...
00000d80: 412e b001 4100 b00b 552b 9043 4b02 b001  A...A...U+.CK...
00000d90: 4100 b00b 552e b00b 5500 b001 412e b001  A...U...U...A...
00000da0: 4100 b00b 552e b00b 5500 b001 412d b001  A...U...U...A-..
00000db0: 4100 b00b 552e b00b 5500 b001 4109 8043  A...U...U...A..C
00000dc0: 4800 9042 3325 b001 4100 b00b 552e b00b  H..B3%..A...U...
00000dd0: 5500 b001 412d b001 4100 b00b 552e b00b  U...A-..A...U...
00000de0: 5500 b001 412e b001 4000 b00b 5514 8042  U...A...@...U..B
00000df0: 3b00 9043 3e1a b001 4000 b00b 552d b00b  ;..C>...@...U-..
00000e00: 5500 b001 402e b001 4000 b00b 552e b00b  U...@...@...U...
00000e10: 5500 b001 402e b001 4000 b00b 551f 8043  U...@...@...U..C
00000e20: 4600 9045 400e b001 4000 b00b 552e b00b  F..E@...@...U...
00000e30: 5500 b001 402e b001 4000 b00b 552e b00b  U...@...@...U...
00000e40: 5500 b001 402d b001 4000 b00b 552b 8045  U...@-..@...U+.E
00000e50: 4300 903e 3103 b001 4000 b00b 552e b00b  C..>1...@...U...
00000e60: 5500 b001 402e b001 4000 b00b 552d b00b  U...@...@...U-..
00000e70: 5500 b001 402e b001 4000 b00b 552e b00b  U...@...@...U...
00000e80: 5500 b001 402e b001 4000 b00b 552d b00b  U...@...@...U-..
00000e90: 5500 b001 402e b001 4000 b00b 552e b00b  U...@...@...U...
00000ea0: 5500 b001 402e b001 3f00 b00b 552d b00b  U...@...?...U-..
00000eb0: 5500 b001 3f2e b001 3f00 b00b 552e b00b  U...?...?...U...
00000ec0: 5500 b001 3f2e b001 3f00 b00b 552d b00b  U...?...?...U-..
00000ed0: 5500 b001 3f1f 803e 550f b001 3f00 b00b  U...?..>U...?...
00000ee0: 552e b00b 5500 b001 3f2e b001 3f00 b00b  U...U...?...?...
00000ef0: 552d b00b 5500 b001 3f2e b001 3f00 b00b  U-..U...?...?...
00000f00: 552e b00b 5500 b001 3f2e b001 3f00 b00b  U...U...?...?...
00000f10: 552d b00b 5500 b001 3f2e b001 3f00 b00b  U-..U...?...?...
00000f20: 552e b00b 5500 b001 3f2e b001 3f00 b00b  U...U...?...?...
00000f30: 5507 9046 2326 b001 3f00 b00b 552e b00b  U..F#&..?...U...
00000f40: 5500 b001 3f2e b001 3f00 b00b 552e b00b  U...?...?...U...
00000f50: 5500 b001 3f0b b001 3f22 b00b 550c b001  U...?...?"..U...
00000f60: 4007 8046 3f00 9048 3c1b b00b 550b b001  @..F?..H<...U...
00000f70: 4023 b00b 550b b001 4023 b00b 550b b001  @#..U...@#..U...
00000f80: 4022 b00b 550c b001 4122 b00b 550b b001  @"..U...A"..U...
00000f90: 4113 8048 3c00 9046 3810 b00b 550b b001  A..H<..F8...U...
00000fa0: 4123 b00b 550b b001 4222 b00b 550c b001  A#..U...B"..U...
00000fb0: 4206 901a 411c b00b 550b b001 4223 b00b  B...A...U...B#..
00000fc0: 550b b001 420d 801a 5b11 8046 0f05 b00b  U...B...[..F....
00000fd0: 5502 904a 3d09 b001 4222 b00b 550c b001  U..J=...B"..U...
00000fe0: 4222 b00b 550b b001 4223 b00b 550b b001  B"..U...B#..U...
00000ff0: 4204 804a 3f1f b00b 550b b001 4222 b00b  B..J?...U...B"..
00001000: 550c b001 4222 b00b 550b b001 4223 b00b  U...B"..U...B#..
00001010: 550b b001 4223 b00b 550a 9018 5101 b001  U...B#..U...Q...
00001020: 4222 b00b 550c b001 4220 8018 5d02 b00b  B"..U...B ..]...
00001030: 550b b001 4207 9048 491c b00b 550b b001  U...B..HI...U...
00001040: 4223 b00b 550b b001 4222 b00b 550c b001  B#..U...B"..U...
00001050: 4222 b00b 550b b001 4223 b00b 550b b001  B"..U...B#..U...
00001060: 4212 8048 4300 9046 3811 b00b 550b b001  B..HC..F8...U...
00001070: 4222 b00b 550c b001 4222 b00b 550b b001  B"..U...B"..U...
00001080: 4223 b00b 550b b001 4223 b00b 550b b001  B#..U...B#..U...
00001090: 421d 8046 3d00 9045 3405 b00b 550c b001  B..F=..E4...U...
000010a0: 4222 b00b 550b b001 4223 b00b 550b b001  B"..U...B#..U...
000010b0: 4223 b00b 550b b001 4222 b00b 550c b001  B#..U...B"..U...
000010c0: 4222 b00b 5506 8045 5d00 9043 4105 b001  B"..U..E]..CA...
000010d0: 4223 b00b 550b b001 4223 b00b 550b b001  B#..U...B#..U...
000010e0: 4222 b00b 550c b001 4222 b00b 550b b001  B"..U...B"..U...
000010f0: 4223 b00b 550b b001 4206 8043 3b00 9045  B#..U...B..C;..E
00001100: 3f1d b00b 550b b001 4222 b00b 550c b001  ?...U...B"..U...
00001110: 4222 b00b 550b b001 4223 b00b 550b b001  B"..U...B#..U...
00001120: 4223 b00b 550b b001 4211 8045 3f00 9042  B#..U...B..E?..B
00001130: 3711 b00b 550c b001 4222 b00b 550b b001  7...U...B"..U...
00001140: 4223 b00b 550b b001 4223 b00b 550b b001  B#..U...B#..U...
00001150: 4222 b00b 550c b001 421c 8042 0c00 903e  B"..U...B..B...>
00001160: 3406 b00b 550b b001 4223 b00b 550b b001  4...U...B#..U...
00001170: 4223 b00b 550b b001 4222 b00b 550c b001  B#..U...B"..U...
00001180: 4222 b00b 550b b001 4223 b00b 550b b001  B"..U...B#..U...
00001190: 4223 b00b 550b b001 4222 b00b 550c b001  B#..U...B"..U...
000011a0: 4222 b00b 550b b001 4223 b00b 550b b001  B"..U...B#..U...
000011b0: 4223 b00b 550b b001 4222 b00b 550c b001  B#..U...B"..U...
000011c0: 4222 b00b 550b b001 4223 b00b 550b b001  B"..U...B#..U...
000011d0: 4223 b00b 550b b001 4222 b00b 550c b001  B#..U...B"..U...
000011e0: 4210 803e 5f00 b001 4312 b00b 551c b001  B..>_...C...U...
000011f0: 4212 b00b 551c b001 4212 b00b 551b b001  B...U...B...U...
00001200: 4212 b00b 551c b001 4212 b00b 551c b001  B...U...B...U...
00001210: 4212 b00b 551c b001 4212 b00b 551b b001  B...U...B...U...
00001220: 4112 b00b 551c b001 4112 b00b 551c b001  A...U...A...U...
00001230: 4112 b00b 551c b001 4112 b00b 5504 904a  A...U...A...U..J
00001240: 2d17 b001 4112 b00b 551c b001 4112 b00b  -...A...U...A...
00001250: 551c b001 4112 b00b 551c b001 4012 b00b  U...A...U...@...
00001260: 551b b001 4012 b00b 5510 804a 0100 904b  U...@...U..J...K
00001270: 250c b001 4012 b00b 551c b001 4012 b00b  %...@...U...@...
00001280: 551c b001 4012 b00b 551b b001 4012 b00b  U...@...U...@...
00001290: 551c b001 4012 b00b 551b 804b 3b00 904d  U...@...U..K;..M
000012a0: 1d01 b001 3f12 b00b 551c b001 3f12 b00b  ....?...U...?...
000012b0: 551b b001 3f12 b00b 551c b001 3f12 b00b  U...?...U...?...
000012c0: 551c b001 3f12 b00b 551c b001 3f0a 804d  U...?...U...?..M
000012d0: 3c00 904f 3408 b00b 551b b001 3f12 b00b  <..O4...U...?...
000012e0: 551c b001 3e12 b00b 551c b001 3e12 b00b  U...>...U...>...
000012f0: 551c b001 3e12 b00b 551b b001 3e12 b00b  U...>...U...>...
00001300: 551c b001 3e12 b00b 551c b001 3e12 b00b  U...>...U...>...
00001310: 551c b001 3e12 b00b 551b b001 3d12 b00b  U...>...U...=...
00001320: 551c b001 3d12 b00b 551c b001 3d12 b00b  U...=...U...=...
00001330: 551c b001 3d12 b00b 551b b001 3d12 b00b  U...=...U...=...
00001340: 551c b001 3d12 b00b 551c b001 3d12 b00b  U...=...U...=...
00001350: 551a 804f 3400 904d 2202 b001 3c12 b00b  U..O4..M"...<...
00001360: 551b b001 3c12 b00b 551c b001 3c12 b00b  U...<...U...<...
00001370: 551c b001 3c12 b00b 551c b001 3c12 b00b  U...<...U...<...
00001380: 551b b001 3c12 b00b 551c b001 3c12 b00b  U...<...U...<...
00001390: 551c b001 3b12 b00b 551c b001 3b12 b00b  U...;...U...;...
000013a0: 551b b001 3b12 b00b 551c b001 3b12 b00b  U...;...U...;...
000013b0: 5503 804d 3c00 904c 2d19 b001 3b12 b00b  U..M<..L-...;...
000013c0: 551c b001 3b12 b00b 551a b001 3b13 b00b  U...;...U...;...
000013d0: 551b b001 3b13 b00b 551a b001 3b14 b00b  U...;...U...;...
000013e0: 550e 804c 3c00 904d 280c b001 3b14 b00b  U..L<..M(...;...
000013f0: 551a b001 3b13 b00b 551b b001 3b13 b00b  U...;...U...;...
00001400: 551a b001 3b14 b00b 551a b001 3b14 b00b  U...;...U...;...
00001410: 5519 804d 3e00 904f 2c01 b001 3b13 b00b  U..M>..O,...;...
00001420: 551b b001 3b13 b00b 551a b001 3b14 b00b  U...;...U...;...
00001430: 551a b001 3b14 b00b 551a b001 3b13 b00b  U...;...U...;...
00001440: 551b b001 3b0a 804f 2b00 9048 2909 b00b  U...;..O+..H)...
00001450: 551a b001 3b14 b00b 551a b001 3b14 b00b  U...;...U...;...
00001460: 551a b001 3b13 b00b 551b b001 3b13 b00b  U...;...U...;...
00001470: 551a b001 3b14 b00b 551a b001 3c14 b00b  U...;...U...<...
00001480: 551a b001 3c13 b00b 551b b001 3c13 b00b  U...<...U...<...
00001490: 551a b001 3c14 b00b 551a b001 3c14 b00b  U...<...U...<...
000014a0: 551a b001 3c13 b00b 551b b001 3c13 b00b  U...<...U...<...
000014b0: 551a b001 3c14 b00b 551a b001 3b14 b00b  U...<...U...;...
000014c0: 551a b001 3b13 b00b 551b b001 3a13 b00b  U...;...U...:...
000014d0: 551a b001 3a14 b00b 551a b001 3914 b00b  U...:...U...9...
000014e0: 551a b001 3913 b00b 551b b001 3813 b00b  U...9...U...8...
000014f0: 551a b001 380a 8048 010a b00b 551a b001  U...8..H....U...
00001500: 3814 b00b 551a b001 3713 b00b 551b b001  8...U...7...U...
00001510: 3713 b00b 550b b001 3723 b00b 550b b001  7...U...7#..U...
00001520: 3723 b00b 5501 9057 2c09 b001 3823 b00b  7#..U..W,...8#..
00001530: 550b b001 3823 b00b 550b b001 3823 b00b  U...8#..U...8#..
00001540: 550b b001 3823 b00b 550a b001 3823 b00b  U...8#..U...8#..
00001550: 550b b001 3902 8057 0100 9056 2c21 b00b  U...9..W...V,!..
00001560: 550b b001 3923 b00b 550b b001 3923 b00b  U...9#..U...9#..
00001570: 550a b001 3a23 b00b 550b b001 3a23 b00b  U...:#..U...:#..
00001580: 550b b001 3b0d 8056 5b00 9054 3816 b00b  U...;..V[..T8...
00001590: 550b b001 3b23 b00b 550a b001 3b05 b001  U...;#..U...;...
000015a0: 3c1e b00b 5510 b001 3b1e b00b 5510 b001  <...U...;...U...
000015b0: 3b1e b00b 550f b001 3b14 8054 5500 9052  ;...U...;..TU..R
000015c0: 2e0b b00b 550f b001 3b1e b00b 5510 b001  ....U...;...U...
000015d0: 3b1e b00b 5510 b001 3b1e b00b 550f b001  ;...U...;...U...
000015e0: 3b1f b00b 550f b001 3b1e b00b 5510 b001  ;...U...;...U...
000015f0: 3b1e b00b 5510 b001 3b1e b00b 550f b001  ;...U...;...U...
00001600: 3b1f b00b 550f b001 3b1e b00b 5510 b001  ;...U...;...U...
00001610: 3b1e b00b 5510 b001 3b1e b00b 550f b001  ;...U...;...U...
00001620: 3b1f b00b 550f b001 3b1e b00b 5510 b001  ;...U...;...U...
00001630: 3b1e b00b 5510 b001 3b1e b00b 550f b001  ;...U...;...U...
00001640: 3b08 8052 5000 904f 3e17 b00b 550f b001  ;..RP..O>...U...
00001650: 3b1e b00b 5510 b001 3b1e b00b 5510 b001  ;...U...;...U...
00001660: 3b1e b00b 550f b001 3b1f b00b 550f b001  ;...U...;...U...
00001670: 3b1e b00b 5510 b001 3b1e b00b 5510 b001  ;...U...;...U...
00001680: 3b1e b00b 550f b001 3b11 b00b 561d b001  ;...U...;...V...
00001690: 3b11 b00b 551d b001 3b11 b00b 550d 804f  ;...U...;...U..O
000016a0: 5600 9051 3710 b001 3b10 b00b 541d b001  V..Q7...;...T...
000016b0: 3b11 b00b 541d b001 3c11 b00b 541d b001  ;...T...<...T...
000016c0: 3c11 b00b 531d b001 3c10 b00b 531d b001  <...S...<...S...
000016d0: 3c11 b00b 531d b001 3c11 b00b 521d b001  <...S...<...R...
000016e0: 3c11 b00b 521d b001 3c10 b00b 521d b001  <...R...<...R...
000016f0: 3c11 b00b 511d b001 3c11 b00b 511d b001  <...Q...<...Q...
00001700: 3c11 b00b 501d b001 3c10 b00b 501d b001  <...P...<...P...
00001710: 3c11 b00b 501d b001 3c11 b00b 4f1d b001  <...P...<...O...
00001720: 3c11 b00b 4f01 8051 6f1c b001 3c10 b00b  <...O..Qo...<...
00001730: 4f1d b001 3c11 b00b 4e1d b001 3c11 b00b  O...<...N...<...
00001740: 4e1d b001 3c11 b00b 4e1d b001 3c10 b00b  N...<...N...<...
00001750: 4d1d b001 3c11 b00b 4d1d b001 3c11 b00b  M...<...M...<...
00001760: 4d1d b001 3c11 b00b 4c1d b001 3c10 b00b  M...<...L...<...
00001770: 4c1d b001 3c11 b00b 4b1d b001 3c11 b00b  L...<...K...<...
00001780: 4b1d b001 3c11 b00b 4b1d b001 3c10 b00b  K...<...K...<...
00001790: 4a1d b001 3c11 b00b 4a1d b001 3c11 b00b  J...<...J...<...
000017a0: 4a1d b001 3c06 b001 3d0b b00b 4923 b001  J...<...=...I#..
000017b0: 3c0a b00b 4924 b001 3c0a b00b 492e b00b  <...I$..<...I...
000017c0: 482e b00b 482d b00b 482e b00b 472e b00b  H...H-..H...G...
000017d0: 472e b00b 462d b00b 462e b00b 462e b00b  G...F-..F...F...
000017e0: 452e b00b 452d b00b 452e b00b 442e b00b  E...E-..E...D...
000017f0: 442e b00b 442d b00b 432e b00b 432e b00b  D...D-..C...C...
00001800: 432e b00b 4222 b001 3c0b b00b 4223 b001  C...B"..<...B#..
00001810: 3c0b b00b 4123 b001 3c0b b00b 4122 b001  <...A#..<...A"..
00001820: 3d0c b00b 4122 b001 3d0b b00b 4023 b001  =...A"..=...@#..
00001830: 3e0b b00b 4023 b001 3e0b b00b 4022 b001  >...@#..>...@"..
00001840: 3e0c b00b 3f22 b001 3f0b b00b 3f23 b001  >...?"..?...?#..
00001850: 3f0b b00b 3f23 b001 400b b00b 3e22 b001  ?...?#..@...>"..
00001860: 400c b00b 3e22 b001 400b b00b 3e23 b001  @...>"..@...>#..
00001870: 410b b00b 3d23 b001 410b b00b 3d22 b001  A...=#..A...="..
00001880: 420c b00b 3c22 b001 420b b00b 3c23 b001  B...<"..B...<#..
00001890: 430b b00b 3c23 b001 430b b00b 3b22 b001  C...<#..C...;"..
000018a0: 430c b00b 3b22 b001 440b b00b 3b23 b001  C...;"..D...;#..
000018b0: 440b b00b 3a23 b001 450b b00b 3a22 b001  D...:#..E...:"..
000018c0: 450c b00b 3a22 b001 450b b00b 3923 b001  E...:"..E...9#..
000018d0: 460b b00b 3923 b001 460b b00b 3922 b001  F...9#..F...9"..
000018e0: 470c b00b 3822 b001 470b b00b 3823 b001  G...8"..G...8#..
000018f0: 470b b00b 3723 b001 480b b00b 3722 b001  G...7#..H...7"..
00001900: 480c b00b 370a b001 4900 9051 6b00 901a  H...7...I..Qk...
00001910: 5323 b00b 362e b00b 3627 801a 6507 b00b  S#..6...6'..e...
00001920: 362e b00b 352d b00b 3516 8051 5518 b00b  6...5-..5..QU...
00001930: 352e b00b 342e b00b 342d b00b 342e b00b  5...4...4-..4...
00001940: 332e b00b 332e b00b 322d b00b 322e b00b  3...3...2-..2...
00001950: 3220 b00b 322d b00b 310d 9051 6c21 b00b  2 ..2-..1..Ql!..
00001960: 312e b00b 312e b00b 312d b00b 302e b00b  1...1...1-..0...
00001970: 3018 8051 4f16 b00b 302e b00b 2f2d b00b  0..QO...0.../-..
00001980: 2f07 b001 4b27 b00b 2f2e b00b 2e23 9051  /...K'../....#.Q
00001990: 6a0b b00b 2e2d b00b 2e2e b00b 2e12 8051  j....-.........Q
000019a0: 5d1c b00b 2d2e b00b 2d2d b00b 2d01 9051  ]...-...--..-..Q
000019b0: 6b2d b00b 2c2a 8051 5c04 b00b 2c1d 9051  k-..,*.Q\...,..Q
000019c0: 6b11 b00b 2c2d b00b 2b19 8051 5e15 b00b  k...,-..+..Q^...
000019d0: 2b0c 9051 6c22 b00b 2b2e b00b 2b07 8051  +..Ql"..+...+..Q
000019e0: 5f21 9051 6c05 b00b 2a2e b00b 2a19 9018  _!.Ql...*...*...
000019f0: 530b 8051 5f0a b00b 2a17 b00b 2a00 b00b  S..Q_...*...*...
00001a00: 2c00 9051 6d5d 8018 6584 7380 5161 8181  ,..Qm]..e.s.Qa..
00001a10: 18b0 0136 38b0 0137 25b0 0138 37b0 0139  ...68..7%..87..9
00001a20: 25b0 013a 4fb0 0b5c 2eb0 0b5e 2eb0 0b60  %..:O..\...^...`
00001a30: 2db0 0b62 2eb0 0b6e 2eb0 0b7b 0bb0 0b7f  -..b...n...{....
00001a40: 8134 b001 3b38 b001 3c25 b001 3d13 b001  .4..;8..<%..=...
00001a50: 3e23 b001 3f7f b001 401a 9043 4081 07b0  >#..?...@..C@...
00001a60: 0141 24b0 0142 25b0 0143 24b0 0144 35b0  .A$..B%..C$..D5.
00001a70: 0145 24b0 0146 5ab0 0147 25b0 0148 1480  .E$..FZ..G%..H..
00001a80: 4352 0090 4448 33b0 0149 36b0 014b 24b0  CR..DH3..I6..K$.
00001a90: 014c 2eb0 014c 2db0 014c 2eb0 014c 2eb0  .L...L-..L...L..
00001aa0: 014d 2eb0 014d 2db0 014e 2eb0 014e 1380  .M...M-..N...N..
00001ab0: 445c 0090 453f 1bb0 014e 2eb0 014f 2db0  D\..E?...N...O-.
00001ac0: 014f 2eb0 0150 2eb0 0150 2eb0 0150 2db0  .O...P...P...P-.
00001ad0: 0151 2eb0 0151 2eb0 0152 2eb0 0152 2db0  .Q...Q...R...R-.
00001ae0: 0153 2eb0 0153 2eb0 0153 2eb0 0154 2db0  .S...S...S...T-.
00001af0: 0154 2eb0 0155 0780 455c 0090 4751 27b0  .T...U..E\..GQ'.
00001b00: 0155 2eb0 0155 2db0 0156 2eb0 0156 2eb0  .U...U-..V...V..
00001b10: 0157 2eb0 0157 2db0 0157 2eb0 0158 2eb0  .W...W-..W...X..
00001b20: 0158 2eb0 0159 2db0 0159 2eb0 015a 2eb0  .X...Y-..Y...Z..
00001b30: 015a 2eb0 015a 0eb0 015b 2eb0 015b 1a80  .Z...Z...[...[..
00001b40: 4755 0090 4858 14b0 015b 2eb0 015b 2db0  GU..HX...[...[-.
00001b50: 015b 2eb0 015b 2eb0 015b 2eb0 015b 2db0  .[...[...[...[-.
00001b60: 015c 2eb0 015c 2eb0 015c 2eb0 015c 2db0  .\...\...\...\-.
00001b70: 015c 0380 4858 0090 4a4b 2bb0 015c 2eb0  .\..HX..JK+..\..
00001b80: 015c 2eb0 015d 2db0 015d 2eb0 015d 2eb0  .\...]-..]...]..
00001b90: 015d 2eb0 015d 2db0 015d 2eb0 015d 2eb0  .]...]-..]...]..
00001ba0: 015d 2eb0 015e 2db0 015e 2eb0 015e 2eb0  .]...^-..^...^..
00001bb0: 015e 2eb0 015e 2480 4a3f 0090 4f4a 09b0  .^...^$.J?..OJ..
00001bc0: 015e 2eb0 015e 2eb0 015f 2eb0 015f 2db0  .^...^..._..._-.
00001bd0: 015f 2eb0 015f 2eb0 015f 2eb0 015f 2db0  ._..._..._..._-.
00001be0: 015f 2eb0 015f 2eb0 0160 2eb0 0160 2db0  ._..._...`...`-.
00001bf0: 0160 2eb0 0160 2eb0 0160 2eb0 0160 1880  .`...`...`...`..
00001c00: 4f41 0090 4a53 15b0 0160 2eb0 0161 2eb0  OA..JS...`...a..
00001c10: 0161 2eb0 0161 2db0 0161 2eb0 0161 2eb0  .a...a-..a...a..
00001c20: 0161 2eb0 0161 2db0 0161 15b0 0162 2eb0  .a...a-..a...b..
00001c30: 0162 1a80 4a43 0090 4849 14b0 0162 2eb0  .b..JC..HI...b..
00001c40: 0162 2db0 0162 2eb0 0162 2eb0 0162 2eb0  .b-..b...b...b..
00001c50: 0162 2db0 0162 2eb0 0162 2eb0 0162 2eb0  .b-..b...b...b..
00001c60: 0162 2db0 0162 2eb0 0162 2eb0 0162 2eb0  .b-..b...b...b..
00001c70: 0162 2db0 0162 2eb0 0162 0e80 4856 0090  .b-..b...b..HV..
00001c80: 4f49 20b0 0162 2eb0 0162 2db0 0162 2eb0  OI ..b...b-..b..
00001c90: 0162 2eb0 0162 2eb0 0162 2db0 0162 2eb0  .b...b...b-..b..
00001ca0: 0162 2eb0 0162 2eb0 0162 2db0 0162 2eb0  .b...b...b-..b..
00001cb0: 0162 2eb0 0162 2eb0 0162 2db0 0162 2eb0  .b...b...b-..b..
00001cc0: 0162 0280 4f20 2cb0 0162 2eb0 0162 2db0  .b..O ,..b...b-.
00001cd0: 0162 2eb0 0162 2eb0 0162 2eb0 0162 2db0  .b...b...b...b-.
00001ce0: 0162 2eb0 0162 2eb0 0163 2eb0 0163 1890  .b...b...c...c..
00001cf0: 4747 15b0 0163 2eb0 0163 2eb0 0163 2eb0  GG...c...c...c..
00001d00: 0163 2db0 0163 2eb0 0163 2eb0 0163 2eb0  .c-..c...c...c..
00001d10: 0163 2db0 0163 2eb0 0163 2eb0 0163 2eb0  .c-..c...c...c..
00001d20: 0163 2db0 0163 2eb0 0163 2eb0 0163 2eb0  .c-..c...c...c..
00001d30: 0163 0c80 474d 0090 4a4b 21b0 0163 2eb0  .c..GM..JK!..c..
00001d40: 0163 2eb0 0163 2eb0 0163 2db0 0163 2eb0  .c...c...c-..c..
00001d50: 0163 2eb0 0163 2eb0 0163 2db0 0164 2eb0  .c...c...c-..d..
00001d60: 0164 2eb0 0164 2eb0 0164 2db0 0164 2eb0  .d...d...d-..d..
00001d70: 0164 2eb0 0164 2e80 4a51 00b0 0164 0090  .d...d..JQ...d..
00001d80: 533f 2db0 0164 2eb0 0164 2eb0 0164 2eb0  S?-..d...d...d..
00001d90: 0164 2db0 0164 2eb0 0164 2eb0 0164 2eb0  .d-..d...d...d..
00001da0: 0164 2db0 0164 2eb0 0164 1780 5344 0090  .d-..d...d..SD..
00001db0: 513d 17b0 0164 2eb0 0164 2db0 0164 2eb0  Q=...d...d-..d..
00001dc0: 0164 2eb0 0164 2eb0 0164 2db0 0164 2eb0  .d...d...d-..d..
00001dd0: 0164 2eb0 0164 13b0 0165 2eb0 0164 2eb0  .d...d...e...d..
00001de0: 0164 2eb0 0164 2db0 0164 2eb0 0164 2eb0  .d...d-..d...d..
00001df0: 0164 2eb0 0164 2db0 0164 2eb0 0164 2eb0  .d...d-..d...d..
00001e00: 0164 2eb0 0164 2db0 0164 2eb0 0164 2eb0  .d...d-..d...d..
00001e10: 0164 2eb0 0164 2db0 0164 2eb0 0164 2eb0  .d...d-..d...d..
00001e20: 0164 2eb0 0164 2db0 0164 2eb0 0164 2eb0  .d...d-..d...d..
00001e30: 0164 1980 5151 15b0 0164 2db0 0164 2eb0  .d..QQ...d-..d..
00001e40: 0164 2eb0 0164 2eb0 0164 2db0 0164 2eb0  .d...d...d-..d..
00001e50: 0165 2eb0 0165 2eb0 0165 2db0 0165 2eb0  .e...e...e-..e..
00001e60: 0165 0290 4a4e 2cb0 0165 2eb0 0165 2db0  .e..JN,..e...e-.
00001e70: 0165 2eb0 0165 2eb0 0165 2eb0 0165 2db0  .e...e...e...e-.
00001e80: 0165 2eb0 0165 2eb0 0165 2eb0 0165 2db0  .e...e...e...e-.
00001e90: 0165 2eb0 0165 2eb0 0165 2eb0 0165 2db0  .e...e...e...e-.
00001ea0: 0165 2480 4a3e 0090 4f44 0ab0 0165 2eb0  .e$.J>..OD...e..
00001eb0: 0165 2eb0 0166 2db0 0166 2eb0 0166 2eb0  .e...f-..f...f..
00001ec0: 0166 2eb0 0166 2db0 0166 2eb0 0166 2eb0  .f...f-..f...f..
00001ed0: 0166 2eb0 0166 2db0 0166 2eb0 0166 2eb0  .f...f-..f...f..
00001ee0: 0166 2eb0 0166 2db0 0166 1880 4f33 0090  .f...f-..f..O3..
00001ef0: 513f 16b0 0166 2eb0 0166 2eb0 0166 2db0  Q?...f...f...f-.
00001f00: 0166 2eb0 0166 2380 515a 0090 4f40 0bb0  .f...f#.QZ..O@..
00001f10: 0166 2eb0 0166 2db0 0166 2eb0 0167 2eb0  .f...f-..f...g..
00001f20: 0167 2e80 4f3b 00b0 0167 0090 5448 2db0  .g..O;...g..TH-.
00001f30: 0167 2eb0 0167 2eb0 0167 2eb0 0167 2db0  .g...g...g...g-.
00001f40: 0167 2eb0 0167 2eb0 0167 2eb0 0167 2db0  .g...g...g...g-.
00001f50: 0167 2eb0 0167 2eb0 0167 2eb0 0167 2db0  .g...g...g...g-.
00001f60: 0167 2e80 5454 00b0 0167 0090 534a 2eb0  .g..TT...g..SJ..
00001f70: 0167 2eb0 0167 2db0 0167 2eb0 0167 2eb0  .g...g-..g...g..
00001f80: 0167 41b0 0167 2eb0 0167 2eb0 0167 2db0  .gA..g...g...g-.
00001f90: 0167 2eb0 0166 2eb0 0166 2eb0 0166 2db0  .g...f...f...f-.
00001fa0: 0166 2eb0 0166 2eb0 0166 2eb0 0166 2db0  .f...f...f...f-.
00001fb0: 0166 0380 534b 0090 4f4a 2bb0 0166 2eb0  .f..SK..OJ+..f..
00001fc0: 0166 2eb0 0166 2db0 0166 2eb0 0166 2eb0  .f...f-..f...f..
00001fd0: 0166 2eb0 0166 0280 4f48 2bb0 0166 2eb0  .f...f..OH+..f..
00001fe0: 0166 2eb0 0166 1990 4f5b 15b0 0166 2db0  .f...f..O[...f-.
00001ff0: 0166 2eb0 0166 2eb0 0166 2eb0 0166 2db0  .f...f...f...f-.
00002000: 0166 2eb0 0166 2eb0 0166 2eb0 0166 2db0  .f...f...f...f-.
00002010: 0166 2eb0 0166 2eb0 0166 2eb0 0166 2db0  .f...f...f...f-.
00002020: 0166 2eb0 0166 2eb0 0166 0d80 4f40 0090  .f...f...f..O@..
00002030: 5143 21b0 0166 2db0 0166 2eb0 0166 2eb0  QC!..f-..f...f..
00002040: 0166 2eb0 0166 2db0 0166 2eb0 0166 2eb0  .f...f-..f...f..
00002050: 0166 2eb0 0166 2db0 0166 2eb0 0166 2eb0  .f...f-..f...f..
00002060: 0166 2eb0 0166 2db0 0166 2eb0 0166 2eb0  .f...f-..f...f..
00002070: 0166 0180 5150 0090 5342 2db0 0166 2db0  .f..QP..SB-..f-.
00002080: 0166 2eb0 0166 2eb0 0166 2eb0 0166 2db0  .f...f...f...f-.
00002090: 0166 2eb0 0166 2eb0 0166 2bb0 0166 2eb0  .f...f...f+..f..
000020a0: 0165 1a80 5355 0090 5142 14b0 0165 2eb0  .e..SU..QB...e..
000020b0: 0165 2db0 0164 2eb0 0164 2eb0 0164 2eb0  .e-..d...d...d..
000020c0: 0164 2db0 0164 2eb0 0164 2eb0 0164 2eb0  .d-..d...d...d..
000020d0: 0164 2db0 0163 2eb0 0163 2eb0 0163 2eb0  .d-..c...c...c..
000020e0: 0163 2db0 0163 2eb0 0163 2eb0 0163 2eb0  .c-..c...c...c..
000020f0: 0163 2db0 0163 2eb0 0163 2eb0 0163 2eb0  .c-..c...c...c..
00002100: 0163 2db0 0163 2eb0 0163 2eb0 0163 2eb0  .c-..c...c...c..
00002110: 0163 2480 516d 09b0 0163 2eb0 0163 2eb0  .c$.Qm...c...c..
00002120: 0163 2eb0 0163 2db0 0163 2eb0 0163 2eb0  .c...c-..c...c..
00002130: 0163 2eb0 0163 2db0 0163 2eb0 0163 2eb0  .c...c-..c...c..
00002140: 0163 2eb0 0163 2db0 0163 2eb0 0163 2eb0  .c...c-..c...c..
00002150: 0163 2eb0 0162 1890 3e40 15b0 0162 2eb0  .c...b..>@...b..
00002160: 0162 2eb0 0162 2eb0 0162 2db0 0162 2eb0  .b...b...b-..b..
00002170: 0162 2eb0 0162 2eb0 0162 2db0 0162 2eb0  .b...b...b-..b..
00002180: 0162 2eb0 0162 2eb0 0162 2db0 0162 2eb0  .b...b...b-..b..
00002190: 0162 2eb0 0162 2eb0 0162 0c80 3e3c 0090  .b...b...b..><..
000021a0: 434a 21b0 0162 2eb0 0162 2eb0 0162 2eb0  CJ!..b...b...b..
000021b0: 0162 2db0 0162 2eb0 0162 2eb0 0162 2eb0  .b-..b...b...b..
000021c0: 0162 2db0 0162 2eb0 0162 2eb0 0162 2eb0  .b-..b...b...b..
000021d0: 0162 2db0 0162 2eb0 0162 2eb0 0161 2e80  .b-..b...b...a..
000021e0: 4357 00b0 0161 0090 4746 2db0 0161 2eb0  CW...a..GF-..a..
000021f0: 0161 2eb0 0161 2eb0 0161 2db0 0161 0c80  .a...a...a-..a..
00002200: 4741 22b0 0161 2eb0 0161 2eb0 0161 2db0  GA"..a...a...a-.
00002210: 0161 2eb0 0161 1790 4743 17b0 0161 2eb0  .a...a..GC...a..
00002220: 0161 2db0 0161 2eb0 0161 2eb0 0161 2eb0  .a-..a...a...a..
00002230: 0161 2db0 0161 2eb0 0161 2eb0 0161 2eb0  .a-..a...a...a..
00002240: 0161 2db0 0161 8170 8047 5900 9045 4385  .a-..a.p.GY..EC.
00002250: 5080 4546 0090 4746 8170 8047 3c00 9048  P.EF..GF.p.G<..H
00002260: 4519 b001 5e2d b001 5d2e b001 5c2e b001  E...^-..]...\...
00002270: 5b2e b001 5a20 8048 4800 904a 400d b001  [...Z .HH..J@...
00002280: 5a2e b001 592e b001 582e b001 572d b001  Z...Y...X...W-..
00002290: 562e b001 562e b001 552e b001 542d b001  V...V...U...T-..
000022a0: 532e b001 522e b001 522e b001 512d b001  S...R...R...Q-..
000022b0: 502e b001 4f2e b001 4e2e b001 4e14 804a  P...O...N...N..J
000022c0: 5700 9043 4619 b001 4d2e b001 4c2e b001  W..CF...M...L...
000022d0: 4b2e b001 4a2d b001 4a2e b001 492e b001  K...J-..J...I...
000022e0: 482e b001 472d b001 462e b001 462b 8043  H...G-..F...F+.C
000022f0: 5900 9043 4703 b001 452e b001 442d b001  Y..CG...E...D-..
00002300: 432e b001 422e b001 422e b001 4108 904f  C...B...B...A..O
00002310: 4425 b001 402e b001 3f2e b001 3e2e b001  D%..@...?...>...
00002320: 3e2d b001 3d14 8043 2e00 804f 4300 904e  >-..=..C...OC..N
00002330: 3b1a b001 3c2e b001 3b2e b001 3a2d b001  ;...<...;...:-..
00002340: 3a2e b001 391f 804e 6800 904d 2d0f b001  :...9..Nh..M-...
00002350: 382e b001 372d b001 372e b001 362e b001  8...7-..7...6...
00002360: 352e b001 342d b001 332e b001 332e b001  5...4-..3...3...
00002370: 322e b001 312d b001 302e b001 2f2e b001  2...1-..0.../...
00002380: 2f2e b001 2e2d b001 2d2e b001 2c13 804d  /....-..-...,..M
00002390: 5000 904b 3e1b b001 2b2e b001 2b2d b001  P..K>...+...+-..
000023a0: 2a2e b001 292e b001 282e b001 272d b001  *...)...(...'-..
000023b0: 272e b001 262e b001 252e b001 242d b001  '...&...%...$-..
000023c0: 232e b001 232e b001 222e b001 212d b001  #...#..."...!-..
000023d0: 202e b001 1f2e b001 1f09 b001 1f9d 5080   .............P.
000023e0: 4b5f 00ff 2f00 4d54 726b 0000 001f 00ff  K_../.MTrk......
000023f0: 010f 4353 2046 6c75 7465 204c 6567 6174  ..CS Flute Legat
00002400: 6f00 b00b 7f00 b007 7f00 ff2f 004d 5472  o........../.MTr
00002410: 6b00 0020 5900 ff01 1643 5320 466c 7574  k.. Y....CS Flut
00002420: 6520 5368 6f72 7473 2d54 7269 6c6c 7300  e Shorts-Trills.
00002430: b00b 7f00 b007 7f9f 6ab0 0b16 810c b00b  ........j.......
00002440: 1582 46b0 0134 13b0 0133 09b0 0131 09b0  ..F..4...3...1..
00002450: 012f 0ab0 012d 12b0 012c 0ab0 012b 09b0  ./...-...,...+..
00002460: 0129 09b0 0128 09b0 0127 0ab0 0126 09b0  .)...(...'...&..
00002470: 0124 09b0 0123 0ab0 0122 09b0 0121 09b0  .$...#..."...!..
00002480: 011f 0ab0 011e 09b0 011d 1190 1853 30b0  .............S0.
00002490: 011c 1290 5721 0090 5016 0090 530e 2fb0  ....W!..P...S./.
000024a0: 011d 12b0 011e 09b0 011f 09b0 0120 09b0  ............. ..
000024b0: 0121 09b0 0122 12b0 0123 13b0 0124 5f80  .!..."...#...$_.
000024c0: 1863 8205 b001 2564 b001 262e b001 2737  .c....%d..&...'7
000024d0: b001 2848 b001 2940 b001 2a37 b001 2b40  ..(H..)@..*7..+@
000024e0: b001 2c83 6a80 534a 0080 573d 0090 5932  ..,.j.SJ..W=..Y2
000024f0: 0090 5440 834b b001 2d2d b001 2e1c b001  ..T@.K..--......
00002500: 2f24 b001 3025 b001 3181 2db0 0132 8152  /$..0%..1.-..2.R
00002510: b001 3113 b001 2f12 b001 2e12 b001 2d12  ..1.../.......-.
00002520: b001 2c2e b001 2b1b b001 2a2e b001 291b  ..,...+...*...).
00002530: b001 2813 b001 2712 b001 261b b001 2512  ..(...'...&...%.
00002540: b001 241c b001 2312 b001 2212 b001 2113  ..$...#..."...!.
00002550: b001 2025 b001 1f12 b001 1e24 b001 1d1c  .. %.......$....
00002560: b001 1c1b b001 1b13 b001 1a24 b001 1912  ...........$....
00002570: b001 1825 b001 1724 b001 162e b001 151b  ...%...$........
00002580: b001 141c b001 1312 b001 122e b001 1112  ................
00002590: b001 1024 b001 0f6e b001 0e36 b001 0d13  ...$...n...6....
000025a0: b001 0c09 b001 0b38 b001 0a1d 8050 3400  .......8.....P4.
000025b0: 8054 4100 8059 3b81 7090 5739 0090 503c  .TA..Y;.p.W9..P<
000025c0: 0090 5332 54b0 010b 12b0 010c 1cb0 010d  ..S2T...........
000025d0: 3fb0 010e 822d b001 0f40 b001 1025 b001  ?....-...@...%..
000025e0: 1177 b001 121b b001 1324 b001 1481 00b0  .w.......$......
000025f0: 0116 8417 8057 5b00 8053 4100 904b 2f00  .....W[..SA..K/.
00002600: 9047 1d83 07b0 0117 40b0 0118 40b0 0119  .G......@...@...
00002610: 2eb0 011a 12b0 011b 25b0 011c 3fb0 011d  ........%...?...
00002620: 2eb0 011e 2eb0 011f 2eb0 0121 2db0 0122  ...........!-.."
00002630: 2eb0 0124 2eb0 0125 0280 505b 0080 473c  ...$...%..P[..G<
00002640: 0090 4847 0090 4f17 2cb0 0126 2db0 0128  ..HG..O.,..&-..(
00002650: 2eb0 0129 2eb0 012b 2eb0 012c 0db0 012d  ...)...+...,...-
00002660: 2eb0 012c 2eb0 012c 2db0 012c 2eb0 012c  ...,...,-..,...,
00002670: 2eb0 012c 2eb0 012c 2db0 012c 2eb0 012c  ...,...,-..,...,
00002680: 2eb0 012c 2eb0 012c 1680 4852 0090 5462  ...,...,..HR..Tb
00002690: 17b0 012c 2eb0 012c 2eb0 012c 2eb0 012c  ...,...,...,...,
000026a0: 2db0 012c 2eb0 012c 2eb0 012c 2eb0 012c  -..,...,...,...,
000026b0: 2db0 012c 2eb0 012c 2eb0 012c 2eb0 012c  -..,...,...,...,
000026c0: 2db0 012c 2eb0 012c 2eb0 012c 2eb0 012c  -..,...,...,...,
000026d0: 0a80 4b5f 0090 5b58 23b0 012c 2eb0 012c  ..K_..[X#..,...,
000026e0: 2eb0 012c 2eb0 012c 2db0 012c 2eb0 012c  ...,...,-..,...,
000026f0: 2eb0 012c 2eb0 012c 2db0 012c 2eb0 012c  ...,...,-..,...,
00002700: 21b0 012d 2eb0 012b 2eb0 0129 2db0 0127  !..-...+...)-..'
00002710: 2eb0 0125 2eb0 0123 2eb0 0121 2db0 011f  ...%...#...!-...
00002720: 2eb0 011e 2eb0 011c 2eb0 011a 2db0 0118  ............-...
00002730: 2eb0 0116 2eb0 0114 2eb0 0112 2db0 0111  ............-...
00002740: 2280 545b 0080 5b58 0080 4f3b 0cb0 010f  ".T[..[X..O;....
00002750: 2eb0 010d 2eb0 010b 2db0 0109 2eb0 0107  ........-.......
00002760: 2db0 0106 00b0 010a 0090 4e39 0090 463a  -.........N9..F:
00002770: 0090 4b2e 2eb0 010e 2eb0 0113 2db0 0118  ..K.........-...
00002780: 2eb0 011d 2eb0 0122 2eb0 0127 2db0 012c  ......."...'-..,
00002790: 2eb0 0131 2eb0 0136 2eb0 013b 16b0 013e  ...1...6...;...>
000027a0: 8170 b00b 142e b00b 132e b00b 132d b00b  .p...........-..
000027b0: 132e b00b 132e b00b 132e b00b 132d b00b  .............-..
000027c0: 132e b00b 132e b00b 132e b00b 132d b00b  .............-..
000027d0: 132e b00b 132e b00b 132e b00b 132d b00b  .............-..
000027e0: 1322 8046 1300 9042 3f0c b00b 132e b00b  .".F...B?.......
000027f0: 132e b00b 132d b00b 132e b00b 132e b00b  .....-..........
00002800: 132e b00b 132d b00b 132e b00b 132e b00b  .....-..........
00002810: 132e b00b 130a b001 3e23 b00b 130b b001  ........>#......
00002820: 3c23 b00b 130b b001 3a23 b00b 130a b001  <#......:#......
00002830: 3824 b00b 130a b001 3623 b00b 130b b001  8$......6#......
00002840: 3423 b00b 130b b001 3223 b00b 130a b001  4#......2#......
00002850: 301f 9018 5305 b00b 130a b001 2e23 b00b  0...S........#..
00002860: 130b b001 2c23 b00b 130b b001 2a16 804b  ....,#......*..K
00002870: 4400 804e 5b00 8042 5000 9046 7f00 904a  D..N[..BP..F...J
00002880: 7f0d b00b 130a b001 2824 b00b 130a b001  ........($......
00002890: 2606 8018 631d b00b 130b b001 2423 b00b  &...c.......$#..
000028a0: 130a 804a 4600 8046 4600 9046 6900 903e  ...JF..FF..Fi..>
000028b0: 7f01 b001 2223 b00b 130a b001 2024 b00b  ...."#...... $..
000028c0: 130a b001 1e23 b00b 130b b001 1c16 8046  .....#.........F
000028d0: 4200 803e 4600 904a 7f00 9043 7f0d b00b  B..>F..J...C....
000028e0: 130b b001 1a23 b00b 130a b001 1824 b00b  .....#.......$..
000028f0: 130a b001 1623 b00b 130a 804a 4d00 8043  .....#.....JM..C
00002900: 4d00 904f 7f00 9046 7f01 b001 1423 b00b  M..O...F.....#..
00002910: 130b b001 1223 b00b 130a b001 1024 b00b  .....#.......$..
00002920: 130a b001 0e16 804f 5b00 8046 5b00 904a  .......O[..F[..J
00002930: 7f00 9043 7f0d b00b 130b b001 0c23 b00b  ...C.........#..
00002940: 130b b001 0a0a b001 0a19 b00b 1315 b001  ................
00002950: 0b19 b00b 1309 804a 5a00 8043 5a00 9046  .......JZ..CZ..F
00002960: 7f00 904f 7f0c b001 0d18 b00b 1315 b001  ...O............
00002970: 0f19 b00b 1315 b001 1119 b00b 1315 b001  ................
00002980: 120b 8046 4e00 804f 4e00 904a 7f00 9052  ...FN..ON..J...R
00002990: 7f0e b00b 1315 b001 1418 b00b 1315 b001  ................
000029a0: 1419 b00b 1315 b001 1419 b00b 1309 804a  ...............J
000029b0: 4d00 8052 4d00 9046 7f00 904f 7f0c b001  M..RM..F...O....
000029c0: 1519 b00b 1315 b001 1518 b00b 1315 b001  ................
000029d0: 1519 b00b 1315 b001 160b 8046 4900 804f  ...........FI..O
000029e0: 4900 904a 7f00 9052 7f0e b00b 1315 b001  I..J...R........
000029f0: 1619 b00b 1315 b001 1618 b00b 1315 b001  ................
00002a00: 1719 b00b 1309 804a 4900 8052 4900 904f  .......JI..RI..O
00002a10: 7f00 9056 7f0c b001 1719 b00b 1315 b001  ...V............
00002a20: 1719 b00b 1315 b001 1818 b00b 1315 b001  ................
00002a30: 180b 804f 5000 8056 5000 904a 7f00 9052  ...OP..VP..J...R
00002a40: 7f0e b00b 1315 b001 1819 b00b 1314 b001  ................
00002a50: 191a b00b 1314 b001 1a19 b00b 1309 804a  ...............J
00002a60: 4d00 8052 4d00 9056 7f00 904f 7f0c b001  M..RM..V...O....
00002a70: 1b19 b00b 1314 b001 1d1a b00b 1314 b001  ................
00002a80: 1e1a b00b 1314 b001 1f0b 8056 5500 804f  ...........VU..O
00002a90: 5500 9052 7f00 905b 7f0e b00b 1315 b001  U..R...[........
00002aa0: 2019 b00b 1314 b001 221a b00b 1314 b001   .......".......
00002ab0: 241a b00b 1308 8052 5000 805b 5000 9056  $......RP..[P..V
00002ac0: 7f00 904f 7f0c b001 2519 b00b 1315 b001  ...O....%.......
00002ad0: 2719 b00b 1314 b001 291a b00b 1314 b001  '.......).......
00002ae0: 2a0b 8056 4d00 804f 4d00 9052 7f00 905b  *..VM..OM..R...[
00002af0: 7f0f b00b 1314 b001 2c19 b00b 1315 b001  ........,.......
00002b00: 2e19 b00b 1314 b001 2f1a b00b 1308 8052  ......../......R
00002b10: 5500 805b 5500 b001 3100 905e 6900 9056  U..[U...1..^i..V
00002b20: 6900 9062 6926 b00b 132d b00b 132e b00b  i..bi&...-......
00002b30: 132e b00b 132e b00b 132d b00b 132e b00b  .........-......
00002b40: 132e b00b 132e b00b 134c 805e 6100 8062  .........L.^a..b
00002b50: 6100 8056 6183 60b0 0100 c27f 9018 4a57  a..Va.`.......JW
00002b60: 8018 5f90 5ab0 0b13 00b0 0b14 0bb0 0b29  .._.Z..........)
00002b70: 8925 9056 180b b001 0a08 b001 0b07 b001  .%.V............
00002b80: 0c10 b001 0d10 b001 0e0f b001 1010 b001  ................
00002b90: 1110 b001 120f b001 1308 b001 1508 b001  ................
00002ba0: 1608 b001 170f b001 1810 b001 1908 b001  ................
00002bb0: 1a08 b001 1b0f b001 1d10 b001 1f08 b001  ................
00002bc0: 2008 b001 2102 8056 3d00 9054 1c05 b001   ...!..V=..T....
00002bd0: 2208 b001 2408 b001 2508 b001 2610 b001  "...$...%...&...
00002be0: 2707 b001 2856 b001 2708 b001 2618 b001  '...(V..'...&...
00002bf0: 250f b001 2410 b001 2310 b001 2107 b001  %...$...#...!...
00002c00: 2010 8054 4a00 b001 1f00 9059 1510 b001   ..TJ......Y....
00002c10: 1d07 b001 1c08 b001 1b18 b001 1a0f b001  ................
00002c20: 1928 b001 1836 b001 1782 2ab0 0116 36b0  .(...6....*...6.
00002c30: 0115 20b0 0114 812c 8059 4c00 b001 1500  .. ....,.YL.....
00002c40: 9058 3417 b001 1608 b001 1808 b001 1908  .X4.............
00002c50: b001 1a08 b001 1b08 b001 1c07 b001 1d08  ................
00002c60: b001 1e08 b001 2008 b001 2108 b001 220f  ...... ...!...".
00002c70: b001 2308 b001 2508 b001 2608 b001 2708  ..#...%...&...'.
00002c80: b001 280f b001 2910 b001 2a0f b001 2b10  ..(...)...*...+.
00002c90: b001 2c18 b001 2d05 8058 5b00 9054 3f2a  ..,...-..X[..T?*
00002ca0: b001 2e56 b001 2d0f b001 2c08 b001 2b17  ...V..-...,...+.
00002cb0: b001 2a18 b001 291f b001 2810 b001 2710  ..*...)...(...'.
00002cc0: b001 260f b001 2510 b001 2410 b001 2317  ..&...%...$...#.
00002cd0: b001 226d b001 2183 66b0 0122 0fb0 0123  .."m..!.f.."...#
00002ce0: 0fb0 0124 0480 5455 0090 521d 03b0 0125  ...$..TU..R....%
00002cf0: 07b0 0126 08b0 0127 07b0 0128 07b0 0129  ...&...'...(...)
00002d00: 08b0 012a 07b0 012b 08b0 012c 07b0 012e  ...*...+...,....
00002d10: 07b0 012f 07b0 0130 08b0 0131 07b0 0133  .../...0...1...3
00002d20: 07b0 0134 08b0 0136 07b0 0138 08b0 0139  ...4...6...8...9
00002d30: 0eb0 013a 0fb0 013b 32b0 013c 16b0 013d  ...:...;2..<...=
00002d40: 0eb0 013e 0480 5259 0090 512b 0bb0 013f  ...>..RY..Q+...?
00002d50: 15b0 0140 16b0 0141 4fb0 0142 63b0 0141  ...@...AO..Bc..A
00002d60: 07b0 0140 0180 513d 0090 4f3c 14b0 013f  ...@..Q=..O<...?
00002d70: 07b0 013e 15b0 013c 0eb0 013a 0eb0 0139  ...>...<...:...9
00002d80: 07b0 0138 0eb0 0137 0eb0 0135 15b0 0134  ...8...7...5...4
00002d90: 15b0 0132 0db0 0131 0eb0 0130 15b0 012f  ...2...1...0.../
00002da0: 07b0 012e 1bb0 012d 0eb0 012c 15b0 012b  .......-...,...+
00002db0: 14b0 012a 23b0 0129 1ab0 0128 1bb0 0127  ...*#..)...(...'
00002dc0: 15b0 0126 14b0 0125 1bb0 0124 0db0 0123  ...&...%...$...#
00002dd0: 0eb0 0122 1bb0 0121 15b0 0120 0eb0 011f  ..."...!... ....
00002de0: 0eb0 011e 0fb0 011d 1db0 011c 0eb0 011b  ................
00002df0: 0fb0 011a 0eb0 0119 0fb0 0118 1eb0 0117  ................
00002e00: 0fb0 0116 16b0 0115 0fb0 0114 17b0 0113  ................
00002e10: 814c 804f 5dcc 4bb0 0b48 83d0 2ab0 0136  .L.O].K..H..*..6
00002e20: 926c b00b 7e2e b00b 7d2e b00b 7c2e b00b  .l..~...}...|...
00002e30: 7b2d b00b 7a2e b00b 7a2e b00b 792e b00b  {-..z...z...y...
00002e40: 782d b00b 772e b00b 7712 b001 301c b00b  x-..w...w...0...
00002e50: 7612 b001 301c b00b 7512 b001 301b b00b  v...0...u...0...
00002e60: 7413 b001 3017 b00b 7416 b001 302e b001  t...0...t...0...
00002e70: 302e b001 312e b001 312d b001 312e b001  0...1...1-..1...
00002e80: 3123 b001 3c2d b001 3c2e b001 3d2e b001  1#..<-..<...=...
00002e90: 3d2e b001 3d2d b001 3d2e b001 3d2e b001  =...=-..=...=...
00002ea0: 3e22 9018 540c b001 3e2d b001 3e2e b001  >"..T...>-..>...
00002eb0: 3e2e b001 3e04 8018 602a b001 3f2d b001  >...>...`*..?-..
00002ec0: 3f2e b001 3f2e b001 3f2e b001 3f1d 9018  ?...?...?...?...
00002ed0: 4d10 b001 3f2e b001 400c 8018 5e22 b001  M...?...@...^"..
00002ee0: 402d 9052 3901 b001 402d b001 402e b001  @-.R9...@-..@...
00002ef0: 402e b001 412e b001 412d b001 410b 8052  @...A...A-..A..R
00002f00: 4300 9054 3c23 b001 412e b001 4123 b001  C..T<#..A...A#..
00002f10: 422d b001 422e b001 4221 8054 3800 9051  B-..B...B!.T8..Q
00002f20: 220d b001 422e b001 422d b001 422e b001  "...B...B-..B...
00002f30: 422e b001 422c 8051 4000 904f 2c02 b001  B...B,.Q@..O,...
00002f40: 422d b001 422e b001 422e b001 422e b001  B-..B...B...B...
00002f50: 422d b001 422e b001 422e b001 422e b001  B-..B...B...B...
00002f60: 422d b001 422e b001 412e b001 412e b001  B-..B...A...A...
00002f70: 412d b001 412e b001 412e b001 4120 804f  A-..A...A...A .O
00002f80: 400e b001 412d b001 412e b001 412e b001  @...A-..A...A...
00002f90: 412e b001 412b 904f 4b02 b001 412e b001  A...A+.OK...A...
00002fa0: 412e b001 412e b001 412d b001 412e b001  A...A...A-..A...
00002fb0: 4109 804f 4800 904e 3325 b001 412e b001  A..OH..N3%..A...
00002fc0: 412d b001 412e b001 412e b001 4014 804e  A-..A...A...@..N
00002fd0: 3b00 904f 3e1a b001 402d b001 402e b001  ;..O>...@-..@...
00002fe0: 402e b001 402e b001 401f 804f 4600 9051  @...@...@..OF..Q
00002ff0: 400e b001 402e b001 402e b001 402e b001  @...@...@...@...
00003000: 402d b001 402b 8051 4300 904a 3103 b001  @-..@+.QC..J1...
00003010: 402e b001 402e b001 402d b001 402e b001  @...@...@-..@...
00003020: 402e b001 402e b001 402d b001 402e b001  @...@...@-..@...
00003030: 402e b001 402e b001 3f2d b001 3f2e b001  @...@...?-..?...
00003040: 3f2e b001 3f2e b001 3f2d b001 3f1f 804a  ?...?...?-..?..J
00003050: 550f b001 3f2e b001 3f2e b001 3f2d b001  U...?...?...?-..
00003060: 3f2e b001 3f2e b001 3f2e b001 3f2d b001  ?...?...?...?-..
00003070: 3f2e b001 3f2e b001 3f2e b001 3f07 9052  ?...?...?...?..R
00003080: 2326 b001 3f2e b001 3f2e b001 3f2e b001  #&..?...?...?...
00003090: 3f0b b001 3f2e b001 4007 8052 3f00 9054  ?...?...@..R?..T
000030a0: 3c26 b001 402e b001 402e b001 402e b001  <&..@...@...@...
000030b0: 412d b001 4113 8054 3c00 9052 381b b001  A-..A..T<..R8...
000030c0: 412e b001 422e b001 4206 901a 4127 b001  A...B...B...A'..
000030d0: 422e b001 420d 801a 5b11 8052 0f00 9056  B...B...[..R...V
000030e0: 3d10 b001 422e b001 422d b001 420d 8056  =...B...B-..B..V
000030f0: 3f21 b001 422e b001 422e b001 422d b001  ?!..B...B...B-..
00003100: 422e b001 422d 9018 5101 b001 422e b001  B...B-..Q...B...
00003110: 4220 8018 5d0d b001 4207 9054 4927 b001  B ..]...B..TI'..
00003120: 422e b001 422e b001 422d b001 422e b001  B...B...B-..B...
00003130: 4212 8054 4300 9052 381c b001 422e b001  B..TC..R8...B...
00003140: 422d b001 422e b001 422e b001 421d 8052  B-..B...B...B..R
00003150: 3d00 9051 3411 b001 422d b001 422e b001  =..Q4...B-..B...
00003160: 422e b001 422e b001 4228 8051 5d00 904f  B...B...B(.Q]..O
00003170: 4105 b001 422e b001 422e b001 422e b001  A...B...B...B...
00003180: 422d b001 422e b001 4206 804f 3b00 9051  B-..B...B..O;..Q
00003190: 3f28 b001 422e b001 422d b001 422e b001  ?(..B...B-..B...
000031a0: 422e b001 4211 8051 3f00 904e 371d b001  B...B..Q?..N7...
000031b0: 422d b001 422e b001 422e b001 422e b001  B-..B...B...B...
000031c0: 421c 804e 0c00 904a 3411 b001 422e b001  B..N...J4...B...
000031d0: 422e b001 422e b001 422d b001 422e b001  B...B...B-..B...
000031e0: 422e b001 422e b001 422d b001 422e b001  B...B...B-..B...
000031f0: 422e b001 422e b001 422d b001 422e b001  B...B...B-..B...
00003200: 422e b001 422e b001 4210 b001 432e b001  B...B...B...C...
00003210: 422e b001 421c 804a 5f11 b001 422e b001  B...B..J_...B...
00003220: 422e b001 422e b001 422d b001 412e b001  B...B...B-..A...
00003230: 412e b001 412e b001 4116 904a 2d17 b001  A...A...A..J-...
00003240: 412e b001 412e b001 412e b001 402d b001  A...A...A...@-..
00003250: 4022 804a 0100 904b 250c b001 402e b001  @".J...K%...@...
00003260: 402e b001 402d b001 402e b001 402d 804b  @...@-..@...@-.K
00003270: 3b00 904d 1d01 b001 3f2e b001 3f2d b001  ;..M....?...?-..
00003280: 3f2e b001 3f2e b001 3f2e b001 3f0a 804d  ?...?...?...?..M
00003290: 3c00 904f 3423 b001 3f2e b001 3e2e b001  <..O4#..?...>...
000032a0: 3e2e b001 3e2d b001 3e2e b001 3e2e b001  >...>-..>...>...
000032b0: 3e2e b001 3e2d b001 3d2e b001 3d21 804f  >...>-..=...=!.O
000032c0: 340d b001 3d2e b001 3d2d b001 3d10 904d  4...=...=-..=..M
000032d0: 221e b001 3d2e b001 3d2e b001 3c2d b001  "...=...=...<-..
000032e0: 3c2e b001 3c2e b001 3c2e b001 3c2d b001  <...<...<...<-..
000032f0: 3c2e b001 3c2e b001 3b2e b001 3b2d b001  <...<...;...;-..
00003300: 3b2e b001 3b15 804d 3c00 904c 2d19 b001  ;...;..M<..L-...
00003310: 3b2e b001 3b2c b001 3b2e b001 3b2d b001  ;...;,..;...;-..
00003320: 3b22 804c 3c00 904d 280c b001 3b2e b001  ;".L<..M(...;...
00003330: 3b2e b001 3b2d b001 3b2e b001 3b2d 804d  ;...;-..;...;-.M
00003340: 3e00 904f 2c01 b001 3b2e b001 3b2d b001  >..O,...;...;-..
00003350: 3b2e b001 3b2e b001 3b2e b001 3b0a 804f  ;...;...;...;..O
00003360: 2b00 9054 2923 b001 3b2e b001 3b2e b001  +..T)#..;...;...
00003370: 3b2e b001 3b2d b001 3b2e b001 3c2e b001  ;...;-..;...<...
00003380: 3c2e b001 3c2d b001 3c2e b001 3c2e b001  <...<-..<...<...
00003390: 3c2e b001 3c2d b001 3c2e b001 3d2e b001  <...<-..<...=...
000033a0: 3d2e b001 3d2d b001 3d2e b001 3d2e b001  =...=-..=...=...
000033b0: 3d2e b001 3d2d b001 3d2e b001 3c2e b001  =...=-..=...<...
000033c0: 3c13 b00b 7313 8054 0100 9057 2c08 b001  <...s..T...W,...
000033d0: 3c12 b00b 721b b001 3c13 b00b 721b b001  <...r...<...r...
000033e0: 3c13 b00b 711b b001 3c13 b00b 711b b001  <...q...<...q...
000033f0: 3c12 b00b 701b b001 3d04 8057 0100 9056  <...p...=..W...V
00003400: 2c0f b00b 701b b001 3d13 b00b 6f1b b001  ,...p...=...o...
00003410: 3d13 b00b 6f1b b001 3d12 b00b 6e1b b001  =...o...=...n...
00003420: 3e13 b00b 6e1b b001 3e0f 8056 5b00 9054  >...n...>..V[..T
00003430: 3804 b00b 6d1b b001 3e13 b00b 6d1b b001  8...m...>...m...
00003440: 3e12 b00b 6c1b b001 3f13 b00b 6c1b b001  >...l...?...l...
00003450: 3f13 b00b 6b1b b001 3f13 b00b 6b1b b001  ?...k...?...k...
00003460: 3f12 b00b 6b1b b001 4013 b00b 6a1b b001  ?...k...@...j...
00003470: 4009 8054 5500 9052 2e0a b00b 6a1b b001  @..TU..R....j...
00003480: 4013 b00b 691b b001 4012 b00b 691b b001  @...i...@...i...
00003490: 4113 b00b 681b b001 4113 b00b 681b b001  A...h...A...h...
000034a0: 4113 b00b 671b b001 4112 b00b 671b b001  A...g...A...g...
000034b0: 4213 b00b 661b b001 4213 b00b 661b b001  B...f...B...f...
000034c0: 4213 b00b 651b b001 4212 b00b 651b b001  B...e...B...e...
000034d0: 4313 b00b 641b b001 4313 b00b 641b b001  C...d...C...d...
000034e0: 4313 b00b 641b b001 4312 b00b 6319 b001  C...d...C...c...
000034f0: 4415 b00b 6318 8052 5000 904f 3e01 b001  D...c..RP..O>...
00003500: 4315 b00b 6218 b001 4316 b00b 6218 b001  C...b...C...b...
00003510: 4215 b00b 6119 b001 4215 b00b 6119 b001  B...a...B...a...
00003520: 4215 b00b 6018 b001 4216 b00b 6018 b001  B...`...B...`...
00003530: 4215 b00b 5f19 b001 4215 b00b 5f19 b001  B..._...B..._...
00003540: 4115 b00b 5e18 b001 4116 b00b 5e18 b001  A...^...A...^...
00003550: 4115 b00b 5d01 804f 5600 9051 3718 b001  A...]..OV..Q7...
00003560: 4115 b00b 5d19 b001 4115 b00b 5d18 b001  A...]...A...]...
00003570: 4116 b00b 5c18 b001 4115 b00b 5c19 b001  A...\...A...\...
00003580: 4015 b00b 5b19 b001 4015 b00b 5b18 b001  @...[...@...[...
00003590: 4016 b00b 5a18 b001 4015 b00b 5a19 b001  @...Z...@...Z...
000035a0: 4015 b00b 5919 b001 4015 b00b 5918 b001  @...Y...@...Y...
000035b0: 4016 b00b 5818 b001 3f15 b00b 5819 b001  @...X...?...X...
000035c0: 3f15 b00b 5719 b001 3f15 b00b 5718 b001  ?...W...?...W...
000035d0: 3f16 b00b 5618 b001 3f0a 8051 6f0b b00b  ?...V...?..Qo...
000035e0: 5619 b001 3f15 b00b 5619 b001 3e15 b00b  V...?...V...>...
000035f0: 5518 b001 3e16 b00b 5518 b001 3e15 b00b  U...>...U...>...
00003600: 5419 b001 3e15 b00b 5419 b001 3e15 b00b  T...>...T...>...
00003610: 5318 b001 3e16 b00b 5318 b001 3e15 b00b  S...>...S...>...
00003620: 520d b001 3e21 b00b 520d b001 3c21 b00b  R...>!..R...<!..
00003630: 510c b001 3b22 b00b 510c b001 3a21 b00b  Q...;"..Q...:!..
00003640: 500d b001 3921 b00b 500d b001 3821 b00b  P...9!..P...8!..
00003650: 4f0c b001 3822 b00b 4f0c b001 3721 b00b  O...8"..O...7!..
00003660: 4f0d b001 3621 b00b 4e2e b00b 4e2e b00b  O...6!..N...N...
00003670: 4d2d b00b 4d2e b00b 4c2e b00b 4c2e b00b  M-..M...L...L...
00003680: 4b2d b00b 4b1c b00b 4b88 5cb0 0b47 16b0  K-..K...K.\..G..
00003690: 0136 00b0 0141 18b0 0b44 16b0 013f 18b0  .6...A...D...?..
000036a0: 0b42 15b0 013e 18b0 0b40 16b0 013d 18b0  .B...>...@...=..
000036b0: 0b3d 16b0 013b 18b0 0b3b 16b0 013a 18b0  .=...;...;...:..
000036c0: 0b39 15b0 0139 18b0 0b37 16b0 0137 18b0  .9...9...7...7..
000036d0: 0b34 16b0 0136 18b0 0b32 16b0 0135 18b0  .4...6...2...5..
000036e0: 0b30 15b0 0133 18b0 0b2e 16b0 0132 18b0  .0...3.......2..
000036f0: 0b2b 16b0 0131 18b0 0b29 16b0 012f 18b0  .+...1...).../..
00003700: 0b27 15b0 012e 18b0 0b25 16b0 012d 18b0  .'.......%...-..
00003710: 0b22 0fb0 0b22 00b0 012c 2eb0 0b21 2eb0  ."..."...,...!..
00003720: 0b21 1c90 516b 0090 5d6b 11b0 0b21 2eb0  .!..Qk..]k...!..
00003730: 0b21 2eb0 0b21 2eb0 0b20 2db0 0b20 2880  .!...!... -.. (.
00003740: 5155 0080 5d55 06b0 0b20 2eb0 0b20 2eb0  QU..]U... ... ..
00003750: 0b20 2db0 0b20 2eb0 0b1f 2eb0 0b1f 2eb0  . -.. ..........
00003760: 0b1f 2db0 0b1f 2eb0 0b1f 2eb0 0b1e 2eb0  ..-.............
00003770: 0b1e 1090 516c 0090 5d6c 1db0 0b1e 2eb0  ....Ql..]l......
00003780: 0b1e 2eb0 0b1e 2eb0 0b1e 2db0 0b1d 1c80  ..........-.....
00003790: 514f 0080 5d4f 12b0 0b1d 2eb0 0b1d 2990  QO..]O........).
000037a0: 1a53 05b0 0b1d 2db0 0b1d 2eb0 0b1c 2790  .S....-.......'.
000037b0: 5d6a 0090 516a 0280 1a65 05b0 0b1c 2eb0  ]j..Qj...e......
000037c0: 0b1c 2db0 0b1c 1680 515d 0080 5d5d 18b0  ..-.....Q]..]]..
000037d0: 0b1c 2eb0 0b1c 2eb0 0b1b 0490 5d6b 0090  ............]k..
000037e0: 516b 29b0 0b1b 2e80 5d5c 0080 515c 00b0  Qk).....]\..Q\..
000037f0: 0b1b 2190 5d6b 0090 516b 0db0 0b1b 2eb0  ..!.]k..Qk......
00003800: 0b1b 1c80 5d5e 0080 515e 11b0 0b1b 1090  ....]^..Q^......
00003810: 5d6c 0090 516c 1eb0 0b1a 2eb0 0b1a 0b80  ]l..Ql..........
00003820: 5d5f 0080 515f 2190 5d6c 0090 516c 02b0  ]_..Q_!.]l..Ql..
00003830: 0b1a 2db0 0b1a 1d90 1853 0b80 5d5f 0080  ..-......S..]_..
00003840: 515f 06b0 0b1a 1bb0 0b1a 0090 5d6d 0090  Q_..........]m..
00003850: 516d 2eb0 0b1a 2eb0 0b1a 0180 1865 2cb0  Qm...........e,.
00003860: 0b1a 2eb0 0b1a 2eb0 0b1a 2eb0 0b1a 2db0  ..............-.
00003870: 0b1a 2eb0 0b1a 2eb0 0b1a 2eb0 0b1b 2db0  ..............-.
00003880: 0b1b 2eb0 0b1b 2eb0 0b1b 2eb0 0b1b 2db0  ..............-.
00003890: 0b1b 2280 5161 0080 5d61 0cb0 0b1b 2eb0  ..".Qa..]a......
000038a0: 0b1b 2eb0 0b1b 2db0 0b1b 2eb0 0b1b 2db0  ......-.......-.
000038b0: 012d 00b0 012d 01b0 0b1b 2eb0 0b1b 2db0  .-...-........-.
000038c0: 0b1b 2eb0 0b1c 2eb0 0b1c 2eb0 0b1c 2db0  ..............-.
000038d0: 0b1c 2eb0 0b1d 2eb0 0b1d 2eb0 0b1d 2db0  ..............-.
000038e0: 0b1d 2eb0 0b1d 2eb0 0b1c 2eb0 0b1c 2db0  ..............-.
000038f0: 0b1c 2eb0 0b1c 2eb0 0b1c 2eb0 0b1c 2db0  ..............-.
00003900: 0b1c 2eb0 0b1c 2eb0 0b1c 2eb0 0b1c 2db0  ..............-.
00003910: 0b1c 2eb0 0b1c 2eb0 0b1c 2eb0 0b1c 2db0  ..............-.
00003920: 0b1c 2eb0 0b1c 2eb0 0b1c 2eb0 0b1c 2db0  ..............-.
00003930: 0b1c 2eb0 0b1c 2eb0 0b1c 2eb0 0b1c 2db0  ..............-.
00003940: 0b1c 2eb0 0b1c 2eb0 0b1c 2eb0 0b1c 2db0  ..............-.
00003950: 0b1c 2eb0 0b1c 2eb0 0b1c 2eb0 0b1c 2db0  ..............-.
00003960: 0b1c 2eb0 0b1c 2eb0 0b1c 2eb0 0b1c 2db0  ..............-.
00003970: 0b1c 2eb0 0b1c 2eb0 0b1c 2eb0 0b1c 2db0  ..............-.
00003980: 0b1c 2eb0 0b1c 2eb0 0b1c 2eb0 0b1c 2db0  ..............-.
00003990: 0b1c 2eb0 0b1c 2eb0 0b1b 2eb0 0b1b 2db0  ..............-.
000039a0: 0b1b 2eb0 0b1b 2eb0 0b1b 2eb0 0b1b 2db0  ..............-.
000039b0: 0b1b 2eb0 0b1b 2eb0 0b1b 2eb0 0b1b 2db0  ..............-.
000039c0: 0b1b 2eb0 0b1b 2eb0 0b1b 2eb0 0b1b 2db0  ..............-.
000039d0: 0b1b 2eb0 0b1b 2eb0 0b1b 2eb0 0b1b 2db0  ..............-.
000039e0: 0b1b 2eb0 0b1b 2eb0 0b1b 2eb0 0b1b 2db0  ..............-.
000039f0: 0b1b 2eb0 0b1b 2eb0 0b1b 2eb0 0b1b 2db0  ..............-.
00003a00: 0b1b 2eb0 0b1b 2eb0 0b1b 2eb0 0b1b 2db0  ..............-.
00003a10: 0b1b 2eb0 0b1b 2eb0 0b1b 2eb0 0b1b 2db0  ..............-.
00003a20: 0b1b 2eb0 0b1b 2eb0 0b1b 2eb0 0b1b 2db0  ..............-.
00003a30: 0b1b 2eb0 0b1b 2eb0 0b1b 2eb0 0b1b 2db0  ..............-.
00003a40: 0b1b 2eb0 0b1b 2eb0 0b1b 2eb0 0b1a 2db0  ..............-.
00003a50: 0b1a 2eb0 0b1a 2eb0 0b1a 2eb0 0b1a 2db0  ..............-.
00003a60: 0b1a 2eb0 0b1a 2eb0 0b1a 2eb0 0b1a 2db0  ..............-.
00003a70: 0b1a 2eb0 0b1a 2eb0 0b1a 2eb0 0b1a 2db0  ..............-.
00003a80: 0b1a 2eb0 0b1a 2eb0 0b1a 2eb0 0b1a 2db0  ..............-.
00003a90: 0b1a 2eb0 0b1a 2eb0 0b1a 2eb0 0b1a 2db0  ..............-.
00003aa0: 0b1a 2eb0 0b1a 2eb0 0b1a 2eb0 0b1a 2db0  ..............-.
00003ab0: 0b1a 2eb0 0b1a 2eb0 0b1a 2eb0 0b1a 2db0  ..............-.
00003ac0: 0b1a 2eb0 0b1a 2eb0 0b1a 2eb0 0b1a 2db0  ..............-.
00003ad0: 0b1a 2eb0 0b1a 2eb0 0b1a 2eb0 0b1a 2db0  ..............-.
00003ae0: 0b1a 2eb0 0b1a 2eb0 0b1a 2eb0 0b1a 2db0  ..............-.
00003af0: 0b1a 2eb0 0b1a 2eb0 0b1a 1db0 0b1a 2db0  ..............-.
00003b00: 0b1a 2eb0 0b1a 2eb0 0b1b 2eb0 0b1b 2db0  ..............-.
00003b10: 0b1b 2eb0 0b1c 2eb0 0b1c 2eb0 0b1c 2db0  ..............-.
00003b20: 0b1d 2eb0 0b1d 2eb0 0b1d 2eb0 0b1e 2db0  ..............-.
00003b30: 0b1e 2eb0 0b1e 2eb0 0b1f 2eb0 0b1f 2db0  ..............-.
00003b40: 0b1f 2eb0 0b20 2eb0 0b20 2eb0 0b21 2db0  ..... ... ...!-.
00003b50: 0b21 2eb0 0b21 2eb0 0b22 2eb0 0b22 2db0  .!...!..."..."-.
00003b60: 0b22 2eb0 0b23 2eb0 0b23 2eb0 0b23 2db0  ."...#...#...#-.
00003b70: 0b24 2eb0 0b24 2eb0 0b24 2eb0 0b25 2db0  .$...$...$...%-.
00003b80: 0b25 2eb0 0b25 2eb0 0b26 2eb0 0b26 2db0  .%...%...&...&-.
00003b90: 0b26 2eb0 0b27 2eb0 0b27 2eb0 0b28 2db0  .&...'...'...(-.
00003ba0: 0b28 2eb0 0b28 2eb0 0b29 2eb0 0b29 2db0  .(...(...)...)-.
00003bb0: 0b29 2eb0 0b2a 2eb0 0b2a 2eb0 0b2a 2db0  .)...*...*...*-.
00003bc0: 0b2b 2eb0 0b2b 2eb0 0b2b 2eb0 0b2c 2db0  .+...+...+...,-.
00003bd0: 0b2c 2eb0 0b2c 2eb0 0b2d 2eb0 0b2d 2db0  .,...,...-...--.
00003be0: 0b2d 2eb0 0b2e 2eb0 0b2e 2eb0 0b2f 2db0  .-.........../-.
00003bf0: 0b2f 2eb0 0b2f 2eb0 0b30 2eb0 0b30 2db0  ./.../...0...0-.
00003c00: 0b30 2eb0 0b31 2eb0 0b31 2eb0 0b31 2db0  .0...1...1...1-.
00003c10: 0b32 2eb0 0b32 2eb0 0b32 2eb0 0b33 2db0  .2...2...2...3-.
00003c20: 0b33 2eb0 0b33 2eb0 0b34 2eb0 0b34 2db0  .3...3...4...4-.
00003c30: 0b34 2eb0 0b35 2eb0 0b35 2eb0 0b36 2db0  .4...5...5...6-.
00003c40: 0b36 2eb0 0b36 2eb0 0b37 2eb0 0b37 2db0  .6...6...7...7-.
00003c50: 0b37 2eb0 0b38 2eb0 0b38 2eb0 0b38 2db0  .7...8...8...8-.
00003c60: 0b39 2eb0 0b39 2eb0 0b39 2eb0 0b3a 2db0  .9...9...9...:-.
00003c70: 0b3a 2eb0 0b3a 2eb0 0b3b 2eb0 0b3b 2db0  .:...:...;...;-.
00003c80: 0b3c 2eb0 0b3c 2eb0 0b3c 2eb0 0b3d 2db0  .<...<...<...=-.
00003c90: 0b3d 2eb0 0b3d 2eb0 0b3e 2eb0 0b3e 2db0  .=...=...>...>-.
00003ca0: 0b3e 2eb0 0b3f 2eb0 0b3f 2eb0 0b3f 2db0  .>...?...?...?-.
00003cb0: 0b40 2eb0 0b40 2eb0 0b40 2eb0 0b41 2db0  .@...@...@...A-.
00003cc0: 0b41 2eb0 0b41 2eb0 0b42 2eb0 0b42 2db0  .A...A...B...B-.
00003cd0: 0b43 2eb0 0b43 2eb0 0b43 2eb0 0b44 2db0  .C...C...C...D-.
00003ce0: 0b44 2eb0 0b44 2eb0 0b45 2eb0 0b45 2db0  .D...D...E...E-.
00003cf0: 0b45 2eb0 0b46 2eb0 0b46 2eb0 0b46 2db0  .E...F...F...F-.
00003d00: 0b47 2eb0 0b47 2eb0 0b47 2eb0 0b48 2db0  .G...G...G...H-.
00003d10: 0b48 2eb0 0b48 2eb0 0b49 2eb0 0b49 2db0  .H...H...I...I-.
00003d20: 0b4a 2eb0 0b4a 2eb0 0b4a 2eb0 0b4b 2db0  .J...J...J...K-.
00003d30: 0b4b 2eb0 0b4b 2eb0 0b4c 2eb0 0b4c 2db0  .K...K...L...L-.
00003d40: 0b4c 2eb0 0b4d 2eb0 0b4d 2eb0 0b4d 2db0  .L...M...M...M-.
00003d50: 0b4e 2eb0 0b4e 2eb0 0b4e 2eb0 0b4f 2db0  .N...N...N...O-.
00003d60: 0b4f 2eb0 0b4f 2eb0 0b50 2eb0 0b50 2db0  .O...O...P...P-.
00003d70: 0b51 2eb0 0b51 2eb0 0b51 2eb0 0b52 2db0  .Q...Q...Q...R-.
00003d80: 0b52 2eb0 0b52 2eb0 0b53 2eb0 0b53 2db0  .R...R...S...S-.
00003d90: 0b53 2eb0 0b54 2eb0 0b54 2eb0 0b54 2db0  .S...T...T...T-.
00003da0: 0b55 2eb0 0b55 2eb0 0b55 2eb0 0b56 2db0  .U...U...U...V-.
00003db0: 0b56 2eb0 0b56 2eb0 0b57 2eb0 0b57 2db0  .V...V...W...W-.
00003dc0: 0b58 2eb0 0b58 2eb0 0b58 2eb0 0b59 2db0  .X...X...X...Y-.
00003dd0: 0b59 2eb0 0b59 2eb0 0b5a 2eb0 0b5a 2db0  .Y...Y...Z...Z-.
00003de0: 0b5a 2eb0 0b5b 2eb0 0b5b 2eb0 0b5b 2db0  .Z...[...[...[-.
00003df0: 0b5c 2eb0 0b5c 2eb0 0b5c 2eb0 0b5d 2db0  .\...\...\...]-.
00003e00: 0b5d 2eb0 0b5e 2eb0 0b5e 2eb0 0b5e 2db0  .]...^...^...^-.
00003e10: 0b5f 2eb0 0b5f 2eb0 0b5f 2eb0 0b60 2db0  ._..._..._...`-.
00003e20: 0b60 2eb0 0b60 2eb0 0b61 2eb0 0b61 2cb0  .`...`...a...a,.
00003e30: 016c 01b0 0165 00b0 0167 00b0 016e 00b0  .l...e...g...n..
00003e40: 0b61 01b0 0169 0bb0 0163 13b0 0160 0fb0  .a...i...c...`..
00003e50: 0b62 04b0 015e 12b0 015d 18b0 0b62 2eb0  .b...^...]...b..
00003e60: 0b62 04b0 015c 13b0 015a 13b0 0159 03b0  .b...\...Z...Y..
00003e70: 0b63 2eb0 0b63 19b0 0158 13b0 0157 02b0  .c...c...X...W..
00003e80: 0b63 22b0 0156 0cb0 0b64 2db0 0b64 2eb0  .c"..V...d-..d..
00003e90: 0b65 2eb0 0b65 2eb0 0b65 09b0 0155 12b0  .e...e...e...U..
00003ea0: 0154 12b0 0b66 02b0 0153 12b0 0152 1ab0  .T...f...S...R..
00003eb0: 0b66 0bb0 0151 23b0 0b66 2eb0 0b67 2db0  .f...Q#..f...g-.
00003ec0: 0b67 29b0 0152 05b0 0b67 20b0 0154 0eb0  .g)..R...g ..T..
00003ed0: 0b68 04b0 0156 12b0 0158 13b0 0159 05b0  .h...V...X...Y..
00003ee0: 0b68 21b0 015a 0cb0 0b68 18b0 015b 16b0  .h!..Z...h...[..
00003ef0: 0b69 22b0 015c 0cb0 0b69 2590 4340 09b0  .i"..\...i%.C@..
00003f00: 0b69 0fb0 015d 13b0 015e 0bb0 0b6a 2eb0  .i...]...^...j..
00003f10: 0b6a 23b0 015f 0bb0 0b6a 2eb0 0b6b 2db0  .j#.._...j...k-.
00003f20: 0b6b 2eb0 0b6c 2eb0 0b6c 2eb0 0b6c 2db0  .k...l...l...l-.
00003f30: 0b6d 2eb0 0b6d 2eb0 0b6d 2eb0 0b6e 2db0  .m...m...m...n-.
00003f40: 0b6e 2eb0 0b6e 2eb0 0b6f 1980 4352 0090  .n...n...o..CR..
00003f50: 4448 15b0 0b6f 2db0 0b6f 2eb0 0b70 2eb0  DH...o-..o...p..
00003f60: 0b70 2eb0 0b70 2db0 0b71 2eb0 0b71 2eb0  .p...p-..q...q..
00003f70: 0b71 2eb0 0b72 2db0 0b72 2eb0 0b73 0280  .q...r-..r...s..
00003f80: 445c 0090 453f 04b0 0160 28b0 0b73 2eb0  D\..E?...`(..s..
00003f90: 0b73 2db0 0b74 10b0 0161 13b0 0162 0bb0  .s-..t...a...b..
00003fa0: 0b74 07b0 0163 27b0 0b74 10b0 0164 1eb0  .t...c'..t...d..
00003fb0: 0b75 19b0 0165 12b0 0166 02b0 0b75 2eb0  .u...e...f...u..
00003fc0: 0b75 2eb0 0b76 23b0 0167 0bb0 0b76 2db0  .u...v#..g...v-.
00003fd0: 0b76 0eb0 0b77 814d 8045 5c00 9047 5182  .v...w.M.E\..GQ.
00003fe0: 5cb0 0169 8100 b001 6a6d b001 6c81 0780  \..i....jm..l...
00003ff0: 4755 0090 4858 0cb0 016d 8354 8048 5800  GU..HX...m.T.HX.
00004000: 904a 4b85 5080 4a3f 0090 4f4a 5cb0 016e  .JK.P.J?..OJ\..n
00004010: 8212 b001 6f81 13b0 0170 49b0 0171 24b0  ....o....pI..q$.
00004020: 0172 37b0 0173 2b80 4f41 0090 4a53 8268  .r7..s+.OA..JS.h
00004030: b001 7478 804a 4300 9048 4982 3fb0 0175  ..tx.JC..HI.?..u
00004040: 815b b001 7681 3680 4856 0090 4f49 844a  .[..v.6.HV..OI.J
00004050: b001 7581 24b0 0174 8100 b001 7325 b001  ..u.$..t....s%..
00004060: 722d 804f 2009 b001 7112 b001 7025 b001  r-.O ...q...p%..
00004070: 6f81 3090 4747 8107 b001 7012 b001 7212  o.0.GG....p...r.
00004080: b001 7313 b001 7512 b001 7625 b001 7782  ..s...u...v%..w.
00004090: 00b0 0176 24b0 0174 25b0 0173 37b0 0172  ...v$..t%..s7..r
000040a0: 37b0 0171 2480 474d 00b0 016f 0090 4a4b  7..q$.GM...o..JK
000040b0: 5bb0 016e 4ab0 016d 49b0 016c 835b b001  [..nJ..mI..l.[..
000040c0: 6d07 804a 5100 9053 3f1e b001 6e24 b001  m..JQ..S?...n$..
000040d0: 6f25 b001 7037 b001 7181 6eb0 0172 5480  o%..p7..q.n..rT.
000040e0: 5344 0090 513d 50b0 0171 25b0 0170 8a2b  SD..Q=P..q%..p.+
000040f0: 8051 5181 54b0 016f 820c 904a 4e85 5080  .QQ.T..o...JN.P.
00004100: 4a3e 0090 4f44 8524 b001 702c 804f 3300  J>..OD.$..p,.O3.
00004110: 9051 3f81 7080 515a 0090 4f40 8170 804f  .Q?.p.QZ..O@.p.O
00004120: 3b00 9054 4885 5080 5454 0090 534a 8550  ;..TH.P.TT..SJ.P
00004130: 8053 4b00 904f 4a83 6080 4f48 0090 4f5b  .SK..OJ.`.OH..O[
00004140: 8550 804f 4000 9051 4381 7fb0 0171 8351  .P.O@..QC....q.Q
00004150: 8051 5000 9053 4283 6080 5355 0090 5142  .QP..SB.`.SU..QB
00004160: 8529 b001 7285 7780 516d 8360 903e 4081  .)..r.w.Qm.`.>@.
00004170: 5bb0 0171 24b0 0170 25b0 016f 37b0 016e  [..q$..p%..o7..n
00004180: 5bb0 016d 13b0 016c 8137 b001 6b24 b001  [..m...l.7..k$..
00004190: 6a25 b001 6807 803e 3c00 9043 4a3c b00b  j%..h..><..CJ<..
000041a0: 774f b001 6725 b001 665b b001 6582 24b0  wO..g%..f[..e.$.
000041b0: 0166 37b0 0167 25b0 0168 37b0 0169 0e80  .f7..g%..h7..i..
000041c0: 4357 0090 4746 4db0 016a 8112 b001 6b11  CW..GFM..j....k.
000041d0: 8047 416f b001 6c81 0190 4743 44b0 0b77  .GAo..l...GCD..w
000041e0: 29b0 016d 04b0 0b76 2eb0 0b76 2eb0 0b76  )..m...v...v...v
000041f0: 2eb0 0b76 2db0 0b76 2eb0 0b76 2eb0 0b76  ...v-..v...v...v
00004200: 2eb0 0b76 2db0 0b76 2eb0 0b76 2eb0 0b76  ...v-..v...v...v
00004210: 2eb0 0b76 2db0 0b76 2eb0 0b75 0c80 4759  ...v-..v...u..GY
00004220: 0090 4543 0ab0 016e 18b0 0b75 0eb0 016f  ..EC...n...u...o
00004230: 20b0 0b75 16b0 0170 17b0 0b75 2eb0 0b75   ..u...p...u...u
00004240: 28b0 0171 06b0 0b75 2eb0 0b75 2db0 0b75  (..q...u...u-..u
00004250: 2eb0 0b75 2eb0 0b75 2eb0 0b75 2db0 0b75  ...u...u...u-..u
00004260: 2eb0 0b75 2eb0 0b75 1eb0 0b75 13b0 0172  ...u...u...u...r
00004270: 4ab0 0173 0e80 4546 0090 4746 16b0 0174  J..s..EF..GF...t
00004280: 8137 b001 7523 8047 3c00 9048 4581 7080  .7..u#.G<..HE.p.
00004290: 4848 0090 4a40 8224 b001 7436 b001 736e  HH..J@.$..t6..sn
000042a0: b001 726e b001 7181 00b0 0170 1a80 4a57  ..rn..q....p..JW
000042b0: 0090 4346 810a b001 6f13 b001 6e12 b001  ..CF....o...n...
000042c0: 6d37 b001 6c81 7a80 4359 0490 4347 48b0  m7..l.z.CY..CGH.
000042d0: 016c 2eb0 016a 2eb0 0169 2db0 0168 1b80  .l...j...i-..h..
000042e0: 432e 0090 4f44 13b0 0167 2eb0 0166 2eb0  C...OD...g...f..
000042f0: 0165 2db0 0164 2eb0 0163 2680 4f43 0090  .e-..d...c&.OC..
00004300: 4e3b 08b0 0162 2eb0 0161 2db0 0160 2eb0  N;...b...a-..`..
00004310: 015f 2eb0 015e 2eb0 015d 0380 4e68 0090  ._...^...]..Nh..
00004320: 4d2d 2ab0 015c 2eb0 015b 2eb0 015a 2eb0  M-*..\...[...Z..
00004330: 0159 2db0 0158 2eb0 0157 2eb0 0156 2eb0  .Y-..X...W...V..
00004340: 0155 2db0 0154 2eb0 0153 2eb0 0152 2eb0  .U-..T...S...R..
00004350: 0151 2db0 0150 2eb0 014e 2eb0 014d 2580  .Q-..P...N...M%.
00004360: 4d50 09b0 014c 2db0 014b 2eb0 014a 2eb0  MP...L-..K...J..
00004370: 0149 2eb0 0148 2db0 0147 2eb0 0146 2eb0  .I...H-..G...F..
00004380: 0145 2eb0 0144 2db0 0143 2eb0 0142 2eb0  .E...D-..C...B..
00004390: 0141 2eb0 0140 2db0 013f 2eb0 013e 2eb0  .A...@-..?...>..
000043a0: 013d 2eb0 013c 2db0 013b 2eb0 013a 2eb0  .=...<-..;...:..
000043b0: 0139 2eb0 0138 2db0 0137 2eb0 0136 2eb0  .9...8-..7...6..
000043c0: 0135 2eb0 0134 2db0 0133 2eb0 0131 2eb0  .5...4-..3...1..
000043d0: 0130 2eb0 012f 2db0 012e 2eb0 012d 2eb0  .0.../-......-..
000043e0: 012c 2eb0 012b 2db0 012a 2eb0 0129 2eb0  .,...+-..*...)..
000043f0: 0128 2eb0 0127 2db0 0126 2eb0 0125 2eb0  .(...'-..&...%..
00004400: 0124 2eb0 0123 2db0 0122 2eb0 0121 2eb0  .$...#-.."...!..
00004410: 0120 2eb0 011f 2db0 011e 2eb0 011d 2eb0  . ....-.........
00004420: 011c 2eb0 011b 2db0 011a 2eb0 0119 2eb0  ......-.........
00004430: 0118 2eb0 0117 2db0 0116 2db0 0115 37b0  ......-...-...7.
00004440: 0113 12b0 0112 49b0 0111 8125 b001 106e  ......I....%...n
00004450: b001 0f5b b001 0e81 6eb0 010d 8149 b001  ...[....n....I..
00004460: 0c12 b001 0a81 14b0 0109 00ff 2f00 4d54  ............/.MT
00004470: 726b 0000 0025 00ff 0115 5346 2046 6c75  rk...%....SF Flu
00004480: 7465 204c 6567 6174 6f2d 4c6f 6e67 7300  te Legato-Longs.
00004490: b00b 7f00 b007 7f00 ff2f 004d 5472 6b00  ........./.MTrk.
000044a0: 0000 2f00 ff01 1653 4620 466c 7574 6520  ../....SF Flute 
000044b0: 5368 6f72 7473 2d54 7269 6c6c 7300 b00b  Shorts-Trills...
000044c0: 7f00 b007 7f53 901f 4083 6080 1f40 00ff  .....S..@.`..@..
000044d0: 2f00 4d54 726b 0000 0024 00ff 0114 4557  /.MTrk...$....EW
000044e0: 2046 6c75 7465 7320 476c 6973 7320 4c6f   Flutes Gliss Lo
000044f0: 6e67 00b0 0b7f 00b0 077f 00ff 2f00 4d54  ng........../.MT
00004500: 726b 0000 0029 00ff 0115 4557 2046 6c75  rk...)....EW Flu
00004510: 7465 7320 476c 6973 7320 5368 6f72 7400  tes Gliss Short.
00004520: b00b 7f00 b007 7f00 e000 4400 ff2f 004d  ..........D../.M
00004530: 5472 6b00 0000 1f00 ff01 0f45 5720 466c  Trk........EW Fl
00004540: 7574 6573 2047 7261 6365 00b0 0b7f 00b0  utes Grace......
00004550: 077f 00ff 2f00 4d54 726b 0000 0021 00ff  ..../.MTrk...!..
00004560: 0111 3844 2046 6c75 7465 2063 7265 2d64  ..8D Flute cre-d
00004570: 696d 7300 b00b 7f00 b007 7f00 ff2f 004d  ims........../.M
00004580: 5472 6b00 0000 2500 ff01 1538 4420 466c  Trk...%....8D Fl
00004590: 7574 6520 5374 6163 6361 7469 7369 6d6f  ute Staccatisimo
000045a0: 00b0 0b7f 00b0 077f 00ff 2f00 4d54 726b  ........../.MTrk
000045b0: 0000 001e 00ff 010e 4353 2041 6c74 6f20  ........CS Alto 
000045c0: 4c65 6761 746f 00b0 0b7f 00b0 077f 00ff  Legato..........
000045d0: 2f00 4d54 726b 0000 0017 00ff 0107 4d49  /.MTrk........MI
000045e0: 4449 2d31 3200 b00b 7f00 b007 7f00 ff2f  DI-12........../
000045f0: 004d 5472 6b00 0000 1700 ff01 074d 4944  .MTrk........MID
00004600: 492d 3133 00b0 0b7f 00b0 077f 00ff 2f00  I-13........../.
00004610: 4d54 726b 0000 0017 00ff 0107 4d49 4449  MTrk........MIDI
00004620: 2d31 3400 b00b 7f00 b007 7f00 ff2f 004d  -14........../.M
00004630: 5472 6b00 0000 1700 ff01 074d 4944 492d  Trk........MIDI-
00004640: 3135 00b0 0b7f 00b0 077f 00ff 2f00 4d54  15........../.MT
00004650: 726b 0000 0017 00ff 0107 4d49 4449 2d31  rk........MIDI-1
00004660: 3600 b00b 7f00 b007 7f00 ff2f 004d 5472  6........../.MTr
00004670: 6b00 000d 7a00 ff01 1043 5320 4f62 6f65  k...z....CS Oboe
00004680: 2031 204c 6567 6174 6f00 b00b 2c00 b007   1 Legato...,...
00004690: 7f81 b760 b001 0e9e 0090 5401 8114 b001  ...`......T.....
000046a0: 0e00 b001 0f10 b001 1010 b001 111f b001  ................
000046b0: 1210 b001 130d 8054 3f00 9051 1402 b001  .......T?..Q....
000046c0: 1410 b001 1510 b001 160f b001 1708 b001  ................
000046d0: 1817 b001 1920 b001 1a17 b001 1b2f b001  ..... ......./..
000046e0: 1c6e b001 1d17 b001 1e18 b001 1f1f b001  .n..............
000046f0: 2017 b001 2128 b001 221f b001 230f b001   ...!(.."...#...
00004700: 2410 b001 2581 05b0 0127 2fb0 0128 3fb0  $...%....'/..(?.
00004710: 0129 2eb0 012a 8130 8051 3b00 904f 0181  .)...*.0.Q;..O..
00004720: 67b0 0129 10b0 0128 10b0 0127 17b0 0126  g..)...(...'...&
00004730: 17b0 0125 10b0 0124 20b0 0122 0fb0 0121  ...%...$ .."...!
00004740: 10b0 0120 10b0 011f 2fb0 011e 2eb0 011d  ... ..../.......
00004750: 27b0 011c 3fb0 011b 4eb0 011a 18b0 0119  '...?...N.......
00004760: 0fb0 0118 20b0 0117 1fb0 0116 4eb0 0115  .... .......N...
00004770: 3fb0 0114 1fb0 0113 37b0 0112 2fb0 0111  ?.......7.../...
00004780: 8113 804f 0100 9054 0129 b001 1217 b001  ...O...T.)......
00004790: 1308 b001 1408 b001 1508 b001 1607 b001  ................
000047a0: 1708 b001 1810 b001 1908 b001 1a0f b001  ................
000047b0: 1b10 b001 1d10 b001 1e0f b001 1f08 b001  ................
000047c0: 2008 b001 2108 b001 2207 b001 2310 b001   ...!..."...#...
000047d0: 2404 8054 3600 9051 110c b001 260f b001  $..T6..Q....&...
000047e0: 2710 b001 281f b001 2928 b001 2a17 b001  '...(...)(..*...
000047f0: 2b27 b001 2c2f b001 2d27 b001 2e1f b001  +'..,/..-'......
00004800: 2f18 b001 3018 b001 3117 b001 3227 b001  /...0...1...2'..
00004810: 3327 b001 3426 8051 4a00 904f 2211 b001  3'..4&.QJ..O"...
00004820: 3527 b001 364e b001 3710 b001 3810 b001  5'..6N..7...8...
00004830: 391f b001 3a2b 804f 2a00 904d 2c13 b001  9...:+.O*..M,...
00004840: 3b82 7db0 013a 0eb0 0139 1db0 0138 0eb0  ;.}..:...9...8..
00004850: 0137 15b0 0136 0280 4d3c 0090 4f19 0cb0  .7...6..M<..O...
00004860: 0135 15b0 0134 07b0 0133 07b0 0132 15b0  .5...4...3...2..
00004870: 0131 66b0 0130 22b0 012f 0eb0 012e 14b0  .1f..0"../......
00004880: 012d 0db0 012c 0eb0 012b 21b0 012a 0db0  .-...,...+!..*..
00004890: 0129 0eb0 0128 0db0 0127 0db0 0126 14b0  .)...(...'...&..
000048a0: 0125 13b0 0124 28b0 0123 13b0 0122 1ab0  .%...$(..#..."..
000048b0: 0121 0580 4f01 0090 4d01 8116 b001 2086  .!..O...M..... .
000048c0: 2a80 4d3f 0090 484a 815f b001 211f b001  *.M?..HJ._..!...
000048d0: 226d b001 2347 b001 2427 b001 2510 b001  "m..#G..$'..%...
000048e0: 2617 b001 2718 b001 283e b001 2a1f b001  &...'...(>..*...
000048f0: 2b4f b001 2c46 b001 2d6e b001 2e48 8048  +O..,F..-n...H.H
00004900: 4600 9043 1b83 6080 4350 0090 462d 8170  F..C..`.CP..F-.p
00004910: 8046 5800 9045 4081 7080 454c 0090 4821  .FX..E@.p.EL..H!
00004920: 8110 b001 2f82 63b0 0130 79b0 0131 68b0  ..../.c..0y..1h.
00004930: 0132 26b0 0133 5eb0 0134 6880 486b 849a  .2&..3^..4h.Hk..
00004940: 14b0 0b7f 12b0 0b7f 11b0 0b7f 13b0 0b7f  ................
00004950: 24b0 0b7f 25b0 0b7f 24b0 0b7f 24b0 0b7f  $...%...$...$...
00004960: 24b0 0b7f 8958 b00b 7312 b00b 6512 b00b  $....X..s...e...
00004970: 5d13 b00b 5b12 b00b 5a24 b00b 5811 b00b  ]...[...Z$..X...
00004980: 5613 b00b 5312 b00b 5112 b00b 4f2d b00b  V...S...Q...O-..
00004990: 4f2e b00b 502e b00b 502e b00b 512d b00b  O...P...P...Q-..
000049a0: 512e b00b 522e b00b 522e b00b 532d b00b  Q...R...R...S-..
000049b0: 542e b00b 542e b00b 552e b00b 552d b00b  T...T...U...U-..
000049c0: 562e b00b 562e b00b 572e b00b 572d b00b  V...V...W...W-..
000049d0: 582e b00b 592e b00b 592e b00b 5a2d b00b  X...Y...Y...Z-..
000049e0: 5a14 b00b 5b8a 50b0 012f 0090 1854 0090  Z...[.P../...T..
000049f0: 1854 64b0 013c 2eb0 013c 0780 1860 0080  .Td..<...<...`..
00004a00: 1860 27b0 013c 2eb0 013d 2db0 013d 2eb0  .`'..<...=-..=..
00004a10: 013f 2eb0 013f 2090 184d 0eb0 0140 2db0  .?...? ..M...@-.
00004a20: 0140 0f80 185e 1fb0 0140 2eb0 0140 0290  .@...^...@...@..
00004a30: 5239 2cb0 0140 2db0 0141 2eb0 0141 2eb0  R9,..@-..A...A..
00004a40: 0142 2eb0 0142 0d80 5243 0090 543c 20b0  .B...B..RC..T< .
00004a50: 0144 2eb0 0144 2db0 0144 37b0 0142 3e80  .D...D-..D7..B>.
00004a60: 5438 0090 5122 8170 8051 4000 904f 2c17  T8..Q".p.Q@..O,.
00004a70: b001 4186 3180 4f40 7890 4f4b 8104 b001  ..A.1.O@x.OK....
00004a80: 422e b001 412e b001 4110 804f 4800 904e  B...A...A..OH..N
00004a90: 321e b001 412d b001 412e b001 412e b001  2...A-..A...A...
00004aa0: 412e b001 411b 804e 3b00 904f 3e12 b001  A...A..N;..O>...
00004ab0: 412e b001 412e b001 412e b001 412d b001  A...A...A...A-..
00004ac0: 4127 804f 4600 9051 4007 b001 412e b001  A'.OF..Q@...A...
00004ad0: 412e b001 412d b001 412e b001 412e b001  A...A-..A...A...
00004ae0: 4104 8051 4300 904a 312a b001 412d b001  A..QC..J1*..A-..
00004af0: 412e b001 412e b001 412e b001 402d b001  A...A...A...@-..
00004b00: 402e b001 402e b001 402e b001 402d b001  @...@...@...@-..
00004b10: 402e b001 402e b001 402e b001 402d b001  @...@...@...@-..
00004b20: 402e b001 4026 804a 5508 b001 402e b001  @...@&.JU...@...
00004b30: 402d b001 402e b001 402e b001 402e b001  @-..@...@...@...
00004b40: 402d b001 402e b001 402e b001 402e b001  @-..@...@...@...
00004b50: 402d b001 400f 9052 231f b001 4019 b001  @-..@..R#...@...
00004b60: 402e b001 402e b001 402d b001 402e b001  @...@...@-..@...
00004b70: 4001 8052 3f00 9054 3c2d b001 3f2e b001  @..R?..T<-..?...
00004b80: 3f2d b001 3f2e b001 3f2e b001 3d0c 8054  ?-..?...?...=..T
00004b90: 3c00 9052 3822 b001 3d2d b001 3d2e b001  <..R8"..=-..=...
00004ba0: 3d00 901a 412e b001 3d2e b001 3d06 801a  =...A...=...=...
00004bb0: 5b11 8052 0f00 9056 3d16 b001 3d2e b001  [..R...V=...=...
00004bc0: 3d2e b001 3d06 8056 3f28 b001 3d2d b001  =...=..V?(..=-..
00004bd0: 3d2e b001 3d2e b001 3d2e b001 3d26 9018  =...=...=...=&..
00004be0: 5107 b001 3d2e b001 3d1a 8018 5d14 b001  Q...=...=...]...
00004bf0: 3d00 9054 492e b001 3d2d b001 3c2e b001  =..TI...=-..<...
00004c00: 3c2e b001 3c2e b001 3c0b 8054 4300 9052  <...<...<..TC..R
00004c10: 3822 b001 3c2e b001 3c2e b001 3c2e b001  8"..<...<...<...
00004c20: 3c2d b001 3c17 8052 3d00 9051 3417 b001  <-..<..R=..Q4...
00004c30: 3c2e b001 3c2e b001 3c2d b001 3c2e b001  <...<...<-..<...
00004c40: 3c22 8051 5d00 904f 410c b001 3c2e b001  <".Q]..OA...<...
00004c50: 3c2d b001 3c2e b001 3c2e b001 3b2d 804f  <-..<...<...;-.O
00004c60: 3b00 9051 3f01 b001 3b2d b001 3b2e b001  ;..Q?...;-..;...
00004c70: 3b2e b001 3b2e b001 3b2d b001 3b0b 904e  ;...;...;-..;..N
00004c80: 3723 b001 3b2e b001 3b27 8051 3f07 b001  7#..;...;'.Q?...
00004c90: 3b2d b001 3b2e b001 3b16 804e 0c00 904a  ;-..;...;..N...J
00004ca0: 3418 b001 3b2e b001 3b2d b001 3b2e b001  4...;...;-..;...
00004cb0: 3b2e b001 3b2e b001 3b2d b001 3b0c b001  ;...;...;-..;...
00004cc0: 3b2e b001 3b2e b001 392e b001 392d b001  ;...;...9...9-..
00004cd0: 382e b001 372e b001 372e b001 362d b001  8...7...7...6-..
00004ce0: 362e b001 362e b001 342e b001 331a 804a  6...6...4...3..J
00004cf0: 5f13 b001 332e b001 332e b001 332e b001  _...3...3...3...
00004d00: 332d b001 332e b001 332e b001 332e b001  3-..3...3...3...
00004d10: 3314 904a 2d19 b001 332e b001 332e b001  3..J-...3...3...
00004d20: 332e b001 332d b001 3320 804a 0100 b001  3...3-..3 .J....
00004d30: 3400 904b 252e b001 342e b001 342d b001  4..K%...4...4-..
00004d40: 342e b001 342e b001 340b 804b 3b00 904d  4...4...4..K;..M
00004d50: 1d23 b001 342d b001 342e b001 342e b001  .#..4-..4...4...
00004d60: 342e b001 3416 804d 3c00 904f 3417 b001  4...4..M<..O4...
00004d70: 342e b001 342e b001 342e b001 342d b001  4...4...4...4-..
00004d80: 362e b001 362e b001 362e b001 362d b001  6...6...6...6-..
00004d90: 362e b001 362e b001 362e b001 362d b001  6...6...6...6-..
00004da0: 361c 804f 3400 904d 2212 b001 362e b001  6..O4..M"...6...
00004db0: 362e b001 362d b001 362e b001 362e b001  6...6-..6...6...
00004dc0: 362e b001 362d b001 362e b001 362e b001  6...6-..6...6...
00004dd0: 362e b001 362d b001 362e b001 3621 804d  6...6-..6...6!.M
00004de0: 3c00 904c 2d0d b001 362e b001 362d b001  <..L-...6...6-..
00004df0: 362e b001 362e b001 362c 804c 3c00 904d  6...6...6,.L<..M
00004e00: 2802 b001 362d b001 362e b001 362e b001  (...6-..6...6...
00004e10: 372e b001 372d b001 370a 804d 3e00 904f  7...7-..7..M>..O
00004e20: 2c24 b001 372e b001 372e b001 372d b001  ,$..7...7...7-..
00004e30: 372e b001 3715 804f 2b00 9048 2919 b001  7...7..O+..H)...
00004e40: 372e b001 372d b001 372e b001 372e b001  7...7-..7...7...
00004e50: 372e b001 372d b001 372e b001 382e b001  7...7-..7...8...
00004e60: 382e b001 382d b001 382e b001 382e b001  8...8-..8...8...
00004e70: 382e b001 382d b001 382e b001 382e b001  8...8-..8...8...
00004e80: 382e b001 382d b001 382e b001 382e b001  8...8-..8...8...
00004e90: 382e b001 382d b001 392e b001 3903 8048  8...8-..9...9..H
00004ea0: 012b b001 392e b001 391f 904b 2c0e b001  .+..9...9..K,...
00004eb0: 392e b001 392e b001 392e b001 392d b001  9...9...9...9-..
00004ec0: 392b 804b 0100 904a 2c03 b001 392e b001  9+.K...J,...9...
00004ed0: 3904 b00b 5b2a b001 3903 b00b 5a16 9048  9...[*..9...Z..H
00004ee0: 3814 b001 3904 b00b 5a2a b001 3904 b00b  8...9...Z*..9...
00004ef0: 592a b001 3904 b00b 5904 804a 5b26 b001  Y*..9...Y..J[&..
00004f00: 3b03 b00b 582a b001 3b04 b00b 582a b001  ;...X*..;...X*..
00004f10: 3b04 b00b 572a b001 3b04 b00b 572a b001  ;...W*..;...W*..
00004f20: 3b03 b00b 5610 8048 5500 9046 2e1a b001  ;...V..HU..F....
00004f30: 3b04 b00b 562a b001 3b04 b00b 552a b001  ;...V*..;...U*..
00004f40: 3b04 b00b 552a b001 3b03 b00b 542a b001  ;...U*..;...T*..
00004f50: 3b04 b00b 542a b001 3b04 b00b 532a b001  ;...T*..;...S*..
00004f60: 3b04 b00b 532a b001 3b03 b00b 522a b001  ;...S*..;...R*..
00004f70: 3b04 b00b 522a b001 3b04 b00b 522a b001  ;...R*..;...R*..
00004f80: 3b04 b00b 512a b001 3a03 b00b 512a b001  ;...Q*..:...Q*..
00004f90: 3a04 b00b 502a b001 3a04 b00b 502a b001  :...P*..:...P*..
00004fa0: 3a04 b00b 4f2a b001 3903 b00b 4f04 8046  :...O*..9...O..F
00004fb0: 5000 9043 3e26 b001 3904 b00b 4e2a b001  P..C>&..9...N*..
00004fc0: 3904 b00b 4e2a b001 3904 b00b 4d2a b001  9...N*..9...M*..
00004fd0: 3803 b00b 4d2a b001 3804 b00b 4c2a b001  8...M*..8...L*..
00004fe0: 3804 b00b 4c2a b001 3804 b00b 4b2a b001  8...L*..8...K*..
00004ff0: 3703 b00b 4b2a b001 3704 b00b 4a2a b001  7...K*..7...J*..
00005000: 3704 b00b 4a1a 8043 5600 9045 3710 b001  7...J..CV..E7...
00005010: 3704 b00b 492a b001 3603 b00b 492a b001  7...I*..6...I*..
00005020: 3604 b00b 492a b001 3604 b00b 482a b001  6...I*..6...H*..
00005030: 3604 b00b 482a b001 3503 b00b 472a b001  6...H*..5...G*..
00005040: 3504 b00b 472a b001 3504 b00b 462a b001  5...G*..5...F*..
00005050: 3504 b00b 462a b001 3403 b00b 452a b001  5...F*..4...E*..
00005060: 3404 b00b 452a b001 3404 b00b 442a b001  4...E*..4...D*..
00005070: 3404 b00b 442a b001 3303 b00b 432a b001  4...D*..3...C*..
00005080: 3304 b00b 432a b001 3304 b00b 420e 8045  3...C*..3...B..E
00005090: 6f1c b001 3304 b00b 422a b001 3203 b00b  o...3...B*..2...
000050a0: 412a b001 3204 b00b 412a b001 3204 b00b  A*..2...A*..2...
000050b0: 412a b001 3204 b00b 401f b001 320e b00b  A*..2...@...2...
000050c0: 4020 b001 310e b00b 3f20 b001 310e b00b  @ ..1...? ..1...
000050d0: 3f20 b001 310e b00b 3e1f b001 310e b00b  ? ..1...>...1...
000050e0: 3e20 b001 310e b00b 3d20 b001 310e b00b  > ..1...= ..1...
000050f0: 3d15 b00b 3d0b b001 302d b001 302e b001  =...=...0-..0...
00005100: 302e b001 302e b001 302d b001 302e b001  0...0...0-..0...
00005110: 2f2e b001 2f2e b001 2f2d b001 2f2e b001  /.../.../-../...
00005120: 2f2e b001 2d2e b001 2b2d b001 2a2e b001  /...-...+-..*...
00005130: 282e b001 272e b001 252d b001 242e b001  (...'...%-..$...
00005140: 222e b001 212e b001 1f2d b001 1e2e b001  "...!....-......
00005150: 1c2e b001 1a2e b001 192d b001 171c b001  .........-......
00005160: 1784 03b0 0b47 16b0 0136 00b0 0141 18b0  .....G...6...A..
00005170: 0b47 16b0 0141 18b0 0b47 15b0 0141 18b0  .G...A...G...A..
00005180: 0b47 16b0 0141 18b0 0b47 16b0 0141 18b0  .G...A...G...A..
00005190: 0b47 16b0 0141 18b0 0b47 15b0 0141 18b0  .G...A...G...A..
000051a0: 0b47 16b0 0141 18b0 0b47 16b0 0141 18b0  .G...A...G...A..
000051b0: 0b47 16b0 0141 18b0 0b47 15b0 0142 18b0  .G...A...G...B..
000051c0: 0b47 16b0 0142 18b0 0b47 16b0 0142 18b0  .G...B...G...B..
000051d0: 0b47 16b0 0142 18b0 0b47 15b0 0142 18b0  .G...B...G...B..
000051e0: 0b47 16b0 0142 18b0 0b47 16b0 0142 18b0  .G...B...G...B..
000051f0: 0b47 16b0 0142 0090 1853 18b0 0b47 15b0  .G...B...S...G..
00005200: 0142 1690 4a6b 0090 516b 02b0 0b47 16b0  .B..Jk..Qk...G..
00005210: 0142 18b0 0b47 1680 1865 00b0 0143 18b0  .B...G...e...C..
00005220: 0b47 16b0 0143 18b0 0b47 15b0 0143 18b0  .G...C...G...C..
00005230: 0b47 16b0 0143 18b0 0b47 0980 5155 0080  .G...C...G..QU..
00005240: 4a55 0db0 0143 18b0 0b47 16b0 0143 18b0  JU...C...G...C..
00005250: 0b47 15b0 0143 18b0 0b47 16b0 0143 18b0  .G...C...G...C..
00005260: 0b47 16b0 0143 18b0 0b47 16b0 0143 18b0  .G...C...G...C..
00005270: 0b47 15b0 0144 18b0 0b48 16b0 0144 18b0  .G...D...H...D..
00005280: 0b48 16b0 0144 18b0 0b48 16b0 0144 18b0  .H...D...H...D..
00005290: 0b48 15b0 0144 0a90 4a6c 0090 516c 0eb0  .H...D..Jl..Ql..
000052a0: 0b48 16b0 0144 18b0 0b48 16b0 0144 18b0  .H...D...H...D..
000052b0: 0b48 16b0 0144 18b0 0b48 15b0 0144 18b0  .H...D...H...D..
000052c0: 0b48 16b0 0144 1580 4a4f 0080 514f 03b0  .H...D..JO..QO..
000052d0: 0b48 0990 1a53 0db0 0145 18b0 0b48 16b0  .H...S...E...H..
000052e0: 0145 18b0 0b48 15b0 0145 18b0 0b48 0980  .E...H...E...H..
000052f0: 1a65 0db0 0145 18b0 0b48 16b0 0145 18b0  .e...E...H...E..
00005300: 0b48 0890 4a6a 0090 516a 0eb0 0145 18b0  .H..Jj..Qj...E..
00005310: 0b48 15b0 0145 18b0 0b48 16b0 0145 0f80  .H...E...H...E..
00005320: 4a5d 0080 515d 09b0 0b48 16b0 0145 18b0  J]..Q]...H...E..
00005330: 0b48 16b0 0145 18b0 0b48 1390 4a6c 0090  .H...E...H..Jl..
00005340: 516c 02b0 0146 18b0 0b48 16b0 0146 18b0  Ql...F...H...F..
00005350: 0b48 0f80 4a5c 0080 515c 07b0 0146 18b0  .H..J\..Q\...F..
00005360: 0b48 0290 4a6d 0090 516d 14b0 0146 18b0  .H..Jm..Qm...F..
00005370: 0b48 15b0 0146 1680 4a5e 0080 515e 02b0  .H...F..J^..Q^..
00005380: 0b48 16b0 0146 0990 4a6e 0090 516e 0fb0  .H...F..Jn..Qn..
00005390: 0b48 16b0 0146 18b0 0b48 16b0 0146 0480  .H...F...H...F..
000053a0: 4a5f 0080 515f 14b0 0b48 0d90 4a6f 0090  J_..Q_...H..Jo..
000053b0: 516f 08b0 0146 18b0 0b48 16b0 0146 1690  Qo...F...H...F..
000053c0: 1853 02b0 0b48 05b0 0147 0480 4a5f 0080  .S...H...G..J_..
000053d0: 515f 2190 516d 0090 496d 01b0 0b49 5c80  Q_!.Qm..Im...I\.
000053e0: 1865 8473 8049 6100 8051 6100 ff2f 004d  .e.s.Ia..Qa../.M
000053f0: 5472 6b00 0000 2500 ff01 1543 5320 4f62  Trk...%....CS Ob
00005400: 6f65 2053 686f 7274 732d 5472 696c 6c73  oe Shorts-Trills
00005410: 00b0 0b7f 00b0 077f 00ff 2f00 4d54 726b  ........../.MTrk
00005420: 0000 0707 00ff 0110 4353 204f 626f 6520  ........CS Oboe 
00005430: 3220 4c65 6761 746f 00b0 0b7f 00b0 077f  2 Legato........
00005440: 86af 54b0 0b7f 12b0 0b7f 11b0 0b7f 13b0  ..T.............
00005450: 0b7f 24b0 0b7f 25b0 0b7f 24b0 0b7f 24b0  ..$...%...$...$.
00005460: 0b7f 24b0 0b7f 8958 b00b 7312 b00b 6512  ..$....X..s...e.
00005470: b00b 5d13 b00b 5b12 b00b 5a24 b00b 5811  ..]...[...Z$..X.
00005480: b00b 5613 b00b 5312 b00b 5112 b00b 4f14  ..V...S...Q...O.
00005490: b00b 4c2e b00b 4c2e b00b 4c2d b00b 4d2e  ..L...L...L-..M.
000054a0: b00b 4d2e b00b 4e2e b00b 4e2d b00b 4e2e  ..M...N...N-..N.
000054b0: b00b 4f2e b00b 4f2e b00b 502d b00b 502e  ..O...O...P-..P.
000054c0: b00b 502e b00b 512e b00b 512d b00b 522e  ..P...Q...Q-..R.
000054d0: b00b 522e b00b 522e b00b 532d b00b 532e  ..R...R...S-..S.
000054e0: b00b 542e b00b 542e b00b 542d b00b 552e  ..T...T...T-..U.
000054f0: b00b 552e b00b 562e b00b 562d b00b 572e  ..U...V...V-..W.
00005500: b00b 572e b00b 572e b00b 582d b00b 582e  ..W...W...X-..X.
00005510: b00b 592e b00b 592e b00b 592d b00b 5a2e  ..Y...Y...Y-..Z.
00005520: b00b 5a21 b00b 5b85 0090 1854 8119 8018  ..Z!..[....T....
00005530: 6081 3bb0 0136 2eb0 0136 2eb0 0136 2eb0  `.;..6...6...6..
00005540: 0137 2db0 0137 2590 5239 09b0 0138 2eb0  .7-..7%.R9...8..
00005550: 0138 2eb0 0139 2db0 0139 2eb0 013a 2eb0  .8...9-..9...:..
00005560: 013a 0280 5243 0090 543c 2cb0 013a 2db0  .:..RC..T<,..:-.
00005570: 013b 2eb0 013b 2eb0 013c 2eb0 013c 0d90  .;...;...<...<..
00005580: 5122 0a80 5438 16b0 013d 2eb0 013d 2db0  Q"..T8...=...=-.
00005590: 013e 37b0 013c 3e90 4f2c 0a80 5140 817d  .>7..<>.O,..Q@.}
000055a0: b001 3b83 5380 4f40 8166 904f 4b81 7080  ..;.S.O@.f.OK.p.
000055b0: 4f48 0090 4e32 8104 b001 3c2e b001 3b2e  OH..N2....<...;.
000055c0: b001 3b10 804e 3b00 904f 3e1e b001 3b2d  ..;..N;..O>...;-
000055d0: b001 3b2e b001 3b2e b001 3b2e b001 3b1b  ..;...;...;...;.
000055e0: 804f 4600 9051 4012 b001 3b2e b001 3b2e  .OF..Q@...;...;.
000055f0: b001 3b2e b001 3b2d b001 3b27 8051 4300  ..;...;-..;'.QC.
00005600: 904a 3107 b001 3b2e b001 3b2e b001 3b2d  .J1...;...;...;-
00005610: b001 3b2e b001 3b2e b001 3b2e b001 3b2d  ..;...;...;...;-
00005620: b001 3b2e b001 3b2e b001 3b2e b001 3a2d  ..;...;...;...:-
00005630: b001 3a2e b001 3a2e b001 3a2e b001 3a2d  ..:...:...:...:-
00005640: b001 3a1b 804a 5513 b001 3a2e b001 3a2e  ..:..JU...:...:.
00005650: b001 3a2d b001 3a2e b001 3a2e b001 3a2e  ..:-..:...:...:.
00005660: b001 3a2d b001 3a2e b001 3a2e b001 3a2e  ..:-..:...:...:.
00005670: b001 3a03 904f 232a b001 3a2e b001 3a2e  ..:..O#*..:...:.
00005680: b001 3a2e b001 3a2d b001 3a0f 804f 3f00  ..:...:-..:..O?.
00005690: 9051 3c1f b001 3a19 b001 3a2e b001 392e  .Q<...:...:...9.
000056a0: b001 392d b001 392e b001 3901 8051 3c00  ..9-..9...9..Q<.
000056b0: 904f 382d b001 382e b001 382d b001 382e  .O8-..8...8-..8.
000056c0: b001 382e b001 370c 804f 0f00 9052 3d22  ..8...7..O...R="
000056d0: b001 372d b001 3729 8052 3f05 b001 372e  ..7-..7).R?...7.
000056e0: b001 372e b001 372d b001 372e b001 372e  ..7...7-..7...7.
000056f0: b001 372e b001 372d b001 3723 9051 490b  ..7...7-..7#.QI.
00005700: b001 372e b001 372e b001 372d b001 372e  ..7...7...7-..7.
00005710: b001 372e 8051 4300 b001 3700 904f 382e  ..7..QC...7..O8.
00005720: b001 372d b001 362e b001 362e b001 362e  ..7-..6...6...6.
00005730: b001 360b 804f 3d00 904e 3822 b001 362e  ..6..O=..N8"..6.
00005740: b001 362e b001 362e b001 362d b001 3617  ..6...6...6-..6.
00005750: 804e 3d00 904a 3417 b001 362e b001 362e  .N=..J4...6...6.
00005760: b001 362d b001 362e b001 3622 804a 5d00  ..6-..6...6".J].
00005770: 9048 3f0c b001 362e b001 362d b001 362e  .H?...6...6-..6.
00005780: b001 362e b001 352d 8048 3f00 9045 3701  ..6...5-.H?..E7.
00005790: b001 352d b001 352e b001 352e b001 352e  ..5-..5...5...5.
000057a0: b001 352d b001 350b 8045 0c00 9042 3423  ..5-..5..E...B4#
000057b0: b001 352e b001 352e b001 352d b001 352e  ..5...5...5-..5.
000057c0: b001 352e b001 352e b001 352d b001 352e  ..5...5...5-..5.
000057d0: b001 352e b001 352e b001 352d b001 350c  ..5...5...5-..5.
000057e0: b001 352e b001 342e b001 332e b001 3320  ..5...4...3...3 
000057f0: 8042 5f0d b001 322e b001 312e b001 312e  .B_...2...1...1.
00005800: b001 302d b001 2f2e b001 2f2e b001 2e2e  ..0-../.../.....
00005810: b001 2d2d b001 2d2e b001 2c2e b001 2b09  ..--..-...,...+.
00005820: 904a 2d25 b001 2b2d b001 2a2e b001 292e  .J-%..+-..*...).
00005830: b001 292e b001 2814 804a 0100 904b 250f  ..)...(..J...K%.
00005840: b001 282e b001 282e b001 282e b001 282d  ..(...(...(...(-
00005850: b001 282a 804b 3b00 904d 1d04 b001 282e  ..(*.K;..M....(.
00005860: b001 282e b001 282d b001 282e b001 282e  ..(...(-..(...(.
00005870: b001 2807 804d 3c00 904f 3427 b001 282d  ..(..M<..O4'..(-
00005880: b001 282e b001 292e b001 292e b001 292d  ..(...)...)...)-
00005890: b001 292e b001 292e b001 292e b001 292d  ..)...)...)...)-
000058a0: b001 292e b001 292e b001 292e b001 290c  ..)...)...)...).
000058b0: 804f 3400 904d 2221 b001 292e b001 292e  .O4..M"!..)...).
000058c0: b001 292e b001 292d b001 292e b001 292e  ..)...)-..)...).
000058d0: b001 292e b001 2a2d b001 2a2e b001 2a2e  ..)...*-..*...*.
000058e0: b001 2a2e b001 2a2d b001 2a12 804d 3c00  ..*...*-..*..M<.
000058f0: 904c 2d1c b001 2a2e b001 2a2e b001 2b2d  .L-...*...*...+-
00005900: b001 2b2e b001 2b1d 804c 3c00 904d 2811  ..+...+..L<..M(.
00005910: b001 2b2e b001 2b2d b001 2b2e b001 2b2e  ..+...+-..+...+.
00005920: b001 2b28 804d 3e00 904f 2c06 b001 2c2d  ..+(.M>..O,...,-
00005930: b001 2c2e b001 2c2e b001 2c2e b001 2c2d  ..,...,...,...,-
00005940: b001 2c06 9048 2928 b001 2c2e b001 2c22  ..,..H)(..,...,"
00005950: 804f 2b0c b001 2c2d b001 2c2e b001 2c2e  .O+...,-..,...,.
00005960: b001 2c2e b001 2c2d b001 2c2e b001 2d2e  ..,...,-..,...-.
00005970: b001 2d2e b001 2d2d b001 2d2e b001 2d2e  ..-...--..-...-.
00005980: b001 2e2e b001 2e2d b001 2e2e b001 2e2e  .......-........
00005990: b001 2e2e b001 2f2d b001 2f2e b001 2f2e  ....../-../.../.
000059a0: b001 2f2e b001 2f21 8048 010c b001 302e  ../.../!.H....0.
000059b0: b001 302e b001 3010 904b 2c1e b001 302d  ..0...0..K,...0-
000059c0: b001 302e b001 312e b001 312e b001 312d  ..0...1...1...1-
000059d0: b001 312e b001 3110 804b 0100 904a 2c1e  ..1...1..K...J,.
000059e0: b001 322e b001 322d b001 3227 804a 5b00  ..2...2-..2'.J[.
000059f0: 9048 3807 b001 322e b001 322e b001 332d  .H8...2...2...3-
00005a00: b001 332e b001 332e b001 3304 8048 5500  ..3...3...3..HU.
00005a10: 9046 2e2a b001 332d b001 342e b001 342e  .F.*..3-..4...4.
00005a20: b001 342e b001 342d b001 342e b001 352e  ..4...4-..4...5.
00005a30: b001 352e b001 352d b001 352e b001 352e  ..5...5-..5...5.
00005a40: b001 362e b001 362d b001 362e b001 3626  ..6...6-..6...6&
00005a50: 8046 5000 9043 3e08 b001 362e b001 372d  .FP..C>...6...7-
00005a60: b001 372e b001 372e b001 372e b001 3703  ..7...7...7...7.
00005a70: b001 382e b001 372e b001 372d b001 372e  ..8...7...7-..7.
00005a80: b001 372e b001 370b 8043 5600 9045 3723  ..7...7..CV..E7#
00005a90: b001 362d b001 3628 8045 6f06 b001 362e  ..6-..6(.Eo...6.
00005aa0: b001 362e b001 362d b001 362e b001 352e  ..6...6-..6...5.
00005ab0: b001 352e b001 352d b001 352e b001 352e  ..5...5-..5...5.
00005ac0: b001 352e b001 342d b001 342e b001 342e  ..5...4-..4...4.
00005ad0: b001 342e b001 342d b001 342e b001 332e  ..4...4-..4...3.
00005ae0: b001 332e b001 332d b001 332e b001 332e  ..3...3-..3...3.
00005af0: b001 332e b001 322d b001 322e b001 322e  ..3...2-..2...2.
00005b00: b001 322e b001 322d b001 322e b001 312e  ..2...2-..2...1.
00005b10: b001 312e b001 312d b001 312e b001 312e  ..1...1-..1...1.
00005b20: b001 312c b001 3100 ff2f 004d 5472 6b00  ..1,..1../.MTrk.
00005b30: 0000 1c00 ff01 0c38 4420 4f62 6f65 2041  .......8D Oboe A
00005b40: 6c6c 2000 b00b 7f00 b007 7f00 ff2f 004d  ll ........../.M
00005b50: 5472 6b00 0000 1e00 ff01 0e45 5720 4f62  Trk........EW Ob
00005b60: 6f65 7320 4772 6163 6500 b00b 7f00 b007  oes Grace.......
00005b70: 7f00 ff2f 004d 5472 6b00 0000 2200 ff01  .../.MTrk..."...
00005b80: 1245 5720 4f62 6f65 2047 6c69 7373 204c  .EW Oboe Gliss L
00005b90: 6f6e 6700 b00b 7f00 b007 7f00 ff2f 004d  ong........../.M
00005ba0: 5472 6b00 0000 2300 ff01 1343 5320 456e  Trk...#....CS En
00005bb0: 676c 6973 6820 486f 726e 2041 6c6c 00b0  glish Horn All..
00005bc0: 0b7f 00b0 077f 00ff 2f00 4d54 726b 0000  ......../.MTrk..
00005bd0: 0017 00ff 0107 4d49 4449 2d32 3400 b00b  ......MIDI-24...
00005be0: 7f00 b007 7f00 ff2f 004d 5472 6b00 0000  ......./.MTrk...
00005bf0: 1700 ff01 074d 4944 492d 3235 00b0 0b7f  .....MIDI-25....
00005c00: 00b0 077f 00ff 2f00 4d54 726b 0000 0017  ....../.MTrk....
00005c10: 00ff 0107 4d49 4449 2d32 3600 b00b 7f00  ....MIDI-26.....
00005c20: b007 7f00 ff2f 004d 5472 6b00 0000 1700  ...../.MTrk.....
00005c30: ff01 074d 4944 492d 3237 00b0 0b7f 00b0  ...MIDI-27......
00005c40: 077f 00ff 2f00 4d54 726b 0000 0017 00ff  ..../.MTrk......
00005c50: 0107 4d49 4449 2d32 3800 b00b 7f00 b007  ..MIDI-28.......
00005c60: 7f00 ff2f 004d 5472 6b00 0000 1700 ff01  .../.MTrk.......
00005c70: 074d 4944 492d 3239 00b0 0b7f 00b0 077f  .MIDI-29........
00005c80: 00ff 2f00 4d54 726b 0000 0017 00ff 0107  ../.MTrk........
00005c90: 4d49 4449 2d33 3000 b00b 7f00 b007 7f00  MIDI-30.........
00005ca0: ff2f 004d 5472 6b00 0000 1700 ff01 074d  ./.MTrk........M
00005cb0: 4944 492d 3331 00b0 0b7f 00b0 077f 00ff  IDI-31..........
00005cc0: 2f00 4d54 726b 0000 0017 00ff 0107 4d49  /.MTrk........MI
00005cd0: 4449 2d33 3200 b00b 7f00 b007 7f00 ff2f  DI-32........../
00005ce0: 004d 5472 6b00 001f 3c00 ff01 1243 5320  .MTrk...<....CS 
00005cf0: 436c 6172 696e 6574 204c 6567 6174 6f00  Clarinet Legato.
00005d00: b00b 3500 b007 7f81 d560 9048 0187 12b0  ..5......`.H....
00005d10: 0101 66b0 0100 8138 8048 3a00 904a 3d0c  ..f....8.H:..J=.
00005d20: b001 0117 b001 0210 b001 0382 48b0 0102  ............H...
00005d30: 17b0 0101 10b0 0100 860e 804a 2a00 9048  ...........J*..H
00005d40: 0282 0bb0 0101 46b0 0102 3eb0 0103 18b0  ......F...>.....
00005d50: 0104 56b0 0105 1fb0 0106 8249 b001 071f  ..V........I....
00005d60: b001 0828 b001 0914 8048 3d00 904a 1f88  ...(.....H=..J..
00005d70: 3eb0 010a 1fb0 010b 0fb0 010d 10b0 010e  >...............
00005d80: 08b0 010f 08b0 0110 0fb0 0111 08b0 0112  ................
00005d90: 18b0 0113 4eb0 0114 2eb0 0113 2db0 0113  ....N.......-...
00005da0: 2eb0 0112 2eb0 0112 2eb0 0112 2db0 0111  ............-...
00005db0: 2eb0 0111 2eb0 0111 2eb0 0110 2db0 0110  ............-...
00005dc0: 2eb0 010f 2eb0 010f 2eb0 010f 2490 4531  ............$.E1
00005dd0: 09b0 010e 2eb0 010e 0e80 4a3c 20b0 010e  ..........J< ...
00005de0: 2eb0 010d 2db0 010d 2db0 010d 2eb0 010d  ....-...-.......
00005df0: 2eb0 010d 2db0 010d 2eb0 010d 2eb0 010d  ....-...........
00005e00: 2eb0 010d 2db0 010d 2eb0 010e 2eb0 010f  ....-...........
00005e10: 2eb0 0110 2db0 0111 2eb0 0112 2eb0 0113  ....-...........
00005e20: 2eb0 0114 2db0 0115 2590 431b 09b0 0116  ....-...%.C.....
00005e30: 2eb0 0117 0e80 4548 20b0 0118 2db0 0119  ......EH ...-...
00005e40: 2eb0 011a 2eb0 011a 02b0 011b 2eb0 011a  ................
00005e50: 2eb0 011a 2db0 011a 2eb0 0119 2eb0 0119  ....-...........
00005e60: 0b90 462d 23b0 0119 2db0 0118 1680 4350  ..F-#...-.....CP
00005e70: 18b0 0118 2eb0 0118 2eb0 0118 1690 4540  ..............E@
00005e80: 17b0 0117 2e80 4658 00b0 0117 2eb0 0117  ......FX........
00005e90: 2eb0 0116 2db0 0116 2290 4346 0cb0 0116  ....-...".CF....
00005ea0: 2eb0 0115 0b80 454c 23b0 0115 2db0 0115  ......EL#...-...
00005eb0: 2eb0 0115 2eb0 0114 2eb0 0114 2db0 0114  ............-...
00005ec0: 2eb0 0113 2eb0 0113 2eb0 0113 2db0 0112  ............-...
00005ed0: 2eb0 0112 2eb0 0112 2eb0 0112 2db0 0111  ............-...
00005ee0: 2eb0 0111 2eb0 0111 2eb0 0110 2db0 0110  ............-...
00005ef0: 2eb0 0110 21b0 0110 4580 436b 83b9 7cb0  ....!...E.Ck..|.
00005f00: 0b70 37b0 0b6f 12b0 0b6e 12b0 0b6d 13b0  .p7..o...n...m..
00005f10: 0b6b 12b0 0b6a 11b0 0b69 12b0 0b67 12b0  .k...j...i...g..
00005f20: 0b66 3ab0 0123 2eb0 0122 2eb0 0121 2db0  .f:..#..."...!-.
00005f30: 0120 05b0 0b65 12b0 0b64 00b0 0b58 17b0  . ...e...d...X..
00005f40: 011f 17b0 0b54 17b0 011e 17b0 0b50 17b0  .....T.......P..
00005f50: 011d 16b0 0b4d 17b0 011c 17b0 0b49 17b0  .....M.......I..
00005f60: 011c 17b0 0b45 17b0 011b 17b0 0b42 10b0  .....E.......B..
00005f70: 0b41 07b0 011a 16b0 011a 2eb0 011b 2eb0  .A..............
00005f80: 011d 2db0 011f 2eb0 0121 2eb0 0123 0b90  ..-......!...#..
00005f90: 3e3e 23b0 0125 2db0 0127 2eb0 0129 2eb0  >>#..%-..'...)..
00005fa0: 012b 2eb0 012d 1680 3e11 0090 3f3f 17b0  .+...-..>...??..
00005fb0: 012f 2eb0 0131 2eb0 0133 2eb0 0135 2db0  ./...1...3...5-.
00005fc0: 0137 1fb0 0139 0380 3f3e 0090 412d 2bb0  .7...9..?>..A-+.
00005fd0: 0139 2db0 013a 2eb0 013a 2eb0 013a 2eb0  .9-..:...:...:..
00005fe0: 013a 2db0 013a 2eb0 013b 2eb0 013b 2eb0  .:-..:...;...;..
00005ff0: 013b 2db0 013b 2eb0 013b 2eb0 013c 2eb0  .;-..;...;...<..
00006000: 013c 2db0 013c 2eb0 013c 2580 414f 0090  .<-..<...<%.AO..
00006010: 4636 09b0 013c 2db0 013d 2eb0 013c 2eb0  F6...<-..=...<..
00006020: 013c 2db0 013b 2eb0 013a 2eb0 0139 2eb0  .<-..;...:...9..
00006030: 0139 2db0 0138 2eb0 0137 2eb0 0137 2eb0  .9-..8...7...7..
00006040: 0136 2db0 0135 2eb0 0135 2eb0 0134 2eb0  .6-..5...5...4..
00006050: 0133 1980 464c 0090 413e 14b0 0133 02b0  .3..FL..A>...3..
00006060: 0133 2eb0 0132 2db0 0132 2eb0 0132 2eb0  .3...2-..2...2..
00006070: 0132 2eb0 0131 2db0 0131 2eb0 0131 2eb0  .2...1-..1...1..
00006080: 0131 2eb0 0131 2db0 0132 0180 4163 0090  .1...1-..2..Ac..
00006090: 413e 2db0 0132 2eb0 0132 2eb0 0133 2db0  A>-..2...2...3-.
000060a0: 0133 2eb0 0133 0c80 4163 0090 4340 22b0  .3...3..Ac..C@".
000060b0: 0134 2eb0 0134 2db0 0134 2eb0 0135 2eb0  .4...4-..4...5..
000060c0: 0135 1780 434c 0090 413e 17b0 0135 2db0  .5..CL..A>...5-.
000060d0: 0135 2eb0 0136 2eb0 0136 2eb0 0136 2280  .5...6...6...6".
000060e0: 413e 0090 3c36 0bb0 0137 2eb0 0137 2eb0  A>..<6...7...7..
000060f0: 0137 2eb0 0138 2db0 0138 2eb0 0138 2eb0  .7...8-..8...8..
00006100: 0139 2eb0 0139 2db0 0139 2eb0 013a 2eb0  .9...9-..9...:..
00006110: 013a 2eb0 013a 2db0 013a 0ab0 013b 2eb0  .:...:-..:...;..
00006120: 013a 2db0 013a 2eb0 013a 0d80 3c40 0090  .:-..:...:..<@..
00006130: 433e 21b0 0139 2eb0 0139 2db0 0139 2eb0  C>!..9...9-..9..
00006140: 0138 2eb0 0138 2eb0 0138 2db0 0137 2eb0  .8...8...8-..7..
00006150: 0137 2eb0 0137 2eb0 0137 2380 434b 0090  .7...7...7#.CK..
00006160: 4846 0ab0 0136 2eb0 0136 2eb0 0136 2eb0  HF...6...6...6..
00006170: 0135 2db0 0135 2eb0 0135 2eb0 0135 2eb0  .5-..5...5...5..
00006180: 0134 2db0 0134 2eb0 0134 2eb0 0133 2eb0  .4-..4...4...3..
00006190: 0133 2db0 0133 2eb0 0132 2eb0 0132 2eb0  .3-..3...2...2..
000061a0: 0132 1780 4850 0090 463c 16b0 0132 2eb0  .2..HP..F<...2..
000061b0: 0131 2eb0 0131 2eb0 0131 25b0 0131 2eb0  .1...1...1%..1..
000061c0: 0131 2eb0 0131 2eb0 0131 2db0 0131 2eb0  .1...1...1-..1..
000061d0: 0131 2eb0 0131 2eb0 0131 2db0 0132 2eb0  .1...1...1-..2..
000061e0: 0132 2eb0 0132 2eb0 0132 1380 4641 0090  .2...2...2..FA..
000061f0: 4532 1ab0 0132 2eb0 0132 2eb0 0132 2eb0  E2...2...2...2..
00006200: 0133 2db0 0133 2eb0 0133 2eb0 0133 2eb0  .3-..3...3...3..
00006210: 0133 2db0 0133 2eb0 0133 2a80 453b 0090  .3-..3...3*.E;..
00006220: 4637 04b0 0133 2eb0 0133 2db0 0133 2eb0  F7...3...3-..3..
00006230: 0134 2eb0 0134 2eb0 0134 0780 463a 0090  .4...4...4..F:..
00006240: 4843 26b0 0134 2eb0 0134 2eb0 0134 2eb0  HC&..4...4...4..
00006250: 0134 2db0 0135 1380 484e 0090 4538 1bb0  .4-..5..HN..E8..
00006260: 0135 2eb0 0135 2eb0 0135 2db0 0135 2eb0  .5...5...5-..5..
00006270: 0135 1e80 4545 0090 433f 10b0 0135 2eb0  .5..EE..C?...5..
00006280: 0135 2db0 0135 2eb0 0135 2eb0 0135 2980  .5-..5...5...5).
00006290: 4356 05b0 0135 2db0 0135 2eb0 0135 2eb0  CV...5-..5...5..
000062a0: 0135 2eb0 0135 2db0 0135 0790 4346 27b0  .5...5-..5..CF'.
000062b0: 0135 2eb0 0136 2eb0 0136 2db0 0136 2eb0  .5...6...6-..6..
000062c0: 0137 1280 434f 0090 4144 1cb0 0137 2eb0  .7..CO..AD...7..
000062d0: 0137 2db0 0138 2eb0 0138 2eb0 0138 2eb0  .7-..8...8...8..
000062e0: 0139 2db0 0139 2eb0 0139 2eb0 013a 2eb0  .9-..9...9...:..
000062f0: 013a 2880 415c 0090 4b3d 05b0 013a 2eb0  .:(.A\..K=...:..
00006300: 013b 2eb0 013b 2eb0 013b 2db0 013c 2eb0  .;...;...;-..<..
00006310: 013c 2eb0 013c 2eb0 013d 2db0 013d 2eb0  .<...<...=-..=..
00006320: 013d 2eb0 013e 2eb0 013e 2db0 013e 0ab0  .=...>...>-..>..
00006330: 013f 2db0 013e 2eb0 013e 2eb0 013e 1380  .?-..>...>...>..
00006340: 4b4f 0090 4a51 1bb0 013e 2db0 013e 2eb0  KO..JQ...>-..>..
00006350: 013e 2eb0 013e 2eb0 013e 2db0 013e 2eb0  .>...>...>-..>..
00006360: 013e 2eb0 013e 2eb0 013e 2db0 013e 2eb0  .>...>...>-..>..
00006370: 013e 2eb0 013e 2eb0 013e 2db0 013e 2eb0  .>...>...>-..>..
00006380: 013e 2eb0 013e 0780 4a5b 0090 4847 27b0  .>...>..J[..HG'.
00006390: 013e 2db0 013e 2eb0 013e 2eb0 013e 2eb0  .>-..>...>...>..
000063a0: 013e 2db0 013e 2eb0 013e 2eb0 013e 2eb0  .>-..>...>...>..
000063b0: 013e 2db0 013e 1e80 4835 0090 4b45 10b0  .>-..>..H5..KE..
000063c0: 013e 2eb0 013e 2eb0 013e 2db0 013e 2eb0  .>...>...>-..>..
000063d0: 013e 2980 4b45 0090 4d3f 05b0 013e 2eb0  .>).KE..M?...>..
000063e0: 013e 2db0 013e 2eb0 013e 2eb0 013e 2eb0  .>-..>...>...>..
000063f0: 013e 0680 4d5a 0090 4a49 27b0 013e 2eb0  .>..MZ..JI'..>..
00006400: 013e 2eb0 013e 2eb0 013e 2db0 013e 1280  .>...>...>-..>..
00006410: 4a5f 0090 4853 1cb0 013e 2eb0 013e 2eb0  J_..HS...>...>..
00006420: 013e 2db0 013e 2eb0 013e 1d80 4859 11b0  .>-..>...>..HY..
00006430: 013e 2eb0 013e 2db0 013e 2eb0 013e 2eb0  .>...>-..>...>..
00006440: 013e 2890 484d 06b0 013e 2db0 013e 2eb0  .>(.HM...>-..>..
00006450: 013e 2eb0 013e 2eb0 013e 2db0 013e 0680  .>...>...>-..>..
00006460: 4858 0090 465c 28b0 013e 2eb0 013e 2eb0  HX..F\(..>...>..
00006470: 013e 2db0 013e 2eb0 013e 2eb0 013e 2eb0  .>-..>...>...>..
00006480: 013e 2db0 013e 2eb0 013e 2eb0 013e 2eb0  .>-..>...>...>..
00006490: 013e 2db0 013e 2eb0 013e 2eb0 013e 2eb0  .>-..>...>...>..
000064a0: 013e 2780 465c 06b0 013e 2eb0 013e 2eb0  .>'.F\...>...>..
000064b0: 013e 2eb0 013e 2db0 013e 2eb0 013e 2eb0  .>...>-..>...>..
000064c0: 013e 2eb0 013e 2db0 013e 2eb0 013e 2eb0  .>...>-..>...>..
000064d0: 013e 2eb0 013e 2db0 013e 2eb0 013e 2eb0  .>...>-..>...>..
000064e0: 013e 2eb0 013e 2db0 013e 19b0 013e 8615  .>...>-..>...>..
000064f0: b00b 5885 39b0 013c 817e b001 3b84 1eb0  ..X.9..<.~..;...
00006500: 0129 2eb0 0129 2eb0 0129 2eb0 0129 2db0  .)...)...)...)-.
00006510: 0129 2eb0 0129 2eb0 012a 2eb0 012a 2db0  .)...)...*...*-.
00006520: 012a 2eb0 012a 2eb0 012a 2eb0 012a 2db0  .*...*...*...*-.
00006530: 012b 0690 4639 28b0 012b 2eb0 012b 2eb0  .+..F9(..+...+..
00006540: 012b 2db0 012b 2eb0 012b 1180 4643 0090  .+-..+...+..FC..
00006550: 483c 1db0 012c 2eb0 012c 2db0 012c 2eb0  H<...,...,-..,..
00006560: 012c 2eb0 012c 1c80 4838 0090 4522 12b0  .,...,..H8..E"..
00006570: 012c 2db0 012d 2eb0 012d 2eb0 012d 2eb0  .,-..-...-...-..
00006580: 012d 2780 4540 0090 432c 06b0 012d 2eb0  .-'.E@..C,...-..
00006590: 012e 2eb0 012e 2eb0 012e 2db0 012e 2eb0  ..........-.....
000065a0: 012e 2eb0 012e 2eb0 012f 2db0 012f 2eb0  ........./-../..
000065b0: 012f 2eb0 012f 1080 4340 1eb0 012f 2db0  ./.../..C@.../-.
000065c0: 012f 2eb0 0130 2eb0 0130 2eb0 0130 2db0  ./...0...0...0-.
000065d0: 0130 2eb0 0130 2eb0 0130 2eb0 0131 2db0  .0...0...0...1-.
000065e0: 0131 2790 434b 07b0 0131 2eb0 0131 2eb0  .1'.CK...1...1..
000065f0: 0131 2db0 0131 05b0 0132 2db0 0131 2e80  .1-..1...2-..1..
00006600: 4348 00b0 0131 0090 4232 2eb0 0130 2eb0  CH...1..B2...0..
00006610: 0130 2db0 0130 2eb0 012f 2eb0 012f 0b80  .0-..0.../.../..
00006620: 423b 0090 433e 23b0 012e 2db0 012e 2eb0  B;..C>#...-.....
00006630: 012e 2eb0 012d 2eb0 012d 1680 4346 0090  .....-...-..CF..
00006640: 4540 01b0 012d 2eb0 012d 2eb0 012d 2db0  E@...-...-...--.
00006650: 012d 2eb0 012d 2eb0 012d 0a80 4543 0090  .-...-...-..EC..
00006660: 3e31 24b0 012d 2db0 012e 2eb0 012e 2eb0  >1$..--.........
00006670: 012e 2eb0 012e 2db0 012e 2eb0 012f 2eb0  ......-....../..
00006680: 012f 2eb0 012f 2db0 012f 2180 3e55 0090  ./.../-../!.>U..
00006690: 4a44 0db0 012f 2eb0 0130 2eb0 0130 2db0  JD.../...0...0-.
000066a0: 0130 2eb0 0130 2c80 4a45 0090 4847 02b0  .0...0,.JE..HG..
000066b0: 0131 2eb0 0131 2db0 0131 2eb0 0131 2eb0  .1...1-..1...1..
000066c0: 0131 2eb0 0132 0980 4855 0090 453d 24b0  .1...2..HU..E=$.
000066d0: 0132 2eb0 0132 2eb0 0132 2eb0 0132 2db0  .2...2...2...2-.
000066e0: 0133 1580 4551 0090 4641 19b0 0133 2eb0  .3..EQ..FA...3..
000066f0: 0133 2eb0 0133 2bb0 0134 2eb0 0134 2280  .3...3+..4...4".
00006700: 4658 0090 4843 0bb0 0134 2eb0 0134 2eb0  FX..HC...4...4..
00006710: 0134 2eb0 0134 2db0 0134 2e80 483d 00b0  .4...4-..4..H=..
00006720: 0134 0090 4640 2eb0 0134 2eb0 0134 2db0  .4..F@...4...4-.
00006730: 0133 2eb0 0133 2eb0 0133 0b80 464c 0090  .3...3...3..FL..
00006740: 4a3c 23b0 0132 2db0 0132 2eb0 0132 2eb0  J<#..2-..2...2..
00006750: 0131 2eb0 0131 1680 4a3b 17b0 0131 2eb0  .1...1..J;...1..
00006760: 0131 2eb0 0130 2eb0 0130 2db0 0130 2290  .1...0...0-..0".
00006770: 484a 0cb0 012f 2eb0 012f 2eb0 012f 2db0  HJ.../.../.../-.
00006780: 012e 2eb0 012e 2d80 4855 0090 4646 01b0  ......-.HU..FF..
00006790: 012e 2eb0 012e 08b0 012e 2eb0 012e 2eb0  ................
000067a0: 012e 2db0 012f 2eb0 012f 0280 4643 0090  ..-../.../..FC..
000067b0: 4542 2cb0 012f 2eb0 0130 2db0 0130 2eb0  EB,../...0-..0..
000067c0: 0130 2eb0 0131 0d80 455f 0090 433e 21b0  .0...1..E_..C>!.
000067d0: 0131 2db0 0131 2eb0 0132 2eb0 0132 2eb0  .1-..1...2...2..
000067e0: 0132 1880 4301 0090 4541 15b0 0133 2eb0  .2..C...EA...3..
000067f0: 0133 2eb0 0133 2eb0 0134 2db0 0134 2480  .3...3...4-..4$.
00006800: 4550 0090 423e 0ab0 0134 2eb0 0135 2eb0  EP..B>...4...5..
00006810: 0135 2db0 0135 2eb0 0136 2eb0 0136 0180  .5-..5...6...6..
00006820: 423e 0090 3e48 2db0 0137 2db0 0137 2eb0  B>..>H-..7-..7..
00006830: 0137 25b0 0138 8157 b001 382e b001 372e  .7%..8.W..8...7.
00006840: b001 362d b001 352e b001 352e b001 342e  ..6-..5...5...4.
00006850: b001 332d b001 320c 803e 6322 b001 322e  ..3-..2..>c"..2.
00006860: b001 312e b001 3027 b001 302e b001 312e  ..1...0'..0...1.
00006870: b001 312d b001 322e b001 322e b001 332e  ..1-..2...2...3.
00006880: b001 3428 904a 2d05 b001 342e b001 352e  ..4(.J-...4...5.
00006890: b001 362e b001 362d b001 372e b001 3706  ..6...6-..7...7.
000068a0: 804a 0100 904b 2528 b001 382e b001 392d  .J...K%(..8...9-
000068b0: b001 392e b001 3a2e b001 3b11 804b 3b00  ..9...:...;..K;.
000068c0: 904d 1d1d b001 3b16 b001 3c2e b001 3c2e  .M....;...<...<.
000068d0: b001 3c2e b001 3c2d b001 3d06 804d 3c00  ..<...<-..=..M<.
000068e0: 904f 3428 b001 3d2e b001 3d2e b001 3d2d  .O4(..=...=...=-
000068f0: b001 3e2e b001 3e2e b001 3e2e b001 3e2d  ..>...>...>...>-
00006900: b001 3f2e b001 3f2e b001 3f2e b001 3f2d  ..?...?...?...?-
00006910: b001 402e b001 402e b001 402e b001 4027  ..@...@...@...@'
00006920: 804f 3400 904d 2206 b001 412e b001 412e  .O4..M"...A...A.
00006930: b001 412e b001 4108 b001 422e b001 412e  ..A...A...B...A.
00006940: b001 402e b001 402d b001 3f2e b001 3f2e  ..@...@-..?...?.
00006950: b001 3e2e b001 3d07 804d 3c00 904c 2d26  ..>...=..M<..L-&
00006960: b001 3d2e b001 3c2e b001 3c01 b001 3c2e  ..=...<...<...<.
00006970: b001 3c2e b001 3c11 804c 3c00 904d 281d  ..<...<..L<..M(.
00006980: b001 3c2d b001 3d2e b001 3d2e b001 3d2e  ..<-..=...=...=.
00006990: b001 3e1c 804d 3e00 904f 2c11 b001 3e2e  ..>..M>..O,...>.
000069a0: b001 3e2e b001 3f2e b001 3f2d b001 3f28  ..>...?...?-..?(
000069b0: 804f 2b00 9048 2906 b001 402e b001 402e  .O+..H)...@...@.
000069c0: b001 402d b001 412d b001 402e b001 402e  ..@-..A-..@...@.
000069d0: b001 402e b001 402d b001 402e b001 402e  ..@...@-..@...@.
000069e0: b001 3f2e b001 3f2d b001 3f2e b001 3f2e  ..?...?-..?...?.
000069f0: b001 3f2e b001 3f2d b001 3e2e b001 3e2e  ..?...?-..>...>.
00006a00: b001 3e2e b001 3e2d b001 3e28 8048 0106  ..>...>-..>(.H..
00006a10: b001 3e17 b001 3e2e b001 3e16 b00b 5817  ..>...>...>...X.
00006a20: b001 3e2e b001 3e2e b001 3e1c 904b 2c12  ..>...>...>..K,.
00006a30: b001 3e2d b001 3e2e b001 3f2e b001 3f2e  ..>-..>...?...?.
00006a40: b001 3f27 804b 0100 904a 2c06 b001 3f2e  ..?'.K...J,...?.
00006a50: b001 3f2e b001 3f2e b001 3f2d b001 402e  ..?...?...?-..@.
00006a60: b001 4005 804a 5b00 9048 3829 b001 402e  ..@..J[..H8)..@.
00006a70: b001 402d b001 402e b001 402e b001 4003  ..@-..@...@...@.
00006a80: b001 410d 8048 5500 9046 2e20 b001 402e  ..A..HU..F. ..@.
00006a90: b001 402e b001 3f2e b001 3f2d b001 3e2e  ..@...?...?-..>.
00006aa0: b001 3e2e b001 3d2e b001 3d2d b001 3c2e  ..>...=...=-..<.
00006ab0: b001 3c2e b001 3b2e b001 3b27 b001 3b2d  ..<...;...;'..;-
00006ac0: b001 3b2e b001 3b2e b001 3b08 8046 5000  ..;...;...;..FP.
00006ad0: 9043 3e26 b001 3b2d b001 3b2e b001 3b2e  .C>&..;-..;...;.
00006ae0: b001 3b2e b001 3b2d b001 3c2e b001 3c2e  ..;...;-..<...<.
00006af0: b001 3c2e b001 3c2d b001 3c1f 8043 5600  ..<...<-..<..CV.
00006b00: 9045 370f b001 3c2e b001 3c2e b001 3c1c  .E7...<...<...<.
00006b10: b001 3d2d b001 3c2e b001 3b2e b001 3b2e  ..=-..<...;...;.
00006b20: b001 3a2d b001 3a2e b001 392e b001 392e  ..:-..:...9...9.
00006b30: b001 382d b001 382e b001 372e b001 372e  ..8-..8...7...7.
00006b40: b001 3624 8045 6f09 b001 360f b00b 581f  ..6$.Eo...6...X.
00006b50: b001 350f b00b 561f b001 350f b00b 541f  ..5...V...5...T.
00006b60: b001 340e b00b 521f b001 340f b00b 511f  ..4...R...4...Q.
00006b70: b001 330f b00b 4f1f b001 330f b00b 4d1f  ..3...O...3...M.
00006b80: b001 320e b00b 4c1f b001 320f b00b 4a1f  ..2...L...2...J.
00006b90: b001 310f b00b 481f b001 310f b00b 471f  ..1...H...1...G.
00006ba0: b001 300e b00b 451f b001 300f b00b 431f  ..0...E...0...C.
00006bb0: b001 2f0f b00b 411f b001 2f0f b00b 401f  ../...A.../...@.
00006bc0: b001 2e0e b00b 3e1f b001 2d0f b00b 3c1f  ......>...-...<.
00006bd0: b001 2d0f b00b 3b1f b001 2c0f b00b 391f  ..-...;...,...9.
00006be0: b001 2c0e b00b 371f b001 2b0f b00b 361f  ..,...7...+...6.
00006bf0: b001 2b0f b00b 341f b001 2a0f b00b 321f  ..+...4...*...2.
00006c00: b001 2a0e b00b 311f b001 290f b00b 2f1f  ..*...1...).../.
00006c10: b001 290f b00b 2d12 b00b 2d0d b001 282e  ..)...-...-...(.
00006c20: b001 282d b001 272e b001 272e b001 262e  ..(-..'...'...&.
00006c30: b001 262d b001 252e b001 2512 b001 258a  ..&-..%...%...%.
00006c40: 3fb0 0146 1fb0 0b3a 2eb0 0b3a 2db0 0b3a  ?..F...:...:-..:
00006c50: 2eb0 0b3a 2eb0 0b3a 1a90 4c6b 0090 456b  ...:...:..Lk..Ek
00006c60: 14b0 0b3a 2db0 0b3b 2eb0 0b3b 2eb0 0b3b  ...:-..;...;...;
00006c70: 2eb0 0b3b 2580 4c55 0080 4555 08b0 0b3b  ...;%.LU..EU...;
00006c80: 2eb0 0b3b 2eb0 0b3c 2eb0 0b3c 2db0 0b3c  ...;...<...<-..<
00006c90: 2eb0 0b3c 2eb0 0b3c 2eb0 0b3c 2db0 0b3d  ...<...<...<-..=
00006ca0: 2eb0 0b3d 2eb0 0b3d 0e90 4c6c 0090 456c  ...=...=..Ll..El
00006cb0: 20b0 0b3d 2db0 0b3d 2eb0 0b3d 2eb0 0b3e   ..=-..=...=...>
00006cc0: 2eb0 0b3e 1980 4c4f 0080 454f 14b0 0b3e  ...>..LO..EO...>
00006cd0: 2eb0 0b3e 2eb0 0b3e 2eb0 0b3e 2db0 0b3f  ...>...>...>-..?
00006ce0: 2eb0 0b3f 2eb0 0b3f 2eb0 0b3f 2db0 0b3f  ...?...?...?-..?
00006cf0: 2eb0 0b3f 2eb0 0b40 2eb0 0b40 2db0 0b40  ...?...@...@-..@
00006d00: 2eb0 0b40 2eb0 0b40 2eb0 0b40 0db0 0b41  ...@...@...@...A
00006d10: 8170 9045 6d00 904c 6d85 5080 4561 0080  .p.Em..Lm.P.Ea..
00006d20: 4c61 8183 64b0 0b58 2eb0 0b58 2db0 0b58  La..d..X...X-..X
00006d30: 2eb0 0b58 2eb0 0b58 2eb0 0b58 2db0 0b58  ...X...X...X-..X
00006d40: 2eb0 0b58 2eb0 0b58 2eb0 0b58 2db0 0b58  ...X...X...X-..X
00006d50: 1db0 0158 11b0 0b58 1cb0 0158 12b0 0b58  ...X...X...X...X
00006d60: 1cb0 0158 12b0 0b58 1cb0 0159 11b0 0b58  ...X...X...Y...X
00006d70: 1db0 0159 11b0 0b58 1cb0 0159 12b0 0b58  ...Y...X...Y...X
00006d80: 1cb0 015a 12b0 0b58 1cb0 015a 11b0 0b58  ...Z...X...Z...X
00006d90: 1db0 015b 11b0 0b58 1cb0 015b 12b0 0b58  ...[...X...[...X
00006da0: 1cb0 015b 12b0 0b58 1cb0 015c 11b0 0b58  ...[...X...\...X
00006db0: 1db0 015c 11b0 0b58 1cb0 015c 12b0 0b58  ...\...X...\...X
00006dc0: 1cb0 015d 12b0 0b58 1cb0 015d 11b0 0b58  ...]...X...]...X
00006dd0: 1db0 015e 11b0 0b58 1cb0 015e 12b0 0b58  ...^...X...^...X
00006de0: 1cb0 015e 12b0 0b58 1cb0 015f 11b0 0b58  ...^...X..._...X
00006df0: 1db0 015f 11b0 0b58 1cb0 015f 12b0 0b58  ..._...X..._...X
00006e00: 1cb0 0160 12b0 0b58 1cb0 0160 11b0 0b58  ...`...X...`...X
00006e10: 1db0 0161 11b0 0b58 1cb0 0161 12b0 0b58  ...a...X...a...X
00006e20: 1cb0 0161 12b0 0b58 1cb0 0162 11b0 0b58  ...a...X...b...X
00006e30: 1db0 0162 11b0 0b58 1cb0 0162 12b0 0b58  ...b...X...b...X
00006e40: 1cb0 0163 12b0 0b58 1cb0 0163 11b0 0b58  ...c...X...c...X
00006e50: 1db0 0164 11b0 0b58 1cb0 0164 12b0 0b58  ...d...X...d...X
00006e60: 1cb0 0164 12b0 0b58 1cb0 0163 11b0 0b58  ...d...X...c...X
00006e70: 1db0 0163 11b0 0b58 1cb0 0163 12b0 0b58  ...c...X...c...X
00006e80: 1cb0 0163 12b0 0b58 1cb0 0163 11b0 0b58  ...c...X...c...X
00006e90: 1db0 0163 11b0 0b58 1cb0 0162 12b0 0b58  ...c...X...b...X
00006ea0: 1cb0 0162 12b0 0b58 1cb0 0162 11b0 0b58  ...b...X...b...X
00006eb0: 1db0 0162 11b0 0b58 1cb0 0162 12b0 0b58  ...b...X...b...X
00006ec0: 1cb0 0162 12b0 0b58 1cb0 0161 11b0 0b58  ...b...X...a...X
00006ed0: 1db0 0161 11b0 0b58 1cb0 0161 12b0 0b58  ...a...X...a...X
00006ee0: 1cb0 0161 12b0 0b58 1cb0 0161 11b0 0b58  ...a...X...a...X
00006ef0: 1db0 0161 11b0 0b58 1cb0 0160 12b0 0b58  ...a...X...`...X
00006f00: 1cb0 0160 12b0 0b58 1cb0 0160 11b0 0b58  ...`...X...`...X
00006f10: 1db0 0160 11b0 0b58 1cb0 0160 12b0 0b58  ...`...X...`...X
00006f20: 1cb0 0160 12b0 0b58 1cb0 015f 11b0 0b58  ...`...X..._...X
00006f30: 1db0 015f 11b0 0b58 1cb0 015f 12b0 0b58  ..._...X..._...X
00006f40: 1cb0 015f 12b0 0b58 1cb0 015f 11b0 0b58  ..._...X..._...X
00006f50: 1db0 015f 11b0 0b58 1cb0 015e 12b0 0b58  ..._...X...^...X
00006f60: 1cb0 015e 12b0 0b58 0990 3e4b 13b0 015e  ...^...X..>K...^
00006f70: 11b0 0b58 1db0 015e 11b0 0b58 1cb0 015e  ...X...^...X...^
00006f80: 12b0 0b58 1cb0 015e 12b0 0b58 1ab0 015e  ...X...^...X...^
00006f90: 13b0 0b58 1bb0 015e 13b0 0b58 1bb0 015e  ...X...^...X...^
00006fa0: 13b0 0b58 1bb0 015e 13b0 0b58 1ab0 015e  ...X...^...X...^
00006fb0: 13b0 0b58 1bb0 015e 13b0 0b58 1bb0 015e  ...X...^...X...^
00006fc0: 13b0 0b58 1bb0 015e 13b0 0b58 1ab0 015e  ...X...^...X...^
00006fd0: 13b0 0b58 1bb0 015e 13b0 0b58 1bb0 015e  ...X...^...X...^
00006fe0: 13b0 0b58 1bb0 015e 1080 3e3f 0090 434a  ...X...^..>?..CJ
00006ff0: 03b0 0b58 1ab0 015e 13b0 0b58 1bb0 015e  ...X...^...X...^
00007000: 13b0 0b58 1bb0 015f 13b0 0b58 1bb0 015f  ...X..._...X..._
00007010: 13b0 0b58 1ab0 015f 13b0 0b58 1bb0 015f  ...X..._...X..._
00007020: 13b0 0b58 1bb0 015f 13b0 0b58 1bb0 015f  ...X..._...X..._
00007030: 13b0 0b58 1ab0 015f 13b0 0b58 1bb0 015f  ...X..._...X..._
00007040: 13b0 0b58 1bb0 015f 13b0 0b58 1bb0 015f  ...X..._...X..._
00007050: 13b0 0b58 1ab0 015f 13b0 0b58 1bb0 015f  ...X..._...X..._
00007060: 13b0 0b58 1bb0 015f 13b0 0b58 1bb0 0160  ...X..._...X...`
00007070: 0480 4341 0090 3e53 0fb0 0b58 1ab0 0160  ..CA..>S...X...`
00007080: 13b0 0b58 1bb0 0160 13b0 0b58 1bb0 0160  ...X...`...X...`
00007090: 13b0 0b58 1bb0 0160 13b0 0b58 1ab0 0160  ...X...`...X...`
000070a0: 13b0 0b58 1bb0 0160 13b0 0b59 1bb0 0160  ...X...`...Y...`
000070b0: 13b0 0b59 1bb0 0160 13b0 0b59 1ab0 0160  ...Y...`...Y...`
000070c0: 13b0 0b59 1bb0 0160 13b0 0b59 0880 3e43  ...Y...`...Y..>C
000070d0: 0090 3c49 13b0 0160 13b0 0b59 1bb0 0160  ..<I...`...Y...`
000070e0: 13b0 0b59 1ab0 0160 13b0 0b59 1bb0 0161  ...Y...`...Y...a
000070f0: 13b0 0b59 1bb0 0161 13b0 0b59 1bb0 0161  ...Y...a...Y...a
00007100: 13b0 0b59 1ab0 0161 13b0 0b59 1bb0 0161  ...Y...a...Y...a
00007110: 13b0 0b59 1bb0 0161 13b0 0b59 1bb0 0161  ...Y...a...Y...a
00007120: 13b0 0b59 1ab0 0161 13b0 0b59 1bb0 0161  ...Y...a...Y...a
00007130: 13b0 0b59 1bb0 0161 13b0 0b59 1bb0 0161  ...Y...a...Y...a
00007140: 13b0 0b59 1ab0 0161 13b0 0b59 1bb0 0161  ...Y...a...Y...a
00007150: 0f90 4349 04b0 0b59 1bb0 0162 13b0 0b59  ..CI...Y...b...Y
00007160: 1bb0 0162 13b0 0b59 1ab0 0162 13b0 0b59  ...b...Y...b...Y
00007170: 1bb0 0162 13b0 0b59 1bb0 0162 13b0 0b59  ...b...Y...b...Y
00007180: 0780 3c56 14b0 0162 13b0 0b59 1ab0 0162  ..<V...b...Y...b
00007190: 13b0 0b59 1bb0 0162 13b0 0b59 1bb0 0162  ...Y...b...Y...b
000071a0: 13b0 0b59 1bb0 0162 13b0 0b59 1ab0 0162  ...Y...b...Y...b
000071b0: 13b0 0b59 1bb0 0162 13b0 0b59 1bb0 0162  ...Y...b...Y...b
000071c0: 13b0 0b59 1bb0 0163 13b0 0b59 1ab0 0163  ...Y...c...Y...c
000071d0: 13b0 0b59 1bb0 0163 13b0 0b59 1bb0 0163  ...Y...c...Y...c
000071e0: 13b0 0b59 1bb0 0163 13b0 0b59 1ab0 0163  ...Y...c...Y...c
000071f0: 13b0 0b59 1bb0 0163 13b0 0b59 1bb0 0163  ...Y...c...Y...c
00007200: 0e80 4320 05b0 0b59 1bb0 0163 13b0 0b59  ..C ...Y...c...Y
00007210: 1ab0 0163 13b0 0b59 1bb0 0163 13b0 0b59  ...c...Y...c...Y
00007220: 1bb0 0163 13b0 0b59 1bb0 0163 13b0 0b59  ...c...Y...c...Y
00007230: 0690 3b47 14b0 0163 13b0 0b59 1bb0 0164  ..;G...c...Y...d
00007240: 13b0 0b59 1bb0 0164 13b0 0b59 1bb0 0164  ...Y...d...Y...d
00007250: 13b0 0b59 1ab0 0164 13b0 0b59 1bb0 0164  ...Y...d...Y...d
00007260: 13b0 0b59 1bb0 0164 13b0 0b59 1bb0 0164  ...Y...d...Y...d
00007270: 13b0 0b59 1ab0 0164 13b0 0b59 1bb0 0164  ...Y...d...Y...d
00007280: 13b0 0b59 1bb0 0164 13b0 0b59 1bb0 0164  ...Y...d...Y...d
00007290: 13b0 0b59 1ab0 0164 13b0 0b59 1bb0 0164  ...Y...d...Y...d
000072a0: 13b0 0b59 1bb0 0165 13b0 0b59 1bb0 0165  ...Y...e...Y...e
000072b0: 0d80 3b4d 0090 3e4b 06b0 0b59 1ab0 0165  ..;M..>K...Y...e
000072c0: 13b0 0b59 1bb0 0165 13b0 0b59 1bb0 0165  ...Y...e...Y...e
000072d0: 13b0 0b59 1bb0 0165 13b0 0b59 1ab0 0165  ...Y...e...Y...e
000072e0: 13b0 0b59 1bb0 0165 13b0 0b59 1bb0 0165  ...Y...e...Y...e
000072f0: 13b0 0b59 1bb0 0165 13b0 0b59 1ab0 0165  ...Y...e...Y...e
00007300: 13b0 0b59 1bb0 0165 13b0 0b59 1bb0 0165  ...Y...e...Y...e
00007310: 13b0 0b59 1bb0 0166 13b0 0b59 1ab0 0166  ...Y...f...Y...f
00007320: 13b0 0b59 1bb0 0166 13b0 0b59 1bb0 0166  ...Y...f...Y...f
00007330: 13b0 0b59 1bb0 0166 0180 3e51 0090 473f  ...Y...f..>Q..G?
00007340: 12b0 0b59 1ab0 0166 13b0 0b59 1bb0 0166  ...Y...f...Y...f
00007350: 13b0 0b59 1bb0 0166 13b0 0b59 1bb0 0166  ...Y...f...Y...f
00007360: 13b0 0b59 1ab0 0166 13b0 0b59 1bb0 0166  ...Y...f...Y...f
00007370: 13b0 0b59 1bb0 0166 13b0 0b59 1bb0 0166  ...Y...f...Y...f
00007380: 13b0 0b59 1ab0 0166 13b0 0b59 1bb0 0167  ...Y...f...Y...g
00007390: 13b0 0b59 0580 4744 0090 453d 16b0 0167  ...Y..GD..E=...g
000073a0: 13b0 0b59 1bb0 0167 13b0 0b59 1ab0 0167  ...Y...g...Y...g
000073b0: 13b0 0b59 1bb0 0167 13b0 0b59 1bb0 0167  ...Y...g...Y...g
000073c0: 13b0 0b59 1bb0 0167 13b0 0b59 1ab0 0167  ...Y...g...Y...g
000073d0: 13b0 0b59 1bb0 0167 13b0 0b59 1bb0 0167  ...Y...g...Y...g
000073e0: 13b0 0b59 1bb0 0167 13b0 0b59 1ab0 0167  ...Y...g...Y...g
000073f0: 13b0 0b59 1bb0 0167 13b0 0b59 1bb0 0168  ...Y...g...Y...h
00007400: 13b0 0b59 1bb0 0168 13b0 0b59 1ab0 0168  ...Y...h...Y...h
00007410: 13b0 0b59 1bb0 0168 13b0 0b59 1bb0 0168  ...Y...h...Y...h
00007420: 13b0 0b59 1bb0 0168 13b0 0b59 1ab0 0168  ...Y...h...Y...h
00007430: 13b0 0b59 1bb0 0168 13b0 0b59 1bb0 0168  ...Y...h...Y...h
00007440: 13b0 0b59 1bb0 0168 13b0 0b59 1ab0 0168  ...Y...h...Y...h
00007450: 13b0 0b59 1bb0 0168 13b0 0b59 1bb0 0168  ...Y...h...Y...h
00007460: 13b0 0b59 17b0 0169 17b0 0b5a 16b0 0169  ...Y...i...Z...i
00007470: 17b0 0b5a 17b0 0169 17b0 0b5a 17b0 0169  ...Z...i...Z...i
00007480: 17b0 0b5a 17b0 0169 17b0 0b5a 16b0 0169  ...Z...i...Z...i
00007490: 17b0 0b5a 17b0 0169 0480 4551 13b0 0b5a  ...Z...i..EQ...Z
000074a0: 17b0 0169 17b0 0b5a 17b0 0169 17b0 0b5a  ...i...Z...i...Z
000074b0: 16b0 0169 17b0 0b5a 17b0 0168 17b0 0b5a  ...i...Z...h...Z
000074c0: 17b0 0168 17b0 0b5a 17b0 0168 17b0 0b5a  ...h...Z...h...Z
000074d0: 16b0 0168 17b0 0b5a 17b0 0168 17b0 0b5a  ...h...Z...h...Z
000074e0: 17b0 0168 17b0 0b5a 17b0 0168 17b0 0b5a  ...h...Z...h...Z
000074f0: 0390 3e4e 13b0 0168 17b0 0b5a 17b0 0168  ..>N...h...Z...h
00007500: 17b0 0b5a 17b0 0168 17b0 0b5a 17b0 0168  ...Z...h...Z...h
00007510: 17b0 0b5a 16b0 0168 17b0 0b5a 17b0 0168  ...Z...h...Z...h
00007520: 17b0 0b5a 17b0 0168 17b0 0b5a 17b0 0168  ...Z...h...Z...h
00007530: 17b0 0b5a 16b0 0168 17b0 0b5a 17b0 0168  ...Z...h...Z...h
00007540: 17b0 0b5a 17b0 0168 17b0 0b5a 17b0 0168  ...Z...h...Z...h
00007550: 17b0 0b5a 16b0 0168 17b0 0b5a 17b0 0168  ...Z...h...Z...h
00007560: 17b0 0b5a 17b0 0168 17b0 0b5a 17b0 0168  ...Z...h...Z...h
00007570: 0e80 3e3e 0090 4344 09b0 0b5a 16b0 0168  ..>>..CD...Z...h
00007580: 17b0 0b5a 17b0 0168 17b0 0b5a 17b0 0168  ...Z...h...Z...h
00007590: 17b0 0b5a 17b0 0168 17b0 0b5a 16b0 0168  ...Z...h...Z...h
000075a0: 17b0 0b5a 17b0 0167 17b0 0b5a 17b0 0167  ...Z...g...Z...g
000075b0: 17b0 0b5a 17b0 0167 17b0 0b5a 16b0 0167  ...Z...g...Z...g
000075c0: 17b0 0b5a 17b0 0167 17b0 0b5a 17b0 0167  ...Z...g...Z...g
000075d0: 17b0 0b5a 17b0 0167 17b0 0b5a 16b0 0167  ...Z...g...Z...g
000075e0: 17b0 0b5a 17b0 0167 17b0 0b5a 17b0 0167  ...Z...g...Z...g
000075f0: 17b0 0b5a 17b0 0167 0280 4333 0090 453f  ...Z...g..C3..E?
00007600: 15b0 0b5a 16b0 0167 17b0 0b5a 17b0 0167  ...Z...g...Z...g
00007610: 17b0 0b5a 17b0 0167 17b0 0b5a 17b0 0167  ...Z...g...Z...g
00007620: 17b0 0b5a 16b0 0167 0e80 455a 0090 4340  ...Z...g..EZ..C@
00007630: 09b0 0b5a 17b0 0167 17b0 0b5a 17b0 0167  ...Z...g...Z...g
00007640: 17b0 0b5a 17b0 0167 17b0 0b5a 16b0 0167  ...Z...g...Z...g
00007650: 17b0 0b5a 17b0 0167 17b0 0b5a 0280 433b  ...Z...g...Z..C;
00007660: 0090 4848 15b0 0167 17b0 0b5a 17b0 0167  ..HH...g...Z...g
00007670: 17b0 0b5a 16b0 0167 17b0 0b5a 17b0 0167  ...Z...g...Z...g
00007680: 17b0 0b5a 17b0 0167 17b0 0b5a 17b0 0167  ...Z...g...Z...g
00007690: 17b0 0b5a 16b0 0167 17b0 0b5a 17b0 0167  ...Z...g...Z...g
000076a0: 17b0 0b5a 17b0 0166 17b0 0b5a 17b0 0166  ...Z...f...Z...f
000076b0: 17b0 0b5a 16b0 0166 17b0 0b5a 17b0 0166  ...Z...f...Z...f
000076c0: 17b0 0b5a 17b0 0166 17b0 0b5a 17b0 0166  ...Z...f...Z...f
000076d0: 17b0 0b5a 16b0 0166 17b0 0b5a 17b0 0166  ...Z...f...Z...f
000076e0: 0d80 4854 0090 474a 0ab0 0b5a 17b0 0166  ..HT..GJ...Z...f
000076f0: 17b0 0b5a 17b0 0166 17b0 0b5a 16b0 0166  ...Z...f...Z...f
00007700: 17b0 0b5a 17b0 0166 17b0 0b5a 17b0 0166  ...Z...f...Z...f
00007710: 17b0 0b5a 17b0 0166 17b0 0b5a 16b0 0166  ...Z...f...Z...f
00007720: 17b0 0b5a 17b0 0166 17b0 0b5a 17b0 0166  ...Z...f...Z...f
00007730: 17b0 0b5a 17b0 0166 17b0 0b5a 16b0 0166  ...Z...f...Z...f
00007740: 17b0 0b5a 17b0 0166 17b0 0b5a 17b0 0166  ...Z...f...Z...f
00007750: 17b0 0b5a 17b0 0166 17b0 0b5a 16b0 0166  ...Z...f...Z...f
00007760: 17b0 0b5a 17b0 0166 0180 474b 0090 434a  ...Z...f..GK..CJ
00007770: 16b0 0b5a 17b0 0166 17b0 0b5a 17b0 0166  ...Z...f...Z...f
00007780: 17b0 0b5a 16b0 0166 17b0 0b5a 17b0 0166  ...Z...f...Z...f
00007790: 17b0 0b5a 17b0 0166 02b0 0166 15b0 0b5a  ...Z...f...f...Z
000077a0: 19b0 0166 15b0 0b5a 19b0 0166 14b0 0b5a  ...f...Z...f...Z
000077b0: 1ab0 0166 14b0 0b5a 19b0 0166 15b0 0b5a  ...f...Z...f...Z
000077c0: 19b0 0166 1580 4348 00b0 0b5a 0090 435b  ...f..CH...Z..C[
000077d0: 19b0 0166 14b0 0b5a 1ab0 0166 14b0 0b5a  ...f...Z...f...Z
000077e0: 19b0 0166 15b0 0b5a 19b0 0166 15b0 0b5a  ...f...Z...f...Z
000077f0: 19b0 0166 14b0 0b5a 1ab0 0166 14b0 0b5a  ...f...Z...f...Z
00007800: 19b0 0166 15b0 0b5a 19b0 0166 15b0 0b5a  ...f...Z...f...Z
00007810: 19b0 0166 14b0 0b5a 1ab0 0166 14b0 0b5a  ...f...Z...f...Z
00007820: 19b0 0166 15b0 0b5a 19b0 0166 15b0 0b5a  ...f...Z...f...Z
00007830: 19b0 0166 14b0 0b5a 1ab0 0166 14b0 0b5a  ...f...Z...f...Z
00007840: 12b0 0b5b 07b0 0166 2eb0 0166 0980 4340  ...[...f...f..C@
00007850: 0090 4543 25b0 0166 2eb0 0166 2db0 0166  ..EC%..f...f-..f
00007860: 2eb0 0166 2eb0 0166 2eb0 0166 2db0 0166  ...f...f...f-..f
00007870: 2eb0 0166 2eb0 0166 2eb0 0167 2db0 0167  ...f...f...g-..g
00007880: 2eb0 0167 2eb0 0167 2eb0 0167 2db0 0167  ...g...g...g-..g
00007890: 2b80 4550 0090 4742 03b0 0167 2eb0 0167  +.EP..GB...g...g
000078a0: 2eb0 0167 2db0 0167 2eb0 0167 2eb0 0167  ...g-..g...g...g
000078b0: 2cb0 0b5b 02b0 0167 2db0 0167 2eb0 0167  ,..[...g-..g...g
000078c0: 2eb0 0167 2eb0 0167 1380 4755 0090 4542  ...g...g..GU..EB
000078d0: 1ab0 0167 2eb0 0167 2eb0 0167 2eb0 0167  ...g...g...g...g
000078e0: 2db0 0167 2eb0 0167 2eb0 0167 2eb0 0167  -..g...g...g...g
000078f0: 2db0 0167 2eb0 0167 2eb0 0167 2eb0 0167  -..g...g...g...g
00007900: 2db0 0167 2eb0 0168 2eb0 0168 2eb0 0168  -..g...h...h...h
00007910: 2db0 0168 2eb0 0168 2eb0 0168 2eb0 0168  -..h...h...h...h
00007920: 2db0 0168 2eb0 0168 2eb0 0168 2eb0 0168  -..h...h...h...h
00007930: 2db0 0168 2eb0 0168 2eb0 0168 2eb0 0168  -..h...h...h...h
00007940: 2db0 0168 2eb0 0168 2eb0 0168 2980 456d  -..h...h...h).Em
00007950: 05b0 0168 2db0 0168 2eb0 0168 2eb0 0168  ...h-..h...h...h
00007960: 2eb0 0168 2db0 0168 2eb0 0168 2eb0 0168  ...h-..h...h...h
00007970: 2eb0 0168 2db0 0168 2eb0 0168 1290 3e40  ...h-..h...h..>@
00007980: 1cb0 0168 2eb0 0169 2db0 0169 2eb0 0169  ...h...i-..i...i
00007990: 2eb0 0169 2eb0 0169 2db0 0169 2eb0 0169  ...i...i-..i...i
000079a0: 2eb0 0169 2eb0 0169 2db0 0169 2eb0 0169  ...i...i-..i...i
000079b0: 2eb0 0169 2eb0 0169 2db0 0169 2eb0 0169  ...i...i-..i...i
000079c0: 0690 434a 28b0 0169 2eb0 0169 2280 3e3c  ..CJ(..i...i".><
000079d0: 0bb0 0169 2eb0 0169 2eb0 0169 2eb0 0169  ...i...i...i...i
000079e0: 2db0 0169 2eb0 0169 2eb0 0169 2eb0 0169  -..i...i...i...i
000079f0: 2db0 0169 2eb0 0169 2eb0 0169 2eb0 0169  -..i...i...i...i
00007a00: 2db0 0169 2880 4357 0090 4746 06b0 016a  -..i(.CW..GF...j
00007a10: 2eb0 016a 2eb0 016a 2db0 016a 2eb0 016a  ...j...j-..j...j
00007a20: 2eb0 016a 2eb0 016a 2db0 016a 2280 4741  ...j...j-..j".GA
00007a30: 0cb0 016a 2eb0 016a 2eb0 016a 1090 4743  ...j...j...j..GC
00007a40: 1db0 016a 2eb0 016a 2eb0 016a 2eb0 016a  ...j...j...j...j
00007a50: 2db0 016a 2eb0 016a 2eb0 016a 2eb0 016a  -..j...j...j...j
00007a60: 2db0 016a 2eb0 016a 2eb0 016a 2eb0 016a  -..j...j...j...j
00007a70: 2db0 016a 2eb0 016a 2eb0 016a 2eb0 016a  -..j...j...j...j
00007a80: 0480 4759 0090 4543 29b0 016a 2eb0 016a  ..GY..EC)..j...j
00007a90: 2eb0 016a 0fb0 016b 843c 8045 4600 9047  ...j...k.<.EF..G
00007aa0: 4681 7080 473c 0090 4845 8170 8048 4800  F.p.G<..HE.p.HH.
00007ab0: 904a 4084 40b0 016b 2eb0 016a 2eb0 0169  .J@.@..k...j...i
00007ac0: 2db0 0168 0780 4a57 0090 4346 27b0 0167  -..h..JW..CF'..g
00007ad0: 2eb0 0167 2eb0 0166 2db0 0165 2eb0 0164  ...g...f-..e...d
00007ae0: 2eb0 0163 2eb0 0163 2db0 0162 2eb0 0161  ...c...c-..b...a
00007af0: 2eb0 0160 1d80 4359 0090 4347 11b0 0160  ...`..CY..CG...`
00007b00: 2db0 015f 2eb0 015e 2eb0 015d 2eb0 015c  -.._...^...]...\
00007b10: 2db0 015c 2eb0 015b 2eb0 015a 1780 432e  -..\...[...Z..C.
00007b20: 0090 4f44 17b0 0159 2db0 0158 2eb0 0158  ..OD...Y-..X...X
00007b30: 0690 4e3b 28b0 0157 2eb0 0156 2280 4f43  ..N;(..W...V".OC
00007b40: 0bb0 0155 2eb0 0155 2eb0 0154 1180 4e68  ...U...U...T..Nh
00007b50: 0090 4d2d 1db0 0153 2db0 0152 2eb0 0151  ..M-...S-..R...Q
00007b60: 2eb0 0151 2eb0 0150 2db0 014f 2eb0 014e  ...Q...P-..O...N
00007b70: 2eb0 014d 2eb0 014d 2db0 014c 2eb0 014b  ...M...M-..L...K
00007b80: 2eb0 014a 2eb0 014a 2db0 0149 2eb0 0148  ...J...J-..I...H
00007b90: 2eb0 0147 0580 4d50 0090 4b3e 29b0 0146  ...G..MP..K>)..F
00007ba0: 2db0 0146 2eb0 0145 2eb0 0144 2eb0 0143  -..F...E...D...C
00007bb0: 2db0 0142 2eb0 0142 2eb0 0141 2eb0 0140  -..B...B...A...@
00007bc0: 2db0 013f 2eb0 013f 2eb0 013e 2eb0 013d  -..?...?...>...=
00007bd0: 2db0 013c 2eb0 013b 2eb0 013b 2eb0 013a  -..<...;...;...:
00007be0: 2db0 0139 2eb0 0138 2eb0 0138 2eb0 0137  -..9...8...8...7
00007bf0: 2db0 0136 2eb0 0135 2eb0 0134 2eb0 0134  -..6...5...4...4
00007c00: 2db0 0133 2eb0 0132 2eb0 0131 2eb0 0130  -..3...2...1...0
00007c10: 2db0 0130 2eb0 012f 17b0 012f 9834 804b  -..0.../.../.4.K
00007c20: 5f00 ff2f 004d 5472 6b00 0004 bd00 ff01  _../.MTrk.......
00007c30: 1943 5320 436c 6172 696e 6574 2053 686f  .CS Clarinet Sho
00007c40: 7274 732d 5472 696c 6c73 00b0 0b7f 00b0  rts-Trills......
00007c50: 077f 87cb 4db0 0128 2db0 0127 2eb0 0127  ....M..(-..'...'
00007c60: 2eb0 0126 2eb0 0126 2db0 0125 2eb0 0125  ...&...&-..%...%
00007c70: 12b0 0125 9107 b00b 4984 2c90 1a53 2c90  ...%....I.,..S,.
00007c80: 4c5d 0090 455d 5d80 1a65 1b80 455d 0080  L]..E]]..e..E]..
00007c90: 4c5d 00b0 0128 2eb0 0129 2eb0 012b 1c90  L]...(...)...+..
00007ca0: 4c5e 0090 455e 11b0 012c 2eb0 012e 1880  L^..E^...,......
00007cb0: 4c5c 0080 455c 16b0 012f 0b90 4c5e 0090  L\..E\.../..L^..
00007cc0: 455e 23b0 0131 2db0 0132 0780 4c5e 0080  E^#..1-..2..L^..
00007cd0: 455e 2190 4c5f 0090 455f 06b0 0134 2eb0  E^!.L_..E_...4..
00007ce0: 0135 2380 4c5f 0080 455f 0bb0 0137 1690  .5#.L_..E_...7..
00007cf0: 4c5f 0090 455f 17b0 0138 2eb0 013a 1280  L_..E_...8...:..
00007d00: 4c5f 0080 455f 1cb0 013b 05b0 013c 0090  L_..E_...;...<..
00007d10: 456d 0090 4c6d 8550 8045 6100 804c 6182  Em..Lm.P.Ea..La.
00007d20: 934d b001 0781 6db0 0108 25b0 0109 8112  .M....m...%.....
00007d30: b001 0a85 12b0 010b 814a b001 0d49 b001  .........J...I..
00007d40: 0e81 5bb0 010f 8125 b001 10a7 4790 1853  ..[....%....G..S
00007d50: 8109 8018 6581 78b0 010f 5bb0 010e 814a  ....e.x...[....J
00007d60: b001 0f37 b001 1024 b001 1223 b001 1312  ...7...$...#....
00007d70: b001 140f 903e 0103 b001 1612 b001 1712  .....>..........
00007d80: b001 1823 b001 1924 b001 1a24 b001 1b23  ...#...$...$...#
00007d90: b001 1c36 b001 1d36 b001 1e35 b001 1f24  ...6...6...5...$
00007da0: b001 2035 b001 2224 b001 2312 b001 2412  .. 5.."$..#...$.
00007db0: b001 2511 b001 261a 903f 260a b001 2712  ..%...&..?&...'.
00007dc0: b001 2812 b001 2911 b001 2a24 b001 2b24  ..(...)...*$..+$
00007dd0: b001 2c22 803e 3f02 b001 2d23 b001 2e24  ..,".>?...-#...$
00007de0: b001 3024 b001 3147 b001 3235 b001 3324  ..0$..1G..25..3$
00007df0: b001 3424 b001 3535 b001 3612 b001 3724  ..4$..55..6...7$
00007e00: b001 3824 b001 3935 b001 3a40 9041 3608  ..8$..95..:@.A6.
00007e10: b001 3b35 b001 3d1b 803f 4b08 b001 3e48  ..;5..=..?K...>H
00007e20: b001 3f36 b001 4046 b001 4148 b001 4281  ..?6..@F..AH..B.
00007e30: 20b0 0143 24b0 0144 4d90 4340 0db0 0145   ..C$..DM.C@...E
00007e40: 3480 4155 01b0 0146 36b0 0147 6bb0 0148  4.AU...F6..Gk..H
00007e50: 35b0 0149 35b0 014a 48b0 014b 24b0 014c  5..I5..JH..K$..L
00007e60: 47b0 014d 2190 4534 39b0 014e 1380 4356  G..M!.E49..N..CV
00007e70: 22b0 014f 35b0 0150 810f b001 5247 b001  "..O5..P....RG..
00007e80: 5347 b001 5436 b001 5548 b001 564e 9046  SG..T6..UH..VN.F
00007e90: 3c1d b001 5735 b001 580e 8045 5228 b001  <...W5..X..ER(..
00007ea0: 596a b001 5a5a b001 5b35 b001 5c59 b001  Yj..ZZ..[5..\Y..
00007eb0: 5d81 3e90 482f 0a80 4659 7ab0 015e 35b0  ].>.H/..FYz..^5.
00007ec0: 015f 24b0 0160 23b0 0161 23b0 0162 5ab0  ._$..`#..a#..bZ.
00007ed0: 0163 6bb0 0164 4090 4a36 1ab0 0165 6780  .ck..d@.J6...eg.
00007ee0: 4849 846d 904f 336b 804a 4b81 15b0 0164  HI.m.O3k.JK....d
00007ef0: 835b 904a 3031 804f 5484 4f90 4831 1d80  .[.J01.OT.O.H1..
00007f00: 4a3e 857d b001 6381 32b0 0162 1990 4f36  J>.}..c.2..b..O6
00007f10: 40b0 0160 24b0 015f 1380 4833 810e b001  @..`$.._..H3....
00007f20: 5e35 b001 5d6c b001 5c6a b001 5b24 b001  ^5..]l..\j..[$..
00007f30: 5924 b001 5859 b001 5724 b001 5547 b001  Y$..XY..W$..UG..
00007f40: 5335 b001 5212 b001 5112 b001 5012 b001  S5..R...Q...P...
00007f50: 4f12 b001 4e11 b001 4d24 b001 4c24 b001  O...N...M$..L$..
00007f60: 4b12 b001 4a23 b001 490b 904e 2707 b001  K...J#..I..N'...
00007f70: 4836 b001 4723 b001 4636 b001 450f 804f  H6..G#..F6..E..O
00007f80: 5115 b001 4447 b001 4324 b001 4223 b001  Q...DG..C$..B#..
00007f90: 4124 b001 4012 b001 3f35 b001 3e24 b001  A$..@...?5..>$..
00007fa0: 3d48 b001 3c47 b001 3b24 b001 3a23 b001  =H..<G..;$..:#..
00007fb0: 3924 b001 3836 b001 3723 b001 3524 b001  9$..86..7#..5$..
00007fc0: 3412 b001 3323 b001 3223 b001 3113 b001  4...3#..2#..1...
00007fd0: 3023 b001 2f12 b001 2e24 b001 2d12 b001  0#../....$..-...
00007fe0: 2b11 b001 2912 b001 2812 b001 2724 b001  +...)...(...'$..
00007ff0: 2635 b001 2424 b001 2324 b001 2235 b001  &5..$$..#$.."5..
00008000: 2124 b001 2024 b001 1f82 1690 4f0c 2bb0  !$.. $......O.+.
00008010: 0120 11b0 0121 12b0 0122 24b0 0123 12b0  . ...!..."$..#..
00008020: 0124 12b0 0125 12b0 0126 11b0 0127 12b0  .$...%...&...'..
00008030: 0128 0a80 4e2f 08b0 0129 24b0 012a 35b0  .(..N/...)$..*5.
00008040: 012b 8265 b001 2a48 b001 2981 32b0 0128  .+.e..*H..).2..(
00008050: 8308 b001 2747 b001 267d b001 2581 21b0  ....'G..&}..%.!.
00008060: 0124 35b0 0123 810f b001 2284 29b0 0121  .$5..#....".)..!
00008070: 24b0 0120 35b0 011f 810f b001 1e6b b001  $.. 5........k..
00008080: 1d7d b001 1c6b b001 1b47 b001 1a24 b001  .}...k...G...$..
00008090: 1947 b001 1836 b001 1747 b001 166b b001  .G...6...G...k..
000080a0: 157d b001 146b b001 1359 b001 126b b001  .}...k...Y...k..
000080b0: 1147 b001 1081 33b0 010f 820b b001 0e81  .G....3.........
000080c0: 32b0 010d 8145 b001 0c81 21b0 010b 8252  2....E....!....R
000080d0: b001 0a7e b001 0981 79b0 0108 8c34 b001  ...~....y....4..
000080e0: 0781 7b80 4f5f 00ff 2f00 4d54 726b 0000  ..{.O_../.MTrk..
000080f0: 0020 00ff 0110 3844 2043 6c61 7269 6e65  . ....8D Clarine
00008100: 7420 416c 6c20 00b0 0b7f 00b0 077f 00ff  t All ..........
00008110: 2f00 4d54 726b 0000 0025 00ff 0115 3844  /.MTrk...%....8D
00008120: 2043 6c61 7269 6e65 7473 2063 7265 2d64   Clarinets cre-d
00008130: 696d 7300 b00b 7f00 b007 7f00 ff2f 004d  ims........../.M
00008140: 5472 6b00 0000 1700 ff01 074d 4944 492d  Trk........MIDI-
00008150: 3337 00b0 0b7f 00b0 077f 00ff 2f00 4d54  37........../.MT
00008160: 726b 0000 0017 00ff 0107 4d49 4449 2d33  rk........MIDI-3
00008170: 3800 b00b 7f00 b007 7f00 ff2f 004d 5472  8........../.MTr
00008180: 6b00 0000 2500 ff01 1543 5320 4562 2043  k...%....CS Eb C
00008190: 6c61 7269 6e65 7420 4c65 6761 746f 00b0  larinet Legato..
000081a0: 0b7f 00b0 077f 00ff 2f00 4d54 726b 0000  ......../.MTrk..
000081b0: 0027 00ff 0117 4353 2042 6173 7320 436c  .'....CS Bass Cl
000081c0: 6172 696e 6574 204c 6567 6174 6f00 b00b  arinet Legato...
000081d0: 7f00 b007 7f00 ff2f 004d 5472 6b00 0000  ......./.MTrk...
000081e0: 2e00 ff01 1e43 5320 4261 7373 2043 6c61  .....CS Bass Cla
000081f0: 7269 6e65 7420 5368 6f72 7473 2d54 7269  rinet Shorts-Tri
00008200: 6c6c 7300 b00b 7f00 b007 7f00 ff2f 004d  lls........../.M
00008210: 5472 6b00 0000 2600 ff01 1645 5720 4261  Trk...&....EW Ba
00008220: 7373 2043 6c61 7269 6e65 7420 476c 6973  ss Clarinet Glis
00008230: 7300 b00b 7f00 b007 7f00 ff2f 004d 5472  s........../.MTr
00008240: 6b00 0000 1700 ff01 074d 4944 492d 3433  k........MIDI-43
00008250: 00b0 0b7f 00b0 077f 00ff 2f00 4d54 726b  ........../.MTrk
00008260: 0000 0017 00ff 0107 4d49 4449 2d34 3400  ........MIDI-44.
00008270: b00b 7f00 b007 7f00 ff2f 004d 5472 6b00  ........./.MTrk.
00008280: 0000 1700 ff01 074d 4944 492d 3435 00b0  .......MIDI-45..
00008290: 0b7f 00b0 077f 00ff 2f00 4d54 726b 0000  ......../.MTrk..
000082a0: 0017 00ff 0107 4d49 4449 2d34 3600 b00b  ......MIDI-46...
000082b0: 7f00 b007 7f00 ff2f 004d 5472 6b00 0000  ......./.MTrk...
000082c0: 1700 ff01 074d 4944 492d 3437 00b0 0b7f  .....MIDI-47....
000082d0: 00b0 077f 00ff 2f00 4d54 726b 0000 0017  ....../.MTrk....
000082e0: 00ff 0107 4d49 4449 2d34 3800 b00b 7f00  ....MIDI-48.....
000082f0: b007 7f00 ff2f 004d 5472 6b00 0006 a700  ...../.MTrk.....
00008300: ff01 1043 5320 4261 7373 6f6e 204c 6567  ...CS Basson Leg
00008310: 6174 6f00 b00b 7f00 b007 7ff0 59b0 0115  ato.........Y...
00008320: 12b0 0114 0ab0 0113 09b0 0112 09b0 0111  ................
00008330: 26b0 0110 13b0 010f 1cb0 010e 54b0 010d  &...........T...
00008340: 5db0 010c 816a b001 0b81 16b0 010a 1cb0  ]....j..........
00008350: 0109 8157 b001 002e b001 002e b001 002d  ...W...........-
00008360: b001 002e b001 012e b001 010b 902a 2e23  .............*.#
00008370: b001 012d b001 012e b001 022e b001 022e  ...-............
00008380: b001 022d b001 022e b001 032e b001 032e  ...-............
00008390: b001 032d b001 042e b001 042e b001 042e  ...-............
000083a0: b001 041e b001 056a 802a 0200 902b 2b83  .......j.*...++.
000083b0: 6080 2b38 0090 2e38 8360 802e 3b00 9032  `.+8...8.`..;..2
000083c0: 2883 6080 3255 0090 373f 8158 b001 063f  (.`.2U..7?.X...?
000083d0: b001 0737 b001 081b b001 0981 00b0 010b  ...7............
000083e0: 13b0 010c 12b0 010d 1bb0 010e 12b0 010f  ................
000083f0: 1cb0 0111 12b0 0112 12b0 0113 12b0 0114  ................
00008400: 4ab0 0115 2db0 0116 52b0 0117 25b0 0118  J...-...R...%...
00008410: 4580 3751 0090 323e 8116 b001 1984 3a80  E.7Q..2>......:.
00008420: 3260 84b5 71b0 0b4e 13b0 0b4f 6cb0 0b4e  2`..q..N...Ol..N
00008430: 8189 0eb0 0122 2eb0 0122 2eb0 0123 2db0  ....."..."...#-.
00008440: 0123 2eb0 0124 2eb0 0124 2eb0 0125 2db0  .#...$...$...%-.
00008450: 0125 2eb0 0126 2eb0 0126 2eb0 0127 2db0  .%...&...&...'-.
00008460: 0127 2eb0 0128 2eb0 0128 0c90 2b36 22b0  .'...(...(..+6".
00008470: 0129 2db0 0129 2eb0 012a 2eb0 012a 2eb0  .)-..)...*...*..
00008480: 012b 1a80 2b5f 1290 3241 01b0 012b 2eb0  .+..+_..2A...+..
00008490: 012c 1e80 3260 10b0 012c 2eb0 012d 2db0  .,..2`...,...--.
000084a0: 012d 2eb0 012e 2eb0 012e 2eb0 012f 2db0  .-.........../-.
000084b0: 012f 2eb0 0130 2eb0 0130 2eb0 0131 2db0  ./...0...0...1-.
000084c0: 0131 2eb0 0132 2eb0 0132 2eb0 0133 2db0  .1...2...2...3-.
000084d0: 0133 2eb0 0134 2eb0 0134 2eb0 0135 2db0  .3...4...4...5-.
000084e0: 0135 2eb0 0136 2eb0 0136 2eb0 0137 2db0  .5...6...6...7-.
000084f0: 0137 2eb0 0138 2eb0 0138 2eb0 0139 2db0  .7...8...8...9-.
00008500: 0139 16b0 013a 2eb0 013a 2eb0 013b 2eb0  .9...:...:...;..
00008510: 013c 2db0 013d 2eb0 013e 2eb0 013f 2eb0  .<-..=...>...?..
00008520: 0140 2590 3625 08b0 0141 2eb0 0142 2eb0  .@%.6%...A...B..
00008530: 0143 2eb0 0143 2db0 0144 2eb0 0145 0380  .C...C-..D...E..
00008540: 3641 0090 3235 2bb0 0146 2eb0 0147 18b0  6A..25+..F...G..
00008550: 0148 2eb0 0148 2db0 0148 2480 323c 0090  .H...H-..H$.2<..
00008560: 2d3e 0ab0 0148 2eb0 0147 2eb0 0147 2db0  ->...H...G...G-.
00008570: 0147 2eb0 0147 2eb0 0147 0180 2d3b 0090  .G...G...G..-;..
00008580: 2b49 2db0 0146 2db0 0146 2eb0 0146 2eb0  +I-..F-..F...F..
00008590: 0146 2eb0 0145 0c80 2b5d 21b0 0145 2eb0  .F...E..+]!..E..
000085a0: 0145 2eb0 0145 2eb0 0145 2db0 0144 2eb0  .E...E...E-..D..
000085b0: 0144 2eb0 0144 2eb0 0144 2db0 0143 2eb0  .D...D...D-..C..
000085c0: 0143 2390 2e3e 0bb0 0143 2eb0 0143 2db0  .C#..>...C...C-.
000085d0: 0143 1280 2e57 04b0 0143 2eb0 0143 2eb0  .C...W...C...C..
000085e0: 0143 2eb0 0143 2db0 0143 2eb0 0144 2eb0  .C...C-..C...D..
000085f0: 0144 2eb0 0144 2390 2b36 0ab0 0144 2eb0  .D...D#.+6...D..
00008600: 0144 2eb0 0145 1280 2b43 0090 2e37 1cb0  .D...E..+C...7..
00008610: 0145 2db0 0145 2eb0 0145 0180 2e37 0090  .E-..E...E...7..
00008620: 3234 2db0 0145 2eb0 0146 2db0 0146 2eb0  24-..E...F-..F..
00008630: 0146 2eb0 0146 0c80 323c 0090 3451 22b0  .F...F..2<..4Q".
00008640: 0146 2db0 0147 2eb0 0147 2eb0 0147 2eb0  .F-..G...G...G..
00008650: 0147 1780 3456 0090 3632 16b0 0147 2eb0  .G..4V..62...G..
00008660: 0148 2eb0 0148 2eb0 0148 2db0 0148 2eb0  .H...H...H-..H..
00008670: 0148 2eb0 0149 2eb0 0149 2db0 0149 2eb0  .H...I...I-..I..
00008680: 0149 2eb0 0149 2eb0 014a 2db0 014a 2eb0  .I...I...J-..J..
00008690: 014a 2eb0 014a 2eb0 014a 0b80 365b 0090  .J...J...J..6[..
000086a0: 3940 22b0 014b 2eb0 014b 2eb0 014b 2eb0  9@"..K...K...K..
000086b0: 014b 2db0 014b 2eb0 014c 2eb0 014c 2eb0  .K-..K...L...L..
000086c0: 014c 0580 395c 28b0 014c 2eb0 014c 2290  .L..9\(..L...L".
000086d0: 3e42 0cb0 014d 2eb0 014d 2db0 014d 2eb0  >B...M...M-..M..
000086e0: 014d 2eb0 014d 2d80 3e40 0090 3c42 01b0  .M...M-.>@..<B..
000086f0: 014e 2db0 014e 2eb0 014e 2eb0 014e 2eb0  .N-..N...N...N..
00008700: 014e 29b0 014f 0f80 3c5f 0090 394e 1fb0  .N)..O..<_..9N..
00008710: 014e 2db0 014e 2eb0 014e 2eb0 014e 2eb0  .N-..N...N...N..
00008720: 014d 1a80 3941 0090 3845 13b0 014d 2eb0  .M..9A..8E...M..
00008730: 014d 2eb0 014d 2eb0 014c 2db0 014c 2eb0  .M...M...L-..L..
00008740: 014c 2eb0 014c 2eb0 014c 2db0 014b 2eb0  .L...L...L-..K..
00008750: 014b 2eb0 014b 2eb0 014b 2db0 014a 2eb0  .K...K...K-..J..
00008760: 014a 2eb0 014a 2eb0 014a 0e80 3858 0090  .J...J...J..8X..
00008770: 3a53 1fb0 014a 2eb0 0149 2eb0 0149 2eb0  :S...J...I...I..
00008780: 0149 2db0 0149 24b0 0149 2eb0 0149 2db0  .I-..I$..I...I-.
00008790: 0149 2eb0 0149 2eb0 0149 2eb0 0149 2db0  .I...I...I...I-.
000087a0: 014a 2eb0 014a 2eb0 014a 2eb0 014a 2db0  .J...J...J...J-.
000087b0: 014a 0d80 3a58 0090 3c54 21b0 014a 2eb0  .J..:X..<T!..J..
000087c0: 014b 2eb0 014b 2db0 014b 2eb0 014b 2eb0  .K...K-..K...K..
000087d0: 014b 2eb0 014b 2db0 014c 2eb0 014c 2eb0  .K...K-..L...L..
000087e0: 014c 2380 3c51 0090 3e49 0bb0 014c 2db0  .L#.<Q..>I...L-.
000087f0: 014c 2eb0 014c 2eb0 014d 2eb0 014d 2db0  .L...L...M...M-.
00008800: 014d 2eb0 014d 2eb0 014d 2eb0 014d 2db0  .M...M...M...M-.
00008810: 014e 2eb0 014e 2eb0 014e 2eb0 014e 2db0  .N...N...N...N-.
00008820: 014e 2eb0 014f 2eb0 014f 1780 3e59 0090  .N...O...O..>Y..
00008830: 3c58 17b0 014f 2db0 014f 2eb0 014f 2eb0  <X...O-..O...O..
00008840: 014f 2eb0 0150 2db0 0150 2eb0 0150 2eb0  .O...P-..P...P..
00008850: 0150 2eb0 0150 2db0 0150 2eb0 0151 2eb0  .P...P-..P...Q..
00008860: 0151 2eb0 0151 2db0 0151 2eb0 0151 2eb0  .Q...Q-..Q...Q..
00008870: 0151 2eb0 0152 2db0 0152 2eb0 0152 2eb0  .Q...R-..R...R..
00008880: 0152 2eb0 0152 2db0 0152 2eb0 0153 2eb0  .R...R-..R...S..
00008890: 0153 2eb0 0153 2db0 0153 2280 3c61 0090  .S...S-..S".<a..
000088a0: 3f5c 0cb0 0153 2eb0 0154 2eb0 0154 2db0  ?\...S...T...T-.
000088b0: 0154 2eb0 0154 2d80 3f57 0090 3e46 01b0  .T...T-.?W..>F..
000088c0: 0154 2eb0 0154 23b0 0155 2db0 0154 2eb0  .T...T#..U-..T..
000088d0: 0154 2eb0 0154 1580 3e55 0090 3c4a 19b0  .T...T..>U..<J..
000088e0: 0154 2db0 0154 2eb0 0153 2eb0 0153 2eb0  .T-..T...S...S..
000088f0: 0153 2080 3c5e 0090 3a5e 0db0 0153 2eb0  .S .<^..:^...S..
00008900: 0153 2eb0 0152 2eb0 0152 2db0 0152 2eb0  .S...R...R-..R..
00008910: 0152 2eb0 0152 2eb0 0151 2db0 0151 2eb0  .R...R...Q-..Q..
00008920: 0151 2eb0 0151 2eb0 0151 2db0 0150 2eb0  .Q...Q...Q-..P..
00008930: 0150 2eb0 0150 2eb0 0150 1480 3a53 0090  .P...P...P..:S..
00008940: 3751 19b0 0150 2eb0 014f 2eb0 014f 2eb0  7Q...P...O...O..
00008950: 014f 2db0 014f 2eb0 014f 2eb0 014f 2eb0  .O-..O...O...O..
00008960: 014e 2db0 014e 2eb0 014e 2b80 3762 03b0  .N-..N...N+.7b..
00008970: 014e 2eb0 014e 2db0 014d 2eb0 014d 2eb0  .N...N-..M...M..
00008980: 014d 2eb0 014d 2db0 014d 2eb0 014c 2eb0  .M...M-..M...L..
00008990: 014c 2eb0 014c 2db0 014c 2eb0 014c 17b0  .L...L-..L...L..
000089a0: 014c 00ff 2f00 4d54 726b 0000 0103 00ff  .L../.MTrk......
000089b0: 0117 4353 2042 6173 736f 6e20 5368 6f72  ..CS Basson Shor
000089c0: 7473 2d54 7269 6c6c 7300 b00b 7f00 b007  ts-Trills.......
000089d0: 7f87 dc27 b001 3e82 4eb0 0b45 2db0 0b45  ...'..>.N..E-..E
000089e0: 2eb0 0b46 2eb0 0b47 2eb0 0b47 2db0 0b48  ...F...G...G-..H
000089f0: 2eb0 0b49 2eb0 0b49 2eb0 0b4a 2db0 0b4b  ...I...I...J-..K
00008a00: 1990 0e53 15b0 0b4b 2eb0 0b4c 2eb0 0b4d  ...S...K...L...M
00008a10: 1880 0e65 15b0 0b4d 0990 215d 0090 2d5d  ...e...M..!]..-]
00008a20: 25b0 0b4e 2eb0 0b4f 2580 215d 0080 2d5d  %..N...O%.!]..-]
00008a30: 09b0 0b4f 2db0 0b50 2eb0 0b51 1490 215e  ...O-..P...Q..!^
00008a40: 0090 2d5e 1ab0 0b51 2eb0 0b52 2db0 0b53  ..-^...Q...R-..S
00008a50: 0380 215c 0080 2d5c 0090 215e 0090 2d5e  ..!\..-\..!^..-^
00008a60: 2bb0 0b53 2eb0 0b54 1f80 215e 0080 2d5e  +..S...T..!^..-^
00008a70: 00b0 0b55 0090 215f 0090 2d5f 7880 215f  ...U..!_..-_x.!_
00008a80: 0080 2d5f 0090 215f 0090 2d5f 4990 0c53  ..-_..!_..-_I..S
00008a90: 2f80 215f 0080 2d5f 0090 216d 0090 2d6d  /.!_..-_..!m..-m
00008aa0: 5a80 0c65 8476 802d 6100 8021 6100 ff2f  Z..e.v.-a..!a../
00008ab0: 004d 5472 6b00 0000 1e00 ff01 0e38 4420  .MTrk........8D 
00008ac0: 4261 7373 6f6e 2041 6c6c 2000 b00b 7f00  Basson All .....
00008ad0: b007 7f00 ff2f 004d 5472 6b00 0000 1f00  ...../.MTrk.....
00008ae0: ff01 0f45 5720 4261 7373 6f6e 2047 6c69  ...EW Basson Gli
00008af0: 7373 00b0 0b7f 00b0 077f 00ff 2f00 4d54  ss........../.MT
00008b00: 726b 0000 0017 00ff 0107 4d49 4449 2d35  rk........MIDI-5
00008b10: 3300 b00b 7f00 b007 7f00 ff2f 004d 5472  3........../.MTr
00008b20: 6b00 0000 1700 ff01 074d 4944 492d 3534  k........MIDI-54
00008b30: 00b0 0b7f 00b0 077f 00ff 2f00 4d54 726b  ........../.MTrk
00008b40: 0000 0017 00ff 0107 4d49 4449 2d35 3500  ........MIDI-55.
00008b50: b00b 7f00 b007 7f00 ff2f 004d 5472 6b00  ........./.MTrk.
00008b60: 0002 1400 ff01 1c43 5320 436f 6e74 7261  .......CS Contra
00008b70: 4261 7373 6f6e 204c 6567 6174 6f20 2838  Basson Legato (8
00008b80: 5642 2900 b00b 7f00 b007 7ff3 5eb0 016a  VB).........^..j
00008b90: 09b0 0167 09b0 0179 0ab0 0177 09b0 0175  ...g...y...w...u
00008ba0: 0ab0 015f 09b0 015d 09b0 015c 0ab0 0147  ..._...]...\...G
00008bb0: 09b0 0146 09b0 0145 0ab0 0143 09b0 0142  ...F...E...C...B
00008bc0: 09b0 0140 0ab0 013e 09b0 013d 13b0 013c  ...@...>...=...<
00008bd0: 1cb0 013a 09b0 0139 0ab0 0137 09b0 0136  ...:...9...7...6
00008be0: 09b0 0135 13b0 0134 13b0 0133 25b0 0132  ...5...4...3%..2
00008bf0: 0ab0 0131 09b0 0130 09b0 012f 0ab0 012e  ...1...0.../....
00008c00: 09b0 012d 13b0 012c 1bb0 012a 0ab0 0129  ...-...,...*...)
00008c10: 09b0 0128 0ab0 0126 09b0 0124 0ab0 0122  ...(...&...$..."
00008c20: 09b0 0121 38b0 0120 13b0 011f 25b0 011e  ...!8.. ....%...
00008c30: 41b0 011d 39b0 011c 5db0 011b 67b0 011a  A...9...]...g...
00008c40: 4bb0 0119 13b0 0118 13b0 0117 25b0 0116  K...........%...
00008c50: 2fb0 0115 26b0 0114 2eb0 0113 26b0 0112  /...&.......&...
00008c60: 2fb0 0111 41b0 0110 38b0 010f 26b0 010e  /...A...8...&...
00008c70: 12b0 010d 1cb0 010c 3890 2b37 811c b001  ........8.+7....
00008c80: 0d24 b001 0e37 b001 0f12 b001 101b b001  .$...7..........
00008c90: 1112 b001 1213 b001 131b b001 142d b001  .............-..
00008ca0: 1525 b001 1624 b001 1706 802b 3b00 902e  .%...$.....+;...
00008cb0: 3816 b001 1824 b001 192e b001 1a24 b001  8....$.......$..
00008cc0: 1b25 b001 1c1b b001 1d1c b001 1e1b b001  .%..............
00008cd0: 1f1c b001 2024 b001 2124 b001 2225 b001  .... $..!$.."%..
00008ce0: 231b b001 2413 b001 2512 b001 2614 802e  #...$...%...&...
00008cf0: 4e00 9032 4407 b001 2713 b001 2912 b001  N..2D...'...)...
00008d00: 2a40 b001 2b1b b001 2c77 b001 2d52 b001  *@..+...,w..-R..
00008d10: 2e81 1080 3254 0090 3744 811e b001 2f2d  ....2T..7D..../-
00008d20: b001 3083 09b0 0131 1bb0 0132 1cb0 0133  ..0....1...2...3
00008d30: 2db0 0134 8100 b001 3549 b001 362e b001  -..4....5I..6...
00008d40: 3711 8037 5f00 9032 4d0a b001 3812 b001  7..7_..2M...8...
00008d50: 3937 b001 3a1b b001 3b25 b001 3c5b b001  97..:...;%..<[..
00008d60: 3d2e b001 3e24 b001 3f81 54b0 013e 813c  =...>$..?.T..>.<
00008d70: 8032 6200 ff2f 004d 5472 6b00 0000 2d00  .2b../.MTrk...-.
00008d80: ff01 1d43 5320 436f 6e74 7261 4261 7373  ...CS ContraBass
00008d90: 6f6e 2053 686f 7274 732d 5472 696c 6c73  on Shorts-Trills
00008da0: 00b0 0b7f 00b0 077f 00ff 2f00 4d54 726b  ........../.MTrk
00008db0: 0000 0025 00ff 0115 4557 2043 6f6e 7472  ...%....EW Contr
00008dc0: 6142 6173 736f 6e20 4772 6163 6500 b00b  aBasson Grace...
00008dd0: 7f00 b007 7f00 ff2f 004d 5472 6b00 0000  ......./.MTrk...
00008de0: 1700 ff01 074d 4944 492d 3539 00b0 0b7f  .....MIDI-59....
00008df0: 00b0 077f 00ff 2f00 4d54 726b 0000 0017  ....../.MTrk....
00008e00: 00ff 0107 4d49 4449 2d36 3000 b00b 7f00  ....MIDI-60.....
00008e10: b007 7f00 ff2f 004d 5472 6b00 0000 1700  ...../.MTrk.....
00008e20: ff01 074d 4944 492d 3631 00b0 0b7f 00b0  ...MIDI-61......
00008e30: 077f 00ff 2f00 4d54 726b 0000 0017 00ff  ..../.MTrk......
00008e40: 0107 4d49 4449 2d36 3200 b00b 7f00 b007  ..MIDI-62.......
00008e50: 7f00 ff2f 004d 5472 6b00 0000 1700 ff01  .../.MTrk.......
00008e60: 074d 4944 492d 3633 00b0 0b7f 00b0 077f  .MIDI-63........
00008e70: 00ff 2f00 4d54 726b 0000 0017 00ff 0107  ../.MTrk........
00008e80: 4d49 4449 2d36 3400 b00b 7f00 b007 7f00  MIDI-64.........
00008e90: ff2f 004d 5472 6b00 0000 bf00 ff01 0f43  ./.MTrk........C
00008ea0: 5320 4d61 6a6f 7220 5363 616c 6573 00b0  S Major Scales..
00008eb0: 0b7f 00b0 077f 8586 7090 2e56 8670 b00b  ........p..V.p..
00008ec0: 3950 802e 742e b00b 3813 b00b 3712 b00b  9P..t...8...7...
00008ed0: 3612 b00b 3582 22b0 0b36 48b0 0b37 1190  6...5."..6H..7..
00008ee0: 413f 6eb0 0b38 25b0 0b39 6cb0 0b3a 5bb0  A?n..8%..9l..:[.
00008ef0: 0b3b 24b0 0b3c 24b0 0b3d 24b0 0b3f 25b0  .;$..<$..=$..?%.
00008f00: 0b40 24b0 0b41 36b0 0b43 25b0 0b44 12b0  .@$..A6..C%..D..
00008f10: 0b45 24b0 0b47 24b0 0b48 12b0 0b49 13b0  .E$..G$..H...I..
00008f20: 0b4a 11b0 0b4c 25b0 0b4d 12b0 0b4e 12b0  .J...L%..M...N..
00008f30: 0b4f 24b0 0b50 25b0 0b52 24b0 0b53 12b0  .O$..P%..R$..S..
00008f40: 0b54 24b0 0b55 24b0 0b56 25b0 0b58 36b0  .T$..U$..V%..X6.
00008f50: 0b59 4b80 4161 00ff 2f00 4d54 726b 0000  .YK.Aa../.MTrk..
00008f60: 0028 00ff 0118 4353 204d 696e 6f72 2048  .(....CS Minor H
00008f70: 6172 6d6f 6e69 6320 5363 616c 6573 00b0  armonic Scales..
00008f80: 0b7f 00b0 077f 00ff 2f00 4d54 726b 0000  ......../.MTrk..
00008f90: 0027 00ff 0117 4353 204d 696e 6f72 204e  .'....CS Minor N
00008fa0: 6174 7572 616c 2053 6361 6c65 7300 b00b  atural Scales...
00008fb0: 7f00 b007 7f00 ff2f 004d 5472 6b00 0000  ......./.MTrk...
00008fc0: 2300 ff01 1343 5320 4f63 7461 746f 6e69  #....CS Octatoni
00008fd0: 6320 5363 616c 6573 00b0 0b7f 00b0 077f  c Scales........
00008fe0: 00ff 2f00 4d54 726b 0000 0023 00ff 0113  ../.MTrk...#....
00008ff0: 4353 2043 6872 6f6d 6174 6963 2053 6361  CS Chromatic Sca
00009000: 6c65 7300 b00b 7f00 b007 7f00 ff2f 004d  les........../.M
00009010: 5472 6b00 0000 2400 ff01 1443 5320 5768  Trk...$....CS Wh
00009020: 6f6c 6520 546f 6e65 2053 6361 6c65 7300  ole Tone Scales.
00009030: b00b 7f00 b007 7f00 ff2f 004d 5472 6b00  ........./.MTrk.
00009040: 0000 4100 ff01 1953 4620 456e 732e 2048  ..A....SF Ens. H
00009050: 6967 6820 5570 7761 7264 7320 5275 6e73  igh Upwards Runs
00009060: 01b0 0b7f 00b0 0b7f 00b0 0b7f 00b0 077f  ................
00009070: 00b0 077f 00b0 077f 0090 0740 1980 0740  ...........@...@
00009080: 00ff 2f00 4d54 726b 0000 0021 00ff 0111  ../.MTrk...!....
00009090: 5353 5020 456e 732e 2054 7265 6d6f 6c6f  SSP Ens. Tremolo
000090a0: 7300 b00b 7f00 b007 7f00 ff2f 004d 5472  s........../.MTr
000090b0: 6b00 0000 3300 ff01 1a43 5320 456e 732e  k...3....CS Ens.
000090c0: 2054 7269 6c6c 7320 4d61 6a6f 7220 4d69   Trills Major Mi
000090d0: 6e6f 7200 b00b 7f00 b007 7f00 901f 3e81  nor...........>.
000090e0: 7080 1f59 00ff 2f00 4d54 726b 0000 001d  p..Y../.MTrk....
000090f0: 00ff 010d 4353 2054 6f6e 616c 2052 6970  ....CS Tonal Rip
00009100: 7300 b00b 7f00 b007 7f00 ff2f 004d 5472  s........../.MTr
00009110: 6b00 0000 1e00 ff01 0e43 5320 4174 6f6e  k........CS Aton
00009120: 616c 2052 6970 7300 b00b 7f00 b007 7f00  al Rips.........
00009130: ff2f 004d 5472 6b00 0003 8900 ff01 1c43  ./.MTrk........C
00009140: 5320 436c 7573 7465 7220 4368 6f72 6473  S Cluster Chords
00009150: 2026 2046 6c75 7474 6572 7300 b00b 7f00   & Flutters.....
00009160: b007 7f81 9770 b00b 002e b00b 012e b00b  .....p..........
00009170: 022d b00b 042e b00b 052e b00b 072e b00b  .-..............
00009180: 082d b00b 0a2e b00b 0b2e b00b 0d2e b00b  .-..............
00009190: 0e16 903e 5417 b00b 102e b00b 112e b00b  ...>T...........
000091a0: 132e b00b 142d b00b 162e b00b 172e b00b  .....-..........
000091b0: 182e b00b 1a2d b00b 1b2e b00b 1d2e b00b  .....-..........
000091c0: 1e2e b00b 202d b00b 212e b00b 232e b00b  .... -..!...#...
000091d0: 242e b00b 262d b00b 272e b00b 292e b00b  $...&-..'...)...
000091e0: 2a2e b00b 2c2d b00b 2d2e b00b 2e2e b00b  *...,-..-.......
000091f0: 302e b00b 312d b00b 332e b00b 342e b00b  0...1-..3...4...
00009200: 3616 b00b 3772 b00b 3509 b00b 340a b00b  6...7r..5...4...
00009210: 3312 b00b 3213 b00b 300a b00b 2f09 b00b  3...2...0.../...
00009220: 2e1d b00b 2c12 b00b 2b0a b00b 2a09 b00b  ....,...+...*...
00009230: 290a b00b 2809 b00b 271c b00b 2513 b00b  )...(...'...%...
00009240: 2412 b00b 2313 b00b 2213 b00b 210a b00b  $...#..."...!...
00009250: 2012 b00b 1f0a b00b 1e13 b00b 1d09 b00b   ...............
00009260: 1c0a b00b 1a09 b00b 190a b00b 1809 b00b  ................
00009270: 1713 b00b 1609 b00b 1513 b00b 1309 b00b  ................
00009280: 120a b00b 1109 b00b 101d b00b 0f00 b00b  ................
00009290: 0064 803e 4d83 01b0 0b02 0ab0 0b04 09b0  .d.>M...........
000092a0: 0b05 0ab0 0b07 0ab0 0b08 1db0 0b09 13b0  ................
000092b0: 0b0a 0ab0 0b0b 09b0 0b0c 0ab0 0b0e 0ab0  ................
000092c0: 0b0f 09b0 0b10 14b0 0b11 0ab0 0b12 09b0  ................
000092d0: 0b14 14b0 0b16 09b0 0b17 0ab0 0b18 0ab0  ................
000092e0: 0b1a 09b0 0b1b 13b0 0b1c 0ab0 0b1d 0ab0  ................
000092f0: 0b1e 09b0 0b1f 14b0 0b20 09b0 0b21 14b0  ......... ...!..
00009300: 0b23 0690 3f56 20b0 0b24 14b0 0b26 09b0  .#..?V ..$...&..
00009310: 0b27 27b0 0b28 57b0 0b29 13b0 0b2a 0ab0  .''..(W..)...*..
00009320: 0b2b 14b0 0b2d 1cb0 0b2e 0ab0 0b30 13b0  .+...-.......0..
00009330: 0b31 14b0 0b32 09b0 0b34 0ab0 0b36 27b0  .1...2...4...6'.
00009340: 0b37 09b0 0b39 0ab0 0b3a 30b0 0b3b 0ab0  .7...9...:0..;..
00009350: 0b3c 57b0 0b3a 09b0 0b39 14b0 0b38 13b0  .<W..:...9...8..
00009360: 0b36 0ab0 0b35 14b0 0b34 26b0 0b33 30b0  .6...5...4&..30.
00009370: 0b32 13b0 0b31 14b0 0b30 09b0 0b2f 0ab0  .2...1...0.../..
00009380: 0b2e 1db0 0b2d 1db0 0b2c 14b0 0b2b 13b0  .....-...,...+..
00009390: 0b2a 13b0 0b28 14b0 0b27 09b0 0b26 2eb0  .*...(...'...&..
000093a0: 0b23 2eb0 0b20 2eb0 0b1d 2db0 0b1a 2eb0  .#... ....-.....
000093b0: 0b17 2eb0 0b14 2eb0 0b11 2db0 0b0e 2eb0  ..........-.....
000093c0: 0b0b 2eb0 0b08 2eb0 0b05 22b0 0b03 00b0  ..........".....
000093d0: 0b00 8170 803f 5082 33b0 0b01 0ab0 0b02  ...p.?P.3.......
000093e0: 0ab0 0b03 09b0 0b04 13b0 0b06 1db0 0b08  ................
000093f0: 0ab0 0b09 0ab0 0b0a 27b0 0b0b 2590 4144  ........'...%.AD
00009400: 08b0 0b0c 2eb0 0b0e 2eb0 0b0f 2eb0 0b11  ................
00009410: 2db0 0b12 2eb0 0b14 2eb0 0b15 2eb0 0b17  -...............
00009420: 2db0 0b18 2eb0 0b1a 2eb0 0b1b 2eb0 0b1d  -...............
00009430: 2db0 0b1e 2eb0 0b20 1eb0 0b21 2db0 0b1f  -...... ...!-...
00009440: 2eb0 0b1e 2eb0 0b1d 2eb0 0b1c 2db0 0b1b  ............-...
00009450: 2eb0 0b1a 2eb0 0b19 2eb0 0b18 2db0 0b17  ............-...
00009460: 2eb0 0b16 2eb0 0b15 2eb0 0b14 2db0 0b13  ............-...
00009470: 2eb0 0b12 2eb0 0b11 2eb0 0b10 2db0 0b0f  ............-...
00009480: 2eb0 0b0e 2eb0 0b0d 2eb0 0b0c 2db0 0b0b  ............-...
00009490: 2eb0 0b0a 2eb0 0b09 2eb0 0b08 2db0 0b07  ............-...
000094a0: 2eb0 0b06 2eb0 0b05 2eb0 0b03 2db0 0b02  ............-...
000094b0: 2eb0 0b01 2eb0 0b00 26b0 0b00 4780 4167  ........&...G.Ag
000094c0: 00ff 2f00 4d54 726b 0000 002b 00ff 011b  ../.MTrk...+....
000094d0: 4353 2052 616e 646f 6d20 5374 6163 6361  CS Random Stacca
000094e0: 746f 2050 6174 7465 726e 7300 b00b 7f00  to Patterns.....
000094f0: b007 7f00 ff2f 004d 5472 6b00 0000 2b00  ...../.MTrk...+.
00009500: ff01 1b53 414d 2043 6c75 7374 6572 7320  ...SAM Clusters 
00009510: 616e 6420 4678 2037 2050 7273 7473 00b0  and Fx 7 Prsts..
00009520: 0b7f 00b0 077f 00ff 2f00 4d54 726b 0000  ......../.MTrk..
00009530: 002f 00ff 0117 5346 2045 6e73 2e20 4869  ./....SF Ens. Hi
00009540: 6768 2046 7820 3220 5072 7374 7300 b00b  gh Fx 2 Prsts...
00009550: 7f00 b007 7f00 9005 4019 8005 4000 ff2f  ........@...@../
00009560: 004d 5472 6b00 0000 3600 ff01 1653 4620  .MTrk...6....SF 
00009570: 456e 732e 204c 6f77 2046 7820 3220 5072  Ens. Low Fx 2 Pr
00009580: 7374 7300 b00b 7f00 b00b 7f00 b007 7f00  sts.............
00009590: b007 7f00 9005 4019 8005 4000 ff2f 004d  ......@...@../.M
000095a0: 5472 6b00 000a 5b00 ff01 0d53 4620 4c6f  Trk...[....SF Lo
000095b0: 6e67 2053 686f 7274 00b0 0b7f 00b0 077f  ng Short........
000095c0: 00b0 077f 0090 0440 1980 0440 a31f 9002  .......@...@....
000095d0: 4019 8002 4084 9b55 b00b 4281 6cb0 0b41  @...@..U..B.l..A
000095e0: 8123 b00b 407b 9000 3f81 7090 4640 0090  .#..@{..?.p.F@..
000095f0: 413f 0090 4a49 7680 0061 0080 4a5e 0080  A?..JIv..a..J^..
00009600: 4161 0080 465f 845a 904d 4500 904a 3f00  Aa..F_.Z.ME..J?.
00009610: 9046 4176 804d 5f00 8046 6900 804a 6984  .FAv.M_..Fi..Ji.
00009620: 5a90 4a47 0090 463e 0090 4145 64b0 0b41  Z.JG..F>..AEd..A
00009630: 1280 4a6b 0080 4163 0080 466b 826a 904d  ..Jk..Ac..Fk.j.M
00009640: 5300 904a 4300 9046 3d76 804d 6900 8046  S..JC..F=v.Mi..F
00009650: 5d00 804a 6384 5a90 4a4e 0090 4148 0090  ]..Jc.Z.JN..AH..
00009660: 4646 7680 4a5f 0080 4664 0080 415c 883a  FFv.J_..Fd..A\.:
00009670: 9048 5600 904b 5e00 9046 5176 8048 6200  .HV..K^..FQv.Hb.
00009680: 8046 5b00 804b 6384 5a90 4648 0090 4d48  .F[..Kc.Z.FH..MH
00009690: 7680 4661 0080 4d60 845a 9046 5300 904b  v.Fa..M`.Z.FS..K
000096a0: 4800 9048 4676 8046 6500 8048 6000 804b  H..HFv.Fe..H`..K
000096b0: 6082 6a90 484a 0090 4641 0090 4143 7680  `.j.HJ..FA..ACv.
000096c0: 486b 0080 416d 0080 4671 8e0a 904a 4e00  Hk..Am..Fq...JN.
000096d0: 9041 3f00 9046 3976 804a 5c00 8046 6500  .A?..F9v.J\..Fe.
000096e0: 8041 5f84 5a90 4a4d 0090 4d4d 0090 4643  .A_.Z.JM..MM..FC
000096f0: 7680 4a5f 0080 465b 0080 4d62 845a 904a  v.J_..F[..Mb.Z.J
00009700: 5600 9046 4476 804a 6200 8046 5c82 6a90  V..FDv.Jb..F\.j.
00009710: 4853 0090 4641 0090 4147 0090 4d32 7680  HS..FA..AG..M2v.
00009720: 485c 0080 4d65 0080 4163 0080 4665 853e  H\..Me..Ac..Fe.>
00009730: b00b 426d b00b 4349 b00b 4424 b00b 4524  ..Bm..CI..D$..E$
00009740: b00b 4712 b00b 4913 b00b 4b12 b00b 4c12  ..G...I...K...L.
00009750: b00b 4d24 b00b 4e12 b00b 4f13 b00b 5011  ..M$..N...O...P.
00009760: b00b 5113 b00b 5212 b00b 5312 b00b 5412  ..Q...R...S...T.
00009770: b00b 5612 b00b 5712 b00b 5912 b00b 5b12  ..V...W...Y...[.
00009780: b00b 5e12 b00b 6113 b00b 6512 b00b 6812  ..^...a...e...h.
00009790: b00b 6c12 b00b 7312 b00b 7b12 b00b 7f81  ..l...s...{.....
000097a0: a50e b001 3325 b001 3481 11b0 0135 00b0  ....3%..4....5..
000097b0: 0128 8157 b00b 7f2e b00b 7d2e b00b 7c2d  .(.W......}...|-
000097c0: b00b 7b2e b00b 7a2e b00b 782e b00b 772d  ..{...z...x...w-
000097d0: b00b 762e b00b 752e b00b 732e b00b 722d  ..v...u...s...r-
000097e0: b00b 712e b00b 702e b00b 6e2e b00b 6d2d  ..q...p...n...m-
000097f0: b00b 6c2e b00b 6b2e b00b 692e b00b 682d  ..l...k...i...h-
00009800: b00b 672e b00b 662d b00b 6500 b001 312e  ..g...f-..e...1.
00009810: b001 3100 b00b 652e b00b 6500 b001 312d  ..1...e...e...1-
00009820: b001 3200 b00b 632e b00b 6400 b001 322e  ..2...c...d...2.
00009830: b001 3200 b00b 662e b00b 6800 b001 332d  ..2...f...h...3-
00009840: b001 3300 b00b 6a2e b00b 6c00 b001 332e  ..3...j...l...3.
00009850: b001 3400 b00b 6e2e b00b 7000 b001 3416  ..4...n...p...4.
00009860: b00b 7117 b001 352e b001 352e b001 352e  ..q...5...5...5.
00009870: b001 362d b001 3622 9004 400c b001 362e  ..6-..6"..@...6.
00009880: b001 372e b001 372d b001 382e b001 382d  ..7...7-..8...8-
00009890: 9052 4101 b001 382e b001 392d b001 392e  .RA...8...9-..9.
000098a0: b001 392e b001 3a2e b001 3a0a 8052 3d00  ..9...:...:..R=.
000098b0: 9054 411b b001 3b81 5580 544e 00b0 013a  .TA...;.U.TN...:
000098c0: 0090 513d 35b0 0139 24b0 0138 35b0 0136  ..Q=5..9$..85..6
000098d0: 11b0 0134 12b0 0133 24b0 0132 1b80 513e  ...4...3$..2..Q>
000098e0: 0090 4f45 8138 b001 3184 1480 4f57 57b0  ..OE.8..1...OWW.
000098f0: 0130 12b0 012e 11b0 012b 14b0 0128 11b0  .0.......+...(..
00009900: 0125 5590 4f54 1980 0440 8157 804f 4a00  .%U.OT...@.W.OJ.
00009910: 904e 4832 b001 2612 b001 2711 b001 2912  .NH2..&...'...).
00009920: b001 2b12 b001 2d11 b001 2e12 b001 2f12  ..+...-......./.
00009930: b001 3012 b001 3130 804e 3900 904f 4805  ..0...10.N9..OH.
00009940: b001 3223 b001 3411 b001 3513 b001 3634  ..2#..4...5...64
00009950: b001 3724 b001 3835 b001 3917 804f 4e00  ..7$..85..9..ON.
00009960: 9051 4753 b001 3a58 b001 3b2e b001 3a17  .QGS..:X..;...:.
00009970: 8051 6100 904a 4917 b001 3a2e b001 392d  .Qa..JI...:...9-
00009980: b001 392e b001 382e b001 382e b001 382d  ..9...8...8...8-
00009990: b001 372e b001 372e b001 362e b001 362d  ..7...7...6...6-
000099a0: b001 362e b001 352e b001 352e b001 342d  ..6...5...5...4-
000099b0: b001 342e b001 332e b001 332e b001 3327  ..4...3...3...3'
000099c0: 804a 5706 b001 322e b001 322e b001 2e2e  .JW...2...2.....
000099d0: b001 2b2d b001 282e b001 252e b001 222e  ..+-..(...%...".
000099e0: b001 1f21 b001 1d00 9052 4100 904f 4400  ...!.....RA..OD.
000099f0: 9002 402e b001 1c2e b001 1c2d b001 1c2e  ..@........-....
00009a00: b001 1c2e b001 1c0b 8052 4800 804f 4f00  .........RH..OO.
00009a10: 9054 4600 9051 3a23 b001 1d2d b001 1d2e  .TF..Q:#...-....
00009a20: b001 1d2e b001 1e2e b001 1e16 8054 4a00  .............TJ.
00009a30: 8051 5500 904f 4400 9052 4c17 b001 1e2e  .QU..OD..RL.....
00009a40: b001 1f2e b001 1f2e b001 1f2a 8052 5a03  ...........*.RZ.
00009a50: b001 2022 804f 5400 9052 5300 9056 620c  .. ".OT..RS..Vb.
00009a60: b001 202e b001 202e b001 2105 8052 4109  .. ... ...!..RA.
00009a70: 8056 5e1f b001 212e b001 212e b001 222e  .V^...!...!...".
00009a80: b001 222d b001 222e b001 232e b001 232e  .."-.."...#...#.
00009a90: b001 230a 9054 5800 9051 5323 b001 242e  ..#..TX..QS#..$.
00009aa0: b001 242e b001 242e b001 252d b001 2516  ..$...$...%-..%.
00009ab0: 8054 5000 8051 5f00 9052 4c00 904f 6b18  .TP..Q_..RL..Ok.
00009ac0: b001 252e b001 262e b001 262d b001 262e  ..%...&...&-..&.
00009ad0: b001 2721 8052 5600 804f 5f00 9051 4400  ..'!.RV..O_..QD.
00009ae0: 904e 440d b001 272e b001 272d b001 282e  .ND...'...'-..(.
00009af0: b001 282e b001 282c 8051 5a00 804e 5a00  ..(...(,.QZ..NZ.
00009b00: b001 2900 904f 4b00 904a 4b2e b001 282e  ..)..OK..JK...(.
00009b10: b001 282d b001 282e b001 282e b001 280b  ..(-..(...(...(.
00009b20: 804f 5c00 804a 4f00 9051 4600 9048 5123  .O\..JO..QF..HQ#
00009b30: b001 282d b001 272e b001 272e b001 272e  ..(-..'...'...'.
00009b40: b001 2716 8051 5d00 8048 6000 904e 4c00  ..'..Q]..H`..NL.
00009b50: 9045 4a17 b001 272e b001 272e b001 272e  .EJ...'...'...'.
00009b60: b001 262d b001 2622 804e 5d00 8045 5700  ..&-..&".N]..EW.
00009b70: 904a 4900 9042 580c b001 262e b001 262e  .JI..BX...&...&.
00009b80: b001 262d b001 262e b001 262e b001 2518  ..&-..&...&...%.
00009b90: 8002 4016 b001 252d b001 252e b001 252e  ..@...%-..%...%.
00009ba0: b001 252e b001 252d b001 252e b001 242e  ..%...%-..%...$.
00009bb0: b001 242e b001 242d b001 2416 8042 6100  ..$...$-..$..Ba.
00009bc0: 804a 5d18 b001 242e b001 242e b001 242d  .J]...$...$...$-
00009bd0: b001 232e b001 232e b001 232e b001 232d  ..#...#...#...#-
00009be0: b001 232e b001 232e b001 232e b001 222d  ..#...#...#..."-
00009bf0: b001 222e b001 222e b001 222e b001 222d  .."..."..."..."-
00009c00: b001 222e b001 212e b001 212e b001 212d  .."...!...!...!-
00009c10: b001 212e b001 212e b001 212e b001 212d  ..!...!...!...!-
00009c20: b001 202e b001 202e b001 202e b001 202d  .. ... ... ... -
00009c30: b001 202e b001 202e b001 202e b001 1f2d  .. ... ... ....-
00009c40: b001 1f2e b001 1f2e b001 1f2e b001 1f2d  ...............-
00009c50: b001 1f2e b001 1f2e b001 1e2e b001 1e2d  ...............-
00009c60: b001 1e2e b001 1e2e b001 1e2e b001 1e2d  ...............-
00009c70: b001 1e09 b001 1e2e b001 1f2e b001 1f2e  ................
00009c80: b001 202d b001 202e b001 212e b001 212e  .. -.. ...!...!.
00009c90: b001 212d b001 222e b001 222e b001 232e  ..!-.."..."...#.
00009ca0: b001 232d b001 242e b001 242e b001 242e  ..#-..$...$...$.
00009cb0: b001 252d b001 252e b001 262e b001 262e  ..%-..%...&...&.
00009cc0: b001 272d b001 272e b001 272e b001 282e  ..'-..'...'...(.
00009cd0: b001 282d b001 292e b001 292e b001 2a2e  ..(-..)...)...*.
00009ce0: b001 2a2d b001 2a2e b001 2b2e b001 2b2e  ..*-..*...+...+.
00009cf0: b001 2c2d b001 2c2e b001 2d2e b001 2d2e  ..,-..,...-...-.
00009d00: b001 2d2d b001 2e2e b001 2e2e b001 2f2e  ..--........../.
00009d10: b001 2f2d b001 2f2e b001 302e b001 302e  ../-../...0...0.
00009d20: b001 312d b001 312e b001 322e b001 322e  ..1-..1...2...2.
00009d30: b001 322d b001 332e b001 332e b001 342e  ..2-..3...3...4.
00009d40: b001 3423 b001 352e b001 342e b001 342d  ..4#..5...4...4-
00009d50: b001 332e b001 332e b001 332e b001 322d  ..3...3...3...2-
00009d60: b001 322e b001 322e b001 322e b001 312d  ..2...2...2...1-
00009d70: b001 312e b001 312e b001 312e b001 302d  ..1...1...1...0-
00009d80: b001 302e b001 302e b001 302e b001 2f2d  ..0...0...0.../-
00009d90: b001 2f2e b001 2f2e b001 2f2e b001 2e2d  ../.../.../....-
00009da0: b001 2e2e b001 2e2e b001 2e2e b001 2d2d  ..............--
00009db0: b001 2d2e b001 2d2e b001 2d2e b001 2c2d  ..-...-...-...,-
00009dc0: b001 2c2e b001 2c2e b001 2c2e b001 2b2d  ..,...,...,...+-
00009dd0: b001 2b2e b001 2b2e b001 2b2e b001 2a2d  ..+...+...+...*-
00009de0: b001 2a2e b001 2a2e b001 2a2e b001 292d  ..*...*...*...)-
00009df0: b001 292e b001 292e b001 292e b001 282d  ..)...)...)...(-
00009e00: b001 282e b001 282e b001 282e b001 272d  ..(...(...(...'-
00009e10: b001 272e b001 272e b001 262e b001 262d  ..'...'...&...&-
00009e20: b001 262e b001 262e b001 252e b001 252d  ..&...&...%...%-
00009e30: b001 252e b001 252e b001 242e b001 242d  ..%...%...$...$-
00009e40: b001 242e b001 242e b001 232e b001 232d  ..$...$...#...#-
00009e50: b001 232e b001 232e b001 222e b001 222d  ..#...#..."..."-
00009e60: b001 222e b001 222e b001 212e b001 212d  .."..."...!...!-
00009e70: b001 212e b001 212e b001 202e b001 202d  ..!...!... ... -
00009e80: b001 202e b001 202e b001 1f2e b001 1f2d  .. ... ........-
00009e90: b001 1f2e b001 1f2e b001 1e2e b001 1e2d  ...............-
00009ea0: b001 1e2e b001 1e2e b001 1d2e b001 1d2d  ...............-
00009eb0: b001 1d2e b001 1d2e b001 1c2e b001 1c2d  ...............-
00009ec0: b001 1c2e b001 1c2e b001 1b2e b001 1b2d  ...............-
00009ed0: b001 1b2e b001 1a2e b001 1a2e b001 1a2d  ...............-
00009ee0: b001 1a27 b001 1a85 5090 0040 1980 0040  ...'....P..@...@
00009ef0: 8157 9051 6400 904a 6400 9045 6400 904c  .W.Qd..Jd..Ed..L
00009f00: 6481 7080 5155 0080 4c4b 0080 4558 0080  d.p.QU..LK..EX..
00009f10: 4a55 8360 9051 6600 904c 6600 9045 6600  JU.`.Qf..Lf..Ef.
00009f20: 904a 6681 7080 514f 0080 4a3e 0080 4546  .Jf.p.QO..J>..EF
00009f30: 0080 4c42 8170 904c 6100 9045 6100 904a  ..LB.p.La..Ea..J
00009f40: 6100 9051 6178 804c 6100 8051 5d00 804a  a..Qax.La..Q]..J
00009f50: 6700 8045 6278 904c 5f00 904a 5f00 9051  g..Ebx.L_..J_..Q
00009f60: 5f00 9045 5f78 804c 5e00 8045 5c00 8051  _..E_x.L^..E\..Q
00009f70: 5c00 804a 5f00 904a 6100 9045 6100 904c  \..J_..Ja..Ea..L
00009f80: 6100 9051 6178 804a 6300 8051 5e00 804c  a..Qax.Jc..Q^..L
00009f90: 6700 8045 6200 9051 6300 9045 6300 904c  g..Eb..Qc..Ec..L
00009fa0: 6300 904a 6378 8051 5f00 804a 5100 804c  c..Jcx.Q_..JQ..L
00009fb0: 6000 8045 4100 904a 6600 904c 6600 9051  `..EA..Jf..Lf..Q
00009fc0: 6600 9045 666a 9002 400e 804a 5e00 804c  f..Efj..@..J^..L
00009fd0: 5e00 8045 5e00 8051 5f00 9051 6800 904c  ^..E^..Q_..Qh..L
00009fe0: 6800 9045 6800 9049 680b 8002 4085 4580  h..Eh..Ih...@.E.
00009ff0: 496c 0080 455f 0080 4c5f 0080 5161 00ff  Il..E_..L_..Qa..
0000a000: 2f00 4d54 726b 0000 0025 00ff 0118 5346  /.MTrk...%....SF
0000a010: 2053 7065 6369 616c 2041 7274 6963 756c   Special Articul
0000a020: 6174 696f 6e73 00ff 2001 0100 ff2f 004d  ations.. ..../.M
0000a030: 5472 6b00 0000 2800 ff01 1843 5320 536f  Trk...(....CS So
0000a040: 6c69 2048 6f72 6e20 4c65 6761 746f 2053  li Horn Legato S
0000a050: 6f66 7400 b00b 7f00 b007 7f00 ff2f 004d  oft........../.M
0000a060: 5472 6b00 0000 2a00 ff01 1a43 5320 536f  Trk...*....CS So
0000a070: 6c69 2048 6f72 6e20 4c65 6761 746f 2053  li Horn Legato S
0000a080: 7472 6f6e 6700 b00b 7f00 b007 7f00 ff2f  trong........../
0000a090: 004d 5472 6b00 0000 2800 ff01 1853 4620  .MTrk...(....SF 
0000a0a0: 536f 6c6f 2048 6f72 6e20 4c65 6761 746f  Solo Horn Legato
0000a0b0: 2053 6f66 7400 b00b 7f00 b007 7f00 ff2f   Soft........../
0000a0c0: 004d 5472 6b00 0023 f600 ff01 1743 5320  .MTrk..#.....CS 
0000a0d0: 486f 726e 7320 416c 6c20 282b 5265 7065  Horns All (+Repe
0000a0e0: 6174 7329 00b0 0b7f 00b0 077f aa0a b001  ats)............
0000a0f0: 0686 56b0 0100 00b0 0b31 9070 b001 192e  ..V......1.p....
0000a100: b001 192e b001 192d b001 1a2e b001 1a2e  .......-........
0000a110: b001 1b2e b001 1b2d b001 1c2e b001 1c2e  .......-........
0000a120: b001 1c2e b001 1d2d b001 1d2e b001 1e2e  .......-........
0000a130: b001 1e2e b001 1f2d b001 1f2e b001 1f2e  .......-........
0000a140: b001 202e b001 202d b001 212e b001 212e  .. ... -..!...!.
0000a150: b001 222e b001 222d b001 222e b001 232e  .."..."-.."...#.
0000a160: b001 232e b001 242d b001 242e b001 252e  ..#...$-..$...%.
0000a170: b001 252e b001 252d b001 262e b001 262e  ..%...%-..&...&.
0000a180: b001 272e b001 272d b001 282e b001 282e  ..'...'-..(...(.
0000a190: b001 282e b001 292d b001 292e b001 2a2e  ..(...)-..)...*.
0000a1a0: b001 2a2e b001 2b2d b001 2b2e b001 2b2e  ..*...+-..+...+.
0000a1b0: b001 2c2e b001 2c2d b001 2d2e b001 2d2e  ..,...,-..-...-.
0000a1c0: b001 2e2e b001 2e0e b00b 311f b001 2e0f  ..........1.....
0000a1d0: b00b 321f b001 2f0f b00b 331f b001 2f0e  ..2.../...3.../.
0000a1e0: b00b 340c 9018 5914 b001 300e b00b 361f  ..4...Y...0...6.
0000a1f0: b001 300f b00b 370e b00b 3811 b001 311c  ..0...7...8...1.
0000a200: b00b 3712 b001 311c b00b 3704 903c 010e  ..7...1...7..<..
0000a210: b001 310c b001 3210 b00b 3719 8018 7005  ..1...2...7...p.
0000a220: b001 3210 b00b 371e b001 320f b00b 371e  ..2...7...2...7.
0000a230: b001 3210 b00b 371e b001 3210 b00b 371e  ..2...7...2...7.
0000a240: b001 3210 b00b 371e b001 320f b00b 371e  ..2...7...2...7.
0000a250: b001 3210 b00b 371e b001 3310 b00b 371e  ..2...7...3...7.
0000a260: b001 3310 b00b 371e b001 330f b00b 371e  ..3...7...3...7.
0000a270: b001 3310 b00b 371e b001 3310 b00b 371e  ..3...7...3...7.
0000a280: b001 3310 b00b 371e b001 330f b00b 381e  ..3...7...3...8.
0000a290: b001 3410 b00b 381e b001 3410 b00b 381e  ..4...8...4...8.
0000a2a0: b001 3410 b00b 381e b001 340f b00b 381e  ..4...8...4...8.
0000a2b0: b001 3410 b00b 381e b001 3410 b00b 381e  ..4...8...4...8.
0000a2c0: b001 340a b001 3506 b00b 3828 b001 3405  ..4...5...8(..4.
0000a2d0: b00b 3828 b001 3406 b00b 3828 b001 3406  ..8(..4...8(..4.
0000a2e0: b00b 3828 b001 3406 b00b 3828 b001 3405  ..8(..4...8(..4.
0000a2f0: b00b 3828 b001 3306 b00b 3828 b001 3306  ..8(..3...8(..3.
0000a300: b00b 380d b00b 391b b001 3313 b00b 381b  ..8...9...3...8.
0000a310: b001 3313 b00b 380c 9043 420e b001 3314  ..3...8..CB...3.
0000a320: b00b 381a b001 3213 b00b 381b b001 3213  ..8...2...8...2.
0000a330: b00b 381b b001 3213 b00b 381a b001 3214  ..8...2...8...2.
0000a340: b00b 381a b001 3213 b00b 3817 b001 3217  ..8...2...8...2.
0000a350: b00b 382e b00b 382e b00b 382d b00b 3823  ..8...8...8-..8#
0000a360: 8043 5c00 9044 410b b00b 382e b00b 382e  .C\..DA...8...8.
0000a370: b00b 382d b00b 372e b00b 371c b001 3212  ..8-..7...7...2.
0000a380: b00b 362e b00b 3627 b001 3106 b00b 362e  ..6...6'..1...6.
0000a390: b00b 352e b00b 3421 b001 300d b00b 3321  ..5...4!..0...3!
0000a3a0: b001 2d0c b00b 3222 b001 2a0c b00b 3122  ..-...2"..*...1"
0000a3b0: b001 280c b00b 3021 b001 250d b00b 2f21  ..(...0!..%.../!
0000a3c0: b001 230c b00b 2e22 b001 200c b00b 2e22  ..#....".. ...."
0000a3d0: b001 1e0c b00b 2d09 b001 1d25 b00b 2c08  ......-....%..,.
0000a3e0: b001 1d25 b00b 2b09 b001 1e25 b00b 2a09  ...%..+....%..*.
0000a3f0: b001 1f19 803c 6100 8044 6b00 903f 1200  .....<a..Dk..?..
0000a400: 9042 1100 903a 010c b00b 2909 b001 1f25  .B...:....)....%
0000a410: b00b 2808 b001 2023 b00b 280b b001 2123  ..(... #..(...!#
0000a420: b00b 2902 b00b 2809 b001 2125 b00b 2809  ..)...(...!%..(.
0000a430: b001 2225 b00b 2808 b001 2325 b00b 2809  .."%..(...#%..(.
0000a440: b001 2325 b00b 2809 b001 2425 b00b 2809  ..#%..(...$%..(.
0000a450: b001 2525 b00b 2808 b001 2625 b00b 2809  ..%%..(...&%..(.
0000a460: b001 2625 b00b 2809 b001 2725 b00b 2809  ..&%..(...'%..(.
0000a470: b001 2825 b00b 2908 b001 2825 b00b 2909  ..(%..)...(%..).
0000a480: b001 2925 b00b 2909 b001 2a25 b00b 2909  ..)%..)...*%..).
0000a490: b001 2a25 b00b 2908 b001 2b16 b001 2c0f  ..*%..)...+...,.
0000a4a0: b00b 292e b00b 292e b00b 292e b00b 282d  ..)...)...)...(-
0000a4b0: b00b 282e b00b 282e b00b 282e b00b 282d  ..(...(...(...(-
0000a4c0: b00b 282e b00b 282e b00b 282e b00b 282d  ..(...(...(...(-
0000a4d0: b00b 282e b00b 280a b00b 2815 b001 2b19  ..(...(...(...+.
0000a4e0: b00b 282e b00b 282d b00b 2818 b001 2a16  ..(...(-..(...*.
0000a4f0: b00b 282e b00b 2807 b001 2927 b00b 282d  ..(...(...)'..(-
0000a500: b00b 2813 b001 281b b00b 280a b001 2724  ..(...(...(...'$
0000a510: b00b 282e b00b 2803 b001 262a b00b 282e  ..(...(...&*..(.
0000a520: b00b 282b b001 2503 b00b 2806 b001 2413  ..(+..%...(...$.
0000a530: b001 2315 b00b 2807 b001 2226 b00b 2812  ..#...(..."&..(.
0000a540: b001 211c b001 2000 b00b 282e b00b 282e  ..!... ...(...(.
0000a550: b00b 282d b00b 2816 b001 2100 b001 3618  ..(-..(...!...6.
0000a560: b00b 2816 b001 3617 803f 3e00 803a 0100  ..(...6..?>..:..
0000a570: 8042 4f00 903a 2e00 9043 3300 903e 3e01  .BO..:...C3..>>.
0000a580: b00b 2816 b001 3618 b00b 2815 b001 3618  ..(...6...(...6.
0000a590: b00b 2816 b001 3718 b00b 2816 b001 3718  ..(...7...(...7.
0000a5a0: b00b 2816 b001 3718 b00b 2915 b001 3718  ..(...7...)...7.
0000a5b0: b00b 2916 b001 3818 b00b 2916 b001 3818  ..)...8...)...8.
0000a5c0: b00b 2916 b001 3818 b00b 2915 b001 3818  ..)...8...)...8.
0000a5d0: b00b 2916 b001 3918 b00b 2916 b001 3918  ..)...9...)...9.
0000a5e0: b00b 2916 b001 3918 b00b 2915 b001 3918  ..)...9...)...9.
0000a5f0: b00b 2916 b001 3a18 b00b 2916 b001 3a18  ..)...:...)...:.
0000a600: b00b 2916 b001 3a18 b00b 2915 b001 3a18  ..)...:...)...:.
0000a610: b00b 2916 b001 3b18 b00b 2916 b001 3b18  ..)...;...)...;.
0000a620: b00b 2916 b001 3b16 803a 5500 9046 4302  ..)...;..:U..FC.
0000a630: b00b 2915 b001 3b18 b00b 2916 b001 3c18  ..)...;...)...<.
0000a640: b00b 2916 b001 3c18 b00b 2916 b001 3c18  ..)...<...)...<.
0000a650: b00b 2915 b001 3d18 b00b 2916 b001 3d18  ..)...=...)...=.
0000a660: b00b 2916 b001 3d18 b00b 2916 b001 3d18  ..)...=...)...=.
0000a670: b00b 2915 b001 3e18 b00b 2a16 b001 3e18  ..)...>...*...>.
0000a680: b00b 2a16 b001 3e18 b00b 2a16 b001 3e18  ..*...>...*...>.
0000a690: b00b 2a15 b001 3f18 b00b 2a16 b001 3f18  ..*...?...*...?.
0000a6a0: b00b 2a16 b001 3f18 b00b 2a16 b001 3f18  ..*...?...*...?.
0000a6b0: b00b 2a15 b001 4018 b00b 2a16 b001 4018  ..*...@...*...@.
0000a6c0: b00b 2a16 b001 4018 b00b 2a16 b001 4018  ..*...@...*...@.
0000a6d0: b00b 2a15 b001 4116 803e 0700 904a 4b02  ..*...A..>...JK.
0000a6e0: b00b 2a16 b001 4118 b00b 2a16 b001 4118  ..*...A...*...A.
0000a6f0: b00b 2a16 b001 4118 b00b 2a15 b001 4218  ..*...A...*...B.
0000a700: b00b 2a16 b001 4218 b00b 2a16 b001 4218  ..*...B...*...B.
0000a710: b00b 2a16 b001 4218 b00b 2a15 b001 4318  ..*...B...*...C.
0000a720: b00b 2a16 b001 4318 b00b 2a16 b001 4318  ..*...C...*...C.
0000a730: b00b 2a14 b001 441a b00b 2a2d b00b 2a2d  ..*...D...*-..*-
0000a740: b00b 2b2d b00b 2c2e b00b 2c2e b00b 2c2e  ..+-..,...,...,.
0000a750: b00b 2c2d b00b 2c2e b00b 2c2e b00b 2c2e  ..,-..,...,...,.
0000a760: b00b 2c2d b00b 2c2e b00b 2c2e b00b 2c2e  ..,-..,...,...,.
0000a770: b00b 2c2d b00b 2c0a 8046 5f00 804a 6500  ..,-..,..F_..Je.
0000a780: 8043 4624 b00b 2c2e b00b 2c2e b00b 2c2d  .CF$..,...,...,-
0000a790: b00b 2c2e b00b 2d2e b00b 2d2e b00b 2d2d  ..,...-...-...--
0000a7a0: b00b 2d2e b00b 2d2e b00b 2d2e b00b 2d2d  ..-...-...-...--
0000a7b0: b00b 2d2e b00b 2d2e b00b 2d2e b00b 2d2d  ..-...-...-...--
0000a7c0: b00b 2d2e b00b 2d2e b00b 2d2e b00b 2d2d  ..-...-...-...--
0000a7d0: b00b 2d2e b00b 2d2e b00b 2e2e b00b 2e2d  ..-...-........-
0000a7e0: b00b 2e2e b00b 2e2e b00b 2e2e b00b 2e2d  ...............-
0000a7f0: b00b 2e2e b00b 2e2e b00b 2e2e b00b 2e2d  ...............-
0000a800: b00b 2e2e b00b 2e2e b00b 2e2e b00b 2e2d  ...............-
0000a810: b00b 2e2e b00b 2e2e b00b 2e2e b00b 2e2d  ...............-
0000a820: b00b 2f2e b00b 2f2e b00b 2f2e b00b 2f2d  ../.../.../.../-
0000a830: b00b 2f2e b00b 2f2e b00b 2f2e b00b 2f2d  ../.../.../.../-
0000a840: b00b 2f2e b00b 2f2e b00b 2f2e b00b 2f2d  ../.../.../.../-
0000a850: b00b 2f2e b00b 2f2e b00b 2f2e b00b 2f2d  ../.../.../.../-
0000a860: b00b 2f2e b00b 302e b00b 302e b00b 302d  ../...0...0...0-
0000a870: b00b 302e b00b 302e b00b 302e b00b 302d  ..0...0...0...0-
0000a880: b00b 302e b00b 302e b00b 302e b00b 302d  ..0...0...0...0-
0000a890: b00b 302e b00b 302e b00b 302e b00b 302d  ..0...0...0...0-
0000a8a0: b00b 302e b00b 301e b00b 3118 b00b 6e83  ..0...0...1...n.
0000a8b0: 5eb0 0b73 0ab0 0b7c 09b0 0b7f 84da 78b0  ^..s...|......x.
0000a8c0: 0132 2db0 012a 1db0 0126 00b0 0124 2eb0  .2-..*...&...$..
0000a8d0: 0123 08b0 0b4e 12b0 0b4e 12b0 0b4c 02b0  .#...N...N...L..
0000a8e0: 0122 10b0 0b4b 12b0 0b4b 0bb0 0121 08b0  ."...K...K...!..
0000a8f0: 0b49 12b0 0b47 12b0 0b47 02b0 0120 22b0  .I...G...G... ".
0000a900: 0b45 0cb0 011f 06b0 0b43 12b0 0b43 13b0  .E.......C...C..
0000a910: 0b41 03b0 011e 0fb0 0b3e 12b0 0b3e 0cb0  .A.......>...>..
0000a920: 011d 2ab0 0b3c 0290 180a 02b0 011d 20b0  ..*..<........ .
0000a930: 0b3a 0eb0 011c 0ab0 011c 2eb0 011c 27b0  .:............'.
0000a940: 0b3a 07b0 011c 0bb0 0b38 23b0 011c 02b0  .:.......8#.....
0000a950: 0b38 12b0 0b36 0380 185c 16b0 011d 2eb0  .8...6...\......
0000a960: 011d 13b0 0b36 1bb0 011d 0ab0 0b34 0290  .....6.......4..
0000a970: 383b 22b0 011d 0ab0 0b34 23b0 011c 0ab0  8;"......4#.....
0000a980: 0b34 24b0 011c 0ab0 0b34 24b0 011c 0ab0  .4$......4$.....
0000a990: 0b36 24b0 011c 0ab0 0b36 23b0 011c 0ab0  .6$......6#.....
0000a9a0: 0b36 24b0 011c 0ab0 0b36 24b0 011c 0ab0  .6$......6$.....
0000a9b0: 0b36 24b0 011c 0ab0 0b36 23b0 011c 0ab0  .6$......6#.....
0000a9c0: 0b36 24b0 011c 0ab0 0b38 24b0 011c 0ab0  .6$......8$.....
0000a9d0: 0b38 24b0 011c 0ab0 0b38 23b0 011c 0ab0  .8$......8#.....
0000a9e0: 0b38 12b0 0b38 12b0 011c 1bb0 0b38 1380  .8...8.......8..
0000a9f0: 3850 00b0 011c 0090 3a3f 1bb0 0b38 13b0  8P......:?...8..
0000aa00: 011c 1bb0 0b38 12b0 011c 1cb0 0b38 12b0  .....8.......8..
0000aa10: 011c 1bb0 0b38 13b0 011c 1bb0 0b3a 13b0  .....8.......:..
0000aa20: 011b 1bb0 0b3a 12b0 011b 1cb0 0b3a 12b0  .....:.......:..
0000aa30: 011b 1bb0 0b3a 13b0 011b 1bb0 0b3a 13b0  .....:.......:..
0000aa40: 011b 1bb0 0b3a 12b0 011b 1cb0 0b3a 12b0  .....:.......:..
0000aa50: 011b 1bb0 0b3a 13b0 011b 1bb0 0b3a 13b0  .....:.......:..
0000aa60: 011b 1bb0 0b3a 12b0 011b 1cb0 0b3a 12b0  .....:.......:..
0000aa70: 011b 1bb0 0b3a 0780 3a5d 0090 3848 0cb0  .....:..:]..8H..
0000aa80: 011b 1bb0 0b3a 13b0 011b 1bb0 0b3a 12b0  .....:.......:..
0000aa90: 011b 1cb0 0b3a 12b0 011b 1bb0 0b3a 13b0  .....:.......:..
0000aaa0: 011b 1bb0 0b3a 13b0 011b 1bb0 0b3a 12b0  .....:.......:..
0000aab0: 011a 1cb0 0b3a 12b0 011a 1bb0 0b3a 13b0  .....:.......:..
0000aac0: 011a 1bb0 0b3a 13b0 011a 1bb0 0b3a 12b0  .....:.......:..
0000aad0: 011a 0b80 3859 0090 334c 0090 3a45 11b0  ....8Y..3L..:E..
0000aae0: 0b3a 12b0 011a 1bb0 0b3a 13b0 011a 1bb0  .:.......:......
0000aaf0: 0b3a 13b0 011a 1bb0 0b38 12b0 011a 1cb0  .:.......8......
0000ab00: 0b38 12b0 011a 1bb0 0b38 13b0 011a 1bb0  .8.......8......
0000ab10: 0b38 13b0 011a 1bb0 0b38 12b0 011a 1cb0  .8.......8......
0000ab20: 0b38 12b0 011a 1bb0 0b38 13b0 011a 1bb0  .8.......8......
0000ab30: 0b38 13b0 011a 1bb0 0b38 12b0 011a 1cb0  .8.......8......
0000ab40: 0b38 12b0 011a 1bb0 0b38 13b0 011a 1bb0  .8.......8......
0000ab50: 0b38 13b0 011a 1bb0 0b38 12b0 011a 1cb0  .8.......8......
0000ab60: 0b38 12b0 011a 1bb0 0b38 13b0 011a 1bb0  .8.......8......
0000ab70: 0b38 13b0 011a 1bb0 0b38 12b0 011a 1cb0  .8.......8......
0000ab80: 0b38 12b0 011a 1bb0 0b38 13b0 011a 1bb0  .8.......8......
0000ab90: 0b38 13b0 011a 1bb0 0b38 12b0 011a 1cb0  .8.......8......
0000aba0: 0b38 12b0 011a 1bb0 0b38 13b0 011a 1bb0  .8.......8......
0000abb0: 0b38 13b0 011a 1bb0 0b38 12b0 011a 1cb0  .8.......8......
0000abc0: 0b38 12b0 011a 1bb0 0b38 13b0 011a 1bb0  .8.......8......
0000abd0: 0b38 13b0 011a 1bb0 0b38 12b0 011a 1cb0  .8.......8......
0000abe0: 0b38 12b0 011a 1bb0 0b38 13b0 011a 1bb0  .8.......8......
0000abf0: 0b38 13b0 011a 19b0 0b38 14b0 011a 19b0  .8.......8......
0000ac00: 0b38 15b0 011a 19b0 0b38 15b0 011a 19b0  .8.......8......
0000ac10: 0b38 15b0 011a 19b0 0b38 14b0 011a 19b0  .8.......8......
0000ac20: 0b38 15b0 011a 19b0 0b38 15b0 011a 0980  .8.......8......
0000ac30: 3366 0080 3a4d 0090 352b 0090 394a 0090  3f..:M..5+..9J..
0000ac40: 3c5b 10b0 0b38 15b0 011a 19b0 0b3a 14b0  <[...8.......:..
0000ac50: 011a 19b0 0b3a 15b0 011a 19b0 0b3a 15b0  .....:.......:..
0000ac60: 011a 19b0 0b3a 15b0 011a 19b0 0b3a 14b0  .....:.......:..
0000ac70: 011a 19b0 0b3a 15b0 011a 19b0 0b3a 15b0  .....:.......:..
0000ac80: 011a 19b0 0b3a 15b0 011a 19b0 0b3c 14b0  .....:.......<..
0000ac90: 011a 19b0 0b3c 15b0 011a 19b0 0b3c 15b0  .....<.......<..
0000aca0: 011a 19b0 0b3c 15b0 011a 19b0 0b3c 14b0  .....<.......<..
0000acb0: 011a 0eb0 011a 0bb0 0b3c 23b0 011f 0bb0  .........<#.....
0000acc0: 0b3c 1290 3e43 0090 3a43 0380 3951 0080  .<..>C..:C..9Q..
0000acd0: 3c59 09b0 0125 10b0 0b3c 1eb0 0126 10b0  <Y...%...<...&..
0000ace0: 0b3c 1eb0 0126 0fb0 0b3e 1eb0 0127 10b0  .<...&...>...'..
0000acf0: 0b3e 1eb0 0128 10b0 0b3e 1eb0 0129 10b0  .>...(...>...)..
0000ad00: 0b3e 1eb0 0129 0fb0 0b3e 1eb0 012a 10b0  .>...)...>...*..
0000ad10: 0b3e 1eb0 012b 10b0 0b3e 1eb0 012c 10b0  .>...+...>...,..
0000ad20: 0b3e 1eb0 012d 0fb0 0b3f 1eb0 012d 10b0  .>...-...?...-..
0000ad30: 0b3f 1eb0 012e 10b0 0b3f 1eb0 012f 10b0  .?.......?.../..
0000ad40: 0b3f 1eb0 0130 0fb0 0b41 1eb0 0130 10b0  .?...0...A...0..
0000ad50: 0b41 0690 3c49 0090 3f5c 0380 3e46 0080  .A..<I..?\..>F..
0000ad60: 3a58 15b0 0131 10b0 0b41 1eb0 0132 10b0  :X...1...A...2..
0000ad70: 0b41 1eb0 0133 0fb0 0b41 1eb0 0134 10b0  .A...3...A...4..
0000ad80: 0b41 1eb0 0134 10b0 0b41 1eb0 0135 10b0  .A...4...A...5..
0000ad90: 0b41 1eb0 0136 0fb0 0b41 1eb0 0137 10b0  .A...6...A...7..
0000ada0: 0b43 1eb0 0137 10b0 0b43 1eb0 0138 10b0  .C...7...C...8..
0000adb0: 0b43 1c90 3e46 0090 4142 02b0 0139 0180  .C..>F..AB...9..
0000adc0: 3c59 0080 3f5e 0eb0 0b43 1eb0 013a 10b0  <Y..?^...C...:..
0000add0: 0b43 1eb0 013b 10b0 0b43 1eb0 013b 10b0  .C...;...C...;..
0000ade0: 0b43 1eb0 013c 0fb0 0b43 1eb0 013d 10b0  .C...<...C...=..
0000adf0: 0b45 1eb0 013e 10b0 0b45 1eb0 013e 10b0  .E...>...E...>..
0000ae00: 0b45 1eb0 013f 0fb0 0b45 1eb0 0140 10b0  .E...?...E...@..
0000ae10: 0b45 1eb0 0141 10b0 0b45 1eb0 0142 10b0  .E...A...E...B..
0000ae20: 0b45 1eb0 0142 0fb0 0b45 1eb0 0143 10b0  .E...B...E...C..
0000ae30: 0b45 1eb0 0144 10b0 0b47 1eb0 0145 10b0  .E...D...G...E..
0000ae40: 0b47 1090 3f40 0090 4356 0380 3e4f 0080  .G..?@..CV..>O..
0000ae50: 4159 0bb0 0145 0fb0 0b47 1eb0 0146 10b0  AY...E...G...F..
0000ae60: 0b47 1eb0 0147 10b0 0b47 1eb0 0148 10b0  .G...G...G...H..
0000ae70: 0b47 1eb0 0149 0fb0 0b47 1eb0 0149 10b0  .G...I...G...I..
0000ae80: 0b47 15b0 0b49 09b0 014a 25b0 0b47 09b0  .G...I...J%..G..
0000ae90: 014b 25b0 0b47 09b0 014c 25b0 0b47 08b0  .K%..G...L%..G..
0000aea0: 014c 25b0 0b47 09b0 014d 25b0 0b49 09b0  .L%..G...M%..I..
0000aeb0: 014e 25b0 0b49 09b0 014f 25b0 0b49 08b0  .N%..I...O%..I..
0000aec0: 0150 25b0 0b49 09b0 0150 25b0 0b49 09b0  .P%..I...P%..I..
0000aed0: 0151 1480 3f64 0080 4358 0090 4547 0090  .Q..?d..CX..EG..
0000aee0: 414b 11b0 0b49 09b0 0152 25b0 0b49 08b0  AK...I...R%..I..
0000aef0: 0153 25b0 0b49 09b0 0153 25b0 0b4b 09b0  .S%..I...S%..K..
0000af00: 0154 25b0 0b4b 09b0 0155 1fb0 0156 06b0  .T%..K...U...V..
0000af10: 0b4b 2db0 0b4b 2eb0 0b4b 2eb0 0b4b 2eb0  .K-..K...K...K..
0000af20: 0b4b 2db0 0b4b 0680 3560 0080 4163 0080  .K-..K..5`..Ac..
0000af30: 4560 28b0 0b4c 2eb0 0b4c 2eb0 0b4c 24b0  E`(..L...L...L$.
0000af40: 0b4e da22 b001 5313 b001 5224 b001 5124  .N."..S...R$..Q$
0000af50: b001 5081 36b0 014f 861c b001 1500 b001  ..P.6..O........
0000af60: 2213 b001 2112 b001 2012 b001 1f12 b001  "...!... .......
0000af70: 1e12 b001 1d12 b001 1c13 b001 1b11 b001  ................
0000af80: 1a13 b001 1905 b00b 271f b001 1849 b001  ........'....I..
0000af90: 1712 b001 1612 b001 1524 b001 1309 9018  .........$......
0000afa0: 5b81 0480 185a 17b0 0112 36b0 0111 12b0  [....Z....6.....
0000afb0: 0110 24b0 010f 12b0 010e 0e90 4040 0090  ..$.........@@..
0000afc0: 3e40 0090 3943 3bb0 010d 48b0 010c 827d  >@..9C;...H....}
0000afd0: b001 0b5a b001 0a12 b001 0913 b001 0812  ...Z............
0000afe0: b001 0612 b001 056d b001 0482 6bb0 0103  .......m....k...
0000aff0: 35b0 0b38 2eb0 0b38 2eb0 0b38 2db0 0b38  5..8...8...8-..8
0000b000: 1bb0 0102 13b0 0b38 2eb0 0b38 2bb0 0101  .......8...8+...
0000b010: 03b0 0b39 21b0 0100 0cb0 0b39 2eb0 0b39  ...9!......9...9
0000b020: 2eb0 0b39 2eb0 0b39 2db0 0b3a 2eb0 0b3a  ...9...9-..:...:
0000b030: 2eb0 0b3a 2eb0 0b3a 2db0 0b3a 2280 3e4a  ...:...:-..:".>J
0000b040: 0080 3933 0090 3947 0090 3d4c 0cb0 0b3b  ..93..9G..=L...;
0000b050: 2eb0 0b3b 26b0 0102 08b0 0b3b 2db0 0b3b  ...;&......;-..;
0000b060: 01b0 0104 2db0 0b3b 2eb0 0b3c 2eb0 0b3c  ....-..;...<...<
0000b070: 2db0 0b3c 2eb0 0b3c 2eb0 0b3c 2eb0 0b3d  -..<...<...<...=
0000b080: 2db0 0b3d 2eb0 0b3d 2ab0 0105 04b0 0b3d  -..=...=*......=
0000b090: 2eb0 0b3d 2db0 0b3e 2eb0 0b3e 2eb0 0b3e  ...=-..>...>...>
0000b0a0: 2eb0 0b3e 27b0 0106 06b0 0b3e 2eb0 0b3f  ...>'......>...?
0000b0b0: 14b0 0107 1ab0 0b3f 2eb0 0b3f 01b0 0108  .......?...?....
0000b0c0: 2cb0 0b3f 2eb0 0b3f 2eb0 0b3f 2eb0 0b40  ,..?...?...?...@
0000b0d0: 24b0 0109 09b0 0b40 1bb0 010a 13b0 0b40  $......@.......@
0000b0e0: 23b0 010b 0bb0 0b40 2eb0 0b40 2db0 0b41  #......@...@-..A
0000b0f0: 2cb0 010c 02b0 0b41 0390 1c4d 2bb0 0b41  ,......A...M+..A
0000b100: 2eb0 0b41 2db0 0b41 11b0 0b42 1280 1c59  ...A-..A...B...Y
0000b110: 25b0 0b43 18b0 010d 24b0 010e 12b0 010f  %..C....$.......
0000b120: 2580 393c 0080 3d55 0080 406d 24b0 0110  %.9<..=U..@m$...
0000b130: 48b0 0111 0c90 406e 0090 3e6e 0090 396d  H.....@n..>n..9m
0000b140: 3db0 0112 24b0 0113 0cb0 0b42 2ab0 0114  =...$......B*...
0000b150: 37b0 0115 0bb0 0b41 2bb0 0116 5ab0 0117  7......A+...Z...
0000b160: 37b0 0118 24b0 0119 2780 4059 0080 3948  7...$...'.@Y..9H
0000b170: 0080 3e57 0fb0 011a 25b0 011b 36b0 011c  ..>W....%...6...
0000b180: 37b0 011d 24b0 011f 2b90 4070 0090 3970  7...$...+.@p..9p
0000b190: 0090 3e70 0bb0 0120 25b0 0121 48b0 0122  ..>p... %..!H.."
0000b1a0: 36b0 0123 24b0 0124 25b0 0125 36b0 0126  6..#$..$%..%6..&
0000b1b0: 3b80 4049 0080 3e50 0080 394e 0db0 0127  ;.@I..>P..9N...'
0000b1c0: 25b0 0128 24b0 012a 2290 3e71 0090 3971  %..($..*".>q..9q
0000b1d0: 0090 4071 26b0 012b 37b0 012d 1b80 3e5b  ..@q&..+7..-..>[
0000b1e0: 0080 4048 0080 394a 0ab0 012e 48b0 0130  ..@H..9J....H..0
0000b1f0: 12b0 0131 1490 3e69 0090 3969 0090 4069  ...1..>i..9i..@i
0000b200: 23b0 0132 1eb0 0b42 18b0 0133 1f80 3e5b  #..2...B...3..>[
0000b210: 0080 4048 0080 394a 0090 396b 0090 406b  ..@H..9J..9k..@k
0000b220: 0090 3e6b 17b0 0134 24b0 0135 24b0 0136  ..>k...4$..5$..6
0000b230: 1980 394a 0080 3e5b 0080 4048 0090 406d  ..9J..>[..@H..@m
0000b240: 0090 3e6d 0090 396d 18b0 0b43 06b0 0137  ..>m..9m...C...7
0000b250: 24b0 0138 24b0 0139 1280 4048 0080 394a  $..8$..9..@H..9J
0000b260: 0080 3e5b 0090 3e6e 0090 396e 0090 406e  ..>[..>n..9n..@n
0000b270: 13b0 013a 36b0 013b 0390 183a 21b0 013c  ...:6..;...:!..<
0000b280: 0b80 3e5b 0080 394a 0080 4048 0090 3d69  ..>[..9J..@H..=i
0000b290: 0090 405e 0090 3956 1e80 183c 0db0 013d  ..@^..9V...<...=
0000b2a0: 37b0 013e 66b0 0b42 8112 b00b 412e b00b  7..>f..B....A...
0000b2b0: 412d b00b 412e b00b 412e b00b 4128 b001  A-..A...A...A(..
0000b2c0: 3f06 b00b 412d b00b 412e b00b 412e b00b  ?...A-..A...A...
0000b2d0: 4108 8039 6200 8040 7000 803d 6926 b00b  A..9b..@p..=i&..
0000b2e0: 412d b00b 412e b00b 412e b00b 412e b00b  A-..A...A...A...
0000b2f0: 412d b00b 412e b00b 412e b00b 412e b00b  A-..A...A...A...
0000b300: 412d b00b 412e b00b 412e b00b 412e b00b  A-..A...A...A...
0000b310: 412d b00b 412e b00b 412e b00b 412e b00b  A-..A...A...A...
0000b320: 412d b00b 412e b00b 422e b00b 422e b00b  A-..A...B...B...
0000b330: 422d b00b 422e b00b 422e b00b 422e b00b  B-..B...B...B...
0000b340: 422d b00b 422e b00b 422e b00b 422e b00b  B-..B...B...B...
0000b350: 422d b00b 422e b00b 422e b00b 422e b00b  B-..B...B...B...
0000b360: 422d b00b 422e b00b 422e b00b 422e b00b  B-..B...B...B...
0000b370: 422d b00b 422e b00b 422e b00b 422e b00b  B-..B...B...B...
0000b380: 422d b00b 422e b00b 422e b00b 422e b00b  B-..B...B...B...
0000b390: 432d b00b 432e b00b 432e b00b 432e b00b  C-..C...C...C...
0000b3a0: 432d b00b 432e b00b 432e b00b 432e b00b  C-..C...C...C...
0000b3b0: 432d b00b 432e b00b 432e b00b 432e b00b  C-..C...C...C...
0000b3c0: 432d b00b 432e b00b 432e b00b 432e b00b  C-..C...C...C...
0000b3d0: 432d b00b 432e b00b 432e b00b 432e b00b  C-..C...C...C...
0000b3e0: 432d b00b 432e b00b 432e b00b 432e b00b  C-..C...C...C...
0000b3f0: 432d b00b 432e b00b 442e b00b 442e b00b  C-..C...D...D...
0000b400: 442d b00b 442e b00b 442e b00b 442e b00b  D-..D...D...D...
0000b410: 442d b00b 442e b00b 442e b00b 442e b00b  D-..D...D...D...
0000b420: 442d b00b 442e b00b 442e b00b 442e b00b  D-..D...D...D...
0000b430: 442d b00b 442e b00b 442e b00b 442e b00b  D-..D...D...D...
0000b440: 442d b00b 442e b00b 442e b00b 442e b00b  D-..D...D...D...
0000b450: 442d b00b 442e b00b 442e b00b 442e b00b  D-..D...D...D...
0000b460: 452d b00b 452e b00b 452e b00b 452e b00b  E-..E...E...E...
0000b470: 452d b00b 452e b00b 452e b00b 452e b00b  E-..E...E...E...
0000b480: 452d b00b 452e b00b 452e b00b 452e b00b  E-..E...E...E...
0000b490: 452d b00b 452e b00b 452e b00b 452e b00b  E-..E...E...E...
0000b4a0: 452d b00b 452e b00b 452e b00b 452e b00b  E-..E...E...E...
0000b4b0: 452d b00b 452e b00b 452e b00b 452e b00b  E-..E...E...E...
0000b4c0: 452d b00b 452e b00b 462e b00b 462e b00b  E-..E...F...F...
0000b4d0: 462d b00b 462e b00b 462e b00b 462e b00b  F-..F...F...F...
0000b4e0: 462d b00b 462e b00b 462e b00b 462e b00b  F-..F...F...F...
0000b4f0: 462d b00b 462e b00b 462e b00b 462e b00b  F-..F...F...F...
0000b500: 462d b00b 462e b00b 462e b00b 462e b00b  F-..F...F...F...
0000b510: 462d b00b 462e b00b 462e b00b 462e b00b  F-..F...F...F...
0000b520: 462d b00b 462e b00b 462e b00b 462e b00b  F-..F...F...F...
0000b530: 472d b00b 472e b00b 472e b00b 472e b00b  G-..G...G...G...
0000b540: 472d b00b 472e b00b 472e b00b 472e b00b  G-..G...G...G...
0000b550: 472d b00b 472e b00b 472e b00b 472e b00b  G-..G...G...G...
0000b560: 472d b00b 472e b00b 472e b00b 472e b00b  G-..G...G...G...
0000b570: 472d b00b 472e b00b 472e b00b 472e b00b  G-..G...G...G...
0000b580: 472d b00b 472e b00b 472e b00b 472e b00b  G-..G...G...G...
0000b590: 472d b00b 472e b00b 482e b00b 482e b00b  G-..G...H...H...
0000b5a0: 482d b00b 482e b00b 482e b00b 482e b00b  H-..H...H...H...
0000b5b0: 482d b00b 482e b00b 482e b00b 482e b00b  H-..H...H...H...
0000b5c0: 482d b00b 482e b00b 482e b00b 482e b00b  H-..H...H...H...
0000b5d0: 482d b00b 482e b00b 482e b00b 482e b00b  H-..H...H...H...
0000b5e0: 482d b00b 482e b00b 482e b00b 482e b00b  H-..H...H...H...
0000b5f0: 482d b00b 482e b00b 482e b00b 482e b00b  H-..H...H...H...
0000b600: 482d b00b 492e b00b 492e b00b 492e b00b  H-..I...I...I...
0000b610: 490b b001 4522 b00b 492e b00b 492e b00b  I...E"..I...I...
0000b620: 492e b00b 492d b00b 492e b00b 492e b00b  I...I-..I...I...
0000b630: 492e b00b 492d b00b 492e b00b 492e b00b  I...I-..I...I...
0000b640: 492e b00b 492d b00b 492e b00b 492e b00b  I...I-..I...I...
0000b650: 492e b00b 492d b00b 492e b00b 492e b00b  I...I-..I...I...
0000b660: 492e b00b 492d b00b 492e b00b 492e b00b  I...I-..I...I...
0000b670: 4a2e b00b 4a2d b00b 4a2e b00b 4a2e b00b  J...J-..J...J...
0000b680: 4a2e b00b 4a2d b00b 4a2e b00b 4a2e b00b  J...J-..J...J...
0000b690: 4a2e b00b 4a2d b00b 4a2e b00b 4a2e b00b  J...J-..J...J...
0000b6a0: 4a2e b00b 4a2d b00b 4a2e b00b 4a2e b00b  J...J-..J...J...
0000b6b0: 4a2e b00b 4a2d b00b 4a2e b00b 4a2e b00b  J...J-..J...J...
0000b6c0: 4a2e b00b 4a2d b00b 4a2e b00b 4a2e b00b  J...J-..J...J...
0000b6d0: 4a2e b00b 4a2d b00b 4b2e b00b 4b2e b00b  J...J-..K...K...
0000b6e0: 4b2e b00b 4b2d b00b 4b2e b00b 4b2e b00b  K...K-..K...K...
0000b6f0: 4b2e b00b 4b2d b00b 4b2e b00b 4b2e b00b  K...K-..K...K...
0000b700: 4b2e b00b 4b2d b00b 4b2e b00b 4b2e b00b  K...K-..K...K...
0000b710: 4b2e b00b 4b2d b00b 4b2e b00b 4b2e b00b  K...K-..K...K...
0000b720: 4b2e b00b 4b2d b00b 4b2e b00b 4b2e b00b  K...K-..K...K...
0000b730: 4b2e b00b 4b2d b00b 4b2e b00b 4b2e b00b  K...K-..K...K...
0000b740: 4c2e b00b 4c2d b00b 4c2e b00b 4c2e b00b  L...L-..L...L...
0000b750: 4c2e b00b 4c2d b00b 4c2e b00b 4c2e b00b  L...L-..L...L...
0000b760: 4c2e b00b 4c2d b00b 4c2e b00b 4c2e b00b  L...L-..L...L...
0000b770: 4c2e b00b 4c2d b00b 4c2e b00b 4c2e b00b  L...L-..L...L...
0000b780: 4c2e b00b 4c2d b00b 4c2e b00b 4c2e b00b  L...L-..L...L...
0000b790: 4c2e b00b 4c2d b00b 4c2e b00b 4c2e b00b  L...L-..L...L...
0000b7a0: 4c2e b00b 4c1a b00b 4d87 67b0 0139 26b0  L...L...M.g..9&.
0000b7b0: 0138 24b0 0137 13b0 0136 25b0 0135 8104  .8$..7...6%..5..
0000b7c0: b001 3412 b001 3313 b001 325d b001 3181  ..4...3...2]..1.
0000b7d0: 72b0 0130 12b0 012f 813a b001 302e b001  r..0.../.:..0...
0000b7e0: 2f2e b001 2e2e b001 2d2d b001 2c2e b001  /.......--..,...
0000b7f0: 2b2e b001 2b2e b001 2a2d b001 292e b001  +...+...*-..)...
0000b800: 282e b001 272e b001 262d b001 262e b001  (...'...&-..&...
0000b810: 252e b001 241b b001 242d b001 2426 903d  %...$...$-..$&.=
0000b820: 1a00 9038 2800 9035 2308 b001 242e b001  ...8(..5#...$...
0000b830: 242e b001 242d b001 242e b001 242e b001  $...$-..$...$...
0000b840: 242e b001 242d b001 252e b001 252e b001  $...$-..%...%...
0000b850: 252e b001 252d b001 252e b001 252e b001  %...%-..%...%...
0000b860: 252e b001 252d b001 252e b001 252e b001  %...%-..%...%...
0000b870: 252e b001 252d b001 252e b001 252e b001  %...%-..%...%...
0000b880: 252e b001 252d b001 252e b001 252e b001  %...%-..%...%...
0000b890: 252e b001 262d b001 262e b001 262e b001  %...&-..&...&...
0000b8a0: 262e b001 262d b001 262e b001 262e b001  &...&-..&...&...
0000b8b0: 262e b001 262d b001 262e b001 262e b001  &...&-..&...&...
0000b8c0: 272e b001 272d b001 272e b001 272e b001  '...'-..'...'...
0000b8d0: 2724 803d 5000 8035 4c00 8038 5a00 9039  '$.=P..5L..8Z..9
0000b8e0: 4000 9036 3600 903e 430a b001 272d b001  @..66..>C...'-..
0000b8f0: 272e b001 272e b001 272e b001 272d b001  '...'...'...'-..
0000b900: 272e b001 282e b001 282e b001 282d b001  '...(...(...(-..
0000b910: 282e b001 282e b001 282e b001 282d b001  (...(...(...(-..
0000b920: 282e b001 282e b001 282e b001 282d b001  (...(...(...(-..
0000b930: 292e b001 292e b001 292e b001 292d b001  )...)...)...)-..
0000b940: 292e b001 2a2e b001 2a2e b001 2a2d b001  )...*...*...*-..
0000b950: 2a2e b001 2a2e b001 2b2e b001 2b2d b001  *...*...+...+-..
0000b960: 2b2e b001 2b2e b001 2b2e b001 2b2d b001  +...+...+...+-..
0000b970: 2b2e b001 2b2e b001 2b2e b001 2b2d b001  +...+...+...+-..
0000b980: 2b2e b001 2b2e b001 2b2e b001 2b2d b001  +...+...+...+-..
0000b990: 2b23 8039 4300 8036 5a00 903b 2200 9037  +#.9C..6Z..;"..7
0000b9a0: 390b b001 2b2e b001 2c2e b001 2c2d b001  9...+...,...,-..
0000b9b0: 2c2e b001 2c2e b001 2c2e b001 2c2d b001  ,...,...,...,-..
0000b9c0: 2c2e b001 2c2e b001 2c2e b001 2c2d b001  ,...,...,...,-..
0000b9d0: 2c2e b001 2c2e b001 2c2e b001 2d2d b001  ,...,...,...--..
0000b9e0: 2d2e b001 2d2e b001 2d2e b001 2d2d b001  -...-...-...--..
0000b9f0: 2d2e b001 2d2e b001 2d2e b001 2d2d b001  -...-...-...--..
0000ba00: 2d2e b001 2d2e b001 2d2e b001 2d2d b001  -...-...-...--..
0000ba10: 2e2e b001 2e2e b001 2e2e b001 2e2d b001  .............-..
0000ba20: 2e2e b001 2e2e b001 2e2e b001 2e2d b001  .............-..
0000ba30: 2e2e b001 2e2e b001 2e2e b001 2e2d b001  .............-..
0000ba40: 2f2e b001 2f2e b001 2f21 803b 3500 9039  /.../.../!.;5..9
0000ba50: 410d b001 2f2d b001 2f2e b001 2f2e b001  A.../-../.../...
0000ba60: 2f2e b001 2f2d b001 2f2e b001 2f2e b001  /.../-../.../...
0000ba70: 2f2e b001 2f2d b001 2f2e b001 302e b001  /.../-../...0...
0000ba80: 302e b001 302d b001 302e b001 302e b001  0...0-..0...0...
0000ba90: 302e b001 302d b001 302e b001 302e b001  0...0-..0...0...
0000baa0: 302e b001 302d b001 302e b001 302e b001  0...0-..0...0...
0000bab0: 312e b001 312d b001 312e b001 312e b001  1...1-..1...1...
0000bac0: 312e b001 312d b001 312e b001 312e b001  1...1-..1...1...
0000bad0: 312e b001 312d b001 312e b001 312e b001  1...1-..1...1...
0000bae0: 312e b001 322d b001 322e b001 322e b001  1...2-..2...2...
0000baf0: 322e b001 322d b001 3220 8039 4f00 903b  2...2-..2 .9O..;
0000bb00: 460e b001 322e b001 322e b001 322d b001  F...2...2...2-..
0000bb10: 322e b001 322e b001 3223 b001 332e b001  2...2...2#..3...
0000bb20: 332e b001 332d b001 332e b001 332e b001  3...3-..3...3...
0000bb30: 332e b001 332d b001 332e b001 342e b001  3...3-..3...4...
0000bb40: 342e b001 342d b001 342e b001 342e b001  4...4-..4...4...
0000bb50: 342e b001 342d b001 352e b001 352e b001  4...4-..5...5...
0000bb60: 352e b001 352d b001 352e b001 352e b001  5...5-..5...5...
0000bb70: 352e b001 362d b001 362e b001 362e b001  5...6-..6...6...
0000bb80: 362e b001 362d b001 362e b001 362e b001  6...6-..6...6...
0000bb90: 362e b001 361d 8037 0500 803b 5900 803e  6...6..7...;Y..>
0000bba0: 5e10 b001 362e b001 362e b001 362e b001  ^...6...6...6...
0000bbb0: 362d b001 3629 903c 3e00 903e 3600 9037  6-..6).<>..>6..7
0000bbc0: 2605 b001 362e b001 362e b001 362d b001  &...6...6...6-..
0000bbd0: 362e b001 372e b001 372e b001 372d b001  6...7...7...7-..
0000bbe0: 372e b001 372e b001 372e b001 372d b001  7...7...7...7-..
0000bbf0: 372e b001 372e b001 372e b001 372d b001  7...7...7...7-..
0000bc00: 382e b001 382e b001 382e b001 382d b001  8...8...8...8-..
0000bc10: 382e b001 382e b001 382e b001 382d b001  8...8...8...8-..
0000bc20: 382e b001 382e b001 382e b001 392d b001  8...8...8...9-..
0000bc30: 392e b001 392e b001 392e b001 392d b001  9...9...9...9-..
0000bc40: 392e b001 392e b001 392e b001 392d b001  9...9...9...9-..
0000bc50: 392e b001 392e b001 3a2e b001 3a2d b001  9...9...:...:-..
0000bc60: 3a2e b001 3a2e b001 3a27 803c 6000 8037  :...:...:'.<`..7
0000bc70: 6100 803e 5b00 903b 3f00 903e 4900 9037  a..>[..;?..>I..7
0000bc80: 4407 b001 3a2d b001 3a2e b001 3a2e b001  D...:-..:...:...
0000bc90: 3a2e b001 3a2d b001 3a2e b001 3b2e b001  :...:-..:...;...
0000bca0: 3b2e b001 3b2d b001 3b2e b001 3b2e b001  ;...;-..;...;...
0000bcb0: 3b2e b001 3b2d b001 3b2e b001 3b2e b001  ;...;-..;...;...
0000bcc0: 3b1b 803e 5600 9043 5913 b001 3b2d b001  ;..>V..CY...;-..
0000bcd0: 3c2e b001 3c2e b001 3c2e b001 3c2d b001  <...<...<...<-..
0000bce0: 3c2e b001 3c2e b001 3c2e b001 3c2d b001  <...<...<...<-..
0000bcf0: 3c2e b001 3c2e b001 3d2e b001 3d2d b001  <...<...=...=-..
0000bd00: 3d2e b001 3d2e b001 3d0f 8043 5a00 9032  =...=...=..CZ..2
0000bd10: 4600 9045 531f b001 3d2d b001 3d2e b001  F..ES...=-..=...
0000bd20: 3d2e b001 3d2e b001 3d2d b001 3d24 b001  =...=...=-..=$..
0000bd30: 3e2e b001 3f2e b001 402e b001 412d b001  >...?...@...A-..
0000bd40: 4202 803b 5600 8045 5900 8032 5100 903c  B..;V..EY..2Q..<
0000bd50: 4000 9048 4800 9034 3f2c b001 442e b001  @..HH..4?,..D...
0000bd60: 452e b001 462d b001 472e b001 492e b001  E...F-..G...I...
0000bd70: 4a2e b001 4b2d b001 4c2e b001 4e2e b001  J...K-..L...N...
0000bd80: 4f2e b001 502d b001 512e b001 532e b001  O...P-..Q...S...
0000bd90: 542e b001 5523 8048 5600 9047 4d0a b001  T...U#.HV..GM...
0000bda0: 562e b001 572e b001 592e b001 5a2d b001  V...W...Y...Z-..
0000bdb0: 5b0c b001 5c2e b001 5c2e b001 5c2d b001  [...\...\...\-..
0000bdc0: 5c2e b001 5c2e b001 5c2e b001 5c2d b001  \...\...\...\-..
0000bdd0: 5c2e b001 5c2e b001 5c2e b001 5c2d b001  \...\...\...\-..
0000bde0: 5c0c 8047 4300 9043 5e22 b001 5c2e b001  \..GC..C^"..\...
0000bdf0: 5c2e b001 5c2d b001 5c2e b001 5c2e b001  \...\-..\...\...
0000be00: 5c2e b001 5c2d b001 5c2e b001 5c2e b001  \...\-..\...\...
0000be10: 5c22 8034 4f00 8043 5200 9035 4500 9043  \".4O..CR..5E..C
0000be20: 590c b001 5c2d b001 5c2e b001 5c2e b001  Y...\-..\...\...
0000be30: 5c2e b001 5c2d b001 5c2e b001 5c2e b001  \...\-..\...\...
0000be40: 5c2e b001 5c2d b001 5d2e b001 5d2e b001  \...\-..]...]...
0000be50: 5d2e b001 5d2d b001 5d2e b001 5d2e b001  ]...]-..]...]...
0000be60: 5d16 8043 5b00 9045 5318 b001 5d2d b001  ]..C[..ES...]-..
0000be70: 5d2e b001 5d2e b001 5d2e b001 5d2d b001  ]...]...]...]-..
0000be80: 5d2e b001 5d2e b001 5d2e b001 5d2d b001  ]...]...]...]-..
0000be90: 5d2e b001 5d2e b001 5d2e b001 5d2d b001  ]...]...]...]-..
0000bea0: 5d2e b001 5d2e b001 5d0a 8045 6000 9047  ]...]...]..E`..G
0000beb0: 5624 b001 5d2d b001 5d2e b001 5d2e b001  V$..]-..]...]...
0000bec0: 5d2e b001 5d2d b001 5d2e b001 5d0b b00b  ]...]-..]...]...
0000bed0: 4d23 b001 5d0b b00b 4e23 b001 5d0a b00b  M#..]...N#..]...
0000bee0: 4f14 b001 5e1a b00b 5014 b001 5d02 8037  O...^...P...]..7
0000bef0: 4f00 803c 3000 8035 3d18 b00b 5114 b001  O..<0..5=...Q...
0000bf00: 5d1a b00b 5313 b001 5e1a b00b 5414 b001  ]...S...^...T...
0000bf10: 5f1a b00b 5514 b001 611a b00b 5614 b001  _...U...a...V...
0000bf20: 620d 8047 4c0d b00b 5813 b001 641a b00b  b..GL...X...d...
0000bf30: 5914 b001 651a b00b 5a14 b001 661a b00b  Y...e...Z...f...
0000bf40: 5b14 b001 681a b00b 5d13 b001 6919 9032  [...h...]...i..2
0000bf50: 5b01 b00b 5e14 b001 6b1a b00b 5f14 b001  [...^...k..._...
0000bf60: 6c1a b00b 6014 b001 6d1a b00b 6213 b001  l...`...m...b...
0000bf70: 6f1a b00b 6314 b001 701a b00b 640a 8032  o...c...p...d..2
0000bf80: 5e00 9037 5b0a b001 721a b00b 6514 b001  ^..7[...r...e...
0000bf90: 731a b00b 6713 b001 741a b00b 680c b001  s...g...t...h...
0000bfa0: 7622 b00b 690c b001 7502 b00b 6a2b b001  v"..i...u...j+..
0000bfb0: 7502 b00b 682c b001 7502 b00b 672c b001  u...h,..u...g,..
0000bfc0: 7402 b00b 652c b001 7402 b00b 642b b001  t...e,..t...d+..
0000bfd0: 7402 b00b 622c b001 7302 b00b 6113 8037  t...b,..s...a..7
0000bfe0: 5100 9036 5919 b001 7302 b00b 5f2c b001  Q..6Y...s..._,..
0000bff0: 7302 b00b 5e2b b001 7302 b00b 5c2c b001  s...^+..s...\,..
0000c000: 7202 b00b 5b2c b001 7202 b00b 591e 8036  r...[,..r...Y..6
0000c010: 6400 9032 560e b001 7202 b00b 5817 b001  d..2V...r...X...
0000c020: 7216 b00b 5618 b001 6e16 b00b 5518 b001  r...V...n...U...
0000c030: 6b16 b00b 5318 b001 6816 b00b 5217 b001  k...S...h...R...
0000c040: 6512 8032 5c00 9030 5804 b00b 5018 b001  e..2\..0X...P...
0000c050: 6216 b00b 4f18 b001 5f16 b00b 4d18 b001  b...O..._...M...
0000c060: 5b16 b00b 4c17 b001 5810 b00b 4b1e b001  [...L...X...K...
0000c070: 551d 8030 6000 9037 2b00 902f 1f00 903e  U..0`..7+../...>
0000c080: 3111 b001 522e b001 4f2d b001 4c2e b001  1...R...O-..L...
0000c090: 4900 b001 4981 01b0 0148 49b0 0147 36b0  I...I....HI..G6.
0000c0a0: 0146 37b0 0145 8137 b001 442e b001 402e  .F7..E.7..D...@.
0000c0b0: b001 3c2d b001 382e b001 342e b001 312e  ..<-..8...4...1.
0000c0c0: b001 2d1b b001 2b2e b001 2b2e b001 2b2e  ..-...+...+...+.
0000c0d0: b001 2b2d b001 2c2e b001 2c2e b001 2d2e  ..+-..,...,...-.
0000c0e0: b001 2d2d b001 2d2e b001 2e2e b001 2e20  ..--..-........ 
0000c0f0: 8037 5700 803e 5700 802f 5c0e b001 2f2d  .7W..>W../\.../-
0000c100: b001 2f2e b001 2f2e b001 302e b001 302d  ../.../...0...0-
0000c110: b001 312e b001 312e b001 312e b001 322d  ..1...1...1...2-
0000c120: b001 322e b001 3309 9037 2100 9040 3300  ..2...3..7!..@3.
0000c130: 903e 2e00 9030 2425 b001 332e b001 332d  .>...0$%..3...3-
0000c140: b001 342e b001 342e b001 352e b001 352d  ..4...4...5...5-
0000c150: b001 352e b001 362e b001 362e b001 372d  ..5...6...6...7-
0000c160: b001 372e b001 372e b001 382e b001 382d  ..7...7...8...8-
0000c170: b001 392b 8037 5b00 9039 3603 b001 392e  ..9+.7[..96...9.
0000c180: b001 3905 b001 3a2e b001 3a2e b001 3a2d  ..9...:...:...:-
0000c190: b001 3a2e b001 3a2e b001 3b2e b001 3b2d  ..:...:...;...;-
0000c1a0: b001 3b2e b001 3b2e b001 3b2e b001 3a2d  ..;...;...;...:-
0000c1b0: b001 3a2e b001 3a2e b001 3a2e b001 3a2d  ..:...:...:...:-
0000c1c0: b001 3a2e b001 392e b001 392e b001 392d  ..:...9...9...9-
0000c1d0: b001 392e b001 392e b001 392e b001 382d  ..9...9...9...8-
0000c1e0: b001 382e b001 382e b001 3802 8030 3d00  ..8...8...8..0=.
0000c1f0: 8039 3800 803e 5200 8040 5300 9037 3000  .98..>R..@S..70.
0000c200: 903e 3f00 9032 1d2c b001 382d b001 382e  .>?..2.,..8-..8.
0000c210: b001 3817 b001 382e b001 382d b001 382e  ..8...8...8-..8.
0000c220: b001 382e b001 392e b001 392d b001 392e  ..8...9...9-..9.
0000c230: b001 3a2e b001 3a2e b001 3a2d b001 3a2e  ..:...:...:-..:.
0000c240: b001 3b2e b001 3b2e b001 3b26 b001 3c2e  ..;...;...;&..<.
0000c250: b001 3b2e b001 3b2e b001 3a2d b001 3a2e  ..;...;...:-..:.
0000c260: b001 392e b001 392e b001 392d b001 382e  ..9...9...9-..8.
0000c270: b001 382e b001 372e b001 372d b001 372e  ..8...7...7-..7.
0000c280: b001 362e b001 362e b001 352d b001 352e  ..6...6...5-..5.
0000c290: b001 342e b001 342e b001 342d b001 332e  ..4...4...4-..3.
0000c2a0: b001 332e b001 322e b001 322d b001 321f  ..3...2...2-..2.
0000c2b0: 8037 3c00 8032 0100 803e 3d00 9030 2d00  .7<..2...>=..0-.
0000c2c0: 9033 3200 9037 320f b001 312e b001 312e  .32..72...1...1.
0000c2d0: b001 302d b001 302e b001 302e b001 2f2e  ..0-..0...0.../.
0000c2e0: b001 2f2d b001 2e2e b001 2e2e b001 2d2e  ../-..........-.
0000c2f0: b001 2d2d b001 2d2e b001 2c2e b001 2c2e  ..--..-...,...,.
0000c300: b001 2b2d b001 2b2e b001 2b2e b001 2a2e  ..+-..+...+...*.
0000c310: b001 2a2d b001 292e b001 292e b001 292e  ..*-..)...)...).
0000c320: b001 282d b001 282e b001 272e b001 272e  ..(-..(...'...'.
0000c330: b001 262d b001 262e b001 262e b001 252e  ..&-..&...&...%.
0000c340: b001 252d b001 242e b001 242e b001 242e  ..%-..$...$...$.
0000c350: b001 232d b001 232e b001 222e b001 222e  ..#-..#..."...".
0000c360: b001 212d b001 212e b001 212e b001 202e  ..!-..!...!... .
0000c370: b001 202d b001 1f2e b001 1f2e b001 1f2e  .. -............
0000c380: b001 1e2d b001 1e2e b001 1d2e b001 1d2e  ...-............
0000c390: b001 1d2d b001 1c2e b001 1c2e b001 1b2e  ...-............
0000c3a0: b001 1b2d b001 1a2e b001 1a2e b001 1a2e  ...-............
0000c3b0: b001 192d b001 192e b001 182e b001 182e  ...-............
0000c3c0: b001 182d b001 172e b001 172e b001 162e  ...-............
0000c3d0: b001 162d b001 162e b001 152e b001 152e  ...-............
0000c3e0: b001 142d b001 142e b001 132e b001 132e  ...-............
0000c3f0: b001 132d b001 122e b001 122e b001 112e  ...-............
0000c400: b001 112d b001 112e b001 102e b001 102e  ...-............
0000c410: b001 0f2d b001 0f2e b001 0f2e b001 0e2e  ...-............
0000c420: b001 0e2d b001 0d2e b001 0d2e b001 0c2e  ...-............
0000c430: b001 0c2d b001 0c2e b001 0b2e b001 0b2e  ...-............
0000c440: b001 0a2d b001 0a2e b001 0a2e b001 092e  ...-............
0000c450: b001 092d b001 082e b001 082e b001 072e  ...-............
0000c460: b001 072d b001 072e b001 062e b001 062e  ...-............
0000c470: b001 052d b001 052e b001 052e b001 0426  ...-...........&
0000c480: 8030 6f00 8037 5f00 8033 5f08 b001 042d  .0o..7_..3_....-
0000c490: b001 032e b001 032e b001 032e b001 022d  ...............-
0000c4a0: b001 022e b001 012e b001 012e b001 002d  ...............-
0000c4b0: b001 002e b001 0011 b001 0000 ff2f 004d  ............./.M
0000c4c0: 5472 6b00 0000 2b00 ff01 1b43 5320 3132  Trk...+....CS 12
0000c4d0: 2048 6e73 2051 7569 7672 6520 4c6f 6e67   Hns Quivre Long
0000c4e0: 2d53 686f 7274 00b0 0b7f 00b0 077f 00ff  -Short..........
0000c4f0: 2f00 4d54 726b 0000 004b 00ff 011a 5346  /.MTrk...K....SF
0000c500: 2048 6e73 2042 656c 6c73 2075 7020 4c6f   Hns Bells up Lo
0000c510: 6e67 2d53 686f 7274 00b0 0b7f 00b0 0b7f  ng-Short........
0000c520: 00b0 0b7f 00b0 0b7f 00b0 077f 00b0 077f  ................
0000c530: 00b0 077f 00b0 077f 0090 0c40 816c 800c  ...........@.l..
0000c540: 4000 ff2f 004d 5472 6b00 0000 3500 ff01  @../.MTrk...5...
0000c550: 1c53 4620 486f 726e 7320 4c6f 6e67 2051  .SF Horns Long Q
0000c560: 7569 7672 652d 5374 6f70 7065 6400 b00b  uivre-Stopped...
0000c570: 7f00 b007 7f05 9010 4081 6c80 1040 00ff  ........@.l..@..
0000c580: 2f00 4d54 726b 0000 0050 00ff 011f 4353  /.MTrk...P....CS
0000c590: 2048 6e73 2053 746f 7070 6564 2d46 6c74   Hns Stopped-Flt
0000c5a0: 2028 5370 6c69 7420 4b62 7264 2900 b00b   (Split Kbrd)...
0000c5b0: 7f00 b00b 7f00 b00b 7f00 b00b 7f00 b007  ................
0000c5c0: 7f00 b007 7f00 b007 7f00 b007 7f00 9000  ................
0000c5d0: 4081 6c80 0040 00ff 2f00 4d54 726b 0000  @.l..@../.MTrk..
0000c5e0: 0023 00ff 0113 4353 2048 6e73 204d 7574  .#....CS Hns Mut
0000c5f0: 7465 6420 4c6f 6e67 7300 b00b 7f00 b007  ted Longs.......
0000c600: 7f00 ff2f 004d 5472 6b00 0000 3b00 ff01  .../.MTrk...;...
0000c610: 1a53 4620 486f 726e 7320 5368 6f72 7473  .SF Horns Shorts
0000c620: 2028 2b52 6570 6561 7473 2900 b00b 7f00   (+Repeats).....
0000c630: b00b 7f00 b007 7f00 b007 7f00 900c 4081  ..............@.
0000c640: 6c80 0c40 00ff 2f00 4d54 726b 0000 0044  l..@../.MTrk...D
0000c650: 00ff 011b 5346 2048 6e73 204d 756c 7469  ....SF Hns Multi
0000c660: 746f 6e67 2d46 6c74 2d54 7269 6c6c 7300  tong-Flt-Trills.
0000c670: b00b 7f00 b00b 7f00 b00b 7f00 b007 7f00  ................
0000c680: b007 7f00 b007 7f00 900f 4081 6c80 0f40  ..........@.l..@
0000c690: 00ff 2f00 4d54 726b 0000 0027 00ff 0117  ../.MTrk...'....
0000c6a0: 4353 5346 2048 6e73 2052 6970 7320 7468  CSSF Hns Rips th
0000c6b0: 656e 2073 746f 7000 b00b 7f00 b007 7f00  en stop.........
0000c6c0: ff2f 004d 5472 6b00 0000 3400 ff01 1c53  ./.MTrk...4....S
0000c6d0: 414d 2048 6e73 2043 7265 7363 2d52 6970  AM Hns Cresc-Rip
0000c6e0: 7320 7468 656e 2068 6f6c 6400 b00b 7f00  s then hold.....
0000c6f0: b007 7f00 9064 543e 8064 6200 ff2f 004d  .....dT>.db../.M
0000c700: 5472 6b00 0000 3b00 ff01 2353 414d 2048  Trk...;...#SAM H
0000c710: 6e73 2046 782d 5478 7475 7265 732d 5472  ns Fx-Txtures-Tr
0000c720: 696c 6c73 2d49 6e74 6572 7661 6c73 00b0  ills-Intervals..
0000c730: 0b7f 00b0 077f 0090 6059 3b80 605c 00ff  ........`Y;.`\..
0000c740: 2f00 4d54 726b 0000 001c 00ff 010c 4557  /.MTrk........EW
0000c750: 2048 6e73 2053 6861 6b65 00b0 0b7f 00b0   Hns Shake......
0000c760: 0741 00ff 2f00 4d54 726b 0000 0017 00ff  .A../.MTrk......
0000c770: 0107 4d49 4449 2d32 3200 b00b 7f00 b007  ..MIDI-22.......
0000c780: 7f00 ff2f 004d 5472 6b00 0011 6d00 ff01  .../.MTrk...m...
0000c790: 1653 4620 5472 756d 7065 7420 536f 6c6f  .SF Trumpet Solo
0000c7a0: 204c 6567 6174 6f00 b00b 7f00 b007 7f87   Legato.........
0000c7b0: b840 b001 7e81 04b0 0173 12b0 0166 12b0  .@..~....s...f..
0000c7c0: 015d 12b0 0156 12b0 014f 12b0 0145 12b0  .]...V...O...E..
0000c7d0: 013c 12b0 0135 13b0 0130 12b0 012c 12b0  .<...5...0...,..
0000c7e0: 0128 12b0 0125 13b0 0120 12b0 011b 12b0  .(...%... ......
0000c7f0: 0118 12b0 0115 12b0 0112 12b0 010f 12b0  ................
0000c800: 010c 12b0 010a 12b0 0108 13b0 0107 23b0  ..............#.
0000c810: 0106 12b0 0105 12b0 0104 13b0 0102 12b0  ................
0000c820: 0101 24b0 0100 822f 9045 3381 6ab0 0102  ..$..../.E3.j...
0000c830: 11b0 0104 12b0 0105 12b0 0106 12b0 0107  ................
0000c840: 11b0 0109 12b0 010a 12b0 010c 11b0 010d  ................
0000c850: 12b0 010f 11b0 0110 12b0 0111 12b0 0113  ................
0000c860: 12b0 0114 11b0 0115 12b0 0116 12b0 0117  ................
0000c870: 11b0 0118 12b0 011a 12b0 011b 11b0 011c  ................
0000c880: 13b0 011d 11b0 011f 12b0 0120 11b0 0121  ........... ...!
0000c890: 24b0 0122 11b0 0123 12b0 0124 12b0 0125  $.."...#...$...%
0000c8a0: 22b0 0126 36b0 0127 35b0 0128 24b0 0129  "..&6..'5..($..)
0000c8b0: 11b0 012a 12b0 012b 35b0 012d 11b0 012e  ...*...+5..-....
0000c8c0: 12b0 012f 12b0 0131 12b0 0132 11b0 0134  .../...1...2...4
0000c8d0: 12b0 0135 12b0 0136 11b0 0137 12b0 0138  ...5...6...7...8
0000c8e0: 12b0 0139 12b0 013a 11b0 013c 12b0 013d  ...9...:...<...=
0000c8f0: 11b0 013e 24b0 013f 23b0 0141 23b0 0142  ...>$..?#..A#..B
0000c900: 24b0 0143 23b0 0144 23b0 0145 24b0 0146  $..C#..D#..E$..F
0000c910: 23b0 0147 12b0 0148 12b0 0149 23b0 014a  #..G...H...I#..J
0000c920: 24b0 014b 23b0 014c 35b0 014d 23b0 014e  $..K#..L5..M#..N
0000c930: 24b0 014f 34b0 0150 24b0 0152 23b0 0153  $..O4..P$..R#..S
0000c940: 24b0 0154 23b0 0155 24b0 0156 23b0 0157  $..T#..U$..V#..W
0000c950: 12b0 0158 22b0 0159 25b0 015b 23b0 015c  ...X"..Y%..[#..\
0000c960: 23b0 015d 23b0 015e 35b0 015f 24b0 0160  #..]#..^5.._$..`
0000c970: 11b0 0161 24b0 0162 23b0 0163 24b0 0164  ...a$..b#..c$..d
0000c980: 23b0 0165 23b0 0166 23b0 0167 35b0 0168  #..e#..f#..g5..h
0000c990: 24b0 0169 23b0 016a 47b0 016b 35b0 016c  $..i#..jG..k5..l
0000c9a0: 23b0 016d 12b0 016e 12b0 016f 23b0 0171  #..m...n...o#..q
0000c9b0: 58b0 0172 36b0 0173 35b0 0174 23b0 0175  X..r6..s5..t#..u
0000c9c0: 23b0 0176 35b0 0177 58b0 0178 7cb0 0179  #..v5..wX..x|..y
0000c9d0: 59b0 017a 8424 b001 7b59 b001 7d81 0db0  Y..z.$..{Y..}...
0000c9e0: 017e 8178 b001 7f8b 0880 4560 8188 4ab0  .~.x......E`..J.
0000c9f0: 0b7e 13b0 0b7d 24b0 0b7c 5db0 0b7b 13b0  .~...}$..|]..{..
0000ca00: 0b7a 12b0 0b79 25b0 0b78 25b0 0b77 25b0  .z...y%..x%..w%.
0000ca10: 0b76 24b0 0b75 25b0 0b74 25b0 0b73 25b0  .v$..u%..t%..s%.
0000ca20: 0b72 37b0 0b71 8102 b00b 7033 b001 5816  .r7..q....p3..X.
0000ca30: b00b 6f81 0fb0 0159 5cb0 015a 5cb0 015b  ..o....Y\..Z\..[
0000ca40: 37b0 015c 25b0 015d 49b0 015e 25b0 015f  7..\%..]I..^%.._
0000ca50: 24b0 0160 4bb0 0161 8100 b001 624a b001  $..`K..a....bJ..
0000ca60: 6349 b001 6437 b001 6524 b001 6613 b001  cI..d7..e$..f...
0000ca70: 6725 b001 6924 b001 6a2e b001 692d b001  g%..i$..j...i-..
0000ca80: 6929 b00b 6e05 b001 6912 b001 692d b001  i)..n...i...i-..
0000ca90: 6905 b00b 6d29 b001 692e b001 6a1d b00b  i...m)..i...j...
0000caa0: 5d11 b001 6a1d b00b 5d10 b001 6a1e b00b  ]...j...]...j...
0000cab0: 5d10 b001 6b1e b00b 5d10 b001 6b1d b00b  ]...k...]...k...
0000cac0: 5d11 b001 6b1d b00b 5d10 b001 6c1e b00b  ]...k...]...l...
0000cad0: 5e10 b001 6c1e b00b 5e10 b001 6d1d b00b  ^...l...^...m...
0000cae0: 5e11 b001 6d1d b00b 5e10 b001 6d1e b00b  ^...m...^...m...
0000caf0: 5e10 b001 6e1e b00b 5e10 b001 6e1d b00b  ^...n...^...n...
0000cb00: 5f11 b001 6e1d b00b 5f10 b001 6f1e b00b  _...n..._...o...
0000cb10: 5f10 b001 6f1e b00b 5f10 b001 701d b00b  _...o..._...p...
0000cb20: 5f11 b001 701d b00b 5f10 b001 7004 904a  _...p..._...p..J
0000cb30: 621a b00b 6010 b001 711e b00b 6010 b001  b...`...q...`...
0000cb40: 711d b00b 6011 b001 711d b00b 6010 b001  q...`...q...`...
0000cb50: 721e b00b 6010 b001 721e b00b 6010 b001  r...`...r...`...
0000cb60: 731d b00b 6111 b001 731d b00b 6110 b001  s...a...s...a...
0000cb70: 731e b00b 6110 b001 741e b00b 6110 b001  s...a...t...a...
0000cb80: 741d b00b 6111 b001 741d b00b 6107 b00b  t...a...t...a...
0000cb90: 6209 b001 7525 b00b 6209 b001 7524 b00b  b...u%..b...u$..
0000cba0: 620a b001 7524 b00b 620a b001 7624 b00b  b...u$..b...v$..
0000cbb0: 6201 804a 5500 904f 4e08 b001 7625 b00b  b..JU..ON...v%..
0000cbc0: 6209 b001 7724 b00b 620a b001 7724 b00b  b...w$..b...w$..
0000cbd0: 620a b001 7716 b001 780e b00b 622e b00b  b...w...x...b...
0000cbe0: 622d b00b 622e b00b 622e b00b 622e b00b  b-..b...b...b...
0000cbf0: 6218 b001 7915 b00b 630f b001 7812 b001  b...y...c...x...
0000cc00: 770d b00b 6305 b001 7629 b00b 632e b00b  w...c...v)..c...
0000cc10: 632d b00b 631c b001 7512 b00b 6323 804f  c-..c...u...c#.O
0000cc20: 5a00 904a 510b b00b 632e b00b 632d b00b  Z..JQ...c...c-..
0000cc30: 632e b00b 632e b00b 6303 b001 762b b00b  c...c...c...v+..
0000cc40: 632d b00b 632e b00b 642d b001 7701 b00b  c-..c...d-..w...
0000cc50: 6423 b001 790b b00b 642a b001 7a03 b00b  d#..y...d*..z...
0000cc60: 640c 804a 5500 9048 5422 b00b 642e b00b  d..JU..HT"..d...
0000cc70: 642e b00b 642d b00b 642e b00b 6400 b001  d...d-..d...d...
0000cc80: 792e b00b 6419 b001 7815 b00b 642d b00b  y...d...x...d-..
0000cc90: 642e b00b 642e b00b 6514 b001 771a b00b  d...d...e...w...
0000cca0: 652d b00b 6500 b001 762e b00b 652e b00b  e-..e...v...e...
0000ccb0: 652e b00b 652d 8048 4900 b00b 6500 904f  e...e-.HI...e..O
0000ccc0: 4a2e b00b 652e b00b 652e b00b 6513 b001  J...e...e...e...
0000ccd0: 751a b00b 652e b00b 652e b00b 6518 b001  u...e...e...e...
0000cce0: 7416 b00b 662d b00b 6605 b001 7329 b00b  t...f-..f...s)..
0000ccf0: 662e b00b 6613 b001 721b b00b 661b b001  f...f...r...f...
0000cd00: 7112 b00b 662e b00b 6608 b001 7026 b00b  q...f...f...p&..
0000cd10: 662e b00b 6617 b001 6f16 b00b 662e b00b  f...f...o...f...
0000cd20: 6603 b001 6d12 b001 6c12 b001 6b07 b00b  f...m...l...k...
0000cd30: 660b b001 6a23 b001 6900 b00b 6623 b001  f...j#..i...f#..
0000cd40: 680a b00b 672e b00b 6710 b001 671e b00b  h...g...g...g...
0000cd50: 6705 b001 6625 b001 6504 b00b 670d b001  g...f%..e...g...
0000cd60: 6412 b001 630e b00b 6704 b001 622a b00b  d...c...g...b*..
0000cd70: 672e b00b 670a 804f 5600 9047 5124 b00b  g...g..OV..GQ$..
0000cd80: 672d b00b 672e b00b 6719 b001 6312 b001  g-..g...g...c...
0000cd90: 6403 b00b 670e b001 6513 b001 660d b00b  d...g...e...f...
0000cda0: 6704 b001 6712 b001 6812 b001 6905 b00b  g...g...h...i...
0000cdb0: 671e b001 6b10 b00b 6826 b001 6c08 b00b  g...k...h&..l...
0000cdc0: 682d b001 6d01 b00b 682d b00b 6800 b001  h-..m...h-..h...
0000cdd0: 6c2e b001 6c00 b00b 682e b00b 6800 b001  l...l...h...h...
0000cde0: 6b2d b001 6b01 b00b 682d b00b 6800 b001  k-..k...h-..h...
0000cdf0: 6b2e b001 6a00 b00b 682c 8047 5200 904a  k...j...h,.GR..J
0000ce00: 4502 b001 6a00 b00b 682d b001 6a01 b00b  E...j...h-..j...
0000ce10: 682d b00b 6800 b001 692e b001 6900 b00b  h-..h...i...i...
0000ce20: 682e b00b 6900 b001 692d b001 6801 b00b  h...i...i-..h...
0000ce30: 692d b00b 6900 b001 682e b001 6800 b00b  i-..i...h...h...
0000ce40: 692e b00b 6900 b001 672d b001 6701 b00b  i...i...g-..g...
0000ce50: 692d b00b 6900 b001 672e b001 6600 b00b  i-..i...g...f...
0000ce60: 692e b00b 6900 b001 662d b001 6601 b00b  i...i...f-..f...
0000ce70: 692d b00b 6900 b001 652e b001 6500 b00b  i-..i...e...e...
0000ce80: 6920 804a 4100 9053 410e b001 6500 b00b  i .JA..SA...e...
0000ce90: 692d b001 6401 b00b 6a2d b00b 6a00 b001  i-..d...j-..j...
0000cea0: 642e b001 6400 b00b 6a2e b00b 6a00 b001  d...d...j...j...
0000ceb0: 632d b001 6301 b00b 6a2d b00b 6a00 b001  c-..c...j-..j...
0000cec0: 632e b001 6200 b00b 6a2e b00b 6a00 b001  c...b...j...j...
0000ced0: 622d b001 6201 b00b 6a2d b00b 6a00 b001  b-..b...j-..j...
0000cee0: 6109 8053 5b00 9051 4725 b001 6100 b00b  a..S[..QG%..a...
0000cef0: 6a2e b00b 6a00 b001 612d b001 6001 b00b  j...j...a-..`...
0000cf00: 6a2d b00b 6b00 b001 602e b001 6000 b00b  j-..k...`...`...
0000cf10: 6b2e b00b 6b00 b001 5f2d b001 5f01 b00b  k...k..._-.._...
0000cf20: 6b2d b00b 6b00 b001 5f2e b001 5e00 b00b  k-..k..._...^...
0000cf30: 6b2e b00b 6b00 b001 5e2d b001 5e01 b00b  k...k...^-..^...
0000cf40: 6b2d b00b 6b00 b001 5d2e b001 5d00 b00b  k-..k...]...]...
0000cf50: 6b2e b00b 6b00 b001 5d2d b001 5c01 b00b  k...k...]-..\...
0000cf60: 6b2d b00b 6b00 b001 5c2e b001 5c00 b00b  k-..k...\...\...
0000cf70: 6c2e b00b 6c00 b001 5b2d b001 5b01 b00b  l...l...[-..[...
0000cf80: 6c2d b00b 6c00 b001 5b2e b001 5a00 b00b  l-..l...[...Z...
0000cf90: 6c2e b00b 6c00 b001 5a2d b001 5a01 b00b  l...l...Z-..Z...
0000cfa0: 6c2d b00b 6c00 b001 592e b001 5900 b00b  l-..l...Y...Y...
0000cfb0: 6c2e b00b 6c00 b001 592d b001 5801 b00b  l...l...Y-..X...
0000cfc0: 6c2d b00b 6c00 b001 582e b001 5800 b00b  l-..l...X...X...
0000cfd0: 6c17 b001 5817 b00b 6c2e b00b 6d2d b00b  l...X...l...m-..
0000cfe0: 6d2e b00b 6d2e b00b 6d2e b00b 6d2d b00b  m...m...m...m-..
0000cff0: 6d13 b001 5917 8051 3b04 b00b 6d13 b001  m...Y..Q;...m...
0000d000: 591b b00b 6d12 b001 591c b00b 6d12 b001  Y...m...Y...m...
0000d010: 5a1b b00b 6d13 b001 5a1b b00b 6d13 b001  Z...m...Z...m...
0000d020: 5a1b b00b 6d12 b001 5b1c b00b 6d12 b001  Z...m...[...m...
0000d030: 5b1b b00b 6e13 b001 5c1b b00b 6e13 b001  [...n...\...n...
0000d040: 5c1b b00b 6e12 b001 5c1c b00b 6e12 b001  \...n...\...n...
0000d050: 5d1b b00b 6e13 b001 5d1b b00b 6e13 b001  ]...n...]...n...
0000d060: 5e1b b00b 6e12 b001 5e1c b00b 6e12 b001  ^...n...^...n...
0000d070: 5e1b b00b 6e13 b001 5f1b b00b 6e13 b001  ^...n..._...n...
0000d080: 5f1b b00b 6e12 b001 601c b00b 6e12 b001  _...n...`...n...
0000d090: 601b b00b 6e13 b001 601b b00b 6f13 b001  `...n...`...o...
0000d0a0: 611b b00b 6f12 b001 611c b00b 6f12 b001  a...o...a...o...
0000d0b0: 611b b00b 6f13 b001 621b b00b 6f13 b001  a...o...b...o...
0000d0c0: 621b b00b 6f12 b001 631c b00b 6f06 904f  b...o...c...o..O
0000d0d0: 560c b001 631b b00b 6f13 b001 631b b00b  V...c...o...c...
0000d0e0: 6f13 b001 641b b00b 6f12 b001 641c b00b  o...d...o...d...
0000d0f0: 6f12 b001 651b b00b 6f13 b001 651b b00b  o...e...o...e...
0000d100: 6f13 b001 651b b00b 7012 b001 661c b00b  o...e...p...f...
0000d110: 7012 b001 661b b00b 7013 b001 671b b00b  p...f...p...g...
0000d120: 7013 b001 670a 804f 5300 9051 4811 b00b  p...g..OS..QH...
0000d130: 7012 b001 6716 b001 6806 b00b 7027 b001  p...g...h...p'..
0000d140: 6706 b00b 7028 b001 6606 b00b 7028 b001  g...p(..f...p(..
0000d150: 6506 b00b 7028 8051 5100 b001 6500 904f  e...p(.QQ...e..O
0000d160: 5406 b00b 7027 b001 6406 b00b 7028 b001  T...p'..d...p(..
0000d170: 6306 b00b 7028 b001 6206 b00b 7028 b001  c...p(..b...p(..
0000d180: 6206 b00b 7127 b001 6106 b00b 7106 804f  b...q'..a...q..O
0000d190: 3e00 9054 4522 b001 6006 b00b 7128 b001  >..TE"..`...q(..
0000d1a0: 6006 b00b 7128 b001 5f06 b00b 7127 b001  `...q(.._...q'..
0000d1b0: 5e06 b00b 7128 b001 5d06 b00b 7128 b001  ^...q(..]...q(..
0000d1c0: 5d06 b00b 7128 b001 5c06 b00b 7127 b001  ]...q(..\...q'..
0000d1d0: 5b06 b00b 7128 b001 5b06 b00b 7128 b001  [...q(..[...q(..
0000d1e0: 5a06 b00b 710c b001 5a22 b00b 711a b00b  Z...q...Z"..q...
0000d1f0: 722e b00b 7201 b001 592c b00b 722e b00b  r...r...Y,..r...
0000d200: 7200 b001 582d b001 5801 b00b 720d 8054  r...X-..X...r..T
0000d210: 5800 9053 4920 b001 5801 b00b 722d b00b  X..SI ..X...r-..
0000d220: 7200 b001 582e b001 5800 b00b 722d b001  r...X...X...r-..
0000d230: 5801 b00b 722d b001 5801 b00b 722d b00b  X...r-..X...r-..
0000d240: 7200 b001 582e b001 5800 b00b 722d b001  r...X...X...r-..
0000d250: 5901 b00b 722d b001 5901 b00b 722d b00b  Y...r-..Y...r-..
0000d260: 7200 b001 592e b001 5900 b00b 722d b001  r...Y...Y...r-..
0000d270: 5901 b00b 722d b001 5901 b00b 722d b00b  Y...r-..Y...r-..
0000d280: 7200 b001 592e b001 5900 b00b 722d b001  r...Y...Y...r-..
0000d290: 5901 b00b 7201 8053 5c00 904f 542c b001  Y...r..S\..OT,..
0000d2a0: 5a01 b00b 722d b00b 7200 b001 5a2e b001  Z...r-..r...Z...
0000d2b0: 5a00 b00b 722d b001 5a01 b00b 722d b001  Z...r-..Z...r-..
0000d2c0: 5a01 b00b 722d b00b 7200 b001 5a2e b001  Z...r-..r...Z...
0000d2d0: 5a00 b00b 722d b001 5a01 b00b 722d b001  Z...r-..Z...r-..
0000d2e0: 5a01 b00b 722d b00b 7200 b001 5b18 804f  Z...r-..r...[..O
0000d2f0: 5600 904f 4916 b001 5b00 b00b 722d b001  V..OI...[...r-..
0000d300: 5b01 b00b 722d b001 5b01 b00b 722d b00b  [...r-..[...r-..
0000d310: 7200 b001 5b2e b001 5b00 b00b 722d b001  r...[...[...r-..
0000d320: 5b01 b00b 722d b001 5b01 b00b 722d b00b  [...r-..[...r-..
0000d330: 7200 b001 5b2e b001 5c00 b00b 722d b001  r...[...\...r-..
0000d340: 5c01 b00b 722d b001 5c01 b00b 722d b00b  \...r-..\...r-..
0000d350: 7200 b001 5c2e b001 5c00 b00b 722d b001  r...\...\...r-..
0000d360: 5c01 b00b 722d b001 5c01 b00b 722d b00b  \...r-..\...r-..
0000d370: 7200 b001 5c0c 804f 5300 9051 4822 b001  r...\..OS..QH"..
0000d380: 5d00 b00b 722d b001 5d01 b00b 722d b001  ]...r-..]...r-..
0000d390: 5d01 b00b 722d b00b 7200 b001 5d2e b001  ]...r-..r...]...
0000d3a0: 5d00 b00b 722d b001 5d01 b00b 722d b001  ]...r-..]...r-..
0000d3b0: 5d01 b00b 722d b00b 7200 b001 5d2e b001  ]...r-..r...]...
0000d3c0: 5d00 b00b 722d b001 5e01 b00b 722d b001  ]...r-..^...r-..
0000d3d0: 5e01 b00b 722d b00b 7200 b001 5e2e b001  ^...r-..r...^...
0000d3e0: 5e00 b00b 732d b001 5e01 b00b 732d b001  ^...s-..^...s-..
0000d3f0: 5e01 b00b 732d 8051 5600 b001 5e00 b00b  ^...s-.QV...^...
0000d400: 7300 9053 462e b001 5e00 b00b 732d b001  s..SF...^...s-..
0000d410: 5e01 b00b 732d b001 5f01 b00b 732d b00b  ^...s-.._...s-..
0000d420: 7300 b001 5f2e b001 5f00 b00b 732d b001  s..._..._...s-..
0000d430: 5f01 b00b 732d b001 5f01 b00b 732d b00b  _...s-.._...s-..
0000d440: 7300 b001 5f2e b001 5f00 b00b 732d b001  s..._..._...s-..
0000d450: 5f01 b00b 7316 8053 5900 9051 4a17 b001  _...s..SY..QJ...
0000d460: 5f01 b00b 7308 b001 6025 b00b 7308 b001  _...s...`%..s...
0000d470: 5f26 b00b 7308 b001 5f26 b00b 7308 b001  _&..s..._&..s...
0000d480: 5f26 b00b 7308 b001 5e25 b00b 7308 b001  _&..s...^%..s...
0000d490: 5e26 b00b 7308 b001 5e26 b00b 7308 b001  ^&..s...^&..s...
0000d4a0: 5e26 b00b 7308 b001 5d25 b00b 7308 b001  ^&..s...]%..s...
0000d4b0: 5d26 b00b 7308 b001 5d26 b00b 7308 b001  ]&..s...]&..s...
0000d4c0: 5d26 b00b 7308 b001 5c25 b00b 7308 b001  ]&..s...\%..s...
0000d4d0: 5c26 b00b 7308 b001 5c26 b00b 7308 b001  \&..s...\&..s...
0000d4e0: 5c26 b00b 7308 b001 5b25 b00b 7308 b001  \&..s...[%..s...
0000d4f0: 5b26 b00b 7308 b001 5b26 b00b 7308 b001  [&..s...[&..s...
0000d500: 5b26 b00b 7308 b001 5a25 b00b 7308 b001  [&..s...Z%..s...
0000d510: 5a26 b00b 7308 b001 5a26 b00b 7308 b001  Z&..s...Z&..s...
0000d520: 5a26 b00b 7308 b001 5925 b00b 7308 b001  Z&..s...Y%..s...
0000d530: 5926 b00b 7308 b001 5926 b00b 7308 b001  Y&..s...Y&..s...
0000d540: 5926 b00b 7308 b001 5825 b00b 7308 b001  Y&..s...X%..s...
0000d550: 5826 b00b 7308 b001 5826 b00b 7308 b001  X&..s...X&..s...
0000d560: 5826 b00b 7308 b001 5725 b00b 7308 b001  X&..s...W%..s...
0000d570: 5726 b00b 7308 b001 5726 b00b 7308 b001  W&..s...W&..s...
0000d580: 5726 b00b 7302 b001 5707 8051 6024 b00b  W&..s...W..Q`$..
0000d590: 732e b00b 732e b00b 732e b00b 732d b00b  s...s...s...s-..
0000d5a0: 732e b00b 732e b00b 732e b00b 732d b00b  s...s...s...s-..
0000d5b0: 742e b00b 742e b00b 742e b00b 742d b00b  t...t...t...t-..
0000d5c0: 742e b00b 742e b00b 742e b00b 742d b00b  t...t...t...t-..
0000d5d0: 742e b00b 742e b00b 742e b00b 742d b00b  t...t...t...t-..
0000d5e0: 742e b00b 742e b00b 742e b00b 742d b00b  t...t...t...t-..
0000d5f0: 742e b00b 742e b00b 742e b00b 742d b00b  t...t...t...t-..
0000d600: 742e b00b 742e b00b 742e b00b 742d b00b  t...t...t...t-..
0000d610: 742e b00b 741b b001 5713 b00b 741b b001  t...t...W...t...
0000d620: 5713 b00b 741b b001 5812 b00b 741b b001  W...t...X...t...
0000d630: 5813 b00b 741b b001 5913 b00b 741b b001  X...t...Y...t...
0000d640: 5a13 b00b 741b b001 5a12 b00b 741b b001  Z...t...Z...t...
0000d650: 5b13 b00b 741b b001 5b13 b00b 741b b001  [...t...[...t...
0000d660: 5c13 b00b 741b b001 5d12 b00b 741b b001  \...t...]...t...
0000d670: 5d13 b00b 741b b001 5e13 b00b 741b b001  ]...t...^...t...
0000d680: 5e13 b00b 741b b001 5f12 b00b 741b b001  ^...t..._...t...
0000d690: 6013 b00b 741b b001 6013 b00b 741b b001  `...t...`...t...
0000d6a0: 6113 b00b 741b b001 6112 b00b 741b b001  a...t...a...t...
0000d6b0: 6213 b00b 741b b001 6313 b00b 741b b001  b...t...c...t...
0000d6c0: 6313 b00b 741b b001 6412 b00b 741b b001  c...t...d...t...
0000d6d0: 6513 b00b 741b b001 6513 b00b 741b b001  e...t...e...t...
0000d6e0: 6613 b00b 741b b001 6612 b00b 741b b001  f...t...f...t...
0000d6f0: 6713 b00b 741b b001 6813 b00b 741b b001  g...t...h...t...
0000d700: 6813 b00b 741b b001 6912 b00b 741b b001  h...t...i...t...
0000d710: 6913 b00b 741b b001 6a04 b00b 752a b001  i...t...j...u*..
0000d720: 6b2e b001 6b2d b001 6c2e b001 6c2e b001  k...k-..l...l...
0000d730: 6d2e b001 6e2d b001 6e2e b001 6f2e b001  m...n-..n...o...
0000d740: 6f2e b001 702d b001 712e b001 710e 9047  o...p-..q...q..G
0000d750: 5a20 b001 722e b001 732d b001 732e b001  Z ..r...s-..s...
0000d760: 742e b001 7419 8047 4800 9048 5a15 b001  t...t..GH..HZ...
0000d770: 752d b001 762e b001 762e b001 772e b001  u-..v...v...w...
0000d780: 7724 8048 5900 904a 5f09 b001 782e b001  w$.HY..J_...x...
0000d790: 792e b001 792e b001 7a2d b001 7a02 b001  y...y...z-..z...
0000d7a0: 7b83 62b0 017a 2c80 4a45 0090 435b 51b0  {.b..z,.JE..C[Q.
0000d7b0: 0179 830f 8043 5b00 9043 6367 b001 7847  .y...C[..Ccg..xG
0000d7c0: b001 7924 b001 7a1e 8043 5b00 904f 5e81  ..y$..z..C[..O^.
0000d7d0: 02b0 017b 6bb0 017a 0380 4f5d 0090 4e60  ...{k..z..O]..N`
0000d7e0: 8142 b001 792e 804e 6b00 904d 6783 6ab0  .B..y..Nk..Mg.j.
0000d7f0: 0178 35b0 0177 12b0 0175 13b0 0174 11b0  .x5..w...u...t..
0000d800: 0173 24b0 0172 5780 4d5f 0090 4b56 8243  .s$..rW.M_..KV.C
0000d810: b001 7184 4db0 0170 810f b001 6f81 0eb0  ..q.M..p....o...
0000d820: 016e 59b0 016d 5ab0 016c 35b0 016b 24b0  .nY..mZ..l5..k$.
0000d830: 0169 47b0 0168 23b0 0167 48b0 0166 35b0  .iG..h#..gH..f5.
0000d840: 0165 36b0 0164 36b0 0163 59b0 0162 6ab0  .e6..d6..cY..bj.
0000d850: 0161 24b0 0160 24b0 015f 36b0 015e 12b0  .a$..`$.._6..^..
0000d860: 015d 11b0 015c 24b0 015b 24b0 015a 35b0  .]...\$..[$..Z5.
0000d870: 0159 36b0 0158 35b0 0157 24b0 0156 23b0  .Y6..X5..W$..V#.
0000d880: 0155 24b0 0154 24b0 0153 47b0 0152 24b0  .U$..T$..SG..R$.
0000d890: 0151 24b0 0150 47b0 014f 24b0 014e 59b0  .Q$..PG..O$..NY.
0000d8a0: 014d 23b0 014c 48b0 014b 35b0 014a 48b0  .M#..LH..K5..JH.
0000d8b0: 0149 59b0 0148 35b0 0147 36b0 0146 59b0  .IY..H5..G6..FY.
0000d8c0: 0145 59b0 0144 48b0 0143 35b0 0142 59b0  .EY..DH..C5..BY.
0000d8d0: 0141 7db0 0140 35b0 013f 7db0 013e 59b0  .A}..@5..?}..>Y.
0000d8e0: 013d 5ab0 013c 7db0 013a 12b0 0139 0180  .=Z..<}..:...9..
0000d8f0: 4b69 10b0 0138 00ff 2f00 4d54 726b 0000  Ki...8../.MTrk..
0000d900: 0189 00ff 0112 5346 2054 7275 6d70 6574  ......SF Trumpet
0000d910: 7320 4c65 6761 746f 00b0 0b7f 00b0 077f  s Legato........
0000d920: f712 b001 3942 b001 3826 b001 3712 b001  ....9B..8&..7...
0000d930: 3613 b001 3509 b001 3413 b001 3325 b001  6...5...4...3%..
0000d940: 327a b001 3183 76b0 0117 2eb0 0117 2eb0  2z..1.v.........
0000d950: 0117 2db0 0117 2eb0 0117 2eb0 0117 0b90  ..-.............
0000d960: 4359 23b0 0118 2db0 0118 2eb0 0118 2eb0  CY#...-.........
0000d970: 0118 2eb0 0118 2db0 0119 2eb0 0119 2eb0  ......-.........
0000d980: 0119 2eb0 0119 2db0 0119 2eb0 011a 2eb0  ......-.........
0000d990: 011a 2eb0 011a 2db0 011a 2eb0 011a 2eb0  ......-.........
0000d9a0: 011b 2eb0 011b 2db0 011b 2eb0 011b 2eb0  ......-.........
0000d9b0: 011b 2eb0 011b 0a80 435c 0090 4667 23b0  ........C\..Fg#.
0000d9c0: 011c 2eb0 011c 2eb0 011c 2eb0 011c 2db0  ..............-.
0000d9d0: 011c 2eb0 011d 2eb0 011d 2eb0 011d 2db0  ..............-.
0000d9e0: 011d 2eb0 011d 2180 4661 0090 4a74 0db0  ......!.Fa..Jt..
0000d9f0: 011e 2eb0 011e 2db0 011e 2eb0 011e 2eb0  ......-.........
0000da00: 011e 2eb0 011f 2db0 011f 2eb0 011f 2eb0  ......-.........
0000da10: 011f 2eb0 011f 2db0 011f 0a80 4a63 0090  ......-.....Jc..
0000da20: 4f6b 24b0 0120 2eb0 0120 2eb0 0120 2db0  Ok$.. ... ... -.
0000da30: 0120 2eb0 0120 2eb0 0121 2eb0 0121 2db0  . ... ...!...!-.
0000da40: 0121 2eb0 0121 2eb0 0121 2080 4f5c 0090  .!...!...! .O\..
0000da50: 5256 0eb0 0122 2db0 0122 2eb0 0122 2eb0  RV..."-.."..."..
0000da60: 0122 2eb0 0122 2db0 0123 2eb0 0123 2eb0  ."..."-..#...#..
0000da70: 0123 2eb0 0123 2db0 0123 2eb0 0123 09b0  .#...#-..#...#..
0000da80: 0124 8170 8052 6d00 ff2f 004d 5472 6b00  .$.p.Rm../.MTrk.
0000da90: 0004 0e00 ff01 1243 5320 5472 756d 7065  .......CS Trumpe
0000daa0: 7473 204c 6567 6174 6f00 b00b 7f00 b007  ts Legato.......
0000dab0: 7f86 8027 b00b 4281 48b0 0b41 8776 b00b  ...'..B.H..A.v..
0000dac0: 4224 b00b 4349 b00b 442e b00b 432d b00b  B$..CI..D...C-..
0000dad0: 422e b00b 4225 b001 0c09 b00b 4125 b001  B...B%......A%..
0000dae0: 0c09 b00b 4125 b001 0c08 b00b 4025 b001  ....A%......@%..
0000daf0: 0c09 b00b 4025 b001 0c09 b00b 3f25 b001  ....@%......?%..
0000db00: 0c09 b00b 3f25 b001 0d08 b00b 3e25 b001  ....?%......>%..
0000db10: 0d09 b00b 3e24 b00b 3e01 b001 0d2e b001  ....>$..>.......
0000db20: 0d2e b001 0d2d b001 0e2e b001 0e2e b001  .....-..........
0000db30: 0e2e b001 0e2d b001 0e2e b001 0f2e b001  .....-..........
0000db40: 0f2e b001 0f2d b001 0f2e b001 0f2e b001  .....-..........
0000db50: 102e b001 102d b001 102e b001 102e b001  .....-..........
0000db60: 102e b001 102d b001 112e b001 112e b001  .....-..........
0000db70: 112e b001 112d b001 1116 903c 3618 b001  .....-.....<6...
0000db80: 122e b001 122e b001 122d b001 122e b001  .........-......
0000db90: 1221 b001 132e b001 122e b001 122d b001  .!...........-..
0000dba0: 122e b001 122e b001 122e b001 122d b001  .............-..
0000dbb0: 122e b001 132e b001 132e b001 1416 803c  ...............<
0000dbc0: 4c00 903e 4017 b001 142e b001 132e b001  L..>@...........
0000dbd0: 132e b001 132d b001 132e b001 132e b001  .....-..........
0000dbe0: 132e b001 132d b001 132e b001 132e b001  .....-..........
0000dbf0: 132e b001 132d b001 132e b001 132e b001  .....-..........
0000dc00: 132e b001 130a 803e 4200 903c 4323 b001  .......>B..<C#..
0000dc10: 132e b001 132e b001 132e b001 132d b001  .............-..
0000dc20: 142e b001 142e b001 142e b001 142d b001  .............-..
0000dc30: 142e b001 1421 803c 6200 903f 440d b001  .....!.<b..?D...
0000dc40: 142e b001 142d b001 142e b001 142e b001  .....-..........
0000dc50: 142e b001 142d b001 142e b001 142e b001  .....-..........
0000dc60: 142e b001 142d b001 142e b001 142e b001  .....-..........
0000dc70: 152e b001 152d b001 152e b001 1515 803f  .....-.........?
0000dc80: 5000 9041 4419 b001 152e b001 152d b001  P..AD........-..
0000dc90: 152e b001 152e b001 152e b001 152d b001  .............-..
0000dca0: 152e b001 152e b001 152e b001 152b 8041  .............+.A
0000dcb0: 5500 9041 4402 b001 152e b001 152e b001  U..AD...........
0000dcc0: 152e b001 152d b001 162e b001 1609 8041  .....-.........A
0000dcd0: 5500 9043 5325 b001 162e b001 162d b001  U..CS%.......-..
0000dce0: 162e b001 162e b001 162e b001 162d b001  .............-..
0000dcf0: 162e b001 162e b001 162e b001 161f 8043  ...............C
0000dd00: 5600 903c 470e b001 162e b001 162e b001  V..<G...........
0000dd10: 162e b001 162d b001 162e b001 162c b001  .....-.......,..
0000dd20: 172d b001 172e b001 172e b001 182e b001  .-..............
0000dd30: 182d b001 192e b001 192e b001 192e b001  .-..............
0000dd40: 1a2d b001 1a16 803c 4f00 903e 4418 b001  .-.....<O..>D...
0000dd50: 1b2e b001 1b2e b001 1c2d b001 1c2e b001  .........-......
0000dd60: 1c2e b001 1d2e b001 1d2d b001 1e2e b001  .........-......
0000dd70: 1e2e b001 1f2e b001 1f2d b001 1f2e b001  .........-......
0000dd80: 202e b001 202e b001 212d b001 210a 803e   ... ...!-..!..>
0000dd90: 3e00 903f 3f24 b001 222e b001 222e b001  >..??$.."..."...
0000dda0: 222d b001 232e b001 232e b001 242e b001  "-..#...#...$...
0000ddb0: 242d b001 252e b001 252e b001 2520 803f  $-..%...%...% .?
0000ddc0: 3b00 9041 410e b001 262d b001 262e b001  ;..AA...&-..&...
0000ddd0: 272e b001 272e b001 272d b001 282e b001  '...'...'-..(...
0000dde0: 282e b001 292e b001 292d b001 2a2e b001  (...)...)-..*...
0000ddf0: 2a2e b001 2a2e b001 2b2d b001 2b2e b001  *...*...+-..+...
0000de00: 2c2e b001 2c14 8041 5000 9043 511a b001  ,...,..AP..CQ...
0000de10: 2d2d b001 2d2e b001 2d2e b001 2e2e b001  --..-...-.......
0000de20: 2e2d b001 2f2e b001 2f2e b001 302e b001  .-../.../...0...
0000de30: 302d b001 302e b001 312e b001 312e b001  0-..0...1...1...
0000de40: 322d b001 322e b001 332e b001 3308 8043  2-..2...3...3..C
0000de50: 5e00 9045 5126 b001 332d b001 342e b001  ^..EQ&..3-..4...
0000de60: 342e b001 352e b001 352d b001 362e b001  4...5...5-..6...
0000de70: 362e b001 362e b001 372d b001 371f 8045  6...6...7-..7..E
0000de80: 6700 b001 382e b001 312e b001 2b2d b001  g...8...1...+-..
0000de90: 252e b001 1e2e b001 180b b001 1700 ff2f  %............../
0000dea0: 004d 5472 6b00 0001 8f00 ff01 1a43 5320  .MTrk........CS 
0000deb0: 5472 756d 7065 7473 2041 6c6c 2028 2b52  Trumpets All (+R
0000dec0: 6570 6561 7473 2900 b00b 7f00 b007 7f87  epeats).........
0000ded0: ce5f b00b 7d12 b00b 7b12 b00b 7911 b00b  ._..}...{...y...
0000dee0: 7613 b00b 7412 b00b 7312 b00b 7212 b00b  v...t...s...r...
0000def0: 7012 b00b 6e12 b00b 6d13 b00b 6c12 b00b  p...n...m...l...
0000df00: 6b12 b00b 6812 b00b 6712 b00b 6525 b00b  k...h...g...e%..
0000df10: 6412 b00b 6212 b00b 6012 b00b 5f12 b00b  d...b...`..._...
0000df20: 5e24 b00b 5d12 b00b 5b12 b00b 5a13 b00b  ^$..]...[...Z...
0000df30: 5912 b00b 5824 b00b 5612 b00b 5524 b00b  Y...X$..V...U$..
0000df40: 5424 b00b 5213 b00b 5012 b00b 4f24 b00b  T$..R...P...O$..
0000df50: 4e24 b00b 4d5b b00b 4c24 b00b 4b48 b00b  N$..M[..L$..KH..
0000df60: 4a81 24b0 0b49 8217 901a 517c 801a 6901  J.$..I....Q|..i.
0000df70: 904a 4b00 9045 4b00 904c 4b81 7080 4a4f  .JK..EK..LK.p.JO
0000df80: 0080 4c4f 0080 454f 8360 904a 4e00 9045  ..LO..EO.`.JN..E
0000df90: 4e00 904c 4e81 7080 4a4f 0080 4c4f 0080  N..LN.p.JO..LO..
0000dfa0: 454f 8170 904a 5000 9045 5000 904c 5078  EO.p.JP..EP..LPx
0000dfb0: 804a 5d00 804c 5d00 8045 5d78 904a 5100  .J]..L]..E]x.JQ.
0000dfc0: 9045 5100 904c 5178 804a 5c00 804c 5c00  .EQ..LQx.J\..L\.
0000dfd0: 8045 5c00 9045 5100 904c 5100 904a 5178  .E\..EQ..LQ..JQx
0000dfe0: 8045 5e00 804a 5e00 804c 5e00 904c 5100  .E^..J^..L^..LQ.
0000dff0: 904a 5100 9045 5178 804c 5f00 8045 5f00  .JQ..EQx.L_..E_.
0000e000: 804a 5f00 9045 5200 904c 5200 904a 5278  .J_..ER..LR..JRx
0000e010: 8045 5f00 804a 5f00 804c 5f00 9045 5600  .E_..J_..L_..EV.
0000e020: 904c 6000 9049 5585 5080 4561 0080 4961  .L`..IU.P.Ea..Ia
0000e030: 0080 4c61 00ff 2f00 4d54 726b 0000 0052  ..La../.MTrk...R
0000e040: 00ff 0119 5346 2054 7074 7320 5368 6f72  ....SF Tpts Shor
0000e050: 7473 2028 2b52 6570 6561 7473 2900 b00b  ts (+Repeats)...
0000e060: 7f00 b00b 7f00 b00b 7f00 b00b 7f00 b00b  ................
0000e070: 7f00 b007 7f00 b007 7f00 b007 7f00 b007  ................
0000e080: 7f00 b007 7f00 9005 4081 6c80 0540 00ff  ........@.l..@..
0000e090: 2f00 4d54 726b 0000 002f 00ff 011f 4353  /.MTrk.../....CS
0000e0a0: 2054 7074 7320 416c 6c20 436f 6e20 536f   Tpts All Con So
0000e0b0: 7274 2028 2b52 6570 6561 7473 2900 b00b  rt (+Repeats)...
0000e0c0: 7f00 b007 7f00 ff2f 004d 5472 6b00 0000  ......./.MTrk...
0000e0d0: 2a00 ff01 1943 5320 5470 7473 2048 6172  *....CS Tpts Har
0000e0e0: 6d6f 6e20 4c6f 6e67 2053 686f 7274 0590  mon Long Short..
0000e0f0: 1040 816c 8010 4000 ff2f 004d 5472 6b00  .@.l..@../.MTrk.
0000e100: 0000 4400 ff01 1353 4620 5470 7473 2054  ..D....SF Tpts T
0000e110: 7269 6c6c 732d 5269 7073 00b0 0b7f 00b0  rills-Rips......
0000e120: 0b7f 00b0 0b7f 00b0 0b7f 00b0 077f 00b0  ................
0000e130: 077f 00b0 077f 00b0 077f 0090 0840 816c  .............@.l
0000e140: 8008 4000 ff2f 004d 5472 6b00 0000 2c00  ..@../.MTrk...,.
0000e150: ff01 1c43 5320 5472 756d 7065 7473 2046  ...CS Trumpets F
0000e160: 782d 436c 7573 7465 7273 2d52 6970 7300  x-Clusters-Rips.
0000e170: b00b 7f00 b007 7f00 ff2f 004d 5472 6b00  ........./.MTrk.
0000e180: 0000 5900 ff01 1853 414d 2054 7074 7320  ..Y....SAM Tpts 
0000e190: 4372 6573 6320 536c 6f77 2d46 6173 7400  Cresc Slow-Fast.
0000e1a0: b00b 7f00 b00b 7f00 b00b 7f00 b00b 7f00  ................
0000e1b0: b00b 7f00 b00b 7f00 b007 7f00 b007 7f00  ................
0000e1c0: b007 7f00 b007 7f00 b007 7f00 b007 7f00  ................
0000e1d0: 9064 4081 6c80 6440 00ff 2f00 4d54 726b  .d@.l.d@../.MTrk
0000e1e0: 0000 0045 00ff 011c 5341 4d20 5470 7473  ...E....SAM Tpts
0000e1f0: 2046 582d 4163 6365 6c20 5265 7065 7469   FX-Accel Repeti
0000e200: 7469 6f6e 00b0 0b7f 00b0 0b7f 00b0 0b7f  tion............
0000e210: 00b0 077f 00b0 077f 00b0 077f 0090 5f40  .............._@
0000e220: 816c 805f 4000 ff2f 004d 5472 6b00 0000  .l._@../.MTrk...
0000e230: 2700 ff01 1754 4845 2054 756d 7065 7420  '....THE Tumpet 
0000e240: 5374 7261 6967 6874 2d43 7570 00b0 0b7f  Straight-Cup....
0000e250: 00b0 077f 00ff 2f00 4d54 726b 0000 002a  ....../.MTrk...*
0000e260: 00ff 011a 5448 4520 5475 6d70 6574 2048  ....THE Tumpet H
0000e270: 6172 6d6f 6e2d 5374 656d 204f 7574 00b0  armon-Stem Out..
0000e280: 0b7f 00b0 077f 00ff 2f00 4d54 726b 0000  ......../.MTrk..
0000e290: 0017 00ff 0107 4d49 4449 2d32 3000 b00b  ......MIDI-20...
0000e2a0: 7f00 b007 7f00 ff2f 004d 5472 6b00 0000  ......./.MTrk...
0000e2b0: 1700 ff01 074d 4944 492d 3231 00b0 0b7f  .....MIDI-21....
0000e2c0: 00b0 077f 00ff 2f00 4d54 726b 0000 0017  ....../.MTrk....
0000e2d0: 00ff 0107 4d49 4449 2d32 3300 b00b 7f00  ....MIDI-23.....
0000e2e0: b007 7f00 ff2f 004d 5472 6b00 0000 2600  ...../.MTrk...&.
0000e2f0: ff01 1643 5320 546f 6d62 6f6e 6520 536f  ...CS Tombone So
0000e300: 6c6f 204c 6567 6174 6f00 b00b 7f00 b007  lo Legato.......
0000e310: 7f00 ff2f 004d 5472 6b00 000e 5b00 ff01  .../.MTrk...[...
0000e320: 1a43 5320 546f 6d62 6f6e 6573 2041 6c6c  .CS Tombones All
0000e330: 2028 2b52 6570 6561 7473 2900 b00b 7f00   (+Repeats).....
0000e340: b007 7f8e 45b0 0102 2db0 0102 2eb0 0102  ....E...-.......
0000e350: 2eb0 0102 2eb0 0102 2db0 0102 2eb0 0102  ........-.......
0000e360: 2eb0 0102 2eb0 0102 2db0 0102 2eb0 0102  ........-.......
0000e370: 2eb0 0102 2eb0 0102 2db0 0102 2eb0 0102  ........-.......
0000e380: 2eb0 0102 2eb0 0103 2db0 0103 2eb0 0103  ........-.......
0000e390: 2eb0 0103 2eb0 0103 2db0 0103 2eb0 0103  ........-.......
0000e3a0: 2eb0 0103 2eb0 0103 2db0 0103 2eb0 0103  ........-.......
0000e3b0: 2eb0 0103 2eb0 0103 2db0 0103 2eb0 0103  ........-.......
0000e3c0: 2eb0 0103 2eb0 0104 2db0 0104 2eb0 0104  ........-.......
0000e3d0: 2eb0 0104 2eb0 0104 2db0 0104 2eb0 0104  ........-.......
0000e3e0: 2eb0 0104 2eb0 0104 2db0 0104 2eb0 0104  ........-.......
0000e3f0: 2eb0 0104 0cb0 0b31 22b0 0104 2db0 0104  .......1"...-...
0000e400: 2eb0 0104 2eb0 0104 2eb0 0105 2db0 0105  ............-...
0000e410: 2eb0 0105 2eb0 0105 2eb0 0105 2db0 0105  ............-...
0000e420: 2eb0 0105 2eb0 0105 2eb0 0105 2db0 0105  ............-...
0000e430: 2eb0 0105 2eb0 0105 2eb0 0105 2690 1a40  ............&..@
0000e440: 07b0 0105 1d90 2c33 11b0 0105 0180 1a70  ......,3.......p
0000e450: 1280 2c5c 1890 2c3a 03b0 0105 1d80 2c4f  ..,\..,:......,O
0000e460: 11b0 0106 0b90 2c48 22b0 0106 2880 2c6b  ......,H"...(.,k
0000e470: 06b0 0106 2eb0 0106 2eb0 0106 2db0 0106  ............-...
0000e480: 2eb0 0106 2eb0 0106 2eb0 0106 2db0 0106  ............-...
0000e490: 2eb0 0106 2eb0 0106 2eb0 0106 2db0 0106  ............-...
0000e4a0: 2eb0 0106 2eb0 0107 2eb0 0107 2db0 0107  ............-...
0000e4b0: 2eb0 0107 2eb0 0107 2eb0 0107 2db0 0107  ............-...
0000e4c0: 2eb0 0107 2eb0 0107 2eb0 0107 2db0 0107  ............-...
0000e4d0: 2eb0 0107 2eb0 0107 2eb0 0107 2db0 0107  ............-...
0000e4e0: 2eb0 0107 2eb0 0108 2eb0 0108 2db0 0108  ............-...
0000e4f0: 2eb0 0108 2eb0 0108 2eb0 0108 2db0 0108  ............-...
0000e500: 2eb0 0108 2eb0 0108 2eb0 0108 2db0 0108  ............-...
0000e510: 2eb0 0108 2eb0 0108 2eb0 0108 2db0 0108  ............-...
0000e520: 2eb0 0108 2eb0 0109 2eb0 0109 2db0 0109  ............-...
0000e530: 2eb0 0109 2eb0 0109 2eb0 0109 2db0 0109  ............-...
0000e540: 2eb0 0109 2eb0 0109 2eb0 0109 2db0 0109  ............-...
0000e550: 2eb0 0109 2eb0 0109 2eb0 0109 2db0 0109  ............-...
0000e560: 2eb0 0109 2eb0 010a 2eb0 010a 2db0 010a  ............-...
0000e570: 2eb0 010a 2eb0 010a 2eb0 010a 2db0 010a  ............-...
0000e580: 2eb0 010a 2eb0 010a 2eb0 010a 2db0 010a  ............-...
0000e590: 2eb0 010a 2eb0 010a 2eb0 010a 2db0 010a  ............-...
0000e5a0: 2eb0 010b 2eb0 010b 2eb0 010b 2db0 010b  ............-...
0000e5b0: 0390 1846 2bb0 010b 2eb0 010b 2eb0 010b  ...F+...........
0000e5c0: 0890 3b01 25b0 010b 2eb0 010b 2eb0 010b  ..;.%...........
0000e5d0: 2eb0 010b 2db0 010b 2eb0 010b 0580 1862  ....-..........b
0000e5e0: 29b0 010b 2eb0 010b 2db0 010b 2eb0 010c  ).......-.......
0000e5f0: 2eb0 010c 2eb0 010c 2db0 010c 2eb0 010c  ........-.......
0000e600: 2eb0 010c 2eb0 010c 2db0 010c 2eb0 010c  ........-.......
0000e610: 2eb0 010c 2eb0 010c 2db0 010c 2eb0 010c  ........-.......
0000e620: 2eb0 010c 2eb0 010c 2db0 010c 17b0 010d  ........-.......
0000e630: 2eb0 010c 2eb0 010c 2db0 010c 2eb0 010c  ........-.......
0000e640: 2eb0 010c 2eb0 010c 2db0 010c 2eb0 010c  ........-.......
0000e650: 2eb0 010c 2eb0 010c 2db0 010c 2eb0 010c  ........-.......
0000e660: 2eb0 010c 2eb0 010c 2db0 010c 2eb0 010c  ........-.......
0000e670: 2eb0 010c 2eb0 010c 2db0 010c 2eb0 010c  ........-.......
0000e680: 2eb0 010c 2eb0 010c 2db0 010d 2eb0 010d  ........-.......
0000e690: 2eb0 010d 2eb0 010d 2db0 010d 0790 3736  ........-.....76
0000e6a0: 0090 3c36 27b0 010d 2eb0 010e 2eb0 010e  ..<6'...........
0000e6b0: 2db0 010e 0180 3b27 2db0 010e 2eb0 010e  -.....;'-.......
0000e6c0: 2eb0 010e 2db0 010f 2eb0 010f 2eb0 010f  ....-...........
0000e6d0: 2eb0 010f 2db0 010f 2eb0 010f 2eb0 010f  ....-...........
0000e6e0: 2eb0 0110 2db0 0110 2eb0 0110 2eb0 0110  ....-...........
0000e6f0: 2eb0 0110 2db0 0110 2eb0 0111 2eb0 0111  ....-...........
0000e700: 2eb0 0111 2db0 0111 2eb0 0111 2eb0 0111  ....-...........
0000e710: 2eb0 0112 2db0 0112 2eb0 0112 2eb0 0112  ....-...........
0000e720: 2eb0 0112 2db0 0112 2eb0 0113 2eb0 0113  ....-...........
0000e730: 2eb0 0113 2db0 0113 2eb0 0113 2eb0 0113  ....-...........
0000e740: 2eb0 0113 2db0 0114 2eb0 0114 2eb0 0114  ....-...........
0000e750: 2eb0 0114 2db0 0114 2eb0 0114 2eb0 0115  ....-...........
0000e760: 2eb0 0115 2db0 0115 2eb0 0115 2eb0 0115  ....-...........
0000e770: 2eb0 0115 2db0 0116 1c80 3c5b 0080 375b  ....-.....<[..7[
0000e780: 12b0 0116 2eb0 0116 2eb0 0116 2db0 0116  ............-...
0000e790: 2eb0 0116 2eb0 0117 2eb0 0117 2db0 0117  ............-...
0000e7a0: 2eb0 0117 2eb0 0117 2eb0 0117 2db0 0117  ............-...
0000e7b0: 02b0 0118 2eb0 011b 0890 1846 26b0 011e  ...........F&...
0000e7c0: 2db0 0121 2eb0 0124 0eb0 0b31 20b0 0127  -..!...$...1 ..'
0000e7d0: 0eb0 0b35 20b0 012a 0eb0 0b39 1fb0 012d  ...5 ..*...9...-
0000e7e0: 0eb0 0b3d 20b0 0130 0eb0 0b41 20b0 0133  ...= ..0...A ..3
0000e7f0: 0eb0 0b45 0bb0 0b46 0090 2e48 0090 3643  ...E...F...H..6C
0000e800: 0db0 0136 2eb0 0136 2db0 0136 2eb0 0136  ...6...6-..6...6
0000e810: 2eb0 0136 2eb0 0136 2db0 0136 2eb0 0137  ...6...6-..6...7
0000e820: 2eb0 0137 2eb0 0137 2db0 0137 2eb0 0137  ...7...7-..7...7
0000e830: 2eb0 0137 2eb0 0137 2db0 0138 2eb0 0138  ...7...7-..8...8
0000e840: 2eb0 0138 2eb0 0138 2db0 0138 2eb0 0138  ...8...8-..8...8
0000e850: 2eb0 0138 2090 2a38 0090 3363 0eb0 0139  ...8 .*8..3c...9
0000e860: 2db0 0139 1880 2e51 0080 365c 16b0 0139  -..9...Q..6\...9
0000e870: 2eb0 0139 2eb0 0139 2db0 0139 2eb0 0139  ...9...9-..9...9
0000e880: 2eb0 013a 2eb0 013a 2db0 013a 2eb0 013a  ...:...:-..:...:
0000e890: 09b0 0b46 25b0 013a 2eb0 013a 2db0 013a  ...F%..:...:-..:
0000e8a0: 2eb0 013b 2eb0 013b 2eb0 013b 2db0 013b  ...;...;...;-..;
0000e8b0: 2eb0 013b 2eb0 013b 2eb0 013b 1fb0 013c  ...;...;...;...<
0000e8c0: 00b0 0b46 0090 2b56 0090 3258 2eb0 013d  ...F..+V..2X...=
0000e8d0: 00b0 0b41 2580 2a5d 0080 334f 09b0 013d  ...A%.*]..3O...=
0000e8e0: 00b0 0b3d 2db0 0b39 00b0 013d 2eb0 013d  ...=-..9...=...=
0000e8f0: 00b0 0b35 2eb0 0b31 00b0 013d 0bb0 0b31  ...5...1...=...1
0000e900: 23b0 013d 2db0 013d 2eb0 013d 2eb0 013d  #..=-..=...=...=
0000e910: 2eb0 013d 1690 375e 0090 2e5e 1480 2b01  ...=..7^...^..+.
0000e920: 0080 324f 03b0 013d 2eb0 013d 2eb0 013d  ..2O...=...=...=
0000e930: 2eb0 013e 2db0 013e 2eb0 013e 2eb0 013e  ...>-..>...>...>
0000e940: 2eb0 013f 2db0 013f 2eb0 013f 2d80 375e  ...?-..?...?-.7^
0000e950: 0080 2e5c 0090 3a60 0090 3253 01b0 013f  ...\..:`..2S...?
0000e960: 2eb0 0140 2db0 0140 2eb0 0140 2eb0 0140  ...@-..@...@...@
0000e970: 2eb0 0140 0ab0 0141 8170 803a 5b00 8032  ...@...A.p.:[..2
0000e980: 5600 903e 1700 9037 5987 4090 2663 0090  V..>...7Y.@.&c..
0000e990: 3262 0780 3e5f 0080 3767 824a 901a 4620  2b..>_..7g.J..F 
0000e9a0: 8018 6282 3680 2667 0080 3262 2990 2645  ..b.6.&g..2b).&E
0000e9b0: 0090 3248 1f80 1a62 8126 8032 610c 8026  ..2H...b.&.2a..&
0000e9c0: 67df 6fb0 0b6f 85a4 70b0 0b6f 2eb0 0b6f  g.o..o..p..o...o
0000e9d0: 2eb0 0b70 2db0 0b70 2eb0 0b71 2eb0 0b72  ...p-..p...q...r
0000e9e0: 2eb0 0b72 2db0 0b73 2eb0 0b73 2eb0 0b74  ...r-..s...s...t
0000e9f0: 2eb0 0b75 2db0 0b75 2eb0 0b76 2eb0 0b76  ...u-..u...v...v
0000ea00: 2eb0 0b77 2db0 0b78 2eb0 0b78 2eb0 0b79  ...w-..x...x...y
0000ea10: 2eb0 0b79 2db0 0b7a 2eb0 0b7b 2eb0 0b7b  ...y-..z...{...{
0000ea20: 2eb0 0b7c 2db0 0b7d 2eb0 0b7d 2eb0 0b7e  ...|-..}...}...~
0000ea30: 2eb0 0b7e 0ab0 0b7f 984e b001 6513 b001  ...~.....N..e...
0000ea40: 6112 b001 5d12 b001 5b12 b001 5912 b001  a...]...[...Y...
0000ea50: 5748 b001 5625 b001 5524 b001 5425 b001  WH..V%..U$..T%..
0000ea60: 536c b001 5236 b001 5124 b001 506d b001  Sl..R6..Q$..Pm..
0000ea70: 4f49 b001 4e11 b001 4d5b b001 4c81 3c90  OI..N...M[..L.<.
0000ea80: 185e 3b80 186f 2bb0 014b 12b0 014a 12b0  .^;..o+..K...J..
0000ea90: 0149 25b0 0148 36b0 0147 37b0 0146 49b0  .I%..H6..G7..FI.
0000eaa0: 0145 4b90 2d56 33b0 0148 11b0 014a 12b0  .EK.-V3..H...J..
0000eab0: 014c 11b0 014d 12b0 014f 12b0 0150 12b0  .L...M...O...P..
0000eac0: 0151 23b0 0152 23b0 0153 24b0 0154 23b0  .Q#..R#..S$..T#.
0000ead0: 0155 24b0 0156 34b0 0157 24b0 0158 8154  .U$..V4..W$..X.T
0000eae0: b001 596a b001 5a58 b001 5b24 b001 5c81  ..Yj..ZX..[$..\.
0000eaf0: 0eb0 015d 46b0 015e 47b0 015f 47b0 0160  ...]F..^G.._G..`
0000eb00: 23b0 0161 24b0 0162 34b0 0163 35b0 0164  #..a$..b4..c5..d
0000eb10: 24b0 0165 35b0 0166 23b0 0167 8310 802d  $..e5..f#..g...-
0000eb20: 451f 902d 4a00 9034 4600 9039 4e81 07b0  E..-J..4F..9N...
0000eb30: 0166 8161 802d 5d00 8039 5600 8034 5b4c  .f.a.-]..9V..4[L
0000eb40: b001 6582 1c90 2d4d 0090 344e 0090 3953  ..e...-M..4N..9S
0000eb50: 8170 802d 5c00 8039 4800 8034 597b 901a  .p.-\..9H..4Y{..
0000eb60: 5849 801a 6529 b001 6403 902d 4c00 9039  XI..e)..d..-L..9
0000eb70: 4c00 9034 4c33 b001 630a 802d 6000 8034  L..4L3..c..-`..4
0000eb80: 6000 8039 601b b001 6223 b001 6125 b001  `..9`...b#..a%..
0000eb90: 6036 b001 5f1a 902d 4f00 9039 4f00 9034  `6.._..-O..9O..4
0000eba0: 4f3d 802d 6700 8034 6700 8039 673b 902d  O=.-g..4g..9g;.-
0000ebb0: 5300 9039 5300 9034 533d 802d 6100 8034  S..9S..4S=.-a..4
0000ebc0: 6100 8039 613b 902d 5600 9039 5600 9034  a..9a;.-V..9V..4
0000ebd0: 563d 802d 5f00 8034 5f00 8039 5f3b 902d  V=.-_..4_..9_;.-
0000ebe0: 5900 9039 5900 9034 593d 802d 6500 8034  Y..9Y..4Y=.-e..4
0000ebf0: 6500 8039 653b 902d 5c00 9039 5c00 9034  e..9e;.-\..9\..4
0000ec00: 5c3d 802d 6f00 8034 6f00 8039 6f82 42b0  \=.-o..4o..9o.B.
0000ec10: 015e 81d7 21b0 0159 2eb0 0158 2eb0 0158  .^..!..Y...X...X
0000ec20: 2eb0 0158 2db0 0158 2eb0 0157 2eb0 0157  ...X-..X...W...W
0000ec30: 2eb0 0157 2db0 0157 2eb0 0157 2eb0 0156  ...W-..W...W...V
0000ec40: 2eb0 0156 2db0 0156 2eb0 0156 2eb0 0155  ...V-..V...V...U
0000ec50: 2eb0 0155 2db0 0155 2eb0 0155 2eb0 0155  ...U-..U...U...U
0000ec60: 2eb0 0154 2db0 0154 2eb0 0154 2eb0 0154  ...T-..T...T...T
0000ec70: 2eb0 0153 2db0 0153 2eb0 0153 2eb0 0153  ...S-..S...S...S
0000ec80: 2eb0 0153 2db0 0152 2eb0 0152 2eb0 0152  ...S-..R...R...R
0000ec90: 2eb0 0152 2db0 0151 2eb0 0151 2eb0 0151  ...R-..Q...Q...Q
0000eca0: 2eb0 0151 2db0 0151 2eb0 0150 2eb0 0150  ...Q-..Q...P...P
0000ecb0: 2eb0 0150 2db0 0150 2eb0 014f 2eb0 014f  ...P-..P...O...O
0000ecc0: 2eb0 014f 2db0 014f 2eb0 014f 2eb0 014e  ...O-..O...O...N
0000ecd0: 2eb0 014e 2db0 014e 2eb0 014e 2eb0 014d  ...N-..N...N...M
0000ece0: 2eb0 014d 2db0 014d 2eb0 014d 2eb0 014d  ...M-..M...M...M
0000ecf0: 2eb0 014c 2db0 014c 2eb0 014c 2eb0 014c  ...L-..L...L...L
0000ed00: 2eb0 014b 2db0 014b 2eb0 014b 2eb0 014b  ...K-..K...K...K
0000ed10: 2eb0 014b 2db0 014a 2eb0 014a 2eb0 014a  ...K-..J...J...J
0000ed20: 2eb0 014a 2db0 0149 2eb0 0149 2eb0 0149  ...J-..I...I...I
0000ed30: 2eb0 0149 2db0 0149 2eb0 0148 2eb0 0148  ...I-..I...H...H
0000ed40: 2eb0 0148 2db0 0148 2eb0 0147 2eb0 0147  ...H-..H...G...G
0000ed50: 2eb0 0147 2db0 0147 2eb0 0147 2eb0 0146  ...G-..G...G...F
0000ed60: 2eb0 0146 2db0 0146 2eb0 0146 2eb0 0145  ...F-..F...F...E
0000ed70: 2eb0 0145 2db0 0145 2eb0 0145 2eb0 0145  ...E-..E...E...E
0000ed80: 2eb0 0144 2db0 0144 2eb0 0144 2eb0 0144  ...D-..D...D...D
0000ed90: 2eb0 0143 2db0 0143 2eb0 0143 2eb0 0143  ...C-..C...C...C
0000eda0: 2eb0 0143 2db0 0142 2eb0 0142 2eb0 0142  ...C-..B...B...B
0000edb0: 2eb0 0142 2db0 0142 2eb0 0141 2eb0 0141  ...B-..B...A...A
0000edc0: 2eb0 0141 2db0 0141 2eb0 0140 2eb0 0140  ...A-..A...@...@
0000edd0: 2eb0 0140 2db0 0140 2eb0 0140 2eb0 013f  ...@-..@...@...?
0000ede0: 2eb0 013f 2db0 013f 2eb0 013f 2eb0 013e  ...?-..?...?...>
0000edf0: 2eb0 013e 2db0 013e 2eb0 013e 2eb0 013e  ...>-..>...>...>
0000ee00: 04b0 013e 2eb0 013e 2eb0 013e 2eb0 013e  ...>...>...>...>
0000ee10: 2db0 013e 2eb0 013e 2eb0 013e 2eb0 013e  -..>...>...>...>
0000ee20: 2db0 013e 2eb0 013e 2eb0 013e 2eb0 013e  -..>...>...>...>
0000ee30: 2db0 013e 2eb0 013e 2eb0 013e 2eb0 013e  -..>...>...>...>
0000ee40: 2db0 013e 2eb0 013e 2eb0 013e 2eb0 013e  -..>...>...>...>
0000ee50: 2db0 013e 2eb0 013e 2eb0 013e 2eb0 013e  -..>...>...>...>
0000ee60: 2db0 013e 2eb0 013e 2eb0 013e 2eb0 013e  -..>...>...>...>
0000ee70: 2db0 013e 2390 185e 0bb0 013e 2eb0 013e  -..>#..^...>...>
0000ee80: 0280 186f 2cb0 013e 2db0 013e 2eb0 013e  ...o,..>-..>...>
0000ee90: 0890 3269 26b0 013e 2eb0 013e 2db0 013e  ..2i&..>...>-..>
0000eea0: 2eb0 013e 2eb0 013e 1390 375e 1bb0 013e  ...>...>..7^...>
0000eeb0: 2db0 013e 2eb0 013e 2eb0 013e 2eb0 013e  -..>...>...>...>
0000eec0: 1e80 325f 0fb0 013e 2eb0 013e 2eb0 013e  ..2_...>...>...>
0000eed0: 2eb0 013e 2db0 013e 2a80 375f 0090 3665  ...>-..>*.7_..6e
0000eee0: 04b0 013e 2eb0 013e 2eb0 013e 2db0 013e  ...>...>...>-..>
0000eef0: 2eb0 013e 2eb0 013e 0790 3258 27b0 013e  ...>...>..2X'..>
0000ef00: 14b0 013f 2eb0 013e 2eb0 013e 2db0 013e  ...?...>...>-..>
0000ef10: 2c80 3655 0080 325e 0090 3069 02b0 013e  ,.6U..2^..0i...>
0000ef20: 2eb0 013d 2eb0 013d 2db0 013d 2eb0 013d  ...=...=-..=...=
0000ef30: 2eb0 013c 0980 305a 0090 2f63 25b0 013c  ...<..0Z../c%..<
0000ef40: 2db0 013c 2eb0 013c 2eb0 013b 2eb0 013b  -..<...<...;...;
0000ef50: 2db0 013b 2eb0 013b 2eb0 013a 2eb0 013a  -..;...;...:...:
0000ef60: 2db0 013a 2eb0 013a 2eb0 0139 2eb0 0139  -..:...:...9...9
0000ef70: 2db0 0139 2eb0 0139 2b90 3769 03b0 0138  -..9...9+.7i...8
0000ef80: 2eb0 0138 2db0 0138 2eb0 0138 2eb0 0137  ...8-..8...8...7
0000ef90: 2eb0 0137 2db0 0137 2eb0 0137 2eb0 0136  ...7-..7...7...6
0000efa0: 2eb0 0136 2db0 0136 2eb0 0136 2eb0 0136  ...6-..6...6...6
0000efb0: 2eb0 0135 2db0 0135 2eb0 0135 1f80 375c  ...5-..5...5..7\
0000efc0: 0090 3b5b 0fb0 0135 2eb0 0134 2db0 0134  ..;[...5...4-..4
0000efd0: 2eb0 0134 2eb0 0134 2eb0 0133 2db0 0133  ...4...4...3-..3
0000efe0: 2eb0 0133 2eb0 0133 2eb0 0132 2db0 0132  ...3...3...2-..2
0000eff0: 0880 2f5c 0080 3b5e 0090 3058 0090 376d  ../\..;^..0X..7m
0000f000: 26b0 0132 2eb0 0132 2eb0 0131 2db0 0131  &..2...2...1-..1
0000f010: 2eb0 0131 2eb0 0131 2eb0 0130 2db0 0130  ...1...1...0-..0
0000f020: 2eb0 0130 2eb0 0130 2eb0 012f 2db0 012f  ...0...0.../-../
0000f030: 2eb0 012f 2eb0 012f 2eb0 012e 2980 3760  .../.../....).7`
0000f040: 0090 3963 04b0 012e 2eb0 012e 2eb0 012e  ..9c............
0000f050: 2eb0 012d 2db0 012d 2eb0 012d 2eb0 012d  ...--..-...-...-
0000f060: 2eb0 012d 2db0 012c 2eb0 012c 2eb0 012c  ...--..,...,...,
0000f070: 2eb0 012c 2db0 012b 2eb0 012b 2eb0 012b  ...,-..+...+...+
0000f080: 2eb0 012b 1d80 3058 10b0 012a 2eb0 012a  ...+..0X...*...*
0000f090: 2eb0 012a 2eb0 012a 2db0 0129 2eb0 0129  ...*...*-..)...)
0000f0a0: 2eb0 0129 2eb0 0129 2db0 0128 2eb0 0128  ...)...)-..(...(
0000f0b0: 2eb0 0128 0680 396b 0090 375e 0090 2f58  ...(..9k..7^../X
0000f0c0: 28b0 0128 2db0 0127 2eb0 0127 2eb0 0127  (..(-..'...'...'
0000f0d0: 2eb0 0127 2db0 0126 2eb0 0126 2eb0 0126  ...'-..&...&...&
0000f0e0: 2eb0 0126 2db0 0125 2eb0 0125 2eb0 0125  ...&-..%...%...%
0000f0f0: 2eb0 0125 2db0 0124 2eb0 0124 2eb0 0124  ...%-..$...$...$
0000f100: 2eb0 0124 2db0 0124 2eb0 0123 2eb0 0123  ...$-..$...#...#
0000f110: 2eb0 0123 2db0 0123 2eb0 0122 2eb0 0122  ...#-..#..."..."
0000f120: 2eb0 0122 2db0 0122 2eb0 0121 2eb0 0121  ..."-.."...!...!
0000f130: 2eb0 0121 2db0 0121 2eb0 0120 2eb0 0120  ...!-..!... ... 
0000f140: 2eb0 0120 2db0 0120 2eb0 011f 2eb0 011f  ... -.. ........
0000f150: 2eb0 011f 2db0 011f 2eb0 011e 2eb0 011e  ....-...........
0000f160: 2eb0 011e 2db0 011e 2280 2f4a 03b0 011e  ....-..."./J....
0000f170: 6580 3763 00ff 2f00 4d54 726b 0000 001f  e.7c../.MTrk....
0000f180: 00ff 010f 4353 2054 6f6d 626f 6e65 7320  ....CS Tombones 
0000f190: 466c 7400 b00b 7f00 b007 7f00 ff2f 004d  Flt........../.M
0000f1a0: 5472 6b00 0002 ce00 ff01 1253 414d 2054  Trk........SAM T
0000f1b0: 726f 6d62 6f6e 6573 204c 6f6e 6700 b00b  rombones Long...
0000f1c0: 7f00 b007 7f00 9060 5185 0980 605d 85a9  .......`Q...`]..
0000f1d0: 17b0 017f ea19 b00b 2d83 20b0 0b2c 8136  ........-. ..,.6
0000f1e0: b00b 2d12 b00b 2f11 b00b 3113 b00b 3212  ..-.../...1...2.
0000f1f0: b00b 3312 b00b 3412 b00b 3524 b00b 362e  ..3...4...5$..6.
0000f200: b00b 362e b00b 2e2e b00b 272d b00b 1f0b  ..6.......'-....
0000f210: b00b 1e2e b00b 1f2d b00b 212e b00b 222e  .......-..!...".
0000f220: b00b 242e b00b 262d b00b 272e b00b 292e  ..$...&-..'...).
0000f230: b00b 2b2e b00b 2c2d b00b 2e2e b00b 302e  ..+...,-......0.
0000f240: b00b 312e b00b 332d b00b 352e b00b 362e  ..1...3-..5...6.
0000f250: b00b 362e b00b 362d b00b 3608 9033 4700  ..6...6-..6..3G.
0000f260: 902b 4826 b00b 362e b00b 372e b00b 372d  .+H&..6...7...7-
0000f270: b00b 372e b00b 372e b00b 382e b00b 382d  ..7...7...8...8-
0000f280: b00b 382e b00b 382e b00b 382e b00b 392d  ..8...8...8...9-
0000f290: b00b 392e b00b 392e b00b 391a b00b 3a2e  ..9...9...9...:.
0000f2a0: b00b 392e b00b 382d b00b 372e b00b 362e  ..9...8-..7...6.
0000f2b0: b00b 362e b00b 352d b00b 342e b00b 332e  ..6...5-..4...3.
0000f2c0: b00b 322e b00b 322d b00b 312e b00b 302e  ..2...2-..1...0.
0000f2d0: b00b 2f2e b00b 2e2d b00b 2e2e b00b 2d2e  ../....-......-.
0000f2e0: b00b 2c2e b00b 2b2d b00b 2a2e b00b 2a2e  ..,...+-..*...*.
0000f2f0: b00b 292e b00b 282d b00b 272e b00b 262e  ..)...(-..'...&.
0000f300: b00b 262e b00b 252d b00b 241a 8033 4300  ..&...%-..$..3C.
0000f310: 802b 4900 9029 4200 9030 4314 b00b 232e  .+I..)B..0C...#.
0000f320: b00b 222e b00b 222d b00b 212e b00b 202e  .."..."-..!... .
0000f330: b00b 1f2e b00b 1e2d b00b 1e2e b00b 1d2e  .......-........
0000f340: b00b 1c2e b00b 1b2d b00b 1a2e b00b 1a2e  .......-........
0000f350: b00b 192e b00b 182d b00b 172e b00b 162e  .......-........
0000f360: b00b 162e b00b 152d b00b 142e b00b 132e  .......-........
0000f370: b00b 122e b00b 122d b00b 112e b00b 102e  .......-........
0000f380: b00b 0f2e b00b 0f2d b00b 0e2e b00b 0d2e  .......-........
0000f390: b00b 0c2e b00b 0b2d b00b 0b02 b00b 0b00  .......-........
0000f3a0: b00b 112e b00b 112e b00b 112d b00b 112e  ...........-....
0000f3b0: b00b 122e b00b 122e b00b 122d b00b 122e  ...........-....
0000f3c0: b00b 132e b00b 132e b00b 132d b00b 132e  ...........-....
0000f3d0: b00b 142e b00b 142e b00b 142d b00b 142e  ...........-....
0000f3e0: b00b 152e b00b 152e b00b 152d b00b 152e  ...........-....
0000f3f0: b00b 162e b00b 162e b00b 162d b00b 162e  ...........-....
0000f400: b00b 172e b00b 172e b00b 172d b00b 172e  ...........-....
0000f410: b00b 182e b00b 182e b00b 182d b00b 182e  ...........-....
0000f420: b00b 192e b00b 192e b00b 192d b00b 192e  ...........-....
0000f430: b00b 1a2e b00b 1a2e b00b 1a2d b00b 1a2e  ...........-....
0000f440: b00b 1b2e b00b 1b2e b00b 1b2d b00b 1b2e  ...........-....
0000f450: b00b 1c2e b00b 1c2e b00b 1c2d b00b 1c0a  ...........-....
0000f460: b00b 1d81 7080 2962 0080 3069 8550 b001  ....p.)b..0i.P..
0000f470: 7f00 ff2f 004d 5472 6b00 0000 3700 ff01  .../.MTrk...7...
0000f480: 1e53 414d 2054 726f 6d62 6f6e 6573 2043  .SAM Trombones C
0000f490: 7265 7363 2053 6c2f 4673 742f 466c 7400  resc Sl/Fst/Flt.
0000f4a0: b00b 7f00 b007 7f00 9064 5185 0980 645d  .........dQ...d]
0000f4b0: 00ff 2f00 4d54 726b 0000 004e 00ff 0113  ../.MTrk...N....
0000f4c0: 5341 4d20 5472 6f6d 626f 6e65 7320 5368  SAM Trombones Sh
0000f4d0: 6f72 7400 b00b 7f00 b007 7f9d 44b0 0b7f  ort.........D...
0000f4e0: 00b0 0b6a 860c 9060 383c 8060 603c 902c  ...j...`8<.``<.,
0000f4f0: 403c 802c 5c00 902c 433c 802c 4f00 902c  @<.,\..,C<.,O..,
0000f500: 4d83 6080 2c6b 00ff 2f00 4d54 726b 0000  M.`.,k../.MTrk..
0000f510: 0038 00ff 011f 5346 2042 2e20 5472 6f6d  .8....SF B. Trom
0000f520: 626f 6e65 204c 6f6e 6720 282b 436f 6e20  bone Long (+Con 
0000f530: 536f 7264 2900 b00b 7f00 b007 7f00 900c  Sord)...........
0000f540: 4d81 7080 0c5b 00ff 2f00 4d54 726b 0000  M.p..[../.MTrk..
0000f550: 0039 00ff 0120 5346 2042 2e20 5472 6f6d  .9... SF B. Trom
0000f560: 626f 6e65 2053 686f 7274 2028 2b43 6f6e  bone Short (+Con
0000f570: 2053 6f72 6429 00b0 0b7f 00b0 077f 0b90   Sord)..........
0000f580: 114d 8170 8011 5b00 ff2f 004d 5472 6b00  .M.p..[../.MTrk.
0000f590: 0000 1700 ff01 074d 4944 492d 3131 00b0  .......MIDI-11..
0000f5a0: 0b7f 00b0 077f 00ff 2f00 4d54 726b 0000  ......../.MTrk..
0000f5b0: 003f 00ff 0107 4d49 4449 2d31 3700 b00b  .?....MIDI-17...
0000f5c0: 7f00 b00b 7f00 b00b 7f00 b00b 7f00 b00b  ................
0000f5d0: 7f00 b00b 7f00 b007 7f00 b007 7f00 b007  ................
0000f5e0: 7f00 b007 7f00 b007 7f00 b007 7f00 ff2f  .............../
0000f5f0: 004d 5472 6b00 0000 2700 ff01 074d 4944  .MTrk...'....MID
0000f600: 492d 3138 00b0 0b7f 00b0 0b7f 00b0 0b7f  I-18............
0000f610: 00b0 077f 00b0 077f 00b0 077f 00ff 2f00  ............../.
0000f620: 4d54 726b 0000 0017 00ff 0107 4d49 4449  MTrk........MIDI
0000f630: 2d31 3900 b00b 7f00 b007 7f00 ff2f 004d  -19........../.M
0000f640: 5472 6b00 0000 1700 ff01 074d 4944 492d  Trk........MIDI-
0000f650: 3333 00b0 0b7f 00b0 077f 00ff 2f00 4d54  33........../.MT
0000f660: 726b 0000 0017 00ff 0107 4d49 4449 2d33  rk........MIDI-3
0000f670: 3400 b00b 7f00 b007 7f00 ff2f 004d 5472  4........../.MTr
0000f680: 6b00 0000 1700 ff01 074d 4944 492d 3335  k........MIDI-35
0000f690: 00b0 0b7f 00b0 077f 00ff 2f00 4d54 726b  ........../.MTrk
0000f6a0: 0000 0017 00ff 0107 4d49 4449 2d33 3600  ........MIDI-36.
0000f6b0: b00b 7f00 b007 7f00 ff2f 004d 5472 6b00  ........./.MTrk.
0000f6c0: 0003 6700 ff01 0d53 4620 5475 6261 204c  ..g....SF Tuba L
0000f6d0: 6f6e 6773 00b0 0b7f 00b0 077f 0b90 0d48  ongs...........H
0000f6e0: 8170 800d 58f8 15b0 010e 817d b001 0f00  .p..X......}....
0000f6f0: b001 052e b001 052d b001 052e b001 052e  .......-........
0000f700: b001 062e b001 062d b001 062e b001 072e  .......-........
0000f710: b001 072e b001 0717 901f 0c16 b001 082e  ................
0000f720: b001 082e b001 082e b001 092d b001 092e  ...........-....
0000f730: b001 092e b001 0a2e b001 0a2d b001 0a2e  ...........-....
0000f740: b001 0b2e 801f 4600 b001 0b00 9022 182e  ......F......"..
0000f750: b001 0b2d b001 0c2e b001 0c2e b001 0c2e  ...-............
0000f760: b001 0c2d b001 0d2e b001 0d2e b001 0d2e  ...-............
0000f770: b001 0e2d b001 0e17 8022 1400 9026 3217  ...-....."...&2.
0000f780: b001 0e2e b001 0f2e b001 0f2d b001 0f2e  ...........-....
0000f790: b001 102e b001 102e b001 102d b001 112e  ...........-....
0000f7a0: b001 112e b001 112d 8026 3d00 902b 2901  .......-.&=..+).
0000f7b0: b001 122d b001 122e b001 122e b001 132e  ...-............
0000f7c0: b001 132d b001 132e b001 132e b001 142e  ...-............
0000f7d0: b001 142d b001 142e b001 152e b001 152e  ...-............
0000f7e0: b001 152d b001 162e b001 162e b001 1618  ...-............
0000f7f0: b001 172e b001 192e b001 192e b001 1a2d  ...............-
0000f800: b001 1b2e b001 1b14 802b 3c00 b001 1c00  .........+<.....
0000f810: 9026 3984 5880 2661 86b1 40b0 0124 78b0  .&9.X.&a..@..$x.
0000f820: 0138 2eb0 013b 2eb0 013e 2db0 0141 2eb0  .8...;...>-..A..
0000f830: 0144 2eb0 013f 0bb0 013f 0090 2d49 2eb0  .D...?...?..-I..
0000f840: 013f 2eb0 013f 2db0 013f 2eb0 0140 2eb0  .?...?-..?...@..
0000f850: 0140 2eb0 0140 2db0 0140 2eb0 0141 2eb0  .@...@-..@...A..
0000f860: 0141 2eb0 0141 2db0 0141 2eb0 0142 2eb0  .A...A-..A...B..
0000f870: 0142 2eb0 0142 2db0 0143 2280 2d55 0090  .B...B-..C".-U..
0000f880: 2854 0cb0 0143 2eb0 0143 2eb0 0143 2db0  (T...C...C...C-.
0000f890: 0144 2eb0 0144 2eb0 0144 2eb0 0144 2db0  .D...D...D...D-.
0000f8a0: 0145 2eb0 0145 2eb0 0145 2eb0 0145 2db0  .E...E...E...E-.
0000f8b0: 0146 2eb0 0146 2eb0 0146 2eb0 0147 2db0  .F...F...F...G-.
0000f8c0: 0147 1680 2859 0090 215e 18b0 0147 2eb0  .G..(Y..!^...G..
0000f8d0: 0147 16b0 0148 2db0 0147 2eb0 0147 2eb0  .G...H-..G...G..
0000f8e0: 0147 2eb0 0146 2db0 0146 2eb0 0146 2eb0  .G...F-..F...F..
0000f8f0: 0145 2eb0 0145 1680 2157 0090 2d5b 17b0  .E...E..!W..-[..
0000f900: 0145 2eb0 0144 2eb0 0144 2eb0 0144 2db0  .E...D...D...D-.
0000f910: 0143 2280 2d5b 0cb0 0143 2eb0 0143 2eb0  .C".-[...C...C..
0000f920: 0142 2db0 0142 2eb0 0142 2eb0 0141 2eb0  .B-..B...B...A..
0000f930: 0141 2db0 0141 2eb0 0140 2eb0 0140 2eb0  .A-..A...@...@..
0000f940: 0140 0a90 216b 23b0 013f 2eb0 013f 2eb0  .@..!k#..?...?..
0000f950: 013f 2eb0 013e 2db0 013e 1680 215d 18b0  .?...>-..>..!]..
0000f960: 013e 2eb0 013d 2eb0 013d 2db0 013d 2eb0  .>...=...=-..=..
0000f970: 013c 2eb0 013c 2eb0 013c 2db0 013b 2eb0  .<...<...<-..;..
0000f980: 013b 2eb0 013a 2c90 216d 02b0 013a 2db0  .;...:,.!m...:-.
0000f990: 013a 2eb0 0139 2eb0 0139 2eb0 0139 2db0  .:...9...9...9-.
0000f9a0: 0138 0a80 215f 24b0 0138 2eb0 0138 2eb0  .8..!_$..8...8..
0000f9b0: 0137 2db0 0137 2eb0 0137 1590 2171 19b0  .7-..7...7..!q..
0000f9c0: 0136 2eb0 0136 2db0 0136 2eb0 0135 2eb0  .6...6-..6...5..
0000f9d0: 0135 2eb0 0135 2db0 0134 2eb0 0134 2eb0  .5...5-..4...4..
0000f9e0: 0134 2eb0 0133 2db0 0133 2eb0 0133 2eb0  .4...3-..3...3..
0000f9f0: 0132 2eb0 0132 2db0 0132 2eb0 0131 2eb0  .2...2-..2...1..
0000fa00: 0131 2eb0 0131 2db0 0130 2eb0 0130 2eb0  .1...1-..0...0..
0000fa10: 0130 1480 2163 1ab0 012f 2db0 012f 2eb0  .0..!c.../-../..
0000fa20: 012f 03b0 012f 00ff 2f00 4d54 726b 0000  ./.../../.MTrk..
0000fa30: 0086 00ff 010e 5346 2054 7562 6120 5368  ......SF Tuba Sh
0000fa40: 6f72 7473 00b0 0b7f 00b0 077f 0090 0e48  orts...........H
0000fa50: 8170 800e 589a 5cb0 0b7f 2eb0 0b78 2eb0  .p..X.\......x..
0000fa60: 0b72 1cb0 0b6f 877c 9020 5483 6080 206b  .r...o.|. T.`. k
0000fa70: ee50 901a 6b00 9026 6381 7080 1a65 0080  .P..k..&c.p..e..
0000fa80: 265e 86c9 7090 214c 7880 2160 7890 214f  &^..p.!Lx.!`x.!O
0000fa90: 7880 2167 0090 2153 7880 2161 0090 2156  x.!g..!Sx.!a..!V
0000faa0: 7880 215f 0090 2159 7880 2165 0090 215c  x.!_..!Yx.!e..!\
0000fab0: 7880 216f 00ff 2f00 4d54 726b 0000 002e  x.!o../.MTrk....
0000fac0: 00ff 0115 5341 4d20 5475 6261 204c 6f6e  ....SAM Tuba Lon
0000fad0: 6773 2d43 7265 7363 7300 b00b 7f00 b007  gs-Crescs.......
0000fae0: 7f00 9061 6081 7080 6162 00ff 2f00 4d54  ...a`.p.ab../.MT
0000faf0: 726b 0000 0115 00ff 011b 5346 2043 696d  rk........SF Cim
0000fb00: 6261 7373 6f20 4c6f 6e67 7320 282b 4375  basso Longs (+Cu
0000fb10: 6976 7265 2900 b00b 7f00 b007 7f00 900c  ivre)...........
0000fb20: 3e81 7080 0c60 87c4 3ab0 017b 12b0 0178  >.p..`..:..{...x
0000fb30: 11b0 0175 13b0 0173 11b0 0171 13b0 016f  ...u...s...q...o
0000fb40: 12b0 016d 13b0 016c 11b0 016a 12b0 0169  ...m...l...j...i
0000fb50: 13b0 0167 11b0 0165 13b0 0162 12b0 015f  ...g...e...b..._
0000fb60: 12b0 015d 13b0 015b 11b0 0159 13b0 0157  ...]...[...Y...W
0000fb70: 12b0 0154 12b0 0151 2eb0 0150 2db0 0150  ...T...Q...P-..P
0000fb80: 2eb0 0150 2eb0 0150 2eb0 0150 2db0 0150  ...P...P...P-..P
0000fb90: 0c90 2d59 22b0 014f 2eb0 014f 2eb0 014f  ..-Y"..O...O...O
0000fba0: 2db0 014f 2eb0 014f 2eb0 014f 2eb0 014e  -..O...O...O...N
0000fbb0: 2db0 014e 2eb0 014e 2eb0 014e 2eb0 014e  -..N...N...N...N
0000fbc0: 2db0 014e 2eb0 014e 11b0 014e 7880 2d61  -..N...N...Nx.-a
0000fbd0: 0090 2869 8550 8028 6000 9021 6f83 6090  ..(i.P.(`..!o.`.
0000fbe0: 2d67 8170 8021 5a83 6080 2d60 0090 2177  -g.p.!Z.`.-`..!w
0000fbf0: 8550 8021 5b00 9021 7183 6080 215b 0090  .P.![..!q.`.![..
0000fc00: 2177 8740 8021 6b00 ff2f 004d 5472 6b00  !w.@.!k../.MTrk.
0000fc10: 0001 cf00 ff01 1253 4620 4369 6d62 6173  .......SF Cimbas
0000fc20: 736f 2053 686f 7274 7300 b00b 7f00 b007  so Shorts.......
0000fc30: 7f00 9011 2c81 7080 1160 967c b00b 652e  ....,.p..`.|..e.
0000fc40: b00b 642e b00b 642d b00b 632e b00b 632e  ..d...d-..c...c.
0000fc50: b00b 622e b00b 622d b00b 622e b00b 612e  ..b...b-..b...a.
0000fc60: b00b 612e b00b 602d b00b 602e b00b 602e  ..a...`-..`...`.
0000fc70: b00b 5f2e b00b 5f13 b00b 5f85 5090 113c  .._..._..._.P..<
0000fc80: 3c80 1162 3c90 2024 3c80 205c 0090 202a  <..b<. $<. \.. *
0000fc90: 3c80 204f 0090 202a 8360 8020 6b87 9e0a  <. O.. *.`. k...
0000fca0: b00b 7912 b00b 7812 b00b 7724 b00b 765b  ..y...x...w$..v[
0000fcb0: b00b 7436 b00b 735b b00b 7248 b00b 7125  ..t6..s[..rH..q%
0000fcc0: b00b 7024 b00b 6f12 b00b 6e25 b00b 6d11  ..p$..o...n%..m.
0000fcd0: b00b 6c25 b00b 6b12 b00b 6a24 b00b 6925  ..l%..k...j$..i%
0000fce0: b00b 6824 b00b 6612 b00b 6511 b00b 6413  ..h$..f...e...d.
0000fcf0: b00b 6312 b00b 6212 b00b 6124 b00b 6013  ..c...b...a$..`.
0000fd00: b00b 5f11 b00b 5e13 b00b 5d12 b00b 5c24  .._...^...]...\$
0000fd10: b00b 5b24 b00b 5a25 b00b 5924 b00b 5836  ..[$..Z%..Y$..X6
0000fd20: b00b 5737 b00b 5624 b00b 5524 b00b 5425  ..W7..V$..U$..T%
0000fd30: b00b 5324 b00b 525b b00b 5136 b00b 5024  ..S$..R[..Q6..P$
0000fd40: b00b 4f37 b00b 4e23 b00b 4d25 b00b 4c24  ..O7..N#..M%..L$
0000fd50: b00b 4b5b b00b 4a36 b00b 4924 b00b 4824  ..K[..J6..I$..H$
0000fd60: b00b 4724 b00b 4637 b00b 455b b00b 4436  ..G$..F7..E[..D6
0000fd70: b00b 4324 b00b 4249 b00b 4124 b00b 4049  ..C$..BI..A$..@I
0000fd80: b00b 3f5a b00b 3d12 b00b 3c24 b00b 3b49  ..?Z..=...<$..;I
0000fd90: b00b 3a12 b00b 3981 6cb0 0b38 36b0 0b37  ..:...9.l..86..7
0000fda0: 8369 b00b 382e b00b 4c14 b00b 5681 7090  .i..8...L...V.p.
0000fdb0: 2122 7880 2160 7890 2125 7880 2167 0090  !"x.!`x.!%x.!g..
0000fdc0: 2129 7880 2161 0090 212c 7880 215f 0090  !)x.!a..!,x.!_..
0000fdd0: 212f 7880 2165 0090 2132 7880 216f 00ff  !/x.!e..!2x.!o..
0000fde0: 2f00 4d54 726b 0000 0032 00ff 0119 5341  /.MTrk...2....SA
0000fdf0: 4d20 4369 6d62 6173 736f 204c 6f6e 6773  M Cimbasso Longs
0000fe00: 2d43 7265 7363 7300 b00b 7f00 b007 7f00  -Crescs.........
0000fe10: 9061 3e81 7080 6160 00ff 2f00 4d54 726b  .a>.p.a`../.MTrk
0000fe20: 0000 002c 00ff 0113 5341 4d20 4369 6d62  ...,....SAM Cimb
0000fe30: 6173 736f 2053 686f 7274 7300 b00b 7f00  asso Shorts.....
0000fe40: b007 7f00 9060 3e81 7080 6060 00ff 2f00  .....`>.p.``../.
0000fe50: 4d54 726b 0000 0017 00ff 0107 4d49 4449  MTrk........MIDI
0000fe60: 2d34 3000 b00b 7f00 b007 7f00 ff2f 004d  -40........../.M
0000fe70: 5472 6b00 0000 1700 ff01 074d 4944 492d  Trk........MIDI-
0000fe80: 3431 00b0 0b7f 00b0 077f 00ff 2f00 4d54  41........../.MT
0000fe90: 726b 0000 0017 00ff 0107 4d49 4449 2d34  rk........MIDI-4
0000fea0: 3200 b00b 7f00 b007 7f00 ff2f 004d 5472  2........../.MTr
0000feb0: 6b00 0000 1700 ff01 074d 4944 492d 3439  k........MIDI-49
0000fec0: 00b0 0b7f 00b0 077f 00ff 2f00 4d54 726b  ........../.MTrk
0000fed0: 0000 0017 00ff 0107 4d49 4449 2d35 3000  ........MIDI-50.
0000fee0: b00b 7f00 b007 7f00 ff2f 004d 5472 6b00  ........./.MTrk.
0000fef0: 0000 1700 ff01 074d 4944 492d 3531 00b0  .......MIDI-51..
0000ff00: 0b7f 00b0 077f 00ff 2f00 4d54 726b 0000  ......../.MTrk..
0000ff10: 0017 00ff 0107 4d49 4449 2d35 3200 b00b  ......MIDI-52...
0000ff20: 7f00 b007 7f00 ff2f 004d 5472 6b00 0000  ......./.MTrk...
0000ff30: 3200 ff01 1953 4620 4869 2052 6970 7320  2....SF Hi Rips 
0000ff40: 616e 6420 4658 2032 2050 7273 7473 00b0  and FX 2 Prsts..
0000ff50: 0b7f 00b0 077f 0090 0347 8170 8003 4000  .........G.p..@.
0000ff60: ff2f 004d 5472 6b00 0000 3b00 ff01 1a53  ./.MTrk...;....S
0000ff70: 4620 4c6f 7720 5269 7073 2061 6e64 2046  F Low Rips and F
0000ff80: 5820 3220 5072 7374 7300 b00b 7f00 b00b  X 2 Prsts.......
0000ff90: 7f00 b007 7f00 b007 7f00 9003 4781 7080  ............G.p.
0000ffa0: 0340 00ff 2f00 4d54 726b 0000 003b 00ff  .@../.MTrk...;..
0000ffb0: 011a 5346 2046 6c74 2047 7261 6e75 6c61  ..SF Flt Granula
0000ffc0: 722c 2066 782c 2062 656e 6473 00b0 0b7f  r, fx, bends....
0000ffd0: 00b0 0b7f 00b0 077f 00b0 077f 0090 0547  ...............G
0000ffe0: 8170 8005 4000 ff2f 004d 5472 6b00 0000  .p..@../.MTrk...
0000fff0: 2100 ff01 1143 5320 5368 6f72 7420 436c  !....CS Short Cl
00010000: 7573 7465 7273 00b0 0b7f 00b0 077f 00ff  usters..........
00010010: 2f00 4d54 726b 0000 0031 00ff 0121 4353  /.MTrk...1...!CS
00010020: 2043 6c75 7374 6572 7320 4372 6573 632c   Clusters Cresc,
00010030: 2044 696d 2c20 466c 6174 2c20 5372 7400   Dim, Flat, Srt.
00010040: b00b 7f00 b007 7f00 ff2f 004d 5472 6b00  ........./.MTrk.
00010050: 0008 6700 ff01 1843 5320 436c 7573 7465  ..g....CS Cluste
00010060: 7273 2043 7265 7363 2c20 4265 6e64 7300  rs Cresc, Bends.
00010070: b00b 7f00 b007 7f81 8320 b00b 0f81 70b0  ......... ....p.
00010080: 0b0f 8a5d b00b 271c b00b 2839 b00b 2979  ...]..'...(9..)y
00010090: b00b 2a82 35b0 0b29 12b0 0b28 0ab0 0b27  ..*.5..)...(...'
000100a0: 13b0 0b26 70b0 0b24 09b0 0b23 13b0 0b22  ...&p..$...#..."
000100b0: 2fb0 0b21 12b0 0b20 38b0 0b1f 2eb0 0b1f  /..!... 8.......
000100c0: 2eb0 0b1f 2eb0 0b1e 2db0 0b1d 2eb0 0b1d  ........-.......
000100d0: 2eb0 0b1c 2eb0 0b1b 2db0 0b1b 14b0 0103  ........-.......
000100e0: 09b0 0106 09b0 0109 08b0 0b1a 01b0 010a  ................
000100f0: 09b0 010b 0ab0 010d 09b0 010e 03b0 0b1a  ................
00010100: 0590 3569 0ab0 010f 0ab0 0110 09b0 0111  ..5i............
00010110: 0cb0 0b1a 07b0 0112 13b0 0113 13b0 0114  ................
00010120: 01b0 0b1a 2db0 0b1a 27b0 0115 07b0 0b1a  ....-...'.......
00010130: 02b0 0116 0ab0 0117 09b0 0118 09b0 0119  ................
00010140: 10b0 0b1b 20b0 011b 0eb0 0b1c 0eb0 011c  .... ...........
00010150: 09b0 011d 0ab0 011e 09b0 011f 03b0 0b1d  ................
00010160: 07b0 0121 09b0 0123 0ab0 0125 09b0 0126  ...!...#...%...&
00010170: 09b0 0128 02b0 0b1e 07b0 0129 0ab0 012b  ...(.......)...+
00010180: 0ab0 012c 09b0 012d 09b0 012e 01b0 0b1e  ...,...-........
00010190: 09b0 012f 09b0 0130 0ab0 0131 09b0 0132  .../...0...1...2
000101a0: 09b0 0133 00b0 0b1f 0ab0 0135 09b0 0136  ...3.......5...6
000101b0: 0ab0 0138 09b0 0139 07b0 0b20 02b0 013b  ...8...9... ...;
000101c0: 0ab0 013d 09b0 0140 0ab0 0142 09b0 0144  ...=...@...B...D
000101d0: 06b0 0b21 04b0 0146 09b0 0148 09b0 014a  ...!...F...H...J
000101e0: 0ab0 014b 09b0 014c 05b0 0b22 05b0 014d  ...K...L..."...M
000101f0: 13b0 014e 12b0 014f 04b0 0b23 06b0 0150  ...N...O...#...P
00010200: 09b0 0151 0ab0 0153 13b0 0155 01b0 0b23  ...Q...S...U...#
00010210: 08b0 0156 0ab0 0159 09b0 015b 09b0 015d  ...V...Y...[...]
00010220: 0ab0 015e 00b0 0b24 09b0 015f 13b0 0161  ...^...$..._...a
00010230: 12b0 0b25 01b0 0162 09b0 0164 0ab0 0165  ...%...b...d...e
00010240: 09b0 0168 0ab0 0169 07b0 0b26 02b0 016a  ...h...i...&...j
00010250: 13b0 016b 18b0 0b27 2eb0 0b28 2bb0 016c  ...k...'...(+..l
00010260: 03b0 0b28 2eb0 0b29 11b0 016a 09b0 0168  ...(...)...j...h
00010270: 0ab0 0166 09b0 0164 00b0 0b2a 0ab0 0162  ...f...d...*...b
00010280: 09b0 0160 0ab0 015f 09b0 015d 08b0 0b2b  ...`..._...]...+
00010290: 02b0 015c 09b0 015a 09b0 0157 0ab0 0155  ...\...Z...W...U
000102a0: 09b0 0153 07b0 0b2c 03b0 0150 09b0 014e  ...S...,...P...N
000102b0: 09b0 014b 0ab0 0149 09b0 0147 06b0 0b2d  ...K...I...G...-
000102c0: 04b0 0146 0690 3758 03b0 0145 0ab0 0144  ...F..7X...E...D
000102d0: 16b0 0b2d 2cb0 0145 02b0 0b2e 07b0 0147  ...-,..E.......G
000102e0: 0ab0 0148 09b0 014a 0ab0 014c 09b0 014d  ...H...J...L...M
000102f0: 01b0 0b2f 08b0 014f 0ab0 0150 09b0 0151  .../...O...P...Q
00010300: 0ab0 0153 09b0 0b30 09b0 0155 0ab0 0156  ...S...0...U...V
00010310: 09b0 0157 11b0 0b31 0cb0 0159 12b0 015a  ...W...1...Y...Z
00010320: 10b0 0b32 03b0 015b 13b0 015c 18b0 0b32  ...2...[...\...2
00010330: 17b0 015d 17b0 0b33 06b0 015c 09b0 015b  ...]...3...\...[
00010340: 09b0 0159 0ab0 0156 09b0 0154 02b0 0b34  ...Y...V...T...4
00010350: 08b0 0153 09b0 0151 09b0 0150 0ab0 014f  ...S...Q...P...O
00010360: 09b0 014d 01b0 0b35 09b0 014b 09b0 0149  ...M...5...K...I
00010370: 0ab0 0146 05b0 0b36 04b0 0144 0ab0 0142  ...F...6...D...B
00010380: 09b0 0140 0ab0 013e 09b0 013d 04b0 0b35  ...@...>...=...5
00010390: 05b0 013b 09b0 0139 0ab0 0138 09b0 0136  ...;...9...8...6
000103a0: 0ab0 0135 03b0 0b34 06b0 0133 0ab0 0132  ...5...4...3...2
000103b0: 09b0 0131 0ab0 0130 09b0 012e 01b0 0b33  ...1...0.......3
000103c0: 08b0 012d 0ab0 012c 0ab0 012b 09b0 012a  ...-...,...+...*
000103d0: 09b0 0128 00b0 0b32 0ab0 0127 09b0 0126  ...(...2...'...&
000103e0: 09b0 0125 0ab0 0124 08b0 0b31 01b0 0123  ...%...$...1...#
000103f0: 0ab0 0122 09b0 0121 09b0 0120 0ab0 011f  ..."...!... ....
00010400: 07b0 0b30 0cb0 011d 21b0 0b30 2eb0 0b2f  ...0....!..0.../
00010410: 22b0 011e 09b0 0121 03b0 0b2e 07b0 0123  "......!.......#
00010420: 09b0 0126 0ab0 0128 09b0 012b 09b0 012d  ...&...(...+...-
00010430: 02b0 0b2d 08b0 012f 09b0 0130 0ab0 0131  ...-.../...0...1
00010440: 09b0 0132 09b0 0b2c 01b0 0134 09b0 0135  ...2...,...4...5
00010450: 0ab0 0137 09b0 0138 09b0 0139 08b0 0b2c  ...7...8...9...,
00010460: 02b0 013b 09b0 013c 0ab0 013e 09b0 013f  ...;...<...>...?
00010470: 0ab0 0141 06b0 0b2b 03b0 0143 0ab0 0145  ...A...+...C...E
00010480: 09b0 0146 09b0 0148 0ab0 0149 05b0 0b2a  ...F...H...I...*
00010490: 04b0 014a 0ab0 014c 09b0 014d 0ab0 014f  ...J...L...M...O
000104a0: 09b0 0151 03b0 0b29 06b0 0152 0ab0 0153  ...Q...)...R...S
000104b0: 09b0 0154 09b0 0b29 01b0 0155 09b0 0157  ...T...)...U...W
000104c0: 0ab0 0158 09b0 0159 09b0 015a 08b0 0b28  ...X...Y...Z...(
000104d0: 02b0 015b 13b0 015c 13b0 015e 06b0 0b28  ...[...\...^...(
000104e0: 03b0 015f 13b0 0160 13b0 0161 04b0 0b28  ..._...`...a...(
000104f0: 0eb0 0162 13b0 0163 0db0 0b28 06b0 0164  ...b...c...(...d
00010500: 13b0 0165 13b0 0166 02b0 0b28 08b0 0167  ...e...f...(...g
00010510: 09b0 0168 13b0 0169 0ab0 0b29 1bb0 016a  ...h...i...)...j
00010520: 12b0 0b2a 14b0 016b 1ab0 0b2b 02b0 016c  ...*...k...+...l
00010530: 13b0 016d 19b0 0b2c 2eb0 0b2c 2db0 0b2d  ...m...,...,-..-
00010540: 2eb0 0b2e 1bb0 016c 09b0 016b 0ab0 0b2f  .......l...k.../
00010550: 09b0 016a 13b0 0168 12b0 0b30 01b0 0167  ...j...h...0...g
00010560: 13b0 0166 12b0 0165 07b0 0b30 15b0 0164  ...f...e...0...d
00010570: 13b0 0163 06b0 0b31 0db0 0162 13b0 0161  ...c...1...b...a
00010580: 0eb0 0b32 0eb0 0160 1db0 015f 03b0 0b33  ...2...`..._...3
00010590: 2cb0 015e 01b0 0b34 2eb0 0b34 00b0 015d  ,..^...4...4...]
000105a0: 26b0 015c 08b0 0b35 2eb0 0b36 02b0 015b  &..\...5...6...[
000105b0: 2bb0 0b37 2eb0 0b38 18b0 015a 16b0 0b39  +..7...8...Z...9
000105c0: 1ab0 0159 14b0 0b39 0ab0 0b3a 2db0 0158  ...Y...9...:-..X
000105d0: 01b0 0b39 2db0 0157 01b0 0b39 2db0 0b38  ...9-..W...9-..8
000105e0: 00b0 0156 2db0 0156 01b0 0b37 2db0 0155  ...V-..V...7-..U
000105f0: 01b0 0b36 2db0 0155 01b0 0b35 2db0 0b34  ...6-..U...5-..4
00010600: 00b0 0154 2db0 0154 01b0 0b33 25b0 0154  ...T-..T...3%..T
00010610: 00b0 0155 09b0 0b33 2eb0 0b32 0cb0 0154  ...U...3...2...T
00010620: 21b0 0b31 0cb0 0154 22b0 0b30 0cb0 0155  !..1...T"..0...U
00010630: 22b0 0b2f 0cb0 0156 22b0 0b2e 0cb0 0157  "../...V"......W
00010640: 21b0 0b2e 0cb0 0158 22b0 0b2d 0cb0 0158  !......X"..-...X
00010650: 22b0 0b2c 0cb0 0159 22b0 0b2b 0cb0 015a  "..,...Y"..+...Z
00010660: 21b0 0b2a 0cb0 015b 22b0 0b29 0cb0 015c  !..*...["..)...\
00010670: 22b0 0b29 0cb0 015d 22b0 0b28 0cb0 015d  "..)...]"..(...]
00010680: 21b0 0b27 0cb0 015e 22b0 0b26 0cb0 015f  !..'...^"..&..._
00010690: 22b0 0b25 0cb0 0160 22b0 0b24 0cb0 0161  "..%...`"..$...a
000106a0: 21b0 0b23 0cb0 0162 22b0 0b23 0cb0 0162  !..#...b"..#...b
000106b0: 22b0 0b22 0cb0 0163 22b0 0b21 0cb0 0164  ".."...c"..!...d
000106c0: 21b0 0b20 0cb0 0165 22b0 0b1f 0cb0 0166  !.. ...e"......f
000106d0: 22b0 0b1e 0cb0 0167 22b0 0b1e 0cb0 0167  "......g"......g
000106e0: 21b0 0b1d 0cb0 0168 22b0 0b1c 0cb0 0169  !......h"......i
000106f0: 15b0 016a 0db0 0b1b 21b0 0167 0db0 0b1a  ...j....!..g....
00010700: 21b0 0164 0cb0 0b19 21b0 0162 0db0 0b19  !..d....!..b....
00010710: 21b0 015f 0db0 0b18 21b0 015d 0db0 0b17  !.._....!..]....
00010720: 21b0 015a 0cb0 0b16 21b0 0158 0db0 0b15  !..Z....!..X....
00010730: 21b0 0155 0db0 0b14 21b0 0153 0db0 0b14  !..U....!..S....
00010740: 21b0 0150 0cb0 0b13 0ab0 0b13 17b0 014e  !..P...........N
00010750: 17b0 0b13 17b0 014b 17b0 0b13 17b0 0149  .......K.......I
00010760: 16b0 0b13 18b0 0146 16b0 0b13 17b0 0144  .......F.......D
00010770: 17b0 0b13 17b0 0141 17b0 0b12 17b0 013f  .......A.......?
00010780: 16b0 0b12 18b0 013c 16b0 0b11 17b0 0139  .......<.......9
00010790: 17b0 0b11 17b0 0137 17b0 0b10 17b0 0134  .......7.......4
000107a0: 16b0 0b0f 18b0 0132 16b0 0b0f 17b0 012f  .......2......./
000107b0: 17b0 0b0e 17b0 012d 17b0 0b0d 17b0 012a  .......-.......*
000107c0: 16b0 0b0d 18b0 0128 0a80 3701 0cb0 0b0c  .......(..7.....
000107d0: 17b0 0125 17b0 0b0c 17b0 0123 17b0 0b0b  ...%.......#....
000107e0: 17b0 0121 16b0 0b0a 18b0 011f 16b0 0b0a  ...!............
000107f0: 17b0 011e 17b0 0b09 17b0 011c 17b0 0b09  ................
00010800: 17b0 011a 16b0 0b08 18b0 0119 16b0 0b07  ................
00010810: 17b0 0117 17b0 0b07 17b0 0116 17b0 0b06  ................
00010820: 17b0 0115 16b0 0b05 18b0 0114 16b0 0b05  ................
00010830: 17b0 0113 17b0 0b04 17b0 0112 17b0 0b04  ................
00010840: 17b0 0111 16b0 0b03 18b0 0110 16b0 0b02  ................
00010850: 17b0 010f 17b0 0b02 17b0 010e 17b0 0b01  ................
00010860: 17b0 010d 16b0 0b01 18b0 010d 16b0 0b00  ................
00010870: 17b0 010c 0ab0 010c 00b0 0b00 2eb0 010b  ................
00010880: 2eb0 010b 2db0 010a 2eb0 010a 2eb0 010a  ....-...........
00010890: 1080 3524 1eb0 0101 2eb0 0101 2eb0 0100  ..5$............
000108a0: 2eb0 0100 2db0 0100 16b0 0100 8f00 b00b  ....-...........
000108b0: 0081 70b0 0b0f 00ff 2f00 4d54 726b 0000  ..p...../.MTrk..
000108c0: 0027 00ff 0117 4353 204d 6f6e 7374 6572  .'....CS Monster
000108d0: 204c 6f77 2043 6c75 7374 6572 7300 b00b   Low Clusters...
000108e0: 7f00 b007 7f00 ff2f 004d 5472 6b00 0000  ......./.MTrk...
000108f0: 2100 ff01 1143 5320 4d6f 6e73 7465 7220  !....CS Monster 
00010900: 4c6f 7720 4658 00b0 0b7f 00b0 077f 00ff  Low FX..........
00010910: 2f00 4d54 726b 0000 0038 00ff 011f 5341  /.MTrk...8....SA
00010920: 4d20 436c 7573 7465 7273 2043 7265 7363  M Clusters Cresc
00010930: 2c20 4265 6e64 732c 2052 6970 7300 b00b  , Bends, Rips...
00010940: 7f00 b007 7f00 9060 5381 7080 605f 00ff  .......`S.p.`_..
00010950: 2f00 4d54 726b 0000 0028 00ff 0118 4557  /.MTrk...(....EW
00010960: 2057 6167 6e65 7220 5475 6261 7320 5269   Wagner Tubas Ri
00010970: 7073 2038 7661 00b0 0b7f 00b0 077f 00ff  ps 8va..........
00010980: 2f00 4d54 726b 0000 0017 00ff 0107 4d49  /.MTrk........MI
00010990: 4449 2d35 3600 b00b 7f00 b007 7f00 ff2f  DI-56........../
000109a0: 004d 5472 6b00 0000 1700 ff01 074d 4944  .MTrk........MID
000109b0: 492d 3537 00b0 0b7f 00b0 077f 00ff 2f00  I-57........../.
000109c0: 4d54 726b 0000 0017 00ff 0107 4d49 4449  MTrk........MIDI
000109d0: 2d35 3800 b00b 7f00 b007 7f00 ff2f 004d  -58........../.M
000109e0: 5472 6b00 0000 1700 ff01 074d 4944 492d  Trk........MIDI-
000109f0: 3635 00b0 0b7f 00b0 077f 00ff 2f00 4d54  65........../.MT
00010a00: 726b 0000 0017 00ff 0107 4d49 4449 2d36  rk........MIDI-6
00010a10: 3600 b00b 7f00 b007 7f00 ff2f 004d 5472  6........../.MTr
00010a20: 6b00 0000 1700 ff01 074d 4944 492d 3637  k........MIDI-67
00010a30: 00b0 0b7f 00b0 077f 00ff 2f00 4d54 726b  ........../.MTrk
00010a40: 0000 002a 00ff 0119 5341 4d20 4c6f 6e67  ...*....SAM Long
00010a50: 732d 4372 6573 632d 5366 7a20 4372 6573  s-Cresc-Sfz Cres
00010a60: 6300 9061 4881 7080 6158 00ff 2f00 4d54  c..aH.p.aX../.MT
00010a70: 726b 0000 0036 00ff 010a 5341 4d20 5368  rk...6....SAM Sh
00010a80: 6f72 7473 00b0 0b7f 00b0 077f 0090 6048  orts..........`H
00010a90: 8170 8060 5881 9600 901a 5900 9026 5383  .p.`X.....Y..&S.
00010aa0: 6080 1a5d 0080 265f 00ff 2f00 4d54 726b  `..]..&_../.MTrk
00010ab0: 0000 0034 00ff 011b 5341 4d20 486e 732d  ...4....SAM Hns-
00010ac0: 5462 6e73 2c20 486e 732d 5470 7473 2045  Tbns, Hns-Tpts E
00010ad0: 7069 6300 b00b 7f00 b007 7f00 9063 6081  pic..........c`.
00010ae0: 7080 6362 00ff 2f00 4d54 726b 0000 007f  p.cb../.MTrk....
00010af0: 00ff 010d 5346 204c 6f6e 6720 5368 6f72  ....SF Long Shor
00010b00: 7400 b00b 7f00 b007 7f08 9001 3e81 7080  t...........>.p.
00010b10: 0160 81a5 3190 005e 8137 9024 4600 9025  .`..1..^.7.$F..%
00010b20: 4500 9023 4683 5380 003c 817d 8023 3c00  E..#F.S..<.}.#<.
00010b30: 8025 3a00 8024 4185 5090 2445 0090 2545  .%:..$A.P.$E..%E
00010b40: 0090 2345 8550 8024 3d00 8023 3c00 8025  ..#E.P.$=..#<..%
00010b50: 2289 3090 2444 0090 2344 0090 2544 8550  ".0.$D..#D..%D.P
00010b60: 8024 5c00 8025 5700 8023 5000 ff2f 004d  .$\..%W..#P../.M
00010b70: 5472 6b00 0000 2900 ff01 1053 4620 486f  Trk...)....SF Ho
00010b80: 6c6c 6f77 2028 536f 6674 2900 b00b 7f00  llow (Soft).....
00010b90: b007 7f00 9063 3e81 7080 6360 00ff 2f00  .....c>.p.c`../.
00010ba0: 4d54 726b 0000 002b 00ff 0112 4353 2054  MTrk...+....CS T
00010bb0: 7562 612b 422e 2054 626e 2041 6c6c 00b0  uba+B. Tbn All..
00010bc0: 0b7f 00b0 077f 0090 603e 8170 8060 6000  ........`>.p.``.
00010bd0: ff2f 004d 5472 6b00 0000 2f00 ff01 1643  ./.MTrk.../....C
00010be0: 5320 4369 6d62 6173 736f 2b42 2e20 5462  S Cimbasso+B. Tb
00010bf0: 6e20 416c 6c00 b00b 7f00 b007 7f00 9060  n All..........`
00010c00: 3e81 7080 6060 00ff 2f00 4d54 726b 0000  >.p.``../.MTrk..
00010c10: 0042 00ff 0119 4353 204d 6f6e 7374 6572  .B....CS Monster
00010c20: 204c 6f77 204c 6f6e 6720 5368 6f72 7400   Low Long Short.
00010c30: b00b 7f00 b00b 7f00 b00b 7f00 b007 7f00  ................
00010c40: b007 7f00 b007 7f00 9060 3e81 7080 6060  .........`>.p.``
00010c50: 00ff 2f00 4d54 726b 0000 002d 00ff 0114  ../.MTrk...-....
00010c60: 5341 4d20 4d75 7465 6420 4c6f 6e67 2053  SAM Muted Long S
00010c70: 686f 7274 00b0 0b7f 00b0 077f 0090 615c  hort..........a\
00010c80: 8170 8061 4000 ff2f 004d 5472 6b00 0000  .p.a@../.MTrk...
00010c90: 1400 ff01 074d 4944 492d 3638 00ff 2001  .....MIDI-68.. .
00010ca0: 0900 ff2f 004d 5472 6b00 0000 1400 ff01  .../.MTrk.......
00010cb0: 074d 4944 492d 3733 00ff 2001 0e00 ff2f  .MIDI-73.. ..../
00010cc0: 004d 5472 6b00 0000 1400 ff01 074d 4944  .MTrk........MID
00010cd0: 492d 3639 00ff 2001 0a00 ff2f 004d 5472  I-69.. ..../.MTr
00010ce0: 6b00 0000 1400 ff01 074d 4944 492d 3730  k........MIDI-70
00010cf0: 00ff 2001 0b00 ff2f 004d 5472 6b00 0000  .. ..../.MTrk...
00010d00: 1400 ff01 074d 4944 492d 3731 00ff 2001  .....MIDI-71.. .
00010d10: 0c00 ff2f 004d 5472 6b00 0000 1400 ff01  .../.MTrk.......
00010d20: 074d 4944 492d 3732 00ff 2001 0d00 ff2f  .MIDI-72.. ..../
00010d30: 004d 5472 6b00 0000 1400 ff01 074d 4944  .MTrk........MID
00010d40: 492d 3734 00ff 2001 0f00 ff2f 004d 5472  I-74.. ..../.MTr
00010d50: 6b00 0002 6c00 ff01 0f53 4620 485a 3031  k...l....SF HZ01
00010d60: 2054 696d 7061 6e69 9e00 b00b 362e b00b   Timpani....6...
00010d70: 3d2e b00b 442d b00b 4b2e b00b 522e b00b  =...D-..K...R...
00010d80: 590b b00b 5b84 5890 2c54 3c80 2c6b 0090  Y...[.X.,T<.,k..
00010d90: 5c58 3c80 5c5f 0090 2c5e 3c80 2c5b d31e  \X<.\_..,^<.,[..
00010da0: b001 3282 18b0 0131 4bb0 0130 13b0 012f  ..2....1K..0.../
00010db0: 25b0 012e 4bb0 012d 54b0 012c 0ab0 012b  %...K..-T..,...+
00010dc0: 1cb0 012a 09b0 0129 09b0 0128 0ab0 0127  ...*...)...(...'
00010dd0: 09b0 0126 0ab0 0124 09b0 0123 09b0 0121  ...&...$...#...!
00010de0: 09b0 0120 0ab0 011f 09b0 011e 1cb0 011d  ... ............
00010df0: 4bb0 0b4d 0ab0 011c 24b0 0b4f 2eb0 0b51  K..M....$..O...Q
00010e00: 2db0 0b53 2eb0 0b55 2eb0 0b57 2bb0 0b5a  -..S...U...W+..Z
00010e10: 41b0 011b 1cb0 011a 816d 9043 4729 b001  A........m.CG)..
00010e20: 1b1c b001 1d09 b001 1e09 b001 1f09 b001  ................
00010e30: 2109 b001 2209 b001 230a b001 2412 b001  !..."...#...$...
00010e40: 251b b001 2709 b001 281c b001 2912 b001  %...'...(...)...
00010e50: 2a09 b001 2b12 b001 2c1c b001 2d12 b001  *...+...,...-...
00010e60: 2e1b b001 2f13 b001 301b b001 312e b001  ..../...0...1...
00010e70: 322d b001 331c b001 3412 b001 361b b001  2-..3...4...6...
00010e80: 3813 b001 391b b001 3a12 b001 3b12 b001  8...9...:...;...
00010e90: 3c13 b001 3d09 b001 3e12 b001 4025 b001  <...=...>...@%..
00010ea0: 412d b001 4225 b001 431b b001 441c b001  A-..B%..C...D...
00010eb0: 4512 b001 461b b001 4713 b001 4812 b001  E...F...G...H...
00010ec0: 4924 b001 4a2e b001 4b12 b001 4c25 b001  I$..J...K...L%..
00010ed0: 4d12 b001 4e12 b001 4f13 b001 5108 b001  M...N...O...Q...
00010ee0: 520a b001 5312 b001 5424 b001 5513 b001  R...S...T$..U...
00010ef0: 561b b001 5712 b001 5813 b001 591b b001  V...W...X...Y...
00010f00: 5a1b b001 5b13 b001 5c1b b001 5d09 b001  Z...[...\...]...
00010f10: 5e12 b001 5f13 b001 6124 b001 6312 b001  ^..._...a$..c...
00010f20: 6413 b001 661b b001 6812 b001 691c b001  d...f...h...i...
00010f30: 6a37 b001 6c1b b001 6d52 b001 6f49 b001  j7..l...mR..oI..
00010f40: 7006 8043 7d00 904a 6d28 b001 7149 b001  p..C}..Jm(..qI..
00010f50: 7212 b001 7312 b001 7409 b001 7513 b001  r...s...t...u...
00010f60: 7609 b001 7809 b001 7a09 b001 7b09 b001  v...x...z...{...
00010f70: 7d13 b001 7e09 b001 7f83 5f80 4a65 0090  }...~....._.Je..
00010f80: 327e 8550 8032 658b 2090 2459 0090 2559  2~.P.2e. .$Y..%Y
00010f90: 8170 8024 4100 8025 3a89 3090 2458 0090  .p.$A..%:.0.$X..
00010fa0: 2558 8170 8024 3d00 8025 228d 1090 245a  %X.p.$=..%"...$Z
00010fb0: 0090 2558 8170 8024 5c00 8025 5700 ff2f  ..%X.p.$\..%W../
00010fc0: 004d 5472 6b00 0000 2400 ff01 1743 5320  .MTrk...$....CS 
00010fd0: 5469 6d70 616e 6920 4861 7264 204d 616c  Timpani Hard Mal
00010fe0: 6c74 6573 00ff 2001 0100 ff2f 004d 5472  ltes.. ..../.MTr
00010ff0: 6b00 0000 2600 ff01 1943 5320 5469 6d70  k...&....CS Timp
00011000: 616e 6920 4d65 6469 756d 204d 616c 6c74  ani Medium Mallt
00011010: 6573 00ff 2001 0200 ff2f 004d 5472 6b00  es.. ..../.MTrk.
00011020: 0000 2400 ff01 1743 5320 5469 6d70 616e  ..$....CS Timpan
00011030: 6920 536f 6674 204d 616c 6c74 6573 00ff  i Soft Malltes..
00011040: 2001 0300 ff2f 004d 5472 6b00 0000 4d00   ..../.MTrk...M.
00011050: ff01 1253 5350 2042 6173 7320 4472 756d  ...SSP Bass Drum
00011060: 2053 4f46 549f 7bb0 0b53 2eb0 0b52 1cb0   SOFT.{..S...R..
00011070: 0b51 25b0 0b52 0ab0 0b53 844c 9030 369e  .Q%..R...S.L.06.
00011080: 0080 3067 d430 9030 458d 1080 3059 9e00  ..0g.0.0E...0Y..
00011090: 9030 049e 0080 304b 00ff 2f00 4d54 726b  .0....0K../.MTrk
000110a0: 0000 001e 00ff 0111 4353 2042 6173 7320  ........CS Bass 
000110b0: 4472 756d 2032 3869 6e00 ff20 0101 00ff  Drum 28in.. ....
000110c0: 2f00 4d54 726b 0000 0067 00ff 0111 4353  /.MTrk...g....CS
000110d0: 2042 6173 7320 4472 756d 2033 3669 6e9f   Bass Drum 36in.
000110e0: 32b0 0b7d 09b0 0b7e 09b0 0b7f 811f b00b  2..}...~........
000110f0: 7e12 b00b 7f4a b00b 7d13 b00b 7c1c b00b  ~....J..}...|...
00011100: 7e09 b00b 7f83 4990 3c40 8f00 803c 6df4  ~.....I.<@...<m.
00011110: 2090 3034 8170 8030 3a89 3090 3032 8170   .04.p.0:.0.02.p
00011120: 8030 228d 1090 3032 8170 8030 5700 ff2f  .0"...02.p.0W../
00011130: 004d 5472 6b00 0002 1100 ff01 0d53 5350  .MTrk........SSP
00011140: 204d 6172 6b20 5472 6565 00b0 0b00 8107   Mark Tree......
00011150: b00a 2000 b00a 1fb1 0ab0 0b00 822f b00b  .. ........../..
00011160: 062e b00b 062e b00b 072d b00b 082e b00b  .........-......
00011170: 082e b00b 092e b00b 0a2d b00b 0a2e b00b  .........-......
00011180: 0b2e b00b 0c2e b00b 0d2d b00b 0d2e b00b  .........-......
00011190: 0e2e b00b 0f2e b00b 0f2d b00b 102e b00b  .........-......
000111a0: 112e b00b 112e b00b 122d b00b 132e b00b  .........-......
000111b0: 142e b00b 142e b00b 152d b00b 162e b00b  .........-......
000111c0: 162e b00b 172e b00b 182d b00b 192e b00b  .........-......
000111d0: 192e b00b 1a2e b00b 1b2d b00b 1b16 904c  .........-.....L
000111e0: 1400 904f 1418 b00b 1c2e b00b 1d2e b00b  ...O............
000111f0: 1d2d b00b 1e2e b00b 1f2e b00b 202e b00b  .-.......... ...
00011200: 202d b00b 212e b00b 222e b00b 222e b00b   -..!..."..."...
00011210: 232d b00b 242e b00b 252e b00b 252e b00b  #-..$...%...%...
00011220: 262d b00b 272e b00b 272e b00b 282e b00b  &-..'...'...(...
00011230: 292d b00b 292e b00b 2a15 b00b 2b2e b00b  )-..)...*...+...
00011240: 2a2e b00b 2a2d b00b 2a2e b00b 2a2e b00b  *...*-..*...*...
00011250: 2a2e b00b 292d b00b 292e b00b 292e b00b  *...)-..)...)...
00011260: 292e b00b 292d b00b 282e b00b 282e b00b  )...)-..(...(...
00011270: 282e b00b 282d b00b 282e b00b 272e b00b  (...(-..(...'...
00011280: 272e b00b 272d b00b 272e b00b 272e b00b  '...'-..'...'...
00011290: 262e b00b 262d b00b 262e b00b 262e b00b  &...&-..&...&...
000112a0: 262e b00b 262d b00b 252e b00b 252e b00b  &...&-..%...%...
000112b0: 252e b00b 252d b00b 2516 804c 5900 804f  %...%-..%..LY..O
000112c0: 5918 b00b 242e b00b 242e b00b 242d b00b  Y...$...$...$-..
000112d0: 242e b00b 242e b00b 232e b00b 232d b00b  $...$...#...#-..
000112e0: 232e b00b 232e b00b 232e b00b 222d b00b  #...#...#..."-..
000112f0: 222e b00b 222e b00b 222e b00b 222d b00b  "..."..."..."-..
00011300: 222e b00b 212e b00b 212e b00b 212d b00b  "...!...!...!-..
00011310: 212e b00b 212e b00b 202e b00b 202d b00b  !...!... ... -..
00011320: 202e b00b 202e b00b 202e b00b 1f2d b00b   ... ... ....-..
00011330: 1f2e b00b 1f2e b00b 1f2e b00b 1f2b b00b  .............+..
00011340: 1fa1 73b0 0b29 00ff 2f00 4d54 726b 0000  ..s..)../.MTrk..
00011350: 0019 00ff 010c 4353 204d 6172 6b20 5472  ......CS Mark Tr
00011360: 6565 00ff 2001 0400 ff2f 004d 5472 6b00  ee.. ..../.MTrk.
00011370: 0000 1a00 ff01 0e43 5320 5375 7320 4379  .......CS Sus Cy
00011380: 6d62 616c 7300 b00b 0000 ff2f 004d 5472  mbals....../.MTr
00011390: 6b00 0001 0b00 ff01 1143 5320 4379 6d62  k........CS Cymb
000113a0: 616c 2053 6372 6170 6573 9640 b00b 002e  al Scrapes.@....
000113b0: b00b 002e b00b 002d b00b 002e b00b 002e  .......-........
000113c0: b00b 002e b00b 002d b00b 002e b00b 012e  .......-........
000113d0: b00b 012e b00b 012d b00b 012e b00b 012e  .......-........
000113e0: b00b 012e b00b 012d b00b 012e b00b 022e  .......-........
000113f0: b00b 022e b00b 022d b00b 022e b00b 022e  .......-........
00011400: b00b 022e b00b 022d b00b 022e b00b 032e  .......-........
00011410: b00b 032e b00b 032d b00b 032e b00b 032e  .......-........
00011420: b00b 032e b00b 032d b00b 032e b00b 042e  .......-........
00011430: b00b 042e b00b 042d b00b 042e b00b 042e  .......-........
00011440: b00b 042e b00b 042d b00b 042e b00b 052e  .......-........
00011450: b00b 052e b00b 052d b00b 052e b00b 052e  .......-........
00011460: b00b 052e b00b 052d b00b 052e b00b 062e  .......-........
00011470: b00b 062e b00b 062d b00b 062e b00b 069f  .......-........
00011480: 5cb0 0b06 8968 b00a 2401 b00a 248e 7090  \....h..$...$.p.
00011490: 3463 813c b00b 06a4 0480 345a 00ff 2f00  4c.<......4Z../.
000114a0: 4d54 726b 0000 0015 00ff 0108 4d49 4449  MTrk........MIDI
000114b0: 2d31 3036 00ff 2001 0700 ff2f 004d 5472  -106.. ..../.MTr
000114c0: 6b00 0001 ce00 ff01 0f53 414d 2053 7573  k........SAM Sus
000114d0: 2043 796d 6261 6c73 ea7d b00b 0085 58b0   Cymbals.}....X.
000114e0: 0b00 2eb0 0b00 2eb0 0b00 2db0 0b00 2eb0  ..........-.....
000114f0: 0b00 2eb0 0b00 2eb0 0b00 2db0 0b01 2eb0  ..........-.....
00011500: 0b01 2eb0 0b01 2eb0 0b01 2db0 0b01 2eb0  ..........-.....
00011510: 0b01 2eb0 0b01 2eb0 0b02 2db0 0b02 2eb0  ..........-.....
00011520: 0b02 2eb0 0b02 2eb0 0b02 2db0 0b02 2eb0  ..........-.....
00011530: 0b02 1890 435b 16b0 0b03 2eb0 0b03 2db0  ....C[........-.
00011540: 0b03 2eb0 0b03 2eb0 0b03 2eb0 0b03 2db0  ..............-.
00011550: 0b03 2eb0 0b04 2eb0 0b04 2eb0 0b04 2db0  ..............-.
00011560: 0b04 2eb0 0b04 2eb0 0b04 2eb0 0b04 2db0  ..............-.
00011570: 0b05 2eb0 0b05 2eb0 0b05 2eb0 0b05 2db0  ..............-.
00011580: 0b05 2eb0 0b05 2eb0 0b05 2eb0 0b06 2db0  ..............-.
00011590: 0b06 2eb0 0b06 2eb0 0b06 2eb0 0b06 2db0  ..............-.
000115a0: 0b06 2eb0 0b06 2eb0 0b07 2eb0 0b07 2db0  ..............-.
000115b0: 0b07 2eb0 0b07 2eb0 0b07 2eb0 0b07 2db0  ..............-.
000115c0: 0b07 2eb0 0b08 2eb0 0b08 2eb0 0b08 2db0  ..............-.
000115d0: 0b08 2eb0 0b08 2eb0 0b08 2eb0 0b08 2db0  ..............-.
000115e0: 0b09 2eb0 0b09 2eb0 0b09 2eb0 0b09 2db0  ..............-.
000115f0: 0b09 2eb0 0b09 2eb0 0b09 2eb0 0b0a 2db0  ..............-.
00011600: 0b0a 2eb0 0b0a 2eb0 0b0a 2eb0 0b0a 2db0  ..............-.
00011610: 0b0a 2eb0 0b0a 2eb0 0b0b 2eb0 0b0b 2db0  ..............-.
00011620: 0b0b 2eb0 0b0b 2eb0 0b0b 2eb0 0b0b 2db0  ..............-.
00011630: 0b0b 2eb0 0b0c 2eb0 0b0c 2eb0 0b0c 2db0  ..............-.
00011640: 0b0c 2eb0 0b0c 2eb0 0b0c 2eb0 0b0c 2db0  ..............-.
00011650: 0b0d 2eb0 0b0d 2eb0 0b0d 2eb0 0b0d 2db0  ..............-.
00011660: 0b0d 2eb0 0b0d 2eb0 0b0d 2eb0 0b0e 2db0  ..............-.
00011670: 0b0e 2eb0 0b0e 2eb0 0b0e 2eb0 0b0e 2db0  ..............-.
00011680: 0b0e 2eb0 0b0e 15b0 0b0f b820 8043 6700  ........... .Cg.
00011690: ff2f 004d 5472 6b00 0004 2f00 ff01 1153  ./.MTrk.../....S
000116a0: 414d 2042 6f77 6564 2043 796d 6261 6c73  AM Bowed Cymbals
000116b0: b64b b00b 0081 34b0 0b00 21b0 0b00 2eb0  .K....4...!.....
000116c0: 0b00 2eb0 0b00 2db0 0b00 2eb0 0b00 2eb0  ......-.........
000116d0: 0b00 2eb0 0b01 2db0 0b02 2eb0 0b02 2eb0  ......-.........
000116e0: 0b03 2eb0 0b03 16b0 0a13 17b0 0b04 2eb0  ................
000116f0: 0b05 2eb0 0b05 2eb0 0b06 2db0 0b06 2290  ..........-...".
00011700: 325e 0cb0 0b07 2eb0 0b08 2eb0 0b08 2db0  2^............-.
00011710: 0b09 2eb0 0b09 2eb0 0b0a 2eb0 0b0b 2db0  ..............-.
00011720: 0b0b 2eb0 0b0c 2eb0 0b0c 2eb0 0b0d 2db0  ..............-.
00011730: 0b0e 2eb0 0b0e 2eb0 0b10 2eb0 0b10 2db0  ..............-.
00011740: 0b10 2eb0 0b11 2eb0 0b11 2eb0 0b12 2db0  ..............-.
00011750: 0b12 2eb0 0b13 2eb0 0b14 2eb0 0b14 2db0  ..............-.
00011760: 0b15 2eb0 0b15 2eb0 0b16 2eb0 0b17 2db0  ..............-.
00011770: 0b17 2eb0 0b18 2eb0 0b18 2eb0 0b19 2db0  ..............-.
00011780: 0b1a 2eb0 0b1a 2eb0 0b1b 2eb0 0b1e 2db0  ..............-.
00011790: 0b1f 2eb0 0b20 2eb0 0b22 2eb0 0b23 2db0  ..... ..."...#-.
000117a0: 0b24 2eb0 0b26 2eb0 0b27 2eb0 0b28 2db0  .$...&...'...(-.
000117b0: 0b2a 2eb0 0b2b 2eb0 0b2c 2eb0 0b2e 2db0  .*...+...,....-.
000117c0: 0b2f 2eb0 0b30 2eb0 0b32 2eb0 0b33 2db0  ./...0...2...3-.
000117d0: 0b35 2eb0 0b36 2eb0 0b37 2eb0 0b39 2db0  .5...6...7...9-.
000117e0: 0b3a 2eb0 0b3b 2eb0 0b3d 2eb0 0b3e 2db0  .:...;...=...>-.
000117f0: 0b3f 2eb0 0b41 2eb0 0b42 2eb0 0b43 2db0  .?...A...B...C-.
00011800: 0b45 2eb0 0b46 2eb0 0b48 2eb0 0b49 2db0  .E...F...H...I-.
00011810: 0b4a 2bb0 0b4c 2eb0 0b4a 2eb0 0b49 2db0  .J+..L...J...I-.
00011820: 0b47 2eb0 0b46 2eb0 0b44 2eb0 0b43 2db0  .G...F...D...C-.
00011830: 0b42 2eb0 0b40 2eb0 0b3f 2eb0 0b3d 2db0  .B...@...?...=-.
00011840: 0b3c 2eb0 0b3a 2eb0 0b39 2eb0 0b38 03b0  .<...:...9...8..
00011850: 0b38 2db0 0b39 2eb0 0b39 2eb0 0b3a 2eb0  .8-..9...9...:..
00011860: 0b3a 2db0 0b3b 2eb0 0b3c 2eb0 0b3c 2eb0  .:-..;...<...<..
00011870: 0b3d 2db0 0b3d 2eb0 0b3e 2eb0 0b40 2eb0  .=-..=...>...@..
00011880: 0b40 2db0 0b40 2eb0 0b41 2eb0 0b42 2eb0  .@-..@...A...B..
00011890: 0b43 2db0 0b43 2eb0 0b44 2eb0 0b45 2eb0  .C-..C...D...E..
000118a0: 0b48 2db0 0b49 2eb0 0b4a 2eb0 0b4b 2eb0  .H-..I...J...K..
000118b0: 0b4d 2db0 0b4e 2eb0 0b4f 2eb0 0b51 2eb0  .M-..N...O...Q..
000118c0: 0b52 2db0 0b53 2eb0 0b55 2eb0 0b56 2eb0  .R-..S...U...V..
000118d0: 0b57 2db0 0b58 2eb0 0b5a 2eb0 0b5b 2eb0  .W-..X...Z...[..
000118e0: 0b5c 2db0 0b5e 2eb0 0b5f 12b0 0b60 2eb0  .\-..^..._...`..
000118f0: 0b5e 2eb0 0b5d 2db0 0b5c 2eb0 0b5b 2eb0  .^...]-..\...[..
00011900: 0b5a 2eb0 0b59 2db0 0b58 2eb0 0b57 2eb0  .Z...Y-..X...W..
00011910: 0b56 2eb0 0b55 2db0 0b54 2eb0 0b53 2eb0  .V...U-..T...S..
00011920: 0b52 2eb0 0b51 2db0 0b50 2eb0 0b4f 2eb0  .R...Q-..P...O..
00011930: 0b4e 2eb0 0b4d 2db0 0b4c 2eb0 0b4b 2eb0  .N...M-..L...K..
00011940: 0b4a 2eb0 0b49 2db0 0b47 2eb0 0b46 2eb0  .J...I-..G...F..
00011950: 0b45 2eb0 0b44 2db0 0b43 2eb0 0b42 2eb0  .E...D-..C...B..
00011960: 0b41 2eb0 0b40 2db0 0b3f 2eb0 0b3e 2eb0  .A...@-..?...>..
00011970: 0b3d 2eb0 0b3c 2db0 0b3b 2eb0 0b3a 2eb0  .=...<-..;...:..
00011980: 0b39 2eb0 0b38 2db0 0b37 2eb0 0b36 2eb0  .9...8-..7...6..
00011990: 0b35 2eb0 0b34 2db0 0b33 2eb0 0b32 2eb0  .5...4-..3...2..
000119a0: 0b30 2eb0 0b2f 2db0 0b2e 2eb0 0b2d 2eb0  .0.../-......-..
000119b0: 0b2c 2eb0 0b2b 2db0 0b2a 2eb0 0b29 2eb0  .,...+-..*...)..
000119c0: 0b28 2eb0 0b27 2db0 0b26 2eb0 0b25 2eb0  .(...'-..&...%..
000119d0: 0b24 2eb0 0b23 2db0 0b22 2eb0 0b21 2eb0  .$...#-.."...!..
000119e0: 0b20 2eb0 0b1f 2db0 0b1e 2eb0 0b1d 2eb0  . ....-.........
000119f0: 0b1c 2eb0 0b1b 2db0 0b19 2eb0 0b18 2eb0  ......-.........
00011a00: 0b17 2eb0 0b16 2db0 0b15 2eb0 0b14 2eb0  ......-.........
00011a10: 0b13 2eb0 0b12 2db0 0b11 2eb0 0b10 2eb0  ......-.........
00011a20: 0b0f 2eb0 0b0e 1f80 3260 0eb0 0b0d 2eb0  ........2`......
00011a30: 0b0c 2eb0 0b0b 2eb0 0b0a 2db0 0b09 2eb0  ..........-.....
00011a40: 0b08 2eb0 0b07 2eb0 0b06 2db0 0b05 2eb0  ..........-.....
00011a50: 0b04 2eb0 0b03 2cb0 0b02 2eb0 0b00 2db0  ......,.......-.
00011a60: 0b00 2eb0 0b00 2eb0 0b00 2eb0 0b00 2db0  ..............-.
00011a70: 0b00 2eb0 0b00 2eb0 0b00 2eb0 0b00 2db0  ..............-.
00011a80: 0b00 2eb0 0b00 2eb0 0b00 2eb0 0b00 2db0  ..............-.
00011a90: 0b00 2eb0 0b00 2eb0 0b00 2eb0 0b00 2db0  ..............-.
00011aa0: 0b00 2eb0 0b00 2eb0 0b00 2eb0 0b00 2db0  ..............-.
00011ab0: 0b00 2eb0 0b00 2eb0 0b00 2eb0 0b00 2db0  ..............-.
00011ac0: 0b00 15b0 0b00 00ff 2f00 4d54 726b 0000  ......../.MTrk..
00011ad0: 0036 00ff 010d 4661 7a69 6f6c 6920 4772  .6....Fazioli Gr
00011ae0: 616e 6400 b00b 7f00 b007 7f84 aa6e b007  and..........n..
00011af0: 5981 11b0 075a 24b0 075b 8135 b007 5c82  Y....Z$..[.5..\.
00011b00: 7db0 075b 00ff 2f00 4d54 726b 0000 0026  }..[../.MTrk...&
00011b10: 00ff 0116 5349 2047 7261 6e6e 7920 536f  ....SI Granny So
00011b20: 6674 2050 6961 6e6f 6c61 00b0 0b7f 00b0  ft Pianola......
00011b30: 077f 00ff 2f00 4d54 726b 0000 0025 00ff  ..../.MTrk...%..
00011b40: 0115 5349 2047 7261 6e6e 7920 4772 616d  ..SI Granny Gram
00011b50: 6d79 7068 6f6e 6500 b00b 7f00 b007 7f00  myphone.........
00011b60: ff2f 004d 5472 6b00 0000 2100 ff01 1154  ./.MTrk...!....T
00011b70: 4820 4861 6d6d 6572 6564 2047 7261 6e64  H Hammered Grand
00011b80: 00b0 0b7f 00b0 077f 00ff 2f00 4d54 726b  ........../.MTrk
00011b90: 0000 0020 00ff 0110 5448 2050 6c75 636b  ... ....TH Pluck
00011ba0: 6564 2047 7261 6e64 00b0 0b7f 00b0 077f  ed Grand........
00011bb0: 00ff 2f00 4d54 726b 0000 0020 00ff 0110  ../.MTrk... ....
00011bc0: 5343 2050 6c75 636b 6564 2050 6961 6e6f  SC Plucked Piano
00011bd0: 00b0 0b7f 00b0 077f 00ff 2f00 4d54 726b  ........../.MTrk
00011be0: 0000 001d 00ff 010d 5343 204d 7574 6520  ........SC Mute 
00011bf0: 5069 616e 6f00 b00b 7f00 b007 7f00 ff2f  Piano........../
00011c00: 004d 5472 6b00 0000 1e00 ff01 0e53 4320  .MTrk........SC 
00011c10: 426f 7765 6420 5069 616e 6f00 b00b 7f00  Bowed Piano.....
00011c20: b007 7f00 ff2f 004d 5472 6b00 0006 7600  ...../.MTrk...v.
00011c30: ff01 1856 696e 7461 6765 204f 7267 616e  ...Vintage Organ
00011c40: 7320 4a65 2074 2761 696d 6584 9f60 b007  s Je t'aime..`..
00011c50: 002e b007 002e b007 012d b007 012e b007  .........-......
00011c60: 022e b007 022e b007 032d b007 032e b007  .........-......
00011c70: 042e b007 042e b007 052d b007 052e b007  .........-......
00011c80: 062e b007 062e b007 072d b007 072e b007  .........-......
00011c90: 082e b007 082e b007 092d b007 092e b007  .........-......
00011ca0: 0a2d 904a 3200 904d 2a00 9046 2f01 b007  .-.J2..M*..F/...
00011cb0: 0a2e b007 0b2d b007 0b2e b007 0c2e b007  .....-..........
00011cc0: 0c2e b007 0d2d b007 0d2e b007 0e2e b007  .....-..........
00011cd0: 0f2e b007 0f2d b007 102e b007 102e b007  .....-..........
00011ce0: 112e b007 112d b007 122e b007 122e b007  .....-..........
00011cf0: 132e b007 132d b007 142e b007 142e b007  .....-..........
00011d00: 152c b00a 5b00 b00a 5b02 b007 152d b007  .,..[...[....-..
00011d10: 162e b007 162e b007 172e b007 172d b007  .............-..
00011d20: 182e b007 182e b007 192e b007 192d b007  .............-..
00011d30: 1a2e b007 1a2e b007 1b2e b007 1b2d b007  .............-..
00011d40: 1c2e b007 1c2e b007 1d2e b007 1e2d b007  .............-..
00011d50: 1e2e b007 1f01 b001 002d b007 1f2e b007  .........-......
00011d60: 202d b007 202e b007 212e b007 212e b007   -.. ...!...!...
00011d70: 222d b007 222e b007 232e b007 232e b007  "-.."...#...#...
00011d80: 242d b007 242e b007 252e b007 252e b007  $-..$...%...%...
00011d90: 262d b007 262e b007 272e b007 272e b007  &-..&...'...'...
00011da0: 282d b007 282e b007 292e b007 292e b007  (-..(...)...)...
00011db0: 2a2d b007 2a2e b007 2b2e b007 2b2e b007  *-..*...+...+...
00011dc0: 2c2d b007 2d2e b007 2d2e b007 2e2e b007  ,-..-...-.......
00011dd0: 2e2d b007 2f2e b007 2f2e b007 302e b007  .-../.../...0...
00011de0: 302d b007 312e b007 312e b007 322e b007  0-..1...1...2...
00011df0: 322d b007 332e b007 332e b007 342e b007  2-..3...3...4...
00011e00: 342d b007 352e b007 352e b007 362e b007  4-..5...5...6...
00011e10: 362d b007 372e b007 372e b007 382e b007  6-..7...7...8...
00011e20: 3807 b007 392e b007 382e b007 382d b007  8...9...8...8-..
00011e30: 382e b007 382e b007 382e b007 382d b007  8...8...8...8-..
00011e40: 382e b007 382e b007 382e b007 382d b007  8...8...8...8-..
00011e50: 382e b007 382e b007 382e b007 382d b007  8...8...8...8-..
00011e60: 382e b007 382e b007 382e b007 382d b007  8...8...8...8-..
00011e70: 382e b007 382e b007 382e b007 382d b007  8...8...8...8-..
00011e80: 382d b007 382e b007 382e b007 382e b007  8-..8...8...8...
00011e90: 382d b007 382e b007 382e b007 382e b007  8-..8...8...8...
00011ea0: 372d b007 372e b007 372e b007 372e b007  7-..7...7...7...
00011eb0: 372d b007 372e b007 372e b007 372e b007  7-..7...7...7...
00011ec0: 372d b007 362e b007 362e b007 362e b007  7-..6...6...6...
00011ed0: 362d b007 362e b007 362e b007 362e b007  6-..6...6...6...
00011ee0: 362d b007 362e b007 362e b007 352e b007  6-..6...6...5...
00011ef0: 352d b007 352e b007 352e b007 352e b007  5-..5...5...5...
00011f00: 352d b007 352e b007 352e b007 352e b007  5-..5...5...5...
00011f10: 342d b007 342e b007 342e b007 342e b007  4-..4...4...4...
00011f20: 342d b007 342e b007 342e b007 342e b007  4-..4...4...4...
00011f30: 342d b007 332e b007 332e b007 332e b007  4-..3...3...3...
00011f40: 332d b007 332e b007 332e b007 332e b007  3-..3...3...3...
00011f50: 332d b007 332e b007 332e b007 3220 804a  3-..3...3...2 .J
00011f60: 5000 8046 5000 804d 6200 904b 3600 9048  P..FP..Mb..K6..H
00011f70: 400e b007 322d b007 322e b007 322e b007  @...2-..2...2...
00011f80: 322e b007 322d b007 322e b007 322e b007  2...2-..2...2...
00011f90: 322e b007 312d b007 312e b007 312e b007  2...1-..1...1...
00011fa0: 312e b007 312d b007 312e b007 312e b007  1...1-..1...1...
00011fb0: 312e b007 312d b007 302e b007 302e b007  1...1-..0...0...
00011fc0: 302e b007 302d b007 302e b007 302e b007  0...0-..0...0...
00011fd0: 302e b007 302d b007 302e b007 3002 b007  0...0-..0...0...
00011fe0: 302e b007 312e b007 312e b007 312d b007  0...1...1...1-..
00011ff0: 312e b007 322e b007 322e b007 322d b007  1...2...2...2-..
00012000: 322e b007 322e b007 322e b007 322d b007  2...2...2...2-..
00012010: 322e b007 332e b007 332e b007 332d b007  2...3...3...3-..
00012020: 332e b007 342e b007 342e b007 342d b007  3...4...4...4-..
00012030: 342e b007 352e b007 352e b007 352d b007  4...5...5...5-..
00012040: 352e b007 352e b007 362e b007 362d b007  5...5...6...6-..
00012050: 362e b007 362e b007 372e b007 372d b007  6...6...7...7-..
00012060: 372e b007 372e b007 382e b007 382d b007  7...7...8...8-..
00012070: 382e b007 382e b007 382e b007 392d b007  8...8...8...9-..
00012080: 392e b007 392e b007 392e b007 3a2d b007  9...9...9...:-..
00012090: 3a2e b007 3a2e b007 3a2e b007 3b2d b007  :...:...:...;-..
000120a0: 3b2e b007 3b2e b007 3b2e b007 3c2d b007  ;...;...;...<-..
000120b0: 3c2e b007 3c2e b007 3c2e b007 3c2d b007  <...<...<...<-..
000120c0: 3d2e b007 3d1b 804b 6c00 8048 5e00 9046  =...=..Kl..H^..F
000120d0: 5900 904a 5800 904d 4b13 b007 3d2e b007  Y..JX..MK...=...
000120e0: 3d2d b007 3e2e b007 3e2e b007 3e2e b007  =-..>...>...>...
000120f0: 3e2d b007 3f2e b007 3f2e b007 3f2e b007  >-..?...?...?...
00012100: 3f2d b007 3f04 8046 3b00 804d 4100 b007  ?-..?..F;..MA...
00012110: 402e b007 402e b007 402d b007 412e b007  @...@...@-..A...
00012120: 412e b007 410b 804a 5700 904a 4900 9046  A...A..JW..JI..F
00012130: 5600 9041 4823 b007 422d b007 422e b007  V..AH#..B-..B...
00012140: 422e b007 432e b007 432d b007 4329 b007  B...C...C-..C)..
00012150: 442e b007 432e b007 432e b007 4326 804a  D...C...C...C&.J
00012160: 3900 8041 4900 8046 4107 b007 422e b007  9..AI..FA...B...
00012170: 422e b007 422e b007 412d b007 412e b007  B...B...A-..A...
00012180: 4104 904a 5800 904d 4d00 9046 562a b007  A..JX..MM..FV*..
00012190: 402e b007 4020 804a 5c00 8046 5b00 804d  @...@ .J\..F[..M
000121a0: 620d b007 402e b007 402e b007 3f2e b007  b...@...@...?...
000121b0: 3f2d b007 3f2e b007 3e2e b007 3e2e b007  ?-..?...>...>...
000121c0: 3e1a 9048 5800 9046 5900 9041 5600 904b  >..HX..FY..AV..K
000121d0: 6313 b007 3d2e b007 3d2e b007 3d2e b007  c...=...=...=...
000121e0: 3d2d b007 3c2e b007 3c2e b007 3c2e b007  =-..<...<...<...
000121f0: 3b2d b007 3b2e b007 3b2e b007 3a2e b007  ;-..;...;...:...
00012200: 3a2d b007 3a2e b007 3a2e b007 392e b007  :-..:...:...9...
00012210: 392d b007 392e b007 382e b007 382e b007  9-..9...8...8...
00012220: 382d b007 372e b007 372e b007 372e b007  8-..7...7...7...
00012230: 372d b007 362e b007 362e b007 362e b007  7-..6...6...6...
00012240: 352d b007 352e b007 352e b007 342e b007  5-..5...5...4...
00012250: 3402 8048 5c00 804b 6300 8041 5e00 8046  4..H\..Kc..A^..F
00012260: 652b b007 342e b007 342e b007 332e b007  e+..4...4...3...
00012270: 332d b007 332e b007 322e b007 322e b007  3-..3...2...2...
00012280: 322d b007 312e b007 312e b007 312e b007  2-..1...1...1...
00012290: 312d b007 302e b007 302e b007 301c b007  1-..0...0...0...
000122a0: 3000 ff2f 004d 5472 6b00 0002 6a00 ff01  0../.MTrk...j...
000122b0: 0f52 616e 6479 2773 2043 656c 6573 7465  .Randy's Celeste
000122c0: 00b0 0b7f 00b0 077f 83ab 40b0 077f 00b0  ..........@.....
000122d0: 0b0f 8b20 904a 1100 904d 1300 9046 1800  ... .J...M...F..
000122e0: 9062 1400 9056 1581 7080 624d 0080 564b  .b...V..p.bM..VK
000122f0: 8360 9063 1800 9057 1a85 5080 633d 0080  .`.c...W..P.c=..
00012300: 573d 8170 804a 5700 8046 3d00 804d 3b85  W=.p.JW..F=..M;.
00012310: 5090 4615 0090 4d10 0090 4b11 0090 5b11  P.F...M...K...[.
00012320: 0090 4f12 8d10 804f 2b81 7080 4d01 0080  ..O....O+.p.M...
00012330: 5b3b 0080 4b21 0080 462a 8f00 9046 1700  [;..K!..F*...F..
00012340: 904d 1700 904b 1400 9060 1700 9054 1c81  .M...K...`...T..
00012350: 7080 6042 0080 543a 8360 9062 1700 9056  p.`B..T:.`.b...V
00012360: 1c85 5080 4d28 0080 5638 0080 623b 0080  ..P.M(..V8..b;..
00012370: 4b39 0080 461c 8740 9051 1700 9046 0e00  K9..F..@.Q...F..
00012380: 904a 1100 904d 1000 905d 0f8b 2080 512f  .J...M...].. .Q/
00012390: 8170 805d 2483 6080 463d 8170 804a 2600  .p.]$.`.F=.p.J&.
000123a0: 804d 1587 40b0 0b7f f72a b040 008a 40b0  .M..@....*.@..@.
000123b0: 407f 8516 b007 5600 b007 5083 6090 5642  @.....V...P.`.VB
000123c0: 8550 9057 4c05 8056 5085 4080 5736 0b90  .P.WL..VP.@.W6..
000123d0: 5936 8100 8059 5e82 6090 5940 8170 9057  Y6...Y^.`.Y@.p.W
000123e0: 3d2d 8059 2181 0f80 5731 3490 5636 8170  =-.Y!...W14.V6.p
000123f0: 904f 4810 8056 3e85 4090 5442 6080 4f3c  .OH..V>.@.TB`.O<
00012400: 3b80 545d 8245 9054 4685 5090 5646 2e80  ;.T].E.TF.P.VF..
00012410: 545c 8522 9054 4681 0c80 5638 8167 8054  T\.".TF...V8.g.T
00012420: 4e6d 9054 4781 7090 5640 0180 5441 816f  Nm.TG.p.V@..TA.o
00012430: 9052 3a24 8056 3d81 4c90 4d46 0d80 525e  .R:$.V=.L.MF..R^
00012440: 8701 804d 5981 67b0 4000 3b90 5640 3ab0  ...MY.g.@.;.V@:.
00012450: 407f 8136 b040 7f83 6090 574c 7b80 564a  @..6.@..`.WL{.VJ
00012460: 8455 9059 3f26 8057 2a6f 8059 5b5b 9059  .U.Y?&.W*o.Y[[.Y
00012470: 3c81 0680 595e 65b0 4000 0590 593a 72b0  <...Y^e.@...Y:r.
00012480: 407f 7e90 573f 2e80 593b 8142 9056 3f0c  @.~.W?..Y;.B.V?.
00012490: 8057 4381 6490 4f46 3580 565a 851b 9054  .WC.d.OF5.VZ...T
000124a0: 475c 804f 3c82 26b0 4000 5e90 5142 3e80  G\.O<.&.@.^.QB>.
000124b0: 545c 35b0 407f 845d 9052 456a 8051 2f84  T\5.@..].REj.Q/.
000124c0: 6690 5449 2880 5251 8338 9052 3b34 b040  f.TI(.RQ.8.R;4.@
000124d0: 000e 8054 4569 b040 7f42 8052 3003 9054  ...TEi.@.B.R0..T
000124e0: 4581 7090 5144 3b80 5431 8135 904f 5669  E.p.QD;.T1.5.OVi
000124f0: 8051 5d81 0a80 4f5b 816d 904f 4b42 b040  .Q]...O[.m.OKB.@
00012500: 0081 2e90 4d58 59b0 407f 0480 4f4f 843d  ....MXY.@...OO.=
00012510: 804d 6700 ff2f 004d 5472 6b00 0001 8e00  .Mg../.MTrk.....
00012520: ff01 0a4e 4920 4365 6c65 7374 6100 b00b  ...NI Celesta...
00012530: 7f00 b007 7f82 d70c b040 7f82 50b0 407f  .........@..P.@.
00012540: 8622 b040 7f81 6e90 3c26 0190 351e 0790  .".@..n.<&..5...
00012550: 3925 0590 451e 8348 8045 112d 9048 2684  9%..E..H.E.-.H&.
00012560: 7280 3920 0980 3c01 1680 3501 2e80 485a  r.9 ..<...5...HZ
00012570: 8212 9045 1383 4190 351a 0390 4327 0a90  ...E..A.5...C'..
00012580: 3a1a 0890 3e16 4c80 452f 8876 8035 1f07  :...>.L.E/.v.5..
00012590: 803e 010d 803a 1182 4390 3520 0390 4a22  .>...:..C.5 ..J"
000125a0: 0290 3e20 0590 3a1e 811a 8043 1c82 4090  ..> ..:....C..@.
000125b0: 4d26 0180 4a41 8562 803a 5d07 803e 5c0a  M&..JA.b.:]..>\.
000125c0: 804d 5b05 8035 5825 904a 2284 5690 3913  .M[..5X%.J".V.9.
000125d0: 0090 4811 0090 4d17 0090 3511 0090 3c15  ..H...M...5...<.
000125e0: 0090 4515 3080 4a01 8e0b b040 7f02 8048  ..E.0.J....@...H
000125f0: 5a0c 8045 5213 804d 5d08 8039 0104 803c  Z..ER..M]..9...<
00012600: 521f 8035 5c81 8c13 b007 5286 77b0 4000  R..5\.....R.w.@.
00012610: 8429 b007 5294 38b0 407f 8758 904a 2f00  .)..R.8.@..X.J/.
00012620: 9056 2f81 7080 4a3c 0080 563c 0090 4d31  .V/.p.J<..V<..M1
00012630: 0090 5931 8170 804d 4800 8059 4800 9056  ..Y1.p.MH..YH..V
00012640: 3500 904a 3581 7080 563a 0080 4a3a 0090  5..J5.p.V:..J:..
00012650: 4d37 0090 5937 8170 804d 5900 8059 59b2  M7..Y7.p.MY..YY.
00012660: 50b0 4000 8170 9056 3800 904a 3781 7080  P.@..p.V8..J7.p.
00012670: 5630 0080 4a43 0090 593b 0090 4d3b 8170  V0..JC..Y;..M;.p
00012680: 8059 3b00 804d 4000 9056 3e00 904a 3e81  .Y;..M@..V>..J>.
00012690: 7080 5630 0080 4a40 0090 5444 0090 4843  p.V0..J@..TD..HC
000126a0: 8930 8054 5900 8048 5600 ff2f 004d 5472  .0.TY..HV../.MTr
000126b0: 6b00 0001 1200 ff01 0d53 4620 4365 6c65  k........SF Cele
000126c0: 7374 6520 7634 00b0 0b7f 00b0 077f 81d9  ste v4..........
000126d0: 40b0 0b7f 00b0 0b7f 8132 b00b 7d18 b00b  @........2..}...
000126e0: 7c10 b00b 7b18 b00b 7a10 b00b 7910 b00b  |...{...z...y...
000126f0: 7808 b00b 7708 b00b 7608 b00b 7520 b00b  x...w...v...u ..
00012700: 7408 b00b 7310 b00b 7220 b00b 7118 b00b  t...s...r ..q...
00012710: 7018 b00b 6f18 b00b 6d10 b00b 6c11 b00b  p...o...m...l...
00012720: 6a0f b00b 6911 b00b 670f b00b 6609 b00b  j...i...g...f...
00012730: 6508 b00b 642d b00b 652e b00b 662e b00b  e...d-..e...f...
00012740: 681c b040 7f12 b00b 692d b00b 6b2e b00b  h..@....i-..k...
00012750: 6d2e b00b 6e2e b00b 702d b00b 722e b00b  m...n...p-..r...
00012760: 7325 b00b 7582 1f90 541d 883f 8054 3b8b  s%..u...T..?.T;.
00012770: 0990 5624 8170 8056 3d00 9054 2881 7080  ..V$.p.V=..T(.p.
00012780: 545f 0090 5925 8170 8059 4a83 6090 582b  T_..Y%.p.YJ.`.X+
00012790: 8170 8058 1300 9054 2981 7080 5451 8550  .p.X...T).p.TQ.P
000127a0: 9052 2c81 7080 5221 0090 512a 8170 8051  .R,.p.R!..Q*.p.Q
000127b0: 5800 904f 2c81 7080 4f5b 8632 b040 0014  X..O,.p.O[.2.@..
000127c0: b040 0000 ff2f 004d 5472 6b00 0000 2300  .@.../.MTrk...#.
000127d0: ff01 134d 7573 6963 2062 6f78 2072 6573  ...Music box res
000127e0: 6f6e 6174 6f72 00b0 0b7f 00b0 077f 00ff  onator..........
000127f0: 2f00 4d54 726b 0000 0023 00ff 0113 4d75  /.MTrk...#....Mu
00012800: 7369 6320 626f 7820 6472 7920 636c 6561  sic box dry clea
00012810: 6e00 b00b 7f00 b007 7f00 ff2f 004d 5472  n........../.MTr
00012820: 6b00 0001 2000 ff01 0e53 4320 4d75 7369  k... ....SC Musi
00012830: 6320 626f 7820 3100 b00b 7f00 b007 7f82  c box 1.........
00012840: d364 b007 0608 b007 0e08 b007 1608 b007  .d..............
00012850: 1808 b007 0d08 b007 00a9 4990 4158 3c90  ..........I.AX<.
00012860: 3a40 0590 3c58 0190 354e 6db0 0700 2eb0  :@..<X..5Nm.....
00012870: 0702 2db0 0705 2eb0 0708 2eb0 070b 2eb0  ..-.............
00012880: 070e 2db0 0710 2eb0 0713 2eb0 0716 2eb0  ..-.............
00012890: 0719 2db0 071c 2eb0 071e 2eb0 0721 2eb0  ..-..........!..
000128a0: 0724 2db0 0727 2eb0 072a 2eb0 072c 2eb0  .$-..'...*...,..
000128b0: 072f 2db0 0732 2eb0 0735 2eb0 0738 2eb0  ./-..2...5...8..
000128c0: 073b 2db0 073d 2eb0 0740 2eb0 0743 2eb0  .;-..=...@...C..
000128d0: 0746 2db0 0749 2eb0 074b 2eb0 074e 2eb0  .F-..I...K...N..
000128e0: 0751 2db0 0754 2eb0 0757 2eb0 0759 2eb0  .Q-..T...W...Y..
000128f0: 075c 2db0 075f 2eb0 0762 2eb0 0765 2eb0  .\-.._...b...e..
00012900: 0768 2db0 076a 2eb0 076d 2eb0 0770 2eb0  .h-..j...m...p..
00012910: 0773 2db0 0776 2eb0 0778 2eb0 077b 2eb0  .s-..v...x...{..
00012920: 077e 07b0 077f 8a3d b007 7f8a 1ab0 077f  .~.....=........
00012930: 890a 8041 5c3a 803a 6901 8035 5f06 803c  ...A\:.:i..5_..<
00012940: 5c00 ff2f 004d 5472 6b00 0000 1e00 ff01  \../.MTrk.......
00012950: 0e53 4320 4d75 7369 6320 626f 7820 3200  .SC Music box 2.
00012960: b00b 7f00 b007 7f00 ff2f 004d 5472 6b00  ........./.MTrk.
00012970: 0000 2200 ff01 1253 4320 4d75 7369 6320  .."....SC Music 
00012980: 626f 7820 6c61 7965 7200 b00b 7f00 b007  box layer.......
00012990: 7f00 ff2f 004d 5472 6b00 0000 1b00 ff01  .../.MTrk.......
000129a0: 0b38 4420 506f 6c79 7068 6f6e 00b0 0b7f  .8D Polyphon....
000129b0: 00b0 077f 00ff 2f00 4d54 726b 0000 0020  ....../.MTrk... 
000129c0: 00ff 0110 3844 2057 7265 6e63 6865 6e73  ....8D Wrenchens
000129d0: 7069 656c 00b0 0b7f 00b0 077f 00ff 2f00  piel........../.
000129e0: 4d54 726b 0000 001b 00ff 010b 4349 2053  MTrk........CI S
000129f0: 7069 656c 6875 7200 b00b 7f00 b007 7f00  pielhur.........
00012a00: ff2f 004d 5472 6b00 0000 2900 ff01 194b  ./.MTrk...)....K
00012a10: 696e 6465 726b 6c61 7669 6572 2046 756c  inderklavier Ful
00012a20: 6c20 6d61 7374 6572 00b0 0b7f 00b0 077f  l master........
00012a30: 00ff 2f00 4d54 726b 0000 0019 00ff 0107  ../.MTrk........
00012a40: 4d49 4449 2d38 3783 a400 b00b 7f00 b007  MIDI-87.........
00012a50: 7f00 ff2f 004d 5472 6b00 0000 1900 ff01  .../.MTrk.......
00012a60: 074d 4944 492d 3838 83a4 00b0 0b7f 00b0  .MIDI-88........
00012a70: 077f 00ff 2f00 4d54 726b 0000 0019 00ff  ..../.MTrk......
00012a80: 0107 4d49 4449 2d38 3983 a400 b00b 7f00  ..MIDI-89.......
00012a90: b007 7f00 ff2f 004d 5472 6b00 0000 1400  ...../.MTrk.....
00012aa0: ff01 074d 4944 492d 3339 00ff 2001 0800  ...MIDI-39.. ...
00012ab0: ff2f 004d 5472 6b00 0000 1400 ff01 074d  ./.MTrk........M
00012ac0: 4944 492d 3735 00ff 2001 0900 ff2f 004d  IDI-75.. ..../.M
00012ad0: 5472 6b00 0000 1400 ff01 074d 4944 492d  Trk........MIDI-
00012ae0: 3736 00ff 2001 0a00 ff2f 004d 5472 6b00  76.. ..../.MTrk.
00012af0: 0000 1400 ff01 074d 4944 492d 3737 00ff  .......MIDI-77..
00012b00: 2001 0b00 ff2f 004d 5472 6b00 0000 1400   ..../.MTrk.....
00012b10: ff01 074d 4944 492d 3738 00ff 2001 0c00  ...MIDI-78.. ...
00012b20: ff2f 004d 5472 6b00 0000 1400 ff01 074d  ./.MTrk........M
00012b30: 4944 492d 3739 00ff 2001 0d00 ff2f 004d  IDI-79.. ..../.M
00012b40: 5472 6b00 0000 1400 ff01 074d 4944 492d  Trk........MIDI-
00012b50: 3830 00ff 2001 0e00 ff2f 004d 5472 6b00  80.. ..../.MTrk.
00012b60: 0000 1400 ff01 074d 4944 492d 3831 00ff  .......MIDI-81..
00012b70: 2001 0f00 ff2f 004d 5472 6b00 0034 f900   ..../.MTrk..4..
00012b80: ff01 114c 4120 4337 2047 7261 6e64 2050  ...LA C7 Grand P
00012b90: 6961 6e6f 00b0 0737 2eb0 0736 2eb0 0736  iano...7...6...6
00012ba0: 2db0 0736 2eb0 0736 2eb0 0736 2eb0 0736  -..6...6...6...6
00012bb0: 2db0 0736 2eb0 0736 2eb0 0736 2eb0 0736  -..6...6...6...6
00012bc0: 2db0 0736 2eb0 0736 2eb0 0736 2eb0 0736  -..6...6...6...6
00012bd0: 2db0 0736 2eb0 0736 2eb0 0736 2eb0 0736  -..6...6...6...6
00012be0: 2db0 0736 2eb0 0736 2eb0 0736 2eb0 0736  -..6...6...6...6
00012bf0: 2db0 0736 2eb0 0736 2eb0 0736 2eb0 0736  -..6...6...6...6
00012c00: 2db0 0736 2eb0 0736 2eb0 0736 2eb0 0736  -..6...6...6...6
00012c10: 2db0 0736 2eb0 0736 2eb0 0736 2eb0 0736  -..6...6...6...6
00012c20: 2db0 0736 2eb0 0736 2eb0 0736 2eb0 0736  -..6...6...6...6
00012c30: 2db0 0736 2eb0 0736 2eb0 0736 2eb0 0736  -..6...6...6...6
00012c40: 2db0 0736 2eb0 0736 2eb0 0736 2eb0 0736  -..6...6...6...6
00012c50: 2db0 0736 2eb0 0736 2eb0 0736 2eb0 0736  -..6...6...6...6
00012c60: 2db0 0736 2eb0 0736 2eb0 0736 2eb0 0736  -..6...6...6...6
00012c70: 2db0 0736 2eb0 0736 2eb0 0736 2eb0 0736  -..6...6...6...6
00012c80: 2db0 0736 2eb0 0736 2eb0 0736 2eb0 0736  -..6...6...6...6
00012c90: 2db0 0736 2eb0 0736 2eb0 0736 2eb0 0736  -..6...6...6...6
00012ca0: 2db0 0736 2eb0 0736 2eb0 0736 2eb0 0736  -..6...6...6...6
00012cb0: 2db0 0736 2eb0 0736 2eb0 0736 2eb0 0736  -..6...6...6...6
00012cc0: 2db0 0736 2eb0 0736 2eb0 0736 2eb0 0736  -..6...6...6...6
00012cd0: 2db0 0736 2eb0 0736 2eb0 0736 2eb0 0736  -..6...6...6...6
00012ce0: 2db0 0736 2eb0 0736 2eb0 0736 2eb0 0736  -..6...6...6...6
00012cf0: 2db0 0736 2eb0 0736 2eb0 0736 2eb0 0736  -..6...6...6...6
00012d00: 2db0 0736 2eb0 0736 2eb0 0736 2eb0 0736  -..6...6...6...6
00012d10: 2db0 0736 2eb0 0736 2eb0 0736 2eb0 0736  -..6...6...6...6
00012d20: 2db0 0736 2eb0 0736 2eb0 0736 2eb0 0736  -..6...6...6...6
00012d30: 2db0 0736 2eb0 0736 2eb0 0736 2eb0 0736  -..6...6...6...6
00012d40: 2db0 0736 2eb0 0736 2eb0 0736 2eb0 0736  -..6...6...6...6
00012d50: 2db0 0736 2eb0 0736 2eb0 0736 2eb0 0736  -..6...6...6...6
00012d60: 2db0 0736 2eb0 0736 2eb0 0736 2eb0 0736  -..6...6...6...6
00012d70: 2db0 0736 2eb0 0736 2eb0 0736 2eb0 0736  -..6...6...6...6
00012d80: 2db0 0736 2eb0 0736 2eb0 0736 2eb0 0736  -..6...6...6...6
00012d90: 2db0 0736 2eb0 0736 2eb0 0736 2eb0 0736  -..6...6...6...6
00012da0: 2db0 0736 2eb0 0736 2eb0 0736 2eb0 0736  -..6...6...6...6
00012db0: 2db0 0736 2eb0 0736 2eb0 0736 2eb0 0736  -..6...6...6...6
00012dc0: 2db0 0736 2eb0 0736 2eb0 0736 2eb0 0736  -..6...6...6...6
00012dd0: 2db0 0736 2eb0 0736 2eb0 0736 2eb0 0736  -..6...6...6...6
00012de0: 2db0 0736 2eb0 0736 2eb0 0736 2eb0 0736  -..6...6...6...6
00012df0: 2db0 0736 2eb0 0736 2eb0 0736 2eb0 0736  -..6...6...6...6
00012e00: 2db0 0736 2eb0 0736 2eb0 0736 2eb0 0736  -..6...6...6...6
00012e10: 2db0 0736 2eb0 0736 2eb0 0736 2eb0 0736  -..6...6...6...6
00012e20: 2db0 0736 2eb0 0736 2eb0 0736 2eb0 0736  -..6...6...6...6
00012e30: 2db0 0736 2eb0 0736 2eb0 0736 2eb0 0736  -..6...6...6...6
00012e40: 2db0 0736 2eb0 0736 2eb0 0736 2eb0 0736  -..6...6...6...6
00012e50: 2db0 0736 2eb0 0736 2eb0 0736 2eb0 0736  -..6...6...6...6
00012e60: 2db0 0736 2eb0 0736 2eb0 0736 2eb0 0736  -..6...6...6...6
00012e70: 2db0 0736 2eb0 0736 2eb0 0736 2eb0 0736  -..6...6...6...6
00012e80: 2db0 0736 2eb0 0736 2eb0 0736 2eb0 0736  -..6...6...6...6
00012e90: 2db0 0736 2eb0 0736 2eb0 0736 2eb0 0736  -..6...6...6...6
00012ea0: 2db0 0736 2eb0 0736 2eb0 0736 2eb0 0736  -..6...6...6...6
00012eb0: 2db0 0736 2eb0 0736 2eb0 0736 2eb0 0736  -..6...6...6...6
00012ec0: 2db0 0736 2eb0 0736 2eb0 0736 2eb0 0736  -..6...6...6...6
00012ed0: 2db0 0736 2eb0 0736 2eb0 0736 2eb0 0736  -..6...6...6...6
00012ee0: 2db0 0736 2eb0 0736 2eb0 0736 2eb0 0736  -..6...6...6...6
00012ef0: 2db0 0736 2eb0 0736 2eb0 0736 2eb0 0736  -..6...6...6...6
00012f00: 2db0 0736 2eb0 0736 2eb0 0736 2eb0 0736  -..6...6...6...6
00012f10: 2db0 0736 2eb0 0736 2eb0 0736 2eb0 0736  -..6...6...6...6
00012f20: 2db0 0736 2eb0 0736 2eb0 0736 2eb0 0736  -..6...6...6...6
00012f30: 2db0 0736 2eb0 0736 2eb0 0736 2eb0 0736  -..6...6...6...6
00012f40: 2db0 0736 2eb0 0736 2eb0 0736 2eb0 0736  -..6...6...6...6
00012f50: 2db0 0736 2eb0 0736 2eb0 0736 2eb0 0736  -..6...6...6...6
00012f60: 2db0 0736 2eb0 0736 2eb0 0736 2eb0 0736  -..6...6...6...6
00012f70: 2db0 0736 2eb0 0736 2eb0 0736 2eb0 0736  -..6...6...6...6
00012f80: 2db0 0736 2eb0 0736 2eb0 0736 2eb0 0736  -..6...6...6...6
00012f90: 2db0 0736 2eb0 0736 2eb0 0736 2eb0 0736  -..6...6...6...6
00012fa0: 2db0 0736 2eb0 0736 2eb0 0736 2eb0 0736  -..6...6...6...6
00012fb0: 2db0 0736 2eb0 0736 2eb0 0736 2eb0 0736  -..6...6...6...6
00012fc0: 2db0 0736 2eb0 0736 2eb0 0736 2eb0 0736  -..6...6...6...6
00012fd0: 2db0 0736 2eb0 0736 2eb0 0736 2eb0 0736  -..6...6...6...6
00012fe0: 2db0 0736 2eb0 0736 2eb0 0736 2eb0 0736  -..6...6...6...6
00012ff0: 2db0 0736 2eb0 0736 2eb0 0736 2eb0 0736  -..6...6...6...6
00013000: 2db0 0736 2eb0 0736 2eb0 0736 2eb0 0736  -..6...6...6...6
00013010: 2db0 0736 2eb0 0736 2eb0 0736 2eb0 0736  -..6...6...6...6
00013020: 2db0 0736 2eb0 0736 2eb0 0736 2eb0 0736  -..6...6...6...6
00013030: 2db0 0736 2eb0 0736 2eb0 0736 2eb0 0736  -..6...6...6...6
00013040: 2db0 0736 2eb0 0736 2eb0 0736 2eb0 0736  -..6...6...6...6
00013050: 2db0 0736 2eb0 0736 2eb0 0736 2eb0 0736  -..6...6...6...6
00013060: 2db0 0736 2eb0 0736 2eb0 0736 2eb0 0736  -..6...6...6...6
00013070: 2db0 0736 2eb0 0736 2eb0 0736 2eb0 0736  -..6...6...6...6
00013080: 2db0 0736 2eb0 0736 2eb0 0736 2eb0 0736  -..6...6...6...6
00013090: 2db0 0736 2eb0 0736 2eb0 0736 2eb0 0736  -..6...6...6...6
000130a0: 2db0 0736 2eb0 0736 2eb0 0736 2eb0 0736  -..6...6...6...6
000130b0: 2db0 0736 2eb0 0736 2eb0 0736 2eb0 0736  -..6...6...6...6
000130c0: 2db0 0736 2eb0 0736 2eb0 0736 2eb0 0736  -..6...6...6...6
000130d0: 2db0 0736 2eb0 0736 2eb0 0736 2eb0 0736  -..6...6...6...6
000130e0: 2db0 0736 2eb0 0736 2eb0 0736 2eb0 0736  -..6...6...6...6
000130f0: 2db0 0736 2eb0 0736 2eb0 0736 2eb0 0736  -..6...6...6...6
00013100: 2db0 0736 2eb0 0736 2eb0 0736 2eb0 0736  -..6...6...6...6
00013110: 2db0 0736 2eb0 0736 2eb0 0736 2eb0 0736  -..6...6...6...6
00013120: 2db0 0736 2eb0 0736 2eb0 0736 2eb0 0736  -..6...6...6...6
00013130: 2db0 0736 2eb0 0736 2eb0 0736 2eb0 0736  -..6...6...6...6
00013140: 2db0 0736 2eb0 0736 2eb0 0736 2eb0 0736  -..6...6...6...6
00013150: 2db0 0736 2eb0 0736 2eb0 0736 2eb0 0736  -..6...6...6...6
00013160: 2db0 0736 2eb0 0736 2eb0 0736 2eb0 0736  -..6...6...6...6
00013170: 2db0 0736 2eb0 0736 2eb0 0736 2eb0 0736  -..6...6...6...6
00013180: 2db0 0736 2eb0 0736 2eb0 0736 2eb0 0736  -..6...6...6...6
00013190: 2db0 0736 2eb0 0736 2eb0 0736 2eb0 0736  -..6...6...6...6
000131a0: 2db0 0736 2eb0 0736 2eb0 0736 2eb0 0736  -..6...6...6...6
000131b0: 2db0 0736 2eb0 0736 2eb0 0736 2eb0 0736  -..6...6...6...6
000131c0: 2db0 0736 2eb0 0736 2eb0 0736 2eb0 0736  -..6...6...6...6
000131d0: 2db0 0736 2eb0 0736 2eb0 0736 2eb0 0736  -..6...6...6...6
000131e0: 2db0 0736 2eb0 0736 2eb0 0736 2eb0 0736  -..6...6...6...6
000131f0: 2db0 0736 2eb0 0736 2eb0 0736 2eb0 0736  -..6...6...6...6
00013200: 2db0 0736 2eb0 0736 2eb0 0736 2eb0 0736  -..6...6...6...6
00013210: 2db0 0736 2eb0 0736 2eb0 0736 2eb0 0736  -..6...6...6...6
00013220: 2db0 0736 2eb0 0736 2eb0 0736 2eb0 0736  -..6...6...6...6
00013230: 2db0 0736 2eb0 0736 2eb0 0736 2eb0 0736  -..6...6...6...6
00013240: 2db0 0736 2eb0 0736 2eb0 0736 2eb0 0736  -..6...6...6...6
00013250: 2db0 0736 2eb0 0736 2eb0 0736 2eb0 0736  -..6...6...6...6
00013260: 2db0 0736 2eb0 0736 2eb0 0736 2eb0 0736  -..6...6...6...6
00013270: 2db0 0736 2eb0 0736 2eb0 0736 2eb0 0736  -..6...6...6...6
00013280: 2db0 0736 2eb0 0736 2eb0 0736 2eb0 0736  -..6...6...6...6
00013290: 2db0 0736 2eb0 0736 2eb0 0736 2eb0 0736  -..6...6...6...6
000132a0: 2db0 0736 2eb0 0736 2eb0 0736 2eb0 0736  -..6...6...6...6
000132b0: 2db0 0736 2eb0 0736 2eb0 0736 2eb0 0736  -..6...6...6...6
000132c0: 2db0 0736 2eb0 0736 2eb0 0736 2eb0 0736  -..6...6...6...6
000132d0: 2db0 0736 2eb0 0736 2eb0 0736 2eb0 0736  -..6...6...6...6
000132e0: 2db0 0736 2eb0 0736 2eb0 0736 2eb0 0736  -..6...6...6...6
000132f0: 2db0 0736 2eb0 0736 2eb0 0736 2eb0 0736  -..6...6...6...6
00013300: 2db0 0736 2eb0 0736 2eb0 0736 2eb0 0736  -..6...6...6...6
00013310: 2db0 0736 2eb0 0736 2eb0 0736 2eb0 0736  -..6...6...6...6
00013320: 2db0 0736 2eb0 0736 2eb0 0736 2eb0 0736  -..6...6...6...6
00013330: 2db0 0736 2eb0 0736 2eb0 0736 2eb0 0736  -..6...6...6...6
00013340: 2db0 0736 2eb0 0736 2eb0 0736 2eb0 0736  -..6...6...6...6
00013350: 2db0 0736 2eb0 0736 2eb0 0736 2eb0 0736  -..6...6...6...6
00013360: 2db0 0736 2eb0 0736 2eb0 0736 2eb0 0736  -..6...6...6...6
00013370: 2db0 0736 2eb0 0736 2eb0 0736 2eb0 0736  -..6...6...6...6
00013380: 2db0 0736 2eb0 0736 2eb0 0736 2eb0 0736  -..6...6...6...6
00013390: 2db0 0736 2eb0 0736 2eb0 0736 2eb0 0736  -..6...6...6...6
000133a0: 2db0 0736 2eb0 0736 2eb0 0736 2eb0 0736  -..6...6...6...6
000133b0: 2db0 0736 2eb0 0736 2eb0 0736 2eb0 0736  -..6...6...6...6
000133c0: 2db0 0736 2eb0 0736 2eb0 0736 2eb0 0736  -..6...6...6...6
000133d0: 2db0 0736 2eb0 0736 2eb0 0736 2eb0 0736  -..6...6...6...6
000133e0: 2db0 0736 2eb0 0736 2eb0 0736 2eb0 0736  -..6...6...6...6
000133f0: 2db0 0736 2eb0 0736 2eb0 0736 2eb0 0736  -..6...6...6...6
00013400: 2db0 0736 2eb0 0736 2eb0 0736 2eb0 0736  -..6...6...6...6
00013410: 2db0 0736 2eb0 0736 2eb0 0736 2eb0 0736  -..6...6...6...6
00013420: 2db0 0736 2eb0 0736 2eb0 0736 2eb0 0736  -..6...6...6...6
00013430: 2db0 0736 2eb0 0736 2eb0 0736 2eb0 0736  -..6...6...6...6
00013440: 2db0 0736 2eb0 0736 2eb0 0736 2eb0 0736  -..6...6...6...6
00013450: 2db0 0736 2eb0 0736 2eb0 0736 2eb0 0736  -..6...6...6...6
00013460: 2db0 0736 2eb0 0736 2eb0 0736 2eb0 0736  -..6...6...6...6
00013470: 2db0 0736 2eb0 0736 2eb0 0736 2eb0 0736  -..6...6...6...6
00013480: 2db0 0736 2eb0 0736 2eb0 0736 2eb0 0736  -..6...6...6...6
00013490: 2db0 0736 2eb0 0736 2eb0 0736 2eb0 0736  -..6...6...6...6
000134a0: 2db0 0736 2eb0 0736 2eb0 0736 2eb0 0736  -..6...6...6...6
000134b0: 2db0 0736 2eb0 0736 2eb0 0736 2eb0 0736  -..6...6...6...6
000134c0: 2db0 0736 2eb0 0736 2eb0 0736 2eb0 0736  -..6...6...6...6
000134d0: 2db0 0736 2eb0 0736 2eb0 0736 2eb0 0736  -..6...6...6...6
000134e0: 2db0 0736 2eb0 0736 2eb0 0736 2eb0 0736  -..6...6...6...6
000134f0: 2db0 0736 2eb0 0736 2eb0 0736 2eb0 0736  -..6...6...6...6
00013500: 2db0 0736 2eb0 0736 2eb0 0736 2eb0 0736  -..6...6...6...6
00013510: 2db0 0736 2eb0 0736 2eb0 0736 2eb0 0736  -..6...6...6...6
00013520: 2db0 0736 2eb0 0736 2eb0 0736 2eb0 0736  -..6...6...6...6
00013530: 2db0 0736 2eb0 0736 2eb0 0736 2eb0 0736  -..6...6...6...6
00013540: 2db0 0736 2eb0 0736 2eb0 0736 2eb0 0736  -..6...6...6...6
00013550: 2db0 0736 2eb0 0736 2eb0 0736 2eb0 0736  -..6...6...6...6
00013560: 2db0 0736 2eb0 0736 2eb0 0736 2eb0 0736  -..6...6...6...6
00013570: 2db0 0736 2eb0 0736 2eb0 0736 2eb0 0736  -..6...6...6...6
00013580: 2db0 0736 2eb0 0736 2eb0 0736 2eb0 0736  -..6...6...6...6
00013590: 2db0 0736 2eb0 0736 2eb0 0736 2eb0 0736  -..6...6...6...6
000135a0: 2db0 0736 2eb0 0736 2eb0 0736 2eb0 0736  -..6...6...6...6
000135b0: 2db0 0736 2eb0 0736 2eb0 0736 2eb0 0736  -..6...6...6...6
000135c0: 2db0 0736 2eb0 0736 2eb0 0736 2eb0 0736  -..6...6...6...6
000135d0: 2db0 0736 2eb0 0736 2eb0 0736 2eb0 0736  -..6...6...6...6
000135e0: 2db0 0736 2eb0 0736 2eb0 0736 2eb0 0736  -..6...6...6...6
000135f0: 2db0 0736 2eb0 0736 2eb0 0736 2eb0 0736  -..6...6...6...6
00013600: 2db0 0736 2eb0 0736 2eb0 0736 2eb0 0736  -..6...6...6...6
00013610: 2db0 0736 2eb0 0736 2eb0 0736 2eb0 0736  -..6...6...6...6
00013620: 2db0 0736 2eb0 0736 2eb0 0736 2eb0 0736  -..6...6...6...6
00013630: 2db0 0736 2eb0 0736 2eb0 0736 2eb0 0736  -..6...6...6...6
00013640: 2db0 0736 2eb0 0736 2eb0 0736 2eb0 0736  -..6...6...6...6
00013650: 2db0 0736 2eb0 0736 2eb0 0736 2eb0 0736  -..6...6...6...6
00013660: 2db0 0736 2eb0 0736 2eb0 0736 2eb0 0736  -..6...6...6...6
00013670: 2db0 0736 2eb0 0736 2eb0 0736 2eb0 0736  -..6...6...6...6
00013680: 2db0 0736 2eb0 0736 2eb0 0736 2eb0 0736  -..6...6...6...6
00013690: 2db0 0736 2eb0 0736 2eb0 0736 2eb0 0736  -..6...6...6...6
000136a0: 2db0 0736 2eb0 0736 2eb0 0736 2eb0 0736  -..6...6...6...6
000136b0: 2db0 0736 2eb0 0736 2eb0 0736 2eb0 0736  -..6...6...6...6
000136c0: 2db0 0736 2eb0 0736 2eb0 0736 2eb0 0736  -..6...6...6...6
000136d0: 2db0 0736 2eb0 0736 2eb0 0736 2eb0 0736  -..6...6...6...6
000136e0: 2db0 0736 2eb0 0736 2eb0 0736 2eb0 0736  -..6...6...6...6
000136f0: 2db0 0736 2eb0 0736 2eb0 0736 2eb0 0736  -..6...6...6...6
00013700: 2db0 0736 2eb0 0736 2eb0 0736 2eb0 0736  -..6...6...6...6
00013710: 2db0 0736 2eb0 0736 2eb0 0736 2eb0 0736  -..6...6...6...6
00013720: 2db0 0736 2eb0 0736 2eb0 0736 2eb0 0736  -..6...6...6...6
00013730: 2db0 0736 2eb0 0736 2eb0 0736 2eb0 0736  -..6...6...6...6
00013740: 2db0 0736 2eb0 0736 2eb0 0736 2eb0 0736  -..6...6...6...6
00013750: 2db0 0736 2eb0 0736 2eb0 0736 2eb0 0736  -..6...6...6...6
00013760: 2db0 0736 2eb0 0736 2eb0 0736 2eb0 0736  -..6...6...6...6
00013770: 2db0 0736 2eb0 0736 2eb0 0736 2eb0 0736  -..6...6...6...6
00013780: 2db0 0736 2eb0 0736 2eb0 0736 2eb0 0736  -..6...6...6...6
00013790: 2db0 0736 2eb0 0736 2eb0 0736 2eb0 0736  -..6...6...6...6
000137a0: 2db0 0736 2eb0 0736 2eb0 0736 2eb0 0736  -..6...6...6...6
000137b0: 2db0 0736 2eb0 0736 2eb0 0736 2eb0 0736  -..6...6...6...6
000137c0: 2db0 0736 2eb0 0736 2eb0 0736 2eb0 0736  -..6...6...6...6
000137d0: 2db0 0736 2eb0 0736 2eb0 0736 2eb0 0736  -..6...6...6...6
000137e0: 2db0 0736 2eb0 0736 2eb0 0736 2eb0 0736  -..6...6...6...6
000137f0: 2db0 0736 2eb0 0736 2eb0 0736 2eb0 0736  -..6...6...6...6
00013800: 2db0 0736 2eb0 0736 2eb0 0736 2eb0 0736  -..6...6...6...6
00013810: 2db0 0736 2eb0 0736 2eb0 0736 2eb0 0736  -..6...6...6...6
00013820: 2db0 0736 2eb0 0736 2eb0 0736 2eb0 0736  -..6...6...6...6
00013830: 2db0 0736 2eb0 0736 2eb0 0736 2eb0 0736  -..6...6...6...6
00013840: 2db0 0736 2eb0 0736 2eb0 0736 2eb0 0735  -..6...6...6...5
00013850: 2db0 0735 2eb0 0735 2eb0 0735 2eb0 0735  -..5...5...5...5
00013860: 2db0 0735 2eb0 0735 2eb0 0735 2eb0 0735  -..5...5...5...5
00013870: 2db0 0735 2eb0 0735 2eb0 0735 2eb0 0735  -..5...5...5...5
00013880: 2db0 0735 2eb0 0735 2eb0 0735 2eb0 0735  -..5...5...5...5
00013890: 2db0 0735 2eb0 0735 2eb0 0735 2eb0 0735  -..5...5...5...5
000138a0: 2db0 0735 2eb0 0735 2eb0 0735 2eb0 0735  -..5...5...5...5
000138b0: 2db0 0735 2eb0 0735 2eb0 0735 2eb0 0735  -..5...5...5...5
000138c0: 2db0 0735 2eb0 0735 2eb0 0735 2eb0 0735  -..5...5...5...5
000138d0: 2db0 0735 2eb0 0735 2eb0 0735 2eb0 0735  -..5...5...5...5
000138e0: 2db0 0735 2eb0 0735 2eb0 0735 2eb0 0735  -..5...5...5...5
000138f0: 2db0 0735 2eb0 0735 2eb0 0735 2eb0 0735  -..5...5...5...5
00013900: 2db0 0735 2eb0 0735 2eb0 0735 2eb0 0735  -..5...5...5...5
00013910: 2db0 0735 2eb0 0735 2eb0 0735 2eb0 0735  -..5...5...5...5
00013920: 2db0 0735 2eb0 0735 2eb0 0735 2eb0 0735  -..5...5...5...5
00013930: 2db0 0735 2eb0 0735 2eb0 0735 2eb0 0735  -..5...5...5...5
00013940: 2db0 0735 2eb0 0735 2eb0 0735 2eb0 0735  -..5...5...5...5
00013950: 2db0 0735 2eb0 0735 2eb0 0735 2eb0 0735  -..5...5...5...5
00013960: 2db0 0735 2eb0 0735 2eb0 0735 2eb0 0735  -..5...5...5...5
00013970: 2db0 0735 2eb0 0735 2eb0 0735 2eb0 0735  -..5...5...5...5
00013980: 2db0 0735 2eb0 0735 2eb0 0735 2eb0 0735  -..5...5...5...5
00013990: 2db0 0735 2eb0 0735 2eb0 0735 2eb0 0735  -..5...5...5...5
000139a0: 2db0 0735 2eb0 0735 2eb0 0735 2eb0 0735  -..5...5...5...5
000139b0: 2db0 0735 2eb0 0735 2eb0 0735 2eb0 0735  -..5...5...5...5
000139c0: 2db0 0735 2eb0 0735 2eb0 0735 2eb0 0735  -..5...5...5...5
000139d0: 2db0 0735 2eb0 0735 2eb0 0735 2eb0 0735  -..5...5...5...5
000139e0: 2db0 0735 2eb0 0735 2eb0 0735 2eb0 0735  -..5...5...5...5
000139f0: 2db0 0735 2eb0 0735 2eb0 0735 2eb0 0735  -..5...5...5...5
00013a00: 2db0 0735 2eb0 0735 2eb0 0735 2eb0 0735  -..5...5...5...5
00013a10: 2db0 0735 2eb0 0735 2eb0 0735 2eb0 0735  -..5...5...5...5
00013a20: 2db0 0735 2eb0 0735 2eb0 0735 2eb0 0735  -..5...5...5...5
00013a30: 2db0 0735 2eb0 0735 2eb0 0735 2eb0 0735  -..5...5...5...5
00013a40: 2db0 0735 2eb0 0735 2eb0 0735 2eb0 0735  -..5...5...5...5
00013a50: 2db0 0735 2eb0 0735 2eb0 0735 2eb0 0735  -..5...5...5...5
00013a60: 2db0 0735 2eb0 0735 2eb0 0735 2eb0 0735  -..5...5...5...5
00013a70: 2db0 0735 2eb0 0735 2eb0 0735 2eb0 0735  -..5...5...5...5
00013a80: 2db0 0735 2eb0 0735 2eb0 0735 2eb0 0735  -..5...5...5...5
00013a90: 2db0 0735 2eb0 0735 2eb0 0735 2eb0 0735  -..5...5...5...5
00013aa0: 2db0 0735 2eb0 0735 2eb0 0735 2eb0 0735  -..5...5...5...5
00013ab0: 2db0 0735 2eb0 0735 2eb0 0735 2eb0 0735  -..5...5...5...5
00013ac0: 2db0 0735 2eb0 0735 2eb0 0735 2eb0 0735  -..5...5...5...5
00013ad0: 2db0 0735 2eb0 0735 2eb0 0735 2eb0 0735  -..5...5...5...5
00013ae0: 2db0 0735 2eb0 0735 2eb0 0735 2eb0 0735  -..5...5...5...5
00013af0: 2db0 0735 2eb0 0735 2eb0 0735 2eb0 0735  -..5...5...5...5
00013b00: 2db0 0735 2eb0 0735 2eb0 0735 2eb0 0735  -..5...5...5...5
00013b10: 2db0 0735 2eb0 0735 2eb0 0735 2eb0 0735  -..5...5...5...5
00013b20: 2db0 0735 2eb0 0735 2eb0 0735 2eb0 0735  -..5...5...5...5
00013b30: 2db0 0735 2eb0 0735 2eb0 0735 2eb0 0735  -..5...5...5...5
00013b40: 2db0 0735 2eb0 0735 2eb0 0735 2eb0 0735  -..5...5...5...5
00013b50: 2db0 0735 2eb0 0735 2eb0 0735 2eb0 0735  -..5...5...5...5
00013b60: 2db0 0735 2eb0 0735 2eb0 0735 2eb0 0735  -..5...5...5...5
00013b70: 2db0 0735 2eb0 0735 2eb0 0735 2eb0 0735  -..5...5...5...5
00013b80: 2db0 0735 2eb0 0735 2eb0 0735 2eb0 0735  -..5...5...5...5
00013b90: 2db0 0735 2eb0 0735 2eb0 0735 2eb0 0735  -..5...5...5...5
00013ba0: 2db0 0735 2eb0 0735 2eb0 0735 2eb0 0735  -..5...5...5...5
00013bb0: 2db0 0735 2eb0 0735 2eb0 0735 2eb0 0735  -..5...5...5...5
00013bc0: 2db0 0735 2eb0 0735 2eb0 0735 2eb0 0735  -..5...5...5...5
00013bd0: 2db0 0735 2eb0 0735 2eb0 0735 2eb0 0735  -..5...5...5...5
00013be0: 2db0 0735 2eb0 0735 2eb0 0735 2eb0 0735  -..5...5...5...5
00013bf0: 2db0 0735 2eb0 0735 2eb0 0735 2eb0 0735  -..5...5...5...5
00013c00: 2db0 0735 2eb0 0735 2eb0 0735 2eb0 0735  -..5...5...5...5
00013c10: 2db0 0735 2eb0 0735 2eb0 0735 2eb0 0735  -..5...5...5...5
00013c20: 2db0 0735 2eb0 0735 2eb0 0735 2eb0 0735  -..5...5...5...5
00013c30: 2db0 0735 2eb0 0735 2eb0 0735 2eb0 0735  -..5...5...5...5
00013c40: 2db0 0735 2eb0 0735 2eb0 0735 2eb0 0735  -..5...5...5...5
00013c50: 2db0 0735 2eb0 0735 2eb0 0735 2eb0 0735  -..5...5...5...5
00013c60: 2db0 0735 2eb0 0735 2eb0 0735 2eb0 0735  -..5...5...5...5
00013c70: 2db0 0735 2eb0 0735 2eb0 0735 2eb0 0735  -..5...5...5...5
00013c80: 2db0 0735 2eb0 0735 2eb0 0735 2eb0 0735  -..5...5...5...5
00013c90: 2db0 0735 2eb0 0735 2eb0 0735 2eb0 0735  -..5...5...5...5
00013ca0: 2db0 0735 2eb0 0735 2eb0 0735 2eb0 0735  -..5...5...5...5
00013cb0: 2db0 0735 2eb0 0735 2eb0 0735 2eb0 0735  -..5...5...5...5
00013cc0: 2db0 0735 2eb0 0735 2eb0 0735 2eb0 0735  -..5...5...5...5
00013cd0: 2db0 0735 2eb0 0735 2eb0 0735 2eb0 0735  -..5...5...5...5
00013ce0: 2db0 0735 2eb0 0735 2eb0 0735 2eb0 0735  -..5...5...5...5
00013cf0: 2db0 0735 2eb0 0735 2eb0 0735 2eb0 0735  -..5...5...5...5
00013d00: 2db0 0735 2eb0 0735 2eb0 0735 2eb0 0735  -..5...5...5...5
00013d10: 2db0 0735 2eb0 0735 2eb0 0735 2eb0 0735  -..5...5...5...5
00013d20: 2db0 0735 2eb0 0735 2eb0 0735 2eb0 0735  -..5...5...5...5
00013d30: 2db0 0735 2eb0 0735 2eb0 0735 2eb0 0735  -..5...5...5...5
00013d40: 2db0 0735 2eb0 0735 2eb0 0735 2eb0 0735  -..5...5...5...5
00013d50: 2db0 0735 2eb0 0735 2eb0 0735 2eb0 0735  -..5...5...5...5
00013d60: 2db0 0735 2eb0 0735 2eb0 0735 2eb0 0735  -..5...5...5...5
00013d70: 2db0 0735 2eb0 0735 2eb0 0735 2eb0 0735  -..5...5...5...5
00013d80: 2db0 0735 2eb0 0735 2eb0 0735 2eb0 0735  -..5...5...5...5
00013d90: 2db0 0735 2eb0 0735 2eb0 0735 2eb0 0735  -..5...5...5...5
00013da0: 2db0 0735 2eb0 0735 2eb0 0735 2eb0 0735  -..5...5...5...5
00013db0: 2db0 0735 2eb0 0735 2eb0 0735 2eb0 0735  -..5...5...5...5
00013dc0: 2db0 0735 2eb0 0735 2eb0 0735 2eb0 0735  -..5...5...5...5
00013dd0: 2db0 0735 2eb0 0735 2eb0 0735 2eb0 0735  -..5...5...5...5
00013de0: 2db0 0735 2eb0 0735 2eb0 0735 2eb0 0735  -..5...5...5...5
00013df0: 2db0 0735 2eb0 0735 2eb0 0735 2eb0 0735  -..5...5...5...5
00013e00: 2db0 0735 2eb0 0735 2eb0 0735 2eb0 0735  -..5...5...5...5
00013e10: 2db0 0735 2eb0 0735 2eb0 0735 2eb0 0735  -..5...5...5...5
00013e20: 2db0 0735 2eb0 0735 2eb0 0735 2eb0 0735  -..5...5...5...5
00013e30: 2db0 0735 2eb0 0735 2eb0 0735 2eb0 0735  -..5...5...5...5
00013e40: 2db0 0735 2eb0 0735 2eb0 0735 2eb0 0735  -..5...5...5...5
00013e50: 2db0 0735 2eb0 0735 2eb0 0735 2eb0 0735  -..5...5...5...5
00013e60: 2db0 0735 2eb0 0735 2eb0 0735 2eb0 0735  -..5...5...5...5
00013e70: 2db0 0735 2eb0 0735 2eb0 0735 2eb0 0735  -..5...5...5...5
00013e80: 2db0 0735 2eb0 0735 2eb0 0735 2eb0 0735  -..5...5...5...5
00013e90: 2db0 0735 2eb0 0735 2eb0 0735 2eb0 0735  -..5...5...5...5
00013ea0: 2db0 0735 2eb0 0735 2eb0 0735 2eb0 0735  -..5...5...5...5
00013eb0: 2db0 0735 2eb0 0735 2eb0 0735 2eb0 0735  -..5...5...5...5
00013ec0: 2db0 0735 2eb0 0735 2eb0 0735 2eb0 0735  -..5...5...5...5
00013ed0: 2db0 0735 2eb0 0735 2eb0 0735 2eb0 0735  -..5...5...5...5
00013ee0: 2db0 0735 2eb0 0735 2eb0 0735 2eb0 0735  -..5...5...5...5
00013ef0: 2db0 0735 2eb0 0735 2eb0 0735 2eb0 0735  -..5...5...5...5
00013f00: 2db0 0735 2eb0 0735 2eb0 0735 2eb0 0735  -..5...5...5...5
00013f10: 2db0 0735 2eb0 0735 2eb0 0735 2eb0 0735  -..5...5...5...5
00013f20: 2db0 0735 2eb0 0735 2eb0 0735 2eb0 0735  -..5...5...5...5
00013f30: 2db0 0735 2eb0 0735 2eb0 0735 2eb0 0735  -..5...5...5...5
00013f40: 2db0 0735 2eb0 0735 2eb0 0735 2eb0 0735  -..5...5...5...5
00013f50: 2db0 0735 2eb0 0735 2eb0 0735 2eb0 0735  -..5...5...5...5
00013f60: 2db0 0735 2eb0 0735 2eb0 0735 2eb0 0735  -..5...5...5...5
00013f70: 2db0 0735 2eb0 0735 2eb0 0735 2eb0 0735  -..5...5...5...5
00013f80: 2db0 0735 2eb0 0735 2eb0 0735 2eb0 0735  -..5...5...5...5
00013f90: 2db0 0735 2eb0 0735 2eb0 0735 2eb0 0735  -..5...5...5...5
00013fa0: 2db0 0735 2eb0 0735 2eb0 0735 2eb0 0735  -..5...5...5...5
00013fb0: 2db0 0735 2eb0 0735 2eb0 0735 2eb0 0735  -..5...5...5...5
00013fc0: 2db0 0735 2eb0 0735 2eb0 0735 2eb0 0735  -..5...5...5...5
00013fd0: 2db0 0735 2eb0 0735 2eb0 0735 2eb0 0735  -..5...5...5...5
00013fe0: 2db0 0735 2eb0 0735 2eb0 0735 2eb0 0735  -..5...5...5...5
00013ff0: 2db0 0735 2eb0 0735 2eb0 0735 2eb0 0735  -..5...5...5...5
00014000: 2db0 0735 2eb0 0735 2eb0 0735 2eb0 0735  -..5...5...5...5
00014010: 2db0 0735 2eb0 0735 2eb0 0735 2eb0 0735  -..5...5...5...5
00014020: 2db0 0735 2eb0 0735 2eb0 0735 2eb0 0735  -..5...5...5...5
00014030: 2db0 0735 2eb0 0735 2eb0 0735 2eb0 0735  -..5...5...5...5
00014040: 2db0 0735 2eb0 0735 2eb0 0735 2eb0 0735  -..5...5...5...5
00014050: 2db0 0735 2eb0 0735 2eb0 0735 2eb0 0735  -..5...5...5...5
00014060: 2db0 0735 2eb0 0735 2eb0 0735 2eb0 0735  -..5...5...5...5
00014070: 2db0 0735 2eb0 0735 2eb0 0735 2eb0 0735  -..5...5...5...5
00014080: 2db0 0735 2eb0 0735 2eb0 0735 2eb0 0735  -..5...5...5...5
00014090: 2db0 0735 2eb0 0735 2eb0 0735 2eb0 0735  -..5...5...5...5
000140a0: 2db0 0735 2eb0 0735 2eb0 0735 2eb0 0735  -..5...5...5...5
000140b0: 2db0 0735 2eb0 0735 2eb0 0735 2eb0 0735  -..5...5...5...5
000140c0: 2db0 0735 2eb0 0735 2eb0 0735 2eb0 0735  -..5...5...5...5
000140d0: 2db0 0735 2eb0 0735 2eb0 0735 2eb0 0735  -..5...5...5...5
000140e0: 2db0 0735 2eb0 0735 2eb0 0735 2eb0 0735  -..5...5...5...5
000140f0: 2db0 0735 2eb0 0735 2eb0 0735 2eb0 0735  -..5...5...5...5
00014100: 2db0 0735 2eb0 0735 2eb0 0735 2eb0 0735  -..5...5...5...5
00014110: 2db0 0735 2eb0 0735 2eb0 0735 2eb0 0735  -..5...5...5...5
00014120: 2db0 0735 2eb0 0735 2eb0 0735 2eb0 0735  -..5...5...5...5
00014130: 2db0 0735 2eb0 0735 2eb0 0735 2eb0 0735  -..5...5...5...5
00014140: 2db0 0735 2eb0 0735 2eb0 0735 2eb0 0735  -..5...5...5...5
00014150: 2db0 0735 2eb0 0735 2eb0 0735 2eb0 0735  -..5...5...5...5
00014160: 2db0 0735 2eb0 0735 2eb0 0735 2eb0 0735  -..5...5...5...5
00014170: 2db0 0735 2eb0 0735 2eb0 0735 2eb0 0735  -..5...5...5...5
00014180: 2db0 0735 2eb0 0735 2eb0 0735 2eb0 0735  -..5...5...5...5
00014190: 2db0 0735 2eb0 0735 2eb0 0735 2eb0 0735  -..5...5...5...5
000141a0: 2db0 0735 2eb0 0735 2eb0 0735 2eb0 0735  -..5...5...5...5
000141b0: 2db0 0735 2eb0 0735 2eb0 0735 2eb0 0735  -..5...5...5...5
000141c0: 2db0 0735 2eb0 0735 2eb0 0735 2eb0 0735  -..5...5...5...5
000141d0: 2db0 0735 2eb0 0735 2eb0 0735 2eb0 0735  -..5...5...5...5
000141e0: 2db0 0735 2eb0 0735 2eb0 0735 2eb0 0735  -..5...5...5...5
000141f0: 2db0 0735 2eb0 0735 2eb0 0735 2eb0 0735  -..5...5...5...5
00014200: 2db0 0735 2eb0 0735 2eb0 0735 2eb0 0735  -..5...5...5...5
00014210: 2db0 0735 2eb0 0735 2eb0 0735 2eb0 0735  -..5...5...5...5
00014220: 2db0 0735 2eb0 0735 2eb0 0735 2eb0 0735  -..5...5...5...5
00014230: 2db0 0735 2eb0 0735 2eb0 0735 2eb0 0735  -..5...5...5...5
00014240: 2db0 0735 2eb0 0735 2eb0 0735 2eb0 0735  -..5...5...5...5
00014250: 2db0 0735 2eb0 0735 2eb0 0735 2eb0 0735  -..5...5...5...5
00014260: 2db0 0735 2eb0 0735 2eb0 0735 2eb0 0735  -..5...5...5...5
00014270: 2db0 0735 2eb0 0735 2eb0 0735 2eb0 0735  -..5...5...5...5
00014280: 2db0 0735 2eb0 0735 2eb0 0735 2eb0 0735  -..5...5...5...5
00014290: 2db0 0735 2eb0 0735 2eb0 0735 2eb0 0735  -..5...5...5...5
000142a0: 2db0 0735 2eb0 0735 2eb0 0735 2eb0 0735  -..5...5...5...5
000142b0: 2db0 0735 2eb0 0735 2eb0 0735 2eb0 0735  -..5...5...5...5
000142c0: 2db0 0735 2eb0 0735 2eb0 0735 2eb0 0735  -..5...5...5...5
000142d0: 2db0 0735 2eb0 0735 2eb0 0735 2eb0 0735  -..5...5...5...5
000142e0: 2db0 0735 2eb0 0735 2eb0 0735 2eb0 0735  -..5...5...5...5
000142f0: 2db0 0735 2eb0 0735 2eb0 0735 2eb0 0735  -..5...5...5...5
00014300: 2db0 0735 2eb0 0735 2eb0 0735 2eb0 0735  -..5...5...5...5
00014310: 2db0 0735 2eb0 0735 2eb0 0735 2eb0 0735  -..5...5...5...5
00014320: 2db0 0735 2eb0 0735 2eb0 0735 2eb0 0735  -..5...5...5...5
00014330: 2db0 0735 2eb0 0735 2eb0 0735 2eb0 0735  -..5...5...5...5
00014340: 2db0 0735 2eb0 0735 2eb0 0735 2eb0 0735  -..5...5...5...5
00014350: 2db0 0735 2eb0 0735 2eb0 0735 2eb0 0735  -..5...5...5...5
00014360: 2db0 0735 2eb0 0735 2eb0 0735 2eb0 0735  -..5...5...5...5
00014370: 2db0 0735 2eb0 0735 2eb0 0735 06b0 407f  -..5...5...5..@.
00014380: 28b0 0735 2db0 0735 1eb0 407f 10b0 0735  (..5-..5..@....5
00014390: 2eb0 0735 2eb0 0735 2db0 0735 2eb0 0735  ...5...5-..5...5
000143a0: 2eb0 0735 2eb0 0735 2db0 0735 2eb0 0735  ...5...5-..5...5
000143b0: 2eb0 0735 2eb0 0735 2db0 0735 2eb0 0735  ...5...5-..5...5
000143c0: 2eb0 0735 2eb0 0735 2db0 0735 2eb0 0735  ...5...5-..5...5
000143d0: 2eb0 0735 2eb0 0735 2db0 0735 2eb0 0735  ...5...5-..5...5
000143e0: 2eb0 0735 2eb0 0735 2db0 0735 2eb0 0735  ...5...5-..5...5
000143f0: 2eb0 0735 2eb0 0735 2db0 0735 2eb0 0735  ...5...5-..5...5
00014400: 2eb0 0735 2eb0 0735 2db0 0735 2eb0 0735  ...5...5-..5...5
00014410: 2eb0 0735 2eb0 0735 2db0 0735 2eb0 0735  ...5...5-..5...5
00014420: 2eb0 0735 2eb0 0735 2db0 0735 2eb0 0735  ...5...5-..5...5
00014430: 2eb0 0735 2eb0 0735 2db0 0735 2eb0 0735  ...5...5-..5...5
00014440: 2eb0 0735 2eb0 0735 2db0 0735 2eb0 0735  ...5...5-..5...5
00014450: 2eb0 0735 2eb0 0735 2db0 0735 2eb0 0735  ...5...5-..5...5
00014460: 2eb0 0735 2eb0 0735 2db0 0735 2eb0 0735  ...5...5-..5...5
00014470: 2eb0 0735 2eb0 0735 2db0 0735 2eb0 0735  ...5...5-..5...5
00014480: 2eb0 0735 2eb0 0735 2db0 0735 0db0 4000  ...5...5-..5..@.
00014490: 21b0 0735 2eb0 0735 2eb0 0735 2db0 0735  !..5...5...5-..5
000144a0: 2eb0 0735 2eb0 0735 2eb0 0735 2db0 0735  ...5...5...5-..5
000144b0: 2eb0 0735 2eb0 0735 2eb0 0735 2db0 0735  ...5...5...5-..5
000144c0: 2eb0 0735 2eb0 0735 2eb0 0735 2db0 0735  ...5...5...5-..5
000144d0: 2eb0 0735 2eb0 0735 2eb0 0735 2db0 0735  ...5...5...5-..5
000144e0: 2eb0 0735 2eb0 0735 2eb0 0735 2db0 0735  ...5...5...5-..5
000144f0: 2eb0 0735 2d90 2937 01b0 0735 2eb0 0735  ...5-.)7...5...5
00014500: 2db0 0735 2eb0 0735 2eb0 0735 0d90 463d  -..5...5...5..F=
00014510: 21b0 0735 0a80 2957 00b0 0735 0090 2e33  !..5..)W...5...3
00014520: 0090 223b 8524 9048 3f1c 8046 3c85 6790  ..";.$.H?..F<.g.
00014530: 462c 3980 4839 8115 8046 4f2d 9045 2c82  F,9.H9...FO-.E,.
00014540: 0880 4541 8716 8022 3f00 802e 3e81 7090  ..EA..."?...>.p.
00014550: 292b 8153 9043 461d 8029 5200 902e 2f81  )+.S.CF..)R.../.
00014560: 7080 2e44 0090 2931 813d 8043 6907 9045  p..D..)1.=.Ci..E
00014570: 492c 8029 5c00 902e 3300 9022 3c85 1e90  I,.)\...3.."<...
00014580: 4849 8965 904d 418a 6380 4d5c 0880 485b  HI.e.MA.c.M\..H[
00014590: 0d80 455e 5d80 2e40 0f80 2239 8129 9029  ..E^]..@.."9.).)
000145a0: 3481 6990 4648 0780 2958 0090 2235 0090  4.i.FH..)X.."5..
000145b0: 2e2f 8544 9048 4429 8046 3b85 0a90 4643  ./.D.HD).F;...FC
000145c0: 5580 483d 8128 8046 4313 9045 3c81 7590  U.H=.(.FC..E<.u.
000145d0: 293e 0480 2e54 0080 2241 3f80 454d 8a55  )>...T.."A?.EM.U
000145e0: 8029 6027 b007 438b 4fb0 0720 2eb0 0721  .)`'..C.O.. ...!
000145f0: 2db0 0723 2eb0 0725 2eb0 0727 2eb0 0729  -..#...%...'...)
00014600: 2db0 072a 2eb0 072c 2eb0 072e 2eb0 0730  -..*...,.......0
00014610: 2db0 0732 2eb0 0733 2eb0 0735 2eb0 0737  -..2...3...5...7
00014620: 2db0 0739 2eb0 073b 2eb0 073c 2eb0 073e  -..9...;...<...>
00014630: 2db0 0740 2eb0 0742 2db0 0744 827b b040  -..@...B-..D.{.@
00014640: 008b 0ab0 4000 8100 b040 7f8e 5cb0 4000  ....@....@..\.@.
00014650: 0390 2e30 60b0 407f 8850 802e 5e00 902d  ...0`.@..P..^..-
00014660: 2e81 7080 2d62 0090 2e2e 8170 802e 6200  ..p.-b.....p..b.
00014670: 9029 2c81 41b0 4000 2f80 2954 0090 2232  .),.A.@./.)T.."2
00014680: 0090 2e2b 50b0 407f 8e02 b040 002e 802e  ...+P.@....@....
00014690: 3d2d b040 7f8c 4cb0 4000 813f b040 7f48  =-.@..L.@..?.@.H
000146a0: 8022 3400 9029 3582 44b0 407f 885c 8029  ."4..)5.D.@..\.)
000146b0: 5e00 b040 7f00 9027 2f83 6080 2762 0090  ^..@...'/.`.'b..
000146c0: 262c 2cb0 4000 49b0 407f 8d39 b040 0052  &,,.@.I.@..9.@.R
000146d0: 8026 6100 903c 2e00 902c 3900 9033 3700  .&a..<...,9..37.
000146e0: 9038 331c b040 7f85 3480 3857 0090 3a2f  .83..@..4.8W..:/
000146f0: 8550 803a 3c00 9038 3c5e b040 0082 3bb0  .P.:<..8<^.@..;.
00014700: 4000 4780 3c40 0080 3852 0080 3340 0080  @.G.<@..8R..3@..
00014710: 2c3e 0090 3f35 0090 3a2f 0090 2b39 0090  ,>..?5..:/..+9..
00014720: 333c 2fb0 407f 8521 803f 4800 9041 3683  3</.@..!.?H..A6.
00014730: 6080 415a 0090 4136 8170 8041 5a00 9046  `.AZ..A6.p.AZ..F
00014740: 4900 9043 3583 3eb0 4000 2280 335e 0080  I..C5.>.@.".3^..
00014750: 4348 0080 466c 0080 2b5c 0080 3a5b 0090  CH..Fl..+\..:[..
00014760: 3534 0090 293f 41b0 407f 8100 b040 7f9b  54..)?A.@....@..
00014770: 5fb0 4000 4ab0 407f 1680 355b 0080 2960  _.@.J.@...5[..)`
00014780: 0090 3726 0090 3a45 0090 3e39 60b0 4000  ..7&..:E..>9`.@.
00014790: 6db0 407f 8573 803e 3981 7090 3e21 8170  m.@..s.>9.p.>!.p
000147a0: 803e 4981 7090 3e39 811a b040 0000 b040  .>I.p.>9...@...@
000147b0: 7f56 8037 4b00 803e 4f00 803a 3c00 903e  .V.7K..>O..:<..>
000147c0: 3400 9036 2b00 9039 3181 06b0 4000 74b0  4..6+..91...@.t.
000147d0: 407f 8546 8036 4f81 7090 3632 8170 8036  @..F.6O.p.62.p.6
000147e0: 5100 9032 2f81 7080 3956 0080 325e 0080  Q..2/.p.9V..2^..
000147f0: 3e4f 0090 2d37 810b b040 0008 b040 005d  >O..-7...@...@.]
00014800: 802d 5b00 902b 3a00 903e 3000 9037 2d00  .-[..+:..>0..7-.
00014810: 903a 383d b040 7f85 1380 2b56 0090 2e45  .:8=.@....+V...E
00014820: 8550 802e 592d 9032 3a83 27b0 4000 0780  .P..Y-.2:.'.@...
00014830: 3262 0290 3e37 0290 3930 0180 3a3c 0080  2b..>7..90..:<..
00014840: 3e3b 0080 372e 0090 2d30 0090 3635 73b0  >;..7...-0..65s.
00014850: 407f 845d 9042 3483 0a80 3e5b 5690 3e37  @..].B4...>[V.>7
00014860: 8155 8039 591b 903c 3901 8042 5d0e 803e  .U.9Y..<9..B]..>
00014870: 5481 5680 3c59 0b90 3948 811e b040 0044  T.V.<Y..9H...@.D
00014880: 8039 640e 802d 5f00 8036 4c00 9038 2500  .9d..-_..6L..8%.
00014890: 903a 1f00 903e 3524 b040 7f83 2880 3e43  .:...>5$.@..(.>C
000148a0: 0f80 3a41 0680 383d 816f 903a 2400 9038  ..:A..8=.o.:$..8
000148b0: 2700 903e 3283 6080 3a40 0080 3e3c 0080  '..>2.`.:@..><..
000148c0: 383d 0090 352f 8170 903e 2e00 903a 2100  8=..5/.p.>...:!.
000148d0: 9038 2582 59b0 4000 8107 8035 3b00 8038  .8%.Y.@....5;..8
000148e0: 5a00 803a 5d00 803e 5900 9037 3600 903c  Z..:]..>Y..76..<
000148f0: 3313 b040 7f85 3d90 4038 8360 9034 361c  3..@..=.@8.`.46.
00014900: 8037 4581 5480 345b 0090 3034 827e b040  .7E.T.4[..04.~.@
00014910: 0030 803c 4232 903c 2d00 903f 3000 9037  .0.<B2.<-..?0..7
00014920: 370c 8040 5923 b040 7f85 2180 305f 0090  7..@Y#.@..!.0_..
00014930: 332c 844b 803c 5906 803f 5923 8037 504c  3,.K.<Y..?Y#.7PL
00014940: 9027 3282 0080 336b 8129 b040 0047 9039  .'2...3k.).@.G.9
00014950: 4300 9040 3400 903e 3955 8027 6807 b040  C..@4..>9U.'h..@
00014960: 7f83 0480 3959 7080 3e43 0480 4040 7c90  ....9Yp.>C..@@|.
00014970: 4034 0090 3e39 0090 3938 11b0 407f 834f  @4..>9..98..@..O
00014980: 8039 5c00 9034 3c15 803e 3e08 8040 3c81  .9\..4<..>>..@<.
00014990: 5380 345c 0090 4037 0090 3e3b 0090 3937  S.4\..@7..>;..97
000149a0: 8170 8039 6000 9034 4a7d 8040 3f01 803e  .p.9`..4J}.@?..>
000149b0: 465a b040 0018 8034 5f00 9040 3a00 903d  FZ.@...4_..@:..=
000149c0: 3600 902d 4d4e 9040 3734 b040 7f81 0a90  6..-MN.@74.@....
000149d0: 423c 2e80 4048 812c 803d 1e07 9043 3115  B<..@H.,.=...C1.
000149e0: 8042 5a3b 8040 3a2f 8043 5d05 9045 385f  .BZ;.@:/.C]..E8_
000149f0: 903d 3a00 9040 4500 9028 3d20 9047 330a  .=:..@E..(= .G3.
00014a00: 8045 515a 8047 5515 9049 3430 8049 5e1d  .EQZ.GU..I40.I^.
00014a10: 904a 3060 904c 3503 804a 3b50 804c 5513  .J0`.L5..J;P.LU.
00014a20: 904e 4633 804e 560f 803d 421b 904f 3745  .NF3.NV..=B..O7E
00014a30: 804f 3e07 9051 300e 8040 3849 9053 4006  .O>..Q0..@8I.S@.
00014a40: 8051 421e 9040 3700 903d 3b00 9021 4d05  .QB..@7..=;..!M.
00014a50: b040 7f14 8053 5c1b 9055 4351 9056 3911  .@...S\..UCQ.V9.
00014a60: 8055 503b 9058 3827 8056 5423 802d 5812  .UP;.X8'.VT#.-X.
00014a70: 905a 4003 8058 5d3d 8040 3f01 803d 461b  .Z@..X]=.@?..=F.
00014a80: 805a 600d 905b 4345 805b 6105 8021 5900  .Z`..[CE.[a..!Y.
00014a90: 9051 4b00 9045 3a00 904c 3e00 904a 4a00  .QK..E:..L>..JJ.
00014aa0: 902d 4500 9039 3800 905d 6d18 8028 6935  .-E..98..]m..(i5
00014ab0: b040 002b b040 7f4b b040 7f82 04b0 407f  .@.+.@.K.@....@.
00014ac0: 36b0 407f 1a80 4c3b 0480 453d 1e80 5141  6.@...L;..E=..QA
00014ad0: 1480 394f 0380 4a27 2c80 2d35 5490 4a4b  ..9O..J',.-5T.JK
00014ae0: 0090 4c38 0090 454b 0090 514b 0090 3935  ..L8..EK..QK..95
00014af0: 0090 2d4e 826d 8051 5a06 8045 4a0b 804c  ..-N.m.QZ..EJ..L
00014b00: 4f08 804a 503c 802d 5203 8039 520d b040  O..JP<.-R..9R..@
00014b10: 7f81 7e80 5d6b 0090 4a4d 0090 453a 0090  ..~.]k..JM..E:..
00014b20: 513e 0090 4c3a 0090 2d4b 0090 393a 8250  Q>..L:..-K..9:.P
00014b30: 8051 5711 8045 4002 804c 5807 804a 5522  .QW..E@..LX..JU"
00014b40: 8039 5101 802d 5832 b040 0021 b040 0000  .9Q..-X2.@.!.@..
00014b50: 904c 3a00 9051 3e00 9045 3a00 9049 4d00  .L:..Q>..E:..IM.
00014b60: 902d 4b00 9039 3a62 b040 7f85 7f80 3951  .-K..9:b.@....9Q
00014b70: 0180 2d58 824e b040 7f00 b040 7f00 b040  ..-X.N.@...@...@
00014b80: 0081 4f80 5157 1180 4540 0280 4c58 0680  ..O.QW..E@..LX..
00014b90: 4955 8315 b040 7f53 9042 2600 9036 2900  IU...@.S.B&..6).
00014ba0: 9032 1c00 9039 1b85 5080 363d 0080 393a  .2...9..P.6=..9:
00014bb0: 0080 3241 0090 4336 0090 3918 0090 3422  ..2A..C6..9...4"
00014bc0: 0090 321a 6080 4248 8470 8032 0100 8034  ..2.`.BH.p.2...4
00014bd0: 3e00 8039 0100 9045 3c00 9036 1d00 9039  >..9...E<..6...9
00014be0: 1945 8043 5883 0280 455e 1980 363d 0080  .E.CX...E^..6=..
00014bf0: 393d 0090 453c 0090 341f 0090 3918 0090  9=..E<..4...9...
00014c00: 321c 0090 371a 02b0 4000 8103 b040 7f62  2...7...@....@.b
00014c10: 8045 0109 9043 3981 7090 423f 2580 4340  .E...C9.p.B?%.C@
00014c20: 814b 8037 1c00 8034 3b00 8032 0c00 8039  .K.7...4;..2...9
00014c30: 2200 9032 1900 9037 1700 9034 1800 903b  "..2...7...4...;
00014c40: 3716 8042 5b85 3a80 3b38 0080 342e 0080  7..B[.:.;8..4...
00014c50: 373b 0080 320e 0090 3916 0090 340c 0090  7;..2...9...4...
00014c60: 3716 0090 4040 835c b040 0004 8039 3e00  7...@@.\.@...9>.
00014c70: 8034 0100 8037 4000 9034 1d00 9037 1900  .4...7@..4...7..
00014c80: 902d 3e00 9032 1981 00b0 407f 8450 8034  .->..2....@..P.4
00014c90: 2500 8032 3700 8037 3b00 9034 1800 9037  %..27..7;..4...7
00014ca0: 1481 7080 4059 0090 424f 8360 8037 2900  ..p.@Y..BO.`.7).
00014cb0: 8042 5900 8034 3b00 9034 1800 9037 1700  .BY..4;..4...7..
00014cc0: 9040 4800 9032 1983 6080 343e 0080 323b  .@H..2..`.4>..2;
00014cd0: 0080 4050 0080 373e 0090 341d 0090 3719  ..@P..7>..4...7.
00014ce0: 0090 3916 0090 4043 0090 262c 0090 3222  ..9...@C..&,..2"
00014cf0: 0bb0 4000 810d b040 7f58 8040 5900 9042  ..@....@.X.@Y..B
00014d00: 2e81 7080 4242 0090 3e3f 8170 8037 5000  ..p.BB..>?.p.7P.
00014d10: 803e 5700 8034 5500 8039 4100 8032 3900  .>W..4U..9A..29.
00014d20: 9037 3400 9032 1900 9039 4c83 6080 265e  .74..2...9L.`.&^
00014d30: 0090 253a 8170 8039 5d00 8025 6200 8032  ..%:.p.9]..%b..2
00014d40: 3b00 8037 3a00 9036 3100 9026 3a00 9032  ;..7:..61..&:..2
00014d50: 1983 6080 2d5b 0080 3246 0080 2662 0080  ..`.-[..2F..&b..
00014d60: 3646 00b0 4000 0090 3928 0090 3628 0090  6F..@...9(..6(..
00014d70: 423d 0090 3222 0ab0 407f 0eb0 4000 8116  B=..2"..@...@...
00014d80: b040 7f35 b040 7f83 6d80 3925 0080 3234  .@.5.@..m.9%..24
00014d90: 0080 362b 0090 3918 0090 3618 0090 4346  ..6+..9...6...CF
00014da0: 0090 3216 8170 8042 3c0c b040 7f83 5480  ..2..p.B<..@..T.
00014db0: 3225 0080 435f 0080 3601 0080 3923 0090  2%..C_..6...9#..
00014dc0: 3916 0090 3608 0090 4546 8170 8039 3d01  9...6...EF.p.9=.
00014dd0: 8036 3c5e b040 0081 1180 454e 0090 3227  .6<^.@....EN..2'
00014de0: 0090 3917 0090 4541 0090 513e 0090 361c  ..9...EA..Q>..6.
00014df0: 2eb0 4000 05b0 4000 00b0 407f 1bb0 0744  ..@...@...@....D
00014e00: 2eb0 0744 04b0 407f 16b0 407f 14b0 0744  ...D..@...@....D
00014e10: 2eb0 0744 1890 4340 0090 4f46 0e80 4540  ...D..C@..OF..E@
00014e20: 07b0 0744 1480 323a 0380 513f 17b0 0744  ...D..2:..Q?...D
00014e30: 0a80 393a 0180 363e 23b0 0744 2eb0 0744  ..9:..6>#..D...D
00014e40: 2db0 0744 2490 423a 0090 4e40 0ab0 0744  -..D$.B:..N@...D
00014e50: 2180 4f3b 0780 4343 06b0 0744 2eb0 0744  !.O;..CC...D...D
00014e60: 2db0 0744 2eb0 0744 1880 4e49 16b0 0744  -..D...D..NI...D
00014e70: 0190 3220 0090 4044 0090 4c46 0090 3916  ..2 ..@D..LF..9.
00014e80: 0090 3618 2d80 423b 00b0 0744 2db0 0744  ..6.-.B;...D-..D
00014e90: 2eb0 0744 2eb0 0744 1880 362c 0880 3931  ...D...D..6,..91
00014ea0: 0eb0 0744 1480 323c 19b0 0744 2eb0 0744  ...D..2<...D...D
00014eb0: 2eb0 0744 2eb0 0744 2db0 0744 0980 405b  ...D...D-..D..@[
00014ec0: 0f90 2d2a 0090 3933 16b0 0744 0d80 4c48  ..-*..93...D..LH
00014ed0: 21b0 0744 2eb0 0744 2db0 0744 1f80 2d59  !..D...D-..D..-Y
00014ee0: 0fb0 0744 0880 3942 1b90 3b39 0090 2f1f  ...D..9B..;9../.
00014ef0: 0bb0 0744 2eb0 0744 2db0 0744 2eb0 0744  ...D...D-..D...D
00014f00: 2eb0 0744 0a80 3b41 24b0 0744 0090 2d27  ...D..;A$..D..-'
00014f10: 0090 3933 1980 2f5b 14b0 0744 2eb0 0744  ..93../[...D...D
00014f20: 2eb0 0744 2eb0 0744 2db0 0744 0c90 2828  ...D...D-..D..((
00014f30: 0090 372a 0090 2f32 0090 403d 0090 4c3a  ..7*../2..@=..L:
00014f40: 1580 395c 0080 2d5f 0bb0 4000 02b0 0744  ..9\..-_..@....D
00014f50: 2eb0 0744 2eb0 0744 20b0 407f 00b0 407f  ...D...D .@...@.
00014f60: 0db0 0744 14b0 407f 1ab0 0744 2eb0 0744  ...D..@....D...D
00014f70: 2eb0 0744 2db0 0744 2eb0 0744 2eb0 0744  ...D-..D...D...D
00014f80: 2eb0 0744 2db0 0744 2eb0 0744 2eb0 0744  ...D-..D...D...D
00014f90: 2eb0 0744 2d80 4c5b 0080 4055 00b0 0744  ...D-.L[..@U...D
00014fa0: 0090 4238 0090 4e3b 2eb0 0744 2eb0 0744  ..B8..N;...D...D
00014fb0: 2eb0 0744 2db0 0744 2eb0 0744 2eb0 0744  ...D-..D...D...D
00014fc0: 2eb0 0744 2db0 0744 2eb0 0744 2eb0 0744  ...D-..D...D...D
00014fd0: 2eb0 0744 2db0 0744 2eb0 0744 2eb0 0744  ...D-..D...D...D
00014fe0: 2eb0 0744 2180 425b 0080 4e46 0090 4a3c  ...D!.B[..NF..J<
00014ff0: 0090 3e38 0cb0 0744 2eb0 0744 2eb0 0744  ..>8...D...D...D
00015000: 2eb0 0744 2db0 0744 2eb0 0744 2eb0 0744  ...D-..D...D...D
00015010: 2eb0 0744 2db0 0744 2eb0 0744 2eb0 0744  ...D-..D...D...D
00015020: 0a80 4a5f 0080 3e5b 0090 4c47 0090 2d31  ..J_..>[..LG..-1
00015030: 0090 3432 0090 3d36 2380 375f 01b0 0744  ..42..=6#.7_...D
00015040: 0280 2f61 0a80 2857 14b0 4000 0db0 0744  ../a..(W..@....D
00015050: 2eb0 0744 2cb0 407f 02b0 0744 2eb0 0744  ...D,.@....D...D
00015060: 2db0 0744 2eb0 0744 2eb0 0744 2eb0 0744  -..D...D...D...D
00015070: 2db0 0744 2eb0 0744 2eb0 0744 2eb0 0744  -..D...D...D...D
00015080: 2db0 0744 2eb0 0744 2c80 3d5e 0090 3e40  -..D...D,.=^..>@
00015090: 02b0 0744 2eb0 0744 2db0 0744 2eb0 0744  ...D...D-..D...D
000150a0: 2eb0 0744 2eb0 0744 2db0 0744 2eb0 0744  ...D...D-..D...D
000150b0: 2eb0 0744 2eb0 0744 2db0 0744 2eb0 0744  ...D...D-..D...D
000150c0: 2eb0 0744 2eb0 0744 2db0 0744 2eb0 0744  ...D...D-..D...D
000150d0: 2080 3e5a 0090 4034 0eb0 0744 2eb0 0744   .>Z..@4...D...D
000150e0: 2db0 0744 1c80 4c59 12b0 0744 2eb0 0744  -..D..LY...D...D
000150f0: 2eb0 0744 2db0 0744 2eb0 0744 0ab0 4000  ...D-..D...D..@.
00015100: 24b0 0744 2eb0 0744 2db0 0744 0980 4037  $..D...D-..D..@7
00015110: 0080 2d5a 0080 345d 0090 3d2d 0090 414a  ..-Z..4]..=-..AJ
00015120: 0090 353b 0090 2c36 0090 382a 04b0 407f  ..5;..,6..8*..@.
00015130: 21b0 0744 2eb0 0744 2eb0 0744 2db0 0744  !..D...D...D-..D
00015140: 2eb0 0744 2eb0 0744 2eb0 0744 2db0 0744  ...D...D...D-..D
00015150: 2eb0 0744 2eb0 0744 2eb0 0744 2db0 0744  ...D...D...D-..D
00015160: 2eb0 0744 2eb0 0744 2d80 3d01 0080 3801  ...D...D-.=...8.
00015170: 01b0 0744 2780 413c 0390 4146 0090 3d2a  ...D'.A<..AF..=*
00015180: 0090 433e 0090 4f3e 0090 3832 03b0 0744  ..C>..O>..82...D
00015190: 2eb0 0744 2eb0 0744 2eb0 0744 2db0 0744  ...D...D...D-..D
000151a0: 2eb0 0744 2eb0 0744 2eb0 0744 2db0 0744  ...D...D...D-..D
000151b0: 2eb0 0744 2eb0 0744 2eb0 0744 2db0 0744  ...D...D...D-..D
000151c0: 2eb0 0744 2eb0 0744 2eb0 0744 1e80 4352  ...D...D...D..CR
000151d0: 0080 4f52 0090 444d 0090 504d 0fb0 0744  ..OR..DM..PM...D
000151e0: 2eb0 0744 2eb0 0744 2eb0 0744 2db0 0744  ...D...D...D-..D
000151f0: 2eb0 0744 2eb0 0744 1fb0 4000 0fb0 0744  ...D...D..@....D
00015200: 2db0 0744 2eb0 0744 2eb0 0744 0780 4153  -..D...D...D..AS
00015210: 0080 505d 0080 445d 0080 2c5a 0080 3d01  ..P]..D]..,Z..=.
00015220: 0080 3801 0080 3559 0090 3e3d 0090 3937  ..8...5Y..>=..97
00015230: 0090 5145 0090 4545 0090 3232 0090 2a33  ..QE..EE..22..*3
00015240: 27b0 0744 20b0 407f 0db0 0744 2eb0 0744  '..D .@....D...D
00015250: 2eb0 0744 2eb0 0744 2db0 0744 2eb0 0744  ...D...D-..D...D
00015260: 2eb0 0744 2eb0 0744 2db0 0744 2eb0 0744  ...D...D-..D...D
00015270: 2eb0 0744 2eb0 0744 2db0 0744 2eb0 0744  ...D...D-..D...D
00015280: 2980 3e5b 0080 3945 0080 455d 0080 515d  ).>[..9E..E]..Q]
00015290: 0090 5348 05b0 0744 0990 3b33 0090 4748  ..SH...D..;3..GH
000152a0: 25b0 0744 2db0 0744 2eb0 0744 2eb0 0744  %..D-..D...D...D
000152b0: 2eb0 0744 2db0 0744 2eb0 0744 2eb0 0744  ...D-..D...D...D
000152c0: 2eb0 0744 2db0 0744 2eb0 0744 2eb0 0744  ...D-..D...D...D
000152d0: 2eb0 0744 2db0 0744 2eb0 0744 1a90 1a54  ...D-..D...D...T
000152e0: 0090 2654 0380 535c 0090 5437 0e80 3b01  ..&T..S\..T7..;.
000152f0: 0080 475c 0090 3c37 0090 4837 03b0 0744  ..G\..<7..H7...D
00015300: 2280 2a55 0cb0 0744 2db0 0744 2eb0 0744  ".*U...D-..D...D
00015310: 2eb0 0744 2eb0 0744 2db0 0744 2eb0 0744  ...D...D-..D...D
00015320: 2eb0 0744 02b0 4000 2cb0 0744 0880 3250  ...D..@.,..D..2P
00015330: 25b0 0744 0680 545b 0090 453b 0090 3e46  %..D..T[..E;..>F
00015340: 0090 322e 0090 5643 0090 4a43 0090 1f40  ..2...VC..JC...@
00015350: 0090 2b36 0e80 485b 0080 3c52 1380 2665  ..+6..H[..<R..&e
00015360: 0080 1a65 07b0 0744 26b0 407f 08b0 0744  ...e...D&.@....D
00015370: 2eb0 0744 2db0 0744 2eb0 0744 2eb0 0744  ...D-..D...D...D
00015380: 2eb0 0744 2db0 0744 2eb0 0744 2eb0 0744  ...D-..D...D...D
00015390: 1c80 3e4f 0090 3b29 12b0 0744 2db0 0744  ..>O..;)...D-..D
000153a0: 2eb0 0744 2eb0 0744 2eb0 0744 2780 4a54  ...D...D...D'.JT
000153b0: 0080 5654 0080 4548 0080 323c 0090 4336  ..VT..EH..2<..C6
000153c0: 0090 5b48 0090 4f48 06b0 0744 2eb0 0744  ..[H..OH...D...D
000153d0: 2eb0 0744 2eb0 0744 2db0 0744 2eb0 0744  ...D...D-..D...D
000153e0: 2eb0 0744 2eb0 0744 2db0 0744 2eb0 0744  ...D...D-..D...D
000153f0: 2eb0 0744 0280 2b59 0e90 3230 1eb0 0744  ...D..+Y..20...D
00015400: 2db0 0744 2eb0 0744 2eb0 0744 2eb0 0744  -..D...D...D...D
00015410: 1b80 4f5a 0080 325d 0080 5b5a 0080 433c  ..OZ..2]..[Z..C<
00015420: 0080 3b3c 0090 3e30 0090 5636 0090 4a36  ..;<..>0..V6..J6
00015430: 0090 2b32 12b0 0744 2eb0 0744 2eb0 0744  ..+2...D...D...D
00015440: 2eb0 0744 2db0 0744 2eb0 0744 2eb0 0744  ...D-..D...D...D
00015450: 2eb0 0744 2db0 0744 2eb0 0744 1480 3e5b  ...D-..D...D..>[
00015460: 0780 2b5b 13b0 0744 0480 4a5d 0080 565d  ..+[...D..J]..V]
00015470: 0080 1f2f 0090 3c2a 0090 5432 0090 4832  .../..<*..T2..H2
00015480: 0090 2b2f 0090 393b 0090 3030 29b0 4000  ..+/..9;..00).@.
00015490: 01b0 0744 2db0 0744 2eb0 0744 09b0 407f  ...D-..D...D..@.
000154a0: 25b0 0744 2eb0 0744 2db0 0744 2eb0 0744  %..D...D-..D...D
000154b0: 2eb0 0744 2eb0 0744 2db0 0744 1b80 3c01  ...D...D-..D..<.
000154c0: 0080 394f 0080 3001 0090 372a 13b0 0744  ..9O..0...7*...D
000154d0: 2eb0 0744 2eb0 0744 2db0 0744 2eb0 0744  ...D...D-..D...D
000154e0: 2680 4860 0080 3701 0080 5460 0090 4336  &.H`..7...T`..C6
000154f0: 0090 5b46 0090 4f46 08b0 0744 2eb0 0744  ..[F..OF...D...D
00015500: 2db0 0744 2eb0 0744 2eb0 0744 2eb0 0744  -..D...D...D...D
00015510: 0380 433a 0080 4f55 0080 5b55 2ab0 0744  ..C:..OU..[U*..D
00015520: 2eb0 0744 2eb0 0744 2eb0 0744 2db0 0744  ...D...D...D-..D
00015530: 0f90 3724 1fb0 0744 2eb0 0744 2eb0 0744  ..7$...D...D...D
00015540: 2db0 0744 2eb0 0744 1a80 2b05 0080 3741  -..D...D..+...7A
00015550: 0090 3027 14b0 0744 2eb0 0744 2db0 0744  ..0'...D...D-..D
00015560: 2eb0 0744 2eb0 0744 2580 304b 0090 2b25  ...D...D%.0K..+%
00015570: 09b0 0744 2db0 0744 2eb0 0744 2eb0 0744  ...D-..D...D...D
00015580: 2cb0 4000 02b0 0744 2db0 0744 0380 2b49  ,.@....D-..D..+I
00015590: 0090 4746 0090 3e3b 0090 3b3d 0090 2b3b  ..GF..>;..;=..+;
000155a0: 2bb0 0744 22b0 407f 0cb0 0744 2eb0 0744  +..D".@....D...D
000155b0: 2db0 0744 2eb0 0744 0e80 3e52 0080 3b53  -..D...D..>R..;S
000155c0: 20b0 0744 2eb0 0744 2db0 0744 2eb0 0744   ..D...D-..D...D
000155d0: 2eb0 0744 1980 475a 0090 3225 15b0 0744  ...D..GZ..2%...D
000155e0: 2db0 0744 2eb0 0744 2eb0 0744 2eb0 0744  -..D...D...D...D
000155f0: 2490 4a46 0090 3e4d 09b0 0744 2eb0 0744  $.JF..>M...D...D
00015600: 2eb0 0744 2eb0 0744 2db0 0744 2eb0 0744  ...D...D-..D...D
00015610: 0280 4a4f 0080 3e5b 2cb0 0744 2eb0 0744  ..JO..>[,..D...D
00015620: 2db0 0744 2eb0 0744 2eb0 0744 0d90 3732  -..D...D...D..72
00015630: 21b0 0744 2db0 0744 2eb0 0744 2eb0 0744  !..D-..D...D...D
00015640: 2eb0 0744 1880 2b41 0080 372b 0080 323c  ...D..+A..7+..2<
00015650: 0090 5332 0090 4746 15b0 0744 2eb0 0744  ..S2..GF...D...D
00015660: 2eb0 0744 2eb0 0744 2db0 0744 2480 535e  ...D...D-..D$.S^
00015670: 0080 475a 0ab0 0744 2eb0 0744 2eb0 0744  ..GZ...D...D...D
00015680: 2db0 0744 10b0 4000 1eb0 0744 2eb0 0744  -..D..@....D...D
00015690: 0190 454d 0090 514d 0090 3e33 0090 3c2d  ..EM..QM..>3..<-
000156a0: 0090 2b3d 0090 343b 0090 3729 2db0 0744  ..+=..4;..7)-..D
000156b0: 05b0 407f 28b0 0744 2eb0 0744 2eb0 0744  ..@.(..D...D...D
000156c0: 2eb0 0744 0c80 2b5e 0080 3450 21b0 0744  ...D..+^..4P!..D
000156d0: 2eb0 0744 2eb0 0744 2eb0 0744 0280 3c5e  ...D...D...D..<^
000156e0: 2bb0 0744 1880 453c 0090 3c20 16b0 0744  +..D..E<..< ...D
000156f0: 2eb0 0744 2eb0 0744 2db0 0744 2eb0 0744  ...D...D-..D...D
00015700: 2390 4536 0bb0 0744 2eb0 0744 2db0 0744  #.E6...D...D-..D
00015710: 2eb0 0744 2eb0 0744 2e80 5151 0080 455b  ...D...D..QQ..E[
00015720: 00b0 0744 2db0 0744 2eb0 0744 2eb0 0744  ...D-..D...D...D
00015730: 2eb0 0744 2db0 0744 0c80 3c18 0090 342d  ...D-..D..<...4-
00015740: 22b0 0744 2eb0 0744 2eb0 0744 2db0 0744  "..D...D...D-..D
00015750: 2eb0 0744 1780 375e 0080 343b 0080 3e61  ...D..7^..4;..>a
00015760: 0090 2a48 17b0 0744 2eb0 0744 2db0 0744  ..*H...D...D-..D
00015770: 2eb0 0744 2eb0 0744 2eb0 0744 2db0 0744  ...D...D...D-..D
00015780: 2eb0 0744 1fb0 4000 0fb0 0744 2eb0 0744  ...D..@....D...D
00015790: 2d80 2a5f 00b0 0744 0090 4a46 0090 3e4f  -.*_...D..JF..>O
000157a0: 0090 4346 0090 2843 0090 2f2f 0db0 407f  ..CF..(C..//..@.
000157b0: 21b0 0744 2eb0 0744 2eb0 0744 2db0 0744  !..D...D...D-..D
000157c0: 2eb0 0744 0b80 2859 0080 2f22 23b0 0744  ...D..(Y../"#..D
000157d0: 2eb0 0744 2db0 0744 2eb0 0744 2eb0 0744  ...D-..D...D...D
000157e0: 1680 3e4c 0080 4349 0080 4a49 0090 373d  ..>L..CI..JI..7=
000157f0: 0090 2f1f 18b0 0744 2db0 0744 2eb0 0744  ../....D-..D...D
00015800: 2eb0 0744 2eb0 0744 2180 373d 0080 2f41  ...D...D!.7=../A
00015810: 0090 4f51 0090 434d 0cb0 0744 2eb0 0744  ..OQ..CM...D...D
00015820: 2eb0 0744 2eb0 0744 2db0 0744 2eb0 0744  ...D...D-..D...D
00015830: 2eb0 0744 2eb0 0744 2db0 0744 2eb0 0744  ...D...D-..D...D
00015840: 0f80 4f5b 0080 4351 1fb0 0744 0a90 4f3d  ..O[..CQ...D..O=
00015850: 0090 4330 0090 2f2d 24b0 0744 2db0 0744  ..C0../-$..D-..D
00015860: 2eb0 0744 2eb0 0744 2eb0 0744 1580 4f5c  ...D...D...D..O\
00015870: 0080 2f59 0080 4355 0090 4a46 0090 4535  ../Y..CU..JF..E5
00015880: 0090 5148 0090 263d 18b0 0744 2eb0 0744  ..QH..&=...D...D
00015890: 2eb0 0744 2eb0 0744 2db0 0744 2180 455d  ...D...D-..D!.E]
000158a0: 0080 2655 0080 515b 0090 433e 0090 4f40  ..&U..Q[..C>..O@
000158b0: 0db0 0744 2eb0 0744 2eb0 0744 02b0 4000  ...D...D...D..@.
000158c0: 2bb0 0744 2eb0 0744 2c80 4a49 0080 4f62  +..D...D,.JI..Ob
000158d0: 0080 4362 0090 5440 0090 4c29 0090 483d  ..Cb..T@..L)..H=
000158e0: 0090 3c40 0090 2b40 0090 2442 0090 302f  ..<@..+@..$B..0/
000158f0: 0090 372c 0090 3440 02b0 0744 0bb0 407f  ..7,..4@...D..@.
00015900: 23b0 0744 2db0 0744 2eb0 0744 2eb0 0744  #..D-..D...D...D
00015910: 2eb0 0744 0980 544b 0080 2b51 0080 245b  ...D..TK..+Q..$[
00015920: 24b0 0744 2eb0 0744 2eb0 0744 2eb0 0744  $..D...D...D...D
00015930: 2db0 0744 1580 305b 0080 483b 0080 4c57  -..D..0[..H;..LW
00015940: 0080 3c5b 0080 3756 0080 3455 19b0 0744  ..<[..7V..4U...D
00015950: 2eb0 0744 2eb0 0744 2db0 0744 2eb0 0744  ...D...D-..D...D
00015960: 2090 4736 0090 533d 0090 4c3d 0090 3026   .G6..S=..L=..0&
00015970: 0090 3723 0eb0 0744 2eb0 0744 2db0 0744  ..7#...D...D-..D
00015980: 2eb0 0744 2eb0 0744 2b80 474a 0080 534f  ...D...D+.GJ..SO
00015990: 0080 4c4f 03b0 0744 2db0 0744 2eb0 0744  ..LO...D-..D...D
000159a0: 2eb0 0744 2eb0 0744 2db0 0744 0980 305e  ...D...D-..D..0^
000159b0: 0080 373c 0090 342d 25b0 0744 2eb0 0744  ..7<..4-%..D...D
000159c0: 2eb0 0744 2db0 0744 2eb0 0744 1480 345c  ...D-..D...D..4\
000159d0: 0090 4f46 0090 433b 0090 3040 1ab0 0744  ..OF..C;..0@...D
000159e0: 2eb0 0744 2db0 0744 2eb0 0744 2eb0 0744  ...D-..D...D...D
000159f0: 2eb0 0744 1cb0 4000 11b0 0744 2eb0 0744  ...D..@....D...D
00015a00: 2eb0 0744 25b0 407f 0980 4f3c 0080 433b  ...D%.@...O<..C;
00015a10: 00b0 0744 2a80 3062 0090 4f3d 0090 4342  ...D*.0b..O=..CB
00015a20: 0090 3c48 0090 3737 0090 3548 03b0 0744  ..<H..77..5H...D
00015a30: 2eb0 0744 2eb0 0744 2eb0 0744 2db0 0744  ...D...D...D-..D
00015a40: 2eb0 0744 2eb0 0744 2eb0 0744 2db0 0744  ...D...D...D-..D
00015a50: 2eb0 0744 2eb0 0744 1380 4f5f 0080 434c  ...D...D..O_..CL
00015a60: 1bb0 0744 2db0 0744 2eb0 0744 2eb0 0744  ...D-..D...D...D
00015a70: 2eb0 0744 1e90 5145 0090 4551 0fb0 0744  ...D..QE..EQ...D
00015a80: 2eb0 0744 2eb0 0744 2eb0 0744 2db0 0744  ...D...D...D-..D
00015a90: 2a80 3759 0080 355d 0080 3c5c 04b0 0744  *.7Y..5]..<\...D
00015aa0: 2eb0 0744 2eb0 0744 2db0 0744 2eb0 0744  ...D...D-..D...D
00015ab0: 2eb0 0744 0790 353d 27b0 0744 2db0 0744  ...D..5='..D-..D
00015ac0: 2eb0 0744 2eb0 0744 2eb0 0744 1280 5151  ...D...D...D..QQ
00015ad0: 0080 3501 0080 455a 0090 533b 0090 4740  ..5...EZ..S;..G@
00015ae0: 0090 302f 1bb0 0744 2eb0 0744 2eb0 0744  ..0/...D...D...D
00015af0: 2eb0 0744 2db0 0744 1e80 303c 0090 2d2e  ...D-..D..0<..-.
00015b00: 10b0 0744 2eb0 0744 1ab0 4000 14b0 0744  ...D...D..@....D
00015b10: 2db0 0744 2eb0 0744 0d80 2d5d 1c80 5362  -..D...D..-]..Sb
00015b20: 0080 4760 0090 5142 0090 4532 0090 263b  ..G`..QB..E2..&;
00015b30: 0090 3645 0090 2d15 04b0 407f 01b0 0744  ..6E..-...@....D
00015b40: 2eb0 0744 2db0 0744 2eb0 0744 2eb0 0744  ...D-..D...D...D
00015b50: 2eb0 0744 2db0 0744 2eb0 0744 2eb0 0744  ...D-..D...D...D
00015b60: 2eb0 0744 2db0 0744 1290 3232 1cb0 0744  ...D-..D..22...D
00015b70: 2eb0 0744 2eb0 0744 2db0 0744 2eb0 0744  ...D...D-..D...D
00015b80: 1d80 5159 0080 455f 0080 2d5a 0080 3651  ..QY..E_..-Z..6Q
00015b90: 0080 2661 0090 373e 11b0 0744 2eb0 0744  ..&a..7>...D...D
00015ba0: 2db0 0744 2eb0 0744 2eb0 0744 2880 3259  -..D...D...D(.2Y
00015bb0: 06b0 0744 2db0 0744 2eb0 0744 2eb0 0744  ...D-..D...D...D
00015bc0: 2eb0 0744 2db0 0744 0680 3701 0090 3640  ...D-..D..7...6@
00015bd0: 28b0 0744 2eb0 0744 2eb0 0744 2db0 0744  (..D...D...D-..D
00015be0: 2eb0 0744 1180 365c 0090 3237 1db0 0744  ...D..6\..27...D
00015bf0: 2eb0 0744 2db0 0744 2eb0 0744 2eb0 0744  ...D-..D...D...D
00015c00: 1c80 325f 0090 304a 12b0 0744 2db0 0744  ..2_..0J...D-..D
00015c10: 2eb0 0744 2eb0 0744 06b0 4000 28b0 0744  ...D...D..@.(..D
00015c20: 2780 305b 0090 4a38 0090 3e3b 0090 2f2d  '.0[..J8..>;../-
00015c30: 06b0 0744 10b0 407f 1eb0 0744 2eb0 0744  ...D..@....D...D
00015c40: 2eb0 0744 2db0 0744 2eb0 0744 0580 4a56  ...D-..D...D..JV
00015c50: 0080 3e5f 0090 371f 29b0 0744 2eb0 0744  ..>_..7.)..D...D
00015c60: 2db0 0744 2eb0 0744 2eb0 0744 1090 3e32  -..D...D...D..>2
00015c70: 1eb0 0744 2db0 0744 2eb0 0744 2eb0 0744  ...D-..D...D...D
00015c80: 2eb0 0744 1b80 3740 0090 4f3d 0090 433b  ...D..7@..O=..C;
00015c90: 12b0 0744 2eb0 0744 2eb0 0744 2eb0 0744  ...D...D...D...D
00015ca0: 2db0 0744 2780 3e01 0080 4358 0080 4f60  -..D'.>...CX..O`
00015cb0: 07b0 0744 2eb0 0744 2eb0 0744 2db0 0744  ...D...D...D-..D
00015cc0: 2eb0 0744 2eb0 0744 0480 2f3b 0090 322b  ...D...D../;..2+
00015cd0: 2ab0 0744 2db0 0744 2eb0 0744 2eb0 0744  *..D-..D...D...D
00015ce0: 2eb0 0744 0f80 3250 0090 5337 0090 4737  ...D..2P..S7..G7
00015cf0: 0090 3b29 1eb0 0744 2eb0 0744 2eb0 0744  ..;)...D...D...D
00015d00: 2eb0 0744 2db0 0744 1b80 535f 0080 4761  ...D-..D..S_..Ga
00015d10: 13b0 0744 2eb0 0744 2eb0 0744 1fb0 4000  ...D...D...D..@.
00015d20: 0eb0 0744 2eb0 0744 2680 3b5a 0090 4732  ...D...D&.;Z..G2
00015d30: 0090 5337 0090 3729 0090 4038 0090 3e38  ..S7..7)..@8..>8
00015d40: 0090 3022 08b0 0744 2eb0 0744 04b0 407f  ..0"...D...D..@.
00015d50: 29b0 0744 2eb0 0744 2eb0 0744 2eb0 0744  )..D...D...D...D
00015d60: 0380 475d 0080 535b 2ab0 0744 2eb0 0744  ..G]..S[*..D...D
00015d70: 2eb0 0744 2eb0 0744 2db0 0744 0f80 375e  ...D...D-..D..7^
00015d80: 1fb0 0744 2eb0 0744 2eb0 0744 2db0 0744  ...D...D...D-..D
00015d90: 2eb0 0744 1a90 4543 0090 513e 0090 393e  ...D..EC..Q>..9>
00015da0: 14b0 0744 2eb0 0744 2db0 0744 2eb0 0744  ...D...D-..D...D
00015db0: 2eb0 0744 2580 3046 0080 4555 0080 5152  ...D%.0F..EU..QR
00015dc0: 09b0 0744 2db0 0744 2eb0 0744 2eb0 0744  ...D-..D...D...D
00015dd0: 2eb0 0744 2db0 0744 0990 3029 25b0 0744  ...D-..D..0)%..D
00015de0: 2eb0 0744 2eb0 0744 2db0 0744 2eb0 0744  ...D...D-..D...D
00015df0: 0e80 3951 0090 4734 0090 5343 20b0 0744  ..9Q..G4..SC ..D
00015e00: 2eb0 0744 2db0 0744 1180 304c 1db0 0744  ...D-..D..0L...D
00015e10: 2eb0 0744 1980 535b 0080 475e 0080 4050  ...D..S[..G^..@P
00015e20: 0080 3e50 0090 4832 0090 543d 15b0 0744  ..>P..H2..T=...D
00015e30: 2db0 0744 2eb0 0744 2eb0 0744 2eb0 0744  -..D...D...D...D
00015e40: 2480 4853 0080 545c 0090 5648 0090 4a45  $.HS..T\..VH..JE
00015e50: 0090 3e4c 0090 3735 0090 2f34 09b0 0744  ..>L..75../4...D
00015e60: 2eb0 0744 1eb0 4000 10b0 0744 2eb0 0744  ...D..@....D...D
00015e70: 2db0 0744 2eb0 0744 02b0 407f 2cb0 0744  -..D...D..@.,..D
00015e80: 2eb0 0744 2db0 0744 2eb0 0744 2eb0 0744  ...D-..D...D...D
00015e90: 0d80 565f 0080 4a5b 21b0 0744 2db0 0744  ..V_..J[!..D-..D
00015ea0: 2eb0 0744 2eb0 0744 2eb0 0744 1880 2f5c  ...D...D...D../\
00015eb0: 0090 433d 0090 4f40 0090 2845 15b0 0744  ..C=..O@..(E...D
00015ec0: 15b0 0745 830d 8043 5b00 804f 5929 9043  ...E...C[..OY).C
00015ed0: 3700 904f 4081 0580 4362 0080 4f62 6b90  7..O@...Cb..Obk.
00015ee0: 4f30 0090 5b31 8105 804f 6000 805b 5f6b  O0..[1...O`..[_k
00015ef0: 8037 0100 803e 3900 8028 5400 904e 5e00  .7...>9..(T..N^.
00015f00: 905a 6381 0580 4e63 0080 5a5d 6b90 5963  .Zc...Nc..Z]k.Yc
00015f10: 0090 4d51 0090 3c56 0090 3035 0090 3351  ..MQ..<V..05..3Q
00015f20: 0090 373e 78b0 4000 8126 b040 7f81 4280  ..7>x.@..&.@..B.
00015f30: 5952 0080 4d48 8360 803c 5283 6090 3e5e  YR..MH.`.<R.`.>^
00015f40: 8360 803e 5f00 903f 5685 5090 4148 8170  .`.>_..?V.P.AH.p
00015f50: 803f 5983 6080 4159 0090 4340 8360 9045  .?Y.`.AY..C@.`.E
00015f60: 4581 7080 4345 8360 9046 3b81 7080 4543  E.p.CE.`.F;.p.EC
00015f70: 8360 8037 5d00 9048 2c81 7080 305b 0080  .`.7]..H,.p.0[..
00015f80: 464e 0080 3353 8168 903b 1f08 8048 5e09  FN..3S.h.;...H^.
00015f90: 904a 3109 9043 2982 1db0 4000 815c b040  .J1..C)...@..\.@
00015fa0: 7f81 5b90 4f33 4e80 4a41 8348 8043 524f  ..[.O3N.JA.H.CRO
00015fb0: 803b 5a6b 904a 3152 804f 4d1e 804a 5483  .;Zk.J1R.OM..JT.
00015fc0: 3590 391b 2d90 3c13 4d90 4315 0790 3f18  5.9.-.<.M.C...?.
00015fd0: 5cb0 4000 4b90 4838 6cb0 407f 8619 904f  \.@.K.H8l.@....O
00015fe0: 2688 0190 4e3f 7980 4f3a 857c 8039 014d  &...N?y.O:.|.9.M
00015ff0: 803f 5113 803c 4a84 7190 3723 04b0 4000  .?Q..<J.q.7#..@.
00016000: 1680 4301 8119 804e 010b 904f 2565 8048  ..C....N...O%e.H
00016010: 4618 b040 7f75 903b 0e82 0d90 3e2a 8311  F..@.u.;....>*..
00016020: 9043 0182 1380 4f3b 0090 4728 8242 904a  .C....O;..G(.B.J
00016030: 3f81 4180 472e 8114 904f 2b1b 804a 4a82  ?.A.G....O+..JJ.
00016040: 0080 4f3f 5190 5329 833e 9056 3684 2c90  ..O?Q.S).>.V6.,.
00016050: 5b44 7480 5650 0c80 5343 7180 3b37 1a80  [Dt.VP..SCq.;7..
00016060: 433d 0c80 373c 0280 3e41 8712 805b 5b93  C=..7<..>A...[[.
00016070: 58b0 4000 00ff 2f00 4d54 726b 0000 0ada  X.@.../.MTrk....
00016080: 00ff 0112 456c 6567 616e 7420 5069 636b  ....Elegant Pick
00016090: 696e 6720 4b43 00b0 0745 8192 20b0 0a33  ing KC...E.. ..3
000160a0: 00b0 0a33 8510 b007 2f13 b007 2e41 b007  ...3..../....A..
000160b0: 2d81 1fb0 072b 09b0 072a 0ab0 0729 09b0  -....+...*...)..
000160c0: 0728 09b0 0726 0ab0 0725 04b0 0a44 09b0  .(...&...%...D..
000160d0: 0a47 05b0 0723 0190 5030 0290 591f 02b0  .G...#..P0..Y...
000160e0: 0a49 0190 5440 0290 4d27 02b0 0722 05b0  .I..T@..M'..."..
000160f0: 0a4a 04b0 0721 0ab0 071f 05b0 0a4b 13b0  .J...!.......K..
00016100: 0a4d 0ab0 0a4f 09b0 0a50 0ab0 0a51 0ab0  .M...O...P...Q..
00016110: 0a52 0ab0 0a53 09b0 0a54 0ab0 0a55 0ab0  .R...S...T...U..
00016120: 0a57 13b0 0a58 14b0 0720 13b0 0721 13b0  .W...X... ...!..
00016130: 0722 0ab0 0a59 09b0 0a5a 0ab0 0a5b 09b0  ."...Y...Z...[..
00016140: 0723 01b0 0a5c 09b0 0a5d 12b0 0724 02b0  .#...\...]...$..
00016150: 0a5f 09b0 0a60 0ab0 0a62 09b0 0a64 14b0  ._...`...b...d..
00016160: 0a65 06b0 0725 0db0 0a67 10b0 0726 04b0  .e...%...g...&..
00016170: 0a68 0fb0 0727 0db0 0a69 05b0 0728 18b0  .h...'...i...(..
00016180: 0a6a 14b0 0a6c 09b0 0a6d 0ab0 0a6e 0db0  .j...l...m...n..
00016190: 0729 1cb0 072b 07b0 0a70 0cb0 072c 08b0  .)...+...p...,..
000161a0: 0a71 0b80 592d 00b0 072d 08b0 0a72 0bb0  .q..Y-...-...r..
000161b0: 072e 08b0 0a73 14b0 0a74 13b0 0730 13b0  .....s...t...0..
000161c0: 0a75 09b0 0732 13b0 0733 13b0 0734 0cb0  .u...2...3...4..
000161d0: 0a76 07b0 0735 12b0 0736 04b0 0a78 0fb0  .v...5...6...x..
000161e0: 0737 0eb0 0a79 05b0 0738 0eb0 0a7a 05b0  .7...y...8...z..
000161f0: 0739 04b0 0a7b 06b0 073a 0eb0 0a7c 05b0  .9...{...:...|..
00016200: 073b 12b0 073c 06b0 0a7d 0db0 073d 13b0  .;...<...}...=..
00016210: 073e 06b0 0a7e 20b0 073f 1ab0 0a7f 15b0  .>...~ ..?......
00016220: 0741 12b0 0a7e 0ab0 0a7d 09b0 0a7c 0ab0  .A...~...}...|..
00016230: 0a7b 09b0 0742 01b0 0a7a 12b0 0743 01b0  .{...B...z...C..
00016240: 0a79 0ab0 0a78 08b0 0744 01b0 0a77 0ab0  .y...x...D...w..
00016250: 0a76 08b0 0745 1cb0 0746 02b0 0a75 11b0  .v...E...F...u..
00016260: 0747 0db0 0a74 0fb0 0748 0eb0 0a73 0fb0  .G...t...H...s..
00016270: 0749 12b0 074a 1db0 074b 13b0 074c 06b0  .I...J...K...L..
00016280: 0a72 0cb0 074d 07b0 0a71 1db0 0a70 13b0  .r...M...q...p..
00016290: 0a6f 02b0 074f 1bb0 0a6e 01b0 0750 13b0  .o...O...n...P..
000162a0: 0a6c 13b0 0a6b 0ab0 0a6a 09b0 0a69 09b0  .l...k...j...i..
000162b0: 0751 01b0 0a68 09b0 0a67 0ab0 0a65 09b0  .Q...h...g...e..
000162c0: 0752 01b0 0a64 0ab0 0a63 09b0 0a62 08b0  .R...d...c...b..
000162d0: 0753 02b0 0a61 09b0 0a60 0ab0 0a5e 07b0  .S...a...`...^..
000162e0: 0755 03b0 0a5d 0ab0 0a5b 06b0 0757 03b0  .U...]...[...W..
000162f0: 0a5a 07b0 0758 03b0 0a59 06b0 0759 04b0  .Z...X...Y...Y..
00016300: 0a58 06b0 075a 03b0 0a57 0ab0 0a55 05b0  .X...Z...W...U..
00016310: 075b 05b0 0a54 09b0 0a53 05b0 075c 05b0  .[...T...S...\..
00016320: 0a51 09b0 0a4f 05b0 075d 05b0 0a4c 0ab0  .Q...O...]...L..
00016330: 0a4a 04b0 075e 05b0 0a47 0ab0 0a44 04b0  .J...^...G...D..
00016340: 0760 06b0 0a42 03b0 0761 06b0 0a40 03b0  .`...B...a...@..
00016350: 0762 07b0 0a3e 03b0 0763 07b0 0a3b 09b0  .b...>...c...;..
00016360: 0a38 0ab0 0a35 0ab0 0a32 02b0 0764 07b0  .8...5...2...d..
00016370: 0a30 0ab0 0a2d 02b0 0765 08b0 0a2b 09b0  .0...-...e...+..
00016380: 0a29 0ab0 0a27 0ab0 0a25 0ab0 0a24 09b0  .)...'...%...$..
00016390: 0a22 0ab0 0a20 09b0 0a1d 0ab0 0a1b 0ab0  ."... ..........
000163a0: 0a19 09b0 0a18 14b0 0a17 09b0 0a16 08b0  ................
000163b0: 0764 02b0 0a15 07b0 0763 03b0 0a14 07b0  .d.......c......
000163c0: 0761 09b0 0760 09b0 075f 14b0 075e 12b0  .a...`..._...^..
000163d0: 075c 13b0 075b 0ab0 075a 09b0 0759 05b0  .\...[...Z...Y..
000163e0: 0a15 0eb0 0758 06b0 0a17 09b0 0a18 04b0  .....X..........
000163f0: 0756 06b0 0a19 0db0 0755 10b0 0a1a 03b0  .V.......U......
00016400: 0754 12b0 0753 13b0 0752 08b0 0a1b 0bb0  .T...S...R......
00016410: 0751 0ab0 0750 09b0 074f 1cb0 0a1c 0ab0  .Q...P...O......
00016420: 074e 1cb0 074d 13b0 074c 0bb0 0a1d 11b0  .N...M...L......
00016430: 074b 1fb0 0a1f 19b0 074a 17b0 0a21 0fb0  .K.......J...!..
00016440: 0749 04b0 0a22 14b0 0a23 05b0 0748 0eb0  .I..."...#...H..
00016450: 0a25 0ab0 0a26 04b0 0747 0fb0 0a27 0db0  .%...&...G...'..
00016460: 0746 10b0 0a28 0cb0 0745 0ab0 0744 1cb0  .F...(...E...D..
00016470: 0743 08b0 0a2a 1db0 0a2c 01b0 0742 1cb0  .C...*...,...B..
00016480: 0a2d 0ab0 0740 0ab0 0a2e 09b0 0a2f 0ab0  .-...@......./..
00016490: 0a30 09b0 0a31 07b0 073f 03b0 0a32 13b0  .0...1...?...2..
000164a0: 0a33 14b0 0a34 04b0 073f 05b0 0a35 0ab0  .3...4...?...5..
000164b0: 0a36 0ab0 0a37 13b0 0a38 02b0 073f 08b0  .6...7...8...?..
000164c0: 0a39 0ab0 0a3b 09b0 0a3c 0ab0 0a3d 09b0  .9...;...<...=..
000164d0: 0a3f 00b0 073f 0ab0 0a41 0ab0 0a42 0ab0  .?...?...A...B..
000164e0: 0a44 09b0 0a46 06b0 073f 05b0 0a47 08b0  .D...F...?...G..
000164f0: 0a49 0ab0 0a4b 0ab0 0a4d 09b0 0a4e 04b0  .I...K...M...N..
00016500: 073f 06b0 0a4f 0ab0 0a51 09b0 0a53 0ab0  .?...O...Q...S..
00016510: 0a55 0ab0 0a57 01b0 073e 09b0 0a58 09b0  .U...W...>...X..
00016520: 0a5a 0ab0 0a5b 09b0 0a5c 09b0 073e 01b0  .Z...[...\...>..
00016530: 0a5e 0ab0 0a5f 09b0 0a61 0ab0 0a63 0ab0  .^..._...a...c..
00016540: 0a65 05b0 073e 18b0 0a67 09b0 0a68 0ab0  .e...>...g...h..
00016550: 0a6b 03b0 073e 07b0 0a6e 09b0 0a70 0ab0  .k...>...n...p..
00016560: 0a72 0ab0 0a74 09b0 0a75 01b0 073e 09b0  .r...t...u...>..
00016570: 0a76 0ab0 0a78 09b0 0a79 0ab0 0a7b 08b0  .v...x...y...{..
00016580: 073e 01b0 0a7c 14b0 0a7d 0ab0 0a7f 0eb0  .>...|...}......
00016590: 073d 2eb0 073d 11b0 0a7a 0ab0 0a75 09b0  .=...=...z...u..
000165a0: 0a72 0ab0 0a70 00b0 073d 13b0 0a6f 1bb0  .r...p...=...o..
000165b0: 073d 1fb0 0a6e 0ab0 0a6c 04b0 073d 06b0  .=...n...l...=..
000165c0: 0a6b 13b0 0a6a 13b0 0a69 02b0 073d 12b0  .k...j...i...=..
000165d0: 0a68 13b0 0a66 09b0 073c 0ab0 0a65 14b0  .h...f...<...e..
000165e0: 0a63 09b0 0a62 07b0 073c 03b0 0a61 09b0  .c...b...<...a..
000165f0: 0a60 0ab0 0a5f 0ab0 0a5e 09b0 0a5d 04b0  .`..._...^...]..
00016600: 073c 06b0 0a5c 0ab0 0a5b 0ab0 0a5a 09b0  .<...\...[...Z..
00016610: 0a59 0ab0 0a58 01b0 073c 08b0 0a57 14b0  .Y...X...<...W..
00016620: 0a56 12b0 073c 01b0 0a54 0ab0 0a53 0ab0  .V...<...T...S..
00016630: 0a52 09b0 0a51 0ab0 0a50 06b0 073c 03b0  .R...Q...P...<..
00016640: 0a4f 14b0 0a4e 16b0 073c 07b0 0a4d 13b0  .O...N...<...M..
00016650: 0a4c 0ab0 0a4b 0ab0 073b 09b0 0a4a 0ab0  .L...K...;...J..
00016660: 0a49 0ab0 0a48 11b0 073b 02b0 0a47 0ab0  .I...H...;...G..
00016670: 0a45 09b0 0a44 0ab0 0a42 0ab0 0a40 05b0  .E...D...B...@..
00016680: 073b 04b0 0a3e 0ab0 0a3c 09b0 0a3a 0ab0  .;...>...<...:..
00016690: 0a38 0ab0 0a37 02b0 073b 07b0 0a35 0ab0  .8...7...;...5..
000166a0: 0a33 0ab0 0a32 09b0 0a30 0ab0 0a2f 00b0  .3...2...0.../..
000166b0: 073b 0ab0 0a2e 09b0 0a2d 0ab0 0a2c 0ab0  .;.......-...,..
000166c0: 0a2a 07b0 073b 02b0 0a29 0ab0 0a28 13b0  .*...;...)...(..
000166d0: 0a27 0fb0 073a 05b0 0a26 13b0 0a25 13b0  .'...:...&...%..
000166e0: 0a24 02b0 073a 12b0 0a23 1cb0 0a22 00b0  .$...:...#..."..
000166f0: 073a 0ab0 0a21 1db0 0a20 07b0 073a 0db0  .:...!... ...:..
00016700: 0a1f 13b0 0a1e 0eb0 073a 0fb0 0a1d 13b0  .........:......
00016710: 0a1c 0bb0 073a 12b0 0a1b 1cb0 0739 2eb0  .....:.......9..
00016720: 0739 2eb0 0739 23b0 0a1d 0ab0 0a1e 00b0  .9...9#.........
00016730: 0739 09b0 0a20 0ab0 0a21 09b0 0a23 0ab0  .9... ...!...#..
00016740: 0a24 08b0 0739 02b0 0a27 0ab0 0a29 09b0  .$...9...'...)..
00016750: 0a2c 0ab0 0a2f 0ab0 0a31 05b0 0739 04b0  .,.../...1...9..
00016760: 0a33 0ab0 0a34 09b0 0a35 14b0 0a37 03b0  .3...4...5...7..
00016770: 0739 07b0 0a39 09b0 0a3a 0ab0 0a3c 0ab0  .9...9...:...<..
00016780: 0a3d 09b0 0a3f 00b0 0738 0ab0 0a41 0ab0  .=...?...8...A..
00016790: 0a43 09b0 0a44 0ab0 0a45 07b0 0738 02b0  .C...D...E...8..
000167a0: 0a46 0ab0 0a47 0ab0 0a49 0ab0 0a4a 09b0  .F...G...I...J..
000167b0: 0a4b 05b0 0738 05b0 0a4c 09b0 0a4e 0ab0  .K...8...L...N..
000167c0: 0a4f 0ab0 0a51 09b0 0a52 03b0 0738 07b0  .O...Q...R...8..
000167d0: 0a53 0ab0 0a54 0ab0 0a55 12b0 0738 12b0  .S...T...U...8..
000167e0: 0a77 1cb0 0738 12b0 0a75 1cb0 0737 12b0  .w...8...u...7..
000167f0: 0a74 1cb0 0737 11b0 0a72 1cb0 0737 12b0  .t...7...r...7..
00016800: 0a71 1cb0 0737 12b0 0a70 1cb0 0737 12b0  .q...7...p...7..
00016810: 0a6e 1cb0 0737 11b0 0a6d 1cb0 0736 12b0  .n...7...m...6..
00016820: 0a6b 1cb0 0736 12b0 0a6a 1cb0 0736 12b0  .k...6...j...6..
00016830: 0a69 1cb0 0736 0380 5001 0eb0 0a67 1cb0  .i...6..P....g..
00016840: 0736 12b0 0a66 1cb0 0736 12b0 0a64 1cb0  .6...f...6...d..
00016850: 0735 12b0 0a63 1cb0 0735 11b0 0a62 1cb0  .5...c...5...b..
00016860: 0735 12b0 0a60 1cb0 0735 12b0 0a5f 1cb0  .5...`...5..._..
00016870: 0735 12b0 0a5d 1cb0 0735 11b0 0a5c 1cb0  .5...]...5...\..
00016880: 0735 0bb0 0735 07b0 0a5b 27b0 0734 07b0  .5...5...['..4..
00016890: 0a59 1bb0 0a59 0ab0 0a58 02b0 0734 07b0  .Y...Y...X...4..
000168a0: 0a57 0ab0 0a56 13b0 0a55 0ab0 0a54 00b0  .W...V...U...T..
000168b0: 0733 09b0 0a53 14b0 0a52 09b0 0a51 07b0  .3...S...R...Q..
000168c0: 0733 03b0 0a50 0ab0 0a4f 09b0 0a4e 14b0  .3...P...O...N..
000168d0: 0a4d 04b0 0732 0fb0 0a4c 0ab0 0a4b 13b0  .M...2...L...K..
000168e0: 0a49 02b0 0732 08b0 0a48 13b0 0a47 0ab0  .I...2...H...G..
000168f0: 0a46 09b0 0730 0ab0 0a44 13b0 0a43 10b0  .F...0...D...C..
00016900: 072f 04b0 0a41 13b0 0a40 13b0 0a3f 04b0  ./...A...@...?..
00016910: 072e 23b0 0a3e 0bb0 072d 12b0 0a3d 13b0  ..#..>...-...=..
00016920: 0a3c 09b0 072d 1eb0 0a3b 0fb0 072c 0eb0  .<...-...;...,..
00016930: 0a3a 1db0 0a39 03b0 072b 1ab0 0a38 13b0  .:...9...+...8..
00016940: 0a37 01b0 072b 13b0 0a36 1bb0 072a 02b0  .7...+...6...*..
00016950: 0a35 13b0 0a34 18b0 0729 0fb0 0a33 1fb0  .5...4...)...3..
00016960: 0729 07b0 0a32 1db0 0a31 0ab0 0728 27b0  .)...2...1...('.
00016970: 0a30 07b0 0727 2db0 0727 06b0 0a2f 1db0  .0...'-..'.../..
00016980: 0a2e 0bb0 0726 2eb0 0725 01b0 0a2d 1db0  .....&...%...-..
00016990: 0a2c 10b0 0725 2db0 0724 06b0 0a2b 28b0  .,...%-..$...+(.
000169a0: 0723 12b0 0a2a 1cb0 0723 2eb0 0722 17b0  .#...*...#..."..
000169b0: 0a29 16b0 0721 10b0 0a28 1db0 0a27 01b0  .)...!...(...'..
000169c0: 0721 2eb0 0720 0bb0 0a26 23b0 071f 0eb0  .!... ...&#.....
000169d0: 0a25 1fb0 071f 2eb0 071e 2eb0 071d 0cb0  .%..............
000169e0: 0a24 22b0 071d 2db0 071c 12b0 0a23 1cb0  .$"...-......#..
000169f0: 071c 11b0 0a22 1db0 071b 11b0 0a22 1db0  ....."......."..
00016a00: 071a 11b0 0a21 1cb0 071a 12b0 0a21 1cb0  .....!.......!..
00016a10: 0719 11b0 0a20 1db0 0718 11b0 0a20 1db0  ..... ....... ..
00016a20: 0718 11b0 0a1f 1cb0 0717 12b0 0a1e 1cb0  ................
00016a30: 0716 11b0 0a1d 1db0 0716 11b0 0a1c 1db0  ................
00016a40: 0715 11b0 0a1b 1cb0 0714 12b0 0a1b 1cb0  ................
00016a50: 0714 11b0 0a1a 1db0 0713 11b0 0a19 1580  ................
00016a60: 543a 08b0 0712 11b0 0a18 1cb0 0712 12b0  T:..............
00016a70: 0a17 1cb0 0711 11b0 0a16 1db0 0710 11b0  ................
00016a80: 0a16 1db0 0710 11b0 0a15 1cb0 070f 0480  ................
00016a90: 4d3c 0eb0 0a14 1cb0 070e 11b0 0a13 1db0  M<..............
00016aa0: 070e 11b0 0a12 1db0 070d 11b0 0a11 1cb0  ................
00016ab0: 070c 12b0 0a11 1cb0 070c 11b0 0a10 1db0  ................
00016ac0: 070b 11b0 0a0f 1db0 070b 11b0 0a0e 1cb0  ................
00016ad0: 070a 12b0 0a0d 1cb0 0709 11b0 0a0c 1db0  ................
00016ae0: 0709 11b0 0a0c 1db0 0708 11b0 0a0b 1cb0  ................
00016af0: 0707 12b0 0a0a 1cb0 0707 11b0 0a09 1db0  ................
00016b00: 0706 11b0 0a08 1db0 0705 11b0 0a07 1cb0  ................
00016b10: 0705 12b0 0a07 1cb0 0704 11b0 0a06 1db0  ................
00016b20: 0703 11b0 0a05 1db0 0703 11b0 0a04 1cb0  ................
00016b30: 0702 12b0 0a03 1cb0 0701 11b0 0a03 1db0  ................
00016b40: 0701 11b0 0a02 1db0 0700 11b0 0a01 14b0  ................
00016b50: 0a01 00b0 0700 00ff 2f00 4d54 726b 0000  ......../.MTrk..
00016b60: 1215 00ff 011c 4c69 7669 6e67 2069 6e20  ......Living in 
00016b70: 7468 6520 4869 6d61 6c61 7961 7320 3120  the Himalayas 1 
00016b80: 4b43 00b0 0745 8192 05b0 0a23 1cb0 0a24  KC...E.....#...$
00016b90: 12b0 0a26 0ab0 0a27 09b0 0a28 09b0 0a29  ...&...'...(...)
00016ba0: 0ab0 0a2a 0ab0 0a2b 08b0 0a2d 0ab0 0a2e  ...*...+...-....
00016bb0: 09b0 0a2f 0ab0 0a30 09b0 0a31 09b0 0a32  .../...0...1...2
00016bc0: 0ab0 0a33 09b0 0a34 13b0 0a35 09b0 0a36  ...3...4...5...6
00016bd0: 13b0 0a37 12b0 0a38 13b0 0a39 13b0 0a3a  ...7...8...9...:
00016be0: 09b0 0a3b 0ab0 0a3c 09b0 0a3d 09b0 0a3e  ...;...<...=...>
00016bf0: 0ab0 0a3f 13b0 0a40 12b0 0a41 0ab0 0a42  ...?...@...A...B
00016c00: 25b0 0a43 09b0 0a44 0ab0 0a45 12b0 0a46  %..C...D...E...F
00016c10: 26b0 0a47 13b0 0a49 09b0 0a4a 13b0 0a4b  &..G...I...J...K
00016c20: 1cb0 0a4c 54b0 0a4d 42b0 0a4e 25b0 0a4f  ...LT..MB..N%..O
00016c30: 12b0 0a50 1db0 0a51 1bb0 0a52 1db0 0a54  ...P...Q...R...T
00016c40: 12b0 0a55 26b0 0a56 09b0 0a57 1cb0 0a58  ...U&..V...W...X
00016c50: 13b0 0a59 09b0 0a5a 0ab0 0a5b 09b0 0a5c  ...Y...Z...[...\
00016c60: 0590 3033 0090 4154 0090 4263 0090 2945  ..03..AT..Bc..)E
00016c70: 05b0 0a5d 09b0 0a5e 0ab0 0a5f 13b0 0a60  ...]...^..._...`
00016c80: 31b0 0a61 27b0 0a62 00b0 0a63 8278 b00a  1..a'..b...c.x..
00016c90: 5e44 b00a 5d1d b00a 5c13 b00a 5b0a b00a  ^D..]...\...[...
00016ca0: 5a09 b00a 590a b00a 580a b00a 5709 b00a  Z...Y...X...W...
00016cb0: 550a b00a 540a b00a 5209 b00a 510a b00a  U...T...R...Q...
00016cc0: 4f0a b00a 4c09 b00a 490a b00a 460a b00a  O...L...I...F...
00016cd0: 4209 b00a 3f0a b00a 3b0a b00a 370a b00a  B...?...;...7...
00016ce0: 3409 b00a 300a b00a 2c09 b00a 280a b00a  4...0...,...(...
00016cf0: 250a b00a 220a b00a 2009 b00a 1e0a b00a  %..."... .......
00016d00: 1d09 b00a 1c0a b00a 1b0a b00a 1a09 b00a  ................
00016d10: 190a b00a 170a b00a 1509 b00a 1444 b00a  .............D..
00016d20: 170a b00a 1909 b00a 1b0a b00a 1d09 b00a  ................
00016d30: 1e0a b00a 1f0a b00a 200a b00a 2309 b00a  ........ ...#...
00016d40: 250a b00a 260a b00a 2809 b00a 2b0a b00a  %...&...(...+...
00016d50: 2d0a b00a 2f09 b00a 310a b00a 320a b00a  -.../...1...2...
00016d60: 3409 b00a 350a b00a 3613 b00a 370a b00a  4...5...6...7...
00016d70: 380a b00a 3a09 b00a 3b0a b00a 3c0a b00a  8...:...;...<...
00016d80: 3d09 b00a 3f0a b00a 400a b00a 4113 b00a  =...?...@...A...
00016d90: 4207 9040 5e0c b00a 4481 0380 4160 0080  B..@^...D...A`..
00016da0: 4255 48b0 0a43 0ab0 0a42 0ab0 0a40 09b0  BUH..C...B...@..
00016db0: 0a3f 0ab0 0a3e 13b0 0a3d 13b0 0a3b 14b0  .?...>...=...;..
00016dc0: 0a3a 13b0 0a39 1db0 0a38 13b0 0a36 1eb0  .:...9...8...6..
00016dd0: 0a35 09b0 0a34 13b0 0a33 14b0 0a32 09b0  .5...4...3...2..
00016de0: 0a31 31b0 0a2f 09b0 0a2e 0ab0 0a2d 0ab0  .11../.......-..
00016df0: 0a2b 09b0 0a2a 14b0 0a29 1db0 0a27 13b0  .+...*...)...'..
00016e00: 0a26 13b0 0a25 1db0 0a24 0ab0 0a23 13b0  .&...%...$...#..
00016e10: 0a22 30b0 0a21 57b0 0a20 14b0 0a1f 4db0  ."0..!W.. ....M.
00016e20: 0a1e 811b b00a 1f0a b00a 2009 b00a 210a  .......... ...!.
00016e30: b00a 2209 b00a 2403 9041 6301 9042 5c06  .."...$..Ac..B\.
00016e40: b00a 250a b00a 260a b00a 2707 8040 4f02  ..%...&...'..@O.
00016e50: b00a 290a b00a 2b09 b00a 2d0a b00a 2f0a  ..)...+...-.../.
00016e60: b00a 300a b00a 3109 b00a 330a b00a 350a  ..0...1...3...5.
00016e70: b00a 3809 b00a 3a0a b00a 3c0a b00a 3f09  ..8...:...<...?.
00016e80: b00a 410a b00a 430a b00a 4609 b00a 490a  ..A...C...F...I.
00016e90: b00a 4b09 b00a 4e0a b00a 510a b00a 5409  ..K...N...Q...T.
00016ea0: b00a 570a b00a 5a0a b00a 5d09 b00a 600a  ..W...Z...]...`.
00016eb0: b00a 620a b00a 6509 b00a 680a b00a 6a0a  ..b...e...h...j.
00016ec0: b00a 6d09 b00a 6f0a b00a 700a b00a 710a  ..m...o...p...q.
00016ed0: b00a 7213 b00a 730a b00a 742d b00a 692e  ..r...s...t-..i.
00016ee0: b00a 5f2e b00a 542e b00a 4a2d b00a 402e  .._...T...J-..@.
00016ef0: b00a 352e b00a 2b02 b00a 2b2e b00a 312e  ..5...+...+...1.
00016f00: b00a 372d b00a 3d2e b00a 432e b00a 492e  ..7-..=...C...I.
00016f10: b00a 4f2d b00a 552e b00a 5b21 b00a 6000  ..O-..U...[!..`.
00016f20: b00a 650a b00a 600a b00a 5a0a b00a 5509  ..e...`...Z...U.
00016f30: b00a 510a b00a 4d09 b00a 4a0a b00a 4709  ..Q...M...J...G.
00016f40: b00a 440a b00a 410a b00a 3f0a b00a 3d09  ..D...A...?...=.
00016f50: b00a 3b0a b00a 3a13 b00a 390a b00a 380a  ..;...:...9...8.
00016f60: b00a 3709 b00a 3514 b00a 3409 b00a 330a  ..7...5...4...3.
00016f70: b00a 310a b00a 3013 b00a 2e0a b00a 2d04  ..1...0.......-.
00016f80: 9040 6305 b00a 2c0a b00a 2b19 8041 5904  .@c...,...+..AY.
00016f90: b00a 2a13 b00a 280a b00a 270a b00a 2613  ..*...(...'...&.
00016fa0: b00a 2513 b00a 2413 b00a 234e b00a 250a  ..%...$...#N..%.
00016fb0: b00a 2609 b00a 280a b00a 2909 b00a 2b0a  ..&...(...)...+.
00016fc0: b00a 2c0a b00a 2d0a b00a 2f09 b00a 300a  ..,...-.../...0.
00016fd0: b00a 310a b00a 336a b00a 3513 b00a 370a  ..1...3j..5...7.
00016fe0: b00a 380a b00a 3909 b00a 3b09 b00a 3e0a  ..8...9...;...>.
00016ff0: b00a 3f31 b00a 411d b00a 4209 b00a 430a  ..?1..A...B...C.
00017000: b00a 440a b00a 4609 b00a 470a b00a 480a  ..D...F...G...H.
00017010: b00a 4a09 b00a 4c0a b00a 4e0a b00a 5009  ..J...L...N...P.
00017020: b00a 510a b00a 521d b00a 5414 b00a 5639  ..Q...R...T...V9
00017030: b00a 540a b00a 4c0a b00a 420a b00a 3b09  ..T...L...B...;.
00017040: b00a 370a b00a 3557 b00a 3309 b00a 310a  ..7...5W..3...1.
00017050: b00a 300a b00a 2e52 b007 4318 b00a 2d16  ..0....R..C...-.
00017060: b007 421a b00a 2c14 b007 4126 b00a 2b07  ..B...,...A&..+.
00017070: b007 412a b00a 2a04 b007 400f b00a 291d  ..A*..*...@...).
00017080: b00a 2802 b007 402e b007 3f14 b00a 2719  ..(...@...?...'.
00017090: b007 3e2e b007 3e2d b00a 2601 b007 3d08  ..>...>-..&...=.
000170a0: b00a 2526 b007 3d2d b007 3c0e b00a 2420  ..%&..=-..<...$ 
000170b0: b007 3c07 b00a 2327 b007 3b2e b007 3a01  ..<...#'..;...:.
000170c0: b00a 222c b007 3a2e b007 392e b007 392e  ..",..:...9...9.
000170d0: b007 382d b007 3703 8042 3c2b b007 372e  ..8-..7..B<+..7.
000170e0: b007 3600 9041 342e b007 362d b007 3511  ..6..A4...6-..5.
000170f0: 903c 011d b007 350b 8040 2d23 b007 342e  .<....5..@-#..4.
00017100: b007 332d b007 332e b007 322e b007 322e  ..3-..3...2...2.
00017110: b007 312d b007 312e b007 302e b007 2f2e  ..1-..1...0.../.
00017120: b007 2f2d b007 2e2e b007 2e2e b007 2d2e  ../-..........-.
00017130: b007 2c2d b007 2c2e b007 2b2e b007 2b2e  ..,-..,...+...+.
00017140: b007 2a2d b007 2a2e b007 292e b007 282e  ..*-..*...)...(.
00017150: b007 282d b007 272e b007 270a 803c 0124  ..(-..'...'..<.$
00017160: b007 262e b007 252d b007 252e b007 242e  ..&...%-..%...$.
00017170: b007 242e b007 232d b007 232e b007 222e  ..$...#-..#...".
00017180: b007 212e b007 212d b007 202e b007 2008  ..!...!-.. ... .
00017190: 8041 5c26 b007 1f2e b007 1f2b 8030 0100  .A\&.......+.0..
000171a0: 8029 0102 b007 1e2e b007 1d2e b007 1d2e  .)..............
000171b0: b007 1c2d b007 1c2e b007 1b2e b007 1a2e  ...-............
000171c0: b007 1a2d b007 192e b007 192e b007 182e  ...-............
000171d0: b007 182d b007 172e b007 162e b007 162e  ...-............
000171e0: b007 152d b007 152e b007 142e b007 132e  ...-............
000171f0: b007 132d b007 122e b007 122e b007 112e  ...-............
00017200: b007 112d b007 102e b007 0f2e b007 0f2e  ...-............
00017210: b007 0e2d b007 0e2e b007 0d2e b007 0d2e  ...-............
00017220: b007 0c2d b007 0b2e b007 0b2e b007 0a2e  ...-............
00017230: b007 0a2d b007 092e b007 082e b007 082e  ...-............
00017240: b007 072d b007 072e b007 062e b007 062e  ...-............
00017250: b007 052d b007 042e b007 042e b007 032e  ...-............
00017260: b007 032d b007 022e b007 012e b007 012e  ...-............
00017270: b007 002d b007 0013 b007 00f0 07b0 0700  ...-............
00017280: 2eb0 0703 2eb0 0706 0090 4123 2db0 0709  ..........A#-...
00017290: 2eb0 070c 2eb0 070f 2eb0 0713 2db0 0716  ............-...
000172a0: 2eb0 0719 2eb0 071c 2eb0 071f 02b0 0a78  ...............x
000172b0: 2bb0 0722 03b0 0a75 2bb0 0726 03b0 0a72  +.."...u+..&...r
000172c0: 2bb0 0729 03b0 0a70 2bb0 072c 02b0 0a6d  +..)...p+..,...m
000172d0: 2bb0 072f 03b0 0a6a 2bb0 0732 03b0 0a68  +../...j+..2...h
000172e0: 2bb0 0735 03b0 0a65 2bb0 0739 02b0 0a63  +..5...e+..9...c
000172f0: 2bb0 073c 03b0 0a60 2bb0 073f 03b0 0a5d  +..<...`+..?...]
00017300: 06b0 0740 28b0 0a5b 1db0 0741 10b0 0a58  ...@(..[...A...X
00017310: 1ab0 0742 14b0 0a56 2eb0 0a53 2eb0 0a50  ...B...V...S...P
00017320: 2db0 0a4e 2eb0 0a4b 2eb0 0a49 2eb0 0a46  -..N...K...I...F
00017330: 2db0 0a43 2eb0 0a41 2eb0 0a3e 2eb0 0a3c  -..C...A...>...<
00017340: 2db0 0a39 2eb0 0a36 2eb0 0a34 2eb0 0a31  -..9...6...4...1
00017350: 0cb0 0a31 45b0 0a30 23b0 0a2f 1bb0 0a2e  ...1E..0#../....
00017360: 15b0 0a2d 5ab0 0a2c 30b0 0a2b 3eb0 0a2a  ...-Z..,0..+>..*
00017370: 5ab0 0a29 68b0 0a28 37b0 0a27 5ab0 0a26  Z..)h..(7..'Z..&
00017380: 3eb0 0a25 5ab0 0a24 1cb0 0a23 812d b00a  >..%Z..$...#.-..
00017390: 2406 b00a 2507 b00a 260e b00a 2707 b00a  $...%...&...'...
000173a0: 2807 b00a 2914 b00a 2a07 b00a 2c07 b00a  (...)...*...,...
000173b0: 2d07 b00a 2e07 b00a 2f07 b00a 3007 b00a  -......./...0...
000173c0: 3107 b00a 3207 b00a 330e b00a 3407 b00a  1...2...3...4...
000173d0: 3506 b00a 370e b00a 3815 b00a 3a07 b00a  5...7...8...:...
000173e0: 3b1b b00a 3c07 b00a 3e07 b00a 3f15 b00a  ;...<...>...?...
000173f0: 4007 b00a 4107 b00a 420e b00a 4407 b00a  @...A...B...D...
00017400: 4606 b00a 4723 b00a 481b b00a 490e b00a  F...G#..H...I...
00017410: 4a07 b00a 4b07 b00a 4c07 b00a 4d15 b00a  J...K...L...M...
00017420: 4e14 b00a 500e b00a 510e b00a 520e b00a  N...P...Q...R...
00017430: 5315 b00a 540e b00a 561b b00a 5707 b00a  S...T...V...W...
00017440: 580e b00a 5953 b00a 5a0e b00a 5b0d b00a  X...YS..Z...[...
00017450: 5d07 b00a 5e07 b00a 5f07 b00a 6007 b00a  ]...^..._...`...
00017460: 6107 b00a 6307 b00a 6507 b00a 660e b00a  a...c...e...f...
00017470: 670e b00a 680d b00a 6907 b00a 6a07 b00a  g...h...i...j...
00017480: 6b0e b00a 6d07 b00a 6e0e b00a 6f06 b00a  k...m...n...o...
00017490: 700e b00a 7123 b00a 7268 b00a 711b b00a  p...q#..rh..q...
000174a0: 700e b00a 6f0e b00a 6e07 b00a 6d07 b00a  p...o...n...m...
000174b0: 6c14 b00a 6b0e b00a 6a0e b00a 690e b00a  l...k...j...i...
000174c0: 680e b00a 6714 b00a 6607 b00a 650e b00a  h...g...f...e...
000174d0: 6415 b00a 630e b00a 6114 b00a 600e b00a  d...c...a...`...
000174e0: 5f07 b00a 5e0e b00a 5d0e b00a 5b14 b00a  _...^...]...[...
000174f0: 5a0e b00a 5915 b00a 580e b00a 570e b00a  Z...Y...X...W...
00017500: 550d b00a 540e b00a 530e b00a 520e b00a  U...T...S...R...
00017510: 510e b00a 5014 b00a 4f15 b00a 4d0e b00a  Q...P...O...M...
00017520: 4c07 b00a 4b07 b00a 4a0d b00a 4907 b00a  L...K...J...I...
00017530: 4807 b00a 470e b00a 460e b00a 440e b00a  H...G...F...D...
00017540: 4315 b00a 4106 b00a 400e b00a 3f15 b00a  C...A...@...?...
00017550: 3e0e b00a 3d14 b00a 3c08 b00a 3b06 b00a  >...=...<...;...
00017560: 3a0e b00a 391c b00a 3814 b00a 371c b00a  :...9...8...7...
00017570: 361c b00a 3522 b00a 342a b00a 330d b00a  6...5"..4*..3...
00017580: 321c b00a 312a b00a 3029 b00a 2f07 b00a  2...1*..0)../...
00017590: 2e0e b00a 2d07 b00a 2c07 b00a 2b0d b00a  ....-...,...+...
000175a0: 2a0e b00a 2923 b00a 2807 b00a 273e b00a  *...)#..(...'>..
000175b0: 2615 b00a 254c b00a 2414 b00a 2323 b00a  &...%L..$...##..
000175c0: 210e b00a 2030 b00a 1f52 8041 5090 1bb0  !... 0...R.AP...
000175d0: 0700 2eb0 0700 2eb0 0701 2db0 0702 2eb0  ..........-.....
000175e0: 0703 2eb0 0703 2eb0 0704 2db0 0705 2eb0  ..........-.....
000175f0: 0706 2eb0 0706 2eb0 0707 840d b007 082e  ................
00017600: b007 092e b007 0a2e b007 0a2d b007 0b2e  ...........-....
00017610: b007 0c2e b007 0d2e b007 0d2d b007 0e2e  ...........-....
00017620: b007 0f2d b00a 3701 b007 102e b007 112d  ...-..7........-
00017630: b007 112e b007 122e b007 132e b007 142d  ...............-
00017640: b007 142e b007 152e b007 162e b007 172d  ...............-
00017650: b007 182e b007 182e b007 192e b007 1a2d  ...............-
00017660: b007 1b2e b007 1b2e b007 1c2e b007 1d2d  ...............-
00017670: b007 1e2e b007 1f2e b007 1f2e b007 202d  .............. -
00017680: b007 212e b007 222e b007 222e b007 2305  ..!..."..."...#.
00017690: 9046 3328 b007 242e b007 252e b007 262e  .F3(..$...%...&.
000176a0: b007 262d b007 272e b007 282e b007 292e  ..&-..'...(...).
000176b0: b007 292d b007 2a2e b007 2b2e b007 2c2e  ..)-..*...+...,.
000176c0: b007 2d2d b007 2d2e b007 2e2e b007 2f2e  ..--..-......./.
000176d0: b007 302d b007 302e b007 312e b007 322e  ..0-..0...1...2.
000176e0: b007 332d b007 332e b007 342e b007 352e  ..3-..3...4...5.
000176f0: b007 362d b007 372e b007 372e b007 3814  ..6-..7...7...8.
00017700: b007 392e b007 382e b007 382d b007 372e  ..9...8...8-..7.
00017710: b007 372e b007 362e b007 362d b007 352e  ..7...6...6-..5.
00017720: b007 352e b007 352e b007 352d b007 352e  ..5...5...5-..5.
00017730: b007 352e b007 352e b007 342d b007 342e  ..5...5...4-..4.
00017740: b007 342e b007 342e b007 342d b007 342e  ..4...4...4-..4.
00017750: b007 342e b007 332e b007 332d b007 332e  ..4...3...3-..3.
00017760: b007 332e b007 332e b007 332d b007 322e  ..3...3...3-..2.
00017770: b007 322e b007 322e b007 322d b007 322e  ..2...2...2-..2.
00017780: b007 322e b007 322e b007 312d b007 312e  ..2...2...1-..1.
00017790: b007 312e b007 312e b007 312d b007 312e  ..1...1...1-..1.
000177a0: b007 312e b007 302e b007 302d b007 302e  ..1...0...0-..0.
000177b0: b007 302e b007 302e b007 302d b007 2f2e  ..0...0...0-../.
000177c0: b007 2f2e b007 2f2e b007 2f2d b007 2f2e  ../.../.../-../.
000177d0: b007 2f2e b007 2f2e b007 2e2d b007 2e2e  ../.../....-....
000177e0: b007 2e2e b007 2e2e b007 2e2d b007 2e2e  ...........-....
000177f0: b007 2e2e b007 2d2e b007 2d2d b007 2d2e  ......-...--..-.
00017800: b007 2d2e b007 2d2e b007 2d2d b007 2c2e  ..-...-...--..,.
00017810: b007 2c2e b007 2c2e b007 2c2d b007 2c2e  ..,...,...,-..,.
00017820: b007 2c2e b007 2c2e b007 2b2d b007 2b2e  ..,...,...+-..+.
00017830: b007 2b2e b007 2b2e b007 2b2d b007 2b2e  ..+...+...+-..+.
00017840: b007 2b2e b007 2a2e b007 2a2d b007 2a2e  ..+...*...*-..*.
00017850: b007 2a2e b007 2a2e b007 2a2d b007 292e  ..*...*...*-..).
00017860: b007 292e b007 292e b007 292d b007 292e  ..)...)...)-..).
00017870: b007 292e b007 292e b007 282d b007 282e  ..)...)...(-..(.
00017880: b007 282e b007 282e b007 282d b007 282e  ..(...(...(-..(.
00017890: b007 282e b007 272e b007 272d b007 272e  ..(...'...'-..'.
000178a0: b007 272e b007 272e b007 272d b007 262e  ..'...'...'-..&.
000178b0: b007 262e b007 262e b007 262d b007 262e  ..&...&...&-..&.
000178c0: b007 262e b007 262e b007 252d b007 252e  ..&...&...%-..%.
000178d0: b007 252e b007 252e b007 252d b007 252e  ..%...%...%-..%.
000178e0: b007 252e b007 242e b007 242d b007 242e  ..%...$...$-..$.
000178f0: b007 242e b007 242e b007 242d b007 232e  ..$...$...$-..#.
00017900: b007 232e b007 232e b007 232d b007 232e  ..#...#...#-..#.
00017910: b007 232e b007 231f b007 232d b007 232e  ..#...#...#-..#.
00017920: b007 232e b007 232e b007 232d b007 222e  ..#...#...#-..".
00017930: b007 222e b007 222e b007 222d b007 222e  .."..."..."-..".
00017940: b007 222e b007 222e b007 222d b007 222e  .."..."..."-..".
00017950: b007 222e b007 222e b007 222d b007 222e  .."..."..."-..".
00017960: b007 222e b007 222e b007 222d b007 222e  .."..."..."-..".
00017970: b007 222e b007 222e b007 222d b007 222e  .."..."..."-..".
00017980: b007 222e b007 222e b007 222d b007 222e  .."..."..."-..".
00017990: b007 222e b007 222e b007 222d b007 222e  .."..."..."-..".
000179a0: b007 222e b007 222e b007 222d b007 222e  .."..."..."-..".
000179b0: b007 222e b007 222e b007 222d b007 222e  .."..."..."-..".
000179c0: b007 222e b007 212e b007 212d b007 212e  .."...!...!-..!.
000179d0: b007 212e b007 212e b007 212d b007 212e  ..!...!...!-..!.
000179e0: b007 212e b007 212e b007 212d b007 212e  ..!...!...!-..!.
000179f0: b007 212e b007 212e b007 212d b007 212e  ..!...!...!-..!.
00017a00: b007 212e b007 212e b007 212d b007 212e  ..!...!...!-..!.
00017a10: b007 212e b007 212e b007 212d b007 212e  ..!...!...!-..!.
00017a20: b007 212e b007 212e b007 212d b007 212e  ..!...!...!-..!.
00017a30: b007 212e b007 212e b007 212d b007 212e  ..!...!...!-..!.
00017a40: b007 212e b007 212e b007 212d b007 212e  ..!...!...!-..!.
00017a50: b007 212e b007 212e b007 212d b007 2113  ..!...!...!-..!.
00017a60: b007 212e b007 212e b007 212d b007 212e  ..!...!...!-..!.
00017a70: b007 212e b007 212e b007 212d b007 222e  ..!...!...!-..".
00017a80: b007 222e b007 222e b007 222d b007 222e  .."..."..."-..".
00017a90: b007 222e b007 222e b007 232d b007 232e  .."..."...#-..#.
00017aa0: b007 232e b007 232e b007 232d b007 232e  ..#...#...#-..#.
00017ab0: b007 232e b007 242e b007 242d b007 242e  ..#...$...$-..$.
00017ac0: b007 242e b007 242e b007 242d b007 242e  ..$...$...$-..$.
00017ad0: b007 242e b007 242e b007 242d b007 242e  ..$...$...$-..$.
00017ae0: b007 242e b007 242e b007 242d b007 252e  ..$...$...$-..%.
00017af0: b007 252e b007 252e b007 252d b007 252e  ..%...%...%-..%.
00017b00: b007 252e b007 252e b007 252d b007 262e  ..%...%...%-..&.
00017b10: b007 262e b007 262e b007 262d b007 262e  ..&...&...&-..&.
00017b20: b007 262e b007 262e b007 262d b007 262e  ..&...&...&-..&.
00017b30: b007 272e b007 272e b007 272d b007 272e  ..'...'...'-..'.
00017b40: b007 272e b007 272e b007 272d b007 272e  ..'...'...'-..'.
00017b50: b007 282e b007 282e b007 282d b007 282e  ..(...(...(-..(.
00017b60: b007 282e b007 282e b007 282d b007 282e  ..(...(...(-..(.
00017b70: b007 282e b007 292e b007 292d b007 292e  ..(...)...)-..).
00017b80: b007 292e b007 292e b007 292d b007 292e  ..)...)...)-..).
00017b90: b007 292e b007 2a2e b007 2a2d b007 2a2e  ..)...*...*-..*.
00017ba0: b007 2a2e b007 2a2e b007 2a2d b007 2a2e  ..*...*...*-..*.
00017bb0: b007 2a2e b007 2a2e b007 2b2d b007 2b2e  ..*...*...+-..+.
00017bc0: b007 2b2e b007 2b2e b007 2b2d b007 2b2e  ..+...+...+-..+.
00017bd0: b007 2b2e b007 2b2e b007 2c2d b007 2c2e  ..+...+...,-..,.
00017be0: b007 2c2e b007 2c2e b007 2c2d b007 2c2e  ..,...,...,-..,.
00017bf0: b007 2c2e b007 2c2e b007 2c2d b007 2d2e  ..,...,...,-..-.
00017c00: b007 2d2e b007 2d2e b007 2d2d b007 2d2e  ..-...-...--..-.
00017c10: b007 2d2e b007 2d2e b007 2d2d b007 2e2e  ..-...-...--....
00017c20: b007 2e2e b007 2e2e b007 2e2d b007 2e2e  ...........-....
00017c30: b007 2e2e b007 2e2e b007 2e2d b007 2e2e  ...........-....
00017c40: b007 2f2e b007 2f2e b007 2f2d b007 2f2e  ../.../.../-../.
00017c50: b007 2f2e b007 2f2e b007 2f2d b007 2f2e  ../.../.../-../.
00017c60: b007 302e b007 302e b007 302d b007 302e  ..0...0...0-..0.
00017c70: b007 302e b007 302e b007 302d b007 302e  ..0...0...0-..0.
00017c80: b007 3012 b007 312e b007 312e b007 312d  ..0...1...1...1-
00017c90: b007 312e b007 312e b007 322e b007 322d  ..1...1...2...2-
00017ca0: b007 322e b007 322e b007 332e b007 332d  ..2...2...3...3-
00017cb0: b007 332e b007 332e b007 332e b007 342d  ..3...3...3...4-
00017cc0: b007 342e b007 342e b007 342e b007 352d  ..4...4...4...5-
00017cd0: b007 352e b007 352e b007 352e b007 352d  ..5...5...5...5-
00017ce0: b007 362e b007 362e b007 362e b007 362d  ..6...6...6...6-
00017cf0: b007 372e b007 372e b007 372e b007 372d  ..7...7...7...7-
00017d00: b007 372e b007 382e b007 382e b007 382d  ..7...8...8...8-
00017d10: b007 382e b007 392e b007 392e b007 392d  ..8...9...9...9-
00017d20: b007 392e b007 3a2e b007 3a2e b007 3a2d  ..9...:...:...:-
00017d30: b007 3a2e b007 3a2e b007 3b2e b007 3b2d  ..:...:...;...;-
00017d40: b007 3b2e b007 3b2e b007 3c2e b007 3c2d  ..;...;...<...<-
00017d50: b007 3c2e b007 3c2e b007 3c2e b007 3d2d  ..<...<...<...=-
00017d60: b007 3d2e b007 3d2e b007 3d0c 8046 6314  ..=...=...=..Fc.
00017d70: b007 3e00 ff2f 004d 5472 6b00 0000 2300  ..>../.MTrk...#.
00017d80: ff01 1757 696e 6720 5570 7269 6768 7420  ...Wing Upright 
00017d90: 486f 6e6b 7920 546f 6e6b 00b0 0745 00ff  Honky Tonk...E..
00017da0: 2f00 4d54 726b 0000 0967 00ff 010b 5469  /.MTrk...g....Ti
00017db0: 6e79 2053 616c 6f6f 6e85 8b74 b00a 2224  ny Saloon..t.."$
00017dc0: b00a 2181 11b0 0a1f 2eb0 0a20 2db0 0a21  ..!........ -..!
00017dd0: 2eb0 0a22 2eb0 0a23 2eb0 0a24 2db0 0a25  ..."...#...$-..%
00017de0: 2eb0 0a26 2eb0 0a27 2eb0 0a29 2db0 0a2a  ...&...'...)-..*
00017df0: 2eb0 0a2b 2eb0 0a2c 2eb0 0a2d 2db0 0a2e  ...+...,...--...
00017e00: 2eb0 0a2f 2eb0 0a30 2eb0 0a31 2db0 0a33  .../...0...1-..3
00017e10: 2eb0 0a34 2eb0 0a35 2eb0 0a36 09b0 071b  ...4...5...6....
00017e20: 24b0 0a37 24b0 071d 0ab0 0a38 23b0 071e  $..7$......8#...
00017e30: 08b0 071e 03b0 0a39 2bb0 0717 00b0 0717  .......9+.......
00017e40: 03b0 0a3a 2bb0 0717 02b0 0a3b 2bb0 0717  ...:+......;+...
00017e50: 03b0 0a3d 2bb0 0717 03b0 0a3e 2bb0 0717  ...=+......>+...
00017e60: 03b0 0a3f 2bb0 0717 02b0 0a40 2bb0 0717  ...?+......@+...
00017e70: 03b0 0a41 2bb0 0717 03b0 0a42 2bb0 0717  ...A+......B+...
00017e80: 03b0 0a43 2bb0 0717 02b0 0a44 2bb0 0717  ...C+......D+...
00017e90: 03b0 0a45 2bb0 0717 03b0 0a47 2bb0 0717  ...E+......G+...
00017ea0: 03b0 0a48 2bb0 0717 02b0 0a49 2bb0 0717  ...H+......I+...
00017eb0: 03b0 0a4a 2bb0 0717 03b0 0a4b 2bb0 0717  ...J+......K+...
00017ec0: 03b0 0a4c 2bb0 0717 02b0 0a4d 0fb0 407f  ...L+......M..@.
00017ed0: 1cb0 0717 03b0 0a4e 2bb0 0717 03b0 0a4f  .......N+......O
00017ee0: 2ab0 0a51 01b0 0717 2eb0 0718 2db0 0718  *..Q........-...
00017ef0: 2eb0 0718 2eb0 0718 2eb0 0718 0a90 4a41  ..............JA
00017f00: 23b0 0718 2eb0 0718 2eb0 0718 2eb0 0718  #...............
00017f10: 2db0 0718 2eb0 0718 2eb0 0718 2eb0 0718  -...............
00017f20: 2db0 0718 2eb0 0718 2eb0 0718 2eb0 0718  -...............
00017f30: 2db0 0718 2eb0 0718 2eb0 0718 2c80 4a5d  -...........,.J]
00017f40: 0090 4b44 02b0 0718 2db0 071a 2eb0 071a  ..KD....-.......
00017f50: 2eb0 071a 2eb0 071a 2db0 071a 2eb0 071a  ........-.......
00017f60: 2eb0 071a 2eb0 071a 2db0 071a 2eb0 071a  ........-.......
00017f70: 2eb0 071a 2eb0 071a 2db0 071a 2eb0 071a  ........-.......
00017f80: 2eb0 071a 2080 4b40 0090 4d3e 0eb0 071a  .... .K@..M>....
00017f90: 2db0 071a 2eb0 071a 2eb0 071a 2eb0 071a  -...............
00017fa0: 2db0 071a 2eb0 071b 2eb0 071b 1380 4d60  -.............M`
00017fb0: 1bb0 071b 2db0 071b 2eb0 071b 0990 4d38  ....-.........M8
00017fc0: 25b0 071b 2eb0 071b 11b0 4000 1cb0 071b  %.........@.....
00017fd0: 2eb0 071b 20b0 407f 0eb0 071b 1490 4b37  .... .@.......K7
00017fe0: 1ab0 071b 2db0 071b 2eb0 071b 0480 4d3a  ....-.........M:
00017ff0: 2ab0 071b 2eb0 071b 1f80 4b5c 0090 4a3c  *.........K\..J<
00018000: 0eb0 071b 2eb0 071b 2eb0 071b 2eb0 071b  ................
00018010: 2db0 071b 2b80 4a5e 0090 4345 03b0 071b  -...+.J^..CE....
00018020: 2eb0 071b 2eb0 071b 2db0 071b 2eb0 071b  ........-.......
00018030: 2eb0 071b 2eb0 071b 2db0 071b 2eb0 071b  ........-.......
00018040: 2eb0 071b 2eb0 071b 2db0 071b 2eb0 071b  ........-.......
00018050: 2eb0 071b 2eb0 071b 2db0 071b 1f80 4359  ........-.....CY
00018060: 0090 4843 0fb0 071b 2eb0 071b 2eb0 071b  ..HC............
00018070: 2db0 071b 2eb0 071b 2eb0 071d 2eb0 071d  -...............
00018080: 2db0 071d 0a80 483e 24b0 071d 2eb0 071d  -.....H>$.......
00018090: 2eb0 071d 0790 4843 26b0 071d 2eb0 071d  ......HC&.......
000180a0: 2eb0 071d 2eb0 071d 2db0 071d 2eb0 071d  ........-.......
000180b0: 2eb0 071d 2eb0 071d 2db0 071d 2eb0 071d  ........-.......
000180c0: 2eb0 071d 2eb0 071d 2db0 071d 2eb0 071d  ........-.......
000180d0: 2eb0 071d 15b0 071e 1480 4855 0090 4a4d  ..........HU..JM
000180e0: 1ab0 071e 2eb0 071e 2db0 071e 2eb0 071e  ........-.......
000180f0: 2eb0 071e 2eb0 071e 2db0 071e 2eb0 071d  ........-.......
00018100: 2eb0 071d 2eb0 071d 2db0 071d 2eb0 071d  ........-.......
00018110: 2eb0 071d 2eb0 071d 2db0 071d 2eb0 071d  ........-.......
00018120: 0880 4a43 0090 4840 26b0 071d 2eb0 071d  ..JC..H@&.......
00018130: 2db0 071d 2eb0 071d 2eb0 071d 2eb0 071d  -...............
00018140: 2db0 071d 2eb0 071d 0280 4848 2cb0 071d  -.........HH,...
00018150: 2eb0 071d 2890 4846 05b0 071d 2eb0 071d  ....(.HF........
00018160: 08b0 4000 18b0 071d 02b0 407f 2cb0 071b  ..@.......@.,...
00018170: 2eb0 071b 2eb0 071b 0790 4a42 0480 4846  ..........JB..HF
00018180: 22b0 071b 2eb0 071b 2eb0 071b 2eb0 071b  "...............
00018190: 2db0 071b 1190 4638 1580 4a49 08b0 071b  -.....F8..JI....
000181a0: 2eb0 071b 2eb0 071b 2db0 071b 2eb0 071b  ........-.......
000181b0: 1b80 465b 0890 4146 0bb0 071b 21b0 4000  ..F[..AF....!.@.
000181c0: 0db0 071b 2db0 071b 28b0 407f 06b0 071b  ....-...(.@.....
000181d0: 2eb0 071b 2eb0 071b 2db0 071b 2eb0 071b  ........-.......
000181e0: 2eb0 071b 2eb0 071b 2db0 071b 2eb0 071b  ........-.......
000181f0: 2eb0 071b 2eb0 071b 2db0 071b 2eb0 071b  ........-.......
00018200: 2eb0 071b 2eb0 071b 2db0 071b 2eb0 071b  ........-.......
00018210: 0280 4158 2cb0 071b 2eb0 071b 2db0 071b  ..AX,.......-...
00018220: 2eb0 071b 2eb0 071b 2eb0 071b 2a90 4a40  ............*.J@
00018230: 03b0 071b 2eb0 071b 2eb0 071b 07b0 4000  ..............@.
00018240: 27b0 071b 29b0 407f 04b0 071b 2eb0 071b  '...).@.........
00018250: 2eb0 071b 2eb0 071b 2db0 071b 2eb0 071b  ........-.......
00018260: 2eb0 071b 2eb0 071b 2db0 071b 2eb0 071b  ........-.......
00018270: 2eb0 071b 2eb0 071b 1e80 4a5b 0090 4b46  ..........J[..KF
00018280: 0fb0 071b 2eb0 071b 2eb0 071b 2eb0 071b  ................
00018290: 2db0 071b 2eb0 071b 2eb0 071b 2eb0 071b  -...............
000182a0: 2db0 071b 2eb0 071b 2eb0 071b 2eb0 071b  -...............
000182b0: 2db0 071b 2eb0 071b 2eb0 071b 2eb0 071b  -...............
000182c0: 1280 4b51 0090 4d38 1bb0 071b 2eb0 071b  ..KQ..M8........
000182d0: 2eb0 071b 2eb0 071b 2db0 071b 1880 4d5b  ........-.....M[
000182e0: 0690 4d43 10b0 071b 2eb0 071b 2eb0 071b  ..MC............
000182f0: 2db0 071b 2eb0 071b 1180 4d5b 1890 4d39  -.........M[..M9
00018300: 05b0 071b 2eb0 071b 2db0 071b 2eb0 071b  ........-.......
00018310: 2eb0 071b 2eb0 071b 0690 4b43 27b0 071b  ..........KC'...
00018320: 2eb0 071b 2a80 4d4d 04b0 071b 2eb0 071b  ....*.MM........
00018330: 2db0 071d 1280 4b57 0090 4a43 1cb0 071d  -.....KW..JC....
00018340: 2eb0 071d 2eb0 071d 2db0 071d 2eb0 071d  ........-.......
00018350: 1d80 4a57 0090 434a 11b0 071d 2eb0 071d  ..JW..CJ........
00018360: 12b0 4000 1bb0 071d 2eb0 071d 21b0 407f  ..@.........!.@.
00018370: 0db0 071d 2eb0 071d 2db0 071d 2eb0 071d  ........-.......
00018380: 2eb0 071d 2eb0 071d 2db0 071d 2eb0 071d  ........-.......
00018390: 2eb0 071d 2eb0 071d 2db0 071d 2eb0 071d  ........-.......
000183a0: 1190 4847 1db0 071d 2eb0 071d 1f80 4341  ..HG..........CA
000183b0: 0eb0 071d 2eb0 071d 2eb0 071d 2eb0 071d  ................
000183c0: 2db0 071d 2eb0 071d 2eb0 071d 2eb0 071d  -...............
000183d0: 2790 453c 06b0 071d 2eb0 071d 2eb0 071d  '.E<............
000183e0: 1280 484e 1cb0 071d 2db0 071d 2eb0 071d  ..HN....-.......
000183f0: 2eb0 071d 2eb0 071d 2db0 071d 2eb0 071d  ........-.......
00018400: 2eb0 071d 2eb0 071d 2db0 071e 2eb0 071e  ........-.......
00018410: 2eb0 071e 2eb0 071e 1b90 4641 12b0 071e  ..........FA....
00018420: 2eb0 071e 2980 4551 05b0 071e 2eb0 071e  ....).EQ........
00018430: 2db0 071e 2eb0 071e 2eb0 071e 2eb0 071e  -...............
00018440: 2db0 071e 2eb0 071e 2eb0 071e 2eb0 071e  -...............
00018450: 2db0 071e 2eb0 071e 2eb0 071e 2eb0 071e  -...............
00018460: 0f80 465b 0090 4845 1eb0 071e 2eb0 071e  ..F[..HE........
00018470: 2eb0 071e 2eb0 071e 2db0 071e 2eb0 071e  ........-.......
00018480: 2eb0 071e 2eb0 071e 2db0 071e 2eb0 071e  ........-.......
00018490: 2680 4852 0090 4641 08b0 071e 2eb0 071e  &.HR..FA........
000184a0: 2db0 071e 2eb0 071e 2eb0 071e 2eb0 071e  -...............
000184b0: 0380 4646 0090 4843 2ab0 071e 2eb0 071e  ..FF..HC*.......
000184c0: 2eb0 071e 2eb0 071e 2db0 071e 0f80 4859  ........-.....HY
000184d0: 0090 453f 1fb0 071e 2eb0 071e 2eb0 071e  ..E?............
000184e0: 2db0 071e 23b0 4000 0bb0 071e 1a80 454a  -...#.@.......EJ
000184f0: 0090 4346 14b0 071e 20b0 407f 0eb0 071e  ..CF.... .@.....
00018500: 2db0 071e 2eb0 071e 2eb0 071e 2eb0 071e  -...............
00018510: 2db0 071e 2eb0 071e 1f80 4350 0fb0 071e  -.........CP....
00018520: 2eb0 071e 2db0 071e 0390 434b 2bb0 071e  ....-.....CK+...
00018530: 2eb0 071e 2eb0 071e 2db0 071e 2eb0 071e  ........-.......
00018540: 0e90 414a 2080 435f 00b0 071e 2eb0 071e  ..AJ .C_........
00018550: 2db0 071e 2eb0 071e 2eb0 071e 2eb0 071e  -...............
00018560: 2db0 071e 2eb0 071e 2eb0 071e 2eb0 071e  -...............
00018570: 2490 4b44 09b0 071e 26b0 4000 08b0 071e  $.KD....&.@.....
00018580: 2eb0 071e 0780 4159 27b0 071e 2db0 071e  ......AY'...-...
00018590: 0eb0 407f 20b0 071e 2eb0 071e 2eb0 071e  ..@. ...........
000185a0: 2db0 071e 2eb0 071e 2eb0 071e 2eb0 071e  -...............
000185b0: 2db0 071e 2eb0 071e 2eb0 071e 2eb0 071e  -...............
000185c0: 1890 4a56 15b0 0720 1b80 4b57 13b0 0720  ..JV... ..KW... 
000185d0: 2eb0 0720 2eb0 0720 2db0 0720 2eb0 0720  ... ... -.. ... 
000185e0: 2eb0 0720 2eb0 0720 2db0 0720 2eb0 0720  ... ... -.. ... 
000185f0: 2eb0 0720 2eb0 0720 2db0 0720 2eb0 0720  ... ... -.. ... 
00018600: 2eb0 0720 2080 4a5f 0eb0 0720 0c90 484e  ...  .J_... ..HN
00018610: 21b0 0720 2eb0 0720 2eb0 0720 2eb0 0720  !.. ... ... ... 
00018620: 2db0 0720 2eb0 0720 2eb0 0720 2eb0 0720  -.. ... ... ... 
00018630: 2db0 0720 2eb0 0720 2390 4b3a 0bb0 0720  -.. ... #.K:... 
00018640: 2480 4846 0ab0 0720 2db0 0720 2eb0 0720  $.HF... -.. ... 
00018650: 2eb0 0720 2eb0 0720 0090 4d3f 1980 4b4c  ... ... ..M?..KL
00018660: 14b0 0720 2eb0 0720 2eb0 0720 2eb0 0720  ... ... ... ... 
00018670: 2db0 0720 0c90 4a46 0c80 4d55 16b0 0720  -.. ..JF..MU... 
00018680: 2eb0 0720 2eb0 0720 20b0 4000 0db0 0720  ... ...  .@.... 
00018690: 2eb0 0720 0cb0 407f 0580 4a55 0690 4840  ... ..@...JU..H@
000186a0: 17b0 0720 2eb0 0720 18b0 0721 8170 8048  ... ... ...!.p.H
000186b0: 4a81 1390 4847 8170 9046 3e13 8048 5383  J...HG.p.F>..HS.
000186c0: 4d90 4546 1880 465b 17b0 4000 35b0 407f  M.EF..F[..@.5.@.
000186d0: 8952 8045 5684 4a90 3e3e 0090 413f 8550  .R.EV.J.>>..A?.P
000186e0: 9043 4600 903f 4037 8041 571f 803e 5084  .CF..?@7.AW..>P.
000186f0: 7a90 4147 0090 4543 0e80 3f56 0a80 4346  z.AG..EC..?V..CF
00018700: 825a b040 0030 8041 6100 8045 6200 ff2f  .Z.@.0.Aa..Eb../
00018710: 004d 5472 6b00 0000 2900 ff01 1c52 686f  .MTrk...)....Rho
00018720: 6465 732d 436c 6173 7369 6320 5375 6974  des-Classic Suit
00018730: 6361 7365 204c 7573 6800 ff20 0105 00ff  case Lush.. ....
00018740: 2f00 4d54 726b 0000 001d 00ff 010f 4475  /.MTrk........Du
00018750: 6c63 6974 6f6e 652d 4472 6561 6d84 a720  lcitone-Dream.. 
00018760: b007 6100 ff2f 004d 5472 6b00 0000 2b00  ..a../.MTrk...+.
00018770: ff01 1d52 686f 6465 7320 436c 6173 7369  ...Rhodes Classi
00018780: 6320 416d 7020 5761 726d 2042 6c75 6573  c Amp Warm Blues
00018790: 84a3 38b0 0721 00ff 2f00 4d54 726b 0000  ..8..!../.MTrk..
000187a0: 0013 00ff 0106 4d49 4449 2d32 00ff 2001  ......MIDI-2.. .
000187b0: 0900 ff2f 004d 5472 6b00 0000 1900 ff01  .../.MTrk.......
000187c0: 0d46 617a 696f 6c69 2047 7261 6e64 00b0  .Fazioli Grand..
000187d0: 0745 00ff 2f00 4d54 726b 0000 0014 00ff  .E../.MTrk......
000187e0: 0107 4d49 4449 2d38 3300 ff20 0109 00ff  ..MIDI-83.. ....
000187f0: 2f00 4d54 726b 0000 0014 00ff 0107 4d49  /.MTrk........MI
00018800: 4449 2d38 3400 ff20 010a 00ff 2f00 4d54  DI-84.. ..../.MT
00018810: 726b 0000 0014 00ff 0107 4d49 4449 2d38  rk........MIDI-8
00018820: 3500 ff20 010b 00ff 2f00 4d54 726b 0000  5.. ..../.MTrk..
00018830: 0014 00ff 0107 4d49 4449 2d39 3000 ff20  ......MIDI-90.. 
00018840: 010c 00ff 2f00 4d54 726b 0000 0014 00ff  ..../.MTrk......
00018850: 0107 4d49 4449 2d39 3100 ff20 010d 00ff  ..MIDI-91.. ....
00018860: 2f00 4d54 726b 0000 0014 00ff 0107 4d49  /.MTrk........MI
00018870: 4449 2d39 3200 ff20 010e 00ff 2f00 4d54  DI-92.. ..../.MT
00018880: 726b 0000 0014 00ff 0107 4d49 4449 2d39  rk........MIDI-9
00018890: 3300 ff20 010f 00ff 2f00 4d54 726b 0000  3.. ..../.MTrk..
000188a0: 2007 00ff 010b 4861 7270 204e 6f72 6d61   .....Harp Norma
000188b0: 6c00 b00a 7400 b007 6181 3ab0 0735 54b0  l...t...a.:..5T.
000188c0: 0734 c132 9053 3f78 8053 2b00 9050 3b2b  .4.2.S?x.S+..P;+
000188d0: b040 7f4d 8050 4f00 9047 4100 904b 3978  .@.M.PO..GA..K9x
000188e0: 8047 6200 804b 5b00 9044 4378 8044 4800  .Gb..K[..DCx.DH.
000188f0: 903b 3000 903f 3e78 803b 4a00 803f 5b00  .;0..?>x.;J..?[.
00018900: 902f 2f00 9033 3178 802f 4800 8033 5b00  .//..31x./H..3[.
00018910: 9038 4478 8038 4500 903f 4c00 903b 3778  .8Dx.8E..?L..;7x
00018920: 803f 6100 803b 5b00 9044 4400 9047 5178  .?a..;[..DD..GQx
00018930: 8044 6c00 8047 3b00 904b 3e00 9050 4078  .Dl..G;..K>..P@x
00018940: 804b 5100 8050 5d00 9053 4300 9050 4178  .KQ..P]..SC..PAx
00018950: 8053 5300 8050 5b00 904b 2e00 9047 3478  .SS..P[..K...G4x
00018960: 804b 5700 8047 6700 9044 3700 903f 4178  .KW..Gg..D7..?Ax
00018970: 8044 4000 803f 5e00 903b 3d00 9038 2178  .D@..?^..;=..8!x
00018980: 803b 4600 8038 5f00 9033 4800 902f 3e78  .;F..8_..3H../>x
00018990: 8033 4c00 802f 5d00 9038 5100 903b 2978  .3L../]..8Q..;)x
000189a0: 8038 6800 803b 5f00 903f 4c00 9044 4678  .8h..;_..?L..DFx
000189b0: 803f 5e00 8044 6c00 9047 4678 8047 3100  .?^..Dl..GFx.G1.
000189c0: 9050 3600 904b 3878 8050 5f00 804b 5a00  .P6..K8x.P_..KZ.
000189d0: 904b 2f00 9053 1e00 9047 4678 804b 5000  .K/..S...GFx.KP.
000189e0: 8047 5900 8053 3c00 9030 3d00 9037 4b5c  .GY..S<..0=..7K\
000189f0: b040 7f1c 9043 3d00 9048 4600 903c 4778  .@...C=..HF..<Gx
00018a00: 904b 4400 904f 4e78 8030 5600 804f 5b00  .KD..ONx.0V..O[.
00018a10: 804b 5d00 8037 4f00 8048 6200 8043 5878  .K]..7O..Hb..CXx
00018a20: 803c 518e 3eb0 4000 ad6a b007 310b b00a  .<Q.>.@..j..1...
00018a30: 402e b00a 3f2d b00a 3f2e b00a 3f2e b00a  @...?-..?...?...
00018a40: 3f2e b00a 3f2d b00a 3f2e b00a 3f2e b00a  ?...?-..?...?...
00018a50: 3f2e b00a 3f2d b00a 3f2e b00a 3f2e b00a  ?...?-..?...?...
00018a60: 3f2e b00a 3f2d b00a 3f2e b00a 3f2e b00a  ?...?-..?...?...
00018a70: 3f1b 9045 2a13 b00a 3f20 9048 2b0d b00a  ?..E*...? .H+...
00018a80: 3f16 8045 550b 904c 3607 904e 2806 b00a  ?..EU..L6..N(...
00018a90: 3f04 8048 6515 804c 6009 9052 300c b00a  ?..He..L`..R0...
00018aa0: 3f05 9055 3b07 804e 5f0c 9058 3813 8052  ?..U;..N_..X8..R
00018ab0: 5b03 b00a 3f04 8055 6317 8058 6012 b00a  [...?..Uc..X`...
00018ac0: 3f2e b00a 3f2e b00a 3f2e b00a 3f2d b00a  ?...?...?...?-..
00018ad0: 3f2e b00a 3f2e b00a 3f2e b00a 3f2d b00a  ?...?...?...?-..
00018ae0: 3f2e b00a 3f2e b00a 3f2e b00a 3f2d b00a  ?...?...?...?-..
00018af0: 3f05 9048 3129 b00a 3f0c 904b 4811 8048  ?..H1)..?..KH..H
00018b00: 6011 b00a 3f0b 904f 4a06 9051 2d02 804b  `...?..OJ..Q-..K
00018b10: 5f1a 804f 5f01 b00a 3f06 9055 2b0e 9058  _..O_...?..U+..X
00018b20: 4007 8051 5b12 b00a 3f02 905b 540b 8055  @..Q[...?..[T..U
00018b30: 6404 8058 6c1b 805b 6202 b00a 3f2e b00a  d..Xl..[b...?...
00018b40: 3f2e b00a 3f2d b00a 3f2e b00a 3f2e b00a  ?...?-..?...?...
00018b50: 3f2e b00a 3f2d b00a 3f2e b00a 3f2e b00a  ?...?-..?...?...
00018b60: 3f2e b00a 3f2d b00a 3f2e b00a 3f2e b00a  ?...?-..?...?...
00018b70: 3f2e b00a 3f2d b00a 3f2e b00a 3f2e b00a  ?...?-..?...?...
00018b80: 3f2e b00a 3f2d b00a 3f2e b00a 3f2e b00a  ?...?-..?...?...
00018b90: 3f2e b00a 3f2d b00a 3f2e b00a 3f2e b00a  ?...?-..?...?...
00018ba0: 3f2e b00a 3f2d b00a 3f2e b00a 3f2e b00a  ?...?-..?...?...
00018bb0: 3f2e b00a 3f2d b00a 3f2e b00a 3f2e b00a  ?...?-..?...?...
00018bc0: 3f17 9047 2a17 b00a 3f18 904a 4615 b00a  ?..G*...?..JF...
00018bd0: 3f02 8047 5e1d 904e 460b 804a 5f04 b00a  ?..G^..NF..J_...
00018be0: 3f05 9050 2d0e 804e 611b b00a 3f08 9054  ?..P-..Na...?..T
00018bf0: 2e17 8050 5b01 9057 3b0e b00a 3f07 905a  ...P[..W;...?..Z
00018c00: 4e08 8054 630a 8057 5f14 b00a 3f0b 805a  N..Tc..W_...?..Z
00018c10: 6b23 b00a 3f2e b00a 3f2e b00a 3f2d b00a  k#..?...?...?-..
00018c20: 3f2e b00a 3f2e b00a 3f2e b00a 3f2d b00a  ?...?...?...?-..
00018c30: 3f2e b00a 3f2e b00a 3f2e b00a 3f2d b00a  ?...?...?...?-..
00018c40: 3f2e b00a 3f2e b00a 3f2e b00a 3f2d b00a  ?...?...?...?-..
00018c50: 3f2e b00a 3f2e b00a 3f2e b00a 3f2d b00a  ?...?...?...?-..
00018c60: 3f2e b00a 3f2e b00a 3f2e b00a 3f2d b00a  ?...?...?...?-..
00018c70: 3f2e b00a 3f2e b00a 3f1a 9045 2b14 b00a  ?...?...?..E+...
00018c80: 3f1b 9048 2f12 b00a 3f0c 8045 5e0d 904e  ?..H/...?..E^..N
00018c90: 2802 904c 2f0e 8048 6105 b00a 3f0e 804c  (..L/..Ha...?..L
00018ca0: 670a 9052 2a11 9055 3402 804e 5b03 b00a  g..R*..U4..N[...
00018cb0: 3f13 9058 420a 8052 6603 8055 6d0e b00a  ?..XB..Rf..Um...
00018cc0: 3f11 905a 4201 8058 671b b00a 3f11 805a  ?..ZB..Xg...?..Z
00018cd0: 671d b00a 3f2e b00a 3f2e b00a 3f2d b00a  g...?...?...?-..
00018ce0: 3f2e b00a 3f2e b00a 3f2e b00a 3f2d b00a  ?...?...?...?-..
00018cf0: 3f2e b00a 3f2e b00a 3f2e b00a 3f2d b00a  ?...?...?...?-..
00018d00: 3f2e b00a 3f2e b00a 3f2e b00a 3f2d b00a  ?...?...?...?-..
00018d10: 3f2e b00a 3f2e b00a 3f2e b00a 3f2d b00a  ?...?...?...?-..
00018d20: 3f2e b00a 3f2e b00a 3f2e b00a 3f2d b00a  ?...?...?...?-..
00018d30: 3f2e b00a 3f2e b00a 3f2e b00a 3f2d b00a  ?...?...?...?-..
00018d40: 3f2e b00a 3f2e b00a 3f2e b00a 3f2d b00a  ?...?...?...?-..
00018d50: 3f2e b00a 3f2e b00a 3f2e b00a 3f2d b00a  ?...?...?...?-..
00018d60: 3f2e b00a 3f2e b00a 3f2e b00a 3f2d b00a  ?...?...?...?-..
00018d70: 3f2e b00a 3f2e b00a 3f2e b00a 3f2d b00a  ?...?...?...?-..
00018d80: 3f2e b00a 3f2e b00a 3f2e b00a 3f2d b00a  ?...?...?...?-..
00018d90: 3f2e b00a 3f2e b00a 3f2e b00a 3f11 b007  ?...?...?...?...
00018da0: 3800 b007 341c b00a 3f2e b00a 3f2e b00a  8...4...?...?...
00018db0: 3f2e b00a 3f2d b00a 3f23 b007 2c00 b040  ?...?-..?#..,..@
00018dc0: 7f0b b00a 3f2e b00a 3f2e b00a 3f2d b00a  ....?...?...?-..
00018dd0: 3f2e b00a 3f2e b00a 3f2e b00a 3f2d b00a  ?...?...?...?-..
00018de0: 3f2e b00a 3f2e b00a 3f2e b00a 3f2d b00a  ?...?...?...?-..
00018df0: 3f0c 904d 1a22 b00a 3f26 804d 4b02 9048  ?..M."..?&.MK..H
00018e00: 2106 b00a 3f2e b00a 3f0e 8048 4103 904d  !...?...?..HA..M
00018e10: 231c b00a 3f15 9048 2407 804d 3f12 b00a  #...?..H$..M?...
00018e20: 3f1b 904d 0f02 8048 3c11 b00a 3f11 9048  ?..M...H<...?..H
00018e30: 2409 804d 4214 b00a 3f1c 8048 3c01 904d  $..MB...?..H<..M
00018e40: 2510 b00a 3f17 9048 2307 804d 4b10 b00a  %...?..H#..MK...
00018e50: 3f1c 8048 4100 904d 2d12 b00a 3f19 9048  ?..HA..M-...?..H
00018e60: 2205 804d 4f10 b00a 3f1b 904d 2601 8048  "..MO...?..M&..H
00018e70: 4411 b00a 3f17 9048 280a 804d 4c0d b00a  D...?..H(..ML...
00018e80: 3f1b 8048 4804 904d 2f0f b00a 3f1a 9048  ?..HH..M/...?..H
00018e90: 300c 804d 4308 b00a 3f1e 904d 2702 8048  0..MC...?..M'..H
00018ea0: 4b0d b00a 3f22 9048 3408 804d 5304 b00a  K...?".H4..MS...
00018eb0: 3f23 8048 4f08 904d 2f03 b00a 3f29 9048  ?#.HO..M/...?).H
00018ec0: 2f05 b00a 3f02 804d 5124 8048 4c07 b00a  /...?..MQ$.HL...
00018ed0: 3f19 904d 3412 9048 2203 b00a 3f27 804d  ?..M4..H"...?'.M
00018ee0: 4107 b00a 3f27 8048 5a07 b00a 3f2d b00a  A...?'.HZ...?-..
00018ef0: 3f01 904d 200b 9046 3322 b00a 3f0b 804d  ?..M ..F3"..?..M
00018f00: 4001 8046 3c22 b00a 3f06 904d 2828 b00a  @..F<"..?..M((..
00018f10: 3f00 9046 1d0e 804d 411f b00a 3f07 8046  ?..F...MA...?..F
00018f20: 410f 904d 2818 b00a 3f08 9046 1c1a 804d  A..M(...?..F...M
00018f30: 3c0c b00a 3f19 8046 4008 904d 1b0d b00a  <...?..F@..M....
00018f40: 3f0f 9046 1b1b 804d 4103 b00a 3f21 8046  ?..F...MA...?!.F
00018f50: 4e0d b00a 3f04 904d 2e26 9046 1c04 b00a  N...?..M.&.F....
00018f60: 3f0a 804d 4324 8046 4b00 b00a 3f13 904d  ?..MC$.FK...?..M
00018f70: 281a b00a 3f09 9046 1c12 804d 3d13 b00a  (...?..F...M=...
00018f80: 3f0f 8046 4916 904d 2b09 b00a 3f21 9046  ?..FI..M+...?!.F
00018f90: 1d0d b00a 3f05 804d 3c26 8046 4402 b00a  ....?..M<&.FD...
00018fa0: 3f0f 904d 231f b00a 3f0f 9046 200e 804d  ?..M#...?..F ..M
00018fb0: 3f11 b00a 3f1a 8046 490c 904d 2c08 b00a  ?...?..FI..M,...
00018fc0: 3f2b 9046 2202 b00a 3f07 804d 3d27 b00a  ?+.F"...?..M='..
00018fd0: 3f01 8046 5113 904d 2b1a b00a 3f1f 9046  ?..FQ..M+...?..F
00018fe0: 2208 804d 4107 b00a 3f20 8046 3c0d b00a  "..MA...? .F<...
00018ff0: 3f1d 904d 3111 b00a 3f28 804d 4606 b00a  ?..M1...?(.MF...
00019000: 3f03 9046 2c2b b00a 3f2d b00a 3f17 8046  ?..F,+..?-..?..F
00019010: 0117 b00a 3f1a 904d 2814 b00a 3f1c 804d  ....?..M(...?..M
00019020: 5706 9048 360c b00a 3f23 8048 4b0a b00a  W..H6...?#.HK...
00019030: 3f03 904d 2c29 804d 4c02 b00a 3f00 9048  ?..M,).ML...?..H
00019040: 2c24 8048 490a b00a 3f05 904d 2b24 804d  ,$.HI...?..M+$.M
00019050: 4c00 9048 3305 b00a 3f25 8048 4d08 b00a  L..H3...?%.HM...
00019060: 3f08 904d 2f23 9048 3103 b00a 3f02 804d  ?..M/#.H1...?..M
00019070: 5328 8048 5104 b00a 3f05 904d 3427 9048  S(.HQ...?..M4'.H
00019080: 3502 b00a 3f03 804d 5629 8048 5201 b00a  5...?..MV).HR...
00019090: 3f08 904d 2f1f 9048 3807 b00a 3f08 804d  ?..M/..H8...?..M
000190a0: 4f1f 8048 5707 b00a 3f08 904d 2b26 b00a  O..HW...?..M+&..
000190b0: 3f01 9048 2b01 804d 5022 8048 4909 b00a  ?..H+..MP".HI...
000190c0: 3f07 904d 2d27 b00a 3f03 804d 5602 9048  ?..M-'..?..MV..H
000190d0: 2e24 8048 4c05 b00a 3f20 904d 180e b00a  .$.HL...? .M....
000190e0: 3f01 9048 260c 804d 3b11 8048 560f b00a  ?..H&..M;..HV...
000190f0: 3f1d 9048 2a08 904d 2e09 b00a 3f16 8048  ?..H*..M....?..H
00019100: 3c12 804d 4306 b00a 3f2e b00a 3f0a 904a  <..MC...?...?..J
00019110: 3123 b00a 3f03 9046 2b13 804a 4115 8046  1#..?..F+..JA..F
00019120: 4503 b00a 3f11 904a 331d b00a 3f04 9046  E...?..J3...?..F
00019130: 1911 804a 4019 b00a 3f07 8046 3c15 904a  ...J@...?..F<..J
00019140: 2511 b00a 3f07 9046 1418 804a 3a0f b00a  %...?..F...J:...
00019150: 3f0d 8046 411c 904a 2205 b00a 3f18 9046  ?..FA..J"...?..F
00019160: 1e0f 804a 3b07 b00a 3f16 8046 4217 b00a  ...J;...?..FB...
00019170: 3f04 904a 2420 9046 180a b00a 3f09 804a  ?..J$ .F....?..J
00019180: 3419 8046 480c b00a 3f0f 904a 0a1f b00a  4..FH...?..J....
00019190: 3f02 9046 1911 804a 2c1a b00a 3f03 8046  ?..F...J,...?..F
000191a0: 4018 904a 1913 b00a 3f14 9046 1c0c 804a  @..J....?..F...J
000191b0: 3a0e b00a 3f13 8046 481b b00a 3f00 904a  :...?..FH...?..J
000191c0: 2625 9046 1c08 b00a 3f03 804a 3b2b b00a  &%.F....?..J;+..
000191d0: 3f0d 8046 5714 904a 210d b00a 3f1a 804a  ?..FW..J!...?..J
000191e0: 3c00 9046 2914 b00a 3f18 904d 2f03 8046  <..F)...?..M/..F
000191f0: 5112 b00a 3f21 804d 5206 9046 2007 b00a  Q...?!.MR..F ...
00019200: 3f21 8046 4f08 904d 1c05 b00a 3f21 804d  ?!.FO..M....?!.M
00019210: 4806 9046 1d07 b00a 3f24 8046 4a03 904d  H..F....?$.FJ..M
00019220: 2706 b00a 3f23 9046 2c01 804d 4c0a b00a  '...?#.F,..ML...
00019230: 3f21 8046 5002 904d 290b b00a 3f21 804d  ?!.FP..M)...?!.M
00019240: 4f0a 9046 2703 b00a 3f1f 904d 2c0e b00a  O..F'...?..M,...
00019250: 3f02 8046 491d 804d 560b 9046 3604 b00a  ?..FI..MV..F6...
00019260: 3f23 904d 2b03 8046 5608 b00a 3f1d 804d  ?#.M+..FV...?..M
00019270: 530f 9046 3002 b00a 3f24 904d 2e05 8046  S..F0...?$.M...F
00019280: 5104 b00a 3f25 804d 5709 b00a 3f04 9046  Q...?%.MW...?..F
00019290: 3628 904d 2702 b00a 3f01 8046 5027 804d  6(.M'...?..FP'.M
000192a0: 5706 b00a 3f08 9046 3121 904d 2b04 b00a  W...?..F1!.M+...
000192b0: 3f03 8046 5a24 804d 5807 b00a 3f0f 9046  ?..FZ$.MX...?..F
000192c0: 2b1b 904d 3604 b00a 3f0d 8046 5219 9048  +..M6...?..FR..H
000192d0: 2c08 b00a 3f03 804d 5718 8048 4c0a 904c  ,...?..MW..HL..L
000192e0: 3a08 b00a 3f1c 804c 3e0d 9048 2805 b00a  :...?..L>..H(...
000192f0: 3f1d 904c 3d04 8048 4a0d b00a 3f1f 804c  ?..L=..HJ...?..L
00019300: 510f b00a 3f00 9048 2c2a 904c 3602 8048  Q...?..H,*.L6..H
00019310: 4301 b00a 3f25 804c 4c09 b00a 3f0b 9048  C...?%.LL...?..H
00019320: 2c22 904c 3201 b00a 3f06 8048 481e 804c  ,".L2...?..HH..L
00019330: 420a b00a 3f11 9048 2b1b 904c 3101 b00a  B...?..H+..L1...
00019340: 3f08 8048 4620 804c 3f06 b00a 3f18 9048  ?..HF .L?...?..H
00019350: 1916 b00a 3f05 9045 340f 8048 4319 8045  ....?..E4..HC..E
00019360: 4201 b00a 3f20 9048 220d b00a 3f0b 9045  B...? .H"...?..E
00019370: 2e0d 8048 4816 b00a 3f0b 8045 4d1e 9048  ...HH...?..EM..H
00019380: 2105 b00a 3f19 9045 290b 8048 420a b00a  !...?..E)..HB...
00019390: 3f1a 8045 4413 b00a 3f04 9048 2422 9045  ?..ED...?..H$".E
000193a0: 2608 b00a 3f02 8048 571c 8045 4910 b00a  &...?..HW..EI...
000193b0: 3f15 9048 2419 b00a 3f06 9045 3709 8048  ?..H$...?..E7..H
000193c0: 3d1e b00a 3f08 8045 4919 904b 1f08 9043  =...?..EI..K...C
000193d0: 0105 b00a 3f22 804b 440c b00a 3f0b 8043  ....?".KD...?..C
000193e0: 4c10 904b 1e13 b00a 3f0d 9043 2e18 804b  L..K....?..C...K
000193f0: 4908 b00a 3f1b 8043 4f06 904b 280d b00a  I...?..CO..K(...
00019400: 3f28 9043 3404 804b 5202 b00a 3f2b 8043  ?(.C4..KR...?+.C
00019410: 4901 904b 3402 b00a 3f2d b00a 3f04 804b  I..K4...?-..?..K
00019420: 5301 9043 3929 b00a 3f05 904b 3403 8043  S..C9)..?..K4..C
00019430: 5126 b00a 3f10 804b 5003 9043 341b b00a  Q&..?..KP..C4...
00019440: 3f0f 8043 4f03 904b 2e1b b00a 3f1f 804b  ?..CO..K....?..K
00019450: 4801 9043 330e b00a 3f1f 8043 4906 904b  H..C3...?..CI..K
00019460: 2209 b00a 3f2e b00a 3f04 9043 2f05 804b  "...?...?..C/..K
00019470: 4d24 b00a 3f08 8043 4810 904b 2e16 b00a  M$..?..CH..K....
00019480: 3f2b 804b 3b03 b00a 3f00 9043 372e 8043  ?+.K;...?..C7..C
00019490: 4b00 b00a 3f0e 9048 301f b00a 3f19 8048  K...?..H0...?..H
000194a0: 4102 9043 3013 b00a 3f1b 9048 300a 8043  A..C0...?..H0..C
000194b0: 4109 b00a 3f25 8048 4109 b00a 3f1e 9043  A...?%.HA...?..C
000194c0: 310f b00a 3f1d 8043 4a11 b00a 3f00 9048  1...?..CJ...?..H
000194d0: 3226 9043 3408 b00a 3f06 8048 421d 8043  2&.C4...?..HB..C
000194e0: 460b b00a 3f07 9048 3322 9043 3404 b00a  F...?..H3".C4...
000194f0: 3f09 8048 4221 8043 4104 b00a 3f0e 9048  ?..HB!.CA...?..H
00019500: 2e20 b00a 3f08 9043 3006 8048 4520 b00a  . ..?..C0..HE ..
00019510: 3f06 8043 4113 9048 2e14 b00a 3f1a 9043  ?..CA..H....?..C
00019520: 2b03 8048 3c11 b00a 3f1c 8043 4110 9048  +..H<...?..CA..H
00019530: 2c02 b00a 3f2e b00a 3f00 9043 2e08 8048  ,...?...?..C...H
00019540: 4125 b00a 3f0b 8043 430a 9048 2a19 b00a  A%..?..CC..H*...
00019550: 3f1a 9043 2c03 8048 3711 b00a 3f21 8043  ?..C,..H7...?!.C
00019560: 430c 9048 2c01 b00a 3f2d b00a 3f0d 9043  C..H,...?-..?..C
00019570: 2e01 8048 3e20 b00a 3f11 8043 511d b00a  ...H> ..?..CQ...
00019580: 3f2e b00a 3f2d b00a 3f2e b00a 3f2e b00a  ?...?-..?...?...
00019590: 3f2e b00a 3f2d b00a 3f2e b00a 3f2e b00a  ?...?-..?...?...
000195a0: 3f2e b00a 3f2d b00a 3f2e b00a 3f2e b00a  ?...?-..?...?...
000195b0: 3f2e b00a 3f2d b00a 3f2e b00a 3f2e b00a  ?...?-..?...?...
000195c0: 3f2e b00a 3f2d b00a 3f2e b00a 3f2e b00a  ?...?-..?...?...
000195d0: 3f2e b00a 3f2d b00a 3f2e b00a 3f2e b00a  ?...?-..?...?...
000195e0: 3f2e b00a 3f2d b00a 3f2e b00a 3f2e b00a  ?...?-..?...?...
000195f0: 3f2e b00a 3f2d b00a 3f02 b040 002c b00a  ?...?-..?..@.,..
00019600: 3f2e b00a 3f2e b00a 3f2d b00a 3f2e b00a  ?...?...?-..?...
00019610: 3f2e b00a 3f2e b00a 3f2d b00a 3f2e b00a  ?...?...?-..?...
00019620: 3f2e b00a 3f2e b00a 3f2d b00a 3f2e b00a  ?...?...?-..?...
00019630: 3f2e b00a 3f2e b00a 3f2d b00a 3f2e b00a  ?...?...?-..?...
00019640: 3f2e b00a 3f2e b00a 3f2d b00a 3f2e b00a  ?...?...?-..?...
00019650: 3f2e b00a 3f2e b00a 3f2d b00a 3f2e b00a  ?...?...?-..?...
00019660: 3f2e b00a 3f2e b00a 3f2d b00a 3f26 b007  ?...?...?-..?&..
00019670: 3408 b00a 3f2e b00a 3f2e b00a 3f2d b00a  4...?...?...?-..
00019680: 3f2e b00a 3f2e b00a 3f2e b00a 3f2d b00a  ?...?...?...?-..
00019690: 3f2e b00a 3f2e b00a 3f2e b00a 3f2d b00a  ?...?...?...?-..
000196a0: 3f2e b00a 3f2e b00a 3f2e b00a 3f2d b00a  ?...?...?...?-..
000196b0: 3f2e b00a 3f2e b00a 3f2e b00a 3f2d b00a  ?...?...?...?-..
000196c0: 3f2e b00a 3f2e b00a 3f2e b00a 3f2d b00a  ?...?...?...?-..
000196d0: 3f2e b00a 3f2e b00a 3f2e b00a 3f2d b00a  ?...?...?...?-..
000196e0: 3f2e b00a 3f2e b00a 3f2e b00a 3f2d b00a  ?...?...?...?-..
000196f0: 3f2e b00a 3f2e b00a 3f2e b00a 3f2d b00a  ?...?...?...?-..
00019700: 3f2e b00a 3f2e b00a 3f2e b00a 3f2d b00a  ?...?...?...?-..
00019710: 3f2e b00a 3f2e b00a 3f2e b00a 3f2d b00a  ?...?...?...?-..
00019720: 3f2e b00a 3f2e b00a 3f2e b00a 3f2d b00a  ?...?...?...?-..
00019730: 3f2e b00a 3f2e b00a 3f2e b00a 3f2d b00a  ?...?...?...?-..
00019740: 3f2e b00a 3f2e b00a 3f2e b00a 3f2d b00a  ?...?...?...?-..
00019750: 3f2e b00a 3f2e b00a 3f2e b00a 3f2d b00a  ?...?...?...?-..
00019760: 3f2e b00a 3f2e b00a 3f2e b00a 3f2d b00a  ?...?...?...?-..
00019770: 3f2e b00a 3f2e b00a 3f2e b00a 3f2d b00a  ?...?...?...?-..
00019780: 3f2e b00a 3f2e b00a 3f2e b00a 3f2d b00a  ?...?...?...?-..
00019790: 3f2e b00a 3f2e b00a 3f2e b00a 3f2d b00a  ?...?...?...?-..
000197a0: 3f2e b00a 3f2e b00a 3f2e b00a 3f2d b00a  ?...?...?...?-..
000197b0: 3f2e b00a 3f2e b00a 3f2e b00a 3f2d b00a  ?...?...?...?-..
000197c0: 3f2e b00a 3f2e b00a 3f2e b00a 3f2d b00a  ?...?...?...?-..
000197d0: 3f2e b00a 3f2e b00a 3f2e b00a 3f2d b00a  ?...?...?...?-..
000197e0: 3f2e b00a 3f2e b00a 3f2e b00a 3f2d b00a  ?...?...?...?-..
000197f0: 3f2e b00a 3f2e b00a 3f2e b00a 3f2d b00a  ?...?...?...?-..
00019800: 3f2e b00a 3f2e b00a 3f2e b00a 3f2d b00a  ?...?...?...?-..
00019810: 3f2e b00a 3f2e b00a 3f2e b00a 3f2d b00a  ?...?...?...?-..
00019820: 3f2e b00a 3f2e b00a 3f2e b00a 3f2d b00a  ?...?...?...?-..
00019830: 3f2e b00a 3f2e b00a 3f2e b00a 3f2d b00a  ?...?...?...?-..
00019840: 3f2e b00a 3f2e b00a 3f2e b00a 3f2d b00a  ?...?...?...?-..
00019850: 3f1b 9035 3913 b00a 3f2e b00a 3f2e b00a  ?..59...?...?...
00019860: 3f1d 903a 3a10 b00a 3f2e b00a 3f2e b00a  ?..::...?...?...
00019870: 3f1a 903e 3514 b00a 3f2d b00a 3f2e b00a  ?..>5...?-..?...
00019880: 3f13 9041 371b b00a 3f2e b00a 3f2d b00a  ?..A7...?...?-..
00019890: 3f0c 9046 3a22 b00a 3f2e b00a 3f2e b00a  ?..F:"..?...?...
000198a0: 3f20 904a 420d b00a 3f2e b00a 3f2e b00a  ? .JB...?...?...
000198b0: 3f2e b00a 3f2d b00a 3f29 904d 2f05 b00a  ?...?-..?).M/...
000198c0: 3f2e b00a 3f2e b00a 3f2d b00a 3f2e b00a  ?...?...?-..?...
000198d0: 3f2e b00a 3f2e b00a 3f2d b00a 3f2e b00a  ?...?...?-..?...
000198e0: 3f2e b00a 3f2e b00a 3f2d b00a 3f2e b00a  ?...?...?-..?...
000198f0: 3f2e b00a 3f2e b00a 3f2d b00a 3f2e b00a  ?...?...?-..?...
00019900: 3f2e b00a 3f2e b00a 3f2d b00a 3f2e b00a  ?...?...?-..?...
00019910: 3f2e b00a 3f2e b00a 3f2d b00a 3f2e b00a  ?...?...?-..?...
00019920: 3f2e b00a 3f2e b00a 3f2d b00a 3f2e b00a  ?...?...?-..?...
00019930: 3f2e b00a 3f2e b00a 3f2d b00a 3f2e b00a  ?...?...?-..?...
00019940: 3f2e b00a 3f2e b00a 3f2d b00a 3f2e b00a  ?...?...?-..?...
00019950: 3f2e b00a 3f2e b00a 3f2d b00a 3f2e b00a  ?...?...?-..?...
00019960: 3f2e b00a 3f2e b00a 3f2d b00a 3f2e b00a  ?...?...?-..?...
00019970: 3f2e b00a 3f2e b00a 3f2d b00a 3f2e b00a  ?...?...?-..?...
00019980: 3f2e b00a 3f2e b00a 3f2d b00a 3f29 8035  ?...?...?-..?).5
00019990: 0100 803a 3101 803e 0104 b00a 3f0d 8046  ...:1..>....?..F
000199a0: 4606 804a 3c07 8041 3c14 b00a 3f2e b00a  F..J<..A<...?...
000199b0: 3f2d b00a 3f2e b00a 3f18 804d 6116 b00a  ?-..?...?..Ma...
000199c0: 3f2e b00a 3f2d b00a 3f2e b00a 3f2e b00a  ?...?-..?...?...
000199d0: 3f2e b00a 3f2d b00a 3f2e b00a 3f2e b00a  ?...?-..?...?...
000199e0: 3f2e b00a 3f2d b00a 3f2e b00a 3f2e b00a  ?...?-..?...?...
000199f0: 3f2e b00a 3f2d b00a 3f2e b00a 3f2e b00a  ?...?-..?...?...
00019a00: 3f2e b00a 3f2d b00a 3f2e b00a 3f2e b00a  ?...?-..?...?...
00019a10: 3f2e b00a 3f2d b00a 3f2e b00a 3f2e b00a  ?...?-..?...?...
00019a20: 3f2e b00a 3f2d b00a 3f2e b00a 3f2e b00a  ?...?-..?...?...
00019a30: 3f2e b00a 3f2d b00a 3f2e b00a 3f2e b00a  ?...?-..?...?...
00019a40: 3f2e b00a 3f2d b00a 3f2e b00a 3f2e b00a  ?...?-..?...?...
00019a50: 3f2e b00a 3f2d b00a 3f2e b00a 3f2e b00a  ?...?-..?...?...
00019a60: 3f2e b00a 3f2d b00a 3f2e b00a 3f2e b00a  ?...?-..?...?...
00019a70: 3f2e b00a 3f2d b00a 3f2e b00a 3f19 b00a  ?...?-..?...?...
00019a80: 3f8f 2eb0 0a3f 2eb0 0a3f 2db0 0a3f 2eb0  ?....?...?-..?..
00019a90: 0a3f 2eb0 0a3f 2eb0 0a3f 2db0 0a3f 2eb0  .?...?...?-..?..
00019aa0: 0a3f 2eb0 0a3f 2eb0 0a3f 2db0 0a3f 2eb0  .?...?...?-..?..
00019ab0: 0a3f 2eb0 0a3f 2eb0 0a3f 2db0 0a3f 2eb0  .?...?...?-..?..
00019ac0: 0a3f 2eb0 0a3f 2eb0 0a3f 2db0 0a3f 2eb0  .?...?...?-..?..
00019ad0: 0a3f 2eb0 0a3f 2eb0 0a3f 2db0 0a3f 2eb0  .?...?...?-..?..
00019ae0: 0a3f 2eb0 0a3f 2eb0 0a3f 2db0 0a3f 2eb0  .?...?...?-..?..
00019af0: 0a3f 2eb0 0a3f 2eb0 0a3f 2db0 0a3f 2eb0  .?...?...?-..?..
00019b00: 0a3f 2eb0 0a3f 2eb0 0a3f 2db0 0a3f 2eb0  .?...?...?-..?..
00019b10: 0a3f 2eb0 0a3f 2eb0 0a3f 2db0 0a3f 2eb0  .?...?...?-..?..
00019b20: 0a3f 2eb0 0a3f 2eb0 0a3f 2db0 0a3f 2eb0  .?...?...?-..?..
00019b30: 0a3f 2eb0 0a3f 2eb0 0a3f 2db0 0a3f 2eb0  .?...?...?-..?..
00019b40: 0a3f 2eb0 0a3f 2eb0 0a3f 2db0 0a3f 2eb0  .?...?...?-..?..
00019b50: 0a3f 2eb0 0a3f 2eb0 0a3f 2db0 0a3f 2eb0  .?...?...?-..?..
00019b60: 0a3f 2eb0 0a3f 2eb0 0a3f 2db0 0a3f 2eb0  .?...?...?-..?..
00019b70: 0a3f 2eb0 0a3f 2eb0 0a3f 2db0 0a3f 2eb0  .?...?...?-..?..
00019b80: 0a3f 2eb0 0a3f 2eb0 0a3f 2db0 0a3f 2eb0  .?...?...?-..?..
00019b90: 0a3f 2eb0 0a3f 2eb0 0a3f 2db0 0a3f 2eb0  .?...?...?-..?..
00019ba0: 0a3f 2eb0 0a3f 2eb0 0a3f 2db0 0a3f 2eb0  .?...?...?-..?..
00019bb0: 0a3f 2eb0 0a3f 2eb0 0a3f 2db0 0a3f 2eb0  .?...?...?-..?..
00019bc0: 0a3f 2eb0 0a3f 2eb0 0a3f 2db0 0a3f 2eb0  .?...?...?-..?..
00019bd0: 0a3f 2eb0 0a3f 2eb0 0a3f 2db0 0a3f 2eb0  .?...?...?-..?..
00019be0: 0a3f 2eb0 0a3f 2eb0 0a3f 2db0 0a3f 2eb0  .?...?...?-..?..
00019bf0: 0a3f 2eb0 0a3f 2eb0 0a3f 840d b00a 3f2e  .?...?...?....?.
00019c00: b00a 3f2e b00a 3f2e b00a 3f2d b00a 3f2e  ..?...?...?-..?.
00019c10: b00a 3f2e b00a 3f2e b00a 3f2d b00a 3f2e  ..?...?...?-..?.
00019c20: b00a 3f2e b00a 3f2e b00a 3f2d b00a 3f2e  ..?...?...?-..?.
00019c30: b00a 3f2e b00a 3f2e b00a 3f2d b00a 3f2e  ..?...?...?-..?.
00019c40: b00a 3f2e b00a 3f2e b00a 3f2d b00a 3f2e  ..?...?...?-..?.
00019c50: b00a 3f2e b00a 3f2e b00a 3f2d b00a 3f2e  ..?...?...?-..?.
00019c60: b00a 3f2e b00a 3f2e b00a 3f2d b00a 3f2e  ..?...?...?-..?.
00019c70: b00a 3f2e b00a 3f2e b00a 3f0a b007 3623  ..?...?...?...6#
00019c80: b00a 3f2e b00a 3f2e b00a 3f2e b00a 3f2d  ..?...?...?...?-
00019c90: b00a 3f2e b00a 3f2e b00a 3f2e b00a 3f2d  ..?...?...?...?-
00019ca0: b00a 3f2e b00a 3f2e b00a 3f2e b00a 3f2d  ..?...?...?...?-
00019cb0: b00a 3f2e b00a 3f2e b00a 3f2c b00a 4000  ..?...?...?,..@.
00019cc0: b00a 3f00 b00a 3f2e b00a 4c2e b00a 5a2d  ..?...?...L...Z-
00019cd0: b00a 6823 b00a 732e b00a 732d b00a 732e  ..h#..s...s-..s.
00019ce0: b00a 732e b00a 732e b00a 732d b00a 732e  ..s...s...s-..s.
00019cf0: b00a 732e b00a 732e b00a 732d b00a 732e  ..s...s...s-..s.
00019d00: b00a 732e b00a 732e b00a 732d b00a 732e  ..s...s...s-..s.
00019d10: b00a 7324 903a 330a b00a 732e b00a 732d  ..s$.:3...s...s-
00019d20: b00a 732e b00a 732e b00a 732e b00a 732d  ..s...s...s...s-
00019d30: b00a 731d 903f 3111 b00a 732e b00a 732e  ..s..?1...s...s.
00019d40: b00a 732d b00a 732e b00a 732e b00a 732e  ..s-..s...s...s.
00019d50: b00a 732d b00a 7327 9046 4107 b00a 732e  ..s-..s'.FA...s.
00019d60: b00a 732e b00a 732d b00a 732e b00a 732e  ..s...s-..s...s.
00019d70: b00a 732e b00a 732d b00a 732e b00a 732e  ..s...s-..s...s.
00019d80: b00a 732e b00a 732d b00a 732e b00a 732e  ..s...s-..s...s.
00019d90: b00a 732e b00a 732d b00a 732e b00a 732e  ..s...s-..s...s.
00019da0: b00a 732e b00a 732d b00a 732e b00a 732e  ..s...s-..s...s.
00019db0: b00a 732e b00a 732d b00a 732e b00a 732e  ..s...s-..s...s.
00019dc0: b00a 732e b00a 732d b00a 732e b00a 730c  ..s...s-..s...s.
00019dd0: 8046 5b10 803a 5202 803f 3c10 b00a 732e  .F[..:R..?<...s.
00019de0: b00a 732d b00a 732e b00a 732e b00a 732e  ..s-..s...s...s.
00019df0: b00a 732d b00a 732e b00a 732e b00a 732e  ..s-..s...s...s.
00019e00: b00a 732d b00a 732e b00a 732e b00a 732e  ..s-..s...s...s.
00019e10: b00a 732d b00a 732e b00a 732e b00a 732e  ..s-..s...s...s.
00019e20: b00a 732d b00a 732e b00a 732e b00a 732e  ..s-..s...s...s.
00019e30: b00a 732d b00a 732e b00a 732e b00a 732e  ..s-..s...s...s.
00019e40: b00a 732d b00a 732e b00a 732e b00a 732e  ..s-..s...s...s.
00019e50: b00a 732d b00a 732e b00a 732e b00a 732e  ..s-..s...s...s.
00019e60: b00a 732d b00a 732e b00a 732e b00a 732e  ..s-..s...s...s.
00019e70: b00a 732d b00a 732e b00a 732e b00a 732e  ..s-..s...s...s.
00019e80: b00a 732d b00a 732e b00a 732e b00a 732e  ..s-..s...s...s.
00019e90: b00a 732d b00a 732e b00a 732e b00a 732e  ..s-..s...s...s.
00019ea0: b00a 732d b00a 732e b00a 732e b00a 732e  ..s-..s...s...s.
00019eb0: b00a 732d b00a 732e b00a 732e b00a 732e  ..s-..s...s...s.
00019ec0: b00a 732d b00a 732e b00a 732e b00a 732e  ..s-..s...s...s.
00019ed0: b00a 732d b00a 732e b00a 732e b00a 732e  ..s-..s...s...s.
00019ee0: b00a 732d b00a 732e b00a 732e b00a 732e  ..s-..s...s...s.
00019ef0: b00a 732d b00a 732e b00a 732e b00a 732e  ..s-..s...s...s.
00019f00: b00a 732d b00a 732e b00a 732e b00a 732e  ..s-..s...s...s.
00019f10: b00a 732d b00a 732e b00a 732e b00a 732e  ..s-..s...s...s.
00019f20: b00a 732d b00a 732e b00a 732e b00a 732e  ..s-..s...s...s.
00019f30: b00a 732d b00a 732e b00a 732e b00a 732e  ..s-..s...s...s.
00019f40: b00a 732d b00a 732e b00a 732e b00a 732e  ..s-..s...s...s.
00019f50: b00a 732d b00a 732e b00a 732e b00a 732e  ..s-..s...s...s.
00019f60: b00a 732d b00a 732e b00a 732e b00a 732e  ..s-..s...s...s.
00019f70: b00a 732d b00a 7311 903a 321d b00a 732e  ..s-..s..:2...s.
00019f80: b00a 732e b00a 732d b00a 732e b00a 732e  ..s...s-..s...s.
00019f90: b00a 732e b00a 7310 b007 3800 9041 3d1d  ..s...s...8..A=.
00019fa0: b00a 732e b00a 732e b00a 732e b00a 732d  ..s...s...s...s-
00019fb0: b00a 732e b00a 732e b00a 732e b00a 732d  ..s...s...s...s-
00019fc0: b00a 732e b00a 732e b00a 731d b00a 7311  ..s...s...s...s.
00019fd0: b00a 731d b00a 7310 b00a 731e b00a 7310  ..s...s...s...s.
00019fe0: b00a 731d b00a 7311 b00a 731d b00a 7311  ..s...s...s...s.
00019ff0: b00a 731d b00a 7310 b00a 731e b00a 7310  ..s...s...s...s.
0001a000: b00a 731d b00a 7311 b00a 731d b00a 7311  ..s...s...s...s.
0001a010: b00a 731d b00a 7310 b00a 731b b00a 7303  ..s...s...s...s.
0001a020: b00a 732b b00a 7302 b00a 732c b00a 7302  ..s+..s...s,..s.
0001a030: b00a 732c b00a 7302 b00a 732b b00a 7303  ..s,..s...s+..s.
0001a040: b00a 732b b00a 7302 b00a 732c b00a 7302  ..s+..s...s,..s.
0001a050: b00a 732c b00a 7302 b00a 732b b00a 7303  ..s,..s...s+..s.
0001a060: b00a 732b b00a 7302 b00a 732c b00a 7302  ..s+..s...s,..s.
0001a070: b00a 7309 b040 0023 b00a 7302 b00a 732b  ..s..@.#..s...s+
0001a080: b00a 7303 b00a 732b b00a 7302 b00a 732c  ..s...s+..s...s,
0001a090: b00a 7302 b00a 732c b00a 7302 b00a 732b  ..s...s,..s...s+
0001a0a0: b00a 7303 b00a 732b b00a 7302 b00a 732c  ..s...s+..s...s,
0001a0b0: b00a 7302 b00a 732c b00a 7302 b00a 732b  ..s...s,..s...s+
0001a0c0: b00a 7303 b00a 732b b00a 7302 b00a 732c  ..s...s+..s...s,
0001a0d0: b00a 7302 b00a 7314 803a 4118 b00a 7302  ..s...s..:A...s.
0001a0e0: b00a 732b b00a 7303 b00a 732b b00a 7302  ..s+..s...s+..s.
0001a0f0: b00a 732b 8041 5101 b00a 7302 b00a 732c  ..s+.AQ...s...s,
0001a100: b00a 7302 b00a 732b b00a 7303 b00a 732b  ..s...s+..s...s+
0001a110: b00a 7302 b00a 732c b00a 7302 b00a 732c  ..s...s,..s...s,
0001a120: b00a 7302 b00a 7308 903a 2e23 b00a 7303  ..s...s..:.#..s.
0001a130: b00a 732b b00a 7302 b00a 732c b00a 7302  ..s+..s...s,..s.
0001a140: b00a 732c b00a 7302 b00a 732b b00a 7303  ..s,..s...s+..s.
0001a150: b00a 732b b00a 7302 b00a 732c b00a 7302  ..s+..s...s,..s.
0001a160: b00a 732c b00a 7302 b00a 732b b00a 7303  ..s,..s...s+..s.
0001a170: b00a 732b b00a 7302 b00a 731f 803a 5400  ..s+..s...s..:T.
0001a180: 9041 340d b00a 732e b00a 732d b00a 732e  .A4...s...s-..s.
0001a190: b00a 732e b00a 732e b00a 732d b00a 732e  ..s...s...s-..s.
0001a1a0: b00a 732e b00a 732e b00a 732d b00a 7387  ..s...s...s-..s.
0001a1b0: 5bb0 0a73 15b0 0a73 18b0 0a73 16b0 0a73  [..s...s...s...s
0001a1c0: 18b0 0a73 16b0 0a73 18b0 0a73 16b0 0a73  ...s...s...s...s
0001a1d0: 18b0 0a73 15b0 0a73 18b0 0a73 16b0 0a73  ...s...s...s...s
0001a1e0: 18b0 0a73 16b0 0a73 18b0 0a73 16b0 0a73  ...s...s...s...s
0001a1f0: 18b0 0a73 15b0 0a73 18b0 0a73 16b0 0a73  ...s...s...s...s
0001a200: 18b0 0a73 16b0 0a73 18b0 0a73 16b0 0a73  ...s...s...s...s
0001a210: 18b0 0a73 15b0 0a73 18b0 0a73 16b0 0a73  ...s...s...s...s
0001a220: 18b0 0a73 16b0 0a73 18b0 0a73 1180 4136  ...s...s...s..A6
0001a230: 05b0 0a73 18b0 0a73 15b0 0a73 18b0 0a73  ...s...s...s...s
0001a240: 16b0 0a73 18b0 0a73 16b0 0a73 18b0 0a73  ...s...s...s...s
0001a250: 16b0 0a73 18b0 0a73 15b0 0a73 18b0 0a73  ...s...s...s...s
0001a260: 2eb0 0a73 2eb0 0a73 2eb0 0a73 2db0 0a73  ...s...s...s-..s
0001a270: 2890 3a3a 06b0 0a73 2eb0 0a73 2eb0 0a73  (.::...s...s...s
0001a280: 2db0 0a73 2eb0 0a73 2eb0 0a73 14b0 0a73  -..s...s...s...s
0001a290: 18b0 0a73 02b0 0a73 14b0 0a73 18b0 0a73  ...s...s...s...s
0001a2a0: 01b0 0a73 15b0 0a73 18b0 0a73 01b0 0a73  ...s...s...s...s
0001a2b0: 14b0 0a73 18b0 0a73 02b0 0a73 14b0 0a73  ...s...s...s...s
0001a2c0: 18b0 0a73 02b0 0a73 14b0 0a73 18b0 0a73  ...s...s...s...s
0001a2d0: 01b0 0a73 15b0 0a73 18b0 0a73 01b0 0a73  ...s...s...s...s
0001a2e0: 14b0 0a73 18b0 0a73 02b0 0a73 14b0 0a73  ...s...s...s...s
0001a2f0: 18b0 0a73 02b0 0a73 14b0 0a73 18b0 0a73  ...s...s...s...s
0001a300: 01b0 0a73 15b0 0a73 0780 3a5b 0090 4144  ...s...s..:[..AD
0001a310: 12b0 0a73 2eb0 0a73 2eb0 0a73 2db0 0a73  ...s...s...s-..s
0001a320: 2eb0 0a73 2eb0 0a73 2eb0 0a73 2db0 0a73  ...s...s...s-..s
0001a330: 2eb0 0a73 2eb0 0a73 2eb0 0a73 2db0 0a73  ...s...s...s-..s
0001a340: 2eb0 0a73 2eb0 0a73 2eb0 0a73 2db0 0a73  ...s...s...s-..s
0001a350: 2eb0 0a73 2eb0 0a73 2eb0 0a73 2db0 0a73  ...s...s...s-..s
0001a360: 2eb0 0a73 1b80 4150 0090 4648 13b0 0a73  ...s..AP..FH...s
0001a370: 2eb0 0a73 2db0 0a73 2eb0 0a73 2eb0 0a73  ...s-..s...s...s
0001a380: 2680 4668 08b0 0a73 2db0 0a73 2eb0 0a73  &.Fh...s-..s...s
0001a390: 2eb0 0a73 2eb0 0a73 2db0 0a73 2eb0 0a73  ...s...s-..s...s
0001a3a0: 2eb0 0a73 2eb0 0a73 2db0 0a73 2eb0 0a73  ...s...s-..s...s
0001a3b0: 2eb0 0a73 2eb0 0a73 2db0 0a73 2eb0 0a73  ...s...s-..s...s
0001a3c0: 2eb0 0a73 1a90 4131 0090 4a3e 14b0 0a73  ...s..A1..J>...s
0001a3d0: 2db0 0a73 2eb0 0a73 2eb0 0a73 2eb0 0a73  -..s...s...s...s
0001a3e0: 2db0 0a73 2eb0 0a73 2eb0 0a73 2eb0 0a73  -..s...s...s...s
0001a3f0: 2db0 0a73 2eb0 0a73 2eb0 0a73 2eb0 0a73  -..s...s...s...s
0001a400: 2db0 0a73 2eb0 0a73 2eb0 0a73 0e80 4148  -..s...s...s..AH
0001a410: 0080 4a4b 0090 4d2f 0090 462c 20b0 0a73  ..JK..M/..F, ..s
0001a420: 2db0 0a73 2eb0 0a73 2eb0 0a73 2eb0 0a73  -..s...s...s...s
0001a430: 2db0 0a73 2eb0 0a73 2eb0 0a73 2eb0 0a73  -..s...s...s...s
0001a440: 2db0 0a73 2eb0 0a73 2eb0 0a73 2eb0 0a73  -..s...s...s...s
0001a450: 2db0 0a73 2eb0 0a73 2eb0 0a73 0280 4d3f  -..s...s...s..M?
0001a460: 0080 4641 0090 4a31 0090 412c 2cb0 0a73  ..FA..J1..A,,..s
0001a470: 2db0 0a73 2eb0 0a73 2eb0 0a73 2eb0 0a73  -..s...s...s...s
0001a480: 2db0 0a73 2eb0 0a73 2eb0 0a73 2eb0 0a73  -..s...s...s...s
0001a490: 2db0 0a73 1980 4a4d 0080 414b 0090 4d31  -..s..JM..AK..M1
0001a4a0: 0090 4637 15b0 0a73 2eb0 0a73 2eb0 0a73  ..F7...s...s...s
0001a4b0: 2db0 0a73 2eb0 0a73 2eb0 0a73 2eb0 0a73  -..s...s...s...s
0001a4c0: 2db0 0a73 2eb0 0a73 2eb0 0a73 2eb0 0a73  -..s...s...s...s
0001a4d0: 2db0 0a73 2eb0 0a73 2eb0 0a73 2eb0 0a73  -..s...s...s...s
0001a4e0: 2db0 0a73 0d80 4d3e 0080 4635 0090 4135  -..s..M>..F5..A5
0001a4f0: 0090 4a3a 21b0 0a73 2eb0 0a73 2eb0 0a73  ..J:!..s...s...s
0001a500: 2db0 0a73 2eb0 0a73 2eb0 0a73 2eb0 0a73  -..s...s...s...s
0001a510: 2db0 0a73 2eb0 0a73 2eb0 0a73 2eb0 0a73  -..s...s...s...s
0001a520: 2db0 0a73 2eb0 0a73 2eb0 0a73 2eb0 0a73  -..s...s...s...s
0001a530: 2db0 0a73 2eb0 0a73 2eb0 0a73 2eb0 0a73  -..s...s...s...s
0001a540: 2db0 0a73 2eb0 0a73 2eb0 0a73 2eb0 0a73  -..s...s...s...s
0001a550: 2db0 0a73 2eb0 0a73 04b0 0a74 4180 4140  -..s...s...tA.A@
0001a560: 0080 4a3c 0090 4839 0090 412f 8550 8048  ..J<..H9..A/.P.H
0001a570: 3c00 8041 3d00 9046 2f00 904b 2085 5080  <..A=..F/..K .P.
0001a580: 4642 0080 4b4a 0090 483f 0090 412a 8360  FB..KJ..H?..A*.`
0001a590: 8048 5100 8041 0100 9046 3900 904b 388b  .HQ..A...F9..K8.
0001a5a0: 2080 4660 0080 4b5f 00b0 0a74 8360 904a   .F`..K_...t.`.J
0001a5b0: 3200 9041 3585 5080 4a13 0080 4101 0090  2..A5.P.J...A...
0001a5c0: 4d35 0090 4630 8550 804d 3800 8046 0e00  M5..F0.P.M8..F..
0001a5d0: 9041 3900 904a 3583 6080 413f 0080 4a59  .A9..J5.`.A?..JY
0001a5e0: 0090 4639 0090 4b38 8a1d b007 392e b007  ..F9..K8....9...
0001a5f0: 392d b007 3928 8046 6000 804b 5f06 b007  9-..9(.F`..K_...
0001a600: 392e b007 392e b007 392d b007 392e b007  9...9...9-..9...
0001a610: 391c b007 3a82 0790 4634 8170 8046 5300  9...:...F4.p.FS.
0001a620: 9041 3681 7080 4157 0090 3e36 8170 803e  .A6.p.AW..>6.p.>
0001a630: 1d00 9041 3781 7080 4144 0090 3e36 8170  ...A7.p.AD..>6.p
0001a640: 803e 0100 9046 3981 7080 4601 0090 4136  .>...F9.p.F...A6
0001a650: 8170 8041 5300 903e 3781 7080 3e44 0090  .p.AS..>7.p.>D..
0001a660: 3a3b 8170 803a 4100 903f 3d81 7080 3f01  :;.p.:A..?=.p.?.
0001a670: 0090 4139 8170 8041 2200 903f 3981 7080  ..A9.p.A"..?9.p.
0001a680: 3f31 0090 4838 8170 8048 4200 904b 3d81  ?1..H8.p.HB..K=.
0001a690: 7080 4b01 0090 4838 8360 8048 4800 9048  p.K...H8.`.HH..H
0001a6a0: 3a81 7080 484c 0090 413b 8170 8041 0100  :.p.HL..A;.p.A..
0001a6b0: 903f 3e81 7080 3f3c 0090 413c 8170 8041  .?>.p.?<..A<.p.A
0001a6c0: 0100 903c 3f81 7080 3c52 0090 3f40 8170  ...<?.p.<R..?@.p
0001a6d0: 803f 4c00 9048 3f81 7080 4801 0090 4641  .?L..H?.p.H...FA
0001a6e0: 8170 8046 0100 904b 3d81 7080 4b21 0090  .p.F...K=.p.K!..
0001a6f0: 463c 8170 8046 4600 9041 3b81 7080 4117  F<.p.FF..A;.p.A.
0001a700: 0090 4639 8170 8046 4d00 904b 3b81 7080  ..F9.p.FM..K;.p.
0001a710: 4b4f 0090 4839 8170 8048 3e00 904a 3883  KO..H9.p.H>..J8.
0001a720: 6080 4a4b 0090 4634 8170 8046 5300 9041  `.JK..F4.p.FS..A
0001a730: 3681 7080 4157 0090 3e36 8170 803e 1d00  6.p.AW..>6.p.>..
0001a740: 9041 3781 7080 4144 0090 3e36 8170 803e  .A7.p.AD..>6.p.>
0001a750: 0100 9046 3981 7080 4601 0090 4136 8170  ...F9.p.F...A6.p
0001a760: 8041 5300 903e 3781 7080 3e44 0090 3a3b  .AS..>7.p.>D..:;
0001a770: 8170 803a 4100 903f 3d81 7080 3f01 0090  .p.:A..?=.p.?...
0001a780: 4139 8170 8041 2200 903f 3981 7080 3f31  A9.p.A"..?9.p.?1
0001a790: 0090 4838 8170 8048 4200 904b 3d81 7080  ..H8.p.HB..K=.p.
0001a7a0: 4b01 0090 4838 8360 8048 4800 9048 3a81  K...H8.`.HH..H:.
0001a7b0: 7080 484c 0090 413b 8170 8041 0100 903f  p.HL..A;.p.A...?
0001a7c0: 3e81 7080 3f3c 0090 3a3c 8170 803a 0100  >.p.?<..:<.p.:..
0001a7d0: 9041 3f81 7080 4152 0090 3f40 8170 803f  .A?.p.AR..?@.p.?
0001a7e0: 4c00 9041 3f81 7080 4101 0090 4641 8170  L..A?.p.A...FA.p
0001a7f0: 8046 0100 903e 4181 7080 3e46 0090 4143  .F...>A.p.>F..AC
0001a800: 8170 8041 5900 9048 3f81 7080 484a 0090  .p.AY..H?.p.HJ..
0001a810: 4646 8360 8046 5000 9043 4b81 7080 435f  FF.`.FP..CK.p.C_
0001a820: 0090 4a4a 8360 804a 5984 f63a b007 2383  ..JJ.`.JY..:..#.
0001a830: 35b0 0724 24b0 0725 25b0 0726 48b0 0728  5..$$..%%..&H..(
0001a840: 816e b007 294a b007 2a24 b007 2b25 b007  .n..)J..*$..+%..
0001a850: 2d5b b007 2e81 00b0 072f 8249 b007 3081  -[......./.I..0.
0001a860: 5bb0 0731 8149 b007 3283 6fb0 0733 8462  [..1.I..2.o..3.b
0001a870: 9043 307c 904f 3445 904a 3322 9053 3a49  .C0|.O4E.J3".S:I
0001a880: 804f 3e15 9056 371e 8053 4432 905b 3605  .O>..V7..SD2.[6.
0001a890: 8056 5c2d 805b 5681 0080 4352 0880 4a50  .V\-.[V...CR..JP
0001a8a0: 9230 b040 0000 ff2f 004d 5472 6b00 0008  .0.@.../.MTrk...
0001a8b0: 2800 ff01 1853 4620 4861 7270 2047 6c69  (....SF Harp Gli
0001a8c0: 7373 616e 6469 206d 616e 7561 6c92 0ab0  ssandi manual...
0001a8d0: 0a3d 2eb0 0a40 1bb0 0a45 42b0 0a47 0fb0  .=...@...EB..G..
0001a8e0: 0a4e 12b0 0a53 06b0 0a54 5bb0 0a55 77b0  .N...S...T[..Uw.
0001a8f0: 0a58 63b0 0a5a 54b0 0a5b 1bb0 0773 42b0  .Xc..ZT..[...sB.
0001a900: 0a60 19b0 0a63 55b0 0a66 0ab0 0a67 8726  .`...cU..f...g.&
0001a910: b00a 6886 6eb0 0a69 845b b007 732d b007  ..h.n..i.[..s-..
0001a920: 722e b007 722e b007 722e b007 722d b007  r...r...r...r-..
0001a930: 722e b007 722e b007 722e b007 722d b007  r...r...r...r-..
0001a940: 722e b007 722e b007 7200 b007 7285 4090  r...r...r...r.@.
0001a950: 294e 8f00 8029 598f 0ab0 0772 8317 b007  )N...)Y....r....
0001a960: 722e b007 722e b007 722e b007 722d b007  r...r...r...r-..
0001a970: 722e b007 722e b007 722e b007 732d b007  r...r...r...s-..
0001a980: 732e b007 732e b007 732e b007 7327 9030  s...s...s...s'.0
0001a990: 5006 b007 730f b007 748b 0b80 3061 a540  P...s...t...0a.@
0001a9a0: 902b 6289 3090 564d 8360 802b 5983 6080  .+b.0.VM.`.+Y.`.
0001a9b0: 563b 8c4b b00a 694a b00a 6818 b00a 6318  V;.K..iJ..h...c.
0001a9c0: b00a 5f2a b00a 5d1b b00a 5c15 b00a 5b0d  .._*..]...\...[.
0001a9d0: b00a 591b b00a 5620 b00a 5317 b00a 5282  ..Y...V ..S...R.
0001a9e0: 39b0 0a51 65b0 0a4f 6bb0 0a4c 1bb0 0a4a  9..Qe..Ok..L...J
0001a9f0: 2bb0 0a49 2ab0 0a47 23b0 0a46 8112 b00a  +..I*..G#..F....
0001aa00: 453e b00a 462c b00a 4581 49b0 0a44 68b0  E>..F,..E.I..Dh.
0001aa10: 0a45 22b0 0a44 4eb0 0a43 1fb0 0a44 6fb0  .E"..DN..C...Do.
0001aa20: 0a43 8216 b00a 4446 b00a 435e b00a 423e  .C....DF..C^..B>
0001aa30: b00a 4135 b00a 4084 ce33 b001 7a00 b001  ..A5..@..3..z...
0001aa40: 7b00 b001 7900 b001 7d7b b001 7b2d b001  {...y...}{..{-..
0001aa50: 7b2e b001 7b2e b001 7b2e b001 7b2d b001  {...{...{...{-..
0001aa60: 7b2e b001 7b2e b001 7b2e b001 7b2d b001  {...{...{...{-..
0001aa70: 7b2e b001 7b2e b001 7b2e b001 7b2d b001  {...{...{...{-..
0001aa80: 7b2e b001 7b2e b001 7b2e b001 7b2d b001  {...{...{...{-..
0001aa90: 7b2e b001 7b2e b001 7b2e b001 7b2d b001  {...{...{...{-..
0001aaa0: 7b2e b001 7b2e b001 7b2e b001 7b2d b001  {...{...{...{-..
0001aab0: 7b2e b001 7b2e b001 7b2e b001 7b2d b001  {...{...{...{-..
0001aac0: 7b2e b001 7b2e b001 7b2e b001 7b2d b001  {...{...{...{-..
0001aad0: 7b2e b001 7b2e b001 7b2e b001 7b2d b001  {...{...{...{-..
0001aae0: 7b2e b001 7b2e b001 7b2e b001 7b2d b001  {...{...{...{-..
0001aaf0: 7b2e b001 7b2e b001 7b2e b001 7b2d b001  {...{...{...{-..
0001ab00: 7b2e b001 7b2e b001 7b2e b001 7b2d b001  {...{...{...{-..
0001ab10: 7c2e b001 7c2e b001 7c2e b001 7c2d b001  |...|...|...|-..
0001ab20: 7c2e b001 7c2e b001 7c2e b001 7c2d b001  |...|...|...|-..
0001ab30: 7c2e b001 7c2e b001 7c2e b001 7c2d b001  |...|...|...|-..
0001ab40: 7c2e b001 7c2e b001 7c2e b001 7c2d b001  |...|...|...|-..
0001ab50: 7c2e b001 7c2e b001 7c2e b001 7c2d b001  |...|...|...|-..
0001ab60: 7c2e b001 7c2e b001 7c2e b001 7c2d b001  |...|...|...|-..
0001ab70: 7c2e b001 7c2e b001 7c2e b001 7c2d b001  |...|...|...|-..
0001ab80: 7c2e b001 7c2e b001 7c2e b001 7c2d b001  |...|...|...|-..
0001ab90: 7c2e b001 7c2e b001 7c2e b001 7c2d b001  |...|...|...|-..
0001aba0: 7c2e b001 7c2e b001 7c2e b001 7c2d b001  |...|...|...|-..
0001abb0: 7c2e b001 7c2e b001 7c2e b001 7c2d b001  |...|...|...|-..
0001abc0: 7c2e b001 7c2e b001 7c2e b001 7c2d b001  |...|...|...|-..
0001abd0: 7c23 b001 7da0 4590 226b 8957 8022 6392  |#..}.E."k.W."c.
0001abe0: 7db0 077c 2eb0 077c 2eb0 077c 2db0 077c  }..|...|...|-..|
0001abf0: 2eb0 077c 2eb0 077c 2eb0 077c 2db0 077c  ...|...|...|-..|
0001ac00: 2eb0 077c 2eb0 077c 2eb0 077c 2db0 077c  ...|...|...|-..|
0001ac10: 2eb0 077c 2eb0 077c 2eb0 077c 2db0 077c  ...|...|...|-..|
0001ac20: 2eb0 077c 2eb0 077c 2eb0 077c 2db0 077c  ...|...|...|-..|
0001ac30: 2eb0 077c 2eb0 077c 2eb0 077c 2db0 077c  ...|...|...|-..|
0001ac40: 2eb0 077c 2eb0 077c 2eb0 077c 2db0 077c  ...|...|...|-..|
0001ac50: 2eb0 077c 2eb0 077c 2eb0 077c 2db0 077c  ...|...|...|-..|
0001ac60: 2eb0 077c 2eb0 077c 2eb0 077c 2db0 077c  ...|...|...|-..|
0001ac70: 2eb0 077c 2eb0 077c 2eb0 077c 2db0 077c  ...|...|...|-..|
0001ac80: 2eb0 077c 2eb0 077c 2eb0 077c 2db0 077c  ...|...|...|-..|
0001ac90: 2eb0 077c 2eb0 077c 2eb0 077c 2db0 077c  ...|...|...|-..|
0001aca0: 2eb0 077c 2eb0 077c 2eb0 077c 2db0 077c  ...|...|...|-..|
0001acb0: 2eb0 077c 2eb0 077c 2eb0 077c 2db0 077c  ...|...|...|-..|
0001acc0: 2eb0 077c 2eb0 077c 2eb0 077c 2db0 077c  ...|...|...|-..|
0001acd0: 2eb0 077c 2eb0 077c 2eb0 077c 2db0 077c  ...|...|...|-..|
0001ace0: 2eb0 077c 2eb0 077c 2eb0 077c 2db0 077c  ...|...|...|-..|
0001acf0: 2eb0 077c 2eb0 077c 2eb0 077c 2db0 077c  ...|...|...|-..|
0001ad00: 2eb0 077c 2eb0 077c 2eb0 077c 2db0 077c  ...|...|...|-..|
0001ad10: 2eb0 077c 2eb0 077c 2eb0 077c 2db0 077c  ...|...|...|-..|
0001ad20: 2eb0 077c 2eb0 077c 2eb0 077c 2db0 077c  ...|...|...|-..|
0001ad30: 2eb0 077c 2eb0 077c 2eb0 077c 2db0 077c  ...|...|...|-..|
0001ad40: 2eb0 077c 2eb0 077c 2eb0 077c 2db0 077c  ...|...|...|-..|
0001ad50: 2eb0 077c 2eb0 077c 2eb0 077c 2db0 077c  ...|...|...|-..|
0001ad60: 2eb0 077c 2eb0 077c 2eb0 077c 2db0 077c  ...|...|...|-..|
0001ad70: 2eb0 077c 2eb0 077c 2eb0 077c 2db0 077c  ...|...|...|-..|
0001ad80: 2eb0 077d 2eb0 077d 2eb0 077d 2db0 077d  ...}...}...}-..}
0001ad90: 2eb0 077d 2eb0 077d 2eb0 077d 2db0 077d  ...}...}...}-..}
0001ada0: 2eb0 077d 2eb0 077d 2eb0 077d 2db0 077d  ...}...}...}-..}
0001adb0: 2eb0 077d 2eb0 077d 2eb0 077d 2db0 077d  ...}...}...}-..}
0001adc0: 2eb0 077d 2eb0 077d 2eb0 077d 2db0 077d  ...}...}...}-..}
0001add0: 2eb0 077d 2eb0 077d 2eb0 077d 2db0 077d  ...}...}...}-..}
0001ade0: 2eb0 077d 2eb0 077d 2eb0 077d 2db0 077d  ...}...}...}-..}
0001adf0: 2eb0 077d 2eb0 077d 2eb0 077d 2db0 077d  ...}...}...}-..}
0001ae00: 2eb0 077d 2eb0 077d 2eb0 077d 2db0 077d  ...}...}...}-..}
0001ae10: 2eb0 077d 2eb0 077d 2eb0 077d 2db0 077d  ...}...}...}-..}
0001ae20: 2eb0 077d 2eb0 077d 2eb0 077d 2db0 077d  ...}...}...}-..}
0001ae30: 2eb0 077d 2eb0 077d 2eb0 077d 2db0 077d  ...}...}...}-..}
0001ae40: 2eb0 077d 2eb0 077d 2eb0 077d 2db0 077d  ...}...}...}-..}
0001ae50: 2eb0 077d 2eb0 077d 2eb0 077d 2db0 077d  ...}...}...}-..}
0001ae60: 2eb0 077d 2eb0 077d 2eb0 077d 2db0 077d  ...}...}...}-..}
0001ae70: 2eb0 077d 2eb0 077d 2eb0 077d 2db0 077d  ...}...}...}-..}
0001ae80: 2eb0 077d 2eb0 077d 2eb0 077d 2db0 077d  ...}...}...}-..}
0001ae90: 2eb0 077d 2eb0 077d 2eb0 077d 2db0 077d  ...}...}...}-..}
0001aea0: 2eb0 077d 2eb0 077d 2eb0 077d 2db0 077d  ...}...}...}-..}
0001aeb0: 2eb0 077d 2eb0 077d 2eb0 077d 2db0 077d  ...}...}...}-..}
0001aec0: 2eb0 077d 2eb0 077d 2eb0 077d 2db0 077d  ...}...}...}-..}
0001aed0: 2eb0 077d 2eb0 077d 2eb0 077d 2db0 077d  ...}...}...}-..}
0001aee0: 2eb0 077d 2eb0 077d 2eb0 077d 2db0 077d  ...}...}...}-..}
0001aef0: 2eb0 077d 2eb0 077d 2eb0 077d 2db0 077d  ...}...}...}-..}
0001af00: 2eb0 077d 2eb0 077d 2eb0 077d 2db0 077d  ...}...}...}-..}
0001af10: 2eb0 077d 2eb0 077d 2eb0 077d 2db0 077d  ...}...}...}-..}
0001af20: 2eb0 077e 2eb0 077e 2eb0 077e 2db0 077e  ...~...~...~-..~
0001af30: 2eb0 077e 2eb0 077e 2eb0 077e 2db0 077e  ...~...~...~-..~
0001af40: 2eb0 077e 2eb0 077e 2eb0 077e 2db0 077e  ...~...~...~-..~
0001af50: 2eb0 077e 2eb0 077e 2eb0 077e 2db0 077e  ...~...~...~-..~
0001af60: 2eb0 077e 2eb0 077e 2eb0 077e 2db0 077e  ...~...~...~-..~
0001af70: 2eb0 077e 2eb0 077e 2eb0 077e 2db0 077e  ...~...~...~-..~
0001af80: 2eb0 077e 2eb0 077e 2eb0 077e 2db0 077e  ...~...~...~-..~
0001af90: 2eb0 077e 2eb0 077e 2eb0 077e 2db0 077e  ...~...~...~-..~
0001afa0: 2eb0 077e 2eb0 077e 2eb0 077e 2db0 077e  ...~...~...~-..~
0001afb0: 2eb0 077e 2eb0 077e 2eb0 077e 2db0 077e  ...~...~...~-..~
0001afc0: 2eb0 077e 2eb0 077e 2eb0 077e 2db0 077e  ...~...~...~-..~
0001afd0: 2eb0 077e 2eb0 077e 2eb0 077e 2db0 077e  ...~...~...~-..~
0001afe0: 2eb0 077e 2eb0 077e 2eb0 077e 2db0 077e  ...~...~...~-..~
0001aff0: 2eb0 077e 2eb0 077e 1a90 034c 14b0 077e  ...~...~...L...~
0001b000: 2db0 077e 2eb0 077e 2eb0 077e 2eb0 077e  -..~...~...~...~
0001b010: 2580 0360 0090 2d76 08b0 077e 2eb0 077e  %..`..-v...~...~
0001b020: 2eb0 077e 2eb0 077e 2db0 077e 2eb0 077e  ...~...~-..~...~
0001b030: 2eb0 077e 2eb0 077e 2db0 077e 2eb0 077e  ...~...~-..~...~
0001b040: 2eb0 077e 2eb0 077e 2db0 077e 2eb0 077e  ...~...~-..~...~
0001b050: 2eb0 077e 2eb0 077e 2db0 077e 2eb0 077e  ...~...~-..~...~
0001b060: 2eb0 077e 2eb0 077e 2db0 077e 2eb0 077e  ...~...~-..~...~
0001b070: 2eb0 077e 2eb0 077e 2db0 077e 2eb0 077e  ...~...~-..~...~
0001b080: 2eb0 077e 2eb0 077e 2db0 077e 2eb0 077e  ...~...~-..~...~
0001b090: 2eb0 077e 2eb0 077e 2db0 077e 2eb0 077e  ...~...~-..~...~
0001b0a0: 2eb0 077e 2eb0 077e 2db0 077e 2eb0 077e  ...~...~-..~...~
0001b0b0: 2eb0 077e 2eb0 077e 2db0 077e 2eb0 077e  ...~...~-..~...~
0001b0c0: 2eb0 077e 2eb0 077e 2db0 077e 13b0 077f  ...~...~-..~....
0001b0d0: 8268 802d 6700 ff2f 004d 5472 6b00 0003  .h.-g../.MTrk...
0001b0e0: 8200 ff01 0853 616d 2048 6172 7000 b007  .....Sam Harp...
0001b0f0: 3e83 be09 b00a 4000 b00b 7fe9 17b0 0a17  >.....@.........
0001b100: 8c70 b040 7f87 6090 673e 8930 903a 4600  .p.@..`.g>.0.:F.
0001b110: 9046 3e85 5080 6750 0080 4650 0080 3a3c  .F>.P.gP..FP..:<
0001b120: 0090 3e36 0090 4138 8550 803e 5000 8041  ..>6..A8.P.>P..A
0001b130: 3400 9035 3300 903e 3583 6080 354f 0080  4..53..>5.`.5O..
0001b140: 3e58 0090 463a 0090 3e3d 8550 8046 3e00  >X..F:..>=.P.F>.
0001b150: 803e 4600 903e 3f00 9041 4289 3080 3e5d  .>F..>?..AB.0.>]
0001b160: 0080 415e 0090 483e 0090 4136 8550 8048  ..A^..H>..A6.P.H
0001b170: 5b00 8041 5500 904b 3d00 903c 4585 5080  [..AU..K=..<E.P.
0001b180: 4b5f 0080 3c53 0090 4842 0090 413e 8360  K_..<S..HB..A>.`
0001b190: 8048 5900 8041 5000 904b 3600 903f 418f  .HY..AP..K6..?A.
0001b1a0: 0080 4b62 0080 3f5f 0090 463e 0090 3a46  ..Kb..?_..F>..:F
0001b1b0: 8550 8046 5000 803a 3c00 903a 3600 9041  .P.FP..:<..:6..A
0001b1c0: 3885 5080 3a50 0080 4134 0090 3e35 0090  8.P.:P..A4..>5..
0001b1d0: 3533 8360 803e 5800 8035 4f00 904b 3600  53.`.>X..5O..K6.
0001b1e0: 9041 4187 4080 4b62 0080 415f 8170 b00a  .AA.@.Kb..A_.p..
0001b1f0: 172e b00a 132e b00a 0f2d b00a 0b2e b00a  .........-......
0001b200: 072e b00a 030b b00a 0300 b007 3600 9068  ............6..h
0001b210: 3e81 17b0 4000 00b0 4000 8249 903a 4681  >...@...@..I.:F.
0001b220: 7080 3a3c 0090 353f 8170 8035 3e00 903a  p.:<..5?.p.5>..:
0001b230: 3981 7080 6850 0080 3a3e 0090 3535 8170  9.p.hP..:>..55.p
0001b240: 8035 4600 903a 3581 7080 3a4e 0090 3539  .5F..:5.p.:N..59
0001b250: 8170 8035 1900 903a 3b81 7080 3a3a 0090  .p.5...:;.p.::..
0001b260: 3533 8170 8035 3c00 903a 3b81 7080 3a29  53.p.5<..:;.p.:)
0001b270: 0090 3531 8170 8035 0100 903a 3a81 7080  ..51.p.5...::.p.
0001b280: 3a42 0090 3533 8170 8035 3b00 903a 3981  :B..53.p.5;..:9.
0001b290: 7080 3a38 0090 3532 8170 8035 0100 903a  p.:8..52.p.5...:
0001b2a0: 3c81 7080 3a01 0090 3535 8170 8035 3000  <.p.:...55.p.50.
0001b2b0: 903a 3f81 7080 3a01 0090 3536 8170 8035  .:?.p.:...56.p.5
0001b2c0: 2400 903c 4681 7080 3c42 0090 3537 8170  $..<F.p.<B..57.p
0001b2d0: 8035 3c00 903a 3f81 7080 3a25 0090 3536  .5<..:?.p.:%..56
0001b2e0: 8170 8035 3b00 903c 4681 7080 3c42 0090  .p.5;..<F.p.<B..
0001b2f0: 3535 8170 8035 0100 903a 3f81 7080 3a3b  55.p.5...:?.p.:;
0001b300: 0090 3538 8170 8035 2f00 903c 4481 7080  ..58.p.5/..<D.p.
0001b310: 3c3e 0090 3537 8170 8035 2800 903a 3981  <>..57.p.5(..:9.
0001b320: 7080 3a50 0090 3531 8170 8035 3b00 903c  p.:P..51.p.5;..<
0001b330: 4081 7080 3c39 0090 3534 8170 8035 3c00  @.p.<9..54.p.5<.
0001b340: 903a 4181 7080 3a30 0090 3530 8170 8035  .:A.p.:0..50.p.5
0001b350: 4600 903a 3a81 7080 3a33 0090 3536 8170  F..::.p.:3..56.p
0001b360: 8035 3f00 903a 3d81 7080 3a43 0090 353a  .5?..:=.p.:C..5:
0001b370: 8170 8035 3f00 903a 3e81 7080 3a55 0090  .p.5?..:>.p.:U..
0001b380: 3537 8170 8035 4200 903a 4381 7080 3a3c  57.p.5B..:C.p.:<
0001b390: 0090 3534 8170 8035 1d00 903a 3e81 7080  ..54.p.5...:>.p.
0001b3a0: 3a14 0090 3536 8170 8035 3e00 903a 3c81  :...56.p.5>..:<.
0001b3b0: 7080 3a25 0090 3537 8170 8035 4900 903a  p.:%..57.p.5I..:
0001b3c0: 3f81 7080 3a59 0090 353a 8170 8035 4b00  ?.p.:Y..5:.p.5K.
0001b3d0: 903a 4181 7080 3a50 0090 353a 8170 8035  .:A.p.:P..5:.p.5
0001b3e0: 3800 903c 4781 7080 3c4c 0090 3539 8170  8..<G.p.<L..59.p
0001b3f0: 8035 3c00 903a 4381 7080 3a41 0090 3536  .5<..:C.p.:A..56
0001b400: 8170 8035 0100 903c 4681 7080 3c3d 0090  .p.5...<F.p.<=..
0001b410: 3535 8170 8035 2a00 903a 4581 7080 3a48  55.p.5*..:E.p.:H
0001b420: 0090 3532 8170 8035 3b00 903a 4381 7080  ..52.p.5;..:C.p.
0001b430: 3a30 0090 353e 8170 8035 3800 903a 4181  :0..5>.p.58..:A.
0001b440: 7080 3a01 0090 353e 8170 8035 4c00 903a  p.:...5>.p.5L..:
0001b450: 4681 7080 3a59 0090 353e 8170 8035 5f00  F.p.:Y..5>.p.5_.
0001b460: ff2f 004d 5472 6b00 0008 9900 ff01 0753  ./.MTrk........S
0001b470: 4620 4861 7270 00b0 077f 9450 b00a 2581  F Harp.....P..%.
0001b480: b850 b040 7f89 62b0 076e 09b0 076c 08b0  .P.@..b..n...l..
0001b490: 076b 2cb0 407f 02b0 076b 2eb0 076c 2db0  .k,.@....k...l-.
0001b4a0: 076f 2eb0 0773 2eb0 0777 2eb0 077b 1ab0  .o...s...w...{..
0001b4b0: 077e 4890 3534 4690 412e 0290 3c43 1f90  .~H.54F.A...<C..
0001b4c0: 4542 8470 b040 7f88 4080 3551 0980 3c48  EB.p.@..@.5Q..<H
0001b4d0: 0c80 4153 0e80 4560 27b0 4000 65b0 407f  ..AS..E`'.@.e.@.
0001b4e0: 822a 9035 283e 903c 4614 9041 2e40 9045  .*.5(>.<F..A.@.E
0001b4f0: 3682 76b0 077b 8674 b040 0017 8035 3f1f  6.v..{.t.@...5?.
0001b500: 803c 5e15 8041 5701 904a 4700 9035 401a  .<^..AW..JG..5@.
0001b510: 8045 6081 37b0 407f 1f80 4a04 0090 483e  .E`.7.@...J...H>
0001b520: 0090 3a39 8170 8048 4600 803a 5000 904d  ..:9.p.HF..:P..M
0001b530: 4000 903e 3d48 b040 7f81 2880 3548 0080  @..>=H.@..(.5H..
0001b540: 3e5b 8217 b040 0081 4980 4d55 0090 4c45  >[...@..I.MU..LE
0001b550: 0090 393e 8170 804c 4c00 8039 4c00 9048  ..9>.p.LL..9L..H
0001b560: 4400 903c 4681 7080 3c4d 34b0 407f 813c  D..<F.p.<M4.@..<
0001b570: 9033 3c31 b040 0081 3f90 3a3b 8170 8048  .3<1.@..?.:;.p.H
0001b580: 3000 803a 4f00 9046 4100 903f 4181 7080  0..:O..FA..?A.p.
0001b590: 3355 0080 3f69 0080 464c 0090 4552 2ab0  3U..?i..FL..ER*.
0001b5a0: 407f 8146 8045 4100 9043 3f00 9037 3800  @..F.EA..C?..78.
0001b5b0: 903c 4200 9040 3734 b040 0087 0c80 435f  .<B..@74.@....C_
0001b5c0: 0080 404d 0080 3c5c 0080 375e 8360 b007  ..@M..<\..7^.`..
0001b5d0: 7181 8700 b001 172e b001 162e b001 152d  q..............-
0001b5e0: b001 1400 b007 702e b007 7000 b001 132d  ......p...p....-
0001b5f0: b007 7101 b001 120b 9004 4d22 b007 7201  ..q.......M"..r.
0001b600: b001 122d b001 1100 b007 732e b007 7400  ...-......s...t.
0001b610: b001 102d b007 7501 b001 0f2d b007 7501  ...-..u....-..u.
0001b620: b001 0e2d b001 0e00 b007 762e b007 7700  ...-......v...w.
0001b630: b001 0d2d b007 7801 b001 0c2d b007 7901  ...-..x....-..y.
0001b640: b001 0b2d b001 0a00 b007 7a2e b007 7a00  ...-......z...z.
0001b650: b001 0a2d b007 7b01 b001 092d b007 7c01  ...-..{....-..|.
0001b660: b001 092d b001 0900 b007 7d2e b007 7e00  ...-......}...~.
0001b670: b001 092d b007 7f01 b001 082e b001 082d  ...-...........-
0001b680: b001 082e b001 082e b001 082e b001 072d  ...............-
0001b690: b001 072e b001 072e b001 072e b001 072d  ...............-
0001b6a0: b001 062e b001 062e b001 062e b001 062d  ...............-
0001b6b0: b001 052e b001 052e b001 052e b001 052d  ...............-
0001b6c0: b001 052e b001 042e b001 042e b001 042d  ...............-
0001b6d0: b001 042e b001 042e b001 032e b001 032d  ...............-
0001b6e0: b001 032e b001 032e b001 022e b001 022d  ...............-
0001b6f0: b001 022e b001 022e b001 022e b001 012d  ...............-
0001b700: b001 012e b001 012e b001 012e b001 012d  ...............-
0001b710: b001 002e b001 002e b001 002e b001 002b  ...............+
0001b720: b001 0000 9046 0f2e b001 002e b001 012d  .....F.........-
0001b730: b001 022e b001 022e b001 032e b001 042d  ...............-
0001b740: b001 042e b001 052e b001 062e b001 062d  ...............-
0001b750: b001 072e b001 082e b001 082e b001 092d  ...............-
0001b760: b001 0a2e b001 0b2e b001 0b2e b001 0c2d  ...............-
0001b770: b001 0d2e b001 0d2e b001 0e2e b001 0f2d  ...............-
0001b780: b001 0f2e b001 102e b001 112e b001 112d  ...............-
0001b790: b001 122e b001 132e b001 132e b001 142d  ...............-
0001b7a0: b001 152e b001 162e b001 162e b001 172d  ...............-
0001b7b0: b001 182e b001 182e b001 192e b001 1a2d  ...............-
0001b7c0: b001 1a2e b001 1b2e b001 1c2e b001 1c2d  ...............-
0001b7d0: b001 1d2e b001 1e2e b001 1e2e b001 1f2d  ...............-
0001b7e0: b001 202e b001 212e b001 212e b001 222d  .. ...!...!..."-
0001b7f0: b001 232e b001 232e b001 242e b001 252d  ..#...#...$...%-
0001b800: b001 252e b001 262e b001 272e b001 272d  ..%...&...'...'-
0001b810: b001 282e b001 292e b001 2902 b001 2a2e  ..(...)...)...*.
0001b820: b001 2a2e b001 2b2d b001 2b2e b001 2b2e  ..*...+-..+...+.
0001b830: b001 2b2e b001 2bbc 34b0 012b 9640 8004  ..+...+.4..+.@..
0001b840: 5c95 5990 034d 8307 b040 7f81 4080 4642  \.Y..M...@..@.FB
0001b850: 824d 9035 4281 3b90 3740 0f80 3551 8111  .M.5B.;.7@..5Q..
0001b860: 9039 4001 8037 5f6b 903a 4c05 8039 5f38  .9@..7_k.:L..9_8
0001b870: 803a 5955 903c 4b36 903e 431c 803c 610c  .:YU.<K6.>C..<a.
0001b880: 903f 431b 803e 6715 9041 4419 803f 6112  .?C..>g..AD..?a.
0001b890: 9043 451d 8041 620c 9045 4617 8043 5312  .CE..Ab..EF..CS.
0001b8a0: 9046 470e 8045 4981 06b0 4000 8246 8003  .FG..EI...@..F..
0001b8b0: 5c8b 3980 4662 8e6c b00a 2594 50b0 077c  \.9.Fb.l..%.P..|
0001b8c0: 8930 b040 7f84 6990 034d 8b03 b00a 2824  .0.@..i..M....($
0001b8d0: b00a 2949 b00a 270c b040 0000 902e 2406  ..)I..'..@....$.
0001b8e0: b00a 2412 b00a 2317 9030 251f 802e 5903  ..$...#..0%...Y.
0001b8f0: 9032 2710 b00a 2411 8030 7613 b00a 2519  .2'...$..0v...%.
0001b900: 9033 280f 8032 2233 9035 2b0a 8033 3135  .3(..2"3.5+..315
0001b910: 9037 2d10 8035 3e28 9039 2e10 8037 1c27  .7-..5>(.9...7.'
0001b920: 903a 3007 8039 3d0a b040 7f1a 803a 5904  .:0..9=..@...:Y.
0001b930: 903c 301f 803c 760e 903e 3223 803e 5d07  .<0..<v..>2#.>].
0001b940: 903f 331f 803f 7812 9041 3525 8041 5a02  .?3..?x..A5%.AZ.
0001b950: 9043 3628 8043 5b06 9045 372b 9046 3802  .C6(.C[..E7+.F8.
0001b960: 8045 560f 8003 5c17 8046 5909 9048 3922  .EV...\..FY..H9"
0001b970: 8048 5b09 904a 3b26 804a 5c07 904b 3d26  .H[..J;&.J\..K=&
0001b980: 804b 5c0f 904d 3e28 804d 5707 904f 3f2a  .K\..M>(.MW..O?*
0001b990: 804f 5708 9051 4024 8051 650c 9052 4122  .OW..Q@$.Qe..RA"
0001b9a0: 8052 5d08 9054 4324 8054 5d05 9056 4425  .R]..TC$.T]..VD%
0001b9b0: 8056 5607 9057 461f 8057 610e 9059 4729  .VV..WF..Wa..YG)
0001b9c0: 8059 5742 b040 0088 40b0 0779 2eb0 0778  .YWB.@..@..y...x
0001b9d0: 2eb0 0778 2db0 0778 2eb0 0778 2eb0 0778  ...x-..x...x...x
0001b9e0: 2eb0 0778 2db0 0778 2eb0 0778 2eb0 0778  ...x-..x...x...x
0001b9f0: 2eb0 0778 2db0 0778 2eb0 0778 2eb0 0778  ...x-..x...x...x
0001ba00: 2eb0 0778 2db0 0778 2eb0 0778 2eb0 0778  ...x-..x...x...x
0001ba10: 2eb0 0778 2db0 0778 2eb0 0778 2eb0 0778  ...x-..x...x...x
0001ba20: 2eb0 0778 2db0 0777 2eb0 0777 2eb0 0777  ...x-..w...w...w
0001ba30: 2eb0 0777 2db0 0777 2eb0 0777 2eb0 0777  ...w-..w...w...w
0001ba40: 2eb0 0777 2db0 0777 2eb0 0777 2eb0 0777  ...w-..w...w...w
0001ba50: 2eb0 0777 2db0 0777 2eb0 0777 2eb0 0777  ...w-..w...w...w
0001ba60: 2eb0 0777 2db0 0777 2eb0 0777 2eb0 0777  ...w-..w...w...w
0001ba70: 2eb0 0777 2db0 0777 2eb0 0777 2eb0 0777  ...w-..w...w...w
0001ba80: 2eb0 0776 2db0 0776 2eb0 0776 2eb0 0776  ...v-..v...v...v
0001ba90: 2eb0 0776 2db0 0776 2eb0 0776 2eb0 0776  ...v-..v...v...v
0001baa0: 2eb0 0776 2db0 0776 2eb0 0776 2eb0 0776  ...v-..v...v...v
0001bab0: 2eb0 0776 2db0 0776 2eb0 0776 2eb0 0776  ...v-..v...v...v
0001bac0: 2eb0 0776 2db0 0776 2eb0 0776 2eb0 0776  ...v-..v...v...v
0001bad0: 2eb0 0776 2db0 0776 2eb0 0776 2eb0 0775  ...v-..v...v...u
0001bae0: 2eb0 0775 2db0 0775 2eb0 0775 2eb0 0775  ...u-..u...u...u
0001baf0: 2eb0 0775 2db0 0775 2eb0 0775 2eb0 0775  ...u-..u...u...u
0001bb00: 2eb0 0775 2db0 0775 2eb0 0775 2eb0 0775  ...u-..u...u...u
0001bb10: 2eb0 0775 2db0 0775 2eb0 0775 2eb0 0775  ...u-..u...u...u
0001bb20: 2eb0 0775 2db0 0775 2eb0 0775 2eb0 0775  ...u-..u...u...u
0001bb30: 2eb0 0775 2db0 0774 2eb0 0774 2eb0 0774  ...u-..t...t...t
0001bb40: 2eb0 0774 2db0 0774 2eb0 0774 2eb0 0774  ...t-..t...t...t
0001bb50: 2eb0 0774 2db0 0774 2eb0 0774 2eb0 0774  ...t-..t...t...t
0001bb60: 2eb0 0774 2db0 0774 2eb0 0774 2eb0 0774  ...t-..t...t...t
0001bb70: 2eb0 0774 2db0 0774 2eb0 0774 2eb0 0774  ...t-..t...t...t
0001bb80: 2eb0 0774 2db0 0774 2eb0 0774 2eb0 0774  ...t-..t...t...t
0001bb90: 2eb0 0773 2db0 0773 2eb0 0773 2eb0 0773  ...s-..s...s...s
0001bba0: 2eb0 0773 2db0 0773 2eb0 0773 2eb0 0773  ...s-..s...s...s
0001bbb0: 2eb0 0773 2db0 0773 2eb0 0773 2eb0 0773  ...s-..s...s...s
0001bbc0: 2eb0 0773 2db0 0773 2eb0 0773 2eb0 0773  ...s-..s...s...s
0001bbd0: 2eb0 0773 2db0 0773 2eb0 0773 2eb0 0773  ...s-..s...s...s
0001bbe0: 2eb0 0773 2db0 0773 2eb0 0773 2eb0 0772  ...s-..s...s...r
0001bbf0: 2eb0 0772 2db0 0772 2eb0 0772 2eb0 0772  ...r-..r...r...r
0001bc00: 2eb0 0772 2db0 0772 2eb0 0772 2eb0 0772  ...r-..r...r...r
0001bc10: 2eb0 0772 2db0 0772 2eb0 0772 2eb0 0772  ...r-..r...r...r
0001bc20: 2eb0 0772 2db0 0772 2eb0 0772 2eb0 0772  ...r-..r...r...r
0001bc30: 2eb0 0772 2db0 0772 2eb0 0772 2eb0 0772  ...r-..r...r...r
0001bc40: 2eb0 0772 2db0 0772 2eb0 0771 2eb0 0771  ...r-..r...q...q
0001bc50: 2eb0 0771 2db0 0771 2eb0 0771 2eb0 0771  ...q-..q...q...q
0001bc60: 2eb0 0771 2db0 0771 2eb0 0771 2eb0 0771  ...q-..q...q...q
0001bc70: 2eb0 0771 2db0 0771 2eb0 0771 2eb0 0771  ...q-..q...q...q
0001bc80: 2eb0 0771 2db0 0771 2eb0 0771 2eb0 0771  ...q-..q...q...q
0001bc90: 2eb0 0771 2db0 0771 2eb0 0771 2eb0 0771  ...q-..q...q...q
0001bca0: 2eb0 0770 2db0 0770 2eb0 0770 2eb0 0770  ...p-..p...p...p
0001bcb0: 2eb0 0770 2db0 0770 2eb0 0770 2eb0 0770  ...p-..p...p...p
0001bcc0: 2eb0 0770 2db0 0770 2eb0 0770 2eb0 0770  ...p-..p...p...p
0001bcd0: 2eb0 0770 2db0 0770 2eb0 0770 2eb0 0770  ...p-..p...p...p
0001bce0: 2eb0 0770 2db0 0770 2eb0 0770 2eb0 0770  ...p-..p...p...p
0001bcf0: 2eb0 0770 2db0 0770 2eb0 0770 1bb0 0770  ...p-..p...p...p
0001bd00: 00ff 2f00 4d54 726b 0000 0013 00ff 0106  ../.MTrk........
0001bd10: 4d49 4449 2d37 00ff 2001 0400 ff2f 004d  MIDI-7.. ..../.M
0001bd20: 5472 6b00 0003 4b00 ff01 0d53 4620 5065  Trk...K....SF Pe
0001bd30: 7263 2047 6c6f 636b 00b0 077f 81d5 60b0  rc Glock......`.
0001bd40: 0b7f b440 905e 2b81 7080 5e46 0090 5d2f  ...@.^+.p.^F..]/
0001bd50: 8170 805d 5b00 905b 2e81 7080 5b56 8b20  .p.][..[..p.[V. 
0001bd60: b007 4f00 b00a 4783 fc10 b00b 6c84 05b0  ..O...G.....l...
0001bd70: 074f 37b0 0750 2db0 074f 2eb0 074f 2eb0  .O7..P-..O...O..
0001bd80: 074f 2eb0 074f 2db0 074f 2eb0 074e 2eb0  .O...O-..O...N..
0001bd90: 074e 2eb0 074e 2db0 074e 2eb0 074e 2eb0  .N...N-..N...N..
0001bda0: 074e 2eb0 074d 2db0 074d 2eb0 074d 2eb0  .N...M-..M...M..
0001bdb0: 074d 2eb0 074d 2db0 074d 2eb0 074c 2eb0  .M...M-..M...L..
0001bdc0: 074c 2eb0 074c 2db0 074c 2eb0 074c 2eb0  .L...L-..L...L..
0001bdd0: 074c 2eb0 074b 2db0 074b 2eb0 074b 2eb0  .L...K-..K...K..
0001bde0: 074b 2eb0 074b 2db0 074b 2eb0 074a 2eb0  .K...K-..K...J..
0001bdf0: 074a 2eb0 074a 2db0 074a 2eb0 074a 2eb0  .J...J-..J...J..
0001be00: 074a 2eb0 0749 2db0 0749 2eb0 0749 2eb0  .J...I-..I...I..
0001be10: 0749 2eb0 0749 2db0 0749 2eb0 0748 2eb0  .I...I-..I...H..
0001be20: 0748 2eb0 0748 2db0 0748 2eb0 0748 2eb0  .H...H-..H...H..
0001be30: 0747 2eb0 0747 2db0 0747 2eb0 0747 2eb0  .G...G-..G...G..
0001be40: 0747 2eb0 0747 2db0 0746 2eb0 0746 2eb0  .G...G-..F...F..
0001be50: 0746 2eb0 0746 2db0 0746 2eb0 0746 2eb0  .F...F-..F...F..
0001be60: 0745 2eb0 0745 2db0 0745 2eb0 0745 2eb0  .E...E-..E...E..
0001be70: 0745 2eb0 0745 2db0 0744 2eb0 0744 2eb0  .E...E-..D...D..
0001be80: 0744 2eb0 0744 2db0 0744 2eb0 0744 2eb0  .D...D-..D...D..
0001be90: 0743 2eb0 0743 2db0 0743 2eb0 0743 2eb0  .C...C-..C...C..
0001bea0: 0743 2eb0 0743 2db0 0742 2eb0 0742 2eb0  .C...C-..B...B..
0001beb0: 0742 2eb0 0742 2db0 0742 2eb0 0742 2eb0  .B...B-..B...B..
0001bec0: 0741 2eb0 0741 2db0 0741 2eb0 0741 2eb0  .A...A-..A...A..
0001bed0: 0741 2eb0 0740 2db0 0740 2eb0 0740 2eb0  .A...@-..@...@..
0001bee0: 0740 2eb0 0740 2db0 0740 2eb0 073f 2eb0  .@...@-..@...?..
0001bef0: 073f 2eb0 073f 2db0 073f 1fb0 0a72 0fb0  .?...?-..?...r..
0001bf00: 073f 2eb0 073f 2eb0 073e 2db0 073e 2eb0  .?...?...>-..>..
0001bf10: 073e 2eb0 073e 2eb0 073e 2db0 073e 1ab0  .>...>...>-..>..
0001bf20: 073e 2eb0 073d 2eb0 073d 2db0 073c 2eb0  .>...=...=-..<..
0001bf30: 073c 2eb0 073b 2eb0 073b 2db0 0739 2eb0  .<...;...;-..9..
0001bf40: 0738 2eb0 0737 2eb0 0736 2db0 0735 2eb0  .8...7...6-..5..
0001bf50: 0735 2eb0 0734 2eb0 0733 2db0 0733 2eb0  .5...4...3-..3..
0001bf60: 0733 00b0 0733 2eb0 0733 2eb0 0733 2db0  .3...3...3...3-.
0001bf70: 0733 2eb0 0734 2eb0 0734 2eb0 0734 2db0  .3...4...4...4-.
0001bf80: 0735 2eb0 0735 2eb0 0735 2eb0 0736 2db0  .5...5...5...6-.
0001bf90: 0736 2eb0 0736 2eb0 0737 2eb0 0737 2db0  .6...6...7...7-.
0001bfa0: 0737 2eb0 0738 2eb0 0738 2eb0 0738 2db0  .7...8...8...8-.
0001bfb0: 0739 2eb0 0739 2eb0 0739 2eb0 073a 2db0  .9...9...9...:-.
0001bfc0: 073a 2eb0 073a 21b0 073b 8320 905e 4d78  .:...:!..;. .^Mx
0001bfd0: 805e 4d78 9060 4b78 8060 5c78 905d 5178  .^Mx.`Kx.`\x.]Qx
0001bfe0: 805d 4d78 905b 5578 805b 4a86 4890 5b48  .]Mx.[Ux.[J.H.[H
0001bff0: 7880 5b43 7890 5a4c 7880 5a4b 7890 5b50  x.[Cx.ZLx.ZKx.[P
0001c000: 7880 5b3f 7890 5d4a 7880 5d4c 7890 5655  x.[?x.]Jx.]Lx.VU
0001c010: 7880 5655 8838 905e 5078 805e 4c78 9060  x.VU.8.^Px.^Lx.`
0001c020: 4578 8060 5d78 905e 4c78 805e 5278 9062  Ex.`]x.^Lx.^Rx.b
0001c030: 5978 8062 3882 6890 605d 7880 605b 7890  Yx.b8.h.`]x.`[x.
0001c040: 5e4c 7880 5e48 7890 5d51 7880 5d43 7890  ^Lx.^Hx.]Qx.]Cx.
0001c050: 5b52 7880 5b4c 7890 5d4f 7880 5d5b 7890  [Rx.[Lx.]Ox.][x.
0001c060: 5a4d 7880 5a3e 7890 565c 7880 565c 00ff  ZMx.Z>x.V\x.V\..
0001c070: 2f00 4d54 726b 0000 0018 00ff 010b 4d49  /.MTrk........MI
0001c080: 4449 2d38 2063 6f70 7900 ff20 0106 00ff  DI-8 copy.. ....
0001c090: 2f00 4d54 726b 0000 001a 00ff 010d 4d49  /.MTrk........MI
0001c0a0: 4449 2d38 2063 6f70 7920 3100 ff20 0107  DI-8 copy 1.. ..
0001c0b0: 00ff 2f00 4d54 726b 0000 006b 00ff 0108  ../.MTrk...k....
0001c0c0: 5472 6961 6e67 6c65 84b7 30b0 407f 826f  Triangle..0.@..o
0001c0d0: b007 5382 6fb0 074e 831d b040 0081 5db0  ..S.o..N...@..].
0001c0e0: 074d 8128 b007 4681 7090 4c50 a160 804c  .M.(..F.p.LP.`.L
0001c0f0: 599a 2090 4a3f 9a41 b040 0083 3f80 4a41  Y. .J?.A.@..?.JA
0001c100: 82f7 00b0 407f 0090 4a1b 9f20 b040 7f8b  ....@...J.. .@..
0001c110: 7080 4a53 9070 9045 1d85 5080 4542 bc18  p.JS.p.E..P.EB..
0001c120: b040 0000 ff2f 004d 5472 6b00 0000 5e00  .@.../.MTrk...^.
0001c130: ff01 0853 4320 5669 6265 7383 c940 b040  ...SC Vibes..@.@
0001c140: 7f00 904d 0a00 9043 0b00 904b 0c00 9046  ...M...C...K...F
0001c150: 0a8f 0080 4d50 0080 4649 0080 4b23 0080  ....MP..FI..K#..
0001c160: 4341 a160 904a 0b00 903a 0b00 9046 0a00  CA.`.J...:...F..
0001c170: 9041 0b90 7080 4a4f 0080 4149 0080 464c  .A..p.JO..AI..FL
0001c180: 0080 3a49 9c10 b040 0000 ff2f 004d 5472  ..:I...@.../.MTr
0001c190: 6b00 0004 0b00 ff01 1953 6f6e 6976 6f78  k........Sonivox
0001c1a0: 2048 6172 7020 4269 7362 6967 6c69 616e   Harp Bisbiglian
0001c1b0: 646f 00b0 0a77 8398 60b0 0a4c 8d10 b00a  do...w..`..L....
0001c1c0: 1d8d 10b0 0700 2eb0 0700 2eb0 0700 2db0  ..............-.
0001c1d0: 0700 2eb0 0701 2eb0 0701 2eb0 0701 2db0  ..............-.
0001c1e0: 0702 2eb0 0702 2eb0 0702 2eb0 0703 1690  ................
0001c1f0: 4618 17b0 0703 2eb0 0703 2eb0 0704 2eb0  F...............
0001c200: 0704 2db0 0704 2eb0 0705 2eb0 0705 2eb0  ..-.............
0001c210: 0705 2db0 0706 2eb0 0706 2eb0 0706 2eb0  ..-.............
0001c220: 0707 2db0 0707 2eb0 0707 2eb0 0708 2eb0  ..-.............
0001c230: 0708 2db0 0708 2eb0 0709 2eb0 0709 2eb0  ..-.............
0001c240: 0709 2db0 070a 2eb0 070a 2eb0 070a 2eb0  ..-.............
0001c250: 070b 2db0 070b 2eb0 070b 2eb0 070c 2eb0  ..-.............
0001c260: 070c 2db0 070c 2eb0 070d 2eb0 070d 2eb0  ..-.............
0001c270: 070d 2db0 070e 2eb0 070e 2eb0 070e 2eb0  ..-.............
0001c280: 070f 2db0 070f 2eb0 070f 2eb0 0710 2eb0  ..-.............
0001c290: 0710 2db0 0710 2eb0 0711 2eb0 0711 2eb0  ..-.............
0001c2a0: 0711 2db0 0712 2eb0 0712 2eb0 0712 2eb0  ..-.............
0001c2b0: 0713 2db0 0713 2eb0 0713 2eb0 0714 2eb0  ..-.............
0001c2c0: 0714 2db0 0714 2eb0 0715 2eb0 0715 2eb0  ..-.............
0001c2d0: 0715 2db0 0716 2eb0 0716 2eb0 0716 2eb0  ..-.............
0001c2e0: 0717 2db0 0717 2eb0 0717 2eb0 0718 2eb0  ..-.............
0001c2f0: 0718 2db0 0718 2eb0 0719 2eb0 0719 2eb0  ..-.............
0001c300: 0719 2db0 071a 2eb0 071a 2eb0 071a 2eb0  ..-.............
0001c310: 071b 2db0 071b 2eb0 071b 2eb0 071c 2eb0  ..-.............
0001c320: 071c 2db0 071c 2eb0 071d 2eb0 071d 2eb0  ..-.............
0001c330: 071d 2db0 071e 2eb0 071e 2eb0 071e 2eb0  ..-.............
0001c340: 071f 2db0 071f 2eb0 071f 2eb0 0720 2eb0  ..-.......... ..
0001c350: 0720 2db0 0720 2eb0 0721 2eb0 0721 2eb0  . -.. ...!...!..
0001c360: 0721 2db0 0722 2eb0 0722 2eb0 0722 2eb0  .!-.."..."..."..
0001c370: 0723 2db0 0723 2eb0 0723 2eb0 0724 2eb0  .#-..#...#...$..
0001c380: 0724 2db0 0724 2eb0 0725 2eb0 0725 2eb0  .$-..$...%...%..
0001c390: 0725 2db0 0726 2eb0 0726 2eb0 0726 2eb0  .%-..&...&...&..
0001c3a0: 0727 2db0 0727 2eb0 0727 2eb0 0728 2eb0  .'-..'...'...(..
0001c3b0: 0728 2db0 0728 2eb0 0729 2eb0 0729 2eb0  .(-..(...)...)..
0001c3c0: 0729 2db0 072a 2eb0 072a 2eb0 072a 2eb0  .)-..*...*...*..
0001c3d0: 072b 2db0 072b 2eb0 072b 2eb0 072c 2eb0  .+-..+...+...,..
0001c3e0: 072c 2db0 072c 2eb0 072d 2eb0 072d 2eb0  .,-..,...-...-..
0001c3f0: 072d 2db0 072e 2eb0 072e 2eb0 072e 2eb0  .--.............
0001c400: 072f 2db0 072f 2eb0 072f 2eb0 0730 2eb0  ./-../.../...0..
0001c410: 0730 2db0 0730 2eb0 0731 2eb0 0731 2eb0  .0-..0...1...1..
0001c420: 0731 2db0 0732 2eb0 0732 2eb0 0732 2eb0  .1-..2...2...2..
0001c430: 0733 2db0 0733 2eb0 0733 2eb0 0734 2eb0  .3-..3...3...4..
0001c440: 0734 2db0 0734 2eb0 0735 2eb0 0735 2eb0  .4-..4...5...5..
0001c450: 0735 2db0 0736 2eb0 0736 2eb0 0736 2eb0  .5-..6...6...6..
0001c460: 0737 2db0 0737 2eb0 0737 2eb0 0738 2eb0  .7-..7...7...8..
0001c470: 0738 2db0 0738 2eb0 0739 2eb0 0739 2eb0  .8-..8...9...9..
0001c480: 0739 2db0 073a 2eb0 073a 2eb0 073a 2eb0  .9-..:...:...:..
0001c490: 073b 2db0 073b 2eb0 073b 2eb0 073c 2eb0  .;-..;...;...<..
0001c4a0: 073c 2db0 073c 1cb0 073d 2eb0 073d 2eb0  .<-..<...=...=..
0001c4b0: 073d 2db0 073d 2eb0 073d 2eb0 073d 2eb0  .=-..=...=...=..
0001c4c0: 073d 2db0 073d 2eb0 073d 2eb0 073d 2eb0  .=-..=...=...=..
0001c4d0: 073d 2db0 073d 2eb0 073d 2eb0 073d 2eb0  .=-..=...=...=..
0001c4e0: 073d 2db0 073d 2eb0 073d 2eb0 073d 2eb0  .=-..=...=...=..
0001c4f0: 073d 2db0 073d 2eb0 073e 2eb0 073e 2eb0  .=-..=...>...>..
0001c500: 073e 2db0 073e 2eb0 073e 2eb0 073e 2eb0  .>-..>...>...>..
0001c510: 073e 2db0 073e 2eb0 073e 2eb0 073e 2eb0  .>-..>...>...>..
0001c520: 073e 2db0 073e 2eb0 073e 2eb0 073e 2eb0  .>-..>...>...>..
0001c530: 073e 2db0 073e 2eb0 073e 2eb0 073e 2eb0  .>-..>...>...>..
0001c540: 073e 2db0 073f 2eb0 073f 2eb0 073f 2eb0  .>-..?...?...?..
0001c550: 073f 2db0 073f 2eb0 073f 2eb0 073f 2eb0  .?-..?...?...?..
0001c560: 073f 2db0 073f 2eb0 073f 2eb0 073f 2eb0  .?-..?...?...?..
0001c570: 073f 2db0 073f 2eb0 073f 2eb0 073f 2eb0  .?-..?...?...?..
0001c580: 073f 2db0 073f 2eb0 073f 2eb0 073f 20b0  .?-..?...?...? .
0001c590: 0740 bc00 8046 42ad 00b0 407f 00ff 2f00  .@...FB...@.../.
0001c5a0: 4d54 726b 0000 0302 00ff 010b 5346 2045  MTrk........SF E
0001c5b0: 6e73 204c 6f6e 6700 b00b 7f00 b007 7f00  ns Long.........
0001c5c0: b007 7f00 b001 78fa 6cb0 077c 09b0 0772  ......x.l..|...r
0001c5d0: 0ab0 0764 09b0 0751 0ab0 0734 09b0 0711  ...d...Q...4....
0001c5e0: 2eb0 0718 2db0 071f 2eb0 0727 2eb0 072e  ....-......'....
0001c5f0: 2eb0 0736 0bb0 0738 8235 904a 3183 6080  ...6...8.5.J1.`.
0001c600: 4a1e 0090 4f42 8360 804f 6000 9052 4383  J...OB.`.O`..RC.
0001c610: 6080 5268 0090 5643 8360 8056 6800 905b  `.Rh..VC.`.Vh..[
0001c620: 4383 6080 5b68 0090 5e43 8550 805e 6883  C.`.[h..^C.P.^h.
0001c630: 1ab0 0701 0ab0 070a 09b0 0715 09b0 0720  ............... 
0001c640: 0ab0 072d 09b0 073d 09b0 074f 0ab0 075f  ...-...=...O..._
0001c650: 09b0 076e 09b0 077b 0ab0 077f 818e 5ab0  ...n...{......Z.
0001c660: 0100 883c b001 002d b001 012e b001 022e  ...<...-........
0001c670: b001 042e b001 052d b001 062e b001 082e  .......-........
0001c680: b001 092e b001 0a2d b001 0c2e b001 0d2e  .......-........
0001c690: b001 0e2b 9026 3c00 9032 3c03 b001 102d  ...+.&<..2<....-
0001c6a0: b001 112e b001 132e b001 142e b001 152d  ...............-
0001c6b0: b001 172e b001 182e b001 192e b001 1b2d  ...............-
0001c6c0: b001 1c2e b001 1d2e b001 1f2e b001 202d  .............. -
0001c6d0: b001 212e b001 232e b001 242e b001 262d  ..!...#...$...&-
0001c6e0: b001 272e b001 282e b001 2a2e b001 2b2a  ..'...(...*...+*
0001c6f0: 8026 4300 8032 4300 9030 3200 9024 3203  .&C..2C..02..$2.
0001c700: b001 2c2e b001 2e2e b001 2f2e b001 302d  ..,......./...0-
0001c710: b001 322e b001 332e b001 342e b001 362d  ..2...3...4...6-
0001c720: b001 372e b001 392e b001 3a13 b001 3b2e  ..7...9...:...;.
0001c730: b001 3a2e b001 392d b001 382e b001 372e  ..:...9-..8...7.
0001c740: b001 362e b001 352d b001 342e b001 332e  ..6...5-..4...3.
0001c750: b001 322e b001 3116 8030 4d00 8024 4d00  ..2...1..0M..$M.
0001c760: 9022 3200 902e 3217 b001 302e b001 2f2e  ."2...2...0.../.
0001c770: b001 2e2e b001 2d2d b001 2c2e b001 2b2e  ......--..,...+.
0001c780: b001 2b2e b001 2a2d b001 292e b001 282e  ..+...*-..)...(.
0001c790: b001 272e b001 262d b001 252e b001 242e  ..'...&-..%...$.
0001c7a0: b001 232e b001 222d b001 212e b001 202e  ..#..."-..!... .
0001c7b0: b001 1f2e b001 1e2d b001 1d2e b001 1c2e  .......-........
0001c7c0: b001 1c2e b001 1b2d b001 1a2e b001 192e  .......-........
0001c7d0: b001 182e b001 172d b001 162e b001 152e  .......-........
0001c7e0: b001 142e b001 132d b001 122e b001 112e  .......-........
0001c7f0: b001 102e b001 0f2d b001 0e2e b001 0d2e  .......-........
0001c800: b001 0d2e b001 0c2d b001 0b2e b001 0a2e  .......-........
0001c810: b001 092e b001 082d b001 072e b001 062e  .......-........
0001c820: b001 052e b001 042d b001 032e b001 022e  .......-........
0001c830: b001 012e b001 002b b001 0083 6080 224d  .......+....`."M
0001c840: 0080 2e4d 83d8 4090 294b 8360 8029 4f81  ...M..@.)K.`.)O.
0001c850: 7090 1d59 8550 801d 4800 9029 4881 37b0  p..Y.P..H..)H.7.
0001c860: 0178 00b0 016b 2eb0 016c 2eb0 016c 2db0  .x...k...l...l-.
0001c870: 016d 2eb0 016d 2eb0 016d 2eb0 016e 1680  .m...m...m...n..
0001c880: 295b 0090 1d63 8550 801d 2a00 9029 6385  )[...c.P..*..)c.
0001c890: 5080 293c 0090 1d69 8360 801d 5900 902b  P.)<...i.`..Y..+
0001c8a0: 7783 6080 2b60 00ff 2f00 4d54 726b 0000  w.`.+`../.MTrk..
0001c8b0: 0022 00ff 010e 5346 2045 6e73 204c 6f6e  ."....SF Ens Lon
0001c8c0: 6720 4353 00b0 0b7f 00b0 077f 00b0 077f  g CS............
0001c8d0: 00ff 2f00 4d54 726b 0000 0c20 00ff 010e  ../.MTrk... ....
0001c8e0: 5346 2045 6e73 204c 6f6e 672b 4353 8360  SF Ens Long+CS.`
0001c8f0: b001 168f 00b0 077f 8930 b001 00a5 40b0  .........0....@.
0001c900: 0100 2eb0 0101 2eb0 0103 2db0 0104 2eb0  ..........-.....
0001c910: 0106 2eb0 0107 0b90 2001 0090 2c01 23b0  ........ ...,.#.
0001c920: 0109 2db0 010b 2eb0 010c 2eb0 010e 2eb0  ..-.............
0001c930: 010f 2db0 0111 2eb0 0112 2eb0 0114 2eb0  ..-.............
0001c940: 0116 2db0 0117 2eb0 0119 2eb0 011a 2eb0  ..-.............
0001c950: 011c 2bb0 011e 8132 b001 1f5d b001 203e  ..+....2...].. >
0001c960: 8020 3d00 802c 3d00 9022 0100 902e 0158  . =..,=..".....X
0001c970: b001 2167 b001 224b b001 2370 b001 2466  ..!g.."K..#p..$f
0001c980: 8022 4c00 802e 4c00 9023 1600 902f 160b  ."L...L..#.../..
0001c990: b001 252e b001 261d b001 271b b001 281d  ..%...&...'...(.
0001c9a0: b001 2954 b001 2a1c b001 2c1c b001 2d81  ..)T..*...,...-.
0001c9b0: 0cb0 012f 26b0 0130 2eb0 0131 2fb0 0132  .../&..0...1/..2
0001c9c0: 26b0 0133 1cb0 0134 1cb0 0135 1cb0 0136  &..3...4...5...6
0001c9d0: 2fb0 0137 25b0 0138 25b0 0139 39b0 013a  /..7%..8%..99..:
0001c9e0: 5db0 013c 0e80 233d 0080 2f3d 0090 300c  ]..<..#=../=..0.
0001c9f0: 0090 240c 3db0 013d 38b0 013e 8160 b001  ..$.=..=8..>.`..
0001ca00: 3f81 29b0 013e 8263 b001 3d5e b001 3c41  ?.)..>.c..=^..<A
0001ca10: b001 3b41 b001 3a4c b001 3981 16b0 0138  ..;A..:L..9....8
0001ca20: 5db0 0137 2eb0 0134 2eb0 0132 2eb0 0130  ]..7...4...2...0
0001ca30: 2db0 012e 2eb0 012b 2eb0 0129 2eb0 0127  -......+...)...'
0001ca40: 2db0 0125 2eb0 0123 2eb0 0120 2eb0 011e  -..%...#... ....
0001ca50: 2db0 011c 2eb0 011b 2eb0 011a 2eb0 0119  -...............
0001ca60: 2db0 0119 2eb0 0118 2eb0 0117 2eb0 0113  -...............
0001ca70: 2db0 0110 2eb0 010d 2eb0 010a 2eb0 0106  -...............
0001ca80: 2db0 0103 2eb0 0100 08b0 0100 2eb0 0105  -...............
0001ca90: 2280 3041 0080 2441 0cb0 010a 2db0 010f  ".0A..$A....-...
0001caa0: 2eb0 0115 2eb0 011a 2eb0 011f 2db0 0125  ............-..%
0001cab0: 0090 2e39 2eb0 012a 2eb0 012f 2eb0 0134  ...9...*.../...4
0001cac0: 2db0 013a 2eb0 013f 2eb0 0144 2eb0 014a  -..:...?...D...J
0001cad0: 07b0 014b 2db0 014b 2eb0 014b 2eb0 014b  ...K-..K...K...K
0001cae0: 2eb0 014b 2db0 014b 2eb0 014b 2eb0 014c  ...K-..K...K...L
0001caf0: 2eb0 014c 2db0 014c 2eb0 014c 2eb0 014c  ...L-..L...L...L
0001cb00: 2eb0 014c 1ab0 014d 2eb0 014e 2db0 014d  ...L...M...N-..M
0001cb10: 2eb0 014d 2eb0 014d 2eb0 014d 2db0 014d  ...M...M...M-..M
0001cb20: 2eb0 014c 2eb0 014c 2eb0 014c 2db0 014c  ...L...L...L-..L
0001cb30: 2eb0 014c 2280 2e41 0090 2a35 0090 3642  ...L"..A..*5..6B
0001cb40: 0cb0 014b 2eb0 014b 2db0 014b 2eb0 014b  ...K...K-..K...K
0001cb50: 2eb0 014b 2db0 014b 2eb0 0145 2eb0 0140  ...K-..K...E...@
0001cb60: 2db0 013b 2eb0 0135 2eb0 0130 2eb0 012b  -..;...5...0...+
0001cb70: 0bb0 012a 2eb0 012a 2db0 012b 2eb0 012b  ...*...*-..+...+
0001cb80: 2eb0 012c 2eb0 012c 2db0 012d 2eb0 012d  ...,...,-..-...-
0001cb90: 2eb0 012e 2eb0 012e 1680 2a29 0080 3606  ..........*)..6.
0001cba0: 0090 1f3f 0090 2b3f 17b0 012f 2eb0 012f  ...?..+?.../.../
0001cbb0: 2eb0 0130 2eb0 0130 2db0 0131 2eb0 0131  ...0...0-..1...1
0001cbc0: 2eb0 0132 2eb0 0132 2db0 0133 2eb0 0133  ...2...2-..3...3
0001cbd0: 2d80 1f3d 0080 2b3d 0090 223d 0090 2e3d  -..=..+=.."=...=
0001cbe0: 01b0 0134 2eb0 0134 2db0 0135 2eb0 0135  ...4...4-..5...5
0001cbf0: 2eb0 0136 2eb0 0136 2db0 0137 2eb0 0137  ...6...6-..7...7
0001cc00: 2eb0 0138 2eb0 0138 2db0 0139 1680 225f  ...8...8-..9.."_
0001cc10: 0080 2e5f 0090 263d 0090 323d 18b0 0139  ..._..&=..2=...9
0001cc20: 2eb0 013a 2eb0 013a 2db0 013b 2eb0 013b  ...:...:-..;...;
0001cc30: 2eb0 013c 2eb0 013c 2db0 013c 2eb0 013d  ...<...<-..<...=
0001cc40: 2eb0 013d 2c80 265f 0080 325f 0090 2b3d  ...=,.&_..2_..+=
0001cc50: 0090 373d 02b0 013e 2db0 013e 2eb0 013f  ..7=...>-..>...?
0001cc60: 2eb0 013f 2eb0 0140 2db0 0140 2eb0 0141  ...?...@-..@...A
0001cc70: 2eb0 0141 2eb0 0142 2db0 0142 2eb0 0143  ...A...B-..B...C
0001cc80: 2eb0 0143 2eb0 0144 2db0 0144 2eb0 0145  ...C...D-..D...E
0001cc90: 2eb0 0145 2eb0 0146 2db0 0146 2eb0 0147  ...E...F-..F...G
0001cca0: 2eb0 0147 2eb0 0148 2b80 2b5f 0080 375f  ...G...H+.+_..7_
0001ccb0: 0090 263d 0090 323d 02b0 0148 2eb0 0149  ..&=..2=...H...I
0001ccc0: 2eb0 0149 2eb0 014a 2db0 014a 2eb0 014b  ...I...J-..J...K
0001ccd0: 2eb0 014b 2eb0 014c 2db0 014c 2eb0 014d  ...K...L-..L...M
0001cce0: 2eb0 014d 2eb0 014e 2db0 014e 2eb0 014f  ...M...N-..N...O
0001ccf0: 2eb0 014f 2eb0 014f 1f80 265f 0080 325f  ...O...O..&_..2_
0001cd00: 0eb0 0150 2eb0 0150 2eb0 0151 2eb0 0151  ...P...P...Q...Q
0001cd10: 2db0 0152 2eb0 0152 2eb0 0153 2eb0 0153  -..R...R...S...S
0001cd20: 2db0 0154 2eb0 0154 2eb0 0155 2eb0 0155  -..T...T...U...U
0001cd30: 2db0 0156 2eb0 0156 2eb0 0157 2eb0 0157  -..V...V...W...W
0001cd40: 13b0 0158 b060 b001 142e b001 142e b001  ...X.`..........
0001cd50: 142d b001 142e b001 152e b001 152e b001  .-..............
0001cd60: 152d b001 162e b001 162e b001 162e b001  .-..............
0001cd70: 162d b001 172e b001 172e b001 172e b001  .-..............
0001cd80: 182d b001 182e b001 182e b001 182e b001  .-..............
0001cd90: 192d b001 192e b001 1916 b001 1f00 b001  .-..............
0001cda0: 2017 9054 0117 b001 202e b001 212e b001   ..T.... ...!...
0001cdb0: 212d b001 212e b001 2222 8054 3b00 9051  !-..!..."".T;..Q
0001cdc0: 0a0c b001 222e b001 232d b001 232e b001  ...."...#-..#...
0001cdd0: 232e b001 242e b001 242d b001 252e b001  #...$...$-..%...
0001cde0: 252e b001 2516 b001 262e b001 262e b001  %...%...&...&...
0001cdf0: 272d b001 272e b001 282e b001 292e b001  '-..'...(...)...
0001ce00: 292d b001 2a2e b001 2b2e b001 2b2e b001  )-..*...+...+...
0001ce10: 2c2d b001 2d2e b001 2d0b 8051 0100 904f  ,-..-...-..Q...O
0001ce20: 0123 b001 2e2d b001 2f2e b001 2f2e b001  .#...-../.../...
0001ce30: 2f2d b001 2f2e b001 302e b001 302e b001  /-../...0...0...
0001ce40: 302d b001 312e b001 312e b001 312e b001  0-..1...1...1...
0001ce50: 322d b001 322e b001 322e b001 332e b001  2-..2...2...3...
0001ce60: 332d b001 332e b001 342e b001 342e b001  3-..3...4...4...
0001ce70: 342d b001 352e b001 352e b001 352e b001  4-..5...5...5...
0001ce80: 362d b001 362e b001 3616 804f 3b00 b001  6-..6...6..O;...
0001ce90: 3700 9054 102e b001 362e b001 352d b001  7..T....6...5-..
0001cea0: 342e b001 342e b001 330b 8054 2b00 9051  4...4...3..T+..Q
0001ceb0: 1923 b001 322d b001 312e b001 312e b001  .#..2-..1...1...
0001cec0: 302e b001 2f2d b001 2e2e b001 2e2e b001  0.../-..........
0001ced0: 2d2e b001 2c2d b001 2b22 8051 0100 904f  -...,-..+".Q...O
0001cee0: 1c0c b001 2b2e b001 2a16 b001 2a2e b001  ....+...*...*...
0001cef0: 2a2e b001 2b2d b001 2b17 804f 2d00 904d  *...+-..+..O-..M
0001cf00: 0117 b001 2c2e b001 2d2e b001 2d2d b001  ....,...-...--..
0001cf10: 2e2e b001 2f2e b001 2f2e b001 302d b001  ..../.../...0-..
0001cf20: 312e b001 312e b001 322d 804d 5000 b001  1...1...2-.MP...
0001cf30: 3300 904f 282e b001 332e b001 342d b001  3..O(...3...4-..
0001cf40: 352e b001 352e b001 362e b001 372d b001  5...5...6...7-..
0001cf50: 372e b001 382e b001 392e b001 3916 804f  7...8...9...9..O
0001cf60: 3c00 b001 3a00 9056 132e b001 3a2e b001  <...:..V....:...
0001cf70: 3a2d b001 3a2e b001 3a2e b001 3a0b 8056  :-..:...:...:..V
0001cf80: 0400 9054 2d23 b001 3a2d b001 3a2e b001  ...T-#..:-..:...
0001cf90: 3a2e b001 3a2e b001 3a16 8054 4600 9059  :...:...:..TF..Y
0001cfa0: 2917 b001 3b2e b001 3b2e b001 3b2e b001  )...;...;...;...
0001cfb0: 3b2d b001 3b2e b001 3b2e b001 3b2e b001  ;-..;...;...;...
0001cfc0: 3b2d b001 3b2e b001 3b2d b001 3c2e b001  ;-..;...;-..<...
0001cfd0: 3b2e b001 3a2d b001 392e b001 392e b001  ;...:-..9...9...
0001cfe0: 380b 8059 5500 9058 3523 b001 372d b001  8..YU..X5#..7-..
0001cff0: 372e b001 362e b001 352e b001 3516 8058  7...6...5...5..X
0001d000: 4c00 9054 4117 b001 342e b001 332e b001  L..TA...4...3...
0001d010: 332e b001 322d b001 312e b001 312e b001  3...2-..1...1...
0001d020: 3016 b001 302e b001 2f2e b001 2e2d b001  0...0.../....-..
0001d030: 2d2e b001 2c2e b001 2c2e b001 2b2d b001  -...,...,...+-..
0001d040: 2a2e b001 292e b001 292e b001 2816 b001  *...)...)...(...
0001d050: 282e b001 282e b001 282d b001 2817 8054  (...(...(-..(..T
0001d060: 3000 9052 3500 904b 3517 b001 282e b001  0..R5..K5...(...
0001d070: 282e b001 282d b001 282e b001 2822 8052  (...(-..(...(".R
0001d080: 4c00 9051 010c b001 282e b001 282d b001  L..Q....(...(-..
0001d090: 282e b001 282e b001 282d 804b 4c00 8051  (...(...(-.KL..Q
0001d0a0: 4100 904f 0100 9048 0101 b001 282d b001  A..O...H....(-..
0001d0b0: 282e b001 282e b001 282e b001 282d b001  (...(...(...(-..
0001d0c0: 282e b001 282e b001 282e b001 282d b001  (...(...(...(-..
0001d0d0: 282e b001 282e b001 282e b001 282d b001  (...(...(...(-..
0001d0e0: 282e b001 282e b001 282e b001 282d b001  (...(...(...(-..
0001d0f0: 282e b001 282e b001 282e b001 282c 804f  (...(...(...(,.O
0001d100: 5f00 8048 5f01 b001 282e b001 282e b001  _..H_...(...(...
0001d110: 282e b001 282d b001 282e b001 280b b001  (...(-..(...(...
0001d120: 292e b001 2b2e b001 2d2e b001 302d b001  )...+...-...0-..
0001d130: 322e b001 350a 902e 0100 903c 2500 9035  2...5......<%..5
0001d140: 1500 903e 1524 b001 372e b001 392d b001  ...>.$..7...9-..
0001d150: 3c2e b001 3e2e b001 4115 803e 5500 9040  <...>...A..>U..@
0001d160: 4019 b001 432c b001 4643 b001 4768 8040  @...C,..FC..Gh.@
0001d170: 5200 9041 464f b001 4844 b001 4926 b001  R..AFO..HD..I&..
0001d180: 4a37 8041 4600 9043 4503 b001 4b1d b001  J7.AF..CE...K...
0001d190: 4c09 b001 4d1d b001 4e1d b001 4f1d b001  L...M...N...O...
0001d1a0: 501d b001 514d b001 5206 802e 3000 8043  P...QM..R...0..C
0001d1b0: 5900 902d 2b00 9041 3117 b001 5356 b001  Y..-+..A1...SV..
0001d1c0: 5482 7380 3c3e 0080 415b 0090 4842 0090  T.s.<>..A[..HB..
0001d1d0: 4040 3eb0 0155 4db0 0154 30b0 0153 3580  @@>..UM..T0..S5.
0001d1e0: 4052 0090 3c40 0fb0 0152 43b0 0151 1db0  @R..<@...RC..Q..
0001d1f0: 0150 13b0 014e 0ab0 014d 4db0 014c 1780  .P...N...MM..L..
0001d200: 2d58 0080 3c52 0080 4849 0090 2e2f 0090  -X..<R..HI.../..
0001d210: 3e46 0090 4a34 6fb0 014d 27b0 014e 26b0  >F..J4o..M'..N&.
0001d220: 014f 31b0 0150 0380 4a4b 0090 483f 2db0  .O1..P..JK..H?-.
0001d230: 0151 1db0 0152 26b0 0153 13b0 0154 3ab0  .Q...R&..S...T:.
0001d240: 0155 3380 355b 0080 4859 0090 370c 0090  .U3.5[..HY..7...
0001d250: 4d42 10b0 0156 8124 b001 5527 b001 5415  MB...V.$..U'..T.
0001d260: 804d 5f00 904c 592e b001 5343 b001 527f  .M_..LY...SC..R.
0001d270: 802e 3c00 803e 4600 9030 1e00 9040 376f  ..<..>F..0...@7o
0001d280: b001 5181 0180 3749 0090 3942 816c b001  ..Q...7I..9B.l..
0001d290: 5204 804c 5c00 8039 3b00 903a 4900 9048  R..L\..9;..:I..H
0001d2a0: 495e b001 5428 b001 556a 8040 0100 803a  I^..T(..Uj.@...:
0001d2b0: 5e00 903c 4900 9041 422e b001 547c b001  ^..<I..AB...T|..
0001d2c0: 551f b001 561f b001 5708 8048 5e00 8030  U...V...W..H^..0
0001d2d0: 4f00 803c 5e00 904d 3400 9039 1000 9032  O..<^..M4..9...2
0001d2e0: 3c0d b001 583f b001 592b b001 5a2a b001  <...X?..Y+..Z*..
0001d2f0: 5b2b b001 5c20 b001 5d04 8041 3b00 804d  [+..\ ..]..A;..M
0001d300: 4a00 9043 4900 904c 5153 b001 5e81 0fb0  J..CI..LQS..^...
0001d310: 015f 0e80 435e 0080 4c58 0090 4d49 0090  ._..C^..LX..MI..
0001d320: 5144 0090 4544 1fb0 0160 4eb0 0161 8103  QD..ED...`N..a..
0001d330: 804d 5e00 8045 4300 8051 4300 904f 4b00  .M^..EC..QC..OK.
0001d340: 904c 3900 9043 4b81 25b0 0160 4b80 3243  .L9..CK.%..`K.2C
0001d350: 00b0 015f 0090 3032 8170 8043 4100 9040  ..._..02.p.CA..@
0001d360: 441f b001 5e2b b001 5d21 b001 5c15 b001  D...^+..]!..\...
0001d370: 5b29 b001 5a29 b001 591e 804c 3f00 804f  [)..Z)..Y..L?..O
0001d380: 4100 9045 3900 904d 3f81 13b0 0158 1eb0  A..E9..M?....X..
0001d390: 0157 3eb0 0156 0180 453f 0080 4d48 00b0  .W>..V..E?..MH..
0001d3a0: 0155 0090 4339 0090 4c4e 2eb0 0153 2eb0  .U..C9..LN...S..
0001d3b0: 0152 2db0 0150 2eb0 014f 2eb0 014d 0b80  .R-..P...O...M..
0001d3c0: 304d 0080 4c51 0080 433f 0080 4043 0080  0M..LQ..C?..@C..
0001d3d0: 393f 0090 4a07 0090 2e12 0090 4639 0090  9?..J.......F9..
0001d3e0: 3526 0090 3e05 23b0 014c 2db0 014b 2eb0  5&..>.#..L-..K..
0001d3f0: 0149 17b0 0149 2eb0 0146 23b0 0143 2eb0  .I...I...F#..C..
0001d400: 0143 2db0 0144 2eb0 0144 2eb0 0145 2eb0  .C-..D...D...E..
0001d410: 0145 1580 463f 0090 4539 18b0 0146 2eb0  .E..F?..E9...F..
0001d420: 0146 2eb0 0147 2eb0 0147 2db0 0148 2eb0  .F...G...G-..H..
0001d430: 0148 2eb0 0149 8135 8045 3f00 9041 3981  .H...I.5.E?..A9.
0001d440: 4db0 014a 2eb0 0148 2eb0 0146 2db0 0144  M..J...H...F-..D
0001d450: 2eb0 0142 2eb0 0140 2e80 413f 00b0 013e  ...B...@..A?...>
0001d460: 0090 4339 2db0 013c 2eb0 013a 2eb0 0138  ..C9-..<...:...8
0001d470: 2eb0 0136 2db0 0134 2eb0 0132 2eb0 0131  ...6-..4...2...1
0001d480: 2eb0 012f 2db0 012d 2eb0 012b 2eb0 0129  .../-..-...+...)
0001d490: 2eb0 0127 2db0 0125 2eb0 0123 2eb0 0121  ...'-..%...#...!
0001d4a0: 2eb0 011f 2db0 011d 2eb0 011b 2eb0 0119  ....-...........
0001d4b0: 2eb0 0118 2db0 0116 2eb0 0114 2eb0 0112  ....-...........
0001d4c0: 2eb0 0110 2db0 010e 2eb0 010c 2eb0 010a  ....-...........
0001d4d0: 2eb0 0108 2db0 0106 2eb0 0104 2eb0 0102  ....-...........
0001d4e0: 1680 3e42 0080 433f 0080 3550 0080 4a3f  ..>B..C?..5P..J?
0001d4f0: 0080 2e42 00b0 0102 00ff 2f00 4d54 726b  ...B....../.MTrk
0001d500: 0000 1a0c 00ff 0110 5346 2045 6e73 2046  ........SF Ens F
0001d510: 6c61 7574 616e 646f 00b0 0b7f 00b0 077f  lautando........
0001d520: 00b0 077f 8360 b001 168b 20b0 0b7f 9168  .....`.... ....h
0001d530: b001 0212 b001 0313 b001 0413 b001 051b  ................
0001d540: b001 0626 b001 0782 04b0 0108 13b0 0109  ...&............
0001d550: 12b0 010a 13b0 010c 8123 9038 0100 9057  .........#.8...W
0001d560: 0100 9050 0a00 9053 0b81 52b0 010d 8129  ...P...S..R....)
0001d570: b001 0e25 b001 0f26 b001 104b b001 1154  ...%...&...K...T
0001d580: b001 1267 b001 1325 b001 1425 b001 1526  ...g...%...%...&
0001d590: b001 1641 b001 1713 b001 1813 b001 1925  ...A...........%
0001d5a0: b001 1a26 b001 1b1c b001 1c2e b001 1d13  ...&............
0001d5b0: b001 1e26 b001 2012 b001 2113 b001 2213  ...&.. ...!...".
0001d5c0: b001 2312 b001 2426 b001 2512 b001 261d  ..#...$&..%...&.
0001d5d0: b001 2713 b001 2812 b001 291c b001 2a13  ..'...(...)...*.
0001d5e0: b001 2b1c b001 2c1c b001 2d04 8038 0d00  ..+...,...-..8..
0001d5f0: 8053 0100 8057 3b00 9035 0100 9059 0100  .S...W;..5...Y..
0001d600: 9054 010f b001 2e1c b001 2f12 b001 3013  .T......../...0.
0001d610: b001 3126 b001 3312 b001 3413 b001 351c  ..1&..3...4...5.
0001d620: b001 360a b001 3712 b001 381c b001 3a13  ..6...7...8...:.
0001d630: b001 3b13 b001 3c12 b001 3d13 b001 3e1c  ..;...<...=...>.
0001d640: b001 401c b001 411c b001 422f b001 4413  ..@...A...B/..D.
0001d650: b001 4510 9048 340c b001 4638 b001 4713  ..E..H4...F8..G.
0001d660: b001 4812 b001 4913 b001 4a2f b001 4b4b  ..H...I...J/..KK
0001d670: b001 4a2d b001 482e b001 462e b001 442e  ..J-..H...F...D.
0001d680: b001 432d b001 4106 8048 5900 904d 3328  ..C-..A..HY..M3(
0001d690: b001 3f2e b001 3e2e b001 3c2d b001 3a2e  ..?...>...<-..:.
0001d6a0: b001 392e b001 372e b001 352d b001 332e  ..9...7...5-..3.
0001d6b0: b001 322e b001 302e b001 2e2d b001 2d2e  ..2...0....-..-.
0001d6c0: b001 2b2e b001 292e b001 282d b001 262e  ..+...)...(-..&.
0001d6d0: b001 242e b001 232e b001 212d b001 1f2e  ..$...#...!-....
0001d6e0: b001 1d2e b001 1c2e b001 1a2d b001 182e  ...........-....
0001d6f0: b001 172e b001 1510 8035 0100 804d 5300  .........5...MS.
0001d700: 8054 0100 8059 0100 8050 011e b001 132d  .T...Y...P.....-
0001d710: b001 122e b001 102e b001 0e2e b001 0d1b  ................
0001d720: b001 0c00 9020 0100 9057 0100 9053 1000  ..... ...W...S..
0001d730: 9050 0d00 902c 012e b001 0d2e b001 0e2d  .P...,.........-
0001d740: b001 0f2e b001 112e b001 122e b001 132d  ...............-
0001d750: b001 152e b001 162e b001 172e b001 192d  ...............-
0001d760: b001 1a2e b001 1b2e b001 1d20 b001 1e81  ........... ....
0001d770: 32b0 011f 5db0 0120 3e80 203d 0080 2c3d  2...].. >. =..,=
0001d780: 0090 2201 0090 2e01 58b0 0121 67b0 0122  ..".....X..!g.."
0001d790: 4bb0 0123 70b0 0124 6680 575b 0080 2e4c  K..#p..$f.W[...L
0001d7a0: 0080 224c 0090 2316 0090 4416 0090 4b0d  .."L..#...D...K.
0001d7b0: 0090 2f16 0bb0 0125 2eb0 0126 1db0 0127  ../....%...&...'
0001d7c0: 1bb0 0128 1db0 0129 54b0 012a 1cb0 012c  ...(...)T..*...,
0001d7d0: 1cb0 012d 810c b001 2f26 b001 302e b001  ...-..../&..0...
0001d7e0: 312f b001 3226 b001 331c b001 341c b001  1/..2&..3...4...
0001d7f0: 351c b001 362f b001 3725 b001 3825 b001  5...6/..7%..8%..
0001d800: 3939 b001 3a5d b001 3c0e 8053 4800 802f  99..:]..<..SH../
0001d810: 3d00 8050 3d00 8044 5100 8023 3d00 9043  =..P=..DQ..#=..C
0001d820: 1600 9024 0c00 9048 3c00 904f 3600 9030  ...$...H<..O6..0
0001d830: 0c3d b001 3d38 b001 3e81 60b0 013f 00b0  .=..=8..>.`..?..
0001d840: 013e 2eb0 013d 2eb0 013d 2db0 013d 0280  .>...=...=-..=..
0001d850: 4f3d 0090 542e 2cb0 013d 2eb0 013d 2eb0  O=..T.,..=...=..
0001d860: 013d 2db0 013d 2eb0 013d 2eb0 013d 2eb0  .=-..=...=...=..
0001d870: 013d 2db0 013d 15b0 013d 5eb0 013c 0180  .=-..=...=^..<..
0001d880: 4351 0080 4840 0090 5b2e 0090 4f2e 40b0  CQ..H@..[...O.@.
0001d890: 013b 41b0 013a 4cb0 0139 8116 b001 385d  .;A..:L..9....8]
0001d8a0: b001 372e b001 352e b001 342e b001 332d  ..7...5...4...3-
0001d8b0: b001 322e b001 312e b001 302e b001 2d2d  ..2...1...0...--
0001d8c0: b001 2b2e b001 292e b001 272e b001 252d  ..+...)...'...%-
0001d8d0: b001 232e b001 212e b001 1f2e b001 1d2d  ..#...!........-
0001d8e0: b001 1b2e b001 192e b001 172e b001 152d  ...............-
0001d8f0: b001 132e b001 0f2e b001 0c2e b001 092d  ...............-
0001d900: b001 052e b001 032e b001 012a 8030 4100  ...........*.0A.
0001d910: 804f 1000 805b 1000 804b 3d00 8024 4100  .O...[...K=..$A.
0001d920: 8054 1000 b001 002e b001 032e b001 062d  .T.............-
0001d930: b001 092e b001 0d2e b001 100b 902e 3900  ..............9.
0001d940: 904e 4000 9057 3f00 904b 4100 9052 3f23  .N@..W?..KA..R?#
0001d950: b001 132d b001 172e b001 1a2e b001 1d2e  ...-............
0001d960: b001 202d b001 242e b001 272e b001 2a2b  .. -..$...'...*+
0001d970: b001 2e2e b001 302d b001 332e b001 362b  ......0-..3...6+
0001d980: b001 392e b001 3b2e b001 3e2d b001 402e  ..9...;...>-..@.
0001d990: b001 422e b001 442e b001 472d b001 492e  ..B...D...G-..I.
0001d9a0: b001 4b10 8057 5000 8052 5000 9042 4200  ..K..WP..RP..BB.
0001d9b0: 9046 2e1e b001 4e2e b001 502d b001 522e  .F....N...P-..R.
0001d9c0: b001 542e b001 572e b001 592d b001 5b2e  ..T...W...Y-..[.
0001d9d0: b001 5e2e b001 602e b001 6226 804e 3500  ..^...`...b&.N5.
0001d9e0: 802e 4100 902a 3500 9036 4207 b001 642e  ..A..*5..6B...d.
0001d9f0: b001 672e b001 692e b001 6b06 b001 6c3f  ..g...i...k...l?
0001da00: b001 6c81 13b0 016c 32b0 016b 5eb0 016a  ..l....l2..k^..j
0001da10: 1cb0 0169 1cb0 0168 12b0 0166 13b0 0165  ...i...h...f...e
0001da20: 09b0 0164 0ab0 0163 09b0 0162 09b0 0161  ...d...c...b...a
0001da30: 13b0 0160 09b0 015f 0ab0 015e 09b0 015d  ...`..._...^...]
0001da40: 0ab0 015c 09b0 015b 13b0 0159 09b0 0158  ...\...[...Y...X
0001da50: 13b0 0157 09b0 0156 0ab0 0154 09b0 0153  ...W...V...T...S
0001da60: 09b0 0151 09b0 0150 0ab0 014f 09b0 014d  ...Q...P...O...M
0001da70: 0ab0 014c 09b0 014b 09b0 0149 0ab0 0148  ...L...K...I...H
0001da80: 09b0 0147 09b0 0146 0ab0 0145 09b0 0143  ...G...F...E...C
0001da90: 09b0 0142 0ab0 0140 09b0 013f 0ab0 013e  ...B...@...?...>
0001daa0: 09b0 013d 09b0 013c 0ab0 0127 0680 4206  ...=...<...'..B.
0001dab0: 0080 3606 0080 2a29 0080 4b34 0090 1f3f  ..6...*)..K4...?
0001dac0: 0090 4342 0090 4a31 0090 2b3f 0090 3e2a  ..CB..J1..+?..>*
0001dad0: 03b0 0125 09b0 0123 0ab0 0122 2db0 011e  ...%...#..."-...
0001dae0: 2eb0 011a 14b0 0119 2eb0 011b 2eb0 011d  ................
0001daf0: 0fb0 011e 2eb0 011f 2eb0 0120 2db0 0122  ........... -.."
0001db00: 2eb0 0125 00b0 0125 2eb0 0129 0b80 1f3d  ...%...%...)...=
0001db10: 0080 2b3d 0090 223d 0090 4f42 0090 2e3d  ..+=.."=..OB...=
0001db20: 23b0 012d 2db0 0131 2eb0 0135 2eb0 0139  #..--..1...5...9
0001db30: 2eb0 013d 2db0 0141 2eb0 0145 2eb0 0149  ...=-..A...E...I
0001db40: 2eb0 014d 2db0 0151 2280 3e01 0080 225f  ...M-..Q".>..."_
0001db50: 0080 2e5f 00b0 0155 0090 263d 0090 5243  ..._...U..&=..RC
0001db60: 0090 323d 2eb0 0154 2eb0 0153 2db0 0153  ..2=...T...S-..S
0001db70: 2eb0 0152 2eb0 0152 2eb0 0151 2db0 0151  ...R...R...Q-..Q
0001db80: 2eb0 0150 2eb0 0150 1cb0 0150 2880 4306  ...P...P...P(.C.
0001db90: 0080 463d 0080 265f 0080 325f 0090 2b3d  ..F=..&_..2_..+=
0001dba0: 0090 5643 0090 373d 06b0 014e 2eb0 014d  ..VC..7=...N...M
0001dbb0: 2eb0 014b 2db0 014a 2eb0 0148 2eb0 0147  ...K-..J...H...G
0001dbc0: 2eb0 0146 2db0 0144 2eb0 0143 2eb0 0141  ...F-..D...C...A
0001dbd0: 2eb0 0140 1080 4a1e 0080 5268 0080 5668  ...@..J...Rh..Vh
0001dbe0: 0080 4f60 00b0 0140 0090 5b43 2eb0 0141  ..O`...@..[C...A
0001dbf0: 2eb0 0144 2db0 0147 2eb0 014a 2eb0 014d  ...D-..G...J...M
0001dc00: 2eb0 0150 2db0 0153 27b0 0156 2eb0 0157  ...P-..S'..V...W
0001dc10: 2eb0 0157 1d80 2b5f 0080 5b68 0080 375f  ...W..+_..[h..7_
0001dc20: 0090 5e43 0090 323d 0090 263d 0090 5e43  ..^C..2=..&=..^C
0001dc30: 10b0 0158 2eb0 0159 2eb0 015a 2eb0 015b  ...X...Y...Z...[
0001dc40: 2db0 015c 2eb0 015c 2eb0 015d 2eb0 015e  -..\...\...]...^
0001dc50: 2db0 015f 18b0 0160 823a 805e 6800 805e  -.._...`.:.^h..^
0001dc60: 6800 8026 5f00 8032 5f8f 00b0 0160 2eb0  h..&_..2_....`..
0001dc70: 015d 2eb0 015b 2db0 0159 2eb0 0157 2eb0  .]...[-..Y...W..
0001dc80: 0155 2eb0 0153 2db0 0151 2eb0 014f 2eb0  .U...S-..Q...O..
0001dc90: 014d 2eb0 014b 16b0 014a 9830 b001 002e  .M...K...J.0....
0001dca0: b001 002e b001 002d b001 012e b001 012e  .......-........
0001dcb0: b001 022e b001 022d b001 032e b001 032e  .......-........
0001dcc0: b001 032e b001 0416 b00b 5317 b001 042e  ..........S.....
0001dcd0: b001 052e b001 052e b001 062d b001 062e  ...........-....
0001dce0: b001 072e b001 072e b001 072d b001 082e  ...........-....
0001dcf0: b001 082d 9041 1001 b001 092e b001 092d  ...-.A.........-
0001dd00: b001 0a2e b001 0a2e b001 0a2e b001 0b2d  ...............-
0001dd10: b001 0b2e b001 0c2e b001 0c2e b001 0d2d  ...............-
0001dd20: b001 0d2e b001 0e2e b001 0e2e b001 0e2d  ...............-
0001dd30: b001 0f2e b001 0f2e b001 102e b001 102d  ...............-
0001dd40: b001 112e b001 112e b001 112e b001 122d  ...............-
0001dd50: b001 122e b001 132e b001 132e b001 142d  ...............-
0001dd60: b001 142e b001 152e b001 152e b001 152d  ...............-
0001dd70: b001 162e b001 1615 9054 0100 9048 0119  .........T...H..
0001dd80: b001 172e b001 172d b001 182e b001 182e  .......-........
0001dd90: b001 1820 8054 3b00 9051 0a0e b001 192d  ... .T;..Q.....-
0001dda0: b001 192e b001 1a2e b001 1a2e b001 1b2d  ...............-
0001ddb0: b001 1b2c b001 1c2e b001 1c2d b001 1c2e  ...,.......-....
0001ddc0: b001 1c2e b001 1c2e b001 1b2d b001 1b2e  ...........-....
0001ddd0: b001 1b2e b001 1b2e b001 1b16 b00b 5318  ..............S.
0001dde0: b001 1a2e b001 1a2e b001 1a2e b001 1a30  ...............0
0001ddf0: b001 1a1e 8048 0100 8051 0100 904f 0100  .....H...Q...O..
0001de00: 904a 0105 b001 1a2f b001 1a30 b001 1b31  .J...../...0...1
0001de10: b001 1c31 b001 1c32 b001 1b2d b001 192e  ...1...2...-....
0001de20: b001 182e b001 172e b001 152d b001 142e  ...........-....
0001de30: b001 132e b001 122e b001 102d b001 0f2e  ...........-....
0001de40: b001 0e2e b001 0c2e b001 0b2d b001 0a2e  ...........-....
0001de50: b001 092e b001 071a b001 072e b001 092e  ................
0001de60: b001 0b2d b001 0e2e b001 0e2e b001 0f0b  ...-............
0001de70: 804f 3b00 804a 0100 9048 0100 9054 1023  .O;..J...H...T.#
0001de80: b001 102d b001 112e b001 112e b001 122e  ...-............
0001de90: b001 1316 8054 2b00 9051 1917 b001 142e  .....T+..Q......
0001dea0: b001 142e b001 152e b001 162d b001 172e  ...........-....
0001deb0: b001 182e b001 182e b001 192d b001 1a2e  ...........-....
0001dec0: b001 1b2d 8051 0100 904f 1c01 b001 1b04  ...-.Q...O......
0001ded0: b001 1c2e b001 1b2d b001 1a2e b001 1a2e  .......-........
0001dee0: b001 192e b001 1806 8048 3b00 804f 2d00  .........H;..O-.
0001def0: 904d 0100 904a 0127 b001 182e b001 172e  .M...J.'........
0001df00: b001 172e b001 162d b001 152e b001 152e  .......-........
0001df10: b001 1426 b001 142d b001 142e b001 1425  ...&...-.......%
0001df20: 804d 5000 904f 2809 b001 142e b001 142d  .MP..O(........-
0001df30: b001 152e b001 162e b001 162e b001 172d  ...............-
0001df40: b001 182e b001 192e b001 192e b001 1a2d  ...............-
0001df50: b001 1b0e 8041 3600 804f 3c00 9046 0700  .....A6..O<..F..
0001df60: 904d 1000 9056 1320 b001 1b2e b001 1c2e  .M...V. ........
0001df70: b001 1d2d b001 1e2e b001 1e19 8056 0400  ...-.........V..
0001df80: 9054 2d15 b001 1f2e b001 202d b001 202e  .T-....... -.. .
0001df90: b001 212e b001 2224 8054 4600 9059 290a  ..!..."$.TF..Y).
0001dfa0: b001 232d b001 232e b001 242e b001 252e  ..#-..#...$...%.
0001dfb0: b001 252d b001 262e b001 272e b001 282e  ..%-..&...'...(.
0001dfc0: b001 282d b001 292e b001 2a0d 804a 3c00  ..(-..)...*..J<.
0001dfd0: 8046 3b00 804d 3600 9045 0d00 9048 0700  .F;..M6..E...H..
0001dfe0: 9040 0b21 b001 2a2e b001 2b16 b001 2c2e  .@.!..*...+...,.
0001dff0: b001 2a2e b001 282e b001 2701 8059 5500  ..*...(...'..YU.
0001e000: 9058 352c b001 252e b001 242e b001 222e  .X5,..%...$...".
0001e010: b001 212d b001 1f0d 8058 4c00 9054 4121  ..!-.....XL..TA!
0001e020: b001 1e2e b001 1c2e b001 1b2d b001 192e  ...........-....
0001e030: b001 1802 b001 182e b001 182d b001 182e  ...........-....
0001e040: b001 182e b001 192e b001 1921 8045 4b00  ...........!.EK.
0001e050: 8040 5000 8048 1200 903f 0100 9046 0100  .@P..H...?...F..
0001e060: 9043 010c b001 192e b001 1a2e b001 1a2e  .C..............
0001e070: b001 1a00 b001 1b2e b001 1b2e b001 1c2e  ................
0001e080: b001 1d2d b001 1d2e b001 1e2e b001 1f2e  ...-............
0001e090: b001 1f09 8054 3000 9052 3500 904b 3524  .....T0..R5..K5$
0001e0a0: b001 202e b001 212e b001 212e b001 222d  .. ...!...!..."-
0001e0b0: b001 2315 8052 4c00 9051 0119 b001 232e  ..#..RL..Q....#.
0001e0c0: b001 242e b001 252d b001 252e b001 2620  ..$...%-..%...& 
0001e0d0: 804b 4c00 8051 4100 803f 6300 8046 3b00  .KL..QA..?c..F;.
0001e0e0: 904f 0100 9048 0100 9040 1a0e b001 272e  .O...H...@....'.
0001e0f0: b001 272d b001 281a b001 2986 3d80 435f  ..'-..(...).=.C_
0001e100: 0080 405f 0080 485f 0080 4f5f fb60 b00b  ..@_..H_..O_.`..
0001e110: 532e b00b 4e2e b00b 4a2d b00b 462e b00b  S...N...J-..F...
0001e120: 422e b00b 3e2e b00b 3a2d b00b 362e b00b  B...>...:-..6...
0001e130: 322e b00b 2e2e b00b 2b2d b00b 282e b00b  2.......+-..(...
0001e140: 252e b00b 232e b00b 202d b00b 1d2e b00b  %...#... -......
0001e150: 1b2e b00b 182e b00b 152d b00b 132e b00b  .........-......
0001e160: 102d b001 0001 b00b 0d2e b00b 0b2d b00b  .-...........-..
0001e170: 082e b00b 052e b00b 032e b00b 000a b00b  ................
0001e180: 0081 7090 4601 a540 b001 00b5 35b0 0100  ..p.F..@....5...
0001e190: 826b b001 002e b001 002e b001 002d b001  .k...........-..
0001e1a0: 012e b001 012e b001 012e b001 022d b001  .............-..
0001e1b0: 022e b001 022e b001 032e b001 0322 b00b  ............."..
0001e1c0: 000b b001 0323 b00b 000b b001 0423 b00b  .....#.......#..
0001e1d0: 000b b001 0422 b00b 000c b001 0422 b00b  ....."......."..
0001e1e0: 000b b001 0523 b00b 010b b001 0523 b00b  .....#.......#..
0001e1f0: 010b b001 0522 b00b 010c b001 0622 b00b  ....."......."..
0001e200: 010b b001 0623 b00b 020b b001 0623 b00b  .....#.......#..
0001e210: 020a 903a 0101 b001 0722 b00b 020c b001  ...:....."......
0001e220: 0722 b00b 020b b001 0723 b00b 030b b001  .".......#......
0001e230: 0823 b00b 030b b001 0822 b00b 030c b001  .#......."......
0001e240: 0822 b00b 030b b001 0923 b00b 040b b001  .".......#......
0001e250: 0923 b00b 040b b001 0922 b00b 040c b001  .#......."......
0001e260: 0a22 b00b 040b b001 0a23 b00b 050b b001  .".......#......
0001e270: 0a23 b00b 050b b001 0b22 b00b 050c b001  .#......."......
0001e280: 0b22 b00b 050b b001 0b23 b00b 060b b001  .".......#......
0001e290: 0c23 b00b 060b b001 0c22 b00b 060c b001  .#......."......
0001e2a0: 0c22 b00b 060b b001 0d23 b00b 070b b001  .".......#......
0001e2b0: 0d23 b00b 070b b001 0d22 b00b 070c b001  .#......."......
0001e2c0: 0e22 b00b 070b b001 0e23 b00b 080b b001  .".......#......
0001e2d0: 0e23 b00b 080b b001 0f22 b00b 080c b001  .#......."......
0001e2e0: 0f22 b00b 080b b001 0f23 b00b 090b b001  .".......#......
0001e2f0: 0f23 b00b 090b b001 0f22 b00b 090c b001  .#......."......
0001e300: 0f22 b00b 090b b001 0f23 b00b 0a0b b001  .".......#......
0001e310: 0f23 b00b 0a0b b001 0f22 b00b 0a0c b001  .#......."......
0001e320: 1022 b00b 0a0b b001 1023 b00b 0b0b b001  .".......#......
0001e330: 1023 b00b 0b0b b001 1122 b00b 0b0c b001  .#......."......
0001e340: 1122 b00b 0b0b b001 1123 b00b 0c0b b001  .".......#......
0001e350: 1123 b00b 0c0b b001 1122 b00b 0c0c b001  .#......."......
0001e360: 1222 b00b 0c0b b001 1223 b00b 0d0b b001  .".......#......
0001e370: 1223 b00b 0d0b b001 1322 b00b 0d0c b001  .#......."......
0001e380: 1322 b00b 0d0b b001 1323 b00b 0e0b b001  .".......#......
0001e390: 1423 b00b 0e0b b001 1422 b00b 0e0c b001  .#......."......
0001e3a0: 1522 b00b 0e0b b001 1523 b00b 0f0b b001  .".......#......
0001e3b0: 1523 b00b 0f0b b001 1622 b00b 0f0c b001  .#......."......
0001e3c0: 1622 b00b 0f0b b001 1623 b00b 100b b001  .".......#......
0001e3d0: 1723 b00b 100b b001 1722 b00b 100c b001  .#......."......
0001e3e0: 1722 b00b 100b b001 1723 b00b 110b b001  .".......#......
0001e3f0: 1723 b00b 110b b001 1722 b00b 110c b001  .#......."......
0001e400: 1822 b00b 110b b001 1823 b00b 120b b001  .".......#......
0001e410: 1823 b00b 120b b001 1822 b00b 120c b001  .#......."......
0001e420: 1822 b00b 120b b001 1823 b00b 130b b001  .".......#......
0001e430: 1923 b00b 130b b001 191b b007 7f07 b00b  .#..............
0001e440: 130c b001 1922 b00b 130b b001 1923 b00b  .....".......#..
0001e450: 140b b001 1a23 b00b 140b b001 1a22 b00b  .....#......."..
0001e460: 140c b001 1a22 b00b 140b b001 1b23 b00b  .....".......#..
0001e470: 150b b001 1b23 b00b 150b b001 1b22 b00b  .....#......."..
0001e480: 150c b001 1b22 b00b 150b b001 1c23 b00b  .....".......#..
0001e490: 150b b001 1c23 b00b 160b b001 1c22 b00b  .....#......."..
0001e4a0: 160c b001 1d22 b00b 160b b001 1d23 b00b  .....".......#..
0001e4b0: 160b b001 1d23 b00b 170b b001 1d22 b00b  .....#......."..
0001e4c0: 170c b001 1e22 b00b 170b b001 1e23 b00b  .....".......#..
0001e4d0: 170b b001 1e23 b00b 180b b001 1f22 b00b  .....#......."..
0001e4e0: 180c b001 1f22 b00b 180b b001 1f23 b00b  .....".......#..
0001e4f0: 180b b001 1f23 b00b 190b b001 2022 b00b  .....#...... "..
0001e500: 190c b001 2022 b00b 190b b001 2023 b00b  .... "...... #..
0001e510: 190b b001 2023 b00b 1a0b b001 2122 b00b  .... #......!"..
0001e520: 1a0c b001 2122 b00b 1a0b b001 2123 b00b  ....!"......!#..
0001e530: 1a0b b001 2223 b00b 1b0b b001 2222 b00b  ...."#......""..
0001e540: 1b0c b001 2222 b007 7f00 b00b 1b0b b001  ....""..........
0001e550: 2223 b00b 1b0b b001 2323 b00b 1c0b b001  "#......##......
0001e560: 2322 b00b 1c0c b001 2322 b00b 1c0b b001  #"......#"......
0001e570: 2423 b00b 1c0b b001 2423 b00b 1d0b b001  $#......$#......
0001e580: 2422 b00b 1d0c b001 2422 b00b 1d0b b001  $"......$"......
0001e590: 2523 b00b 1d0b b001 2523 b00b 1e0b b001  %#......%#......
0001e5a0: 2522 b00b 1e0c b001 2622 b00b 1e0b b001  %"......&"......
0001e5b0: 2623 b00b 1e0b b001 2623 b00b 1f0b b001  &#......&#......
0001e5c0: 2622 b00b 1f0c b001 2722 b00b 1f0b b001  &"......'"......
0001e5d0: 2723 b00b 1f0b b001 2723 b00b 200b b001  '#......'#.. ...
0001e5e0: 2722 b00b 200c b001 2822 b00b 200b b001  '".. ...(".. ...
0001e5f0: 2823 b00b 200b b001 2823 b00b 210b b001  (#.. ...(#..!...
0001e600: 2922 b00b 210c b001 2922 b00b 210b b001  )"..!...)"..!...
0001e610: 2923 b00b 210b b001 2923 b00b 220b b001  )#..!...)#.."...
0001e620: 2a22 b00b 220c b001 2a22 b00b 220b b001  *".."...*".."...
0001e630: 2a23 b00b 220b b001 2b23 b00b 230b b001  *#.."...+#..#...
0001e640: 2b22 b00b 230c b001 2b22 b00b 230b b001  +"..#...+"..#...
0001e650: 2b23 b00b 230b b001 2c23 b00b 240b b001  +#..#...,#..$...
0001e660: 2c22 b00b 240c b001 2c22 b00b 240b b001  ,"..$...,"..$...
0001e670: 2d23 b00b 240b b001 2d23 b00b 250b b001  -#..$...-#..%...
0001e680: 2d22 b00b 250c b001 2d22 b00b 250b b001  -"..%...-"..%...
0001e690: 2e23 b00b 250b b001 2e23 b00b 260b b001  .#..%....#..&...
0001e6a0: 2e22 b00b 260c b001 2f22 b00b 260b b001  ."..&.../"..&...
0001e6b0: 2f23 b00b 260b b001 2f23 b00b 270b b001  /#..&.../#..'...
0001e6c0: 2f22 b00b 270c b001 3022 b00b 270b b001  /"..'...0"..'...
0001e6d0: 2f23 b00b 270b b001 2f23 b00b 280b b001  /#..'.../#..(...
0001e6e0: 2f22 b00b 280c b001 2f22 b00b 280b b001  /"..(.../"..(...
0001e6f0: 2f23 b00b 280b b001 2f23 b00b 290b b001  /#..(.../#..)...
0001e700: 2f22 b00b 290c b001 2f22 b00b 290b b001  /"..).../"..)...
0001e710: 2f23 b00b 290b b001 2f23 b00b 2a0b b001  /#..).../#..*...
0001e720: 2f22 b00b 2a0c b001 2e22 b00b 2a0b b001  /"..*...."..*...
0001e730: 2e23 b00b 2a0b b001 2e23 b00b 2a0b b001  .#..*....#..*...
0001e740: 2e22 b00b 2b0c b001 2e22 b00b 2b0b b001  ."..+...."..+...
0001e750: 2e23 b00b 2b0b b001 2e23 b00b 2b04 b00b  .#..+....#..+...
0001e760: 2c07 b001 2e27 b00b 2b07 b001 2e27 b00b  ,....'..+....'..
0001e770: 2b06 b001 2e27 b00b 2b07 b001 2e27 b00b  +....'..+....'..
0001e780: 2b07 b001 2d27 b00b 2a07 b001 2d27 b00b  +...-'..*...-'..
0001e790: 2a06 b001 2d27 b00b 2907 b001 2d27 b00b  *...-'..)...-'..
0001e7a0: 2907 b001 2d27 b00b 2807 b001 2d27 b00b  )...-'..(...-'..
0001e7b0: 2806 b001 2d27 b00b 2807 b001 2d27 b00b  (...-'..(...-'..
0001e7c0: 2707 b001 2d27 b00b 2707 b001 2d27 b00b  '...-'..'...-'..
0001e7d0: 2606 b001 2d27 b00b 2607 b001 2c27 b00b  &...-'..&...,'..
0001e7e0: 2507 b001 2c27 b00b 2507 b001 2c27 b00b  %...,'..%...,'..
0001e7f0: 2506 b001 2c27 b00b 2407 b001 2c27 b00b  %...,'..$...,'..
0001e800: 2407 b001 2c27 b00b 2307 b001 2c27 b00b  $...,'..#...,'..
0001e810: 2306 b001 2c27 b00b 2207 b001 2c27 b00b  #...,'.."...,'..
0001e820: 2207 b001 2c27 b00b 2207 b001 2c27 b00b  "...,'.."...,'..
0001e830: 2106 b001 2c04 b001 2c23 b00b 210b b001  !...,...,#..!...
0001e840: 2b23 b00b 200b b001 2a23 b00b 200a b001  +#.. ...*#.. ...
0001e850: 2a24 b00b 1f0a b001 2923 b00b 1f0b b001  *$......)#......
0001e860: 2923 b00b 1f0b b001 2823 b00b 1e0a b001  )#......(#......
0001e870: 2824 b00b 1e0a b001 2723 b00b 1d0b b001  ($......'#......
0001e880: 2723 b00b 1d0b b001 2623 b00b 1c0a b001  '#......&#......
0001e890: 2624 b00b 1c0a b001 2523 b00b 1c0b b001  &$......%#......
0001e8a0: 2523 b00b 1b0b b001 2423 b00b 1b0a b001  %#......$#......
0001e8b0: 2424 b00b 1a0a b001 2323 b00b 1a0b b001  $$......##......
0001e8c0: 2323 b00b 190b b001 2223 b00b 190a b001  ##......"#......
0001e8d0: 2224 b00b 190a b001 2123 b00b 180b b001  "$......!#......
0001e8e0: 2023 b00b 180b b001 2023 b00b 170a b001   #...... #......
0001e8f0: 1f24 b00b 170a b001 1f23 b00b 160b b001  .$.......#......
0001e900: 1e23 b00b 160b b001 1e23 b00b 160a b001  .#.......#......
0001e910: 1d24 b00b 150a b001 1d23 b00b 150b b001  .$.......#......
0001e920: 1c23 b00b 140b b001 1c23 b00b 140a b001  .#.......#......
0001e930: 1b24 b00b 130a b001 1b23 b00b 130b b001  .$.......#......
0001e940: 1a23 b00b 130b b001 1a23 b00b 120a b001  .#.......#......
0001e950: 1924 b00b 120a b001 1923 b00b 110b b001  .$.......#......
0001e960: 1823 b00b 110b b001 1823 b00b 110a b001  .#.......#......
0001e970: 1724 b00b 100a b001 1723 b00b 100b b001  .$.......#......
0001e980: 1623 b00b 0f0b b001 1523 b00b 0f0a b001  .#.......#......
0001e990: 1524 b00b 0e0a b001 1423 b00b 0e0b b001  .$.......#......
0001e9a0: 1423 b00b 0e0b b001 1323 b00b 0d0a b001  .#.......#......
0001e9b0: 1324 b00b 0d0a b001 1223 b00b 0c0b b001  .$.......#......
0001e9c0: 1223 b00b 0c0b b001 1123 b00b 0b0a b001  .#.......#......
0001e9d0: 1124 b00b 0b0a b001 1023 b00b 0b0b b001  .$.......#......
0001e9e0: 1023 b00b 0a0b b001 0f23 b00b 0a0a b001  .#.......#......
0001e9f0: 0f24 b00b 090a b001 0e23 b00b 090b b001  .$.......#......
0001ea00: 0e23 b00b 080b b001 0d23 b00b 080a b001  .#.......#......
0001ea10: 0d24 b00b 080a b001 0c23 b00b 070b b001  .$.......#......
0001ea20: 0c23 b00b 070b b001 0b23 b00b 060a b001  .#.......#......
0001ea30: 0a24 b00b 060a b001 0a23 b00b 050b b001  .$.......#......
0001ea40: 0923 b00b 050b b001 0923 b00b 050a b001  .#.......#......
0001ea50: 0824 b00b 040a b001 0823 b00b 040b b001  .$.......#......
0001ea60: 0723 b00b 030b b001 0723 b00b 030a b001  .#.......#......
0001ea70: 0624 b00b 020a b001 0623 b00b 020b b001  .$.......#......
0001ea80: 0523 b00b 020b b001 0523 b00b 010a b001  .#.......#......
0001ea90: 0424 b00b 010a b001 0423 b00b 000b b001  .$.......#......
0001eaa0: 0323 b00b 000b b001 031f 8046 6500 803a  .#.........Fe..:
0001eab0: 6500 b00b 000e b001 022e b001 022e b001  e...............
0001eac0: 012e b001 012d b001 002b b001 0091 6eb0  .....-...+....n.
0001ead0: 077f 85e5 42b0 0100 8834 b007 7f8b 0cb0  ....B....4......
0001eae0: 077f 8a40 b001 002e b001 002e b001 002d  ...@...........-
0001eaf0: b001 012e b001 012e b001 022e b001 022d  ...............-
0001eb00: b001 032e b001 032e b001 042e b001 042d  ...............-
0001eb10: b001 052e b001 052e b001 052e b001 062d  ...............-
0001eb20: b001 062e b001 072e b001 072e b001 082d  ...............-
0001eb30: b001 082e b001 092d b00b 2901 b001 092d  .......-..)....-
0001eb40: b00b 2901 b001 0a2d b001 0a00 b00b 2a2d  ..)....-......*-
0001eb50: b00b 2b01 b001 0b2d b00b 2c01 b001 0b2d  ..+....-..,....-
0001eb60: b00b 2d01 b001 0b2d b001 0c00 b00b 2e2d  ..-....-.......-
0001eb70: b00b 2f01 b001 0c2d b00b 2f01 b001 0d2d  ../....-../....-
0001eb80: b00b 3001 b001 0d2d b001 0e00 b00b 312d  ..0....-......1-
0001eb90: b00b 3201 b001 0e2d b00b 3301 b001 0f2d  ..2....-..3....-
0001eba0: b00b 3401 b001 0f2d b001 1000 b00b 352d  ..4....-......5-
0001ebb0: b00b 3501 b001 102d b00b 3601 b001 112d  ..5....-..6....-
0001ebc0: b00b 3701 b001 112d b001 1100 b00b 382d  ..7....-......8-
0001ebd0: b00b 3901 b001 122d b00b 3a01 b001 122d  ..9....-..:....-
0001ebe0: b00b 3b01 b001 132d b001 1300 b00b 3b2d  ..;....-......;-
0001ebf0: b00b 3c01 b001 142d b00b 3d01 b001 142d  ..<....-..=....-
0001ec00: b00b 3e01 b001 152d b001 1500 b00b 3f2d  ..>....-......?-
0001ec10: b00b 4001 b001 162d b00b 4101 b001 162d  ..@....-..A....-
0001ec20: b00b 4101 b001 172d b001 1700 b00b 422d  ..A....-......B-
0001ec30: b00b 4301 b001 1715 b00b 4400 901f 1400  ..C.......D.....
0001ec40: 902b 0900 903e 0e00 9043 1800 903b 0119  .+...>...C...;..
0001ec50: b001 182e b001 182d b001 192e b001 192e  .......-........
0001ec60: b001 1a2e b001 1a2d b001 1b2e b001 1b2e  .......-........
0001ec70: b001 1c2e b001 1c2d b001 1c2e b001 1c2e  .......-........
0001ec80: b001 1c2e b001 1d2d b001 1d2e b001 1d2e  .......-........
0001ec90: b001 1d2e b001 1d2d b001 1e2e b001 1e2e  .......-........
0001eca0: b001 1e2e b001 1e2d b001 1e2e b001 1f2e  .......-........
0001ecb0: b001 1f2e b001 1f2d b001 1f2e b001 1f2e  .......-........
0001ecc0: b001 202e b001 202d b001 202e b001 202e  .. ... -.. ... .
0001ecd0: b001 202e b001 212d b001 212e b001 212e  .. ...!-..!...!.
0001ece0: b001 212e b001 212d b001 222e b001 222e  ..!...!-.."...".
0001ecf0: b001 222e b001 222d b001 222e b001 232e  .."..."-.."...#.
0001ed00: b001 232e b001 232d b001 232e b001 232e  ..#...#-..#...#.
0001ed10: b001 242e b001 242d b001 242e b001 242e  ..$...$-..$...$.
0001ed20: b001 242e b001 252d b001 252e b001 252e  ..$...%-..%...%.
0001ed30: b001 252e b001 252d b001 262e b001 262e  ..%...%-..&...&.
0001ed40: b001 262e b001 262d b001 262e b001 272e  ..&...&-..&...'.
0001ed50: b001 272e b001 272d b001 272e b001 272e  ..'...'-..'...'.
0001ed60: b001 282e b001 282d b001 282e b001 282e  ..(...(-..(...(.
0001ed70: b001 2829 b001 292e b001 282e b001 282d  ..()..)...(...(-
0001ed80: b001 272e b001 272e b001 262e b001 262d  ..'...'...&...&-
0001ed90: b001 252e b001 252e b001 252e b001 242d  ..%...%...%...$-
0001eda0: b001 242e b001 232e b001 232e b001 222d  ..$...#...#..."-
0001edb0: b001 222e b001 222e b001 212e b001 212d  .."..."...!...!-
0001edc0: b001 202e b001 202e b001 1f2e b001 1f2d  .. ... ........-
0001edd0: b001 1f2e b001 1e2e b001 1e2e b001 1d2d  ...............-
0001ede0: b001 1d2e b001 1c2e b001 1c2e b001 1b2d  ...............-
0001edf0: b001 1b2e b001 1b2e b001 1a2e b001 1a2d  ...............-
0001ee00: b001 192e b001 192e b001 182e b001 182d  ...............-
0001ee10: b001 182e b001 172e b001 172e b001 162d  ...............-
0001ee20: b001 162e b001 152e b001 152e b001 152d  ...............-
0001ee30: b001 142e b001 142e b001 132e b001 132d  ...............-
0001ee40: b001 122e b001 122e b001 112e b001 112d  ...............-
0001ee50: b001 112e b001 102e b001 102e b001 0f2d  ...............-
0001ee60: b001 0f2e b001 0e2e b001 0e2e b001 0e2d  ...............-
0001ee70: b001 0d2e b001 0d2e b001 0c2e b001 0c2d  ...............-
0001ee80: b001 0b2e b001 0b2e b001 0b2e b001 0a2d  ...............-
0001ee90: b001 0a2e b001 092e b001 092e b001 082d  ...............-
0001eea0: b001 082e b001 082e b001 072e b001 072d  ...............-
0001eeb0: b001 062e b001 062e b001 052e b001 052d  ...............-
0001eec0: b001 042e b001 042e b001 042e b001 032d  ...............-
0001eed0: b001 032e b001 022e b001 022e b001 012d  ...............-
0001eee0: b001 012e b001 012e b001 002e b001 0013  ................
0001eef0: 801f 3e00 803b 4500 8043 4c00 803e 4a00  ..>..;E..CL..>J.
0001ef00: 802b 4800 b001 00a5 40b0 0100 00ff 2f00  .+H.....@...../.
0001ef10: 4d54 726b 0000 0020 00ff 010c 4353 5320  MTrk... ....CSS 
0001ef20: 456e 7320 4c6f 6e67 00b0 0b7f 00b0 077f  Ens Long........
0001ef30: 00b0 077f 00ff 2f00 4d54 726b 0000 001f  ....../.MTrk....
0001ef40: 00ff 010b 4353 2045 6e73 204c 6f6e 6700  ....CS Ens Long.
0001ef50: b00b 7f00 b007 7f00 b007 7f00 ff2f 004d  ............./.M
0001ef60: 5472 6b00 0000 2a00 ff01 1641 4c42 3220  Trk...*....ALB2 
0001ef70: 312f 3220 5365 6374 696f 6e73 204c 6f6e  1/2 Sections Lon
0001ef80: 6700 b00b 7f00 b007 7f00 b007 7f00 ff2f  g............../
0001ef90: 004d 5472 6b00 0000 4700 ff01 1641 4c42  .MTrk...G....ALB
0001efa0: 3520 456e 7320 5370 6563 6961 6c20 4c6f  5 Ens Special Lo
0001efb0: 6e67 7300 b00b 7f00 b007 7f00 9000 5100  ngs...........Q.
0001efc0: 9006 5100 9010 5100 900e 5181 7080 005e  ..Q...Q...Q.p..^
0001efd0: 0080 0e5e 0080 105e 0080 065e 00ff 2f00  ...^...^...^../.
0001efe0: 4d54 726b 0000 0021 00ff 010d 5341 4d20  MTrk...!....SAM 
0001eff0: 456e 7320 4c6f 6e67 7300 b00b 7f00 b007  Ens Longs.......
0001f000: 7f00 b007 7f00 ff2f 004d 5472 6b00 0004  ......./.MTrk...
0001f010: 5c00 ff01 0853 5350 2054 7265 6d00 b00b  \....SSP Trem...
0001f020: 7f00 b007 7f00 b007 7f81 9600 b001 3381  ..............3.
0001f030: 70b0 0131 2eb0 012f 2eb0 012d 2db0 012b  p..1.../...--..+
0001f040: 2eb0 0129 2eb0 0127 2eb0 0125 2db0 0123  ...)...'...%-..#
0001f050: 2eb0 0122 2eb0 0120 1db0 011f 2eb0 011f  ..."... ........
0001f060: 2db0 0120 2eb0 011f 1690 3f75 0db0 0a35  -.. ......?u...5
0001f070: 0bb0 011f 23b0 0a34 0bb0 011f 06b0 0a2c  ....#..4.......,
0001f080: 11b0 0a20 02b0 0a18 11b0 0a10 03b0 011f  ... ............
0001f090: 03b0 0a0f 0280 3f6b 29b0 011f 2eb0 011f  ......?k).......
0001f0a0: 2eb0 011f 2db0 011f 2eb0 011f 2eb0 011f  ....-...........
0001f0b0: 2eb0 011f 2db0 011f 2eb0 011f 2bb0 011f  ....-.......+...
0001f0c0: 2db0 0129 2eb0 0133 2eb0 013d 0d90 3967  -..)...3...=..9g
0001f0d0: 21b0 0148 2db0 0152 2ab0 015c 0090 3a72  !..H-..R*..\..:r
0001f0e0: 2eb0 0157 2eb0 0152 2bb0 0a10 00b0 0a0f  ...W...R+.......
0001f0f0: 02b0 014e 2eb0 0149 2eb0 0144 2eb0 0140  ...N...I...D...@
0001f100: 2db0 013b 2eb0 0136 2eb0 0132 2eb0 012d  -..;...6...2...-
0001f110: 2db0 0129 14b0 0127 882c b001 2782 66b0  -..)...'.,..'.f.
0001f120: 0126 2eb0 012b 2eb0 0130 2eb0 0136 2db0  .&...+...0...6-.
0001f130: 013b 2eb0 0141 0fb0 0143 22b0 0143 2db0  .;...A...C"..C-.
0001f140: 013e 2eb0 013a 2eb0 0135 2480 3969 0ab0  .>...:...5$.9i..
0001f150: 0131 2db0 012d 2eb0 0128 2eb0 0124 05b0  .1-..-...(...$..
0001f160: 0124 2eb0 0124 2eb0 0124 2db0 0124 2eb0  .$...$...$-..$..
0001f170: 0124 12b0 0125 2eb0 0125 2eb0 0125 17b0  .$...%...%...%..
0001f180: 0a0f 16b0 0125 2eb0 0125 2eb0 0125 2eb0  .....%...%...%..
0001f190: 0125 2db0 0125 2eb0 0125 07b0 0125 2db0  .%-..%...%...%-.
0001f1a0: 0123 2eb0 0121 2eb0 0120 2eb0 011e 2db0  .#...!... ....-.
0001f1b0: 011d 2eb0 011b 2eb0 011a 2eb0 0118 2db0  ..............-.
0001f1c0: 0117 2eb0 0115 2eb0 0114 2eb0 0112 2db0  ..............-.
0001f1d0: 0111 2eb0 010f 2eb0 010e 06b0 010e 8376  ...............v
0001f1e0: 803a 6f90 7fb0 0a0f 2eb0 0a13 2db0 0a18  .:o.........-...
0001f1f0: 2eb0 0a1d 2eb0 0a22 2eb0 0a27 2db0 0a2c  ......."...'-..,
0001f200: 2eb0 0a31 2eb0 0a36 0ab0 0a38 935b b001  ...1...6...8.[..
0001f210: 0001 b001 062d b001 062e b001 062e b001  .....-..........
0001f220: 062e b001 062d b001 062e b001 062e b001  .....-..........
0001f230: 062e b001 062d b001 062e b001 062e b001  .....-..........
0001f240: 062e b001 062d b001 062e b001 062e b001  .....-..........
0001f250: 062e b001 062d b001 062e b001 062e b001  .....-..........
0001f260: 062e b001 062d b001 062e b001 062e b001  .....-..........
0001f270: 062e b001 062d b001 062e b001 062e b001  .....-..........
0001f280: 062e b001 062d b001 062e b001 062e b001  .....-..........
0001f290: 062e b001 062d b001 062e b001 062e b001  .....-..........
0001f2a0: 062e b001 062d b001 062e b001 062e b001  .....-..........
0001f2b0: 062e b001 062d b001 060a 9059 0124 b001  .....-.....Y.$..
0001f2c0: 062e b001 062e b001 062d b001 061a b001  .........-......
0001f2d0: 072e b001 072e b001 082e b001 082d b001  .............-..
0001f2e0: 082e b001 092e b001 092e b001 0a2d b001  .............-..
0001f2f0: 0a2e b001 0a2e b001 0b2e b001 0b11 8059  ...............Y
0001f300: 4600 9058 231c b001 0c2e b001 0c2e b001  F..X#...........
0001f310: 0c2e b001 0d2d b001 0d1d 8058 5400 9054  .....-.....XT..T
0001f320: 1711 b001 0d2e b001 0e2e b001 0e2d b001  .............-..
0001f330: 0f2e b001 0f2e b001 0f2e b001 102d b001  .............-..
0001f340: 102e b001 112e b001 112e b001 112d b001  .............-..
0001f350: 122e b001 122e b001 132e b001 132d b001  .............-..
0001f360: 132e b001 142e b001 142e b001 142d b001  .............-..
0001f370: 152e b001 151c 8054 3e00 b001 1600 9052  .......T>......R
0001f380: 132e b001 152e b001 152d b001 152e b001  .........-......
0001f390: 152e b001 150b 8052 5100 9051 1d23 b001  .......RQ..Q.#..
0001f3a0: 142d b001 142e b001 142e b001 142e b001  .-..............
0001f3b0: 1416 8051 3d00 904f 2d17 b001 142e b001  ...Q=..O-.......
0001f3c0: 132e b001 132e b001 132d b001 132e b001  .........-......
0001f3d0: 132e b001 132e b001 122d b001 122e b001  .........-......
0001f3e0: 122e b001 122e b001 122d b001 122e b001  .........-......
0001f3f0: 112e b001 112e b001 112d b001 112e b001  .........-......
0001f400: 112e b001 112e b001 102d b001 1016 804f  .........-.....O
0001f410: 5f18 b001 102e b001 102e b001 102d b001  _............-..
0001f420: 0f2e b001 0f2e b001 0f2e b001 0f2d b001  .............-..
0001f430: 0f2e b001 0f2e b001 0e2e b001 0e2d b001  .............-..
0001f440: 0e2e b001 0e2e b001 0e2e b001 0e2d b001  .............-..
0001f450: 0d2e b001 0d2e b001 0d2e b001 0d2d b001  .............-..
0001f460: 0d2e b001 0d15 b001 0d00 ff2f 004d 5472  .........../.MTr
0001f470: 6b00 000f ec00 ff01 1753 4620 5472 656d  k........SF Trem
0001f480: 204f 7264 2d43 532d 5375 6c50 2e20 4869   Ord-CS-SulP. Hi
0001f490: 00b0 0b7f 00b0 0b7f 00b0 0b7f 00b0 077f  ................
0001f4a0: 00b0 077f 00b0 077f 0090 0448 0090 0548  ...........H...H
0001f4b0: 0090 0648 8170 8004 6100 8006 6100 8005  ...H.p..a...a...
0001f4c0: 61b5 27b0 0156 13b0 0155 25b0 0154 13b0  a.'..V...U%..T..
0001f4d0: 0153 13b0 0152 13b0 0151 12b0 0150 13b0  .S...R...Q...P..
0001f4e0: 014e 09b0 014c 0ab0 014a 09b0 0149 09b0  .N...L...J...I..
0001f4f0: 0148 0ab0 0147 bf5c b001 1582 08b0 0100  .H...G.\........
0001f500: 2eb0 0104 2eb0 0108 2db0 010c 2eb0 0111  ........-.......
0001f510: 2eb0 0115 2eb0 0119 2db0 011e 2eb0 0122  ........-......"
0001f520: 2eb0 0126 2eb0 012a 2db0 011b 2eb0 0124  ...&...*-......$
0001f530: 2eb0 012d 27b0 0136 0690 4a21 0090 4621  ...-'..6..J!..F!
0001f540: 28b0 0136 2eb0 0137 2db0 0138 1d80 4a46  (..6...7-..8..JF
0001f550: 0080 4646 0090 461a 0090 3e21 11b0 0138  ..FF..F...>!...8
0001f560: 2eb0 0139 2eb0 013a 2db0 013a 0680 4642  ...9...:-..:..FB
0001f570: 0080 3e46 0090 4a39 0090 4339 28b0 013b  ..>F..J9..C9(..;
0001f580: 2eb0 013c 2eb0 013c 1c80 4a4d 0080 434d  ...<...<..JM..CM
0001f590: 0090 4f4b 0090 464b 11b0 013d 2eb0 013e  ..OK..FK...=...>
0001f5a0: 2eb0 013e 2eb0 013f 0580 4f5b 0080 465b  ...>...?..O[..F[
0001f5b0: 0090 4a36 0090 4336 28b0 0140 2eb0 0140  ..J6..C6(..@...@
0001f5c0: 2eb0 0141 1c80 4a5a 0080 435a 0090 4644  ...A..JZ..CZ..FD
0001f5d0: 0090 4f44 12b0 0142 2db0 0142 2eb0 0143  ..OD...B-..B...C
0001f5e0: 2eb0 0144 0580 464e 0080 4f4e 0090 4a4c  ...D..FN..ON..JL
0001f5f0: 0090 524c 29b0 0144 2db0 0145 2eb0 0146  ..RL)..D-..E...F
0001f600: 1c80 4a4d 0080 524d 0090 464a 0090 4f4a  ..JM..RM..FJ..OJ
0001f610: 12b0 0146 2eb0 0147 2db0 0148 2eb0 0149  ...F...G-..H...I
0001f620: 0580 4649 0080 4f49 0090 4a3f 0090 523f  ..FI..OI..J?..R?
0001f630: 29b0 0149 2eb0 014a 2db0 014b 1c80 4a49  )..I...J-..K..JI
0001f640: 0080 5249 0090 4f49 0090 5649 12b0 014b  ..RI..OI..VI...K
0001f650: 2eb0 014c 2eb0 014d 2db0 014d 0580 4f50  ...L...M-..M..OP
0001f660: 0080 5650 0090 4a44 0090 5244 29b0 014e  ..VP..JD..RD)..N
0001f670: 2eb0 014f 2eb0 014f 1b80 4a4d 0080 524d  ...O...O..JM..RM
0001f680: 0090 5647 0090 4f47 12b0 0150 2eb0 0151  ..VG..OG...P...Q
0001f690: 2eb0 0151 2eb0 0152 0480 5655 0080 4f55  ...Q...R..VU..OU
0001f6a0: 0090 5249 0090 5b49 29b0 0153 2eb0 0153  ..RI..[I)..S...S
0001f6b0: 2eb0 0154 1b80 5250 0080 5b50 0090 5644  ...T..RP..[P..VD
0001f6c0: 0090 4f44 13b0 0155 2db0 0155 2eb0 0156  ..OD...U-..U...V
0001f6d0: 2eb0 0157 0480 564d 0080 4f4d 0090 5247  ...W..VM..OM..RG
0001f6e0: 0090 5b47 2ab0 0157 2db0 0158 17b0 0159  ..[G*..W-..X...Y
0001f6f0: 3280 5255 0080 5b55 0090 5649 0090 5e49  2.RU..[U..VI..^I
0001f700: 8620 8056 5000 805e 50d7 40b0 0116 09b0  . .VP..^P.@.....
0001f710: 0115 00b0 0100 2eb0 0100 2eb0 0100 2eb0  ................
0001f720: 0100 2db0 0100 2eb0 0101 2eb0 0101 2eb0  ..-.............
0001f730: 0101 2db0 0101 2eb0 0101 2eb0 0102 2eb0  ..-.............
0001f740: 0102 2db0 0102 2eb0 0102 2eb0 0102 2eb0  ..-.............
0001f750: 0103 2db0 0103 2eb0 0103 20b0 010c 2ab0  ..-....... ...*.
0001f760: 010d 2eb0 010d 2eb0 010e 0790 4a01 0090  ............J...
0001f770: 4606 0090 4101 27b0 010f 2db0 0110 2eb0  F...A.'...-.....
0001f780: 0111 2eb0 0112 2eb0 0112 04b0 0113 2eb0  ................
0001f790: 0113 2eb0 0113 2eb0 0113 2db0 0113 2eb0  ..........-.....
0001f7a0: 0113 2eb0 0113 2eb0 0113 2db0 0114 2eb0  ..........-.....
0001f7b0: 0114 2eb0 0114 2eb0 0114 2db0 0115 2eb0  ..........-.....
0001f7c0: 0115 2eb0 0115 2eb0 0115 2db0 0116 0280  ..........-.....
0001f7d0: 4a5b 0080 4133 0080 4641 0090 4022 0090  J[..A3..FA..@"..
0001f7e0: 4519 0090 4823 2cb0 0116 2eb0 0116 2eb0  E...H#,.........
0001f7f0: 0116 2db0 0117 2eb0 0117 2eb0 0117 2eb0  ..-.............
0001f800: 0117 2db0 0118 2eb0 0118 2eb0 0118 2eb0  ..-.............
0001f810: 0118 2db0 0119 2eb0 0119 2eb0 0119 2eb0  ..-.............
0001f820: 0119 2db0 011a 2eb0 011a 2eb0 011a 2eb0  ..-.............
0001f830: 011a 2db0 011b 2eb0 011b 0180 4059 0080  ..-.........@Y..
0001f840: 4862 0080 4532 0090 431a 0090 4639 0090  Hb..E2..C...F9..
0001f850: 3f05 2db0 011b 2eb0 011b 2db0 011c 2eb0  ?.-.......-.....
0001f860: 011c 2eb0 011c 2eb0 011c 2db0 011d 2eb0  ..........-.....
0001f870: 011d 2eb0 011d 2eb0 011d 09b0 011e 0e90  ................
0001f880: 3a13 20b0 011d 2eb0 011c 2eb0 011c 2db0  :. ...........-.
0001f890: 011b 2eb0 011b 2eb0 011a 2eb0 011a 2db0  ..............-.
0001f8a0: 0119 2eb0 0118 2eb0 0118 2480 463d 0080  ..........$.F=..
0001f8b0: 3a41 0080 3f46 0090 3c0e 0090 400b 0090  :A..?F..<...@...
0001f8c0: 482e 0ab0 0117 2db0 0117 2eb0 0116 2eb0  H.....-.........
0001f8d0: 0116 2eb0 0115 2db0 0115 2eb0 0114 2eb0  ......-.........
0001f8e0: 0113 2eb0 0113 2db0 0112 2eb0 0112 2eb0  ......-.........
0001f8f0: 0111 2eb0 0111 2db0 0110 2eb0 010f 2eb0  ......-.........
0001f900: 010f 2eb0 010e 2db0 010e 2eb0 010d 2eb0  ......-.........
0001f910: 010d 0db0 010d 00b0 010e 2eb0 010d 1680  ................
0001f920: 4361 0080 485c 0080 405b 0080 3c60 17b0  Ca..H\..@[..<`..
0001f930: 010c 2eb0 010c 2eb0 010b 2eb0 010b 2db0  ..............-.
0001f940: 010a 2eb0 010a 2eb0 0109 2eb0 0109 2db0  ..............-.
0001f950: 0108 2eb0 0108 2eb0 0107 2eb0 0107 2db0  ..............-.
0001f960: 0106 2eb0 0106 2eb0 0105 2eb0 0105 2db0  ..............-.
0001f970: 0104 2eb0 0104 2eb0 0103 2eb0 0103 2db0  ..............-.
0001f980: 0102 2eb0 0102 2eb0 0101 2eb0 0100 2db0  ..............-.
0001f990: 0100 27b0 0100 f638 b00b 0092 6090 462b  ..'....8....`.F+
0001f9a0: 8360 b001 008f 1fb0 0101 2eb0 0101 2db0  .`............-.
0001f9b0: 0101 2eb0 0101 2eb0 0101 2eb0 0101 2db0  ..............-.
0001f9c0: 0101 2eb0 0101 2eb0 0101 2eb0 0101 2db0  ..............-.
0001f9d0: 0101 2eb0 0102 2eb0 0102 2eb0 0102 2db0  ..............-.
0001f9e0: 0102 2eb0 0102 2eb0 0102 2eb0 0102 2db0  ..............-.
0001f9f0: 0102 2eb0 0102 2eb0 0102 2eb0 0102 2db0  ..............-.
0001fa00: 0102 2eb0 0102 2eb0 0102 2eb0 0102 2db0  ..............-.
0001fa10: 0102 2eb0 0102 2eb0 0102 2eb0 0102 2db0  ..............-.
0001fa20: 0102 2eb0 0102 2eb0 0102 2eb0 0102 2db0  ..............-.
0001fa30: 0102 2eb0 0102 2eb0 0102 2eb0 0102 2db0  ..............-.
0001fa40: 0102 2eb0 0102 2eb0 0102 2eb0 0102 2db0  ..............-.
0001fa50: 0102 2eb0 0102 2eb0 0102 2eb0 0102 2db0  ..............-.
0001fa60: 0102 2eb0 0103 2eb0 0103 2eb0 0103 2db0  ..............-.
0001fa70: 0103 2eb0 0103 2eb0 0103 2eb0 0103 2db0  ..............-.
0001fa80: 0103 2eb0 0103 2eb0 0103 2eb0 0103 2db0  ..............-.
0001fa90: 0103 2eb0 0103 2eb0 0103 2eb0 0103 2db0  ..............-.
0001faa0: 0103 2eb0 0103 2eb0 0103 2eb0 0103 2db0  ..............-.
0001fab0: 0103 2eb0 0103 2eb0 0103 2eb0 0103 2db0  ..............-.
0001fac0: 0103 2eb0 0103 2eb0 0103 2eb0 0103 2db0  ..............-.
0001fad0: 0103 2eb0 0103 2eb0 0103 2eb0 0103 2db0  ..............-.
0001fae0: 0103 2eb0 0103 2eb0 0103 2eb0 0103 2db0  ..............-.
0001faf0: 0103 2eb0 0103 0cb0 0104 9a20 b00b 0087  ........... ....
0001fb00: 40b0 0b00 0090 4d01 2eb0 0b00 2eb0 0b00  @.....M.........
0001fb10: 2db0 0b00 2eb0 0b00 2eb0 0b01 2eb0 0b01  -...............
0001fb20: 2db0 0b01 2eb0 0b02 2eb0 0b02 2eb0 0b02  -...............
0001fb30: 2db0 0b03 2eb0 0b03 2eb0 0b03 2eb0 0b04  -...............
0001fb40: 2db0 0b04 2eb0 0b04 2eb0 0b05 2eb0 0b05  -...............
0001fb50: 2db0 0b05 2eb0 0b05 2eb0 0b06 2eb0 0b06  -...............
0001fb60: 2db0 0b06 2eb0 0b06 2eb0 0b06 2eb0 0b06  -...............
0001fb70: 2db0 0b06 2eb0 0b06 2eb0 0b07 2eb0 0b07  -...............
0001fb80: 2db0 0b07 2eb0 0b07 2eb0 0b07 1fb0 077f  -...............
0001fb90: 0fb0 0b08 2db0 0b08 2eb0 0b08 2eb0 0b08  ....-...........
0001fba0: 2eb0 0b08 2db0 0b09 2eb0 0b09 2eb0 0b09  ....-...........
0001fbb0: 2eb0 0b09 2db0 0b09 2eb0 0b0a 2eb0 0b0a  ....-...........
0001fbc0: 2eb0 0b0a 2db0 0b0a 2eb0 0b0a 2eb0 0b0b  ....-...........
0001fbd0: 2eb0 0b0b 2db0 0b0b 2eb0 0b0b 2eb0 0b0b  ....-...........
0001fbe0: 2eb0 0b0c 2db0 0b0c 2eb0 0b0c 2eb0 0b0c  ....-...........
0001fbf0: 2eb0 0b0c 2db0 0b0c 2eb0 0b0d 2eb0 0b0d  ....-...........
0001fc00: 2eb0 0b0d 2db0 0b0d 2eb0 0b0d 2eb0 0b0e  ....-...........
0001fc10: 2eb0 0b0e 2db0 0b0e 2eb0 0b0e 2eb0 0b0e  ....-...........
0001fc20: 2eb0 0b0f 2db0 0b0f 2eb0 0b0f 2eb0 0b0f  ....-...........
0001fc30: 2eb0 0b0f 2db0 0b10 2eb0 0b10 2eb0 0b10  ....-...........
0001fc40: 2eb0 0b10 2db0 0b10 2eb0 0b11 2eb0 0b11  ....-...........
0001fc50: 2eb0 0b11 2db0 0b11 2eb0 0b11 2eb0 0b12  ....-...........
0001fc60: 2eb0 0b12 2db0 0b12 2eb0 0b12 2eb0 0b12  ....-...........
0001fc70: 2eb0 0b12 2db0 0b13 2eb0 0b13 2eb0 0b13  ....-...........
0001fc80: 2eb0 0b13 2db0 0b13 2eb0 0b14 2eb0 0b14  ....-...........
0001fc90: 2eb0 0b14 2db0 0b14 2eb0 0b14 2eb0 0b15  ....-...........
0001fca0: 2eb0 0b15 2db0 0b15 2eb0 0b15 2eb0 0b15  ....-...........
0001fcb0: 2eb0 0b16 2db0 0b16 2eb0 0b16 2eb0 0b16  ....-...........
0001fcc0: 2eb0 0b16 2db0 0b17 2eb0 0b17 2eb0 0b17  ....-...........
0001fcd0: 2eb0 0b17 2db0 0b17 2eb0 0b18 2eb0 0b18  ....-...........
0001fce0: 2eb0 0b18 2db0 0b18 2eb0 0b18 2eb0 0b18  ....-...........
0001fcf0: 2eb0 0b19 2db0 0b19 2eb0 0b19 2eb0 0b19  ....-...........
0001fd00: 2eb0 0b19 2db0 0b1a 2eb0 0b1a 2eb0 0b1a  ....-...........
0001fd10: 2eb0 0b1a 2db0 0b1a 2eb0 0b1b 2eb0 0b1b  ....-...........
0001fd20: 2eb0 0b1b 2db0 0b1b 2eb0 0b1b 2eb0 0b1c  ....-...........
0001fd30: 2eb0 0b1c 2db0 0b1c 2eb0 0b1c 2eb0 0b1c  ....-...........
0001fd40: 2eb0 0b1d 2db0 0b1d 2eb0 0b1d 2eb0 0b1d  ....-...........
0001fd50: 2eb0 0b1d 28b0 0b1e 2eb0 0b1e 2eb0 0b1f  ....(...........
0001fd60: 2db0 0b20 2eb0 0b21 2eb0 0b22 2eb0 0b23  -.. ...!..."...#
0001fd70: 2db0 0b24 2eb0 0b25 2eb0 0b26 2eb0 0b27  -..$...%...&...'
0001fd80: 2db0 0b28 2eb0 0b28 2eb0 0b29 2eb0 0b2a  -..(...(...)...*
0001fd90: 2db0 0b2b 2eb0 0b2c 2eb0 0b2d 2eb0 0b2e  -..+...,...-....
0001fda0: 2db0 0b2f 2eb0 0b30 2eb0 0b31 2eb0 0b32  -../...0...1...2
0001fdb0: 2db0 0b33 2eb0 0b33 2eb0 0b34 2eb0 0b35  -..3...3...4...5
0001fdc0: 0ab0 0b36 9f70 8046 6b8b 2080 4d5c 83d6  ...6.p.Fk. .M\..
0001fdd0: 5db0 0b58 2eb0 0b58 2eb0 0b58 2db0 0b59  ]..X...X...X-..Y
0001fde0: 2eb0 0b59 2eb0 0b59 2eb0 0b5a 2db0 0b5a  ...Y...Y...Z-..Z
0001fdf0: 2eb0 0b5a 2eb0 0b5b 2eb0 0b5b 2db0 0b5b  ...Z...[...[-..[
0001fe00: 2eb0 0b5c 2eb0 0b5c 2eb0 0b5d 2db0 0b5d  ...\...\...]-..]
0001fe10: 2eb0 0b5d 2eb0 0b5e 2eb0 0b5e 2db0 0b5e  ...]...^...^-..^
0001fe20: 2eb0 0b5f 2eb0 0b5f 2eb0 0b5f 2db0 0b60  ..._..._..._-..`
0001fe30: 2eb0 0b60 2eb0 0b61 2eb0 0b61 2db0 0b61  ...`...a...a-..a
0001fe40: 2eb0 0b62 2eb0 0b62 2eb0 0b62 2db0 0b63  ...b...b...b-..c
0001fe50: 2eb0 0b63 2eb0 0b63 2eb0 0b64 2db0 0b64  ...c...c...d-..d
0001fe60: 2eb0 0b65 2eb0 0b65 2eb0 0b65 2db0 0b66  ...e...e...e-..f
0001fe70: 2eb0 0b66 2eb0 0b66 2eb0 0b67 2db0 0b67  ...f...f...g-..g
0001fe80: 2eb0 0b67 2eb0 0b68 2eb0 0b68 2db0 0b69  ...g...h...h-..i
0001fe90: 2eb0 0b69 2eb0 0b69 2eb0 0b6a 2db0 0b6a  ...i...i...j-..j
0001fea0: 2eb0 0b6a 2eb0 0b6b 2eb0 0b6b 2db0 0b6b  ...j...k...k-..k
0001feb0: 2eb0 0b6c 2eb0 0b6c 2eb0 0b6d 2db0 0b6d  ...l...l...m-..m
0001fec0: 2eb0 0b6d 2eb0 0b6e 2eb0 0b6e 2db0 0b6e  ...m...n...n-..n
0001fed0: 2eb0 0b6f 2eb0 0b6f 2eb0 0b6f 2db0 0b70  ...o...o...o-..p
0001fee0: 2eb0 0b70 2eb0 0b70 2eb0 0b71 2db0 0b71  ...p...p...q-..q
0001fef0: 2eb0 0b72 2eb0 0b72 2eb0 0b72 2db0 0b73  ...r...r...r-..s
0001ff00: 2eb0 0b73 2eb0 0b73 2eb0 0b74 2db0 0b74  ...s...s...t-..t
0001ff10: 2eb0 0b74 2eb0 0b75 2eb0 0b75 2db0 0b76  ...t...u...u-..v
0001ff20: 2eb0 0b76 2eb0 0b76 2eb0 0b77 2db0 0b77  ...v...v...w-..w
0001ff30: 2eb0 0b77 2eb0 0b78 2eb0 0b78 2db0 0b78  ...w...x...x-..x
0001ff40: 2eb0 0b79 2eb0 0b79 2eb0 0b7a 2db0 0b7a  ...y...y...z-..z
0001ff50: 2eb0 0b7a 2eb0 0b7b 2eb0 0b7b 2db0 0b7b  ...z...{...{-..{
0001ff60: 2eb0 0b7c 2eb0 0b7c 2eb0 0b7c 2db0 0b7d  ...|...|...|-..}
0001ff70: 2eb0 0b7d 2eb0 0b7e 2eb0 0b7e 2db0 0b7e  ...}...~...~-..~
0001ff80: 20b0 0b7f cc6e b001 2500 b001 272d b001   ....n..%...'-..
0001ff90: 272e b001 272e b001 272e b001 282d b001  '...'...'...(-..
0001ffa0: 282e b001 282e b001 292e b001 292d b001  (...(...)...)-..
0001ffb0: 292e b001 2a2e b001 2a2e b001 2a2d b001  )...*...*...*-..
0001ffc0: 2b2e b001 2b2e b001 2b2e b001 2b2d b001  +...+...+...+-..
0001ffd0: 2c2e b001 2c2e b001 2c2e b001 2d2d b001  ,...,...,...--..
0001ffe0: 2d2e b001 2d2e b001 2e2e b001 2e2d b001  -...-........-..
0001fff0: 2e2e b001 2f2e b001 2f2e b001 2f24 b001  ..../.../.../$..
00020000: 302e b001 302e b001 302e b001 302d b001  0...0...0...0-..
00020010: 302e b001 302e b001 302e b001 302d b001  0...0...0...0-..
00020020: 302e b001 302e b001 3107 903c 5b27 b001  0...0...1..<['..
00020030: 312d b001 312e b001 312e b001 322e b001  1-..1...1...2...
00020040: 3212 803c 5600 903e 5b1b b001 322e b001  2..<V..>[...2...
00020050: 322e b001 332e b001 332d b001 331e 803e  2...3...3-..3..>
00020060: 5b00 9043 4a10 b001 332e b001 342e b001  [..CJ...3...4...
00020070: 342d b001 342e b001 3429 8043 5700 903c  4-..4...4).CW..<
00020080: 5605 b001 352e b001 352d b001 352e b001  V...5...5-..5...
00020090: 352e b001 352e b001 3606 803c 5500 903e  5...5...6..<U..>
000200a0: 4e27 b001 362e b001 372e b001 372e b001  N'..6...7...7...
000200b0: 382d b001 3912 803e 4f00 9043 4a1c b001  8-..9..>O..CJ...
000200c0: 392e b001 3a2e b001 3a2d b001 3b2e b001  9...:...:-..;...
000200d0: 3b1d 8043 5900 903c 5811 b001 3c2e b001  ;..CY..<X...<...
000200e0: 3d2d b001 3d2e b001 3e2e b001 3e28 803c  =-..=...>...>(.<
000200f0: 5900 903e 5406 b001 3e2d b001 3f04 b001  Y..>T...>-..?...
00020100: 402e b001 3f2d b001 3f2e b001 3e2e b001  @...?-..?...>...
00020110: 3e02 803e 4900 9043 442c b001 3e2d b001  >..>I..CD,..>-..
00020120: 3e2e b001 3e2e b001 3d2e b001 3d0d 8043  >...>...=...=..C
00020130: 6100 903e 5420 b001 3d2e b001 3d2e b001  a..>T ..=...=...
00020140: 3d2e b001 3c2d b001 3c19 803e 4900 9037  =...<-..<..>I..7
00020150: 5815 b001 3c2e b001 3c2e b001 3c2d b001  X...<...<...<-..
00020160: 3b2e b001 3b24 8037 5900 903b 450a b001  ;...;$.7Y..;E...
00020170: 3b2e b001 3b2d b001 3b2e b001 3a2e b001  ;...;-..;...:...
00020180: 3a2e b001 3a01 803b 5600 903e 452c b001  :...:..;V..>E,..
00020190: 3a2e b001 3a2e b001 3a2e b001 392d b001  :...:...:...9-..
000201a0: 390d 803e 5600 9043 4a21 b001 392e b001  9..>V..CJ!..9...
000201b0: 392e b001 392d b001 382e b001 3818 8043  9...9-..8...8..C
000201c0: 5800 904a 4516 b001 382e b001 382d b001  X..JE...8...8-..
000201d0: 382e b001 372e b001 3723 804a 5c00 9043  8...7...7#.J\..C
000201e0: 580b b001 372d b001 372e b001 372e b001  X...7-..7...7...
000201f0: 362e b001 362d b001 3601 8043 512d b001  6...6-..6..CQ-..
00020200: 362e b001 362e b001 362d b001 352e b001  6...6...6-..5...
00020210: 352e b001 352e b001 352d b001 352e b001  5...5...5-..5...
00020220: 342e b001 342e b001 342d b001 342e b001  4...4...4-..4...
00020230: 342e b001 332e b001 332d b001 332e b001  4...3...3-..3...
00020240: 332e b001 332e b001 322d b001 322e b001  3...3...2-..2...
00020250: 322e b001 322e b001 322d b001 3208 b001  2...2...2-..2...
00020260: 322d b001 312e b001 3108 b001 312e b001  2-..1...1...1...
00020270: 322e b001 322d b001 322e b001 322e b001  2...2-..2...2...
00020280: 322e b001 322d b001 322e b001 322e b001  2...2-..2...2...
00020290: 332e b001 332d b001 332e b001 332e b001  3...3-..3...3...
000202a0: 342e b001 342d b001 341e 903c 4e10 b001  4...4-..4..<N...
000202b0: 342e b001 352e b001 352d b001 352e b001  4...5...5-..5...
000202c0: 3529 803c 4f00 9035 4a05 b001 362e b001  5).<O..5J...6...
000202d0: 362d b001 362e b001 362e b001 372e b001  6-..6...6...7...
000202e0: 3706 8035 5900 9037 5827 b001 372e b001  7..5Y..7X'..7...
000202f0: 372e b001 382e b001 382d b001 3812 8037  7...8...8-..8..7
00020300: 5900 903c 581c b001 382e b001 392e b001  Y..<X...8...9...
00020310: 392d b001 392e b001 3a2e b001 3a2e b001  9-..9...:...:...
00020320: 3a2d b001 3a2e b001 3b2e b001 3b2e b001  :-..:...;...;...
00020330: 3b2d b001 3b2e b001 3b2e b001 3c2e b001  ;-..;...;...<...
00020340: 3d2d b001 3e06 803c 5900 9041 5828 b001  =-..>..<Y..AX(..
00020350: 3f2e b001 402e b001 412d b001 422e b001  ?...@...A-..B...
00020360: 4307 b001 442d b001 432e b001 432e b001  C...D-..C...C...
00020370: 422e b001 422d b001 4116 8041 5900 9042  B...B-..A..AY..B
00020380: 4418 b001 412e b001 402e b001 402d b001  D...A...@...@-..
00020390: 402e b001 3f2e b001 3f2e b001 3e2d b001  @...?...?...>-..
000203a0: 3e2e b001 3d2e b001 3d2e b001 3d2d b001  >...=...=...=-..
000203b0: 3c2e b001 3c2e b001 3b2e b001 3b2d b001  <...<...;...;-..
000203c0: 3a2e b001 3a2e b001 3a2e b001 392d b001  :...:...:...9-..
000203d0: 392e b001 382e b001 382e b001 372d b001  9...8...8...7-..
000203e0: 372e b001 372e b001 362e b001 362d b001  7...7...6...6-..
000203f0: 352e b001 352e b001 342e b001 342d b001  5...5...4...4-..
00020400: 342e b001 332e b001 332e b001 322d b001  4...3...3...2-..
00020410: 322e b001 3109 8042 4825 b001 312e b001  2...1..BH%..1...
00020420: 312d b001 302e b001 302e b001 2f2e b001  1-..0...0.../...
00020430: 2f2d b001 2e2e b001 2e2e b001 2e2e b001  /-..............
00020440: 2d2d b001 2d2e b001 2c2e b001 2c2e b001  --..-...,...,...
00020450: 2b2d b001 2b2e b001 2b0c b001 2b00 ff2f  +-..+...+...+../
00020460: 004d 5472 6b00 0004 5700 ff01 1853 4620  .MTrk...W....SF 
00020470: 5472 656d 204f 7264 2d43 532d 5375 6c50  Trem Ord-CS-SulP
00020480: 2e20 4c6f 7700 b00b 7f00 b00b 7f00 b00b  . Low...........
00020490: 7f00 b007 7f00 b007 7f00 b007 7f00 9004  ................
000204a0: 4800 9005 4800 9006 4881 7080 0461 0080  H...H...H.p..a..
000204b0: 0661 0080 0561 8198 6890 295b 56b0 0122  .a...a..h.)[V.."
000204c0: 09b0 0125 0ab0 0128 09b0 012a 0ab0 012b  ...%...(...*...+
000204d0: 09b0 012c 0ab0 012e 13b0 012f 25b0 0130  ...,......./%..0
000204e0: 09b0 0131 13b0 0132 8134 b001 3325 b001  ...1...2.4..3%..
000204f0: 3413 b001 3509 b001 360a b001 3709 b001  4...5...6...7...
00020500: 3813 b001 390a b001 3a09 b001 3c13 b001  8...9...:...<...
00020510: 3d09 b001 3e26 b001 3f68 b001 401c b001  =...>&..?h..@...
00020520: 4113 b001 4209 b001 4313 b001 4413 b001  A...B...C...D...
00020530: 4513 b001 4613 b001 4709 b001 4800 902a  E...F...G...H..*
00020540: 3f1c b001 4a0a b001 4b09 b001 4c0a b001  ?...J...K...L...
00020550: 4e09 b001 4f0a b001 5009 b001 511c b001  N...O...P...Q...
00020560: 520a b001 5312 b001 5413 b001 5555 b001  R...S...T...UU..
00020570: 530a b001 5109 b001 4f0a b001 4d09 b001  S...Q...O...M...
00020580: 4a0a b001 4809 b001 4509 b001 420a b001  J...H...E...B...
00020590: 3f09 b001 3c0a b001 3a09 b001 380a b001  ?...<...:...8...
000205a0: 3701 802a 3b08 b001 3509 b001 340a b001  7..*;...5...4...
000205b0: 3313 b001 3209 b001 3126 b001 301b 901d  3...2...1&..0...
000205c0: 5b0a b001 2f82 37b0 012e 2790 2a4c 1cb0  [.../.7...'.*L..
000205d0: 0131 09b0 0133 09b0 0136 0ab0 0139 09b0  .1...3...6...9..
000205e0: 013b 0ab0 013e 09b0 0140 0ab0 0142 09b0  .;...>...@...B..
000205f0: 0144 09b0 0147 0ab0 0149 09b0 014c 0ab0  .D...G...I...L..
00020600: 014e 09b0 014f 13b0 0151 26b0 0152 68b0  .N...O...Q&..Rh.
00020610: 0151 09b0 014f 09b0 014b 0ab0 0147 09b0  .Q...O...K...G..
00020620: 0143 0ab0 0141 09b0 013e 0ab0 013d 09b0  .C...A...>...=..
00020630: 013b 09b0 013a 0ab0 0139 13b0 0137 1cb0  .;...:...9...7..
00020640: 0136 12b0 0135 0a80 2a3c 0ab0 0133 13b0  .6...5..*<...3..
00020650: 0132 12b0 0130 0ab0 012f 13b0 012e 13b0  .2...0.../......
00020660: 012c 09b0 012b 13b0 012a 13b0 0129 09b0  .,...+...*...)..
00020670: 0128 09b0 0127 0ab0 0126 09b0 0125 0ab0  .(...'...&...%..
00020680: 0124 09b0 0123 0ab0 0122 09b0 0120 09b0  .$...#..."... ..
00020690: 011f 1db0 011e 6990 2a56 08b0 0121 09b0  ......i.*V...!..
000206a0: 0123 0ab0 0124 09b0 0126 816c b001 2709  .#...$...&.l..'.
000206b0: b001 2a0a b001 2e09 b001 320a b001 3709  ..*.......2...7.
000206c0: b001 3a09 b001 3d0a b001 3e4b b001 3d0a  ..:...=...>K..=.
000206d0: b001 3c09 b001 3b0a b001 3a09 b001 380a  ..<...;...:...8.
000206e0: b001 3609 b001 3509 b001 3301 802a 4609  ..6...5...3..*F.
000206f0: b001 3209 b001 3109 b001 2f0a b001 2e09  ..2...1.../.....
00020700: b001 2d0a b001 2c09 b001 2b0a b001 2a09  ..-...,...+...*.
00020710: b001 2809 b001 270a b001 2509 b001 240a  ..(...'...%...$.
00020720: b001 2309 b001 210a b001 1f09 b001 1d09  ..#...!.........
00020730: b001 1c0a b001 1b09 b001 1a13 b001 1913  ................
00020740: b001 1818 902a 652a b001 1a0a b001 1c09  .....*e*........
00020750: b001 1f09 b001 220a b001 2409 b001 260a  ......"...$...&.
00020760: b001 2713 b001 2812 b001 2a0a b001 2c09  ..'...(...*...,.
00020770: b001 2e0a b001 3009 b001 3309 b001 360a  ......0...3...6.
00020780: b001 3909 b001 3c0a b001 3e09 b001 400a  ..9...<...>...@.
00020790: b001 4109 b001 4309 b001 440a b001 4509  ..A...C...D...E.
000207a0: b001 4626 b001 474c b001 4609 b001 4409  ..F&..GL..F...D.
000207b0: b001 430a b001 4109 b001 3f09 b001 3c0a  ..C...A...?...<.
000207c0: b001 3a09 b001 370a b001 3509 b001 330a  ..:...7...5...3.
000207d0: b001 3209 b001 310a b001 3009 b001 2f0a  ..2...1...0.../.
000207e0: b001 2e12 b001 2c1c b001 2a0a b001 2913  ......,...*...).
000207f0: b001 280b 802a 3008 b001 2713 b001 2612  ..(..*0...'...&.
00020800: b001 2513 b001 2413 b001 2313 b001 2213  ..%...$...#...".
00020810: b001 201c b001 1f13 b001 1d1c b001 1c13  .. .............
00020820: b001 1b1c b001 1a42 b001 1939 b001 1842  .......B...9...B
00020830: b001 1730 902a 6782 40b0 0118 25b0 0119  ...0.*g.@...%...
00020840: 0380 2a3b 36b0 011a 71b0 0119 39b0 0118  ..*;6...q...9...
00020850: 2fb0 0117 26b0 0116 25b0 0115 39b0 0114  /...&...%...9...
00020860: 25b0 0113 43b0 0112 42b0 0111 54b0 0110  %...C...B...T...
00020870: 39b0 010f 68b0 010e 71b0 010d 2fb0 010c  9...h...q.../...
00020880: 39b0 010b 1cb0 010a 13b0 0109 13b0 0108  9...............
00020890: 1cb0 0107 4bb0 0106 4cb0 0105 824a b001  ....K...L....J..
000208a0: 0482 5cb0 0103 8121 b001 024b b001 0142  ..\....!...K...B
000208b0: b001 0089 4480 2901 7880 1d01 00ff 2f00  ....D.).x...../.
000208c0: 4d54 726b 0000 0dfe 00ff 0109 4220 5472  MTrk........B Tr
000208d0: 656d 2048 6900 b00b 7f00 b007 7f81 9600  em Hi...........
000208e0: b001 332e b001 2e2e b001 2a2d b001 262e  ..3.......*-..&.
000208f0: b001 212e b001 1d2e b001 192d b001 142e  ..!........-....
00020900: b001 102e b001 0c2c b00a 6b01 b00a 6b01  .......,..k...k.
00020910: b001 0709 b001 0724 b00a 6a0a b001 0c23  .......$..j....#
00020920: b00a 6a0a b001 1224 b00a 6a0a b001 1724  ..j....$..j....$
00020930: b00a 6a0a b001 1d24 b00a 6a0a b001 2323  ..j....$..j...##
00020940: b00a 6a0a b001 2824 b00a 6a0a b001 2e24  ..j...($..j....$
00020950: b00a 6a0a b001 3324 b00a 6a0a b001 3923  ..j...3$..j...9#
00020960: b00a 6a0a b001 3f24 b00a 6a00 903e 6d00  ..j...?$..j..>m.
00020970: 903f 750a b001 4422 b001 4902 b00a 6a2c  .?u...D"..I...j,
00020980: b001 4502 b00a 6a2c b001 4201 b00a 6a2c  ..E...j,..B...j,
00020990: b001 3f02 b00a 6a2c b001 3c02 b00a 6a2c  ..?...j,..<...j,
000209a0: b001 3802 b00a 6a2c b001 3501 b00a 6a2c  ..8...j,..5...j,
000209b0: b001 3202 b00a 6a2c b001 2f02 b00a 6a2c  ..2...j,../...j,
000209c0: b001 2c02 b00a 6a2c b001 2801 b00a 6a2c  ..,...j,..(...j,
000209d0: b001 2502 b00a 6a2c b001 2202 b00a 6a12  ..%...j,.."...j.
000209e0: b001 2114 b001 2208 b00a 6a0b b001 230a  ..!..."...j...#.
000209f0: b001 2413 b001 2605 b00a 6a0e b001 270a  ..$...&...j...'.
00020a00: b001 2816 b00a 6a2e b00a 6a13 b001 271b  ..(...j...j...'.
00020a10: b00a 6a1f b001 260e b00a 6a22 b001 250c  ..j...&...j"..%.
00020a20: b00a 6a25 b001 2409 b00a 6a2e b00a 6a2d  ..j%..$...j...j-
00020a30: b00a 6a06 b001 2328 b00a 6a2e b00a 6a2e  ..j...#(..j...j.
00020a40: b00a 6a2a b001 2203 b00a 6a2e b00a 6a2e  ..j*.."...j...j.
00020a50: b00a 6a2e b00a 6a2d b00a 6a2e b00a 6a2e  ..j...j-..j...j.
00020a60: b00a 6a1f b001 240f b00a 6a0e b001 251f  ..j...$...j...%.
00020a70: b00a 6a11 b001 261d b001 2800 b00a 6a14  ..j...&...(...j.
00020a80: b001 2913 b001 2a07 b00a 6a16 b001 2b18  ..)...*...j...+.
00020a90: b00a 6a2d b00a 6a2e b00a 6a01 b001 2a27  ..j-..j...j...*'
00020aa0: b001 2906 b00a 6a0d b001 281d b001 2704  ..)...j...(...'.
00020ab0: b00a 6a2c b001 2601 b00a 6a2d b001 2901  ..j,..&...j-..).
00020ac0: b00a 6a2d b001 2c01 b00a 6a2c b001 2f02  ..j-..,...j,../.
00020ad0: b00a 6a2c b001 3201 b00a 6a2d b001 3601  ..j,..2...j-..6.
00020ae0: b00a 6a2d b001 3901 b00a 6a2c b001 3c02  ..j-..9...j,..<.
00020af0: b00a 6a2c b001 3f01 b00a 6a2d b001 4201  ..j,..?...j-..B.
00020b00: b001 4300 b00a 6a2e b00a 6a00 b001 3d2d  ..C...j...j...=-
00020b10: b001 3801 b00a 6a2d b00a 6a00 b001 332e  ..8...j-..j...3.
00020b20: b001 2d00 b00a 6a2e b00a 6a00 b001 282d  ..-...j...j...(-
00020b30: b001 2301 b00a 6a02 b001 232b b00a 6a2e  ..#...j...#+..j.
00020b40: b00a 6a2e b00a 6a2e b00a 6a2d b00a 6a2e  ..j...j...j-..j.
00020b50: b00a 6a2e b00a 6a2e b00a 6a2d b00a 6a2e  ..j...j...j-..j.
00020b60: b00a 6a2e b00a 6a2e b00a 6a2d b00a 6a17  ..j...j...j-..j.
00020b70: b001 2317 b00a 6a17 b001 2317 b00a 6a17  ..#...j...#...j.
00020b80: b001 2417 b00a 6a16 b001 2517 b00a 6a17  ..$...j...%...j.
00020b90: b001 2617 b00a 6a17 b001 2617 b00a 6a17  ..&...j...&...j.
00020ba0: b001 2717 b00a 6a16 b001 2817 b00a 6a17  ..'...j...(...j.
00020bb0: b001 2917 b00a 6a17 b001 2a17 b00a 6a17  ..)...j...*...j.
00020bc0: b001 2a17 b00a 6a16 b001 2b17 b00a 6a17  ..*...j...+...j.
00020bd0: b001 2c14 803f 6b03 b00a 6a17 b001 2d17  ..,..?k...j...-.
00020be0: b00a 6a17 b001 2e17 b00a 6a16 b001 2e17  ..j.......j.....
00020bf0: b00a 6a17 b001 2f17 b00a 6a17 b001 3017  ..j.../...j...0.
00020c00: b00a 6a08 b001 3126 b00a 6a08 b001 2f25  ..j...1&..j.../%
00020c10: b00a 6a09 b001 2d25 b00a 6a08 b001 2b26  ..j...-%..j...+&
00020c20: b00a 6a08 b001 2926 b00a 6a08 b001 2825  ..j...)&..j...(%
00020c30: b00a 6a09 b001 2625 b00a 6a08 b001 2426  ..j...&%..j...$&
00020c40: b00a 6a08 b001 2226 b00a 6a08 b001 2125  ..j..."&..j...!%
00020c50: b00a 6a09 b001 1f16 9041 100f b00a 6a08  ..j......A....j.
00020c60: b001 1d26 b00a 6a08 b001 1b26 b00a 6a08  ...&..j....&..j.
00020c70: b001 1925 b00a 6a09 b001 1825 b00a 6a08  ...%..j....%..j.
00020c80: b001 1626 b00a 6a08 b001 1426 b00a 6a08  ...&..j....&..j.
00020c90: b001 1225 b00a 6a09 b001 1125 b00a 6a08  ...%..j....%..j.
00020ca0: b001 0f26 b00a 6908 b001 0d26 b00a 6908  ...&..i....&..i.
00020cb0: b001 0b25 b00a 6909 b001 0925 b00a 6908  ...%..i....%..i.
00020cc0: b001 0826 b00a 6908 b001 0626 b00a 6908  ...&..i....&..i.
00020cd0: b001 0425 b00a 6909 b001 0225 b00a 6908  ...%..i....%..i.
00020ce0: b001 0101 b001 0125 b00a 6909 b001 0125  .......%..i....%
00020cf0: b00a 6909 b001 0124 b00a 6909 b001 0125  ..i....$..i....%
00020d00: b00a 6909 b001 0125 b00a 6909 b001 0125  ..i....%..i....%
00020d10: b00a 6909 b001 0124 b00a 6909 b001 0125  ..i....$..i....%
00020d20: b00a 6909 b001 0125 b00a 6909 b001 0120  ..i....%..i.... 
00020d30: 803e 5f05 b00a 6909 b001 0124 b00a 6909  .>_...i....$..i.
00020d40: b001 0125 b00a 6909 b001 0025 b00a 6909  ...%..i....%..i.
00020d50: b001 0025 b00a 6909 b001 0024 b00a 6909  ...%..i....$..i.
00020d60: b001 0025 b00a 6909 b001 0025 b00a 6909  ...%..i....%..i.
00020d70: b001 0025 b00a 6909 b001 0024 b00a 6909  ...%..i....$..i.
00020d80: b001 0025 b00a 6909 b001 0025 b00a 6909  ...%..i....%..i.
00020d90: b001 0025 b00a 6909 b001 0024 b00a 6909  ...%..i....$..i.
00020da0: b001 0025 b00a 6909 b001 0025 b00a 6909  ...%..i....%..i.
00020db0: b001 0014 b001 0011 b00a 692d b00a 692e  ..........i-..i.
00020dc0: b00a 692e b00a 692e b00a 692d b00a 692e  ..i...i...i-..i.
00020dd0: b00a 692e b00a 692e b00a 692d b00a 692e  ..i...i...i-..i.
00020de0: b00a 692e b00a 692e b00a 692d b00a 692e  ..i...i...i-..i.
00020df0: b00a 692e b00a 6911 8041 361d b00a 692d  ..i...i..A6...i-
00020e00: b00a 692e b00a 692e b00a 692e b00a 692d  ..i...i...i...i-
00020e10: b00a 692e b00a 692e b00a 692e b00a 692d  ..i...i...i...i-
00020e20: b00a 692e b00a 692e b00a 692e b00a 692d  ..i...i...i...i-
00020e30: b00a 692e b00a 692e b00a 692e b00a 692d  ..i...i...i...i-
00020e40: b00a 692e b00a 692e b00a 692e b00a 692d  ..i...i...i...i-
00020e50: b00a 692e b00a 692e b00a 692e b00a 692d  ..i...i...i...i-
00020e60: b00a 692e b00a 692e b00a 692e b00a 692d  ..i...i...i...i-
00020e70: b00a 692e b00a 692e b00a 692e b00a 692d  ..i...i...i...i-
00020e80: b00a 692e b00a 692e b00a 692e b00a 692d  ..i...i...i...i-
00020e90: b00a 692e b00a 692e b00a 692e b00a 692d  ..i...i...i...i-
00020ea0: b00a 692e b00a 692e b00a 692e b00a 692d  ..i...i...i...i-
00020eb0: b00a 692e b00a 692e b00a 692e b00a 692d  ..i...i...i...i-
00020ec0: b00a 692e b00a 692e b00a 692e b00a 692d  ..i...i...i...i-
00020ed0: b00a 692e b00a 692e b00a 692e b00a 692d  ..i...i...i...i-
00020ee0: b00a 692e b00a 692e b00a 692e b00a 692d  ..i...i...i...i-
00020ef0: b00a 692e b00a 692e b00a 692e b00a 692d  ..i...i...i...i-
00020f00: b00a 692e b00a 692e b00a 692e b00a 692d  ..i...i...i...i-
00020f10: b00a 692e b00a 6923 b00a 692d b00a 682e  ..i...i#..i-..h.
00020f20: b00a 672e b00a 662e b00a 662d b00a 652e  ..g...f...f-..e.
00020f30: b00a 642e b00a 642e b00a 632d b00a 622e  ..d...d...c-..b.
00020f40: b00a 622e b00a 612e b00a 602d b00a 602e  ..b...a...`-..`.
00020f50: b00a 5f2e b00a 5e2e b00a 5e2d b00a 5d2e  .._...^...^-..].
00020f60: b00a 5c2e b00a 5c2e b00a 5b2d b00a 5a2e  ..\...\...[-..Z.
00020f70: b00a 5a2e b00a 592e b00a 582d b00a 582e  ..Z...Y...X-..X.
00020f80: b00a 572e b00a 562e b00a 562d b00a 552e  ..W...V...V-..U.
00020f90: b00a 542e b00a 542e b00a 532d b00a 522e  ..T...T...S-..R.
00020fa0: b00a 512e b00a 512e b00a 502d b00a 4f2e  ..Q...Q...P-..O.
00020fb0: b00a 4f2e b00a 4e2e b00a 4d2d b00a 4d2e  ..O...N...M-..M.
00020fc0: b00a 4c2e b00a 4b2e b00a 4b2d b00a 4a2e  ..L...K...K-..J.
00020fd0: b00a 492e b00a 492e b00a 482d b00a 472e  ..I...I...H-..G.
00020fe0: b00a 472e b00a 462e b00a 452d b00a 452e  ..G...F...E-..E.
00020ff0: b00a 442e b00a 432e b00a 432d b00a 422e  ..D...C...C-..B.
00021000: b00a 412e b00a 412e b00a 401a b00a 40c3  ..A...A...@...@.
00021010: 0db0 0100 915f b007 7f2d b007 6e2e b007  ....._...-..n...
00021020: 5e2e b007 4e2e b007 3d10 b007 382e b007  ^...N...=...8...
00021030: 3b2d b007 3e2e b007 412e b007 4501 9059  ;-..>...A...E..Y
00021040: 0100 904d 012d b007 482d b007 4b2e b007  ...M.-..H-..K...
00021050: 4f2e b007 522e b007 552d b007 592e b007  O...R...U-..Y...
00021060: 5c2e b007 5f2e b007 622d b007 660a b007  \..._...b-..f...
00021070: 6793 31b0 0767 2eb0 0766 2eb0 0765 2db0  g.1..g...f...e-.
00021080: 0764 2eb0 0763 2eb0 0762 2eb0 0761 2db0  .d...c...b...a-.
00021090: 0760 2eb0 075f 2eb0 075e 2eb0 075d 2db0  .`..._...^...]-.
000210a0: 075d 2eb0 075c 2eb0 075b 2eb0 075a 2db0  .]...\...[...Z-.
000210b0: 0759 2eb0 0758 2eb0 0757 2eb0 0756 2db0  .Y...X...W...V-.
000210c0: 0755 2eb0 0754 2eb0 0754 2eb0 0753 2db0  .U...T...T...S-.
000210d0: 0752 2eb0 0751 2eb0 0750 2eb0 074f 2db0  .R...Q...P...O-.
000210e0: 074e 2eb0 074d 2eb0 074c 2eb0 074b 2db0  .N...M...L...K-.
000210f0: 074b 2eb0 074a 2eb0 0749 2eb0 0748 2db0  .K...J...I...H-.
00021100: 0747 2eb0 0746 2eb0 0745 2eb0 0744 2db0  .G...F...E...D-.
00021110: 0743 2eb0 0742 2eb0 0741 2eb0 0741 2db0  .C...B...A...A-.
00021120: 0740 2eb0 073f 2eb0 073e 2eb0 073d 2db0  .@...?...>...=-.
00021130: 073c 2eb0 073b 2eb0 073a 2eb0 0739 2db0  .<...;...:...9-.
00021140: 0738 2eb0 0738 2eb0 0737 2eb0 0736 2db0  .8...8...7...6-.
00021150: 0735 2eb0 0734 2eb0 0733 2eb0 0732 2db0  .5...4...3...2-.
00021160: 0731 2eb0 0730 2eb0 072f 2eb0 072f 2db0  .1...0.../.../-.
00021170: 072e 2eb0 072d 2eb0 072c 2eb0 072b 2db0  .....-...,...+-.
00021180: 072a 2eb0 0729 2eb0 0728 2eb0 0727 2db0  .*...)...(...'-.
00021190: 0726 2d80 5960 0080 4d61 00b0 0726 2eb0  .&-.Y`..Ma...&..
000211a0: 0726 2eb0 0726 2db0 0726 2eb0 0726 2eb0  .&...&-..&...&..
000211b0: 0726 2eb0 0726 2db0 0726 2eb0 0726 2eb0  .&...&-..&...&..
000211c0: 0727 2eb0 0727 2db0 0727 2eb0 0727 2eb0  .'...'-..'...'..
000211d0: 0727 2eb0 0727 2db0 0727 2eb0 0727 2eb0  .'...'-..'...'..
000211e0: 0728 2eb0 0728 2db0 0728 2eb0 0728 2eb0  .(...(-..(...(..
000211f0: 0728 2eb0 0728 2db0 0728 2eb0 0728 2eb0  .(...(-..(...(..
00021200: 0729 2eb0 0729 2db0 0729 2eb0 0729 2eb0  .)...)-..)...)..
00021210: 0729 2eb0 0729 2db0 0729 2eb0 0729 2eb0  .)...)-..)...)..
00021220: 0729 2eb0 072a 2db0 072a 2eb0 072a 2eb0  .)...*-..*...*..
00021230: 072a 2eb0 072a 2db0 072a 2eb0 072a 2eb0  .*...*-..*...*..
00021240: 072a 2eb0 072b 2db0 072b 2eb0 072b 2eb0  .*...+-..+...+..
00021250: 072b 2eb0 072b 2db0 072b 2eb0 072b 2eb0  .+...+-..+...+..
00021260: 072b 2ab0 072c 2eb0 072a 2db0 0729 2eb0  .+*..,...*-..)..
00021270: 0728 2eb0 0726 2eb0 0725 2db0 0723 2eb0  .(...&...%-..#..
00021280: 0722 2eb0 0721 2eb0 071f 2db0 071e 2eb0  ."...!....-.....
00021290: 071c 2eb0 071b 2eb0 071a 2db0 0718 2eb0  ..........-.....
000212a0: 0717 2eb0 0715 2eb0 0714 2db0 0713 2eb0  ..........-.....
000212b0: 0711 2eb0 0710 2eb0 070e 2db0 070d 2eb0  ..........-.....
000212c0: 070c 2eb0 070a 2eb0 0709 2db0 0707 2eb0  ..........-.....
000212d0: 0706 2eb0 0705 2eb0 0703 2db0 0702 2eb0  ..........-.....
000212e0: 0701 21b0 0700 83f7 05b0 0700 2eb0 0703  ..!.............
000212f0: 2eb0 0706 2eb0 070a 2db0 070d 2eb0 0711  ........-.......
00021300: 2eb0 0714 2eb0 0718 2db0 071b 2eb0 071f  ........-.......
00021310: 2eb0 0722 2eb0 0726 2db0 0729 2eb0 072c  ..."...&-..)...,
00021320: 2eb0 0730 2eb0 0733 2db0 0737 2eb0 073a  ...0...3-..7...:
00021330: 2eb0 073e 2eb0 0741 2db0 0745 2eb0 0748  ...>...A-..E...H
00021340: 2eb0 074c 2eb0 074f 2db0 0753 2eb0 0756  ...L...O-..S...V
00021350: 2eb0 0759 2eb0 075d 2db0 0760 2eb0 0764  ...Y...]-..`...d
00021360: 2eb0 0767 2eb0 076b 2db0 076e 2eb0 0772  ...g...k-..n...r
00021370: 2eb0 0775 2eb0 0779 2db0 077c 21b0 077f  ...u...y-..|!...
00021380: 8701 b001 2d12 b001 2b12 b001 295b b001  ....-...+...)[..
00021390: 282e b001 272e b001 262d b001 262e b001  (...'...&-..&...
000213a0: 252e b001 242e b001 242d b001 232e b001  %...$...$-..#...
000213b0: 222e b001 2205 b001 2200 b001 2a23 b001  "..."..."...*#..
000213c0: 1d2e b001 1f2e b001 222d b001 252e b001  ........"-..%...
000213d0: 272e b001 2a0b b001 2b00 903e 4600 9040  '...*...+..>F..@
000213e0: 4b2e b001 292e b001 282d b001 272e b001  K...)...(-..'...
000213f0: 262e b001 252e b001 242d b001 232e b001  &...%...$-..#...
00021400: 222e b001 212e b001 202d b001 1f2e b001  "...!... -......
00021410: 1e2e b001 1d05 803e 4e00 8040 3c29 b001  .......>N..@<)..
00021420: 1c2d b001 1b22 903e 4600 9040 4b0c b001  .-...".>F..@K...
00021430: 1a2e b001 192e b001 182d b001 172e b001  .........-......
00021440: 162d b001 162e b001 162e b001 162d b001  .-...........-..
00021450: 172e b001 172e b001 170b 803e 4b23 b001  ...........>K#..
00021460: 182d b001 1828 8040 4c06 b001 182e b001  .-...(.@L.......
00021470: 192e b001 1916 903e 4e00 9040 5e17 b001  .......>N..@^...
00021480: 192e b001 1a2e b001 1a2e b001 1a2d b001  .............-..
00021490: 1b2e b001 1b2e b001 1b2e b001 1c10 803e  ...............>
000214a0: 5f00 8040 5f1d b001 1c2e b001 1d2d 903d  _..@_........-.=
000214b0: 6000 9040 5801 b001 1d2e b001 1d2d b001  `..@X........-..
000214c0: 1e2e b001 1e2e b001 1e2e b001 1f2d b001  .............-..
000214d0: 1f2e b001 1f2e b001 202e b001 202d b001  ........ ... -..
000214e0: 200e b001 2182 3eb0 0122 35b0 0123 12b0   ...!.>.."5..#..
000214f0: 0124 6ab0 0125 00b0 0125 2eb0 0124 2db0  .$j..%...%...$-.
00021500: 0124 2eb0 0123 2eb0 0123 2eb0 0122 2db0  .$...#...#..."-.
00021510: 0122 2eb0 0121 2eb0 0121 2eb0 0120 2db0  ."...!...!... -.
00021520: 0120 10b0 0120 2eb0 0120 2eb0 0120 2db0  . ... ... ... -.
00021530: 0121 2eb0 0122 2eb0 0123 2eb0 0124 2db0  .!..."...#...$-.
00021540: 0125 2880 3d4c 0080 405b 06b0 0125 2eb0  .%(.=L..@[...%..
00021550: 0126 2eb0 0127 16b0 0128 0090 3e62 0090  .&...'...(..>b..
00021560: 4058 2eb0 0127 2eb0 0127 2db0 0127 2eb0  @X...'...'-..'..
00021570: 0127 2eb0 0128 2eb0 0128 2db0 0128 2eb0  .'...(...(-..(..
00021580: 0129 2eb0 0129 2eb0 0129 16b0 012a 2eb0  .)...)...)...*..
00021590: 0129 2eb0 0129 0e80 4060 0e80 3e53 11b0  .)...)..@`..>S..
000215a0: 0129 2eb0 0127 2eb0 0126 0b90 3e58 0090  .)...'...&..>X..
000215b0: 4045 23b0 0125 2db0 0124 2eb0 0123 2eb0  @E#..%-..$...#..
000215c0: 0122 2eb0 0121 16b0 0121 2eb0 0121 2eb0  ."...!...!...!..
000215d0: 0121 2db0 0121 2eb0 0121 2eb0 0121 2eb0  .!-..!...!...!..
000215e0: 0121 2db0 0121 2880 3e44 0580 405a 01b0  .!-..!(.>D..@Z..
000215f0: 0122 2eb0 0123 2eb0 0124 1690 3e54 0090  ."...#...$..>T..
00021600: 404b 17b0 0125 2eb0 0126 2eb0 0127 2eb0  @K...%...&...'..
00021610: 0128 2db0 0129 22b0 012a 2eb0 0129 2eb0  .(-..)"..*...)..
00021620: 0129 1c80 3e3e 0080 405c 11b0 012a 2eb0  .)..>>..@\...*..
00021630: 012b 2eb0 012c 0b90 404b 0090 3d5c 23b0  .+...,..@K..=\#.
00021640: 012d 2db0 012e 2eb0 012e 2eb0 012f 2eb0  .--........../..
00021650: 0130 16b0 0131 2eb0 012f 2eb0 012e 2db0  .0...1.../....-.
00021660: 012d 2eb0 012c 2eb0 012b 2eb0 012a 2db0  .-...,...+...*-.
00021670: 0129 2eb0 0128 2eb0 0127 2eb0 0126 1680  .)...(...'...&..
00021680: 406d 0080 3d6d 17b0 0125 2eb0 0124 2eb0  @m..=m...%...$..
00021690: 0123 2eb0 0122 2db0 0121 2eb0 0120 2eb0  .#..."-..!... ..
000216a0: 011f 2eb0 011e 2db0 011d 2eb0 011c 2db0  ......-.......-.
000216b0: 011c 2eb0 0124 2eb0 012d 2db0 0135 26b0  .....$...--..5&.
000216c0: 013d 00ff 2f00 4d54 726b 0000 00c0 00ff  .=../.MTrk......
000216d0: 010a 4220 5472 656d 204c 6f77 00b0 0b7f  ..B Trem Low....
000216e0: 00b0 077f 00b0 077f 8190 01b0 0156 09b0  .............V..
000216f0: 0150 0ab0 0149 1cb0 0136 2eb0 0138 2eb0  .P...I...6...8..
00021700: 013a 2db0 013c 2eb0 013e 2eb0 0140 0b90  .:-..<...>...@..
00021710: 2640 0090 1a4e 23b0 0142 2db0 0144 2eb0  &@...N#..B-..D..
00021720: 0146 2eb0 0148 2eb0 014b 2db0 014d 2eb0  .F...H...K-..M..
00021730: 014f 2eb0 0151 25b0 0153 09b0 0154 12b0  .O...Q%..S...T..
00021740: 0155 09b0 0156 09b0 0157 09b0 0158 13b0  .U...V...W...X..
00021750: 0159 09b0 015a 12b0 015b 12b0 015c 13b0  .Y...Z...[...\..
00021760: 015d 09b0 015e 09b0 015f 12b0 0161 09b0  .]...^..._...a..
00021770: 0162 09b0 0163 0ab0 0164 2db0 0166 00b0  .b...c...d-..f..
00021780: 0167 5280 2665 0080 1a72 00ff 2f00 4d54  .gR.&e...r../.MT
00021790: 726b 0000 0b49 00ff 0108 4353 5320 5472  rk...I....CSS Tr
000217a0: 656d 00b0 0b7f 00b0 077f 00b0 077f 00b0  em..............
000217b0: 0133 2eb0 0133 2eb0 0133 2db0 0133 2eb0  .3...3...3-..3..
000217c0: 0133 2eb0 0133 2eb0 0133 2db0 0133 2eb0  .3...3...3-..3..
000217d0: 0133 2eb0 0133 2eb0 0133 2db0 0133 2eb0  .3...3...3-..3..
000217e0: 0133 2eb0 0133 2eb0 0133 2db0 0133 2eb0  .3...3...3-..3..
000217f0: 0133 2eb0 0133 2eb0 0133 2db0 0133 2eb0  .3...3...3-..3..
00021800: 0133 2eb0 0133 2eb0 0133 2db0 0133 2eb0  .3...3...3-..3..
00021810: 0133 2eb0 0133 2eb0 0133 2db0 0133 2eb0  .3...3...3-..3..
00021820: 0133 2eb0 0133 2eb0 0133 2db0 0133 2eb0  .3...3...3-..3..
00021830: 0133 2eb0 0133 2eb0 0133 2db0 0133 2eb0  .3...3...3-..3..
00021840: 0133 2eb0 0133 2eb0 0133 2db0 0133 2eb0  .3...3...3-..3..
00021850: 0133 2eb0 0133 2eb0 0133 2db0 0133 2eb0  .3...3...3-..3..
00021860: 0133 2eb0 0133 2eb0 0133 2db0 0133 2eb0  .3...3...3-..3..
00021870: 0133 2eb0 0133 2eb0 0133 2db0 0133 2eb0  .3...3...3-..3..
00021880: 0133 2eb0 0133 2eb0 0133 2db0 0133 2eb0  .3...3...3-..3..
00021890: 0133 2eb0 0133 2eb0 0133 2db0 0133 2eb0  .3...3...3-..3..
000218a0: 0133 2eb0 0133 2eb0 0133 2db0 0133 2eb0  .3...3...3-..3..
000218b0: 0133 2eb0 0133 2eb0 0133 2db0 0133 2eb0  .3...3...3-..3..
000218c0: 0133 2eb0 0133 2eb0 0133 2db0 0133 2eb0  .3...3...3-..3..
000218d0: 0133 2eb0 0133 2eb0 0133 2db0 0133 2eb0  .3...3...3-..3..
000218e0: 0133 2eb0 0133 2eb0 0133 2db0 0133 2eb0  .3...3...3-..3..
000218f0: 0133 2eb0 0133 2eb0 0133 2db0 0133 2eb0  .3...3...3-..3..
00021900: 0133 2eb0 0133 2eb0 0133 2db0 0133 2eb0  .3...3...3-..3..
00021910: 0133 2eb0 0133 2eb0 0133 2db0 0133 2eb0  .3...3...3-..3..
00021920: 0133 2eb0 0133 2eb0 0133 2db0 0133 2eb0  .3...3...3-..3..
00021930: 0133 2eb0 0133 2eb0 0133 2db0 0133 2eb0  .3...3...3-..3..
00021940: 0133 2eb0 0133 2eb0 0133 2db0 0133 2eb0  .3...3...3-..3..
00021950: 0133 2eb0 0133 2eb0 0133 2db0 0133 2eb0  .3...3...3-..3..
00021960: 0133 2eb0 0133 2eb0 0133 2db0 0133 2eb0  .3...3...3-..3..
00021970: 0133 2eb0 0133 2eb0 0133 2db0 0133 2eb0  .3...3...3-..3..
00021980: 0133 2eb0 0133 2eb0 0133 2db0 0133 2eb0  .3...3...3-..3..
00021990: 0133 2eb0 0133 2eb0 0133 2db0 0133 2eb0  .3...3...3-..3..
000219a0: 0133 2eb0 0133 2eb0 0133 2db0 0133 2eb0  .3...3...3-..3..
000219b0: 0133 2eb0 0133 2eb0 0133 2db0 0133 2eb0  .3...3...3-..3..
000219c0: 0133 2eb0 0133 2eb0 0133 2db0 0133 2eb0  .3...3...3-..3..
000219d0: 0133 2eb0 0133 2eb0 0133 2db0 0133 2eb0  .3...3...3-..3..
000219e0: 0133 2eb0 0133 2eb0 0133 2db0 0133 2eb0  .3...3...3-..3..
000219f0: 0133 2eb0 0133 2eb0 0133 2db0 0133 2eb0  .3...3...3-..3..
00021a00: 0133 2eb0 0133 2eb0 0133 2db0 0133 2eb0  .3...3...3-..3..
00021a10: 0133 2eb0 0133 2eb0 0133 2db0 0133 2eb0  .3...3...3-..3..
00021a20: 0133 2eb0 0133 2eb0 0133 2db0 0133 2eb0  .3...3...3-..3..
00021a30: 0133 2eb0 0133 2eb0 0133 2db0 0133 2eb0  .3...3...3-..3..
00021a40: 0133 2eb0 0133 2eb0 0133 2db0 0133 2eb0  .3...3...3-..3..
00021a50: 0133 2eb0 0133 2eb0 0133 2db0 0133 2eb0  .3...3...3-..3..
00021a60: 0133 2eb0 0133 2eb0 0133 2db0 0133 2eb0  .3...3...3-..3..
00021a70: 0133 2eb0 0133 2eb0 0133 2db0 0133 2eb0  .3...3...3-..3..
00021a80: 0133 2eb0 0133 2eb0 0133 2db0 0133 2eb0  .3...3...3-..3..
00021a90: 0133 2eb0 0133 2eb0 0133 2db0 0133 2eb0  .3...3...3-..3..
00021aa0: 0133 2eb0 0133 2eb0 0133 2db0 0133 2eb0  .3...3...3-..3..
00021ab0: 0133 2eb0 0133 2eb0 0133 2db0 0133 2eb0  .3...3...3-..3..
00021ac0: 0133 2eb0 0133 2eb0 0133 2db0 0133 2eb0  .3...3...3-..3..
00021ad0: 0133 2eb0 0133 2eb0 0133 2db0 0133 2eb0  .3...3...3-..3..
00021ae0: 0133 2eb0 0133 2eb0 0133 2db0 0133 2eb0  .3...3...3-..3..
00021af0: 0133 2eb0 0133 2eb0 0133 2db0 0133 2eb0  .3...3...3-..3..
00021b00: 0133 2eb0 0133 2eb0 0133 2db0 0133 2eb0  .3...3...3-..3..
00021b10: 0133 2eb0 0133 2eb0 0133 2db0 0133 2eb0  .3...3...3-..3..
00021b20: 0133 2eb0 0133 2eb0 0133 2db0 0133 2eb0  .3...3...3-..3..
00021b30: 0133 2eb0 0133 2eb0 0133 2db0 0133 2eb0  .3...3...3-..3..
00021b40: 0133 2eb0 0133 2eb0 0133 2db0 0133 2eb0  .3...3...3-..3..
00021b50: 0133 2eb0 0133 2eb0 0134 2db0 0134 2eb0  .3...3...4-..4..
00021b60: 0134 2eb0 0134 2eb0 0134 2db0 0134 2eb0  .4...4...4-..4..
00021b70: 0134 2eb0 0134 2eb0 0134 2db0 0134 2eb0  .4...4...4-..4..
00021b80: 0134 2eb0 0134 2eb0 0134 2db0 0134 2eb0  .4...4...4-..4..
00021b90: 0134 2eb0 0134 2eb0 0134 2db0 0134 2eb0  .4...4...4-..4..
00021ba0: 0134 2eb0 0134 2eb0 0134 2db0 0134 2eb0  .4...4...4-..4..
00021bb0: 0134 2eb0 0134 2eb0 0134 2db0 0134 2eb0  .4...4...4-..4..
00021bc0: 0134 2eb0 0134 2eb0 0134 2db0 0134 2eb0  .4...4...4-..4..
00021bd0: 0134 2eb0 0134 2eb0 0134 2db0 0134 2eb0  .4...4...4-..4..
00021be0: 0134 2eb0 0134 2eb0 0134 2db0 0134 2eb0  .4...4...4-..4..
00021bf0: 0134 2eb0 0134 2eb0 0134 2db0 0134 2eb0  .4...4...4-..4..
00021c00: 0134 2eb0 0134 2eb0 0134 2db0 0134 2eb0  .4...4...4-..4..
00021c10: 0134 2eb0 0134 2eb0 0134 2db0 0134 2eb0  .4...4...4-..4..
00021c20: 0134 2eb0 0134 2eb0 0134 2db0 0134 2eb0  .4...4...4-..4..
00021c30: 0134 2eb0 0134 2eb0 0134 2db0 0134 2eb0  .4...4...4-..4..
00021c40: 0134 2eb0 0134 2eb0 0134 2db0 0134 2eb0  .4...4...4-..4..
00021c50: 0134 2eb0 0134 2eb0 0134 2db0 0134 2eb0  .4...4...4-..4..
00021c60: 0134 2eb0 0134 2eb0 0134 2db0 0134 2eb0  .4...4...4-..4..
00021c70: 0134 2eb0 0134 2eb0 0134 2db0 0134 2eb0  .4...4...4-..4..
00021c80: 0134 2eb0 0134 2eb0 0134 2db0 0134 2eb0  .4...4...4-..4..
00021c90: 0134 2eb0 0134 2eb0 0134 2db0 0134 2eb0  .4...4...4-..4..
00021ca0: 0134 2eb0 0134 2eb0 0134 2db0 0134 2eb0  .4...4...4-..4..
00021cb0: 0134 2eb0 0134 2eb0 0134 2db0 0134 2eb0  .4...4...4-..4..
00021cc0: 0134 2eb0 0134 2eb0 0134 2db0 0134 2eb0  .4...4...4-..4..
00021cd0: 0134 2eb0 0134 2eb0 0134 2db0 0134 2eb0  .4...4...4-..4..
00021ce0: 0134 2eb0 0134 2eb0 0134 2db0 0134 2eb0  .4...4...4-..4..
00021cf0: 0134 2eb0 0134 2eb0 0134 2db0 0134 2eb0  .4...4...4-..4..
00021d00: 0134 2eb0 0134 2eb0 0134 2db0 0134 2eb0  .4...4...4-..4..
00021d10: 0134 2eb0 0134 2eb0 0134 2db0 0134 2eb0  .4...4...4-..4..
00021d20: 0134 2eb0 0134 2eb0 0134 2db0 0134 2eb0  .4...4...4-..4..
00021d30: 0134 2eb0 0134 2eb0 0134 2db0 0134 2eb0  .4...4...4-..4..
00021d40: 0134 2eb0 0134 2eb0 0134 2db0 0134 2eb0  .4...4...4-..4..
00021d50: 0134 2eb0 0134 2eb0 0134 2db0 0134 2eb0  .4...4...4-..4..
00021d60: 0134 2eb0 0134 2eb0 0134 2db0 0134 2eb0  .4...4...4-..4..
00021d70: 0134 2eb0 0134 2eb0 0134 2db0 0134 2eb0  .4...4...4-..4..
00021d80: 0134 2eb0 0134 2eb0 0134 2db0 0134 2eb0  .4...4...4-..4..
00021d90: 0134 2eb0 0134 2eb0 0134 2db0 0134 2eb0  .4...4...4-..4..
00021da0: 0134 2eb0 0134 2eb0 0134 2db0 0134 2eb0  .4...4...4-..4..
00021db0: 0134 2eb0 0134 2eb0 0134 2db0 0134 2eb0  .4...4...4-..4..
00021dc0: 0134 2eb0 0134 2eb0 0134 2db0 0134 2eb0  .4...4...4-..4..
00021dd0: 0134 2eb0 0134 2eb0 0134 2db0 0134 2eb0  .4...4...4-..4..
00021de0: 0134 2eb0 0134 2eb0 0134 2db0 0134 2eb0  .4...4...4-..4..
00021df0: 0134 2eb0 0134 2eb0 0134 2db0 0134 2eb0  .4...4...4-..4..
00021e00: 0134 2eb0 0134 2eb0 0134 2db0 0134 2eb0  .4...4...4-..4..
00021e10: 0134 2eb0 0134 2eb0 0134 2db0 0134 2eb0  .4...4...4-..4..
00021e20: 0134 2eb0 0134 2eb0 0134 2db0 0134 2eb0  .4...4...4-..4..
00021e30: 0134 2eb0 0134 2eb0 0134 2db0 0134 2eb0  .4...4...4-..4..
00021e40: 0134 2eb0 0134 2eb0 0134 2db0 0134 2eb0  .4...4...4-..4..
00021e50: 0134 2eb0 0134 2eb0 0134 2db0 0134 2eb0  .4...4...4-..4..
00021e60: 0134 2eb0 0134 2eb0 0134 2db0 0134 2eb0  .4...4...4-..4..
00021e70: 0134 2eb0 0134 2eb0 0134 2db0 0134 2eb0  .4...4...4-..4..
00021e80: 0134 2eb0 0134 2eb0 0134 2db0 0134 2eb0  .4...4...4-..4..
00021e90: 0134 2eb0 0134 2eb0 0134 2db0 0134 2eb0  .4...4...4-..4..
00021ea0: 0134 2eb0 0134 2eb0 0134 2db0 0134 2eb0  .4...4...4-..4..
00021eb0: 0134 2eb0 0134 2eb0 0134 2db0 0134 2eb0  .4...4...4-..4..
00021ec0: 0134 2eb0 0134 2eb0 0134 2db0 0134 2eb0  .4...4...4-..4..
00021ed0: 0134 2eb0 0134 2eb0 0134 2db0 0134 2eb0  .4...4...4-..4..
00021ee0: 0134 2eb0 0134 2eb0 0134 2db0 0134 2eb0  .4...4...4-..4..
00021ef0: 0134 2eb0 0134 2eb0 0134 2db0 0134 14b0  .4...4...4-..4..
00021f00: 0135 2eb0 0131 2eb0 012d 2db0 012a 2eb0  .5...1...--..*..
00021f10: 0126 20b0 0124 21b0 011f 2eb0 0124 2990  .& ..$!......$).
00021f20: 4559 05b0 0129 2db0 012f 2eb0 0134 2eb0  EY...)-../...4..
00021f30: 013a 2eb0 013f 2db0 0144 0790 4444 0bb0  .:...?-..D..DD..
00021f40: 0147 2eb0 0141 2eb0 013c 2db0 0136 2eb0  .G...A...<-..6..
00021f50: 0131 2eb0 012c 1cb0 0129 2eb0 0129 2db0  .1...,...)...)-.
00021f60: 012a 2eb0 012a 2eb0 012b 2eb0 012c 2db0  .*...*...+...,-.
00021f70: 012c 2eb0 012f 2eb0 0132 2eb0 0135 2db0  .,.../...2...5-.
00021f80: 0139 2eb0 013c 2eb0 013f 2eb0 0143 0db0  .9...<...?...C..
00021f90: 0144 2eb0 013e 2eb0 0139 2db0 0134 2eb0  .D...>...9-..4..
00021fa0: 0132 2eb0 0130 2eb0 012e 2db0 012c 2eb0  .2...0....-..,..
00021fb0: 012a 2eb0 0129 2eb0 0127 1eb0 0126 2eb0  .*...)...'...&..
00021fc0: 0126 2eb0 0126 2db0 0127 2eb0 0127 2eb0  .&...&-..'...'..
00021fd0: 0128 2eb0 0128 2db0 0128 2eb0 0129 2eb0  .(...(-..(...)..
00021fe0: 0129 1880 4464 0090 4444 07b0 012a 2eb0  .)..Dd..DD...*..
00021ff0: 012b 2eb0 012b 2eb0 012c 2db0 012e 2eb0  .+...+...,-.....
00022000: 012f 2eb0 0130 2eb0 0131 2db0 0132 2eb0  ./...0...1-..2..
00022010: 0133 2eb0 0134 2eb0 0135 2db0 0136 01b0  .3...4...5-..6..
00022020: 0137 2db0 0139 2eb0 013b 2eb0 013e 26b0  .7-..9...;...>&.
00022030: 0140 2eb0 013e 2eb0 013d 2eb0 013b 2db0  .@...>...=...;-.
00022040: 013a 2d80 4464 01b0 0138 2eb0 0137 2eb0  .:-.Dd...8...7..
00022050: 0136 2db0 0134 2eb0 0133 2eb0 0131 2eb0  .6-..4...3...1..
00022060: 0130 2db0 012e 2eb0 012d 2eb0 012c 2eb0  .0-......-...,..
00022070: 012a 2db0 0129 2eb0 0127 2eb0 0126 2eb0  .*-..)...'...&..
00022080: 0124 2db0 0123 2eb0 0122 2eb0 0120 2eb0  .$-..#..."... ..
00022090: 011f 2db0 011d 2eb0 011c 2c80 4565 02b0  ..-.......,.Ee..
000220a0: 011a 2eb0 0119 2db0 0118 2eb0 0116 2eb0  ......-.........
000220b0: 0115 2eb0 0113 2db0 0112 2eb0 0110 2eb0  ......-.........
000220c0: 010f 2eb0 010e 2db0 010c 2eb0 010b 2eb0  ......-.........
000220d0: 0109 2eb0 0108 2db0 0107 2eb0 0105 2eb0  ......-.........
000220e0: 0104 25b0 0103 8989 72b0 0109 8149 b001  ..%.....r....I..
000220f0: 0881 6eb0 0107 8100 b001 0681 00b0 0105  ..n.............
00022100: 8149 b001 045b 905b 0182 0ab0 0105 8502  .I...[.[........
00022110: b001 0636 b001 079a 1e80 5b6b 0090 5a01  ...6......[k..Z.
00022120: 8c18 805a 6b00 905b 0193 5eb0 0107 2eb0  ...Zk..[..^.....
00022130: 0106 2db0 0106 2eb0 0106 2eb0 0106 2eb0  ..-.............
00022140: 0106 2db0 0106 2eb0 0106 2eb0 0106 2eb0  ..-.............
00022150: 0106 2db0 0106 2eb0 0106 2eb0 0106 2eb0  ..-.............
00022160: 0106 2db0 0106 2eb0 0106 2eb0 0105 2eb0  ..-.............
00022170: 0105 2db0 0105 2eb0 0105 2eb0 0105 2eb0  ..-.............
00022180: 0105 2db0 0105 2eb0 0105 2eb0 0105 2eb0  ..-.............
00022190: 0105 2db0 0105 2eb0 0105 2eb0 0105 2eb0  ..-.............
000221a0: 0105 2db0 0105 2eb0 0104 2eb0 0104 2eb0  ..-.............
000221b0: 0104 2db0 0104 2eb0 0104 2eb0 0104 2eb0  ..-.............
000221c0: 0104 2db0 0104 2eb0 0104 2eb0 0104 2eb0  ..-.............
000221d0: 0104 2db0 0104 2eb0 0104 2eb0 0104 2eb0  ..-.............
000221e0: 0104 2db0 0103 2eb0 0103 2eb0 0103 2eb0  ..-.............
000221f0: 0103 2db0 0103 2eb0 0103 2eb0 0103 2eb0  ..-.............
00022200: 0103 2db0 0103 2eb0 0103 2eb0 0103 2eb0  ..-.............
00022210: 0103 2db0 0103 2eb0 0103 2eb0 0103 2eb0  ..-.............
00022220: 0102 2db0 0102 2eb0 0102 2eb0 0102 2eb0  ..-.............
00022230: 0102 2db0 0102 2eb0 0102 2eb0 0102 2eb0  ..-.............
00022240: 0102 2db0 0102 2eb0 0102 2eb0 0102 2eb0  ..-.............
00022250: 0102 2db0 0102 2eb0 0102 2eb0 0101 2eb0  ..-.............
00022260: 0101 2db0 0101 2eb0 0101 2eb0 0101 2eb0  ..-.............
00022270: 0101 2db0 0101 2eb0 0101 2eb0 0101 2eb0  ..-.............
00022280: 0101 2db0 0101 2eb0 0101 2eb0 0101 2eb0  ..-.............
00022290: 0101 2db0 0101 2eb0 0100 2eb0 0100 2eb0  ..-.............
000222a0: 0100 2db0 0100 2eb0 0100 2eb0 0100 2eb0  ..-.............
000222b0: 0100 2db0 0100 2eb0 0100 2eb0 0100 2eb0  ..-.............
000222c0: 0100 2db0 0100 2eb0 0100 2eb0 0100 2eb0  ..-.............
000222d0: 0100 0cb0 0100 815a 805b 6b00 ff2f 004d  .......Z.[k../.M
000222e0: 5472 6b00 0000 2600 ff01 1253 5350 2054  Trk...&....SSP T
000222f0: 7265 6d20 4869 6768 2053 6f66 7400 b00b  rem High Soft...
00022300: 7f00 b007 7f00 b007 7f00 ff2f 004d 5472  .........../.MTr
00022310: 6b00 0004 5100 ff01 1553 4620 456e 7320  k...Q....SF Ens 
00022320: 5370 6963 6320 5374 6163 6320 4869 00b0  Spicc Stacc Hi..
00022330: 0b7f 00b0 077f 0090 0251 0090 0351 8170  .........Q...Q.p
00022340: 8002 5e04 8003 5e86 d12c 9002 5181 7080  ..^...^..,..Q.p.
00022350: 025e 8740 9043 4600 903e 453c 8043 5000  .^.@.CF..>E<.CP.
00022360: 803e 553c 9043 4d00 903e 4c3c 8043 5000  .>U<.CM..>L<.CP.
00022370: 803e 553c 9046 4d00 9043 4d78 8046 593c  .>U<.FM..CMx.FY<
00022380: 8043 593c 9043 4100 903e 4078 8043 4900  .CY<.CA..>@x.CI.
00022390: 803e 5678 9042 4c00 9045 513c 8042 5300  .>Vx.BL..EQ<.BS.
000223a0: 8045 5c3c 9042 4c00 9045 513c 8042 5300  .E\<.BL..EQ<.BS.
000223b0: 8045 5c3c 9042 4700 9045 493c 8042 4f00  .E\<.BG..EI<.BO.
000223c0: 8045 403c 9042 4700 9045 493c 8042 4f00  .E@<.BG..EI<.BO.
000223d0: 8045 403c 9042 4600 9045 443c 8042 5b00  .E@<.BF..ED<.B[.
000223e0: 8045 433c 9042 4600 9045 443c 8042 5b00  .EC<.BF..ED<.B[.
000223f0: 8045 433c 9036 5400 903e 5581 7080 365f  .EC<.6T..>U.p.6_
00022400: 0080 3e63 8170 904a 4f00 9045 4e3c 804a  ..>c.p.JO..EN<.J
00022410: 5000 8045 553c 904a 4a00 9045 493c 804a  P..EU<.JJ..EI<.J
00022420: 5000 8045 553c 9048 4f00 9045 4e3c 8048  P..EU<.HO..EN<.H
00022430: 5000 8045 553c 9045 4900 9048 4a3c 8045  P..EU<.EI..HJ<.E
00022440: 5500 8048 503c 9045 4f00 9042 4e3c 8045  U..HP<.EO..BN<.E
00022450: 5000 8042 553c 9042 4900 9045 4a3c 8042  P..BU<.BI..EJ<.B
00022460: 5500 8045 503c 9043 4600 9046 4e3c 8043  U..EP<.CF..FN<.C
00022470: 5000 8046 553c 9043 4a00 9046 493c 8043  P..FU<.CJ..FI<.C
00022480: 5000 8046 553c 9045 4f00 903e 4e3c 8045  P..FU<.EO..>N<.E
00022490: 5000 803e 553c 903e 4900 9045 4a3c 803e  P..>U<.>I..EJ<.>
000224a0: 5500 8045 503c 9043 4e00 903e 4f3c 8043  U..EP<.CN..>O<.C
000224b0: 5500 803e 503c 9043 4900 903e 4a3c 8043  U..>P<.CI..>J<.C
000224c0: 5500 803e 503c 9043 4f00 9046 4e3c 8043  U..>P<.CO..FN<.C
000224d0: 5000 8046 5582 2c90 3e45 3c80 3e50 3c90  P..FU.,.>E<.>P<.
000224e0: 3e45 3c80 3e55 3c90 3e46 3c80 3e50 3c90  >E<.>U<.>F<.>P<.
000224f0: 3e47 3c80 3e50 3c90 3e48 3c80 3e50 3c90  >G<.>P<.>H<.>P<.
00022500: 3e47 3c80 3e55 3c90 3e4b 3c80 3e50 3c90  >G<.>U<.>K<.>P<.
00022510: 4350 0090 3e4f 3c80 435b 0080 3e42 3c90  CP..>O<.C[..>B<.
00022520: 434a 0090 3e4a 3c80 435b 0080 3e42 3c90  CJ..>J<.C[..>B<.
00022530: 484f 0090 454f 3c80 4859 0080 4552 3c90  HO..EO<.HY..ER<.
00022540: 454f 0090 484f 3c80 4552 0080 4859 3c90  EO..HO<.ER..HY<.
00022550: 454d 0090 3e4d 3c80 455f 0080 3e5b 3c90  EM..>M<.E_..>[<.
00022560: 454a 0090 3e4a 3c80 455f 0080 3e5b 3c90  EJ..>J<.E_..>[<.
00022570: 4247 0090 3947 3c80 4269 0080 3969 3c90  BG..9G<.Bi..9i<.
00022580: 3e43 3c80 3e50 3c90 3e46 3c80 3e55 3c90  >C<.>P<.>F<.>U<.
00022590: 3e47 3c80 3e50 3c90 3e48 3c80 3e50 3c90  >G<.>P<.>H<.>P<.
000225a0: 3e49 3c80 3e50 3c90 3e48 3c80 3e55 ae34  >I<.>P<.>H<.>U.4
000225b0: 9003 5181 7090 2d56 0480 035e 835c 802d  ..Q.p.-V...^.\.-
000225c0: 5981 7090 2d62 8324 802d 5882 2c90 2d62  Y.p.-b.$.-X.,.-b
000225d0: 8134 802d 5e82 2c90 2d6d 8324 802d 3f82  .4.-^.,.-m.$.-?.
000225e0: 2c90 2863 8268 8028 5182 6890 216f 8170  ,.(c.h.(Q.h.!o.p
000225f0: 8021 5581 7090 5164 0090 2d69 0090 4c64  .!U.p.Qd..-i..Ld
00022600: 0090 4564 0090 4a64 8170 8051 5500 804a  ..Ed..Jd.p.QU..J
00022610: 5500 8045 5800 804c 4b81 7080 2d5b 8170  U..EX..LK.p.-[.p
00022620: 9021 6b00 9045 6600 9051 6600 904c 6600  .!k..Ef..Qf..Lf.
00022630: 904a 6681 7080 4546 0080 4a3e 0080 4c42  .Jf.p.EF..J>..LB
00022640: 0080 514f 8170 904c 6100 904a 6100 9051  ..QO.p.La..Ja..Q
00022650: 6100 9045 613c 8021 453c 8045 6200 8051  a..Ea<.!E<.Eb..Q
00022660: 5d00 804a 6700 804c 6178 9034 5f00 9045  ]..Jg..Lax.4_..E
00022670: 5f00 902d 5f00 9051 5f00 904a 5f00 904c  _..-_..Q_..J_..L
00022680: 5f3c 8034 5f00 804c 5e00 804a 5f00 8051  _<.4_..L^..J_..Q
00022690: 5c00 802d 5c00 8045 5c3c 9034 6100 9051  \..-\..E\<.4a..Q
000226a0: 6100 902d 6100 904a 6100 9045 6100 904c  a..-a..Ja..Ea..L
000226b0: 613c 8034 6300 804c 6700 8045 6200 804a  a<.4c..Lg..Eb..J
000226c0: 6300 802d 6200 8051 5e3c 9034 6300 904a  c..-b..Q^<.4c..J
000226d0: 6300 902d 6300 9051 6300 9045 6300 904c  c..-c..Qc..Ec..L
000226e0: 633c 8034 5100 804c 6000 8045 4100 8051  c<.4Q..L`..EA..Q
000226f0: 5f00 802d 4100 804a 513c 9034 6600 9045  _..-A..JQ<.4f..E
00022700: 6600 902d 6600 904a 6600 904c 6600 9051  f..-f..Jf..Lf..Q
00022710: 663c 8034 5e00 8051 5f00 804c 5e00 804a  f<.4^..Q_..L^..J
00022720: 5e00 802d 5e00 8045 5e3c 9021 7400 902d  ^..-^..E^<.!t..-
00022730: 6800 9051 6800 9049 6800 904c 6800 9045  h..Qh..Ih..Lh..E
00022740: 6800 9034 683c 802d 5f00 8034 6c00 8045  h..4h<.-_..4l..E
00022750: 5f00 804c 5f00 8049 6c00 8051 6181 7080  _..L_..Il..Qa.p.
00022760: 215d 00ff 2f00 4d54 726b 0000 009d 00ff  !]../.MTrk......
00022770: 0116 5346 2045 6e73 2053 7069 6363 2053  ..SF Ens Spicc S
00022780: 7461 6363 204c 6f77 00b0 0b7f 00b0 077f  tacc Low........
00022790: 0090 0251 0090 0351 8170 8002 5e04 8003  ...Q...Q.p..^...
000227a0: 5e86 877b b001 7412 b001 6812 b001 5c12  ^..{..t...h...\.
000227b0: b001 5214 b001 4c10 b001 4b25 b001 5112  ..R...L...K%..Q.
000227c0: b001 5f12 b001 6f12 b001 7fa9 7c90 295e  .._...o.....|.)^
000227d0: 8268 8029 5982 6890 2963 8268 8029 5982  .h.)Y.h.)c.h.)Y.
000227e0: 6890 295e 8170 8029 4c81 7090 295e 8268  h.)^.p.)L.p.)^.h
000227f0: 8029 6182 6890 2962 8268 8029 5982 6890  .)a.h.)b.h.)Y.h.
00022800: 2964 8170 8029 4c00 ff2f 004d 5472 6b00  )d.p.)L../.MTrk.
00022810: 0000 3a00 ff01 1153 4620 2045 6e73 2020  ..:....SF  Ens  
00022820: 5370 6963 6320 4353 00b0 0b7f 00b0 0b7f  Spicc CS........
00022830: 00b0 0b7f 00b0 077f 00b0 077f 00b0 077f  ................
00022840: 0090 0d51 8170 800d 5e00 ff2f 004d 5472  ...Q.p..^../.MTr
00022850: 6b00 0000 4500 ff01 1441 4c42 3520 456e  k...E....ALB5 En
00022860: 7320 536f 6674 2053 686f 7274 7300 b00b  s Soft Shorts...
00022870: 7f00 b00b 7f00 b00b 7f00 b007 7f00 b007  ................
00022880: 7f00 b007 7f00 9001 5101 9009 5181 6f80  ........Q...Q.o.
00022890: 015e 0580 095e 00ff 2f00 4d54 726b 0000  .^...^../.MTrk..
000228a0: 0028 00ff 0114 414c 4232 2045 6e73 2053  .(....ALB2 Ens S
000228b0: 7461 6363 2028 6f73 7429 00b0 0b7f 00b0  tacc (ost)......
000228c0: 077f 00b0 077f 00ff 2f00 4d54 726b 0000  ......../.MTrk..
000228d0: 0028 00ff 0114 414c 4231 2045 6e73 2053  .(....ALB1 Ens S
000228e0: 7069 6363 2028 6f73 7429 00b0 0b7f 00b0  picc (ost)......
000228f0: 077f 00b0 077f 00ff 2f00 4d54 726b 0000  ......../.MTrk..
00022900: 0032 00ff 010e 4353 5320 456e 7320 5370  .2....CSS Ens Sp
00022910: 6963 6320 00b0 0b7f 00b0 0b7f 00b0 0b7f  icc ............
00022920: 00b0 077f 00b0 077f 00b0 077f 00b0 0100  ................
00022930: 00ff 2f00 4d54 726b 0000 00c2 00ff 010e  ../.MTrk........
00022940: 5341 4d20 456e 7320 5368 6f72 7473 00b0  SAM Ens Shorts..
00022950: 0b7f 00b0 077f 00b0 077f 9e00 b00b 5f2e  .............._.
00022960: b00b 572e b00b 4f2d b00b 4707 b00b 4684  ..W...O-..G...F.
00022970: 4090 5f3c 3c80 5f62 3c90 2c4d 0090 204e  @._<<._b<.,M.. N
00022980: 3c80 2c5c 0080 205c 0090 2c4e 0090 2051  <.,\.. \..,N.. Q
00022990: 3c80 2c4f 0080 204f 0090 204d 0090 663c  <.,O.. O.. M..f<
000229a0: 0090 2c4e 3c80 6662 5cb0 0b46 2eb0 0b43  ..,N<.fb\..F...C
000229b0: 2db0 0b40 2eb0 0b3d 2eb0 0b3b 2eb0 0b38  -..@...=...;...8
000229c0: 2db0 0b35 2eb0 0b33 2eb0 0b30 2eb0 0b2d  -..5...3...0...-
000229d0: 2db0 0b2a 2eb0 0b28 2eb0 0b25 2eb0 0b22  -..*...(...%..."
000229e0: 2db0 0b20 2eb0 0b1d 07b0 0b1d 812f 802c  -.. ........./.,
000229f0: 6b00 8020 6b84 47b0 0b5f 00ff 2f00 4d54  k.. k.G.._../.MT
00022a00: 726b 0000 002b 00ff 0117 414c 4235 2045  rk...+....ALB5 E
00022a10: 6e73 2053 6f66 7420 5368 6f72 7473 2043  ns Soft Shorts C
00022a20: 5300 b00b 7f00 b007 7f00 b007 7f00 ff2f  S............../
00022a30: 004d 5472 6b00 0000 1f00 ff01 0b48 5320  .MTrk........HS 
00022a40: 5370 6963 6320 4869 00b0 0b35 00b0 077f  Spicc Hi...5....
00022a50: 00b0 077f 00ff 2f00 4d54 726b 0000 0020  ....../.MTrk... 
00022a60: 00ff 010c 4853 2053 7069 6363 204c 6f77  ....HS Spicc Low
00022a70: 00b0 0b35 00b0 077f 00b0 077f 00ff 2f00  ...5........../.
00022a80: 4d54 726b 0000 001f 00ff 010b 4853 2053  MTrk........HS S
00022a90: 7461 6363 2048 6900 b00b 3500 b007 7f00  tacc Hi...5.....
00022aa0: b007 7f00 ff2f 004d 5472 6b00 0000 2000  ...../.MTrk... .
00022ab0: ff01 0c48 5320 5374 6163 6320 4c6f 7700  ...HS Stacc Low.
00022ac0: b00b 3500 b007 7f00 b007 7f00 ff2f 004d  ..5........../.M
00022ad0: 5472 6b00 0000 2500 ff01 1148 5320 5374  Trk...%....HS St
00022ae0: 6163 6174 6973 696d 6f20 4869 00b0 0b35  acatisimo Hi...5
00022af0: 00b0 077f 00b0 077f 00ff 2f00 4d54 726b  ........../.MTrk
00022b00: 0000 0026 00ff 0112 4853 2053 7461 6361  ...&....HS Staca
00022b10: 7461 7369 6d6f 204c 6f77 00b0 0b35 00b0  tasimo Low...5..
00022b20: 077f 00b0 077f 00ff 2f00 4d54 726b 0000  ......../.MTrk..
00022b30: 002f 00ff 011b 3844 204d 6561 7375 7265  ./....8D Measure
00022b40: 6420 2053 686f 7274 7320 5669 6f6c 696e  d  Shorts Violin
00022b50: 7300 b00b 3500 b007 7f00 b007 7f00 ff2f  s...5........../
00022b60: 004d 5472 6b00 0000 1d00 ff01 0941 4c42  .MTrk........ALB
00022b70: 3120 5069 7a7a 00b0 0b35 00b0 077f 00b0  1 Pizz...5......
00022b80: 077f 00ff 2f00 4d54 726b 0000 01b5 00ff  ..../.MTrk......
00022b90: 0109 414c 4232 2050 697a 7a00 b00b 3500  ..ALB2 Pizz...5.
00022ba0: b007 7f00 b007 7f81 f740 9035 5087 4080  .........@.5P.@.
00022bb0: 3532 0090 3453 8740 8034 0d83 6090 2753  52..4S.@.4..`.'S
00022bc0: 8360 8027 4c00 902b 5483 6080 2b5f 84a3  .`.'L..+T.`.+_..
00022bd0: 4090 2958 8360 8029 5781 7090 2958 8360  @.)X.`.)W.p.)X.`
00022be0: 8029 5b81 7090 295b 8360 8029 5b87 40b0  .)[.p.)[.`.)[.@.
00022bf0: 0b73 8740 9037 6581 7080 375b 8740 902b  .s.@.7e.p.7[.@.+
00022c00: 5281 7080 2b4e 0090 325a 8170 8032 4b00  R.p.+N..2Z.p.2K.
00022c10: 902b 5381 7080 2b5a 0090 2a51 8170 802a  .+S.p.+Z..*Q.p.*
00022c20: 5883 6090 3660 8170 8036 5581 7090 365f  X.`.6`.p.6U.p.6_
00022c30: 8170 8036 5700 9032 6281 7080 323b 0090  .p.6W..2b.p.2;..
00022c40: 2d5c 8170 802d 4b00 902b 5081 7080 2b4e  -\.p.-K..+P.p.+N
00022c50: 8360 902e 5281 7080 2e46 8170 902b 5381  .`..R.p..F.p.+S.
00022c60: 7080 2b41 0090 325f 8170 8032 3900 9037  p.+A..2_.p.29..7
00022c70: 5d81 7080 373c 0090 2d56 8170 802d 3d83  ].p.7<..-V.p.-=.
00022c80: 6090 3661 8360 8036 5981 7090 2d58 8360  `.6a.`.6Y.p.-X.`
00022c90: 802d 5300 902c 5f83 6080 2c3f 8170 902e  .-S..,_.`.,?.p..
00022ca0: 5783 6080 2e41 8170 9035 6283 6080 355d  W.`..A.p.5b.`.5]
00022cb0: 0090 2b61 8550 802b 5983 6090 2860 8170  ..+a.P.+Y.`.(`.p
00022cc0: 8028 5200 9024 6381 7080 2443 8740 9027  .(R..$c.p.$C.@.'
00022cd0: 5c83 6080 275b 8170 901b 7083 6080 1b5b  \.`.'[.p..p.`..[
00022ce0: 0090 2d50 8170 802d 4983 6090 2d5a 7880  ..-P.p.-I.`.-Zx.
00022cf0: 2d41 8458 902d 5678 802d 5c82 6890 2d5c  -A.X.-Vx.-\.h.-\
00022d00: 8458 802d 3c78 9028 6084 5880 2801 7890  .X.-<x.(`.X.(.x.
00022d10: 215e 8170 8021 5381 7090 2d64 8268 802d  !^.p.!S.p.-d.h.-
00022d20: 5c82 6890 2162 8360 8021 5681 7090 2d5e  \.h.!b.`.!V.p.-^
00022d30: 8170 802d 4081 7090 2170 8360 8021 5d00  .p.-@.p.!p.`.!].
00022d40: ff2f 004d 5472 6b00 0000 1d00 ff01 0942  ./.MTrk........B
00022d50: 2050 697a 7a20 4869 00b0 0b35 00b0 077f   Pizz Hi...5....
00022d60: 00b0 077f 00ff 2f00 4d54 726b 0000 0038  ....../.MTrk...8
00022d70: 00ff 010a 4220 5069 7a7a 204c 6f77 00b0  ....B Pizz Low..
00022d80: 0b35 00b0 077f 00b0 077f 87a9 40b0 0b2d  .5..........@..-
00022d90: 8930 9027 4b83 6080 275b 8170 901b 5f83  .0.'K.`.'[.p.._.
00022da0: 6080 1b5b 00ff 2f00 4d54 726b 0000 001c  `..[../.MTrk....
00022db0: 00ff 0108 4353 5320 5069 7a7a 00b0 0b35  ....CSS Pizz...5
00022dc0: 00b0 077f 00b0 077f 00ff 2f00 4d54 726b  ........../.MTrk
00022dd0: 0000 002a 00ff 0116 5346 2050 697a 7a20  ...*....SF Pizz 
00022de0: 4272 746b 2d43 6f6c 206c 6567 6e6f 00b0  Brtk-Col legno..
00022df0: 0b35 00b0 077f 00b0 077f 00ff 2f00 4d54  .5........../.MT
00022e00: 726b 0000 0020 00ff 010c 4353 2043 6f6c  rk... ....CS Col
00022e10: 206c 6567 6e6f 00b0 0b35 00b0 077f 00b0   legno...5......
00022e20: 077f 00ff 2f00 4d54 726b 0000 0036 00ff  ..../.MTrk...6..
00022e30: 0111 5346 204d 696e 204d 616a 2054 7269  ..SF Min Maj Tri
00022e40: 6c6c 7300 b00b 7f00 b007 7f00 b007 7f17  lls.............
00022e50: 9007 4d00 9008 4d81 7080 0761 0080 0861  ..M...M.p..a...a
00022e60: 00ff 2f00 4d54 726b 0000 0037 00ff 0112  ../.MTrk...7....
00022e70: 5341 4d20 4d69 6e20 4d61 6a20 5472 696c  SAM Min Maj Tril
00022e80: 6c73 00b0 0b7f 00b0 077f 00b0 077f 0090  ls..............
00022e90: 624d 0090 614d 8170 8062 6100 8061 6100  bM..aM.p.ba..aa.
00022ea0: ff2f 004d 5472 6b00 0000 2b00 ff01 1753  ./.MTrk...+....S
00022eb0: 5350 2056 696f 6c69 6e73 2054 7269 6c6c  SP Violins Trill
00022ec0: 7320 4f72 6368 00b0 0b35 00b0 077f 00b0  s Orch...5......
00022ed0: 077f 00ff 2f00 4d54 726b 0000 002a 00ff  ..../.MTrk...*..
00022ee0: 0116 5353 5020 5669 6f6c 6173 2054 7269  ..SSP Violas Tri
00022ef0: 6c6c 7320 4f72 6368 00b0 0b35 00b0 077f  lls Orch...5....
00022f00: 00b0 077f 00ff 2f00 4d54 726b 0000 0032  ....../.MTrk...2
00022f10: 00ff 011e 4f53 5220 566e 7320 5368 6f72  ....OSR Vns Shor
00022f20: 742d 562e 2073 686f 7274 2054 7269 6c6c  t-V. short Trill
00022f30: 7320 00b0 0b35 00b0 077f 00b0 077f 00ff  s ...5..........
00022f40: 2f00 4d54 726b 0000 0115 00ff 011e 4220  /.MTrk........B 
00022f50: 566c 6e73 2053 686f 7274 2068 616c 662d  Vlns Short half-
00022f60: 7768 6f6c 6520 5472 696c 6c73 00b0 077f  whole Trills....
00022f70: 00b0 077f 868f 5cb0 076c c20e b007 462e  ......\..l....F.
00022f80: b007 472e b007 492e b007 4b2d b007 4c2e  ..G...I...K-..L.
00022f90: b007 4e2e b007 502e b007 522d b007 532e  ..N...P...R-..S.
00022fa0: b007 552e b007 572e b007 592d b007 5a2e  ..U...W...Y-..Z.
00022fb0: b007 5c2e b007 5e2e b007 602d b007 612e  ..\...^...`-..a.
00022fc0: b007 632e b007 652e b007 672d b007 682e  ..c...e...g-..h.
00022fd0: b007 6a2e b007 6c2e b007 6e16 b007 6f84  ..j...l...n...o.
00022fe0: 2390 3e49 0090 3f47 8268 803e 5f00 803f  #.>I..?G.h.>_..?
00022ff0: 658c 1890 3945 0090 3a54 8268 8039 6000  e...9E..:T.h.9`.
00023000: 803a 6d78 903e 3c00 903f 4e82 6880 3e3b  .:mx.><..?N.h.>;
00023010: 0080 3f5f 8268 9043 3c00 9044 3c82 6880  ..?_.h.C<..D<.h.
00023020: 435f 0080 445e 8268 9046 4400 9045 4182  C_..D^.h.FD..EA.
00023030: 6880 4656 0080 455d 7890 4343 0090 4251  h.FV..E]x.CC..BQ
00023040: 8268 8043 5b00 8042 5782 6890 3f5d 0090  .h.C[..BW.h.?]..
00023050: 3e3a 8268 803f 6b00 803e 6200 ff2f 004d  >:.h.?k..>b../.M
00023060: 5472 6b00 0000 3000 ff01 1c42 2056 4320  Trk...0....B VC 
00023070: 5368 6f72 7420 6861 6c66 2d77 686f 6c65  Short half-whole
00023080: 2054 7269 6c6c 7300 b00b 3500 b007 7f00   Trills...5.....
00023090: b007 7f00 ff2f 004d 5472 6b00 0000 2c00  ...../.MTrk...,.
000230a0: ff01 1842 2049 2b49 4920 5472 696c 6c73  ...B I+II Trills
000230b0: 204f 7263 6820 772f 4163 6300 b00b 3500   Orch w/Acc...5.
000230c0: b007 7f00 b007 7f00 ff2f 004d 5472 6b00  ........./.MTrk.
000230d0: 0000 1c00 ff01 084d 4944 492d 3130 3300  .......MIDI-103.
000230e0: b00b 3500 b007 7f00 b007 7f00 ff2f 004d  ..5........../.M
000230f0: 5472 6b00 000f cf00 ff01 1248 5320 5669  Trk........HS Vi
00023100: 6f6c 696e 2049 204c 6567 6174 6f00 b00b  olin I Legato...
00023110: 7f00 b007 6086 a322 b00b 502e b00b 502d  ....`.."..P...P-
00023120: b00b 502e b00b 502e b00b 512e b00b 512d  ..P...P...Q...Q-
00023130: b00b 512e b00b 522e b00b 522e b00b 522d  ..Q...R...R...R-
00023140: b00b 532e b00b 532e b00b 532e b00b 532d  ..S...S...S...S-
00023150: b00b 542e b00b 542e b00b 542e b00b 552d  ..T...T...T...U-
00023160: b00b 552e b00b 552e b00b 562e b00b 562d  ..U...U...V...V-
00023170: b00b 562e b00b 562e b00b 572e b00b 572d  ..V...V...W...W-
00023180: b00b 572e b00b 582e b00b 582e b00b 582d  ..W...X...X...X-
00023190: b00b 592e b00b 592e b00b 592e b00b 592d  ..Y...Y...Y...Y-
000231a0: b00b 5a2e b00b 5a2e b00b 5a2e b00b 5b2d  ..Z...Z...Z...[-
000231b0: b00b 5b2e b00b 5b2e b00b 5c2e b00b 5c2d  ..[...[...\...\-
000231c0: b00b 5c2e b00b 5c2e b00b 5d2e b00b 5d2d  ..\...\...]...]-
000231d0: b00b 5d2e b00b 5e2e b00b 5e2e b00b 5e2d  ..]...^...^...^-
000231e0: b00b 5f0f 9039 531f b00b 5f2d 8039 5501  .._..9S..._-.9U.
000231f0: b00b 5f03 903a 482b b00b 5f21 803a 6c04  .._..:H+.._!.:l.
00023200: 903c 4a08 b00b 602e b00b 6016 803c 6904  .<J...`...`..<i.
00023210: 903e 5414 b00b 602e b00b 610a 803e 5c04  .>T...`...a..>\.
00023220: 903c 491f b00b 612d 803c 6001 b00b 6103  .<I...a-.<`...a.
00023230: 903a 4f2b b00b 6221 803a 7004 903c 4909  .:O+..b!.:p..<I.
00023240: b00b 622d b00b 6216 803c 4904 903e 4e14  ..b-..b..<I..>N.
00023250: b00b 622e b00b 630a 803e 5a04 903f 5220  ..b...c..>Z..?R 
00023260: b00b 632c 803f 5c01 b00b 6303 9041 4d2b  ..c,.?\...c..AM+
00023270: b00b 6425 903f 4502 8041 5907 b00b 642e  ..d%.?E..AY...d.
00023280: b00b 6419 903e 4602 803f 5512 b00b 652e  ..d..>F..?U...e.
00023290: b00b 650e 903c 5602 803e 5f1e b00b 652e  ..e..<V..>_...e.
000232a0: b00b 6502 903e 4401 803c 612a b00b 6625  ..e..>D..<a*..f%
000232b0: 903f 6501 803e 5e08 b00b 662e b00b 6619  .?e..>^...f...f.
000232c0: 9041 4e01 803f 7014 b00b 672d b00b 670e  .AN..?p...g-..g.
000232d0: 9043 6301 8041 511f b00b 672e b00b 6802  .Cc..AQ...g...h.
000232e0: 9045 4701 8043 602b b00b 6824 9046 4e01  .EG..C`+..h$.FN.
000232f0: 8045 5b08 b00b 682e b00b 6819 9045 4001  .E[...h...h..E@.
00023300: 8046 6514 b00b 692e b00b 690d 9043 4a01  .Fe...i...i..CJ.
00023310: 8045 5f1f b00b 692e b00b 6a02 9045 4b01  .E_...i...j..EK.
00023320: 8043 562b b00b 6a24 9046 5601 8045 5c09  .CV+..j$.FV..E\.
00023330: b00b 6a2d b00b 6b19 9048 4d01 8046 6b14  ..j-..k..HM..Fk.
00023340: b00b 6b2e b00b 6b0d 904a 5601 8048 4220  ..k...k..JV..HB 
00023350: b00b 6b2d b00b 6c02 904b 4601 804a 5f2b  ..k-..l..KF..J_+
00023360: b00b 6c24 904d 4001 804b 5c09 b00b 6c2e  ..l$.M@..K\...l.
00023370: b00b 6d18 904b 4d01 804d 5b14 b00b 6d2e  ..m..KM..M[...m.
00023380: b00b 6d0d 904a 4601 804b 5f20 b00b 6e2e  ..m..JF..K_ ..n.
00023390: b00b 6e01 9048 5601 804a 5d2b b00b 6e24  ..n..HV..J]+..n$
000233a0: 9046 3401 8048 6909 b00b 6e2e b00b 6f18  .F4..Hi...n...o.
000233b0: 9048 5101 8046 6115 b00b 6f2d b00b 6f0d  .HQ..Fa...o-..o.
000233c0: 904a 5c01 8048 6320 b00b 702e b00b 7001  .J\..Hc ..p...p.
000233d0: 904b 2601 804a 712c b00b 7023 904d 4001  .K&..Jq,..p#.M@.
000233e0: 804b 4509 b00b 712e b00b 7108 804d 5610  .KE...q...q..MV.
000233f0: 904f 5e16 b00b 712a 804f 4904 b00b 710c  .O^...q*.OI...q.
00023400: 9051 4d21 b00b 721f 8051 5f0f b00b 7201  .QM!..r..Q_...r.
00023410: 904f 5e2d b00b 7213 804f 7010 904d 410b  .O^-..r..Op..MA.
00023420: b00b 732d b00b 7308 804d 3f10 904b 4a16  ..s-..s..M?..KJ.
00023430: b00b 732e b00b 740c 904a 4b01 804b 5621  ..s...t..JK..KV!
00023440: b00b 742d b00b 7401 9046 3401 804a 5c2c  ..t-..t..F4..J\,
00023450: b00b 7423 9048 5101 8046 610a b00b 752e  ..t#.HQ..Fa...u.
00023460: b00b 7517 904a 5c01 8048 6315 b00b 752e  ..u..J\..Hc...u.
00023470: b00b 760c 904b 2601 804a 7121 b00b 762e  ..v..K&..Jq!..v.
00023480: b00b 7600 904d 4001 804b 452c b00b 7723  ..v..M@..KE,..w#
00023490: 804d 5600 904f 5e0b b00b 772e b00b 7717  .MV..O^...w...w.
000234a0: 804f 4900 9051 4d17 b00b 772d b00b 780c  .OI..QM...w-..x.
000234b0: 8051 5f00 9052 5e22 b00b 782e 8052 7000  .Q_..R^"..x..Rp.
000234c0: b00b 782e b00b 792d b00b 792e b00b 792e  ..x...y-..y...y.
000234d0: b00b 7a2e b00b 7a2d b00b 7a2e b00b 7a2e  ..z...z-..z...z.
000234e0: b00b 7b2e b00b 7b2d b00b 7b2e b00b 7c2e  ..{...{-..{...|.
000234f0: b00b 7c2e b00b 7c2d b00b 7d2e b00b 7d2e  ..|...|-..}...}.
00023500: b00b 7d2e b00b 7d2d b00b 7e2e b00b 7e2e  ..}...}-..~...~.
00023510: b00b 7e1b b00b 7f00 b00b 7f81 f159 b001  ..~..........Y..
00023520: 5fa5 19b0 0b27 2eb0 0b27 2eb0 0b28 2db0  _....'...'...(-.
00023530: 0b29 2eb0 0b2a 2eb0 0b2a 2eb0 0b2b 2db0  .)...*...*...+-.
00023540: 0b2c 2eb0 0b2d 2eb0 0b2d 2eb0 0b2e 2db0  .,...-...-....-.
00023550: 0b2f 2eb0 0b30 2eb0 0b31 2eb0 0b31 2db0  ./...0...1...1-.
00023560: 0b32 2eb0 0b33 2eb0 0b34 2eb0 0b34 2db0  .2...3...4...4-.
00023570: 0b35 2eb0 0b36 2eb0 0b37 2eb0 0b38 2db0  .5...6...7...8-.
00023580: 0b38 2eb0 0b39 2eb0 0b3a 2eb0 0b3b 2db0  .8...9...:...;-.
00023590: 0b3b 2eb0 0b3c 2eb0 0b3d 2eb0 0b3e 2db0  .;...<...=...>-.
000235a0: 0b3e 2eb0 0b3f 2eb0 0b40 2eb0 0b41 2db0  .>...?...@...A-.
000235b0: 0b42 2eb0 0b42 2190 452d 0db0 0b43 2eb0  .B...B!.E-...C..
000235c0: 0b44 2db0 0b45 2eb0 0b45 2eb0 0b46 2eb0  .D-..E...E...F..
000235d0: 0b47 2db0 0b48 2eb0 0b49 2eb0 0b49 2eb0  .G-..H...I...I..
000235e0: 0b4a 2db0 0b4b 2eb0 0b4c 2eb0 0b4c 2eb0  .J-..K...L...L..
000235f0: 0b4d 2db0 0b4e 2eb0 0b4f 1580 4555 0090  .M-..N...O..EU..
00023600: 4749 19b0 0b50 2eb0 0b50 2db0 0b51 2eb0  GI...P...P-..Q..
00023610: 0b52 2eb0 0b53 2eb0 0b53 2db0 0b54 2eb0  .R...S...S-..T..
00023620: 0b55 2eb0 0b56 2eb0 0b56 2db0 0b57 2eb0  .U...V...V-..W..
00023630: 0b58 2eb0 0b59 2eb0 0b5a 2db0 0b5a 2eb0  .X...Y...Z-..Z..
00023640: 0b5b 0980 4756 0090 4846 25b0 0b5c 2eb0  .[..GV..HF%..\..
00023650: 0b5d 2db0 0b5d 2eb0 0b5e 2eb0 0b5f 2eb0  .]-..]...^..._..
00023660: 0b60 2db0 0b61 2eb0 0b61 2eb0 0b62 2eb0  .`-..a...a...b..
00023670: 0b63 1f80 484f 0090 4a42 0eb0 0b64 2eb0  .c..HO..JB...d..
00023680: 0b64 2eb0 0b65 2eb0 0b66 2db0 0b67 2cb0  .d...e...f-..g,.
00023690: 0b68 2eb0 0b68 2eb0 0b68 2eb0 0b68 2db0  .h...h...h...h-.
000236a0: 0b68 2eb0 0b69 2eb0 0b69 2eb0 0b69 2db0  .h...i...i...i-.
000236b0: 0b69 2eb0 0b69 2eb0 0b69 1580 4a51 0090  .i...i...i..JQ..
000236c0: 4f4d 19b0 0b69 2db0 0b69 2eb0 0b6a 2eb0  OM...i-..i...j..
000236d0: 0b6a 2eb0 0b6a 2db0 0b6a 2eb0 0b6a 2eb0  .j...j-..j...j..
000236e0: 0b6a 2eb0 0b6a 2db0 0b6a 2eb0 0b6a 2eb0  .j...j-..j...j..
000236f0: 0b6b 2eb0 0b6b 2db0 0b6b 2eb0 0b6b 2eb0  .k...k-..k...k..
00023700: 0b6b 0980 4f50 0090 4a49 25b0 0b6b 2db0  .k..OP..JI%..k-.
00023710: 0b6b 2eb0 0b6b 2eb0 0b6c 2eb0 0b6c 2db0  .k...k...l...l-.
00023720: 0b6c 2eb0 0b6c 2eb0 0b6c 2eb0 0b6c 2db0  .l...l...l...l-.
00023730: 0b6c 2080 4a43 0090 4842 0eb0 0b6c 20b0  .l .JC..HB...l .
00023740: 0b6d 2db0 0b6c 2eb0 0b6b 2eb0 0b6b 2eb0  .m-..l...k...k..
00023750: 0b6a 2db0 0b69 2eb0 0b69 2eb0 0b68 2eb0  .j-..i...i...h..
00023760: 0b68 2db0 0b67 2eb0 0b66 2eb0 0b66 2eb0  .h-..g...f...f..
00023770: 0b65 2db0 0b65 2eb0 0b64 2280 4854 0090  .e-..e...d".HT..
00023780: 4f4d 0cb0 0b63 2eb0 0b63 2db0 0b62 2eb0  OM...c...c-..b..
00023790: 0b62 2eb0 0b61 2eb0 0b60 2db0 0b60 2eb0  .b...a...`-..`..
000237a0: 0b5f 2eb0 0b5f 2eb0 0b5e 2db0 0b5d 2eb0  ._..._...^-..]..
000237b0: 0b5d 2eb0 0b5c 2eb0 0b5c 2db0 0b5b 2eb0  .]...\...\-..[..
000237c0: 0b5a 2eb0 0b5a 2eb0 0b59 2db0 0b59 2eb0  .Z...Z...Y-..Y..
000237d0: 0b58 2eb0 0b57 2eb0 0b57 2db0 0b56 2eb0  .X...W...W-..V..
000237e0: 0b56 0db0 0b56 2eb0 0b56 2db0 0b56 2080  .V...V...V-..V .
000237f0: 4f58 0090 4746 0eb0 0b57 2eb0 0b57 2eb0  OX..GF...W...W..
00023800: 0b58 2db0 0b58 2eb0 0b59 2eb0 0b59 2eb0  .X-..X...Y...Y..
00023810: 0b5a 2db0 0b5a 2eb0 0b5b 2eb0 0b5b 2eb0  .Z-..Z...[...[..
00023820: 0b5c 2db0 0b5c 2eb0 0b5d 2eb0 0b5d 2eb0  .\-..\...]...]..
00023830: 0b5e 2db0 0b5e 1480 475a 0090 4a40 1ab0  .^-..^..GZ..J@..
00023840: 0b5f 2eb0 0b5f 2eb0 0b5f 2db0 0b60 2eb0  ._..._..._-..`..
00023850: 0b60 2eb0 0b61 2eb0 0b61 2db0 0b62 2eb0  .`...a...a-..b..
00023860: 0b62 2eb0 0b63 2eb0 0b63 2db0 0b64 2eb0  .b...c...c-..d..
00023870: 0b64 2eb0 0b65 2eb0 0b65 2db0 0b66 0880  .d...e...e-..f..
00023880: 4a55 0090 533a 26b0 0b66 2eb0 0b67 2eb0  JU..S:&..f...g..
00023890: 0b67 2db0 0b68 2eb0 0b68 2eb0 0b68 01b0  .g-..h...h...h..
000238a0: 0b69 2eb0 0b68 2eb0 0b67 2eb0 0b66 2db0  .i...h...g...f-.
000238b0: 0b65 1d90 5142 11b0 0b65 2eb0 0b64 2eb0  .e..QB...e...d..
000238c0: 0b63 2db0 0b62 2eb0 0b61 2880 5359 06b0  .c-..b...a(.SY..
000238d0: 0b61 2eb0 0b60 2db0 0b5f 2eb0 0b5e 2eb0  .a...`-.._...^..
000238e0: 0b5d 2eb0 0b5d 2db0 0b5c 2eb0 0b5b 2eb0  .]...]-..\...[..
000238f0: 0b5a 2eb0 0b59 2db0 0b59 2eb0 0b58 2eb0  .Z...Y-..Y...X..
00023900: 0b57 2eb0 0b56 2db0 0b56 2eb0 0b55 2eb0  .W...V-..V...U..
00023910: 0b54 2eb0 0b53 2db0 0b52 2eb0 0b52 2eb0  .T...S-..R...R..
00023920: 0b51 2eb0 0b50 2db0 0b4f 2eb0 0b4e 2eb0  .Q...P-..O...N..
00023930: 0b4e 2eb0 0b4d 2db0 0b4c 2eb0 0b4b 2eb0  .N...M-..L...K..
00023940: 0b4a 2eb0 0b4a 2db0 0b49 2eb0 0b48 2eb0  .J...J-..I...H..
00023950: 0b47 2eb0 0b47 2db0 0b46 2eb0 0b45 1bb0  .G...G-..F...E..
00023960: 0b45 2e80 513e 00b0 0b47 0090 4a41 2bb0  .E..Q>...G..JA+.
00023970: 0b4a 22b0 0b4c 2eb0 0b4c 2eb0 0b4d 2eb0  .J"..L...L...M..
00023980: 0b4d 2db0 0b4e 2eb0 0b4f 2eb0 0b4f 2eb0  .M-..N...O...O..
00023990: 0b50 2db0 0b51 2eb0 0b51 2eb0 0b52 2eb0  .P-..Q...Q...R..
000239a0: 0b52 2db0 0b53 2eb0 0b54 2eb0 0b54 0280  .R-..S...T...T..
000239b0: 4a55 0090 4f45 2cb0 0b55 2db0 0b56 2eb0  JU..OE,..U-..V..
000239c0: 0b56 2eb0 0b57 2eb0 0b58 2db0 0b58 2eb0  .V...W...X-..X..
000239d0: 0b59 2eb0 0b59 2eb0 0b5a 2db0 0b5b 1980  .Y...Y...Z-..[..
000239e0: 4f56 0090 4f4a 15b0 0b5b 2eb0 0b5c 2eb0  OV..OJ...[...\..
000239f0: 0b5d 2db0 0b5d 2eb0 0b5e 2480 4f58 0090  .]-..]...^$.OX..
00023a00: 5145 0ab0 0b5f 2eb0 0b5f 2db0 0b60 2eb0  QE..._..._-..`..
00023a10: 0b60 2eb0 0b61 2eb0 0b62 0180 515c 0090  .`...a...b..Q\..
00023a20: 4f58 2cb0 0b62 2eb0 0b63 2eb0 0b64 2eb0  OX,..b...c...d..
00023a30: 0b64 2db0 0b65 0d80 4f51 0090 545e 21b0  .d-..e..OQ..T^!.
00023a40: 0b66 2eb0 0b66 2eb0 0b67 2db0 0b67 2eb0  .f...f...g-..g..
00023a50: 0b68 2eb0 0b69 2eb0 0b69 2db0 0b6a 22b0  .h...i...i-..j".
00023a60: 0b6b 2db0 0b6a 2eb0 0b6a 2eb0 0b6a 2eb0  .k-..j...j...j..
00023a70: 0b6a 2db0 0b6a 2eb0 0b6a 2eb0 0b69 0d80  .j-..j...j...i..
00023a80: 545b 0090 5358 21b0 0b69 2db0 0b69 2eb0  T[..SX!..i-..i..
00023a90: 0b69 2eb0 0b69 2eb0 0b69 2db0 0b68 2eb0  .i...i...i-..h..
00023aa0: 0b68 2eb0 0b68 2eb0 0b68 2db0 0b68 2eb0  .h...h...h-..h..
00023ab0: 0b68 2eb0 0b67 2eb0 0b67 2db0 0b67 2eb0  .h...g...g-..g..
00023ac0: 0b67 2eb0 0b67 0180 5357 0090 4f56 2db0  .g...g..SW..OV-.
00023ad0: 0b67 2db0 0b66 2eb0 0b66 2eb0 0b66 2eb0  .g-..f...f...f..
00023ae0: 0b66 2db0 0b66 2eb0 0b66 2eb0 0b65 2eb0  .f-..f...f...e..
00023af0: 0b65 2db0 0b65 1880 4f59 0090 4f3d 16b0  .e-..e..OY..O=..
00023b00: 0b65 2eb0 0b65 2eb0 0b65 2db0 0b64 2eb0  .e...e...e-..d..
00023b10: 0b64 2eb0 0b64 2eb0 0b64 2db0 0b64 2eb0  .d...d...d-..d..
00023b20: 0b64 2eb0 0b63 2eb0 0b63 2db0 0b63 2eb0  .d...c...c-..c..
00023b30: 0b63 2eb0 0b63 2eb0 0b63 2cb0 0b63 0d80  .c...c...c,..c..
00023b40: 4f4b 0090 5148 21b0 0b63 2eb0 0b63 2db0  OK..QH!..c...c-.
00023b50: 0b63 2eb0 0b63 2eb0 0b63 2eb0 0b64 2db0  .c...c...c...d-.
00023b60: 0b64 2eb0 0b64 2eb0 0b64 2eb0 0b64 2db0  .d...d...d...d-.
00023b70: 0b64 2eb0 0b64 2eb0 0b64 2eb0 0b64 2db0  .d...d...d...d-.
00023b80: 0b65 2eb0 0b65 0180 5157 0090 5342 2db0  .e...e..QW..SB-.
00023b90: 0b65 2eb0 0b65 2db0 0b65 2eb0 0b65 2eb0  .e...e-..e...e..
00023ba0: 0b65 2eb0 0b65 2db0 0b66 2eb0 0b66 2eb0  .e...e-..f...f..
00023bb0: 0b66 2eb0 0b66 1780 5349 0090 5144 16b0  .f...f..SI..QD..
00023bc0: 0b66 2eb0 0b66 2eb0 0b66 2eb0 0b66 2db0  .f...f...f...f-.
00023bd0: 0b66 2eb0 0b67 2eb0 0b67 2eb0 0b67 2db0  .f...g...g...g-.
00023be0: 0b67 2eb0 0b67 2eb0 0b67 2eb0 0b67 2db0  .g...g...g...g-.
00023bf0: 0b67 2eb0 0b68 2eb0 0b68 2eb0 0b68 2db0  .g...h...h...h-.
00023c00: 0b68 2eb0 0b68 2eb0 0b68 2eb0 0b68 2db0  .h...h...h...h-.
00023c10: 0b68 2eb0 0b68 02b0 0b69 2eb0 0b68 2db0  .h...h...i...h-.
00023c20: 0b67 2eb0 0b66 2eb0 0b66 2eb0 0b65 2db0  .g...f...f...e-.
00023c30: 0b64 2eb0 0b63 2eb0 0b63 2eb0 0b62 2db0  .d...c...c...b-.
00023c40: 0b61 2eb0 0b60 2eb0 0b60 2eb0 0b5f 2db0  .a...`...`..._-.
00023c50: 0b5e 2eb0 0b5d 0980 5148 25b0 0b5d 2eb0  .^...]..QH%..]..
00023c60: 0b5c 2db0 0b5b 2eb0 0b5b 2eb0 0b5a 14b0  .\-..[...[...Z..
00023c70: 0b5a 0090 4a42 2eb0 0b5a 2eb0 0b5a 2db0  .Z..JB...Z...Z-.
00023c80: 0b5a 2eb0 0b5b 2eb0 0b5b 2eb0 0b5b 2db0  .Z...[...[...[-.
00023c90: 0b5b 2eb0 0b5c 2eb0 0b5d 2eb0 0b5d 2db0  .[...\...]...]-.
00023ca0: 0b5e 2eb0 0b5f 2eb0 0b60 2eb0 0b60 2db0  .^..._...`...`-.
00023cb0: 0b61 2280 4a56 0090 4f41 0cb0 0b62 2eb0  .a".JV..OA...b..
00023cc0: 0b63 2eb0 0b63 2db0 0b64 2eb0 0b65 2db0  .c...c-..d...e-.
00023cd0: 0b66 2eb0 0b65 2eb0 0b64 2db0 0b64 2eb0  .f...e...d-..d..
00023ce0: 0b63 2eb0 0b63 2eb0 0b62 2db0 0b61 2eb0  .c...c...b-..a..
00023cf0: 0b61 2eb0 0b60 2eb0 0b60 1680 4f52 0090  .a...`...`..OR..
00023d00: 5344 17b0 0b5f 2eb0 0b5e 2eb0 0b5e 2eb0  SD..._...^...^..
00023d10: 0b5d 2db0 0b5d 2eb0 0b66 2eb0 0b66 2eb0  .]-..]...f...f..
00023d20: 0b65 2db0 0b64 2eb0 0b64 2d80 5357 0090  .e-..d...d-.SW..
00023d30: 534d 01b0 0b63 2eb0 0b63 2db0 0b62 2ab0  SM...c...c-..b*.
00023d40: 0b62 2eb0 0b61 2db0 0b61 2eb0 0b60 2eb0  .b...a-..a...`..
00023d50: 0b5f 2eb0 0b5f 2db0 0b5e 2eb0 0b5d 2eb0  ._..._-..^...]..
00023d60: 0b5d 2eb0 0b5c 2db0 0b5b 2eb0 0b5b 2eb0  .]...\-..[...[..
00023d70: 0b5a 1bb0 0b5a 0a80 5358 0090 5145 23b0  .Z...Z..SX..QE#.
00023d80: 0b59 2eb0 0b59 2eb0 0b59 2eb0 0b59 2db0  .Y...Y...Y...Y-.
00023d90: 0b59 2eb0 0b59 2eb0 0b59 2eb0 0b5a 2db0  .Y...Y...Y...Z-.
00023da0: 0b5a 2eb0 0b5a 2eb0 0b5b 2eb0 0b5b 2db0  .Z...Z...[...[-.
00023db0: 0b5c 2eb0 0b5c 2eb0 0b5c 2c80 5159 0090  .\...\...\,.QY..
00023dc0: 534e 02b0 0b5d 2db0 0b5d 2eb0 0b5e 2eb0  SN...]-..]...^..
00023dd0: 0b5e 2eb0 0b5e 2db0 0b5f 0a80 5355 0090  .^...^-.._..SU..
00023de0: 5459 24b0 0b5f 2eb0 0b60 2eb0 0b60 2db0  TY$.._...`...`-.
00023df0: 0b60 2eb0 0b61 1580 545c 0090 5656 19b0  .`...a..T\..VV..
00023e00: 0b61 1eb0 0b62 2eb0 0b61 2eb0 0b60 2db0  .a...b...a...`-.
00023e10: 0b5f 2eb0 0b5e 2eb0 0b5e 2eb0 0b5d 2db0  ._...^...^...]-.
00023e20: 0b5c 2eb0 0b5b 2eb0 0b5b 2eb0 0b5b 2db0  .\...[...[...[-.
00023e30: 0b5b 2eb0 0b5b 2eb0 0b5b 2eb0 0b5b 1880  .[...[...[...[..
00023e40: 5660 0090 4f53 15b0 0b5b 2eb0 0b5b 2eb0  V`..OS...[...[..
00023e50: 0b5b 18b0 0b5c 2eb0 0b5c 2eb0 0b5c 2db0  .[...\...\...\-.
00023e60: 0b5c 2eb0 0b5c 2eb0 0b5b 2eb0 0b5b 2db0  .\...\...[...[-.
00023e70: 0b5b 1780 4f5d 0090 4f5e 17b0 0b5b 2eb0  .[..O]..O^...[..
00023e80: 0b5b 2eb0 0b5b 2db0 0b5b 2eb0 0b5b 2280  .[...[-..[...[".
00023e90: 4f52 0090 5b4e 0cb0 0b5b 2eb0 0b5b 2db0  OR..[N...[...[-.
00023ea0: 0b5b 2eb0 0b5b 2eb0 0b5b 2d80 5b59 0090  .[...[...[-.[Y..
00023eb0: 5a44 01b0 0b5b 2db0 0b5b 2eb0 0b5b 2eb0  ZD...[-..[...[..
00023ec0: 0b5b 0fb0 0b5b 2eb0 0b5a 2980 5a5d 0090  .[...[...Z).Z]..
00023ed0: 5944 04b0 0b5a 2eb0 0b59 2eb0 0b59 2eb0  YD...Z...Y...Y..
00023ee0: 0b59 2db0 0b58 2eb0 0b58 2eb0 0b57 2eb0  .Y-..X...X...W..
00023ef0: 0b57 2db0 0b57 2eb0 0b56 2eb0 0b56 2eb0  .W-..W...V...V..
00023f00: 0b55 2db0 0b55 2eb0 0b55 2eb0 0b54 2eb0  .U-..U...U...T..
00023f10: 0b54 1d80 5957 0090 5744 10b0 0b53 2eb0  .T..YW..WD...S..
00023f20: 0b53 2eb0 0b53 2eb0 0b52 2db0 0b52 2eb0  .S...S...R-..R..
00023f30: 0b51 2eb0 0b51 2eb0 0b51 2db0 0b50 2eb0  .Q...Q...Q-..P..
00023f40: 0b50 2eb0 0b4f 2eb0 0b4f 2db0 0b4f 2eb0  .P...O...O-..O..
00023f50: 0b4e 2eb0 0b4e 2eb0 0b4d 2db0 0b4d 2eb0  .N...N...M-..M..
00023f60: 0b4d 2eb0 0b4c 2eb0 0b4c 2db0 0b4b 2eb0  .M...L...L-..K..
00023f70: 0b4b 2eb0 0b4b 2eb0 0b4a 2db0 0b4a 2eb0  .K...K...J-..J..
00023f80: 0b49 2eb0 0b49 2eb0 0b49 2db0 0b48 2eb0  .I...I...I-..H..
00023f90: 0b48 2eb0 0b47 2eb0 0b47 2db0 0b47 2eb0  .H...G...G-..G..
00023fa0: 0b46 2eb0 0b46 2eb0 0b45 2db0 0b45 2eb0  .F...F...E-..E..
00023fb0: 0b45 2eb0 0b44 2eb0 0b44 2db0 0b43 2eb0  .E...D...D-..C..
00023fc0: 0b43 2eb0 0b43 2eb0 0b42 2db0 0b42 2eb0  .C...C...B-..B..
00023fd0: 0b41 2eb0 0b41 2eb0 0b41 2db0 0b40 2eb0  .A...A...A-..@..
00023fe0: 0b40 2eb0 0b3f 2eb0 0b3f 2db0 0b3f 2eb0  .@...?...?-..?..
00023ff0: 0b3e 2eb0 0b3e 2eb0 0b3d 2db0 0b3d 2eb0  .>...>...=-..=..
00024000: 0b3d 2eb0 0b3c 2eb0 0b3c 2db0 0b3b 2eb0  .=...<...<-..;..
00024010: 0b3b 2eb0 0b3b 09b0 0b3b 2db0 0b3b 2eb0  .;...;...;-..;..
00024020: 0b3a 2eb0 0b3a 2eb0 0b39 2db0 0b39 2eb0  .:...:...9-..9..
00024030: 0b38 2eb0 0b38 2eb0 0b37 2db0 0b37 2eb0  .8...8...7-..7..
00024040: 0b37 2eb0 0b36 2eb0 0b36 2db0 0b35 2eb0  .7...6...6-..5..
00024050: 0b35 2eb0 0b34 2eb0 0b34 2db0 0b34 2eb0  .5...4...4-..4..
00024060: 0b33 2eb0 0b33 2eb0 0b32 2db0 0b32 2eb0  .3...3...2-..2..
00024070: 0b31 2eb0 0b31 2eb0 0b31 2db0 0b30 2eb0  .1...1...1-..0..
00024080: 0b30 2eb0 0b2f 2eb0 0b2f 2db0 0b2e 2eb0  .0.../.../-.....
00024090: 0b2e 2eb0 0b2e 2eb0 0b2d 2db0 0b2d 2eb0  .........--..-..
000240a0: 0b2c 2eb0 0b2c 2eb0 0b2b 2db0 0b2b 0680  .,...,...+-..+..
000240b0: 573f 28b0 0b2a 2eb0 0b2a 2eb0 0b2a 0db0  W?(..*...*...*..
000240c0: 0b2a 00ff 2f00 4d54 726b 0000 0d23 00ff  .*../.MTrk...#..
000240d0: 0113 4853 2056 696f 6c69 6e20 4949 204c  ..HS Violin II L
000240e0: 6567 6174 6f00 b00b 7f00 b007 6087 e350  egato.......`..P
000240f0: b007 60e9 27b0 015f a519 b00b 222e b00b  ..`.'.._...."...
00024100: 222e b00b 232d b00b 242e b00b 252e b00b  "...#-..$...%...
00024110: 262e b00b 272d b00b 272e b00b 282e b00b  &...'-..'...(...
00024120: 292e b00b 2a2d b00b 2b2e b00b 2c2e b00b  )...*-..+...,...
00024130: 2c2e b00b 2d2d b00b 2e2e b00b 2f2e b00b  ,...--....../...
00024140: 302e b00b 312d b00b 312e b00b 322e b00b  0...1-..1...2...
00024150: 332e b00b 342d b00b 352e b00b 362e b00b  3...4-..5...6...
00024160: 362e b00b 372d b00b 382e b00b 392e b00b  6...7-..8...9...
00024170: 3a2e b00b 3b2d b00b 3b2e b00b 3c2e b00b  :...;-..;...<...
00024180: 3d2e b00b 3e2d b00b 3f2e b00b 4021 9045  =...>-..?...@!.E
00024190: 2d00 9039 2d0d b00b 402e b00b 412d b00b  -..9-...@...A-..
000241a0: 422e b00b 432e b00b 442e b00b 452d b00b  B...C...D...E-..
000241b0: 452e b00b 462e b00b 472e b00b 482d b00b  E...F...G...H-..
000241c0: 492e b00b 4a2e b00b 4a2e b00b 4b2d b00b  I...J...J...K-..
000241d0: 4c2e b00b 4d15 8045 5500 8039 5500 9047  L...M..EU..9U..G
000241e0: 4900 903b 4919 b00b 4e2e b00b 4f2d b00b  I..;I...N...O-..
000241f0: 4f2e b00b 502e b00b 512e b00b 522d b00b  O...P...Q...R-..
00024200: 532e b00b 542e b00b 542e b00b 552d b00b  S...T...T...U-..
00024210: 562e b00b 572e b00b 582e b00b 592d b00b  V...W...X...Y-..
00024220: 592e b00b 5a09 8047 5600 803b 5600 9048  Y...Z..GV..;V..H
00024230: 4600 903c 4625 b00b 5b2e b00b 5c2d b00b  F..<F%..[...\-..
00024240: 5d2e b00b 5e2e b00b 5e2e b00b 5f2d b00b  ]...^...^..._-..
00024250: 602e b00b 612e b00b 622e b00b 631f 8048  `...a...b...c..H
00024260: 4f00 803c 4f00 904a 4200 903e 420e b00b  O..<O..JB..>B...
00024270: 632e b00b 642e b00b 652e b00b 662d b00b  c...d...e...f-..
00024280: 672c b00b 682e b00b 682e b00b 682e b00b  g,..h...h...h...
00024290: 682d b00b 682e b00b 692e b00b 692e b00b  h-..h...i...i...
000242a0: 692d b00b 692e b00b 692e b00b 6915 804a  i-..i...i...i..J
000242b0: 5100 803e 5100 904f 4d00 9043 4d19 b00b  Q..>Q..OM..CM...
000242c0: 692d b00b 692e b00b 6a2e b00b 6a2e b00b  i-..i...j...j...
000242d0: 6a2d b00b 6a2e b00b 6a2e b00b 6a2e b00b  j-..j...j...j...
000242e0: 6a2d b00b 6a2e b00b 6a2e b00b 6b2e b00b  j-..j...j...k...
000242f0: 6b2d b00b 6b2e b00b 6b2e b00b 6b09 804f  k-..k...k...k..O
00024300: 5000 8043 5000 904a 4900 903e 4925 b00b  P..CP..JI..>I%..
00024310: 6b2d b00b 6b2e b00b 6b2e b00b 6c2e b00b  k-..k...k...l...
00024320: 6c2d b00b 6c2e b00b 6c2e b00b 6c2e b00b  l-..l...l...l...
00024330: 6c2d b00b 6c20 804a 4300 803e 4300 9048  l-..l .JC..>C..H
00024340: 4200 903c 420e b00b 6c20 b00b 6d2d b00b  B..<B...l ..m-..
00024350: 6c2e b00b 6b2e b00b 6b2e b00b 6a2d b00b  l...k...k...j-..
00024360: 692e b00b 692e b00b 682e b00b 682d b00b  i...i...h...h-..
00024370: 672e b00b 662e b00b 662e b00b 652d b00b  g...f...f...e-..
00024380: 652e b00b 6422 8048 5400 803c 5400 904f  e...d".HT..<T..O
00024390: 4d00 9043 4d0c b00b 632e b00b 632d b00b  M..CM...c...c-..
000243a0: 622e b00b 622e b00b 612e b00b 602d b00b  b...b...a...`-..
000243b0: 602e b00b 5f2e b00b 5f2e b00b 5e2d b00b  `..._..._...^-..
000243c0: 5d2e b00b 5d2e b00b 5c2e b00b 5c2d b00b  ]...]...\...\-..
000243d0: 5b2e b00b 5a2e b00b 5a2e b00b 592d b00b  [...Z...Z...Y-..
000243e0: 592e b00b 582e b00b 572e b00b 572d b00b  Y...X...W...W-..
000243f0: 562e b00b 560d b00b 562e b00b 562d b00b  V...V...V...V-..
00024400: 5620 804f 5800 8043 5800 9047 4600 903b  V .OX..CX..GF..;
00024410: 460e b00b 572e b00b 572e b00b 582d b00b  F...W...W...X-..
00024420: 582e b00b 592e b00b 592e b00b 5a2d b00b  X...Y...Y...Z-..
00024430: 5a2e b00b 5b2e b00b 5b2e b00b 5c2d b00b  Z...[...[...\-..
00024440: 5c2e b00b 5d2e b00b 5d2e b00b 5e2d b00b  \...]...]...^-..
00024450: 5e14 8047 5a00 803b 5a00 904a 4000 903e  ^..GZ..;Z..J@..>
00024460: 401a b00b 5f2e b00b 5f2e b00b 5f2d b00b  @..._..._..._-..
00024470: 602e b00b 602e b00b 612e b00b 612d b00b  `...`...a...a-..
00024480: 622e b00b 622e b00b 632e b00b 632d b00b  b...b...c...c-..
00024490: 642e b00b 642e b00b 652e b00b 652d b00b  d...d...e...e-..
000244a0: 6608 804a 5500 803e 5500 9053 3a00 9047  f..JU..>U..S:..G
000244b0: 3a26 b00b 662e b00b 672e b00b 672d b00b  :&..f...g...g-..
000244c0: 682e b00b 682e b00b 6801 b00b 692e b00b  h...h...h...i...
000244d0: 682e b00b 672e b00b 662d b00b 651d 9051  h...g...f-..e..Q
000244e0: 4200 9045 4211 b00b 652e b00b 642e b00b  B..EB...e...d...
000244f0: 632d b00b 622e b00b 6128 8053 5900 8047  c-..b...a(.SY..G
00024500: 5906 b00b 612e b00b 602d b00b 5f2e b00b  Y...a...`-.._...
00024510: 5e2e b00b 5d2e b00b 5d2d b00b 5c2e b00b  ^...]...]-..\...
00024520: 5b2e b00b 5a2e b00b 592d b00b 592e b00b  [...Z...Y-..Y...
00024530: 582e b00b 572e b00b 562d b00b 562e b00b  X...W...V-..V...
00024540: 552e b00b 542e b00b 532d b00b 522e b00b  U...T...S-..R...
00024550: 522e b00b 512e b00b 502d b00b 4f2e b00b  R...Q...P-..O...
00024560: 4e2e b00b 4e2e b00b 4d2d b00b 4c2e b00b  N...N...M-..L...
00024570: 4b2e b00b 4a2e b00b 4a2d b00b 492e b00b  K...J...J-..I...
00024580: 482e b00b 472e b00b 472d b00b 462e b00b  H...G...G-..F...
00024590: 451b b00b 452e 8051 3e00 8045 3e00 b00b  E...E..Q>..E>...
000245a0: 4700 904a 4100 903e 412b b00b 4a22 b00b  G..JA..>A+..J"..
000245b0: 4c2e b00b 4c2e b00b 4d2e b00b 4d2d b00b  L...L...M...M-..
000245c0: 4e2e b00b 4f2e b00b 4f2e b00b 502d b00b  N...O...O...P-..
000245d0: 512e b00b 512e b00b 522e b00b 522d b00b  Q...Q...R...R-..
000245e0: 532e b00b 542e b00b 5402 804a 5500 803e  S...T...T..JU..>
000245f0: 5500 904f 4500 9043 452c b00b 552d b00b  U..OE..CE,..U-..
00024600: 562e b00b 562e b00b 572e b00b 582d b00b  V...V...W...X-..
00024610: 582e b00b 592e b00b 592e b00b 5a2d b00b  X...Y...Y...Z-..
00024620: 5b19 804f 5600 8043 5600 904f 4a00 9043  [..OV..CV..OJ..C
00024630: 4a15 b00b 5b2e b00b 5c2e b00b 5d2d b00b  J...[...\...]-..
00024640: 5d2e b00b 5e24 804f 5800 8043 5800 9051  ]...^$.OX..CX..Q
00024650: 4500 9045 450a b00b 5f2e b00b 5f2d b00b  E..EE..._..._-..
00024660: 602e b00b 602e b00b 612e b00b 6201 8051  `...`...a...b..Q
00024670: 5c00 8045 5c00 904f 5800 9043 582c b00b  \..E\..OX..CX,..
00024680: 622e b00b 632e b00b 642e b00b 642d b00b  b...c...d...d-..
00024690: 650d 804f 5100 8043 5100 9054 5e00 9048  e..OQ..CQ..T^..H
000246a0: 5e21 b00b 662e b00b 662e b00b 672d b00b  ^!..f...f...g-..
000246b0: 672e b00b 682e b00b 692e b00b 692d b00b  g...h...i...i-..
000246c0: 6a22 b00b 6b2d b00b 6a2e b00b 6a2e b00b  j"..k-..j...j...
000246d0: 6a2e b00b 6a2d b00b 6a2e b00b 6a2e b00b  j...j-..j...j...
000246e0: 690d 8054 5b00 8048 5b00 9053 5800 9047  i..T[..H[..SX..G
000246f0: 5821 b00b 692d b00b 692e b00b 692e b00b  X!..i-..i...i...
00024700: 692e b00b 692d b00b 682e b00b 682e b00b  i...i-..h...h...
00024710: 682e b00b 682d b00b 682e b00b 682e b00b  h...h-..h...h...
00024720: 672e b00b 672d b00b 672e b00b 672e b00b  g...g-..g...g...
00024730: 6701 8053 5700 8047 5700 904f 5600 9043  g..SW..GW..OV..C
00024740: 562d b00b 672d b00b 662e b00b 662e b00b  V-..g-..f...f...
00024750: 662e b00b 662d b00b 662e b00b 662e b00b  f...f-..f...f...
00024760: 652e b00b 652d b00b 6518 804f 5900 8043  e...e-..e..OY..C
00024770: 5900 904f 3d00 9043 3d16 b00b 652e b00b  Y..O=..C=...e...
00024780: 652e b00b 652d b00b 642e b00b 642e b00b  e...e-..d...d...
00024790: 642e b00b 642d b00b 642e b00b 642e b00b  d...d-..d...d...
000247a0: 632e b00b 632d b00b 632e b00b 632e b00b  c...c-..c...c...
000247b0: 632e b00b 632c b00b 630d 804f 4b00 8043  c...c,..c..OK..C
000247c0: 4b00 9051 4800 9045 4821 b00b 632e b00b  K..QH..EH!..c...
000247d0: 632d b00b 632e b00b 632e b00b 632e b00b  c-..c...c...c...
000247e0: 642d b00b 642e b00b 642e b00b 642e b00b  d-..d...d...d...
000247f0: 642d b00b 642e b00b 642e b00b 642e b00b  d-..d...d...d...
00024800: 642d b00b 652e b00b 6501 8051 5700 8045  d-..e...e..QW..E
00024810: 5700 9053 4200 9047 422d b00b 652e b00b  W..SB..GB-..e...
00024820: 652d b00b 652e b00b 652e b00b 652e b00b  e-..e...e...e...
00024830: 652d b00b 662e b00b 662e b00b 662e b00b  e-..f...f...f...
00024840: 6617 8053 4900 8047 4900 9051 4400 9045  f..SI..GI..QD..E
00024850: 4416 b00b 662e b00b 662e b00b 662e b00b  D...f...f...f...
00024860: 662d b00b 662e b00b 672e b00b 672e b00b  f-..f...g...g...
00024870: 672d b00b 672e b00b 672e b00b 672e b00b  g-..g...g...g...
00024880: 672d b00b 672e b00b 682e b00b 682e b00b  g-..g...h...h...
00024890: 682d b00b 682e b00b 682e b00b 682e b00b  h-..h...h...h...
000248a0: 682d b00b 682e b00b 6802 b00b 692e b00b  h-..h...h...i...
000248b0: 682d b00b 672e b00b 662e b00b 652e b00b  h-..g...f...e...
000248c0: 652d b00b 642e b00b 632e b00b 632e b00b  e-..d...c...c...
000248d0: 622d b00b 612e b00b 612e b00b 602e b00b  b-..a...a...`...
000248e0: 5f2d b00b 5f2e b00b 5e09 8051 4800 8045  _-.._...^..QH..E
000248f0: 4825 b00b 5d2e b00b 5d2d b00b 5c2e b00b  H%..]...]-..\...
00024900: 5b2e b00b 5b14 904a 4200 903e 421a b00b  [...[..JB..>B...
00024910: 5a2d b00b 592e b00b 592e b00b 582e b00b  Z-..Y...Y...X...
00024920: 572d b00b 572e b00b 562e b00b 552e b00b  W-..W...V...U...
00024930: 552d b00b 542b b00b 542e b00b 542e b00b  U-..T+..T...T...
00024940: 552d b00b 552e b00b 552e b00b 560b 804a  U-..U...U...V..J
00024950: 5600 803e 5600 904f 4100 9043 4123 b00b  V..>V..OA..CA#..
00024960: 572d b00b 572e b00b 582e b00b 592e b00b  W-..W...X...Y...
00024970: 592d b00b 5a2e b00b 5b2e b00b 5b2e b00b  Y-..Z...[...[...
00024980: 5c2d b00b 5d2e b00b 5d2e b00b 5e2e b00b  \-..]...]...^...
00024990: 5f2d b00b 602e b00b 602d 804f 5200 8043  _-..`...`-.OR..C
000249a0: 5200 9053 4400 9047 4401 b00b 612e b00b  R..SD..GD...a...
000249b0: 622d b00b 622e b00b 632e b00b 642e b00b  b-..b...c...d...
000249c0: 640a b00b 652e b00b 642e b00b 632d b00b  d...e...d...c-..
000249d0: 622e b00b 622e b00b 610b 8053 5700 8047  b...b...a..SW..G
000249e0: 5700 9053 4d00 9047 4d23 b00b 602d b00b  W..SM..GM#..`-..
000249f0: 602e b00b 5f2e b00b 5e2e b00b 5e2d b00b  `..._...^...^-..
00024a00: 5d2e b00b 5c2e b00b 5c2e b00b 5b2d b00b  ]...\...\...[-..
00024a10: 5a2e b00b 5a2e b00b 592e b00b 582d b00b  Z...Z...Y...X-..
00024a20: 582e b00b 572d 8053 5800 8047 5800 9051  X...W-.SX..GX..Q
00024a30: 4500 9045 4501 b00b 562e b00b 562d b00b  E..EE...V...V-..
00024a40: 552e b00b 542e b00b 542e b00b 532d b00b  U...T...T...S-..
00024a50: 522e b00b 522e b00b 512e b00b 502d b00b  R...R...Q...P-..
00024a60: 502e b00b 4f2e b00b 4e2e b00b 4e0b b00b  P...O...N...N...
00024a70: 4e2e b00b 4e2d b00b 4e16 8051 5900 8045  N...N-..N..QY..E
00024a80: 5900 9053 4e00 9047 4e18 b00b 4e2e b00b  Y..SN..GN...N...
00024a90: 4e2e b00b 4f2d b00b 4f2e b00b 4f21 8053  N...O-..O...O!.S
00024aa0: 5500 8047 5500 9054 5900 9048 590d b00b  U..GU..TY..HY...
00024ab0: 502e b00b 502d b00b 512e b00b 512e b00b  P...P-..Q...Q...
00024ac0: 512c 8054 5c00 8048 5c00 9056 5600 904a  Q,.T\..H\..VV..J
00024ad0: 5602 b00b 522d b00b 532e b00b 542e b00b  V...R-..S...T...
00024ae0: 542e b00b 552d b00b 562e b00b 572e b00b  T...U-..V...W...
00024af0: 572e b00b 582d b00b 592e b00b 5a2e b00b  W...X-..Y...Z...
00024b00: 5a2e b00b 5b2d b00b 5c2e b00b 5d2e b00b  Z...[-..\...]...
00024b10: 5d20 8056 6000 804a 6000 904f 5300 9043  ] .V`..J`..OS..C
00024b20: 530e b00b 5e2d b00b 5f2e b00b 602e b00b  S...^-.._...`...
00024b30: 602e b00b 612d b00b 621f b00b 632d b00b  `...a-..b...c-..
00024b40: 622e b00b 612e b00b 612e b00b 6018 804f  b...a...a...`..O
00024b50: 5d00 8043 5d00 904f 5e00 9043 5e15 b00b  ]..C]..O^..C^...
00024b60: 5f2e b00b 5f2e b00b 5e2e b00b 5e2d b00b  _..._...^...^-..
00024b70: 5d24 804f 5200 8043 5200 905b 4e00 904f  ]$.OR..CR..[N..O
00024b80: 4e0a b00b 5c2e b00b 5c2e b00b 5b2d b00b  N...\...\...[-..
00024b90: 5b2e b00b 5a2e b00b 5901 805b 5900 804f  [...Z...Y..[Y..O
00024ba0: 5900 905a 4400 904e 442d b00b 592d b00b  Y..ZD..ND-..Y-..
00024bb0: 582e b00b 572e b00b 572e b00b 560c 805a  X...W...W...V..Z
00024bc0: 5d00 804e 5d00 9059 4400 904d 4421 b00b  ]..N]..YD..MD!..
00024bd0: 562e b00b 552e b00b 542e b00b 5418 b00b  V...U...T...T...
00024be0: 542e b00b 542d b00b 542e b00b 542e b00b  T...T-..T...T...
00024bf0: 552e b00b 532d b00b 522e b00b 512e b00b  U...S-..R...Q...
00024c00: 4f2e b00b 4e2d b00b 4d28 b00b 4c1c 8059  O...N-..M(..L..Y
00024c10: 5700 804d 5700 9057 4400 904b 4412 b00b  W..MW..WD..KD...
00024c20: 4b2e b00b 4b2e b00b 4b2d b00b 4b2e b00b  K...K...K-..K...
00024c30: 4a2e b00b 4a2e b00b 4a2d b00b 4a2e b00b  J...J...J-..J...
00024c40: 492e b00b 492e b00b 492d b00b 492e b00b  I...I...I-..I...
00024c50: 492e b00b 482e b00b 482d b00b 482e b00b  I...H...H-..H...
00024c60: 482e b00b 472e b00b 472d b00b 472e b00b  H...G...G-..G...
00024c70: 472e b00b 462e b00b 462d b00b 462e b00b  G...F...F-..F...
00024c80: 462e b00b 462e b00b 452d b00b 452e b00b  F...F...E-..E...
00024c90: 452e b00b 452e b00b 442d b00b 442e b00b  E...E...D-..D...
00024ca0: 442e b00b 442e b00b 432d b00b 432e b00b  D...D...C-..C...
00024cb0: 432e b00b 432e b00b 432d b00b 422e b00b  C...C...C-..B...
00024cc0: 422e b00b 422e b00b 422d b00b 412e b00b  B...B...B-..A...
00024cd0: 412e b00b 412e b00b 412d b00b 402e b00b  A...A...A-..@...
00024ce0: 402e b00b 402e b00b 402d b00b 402e b00b  @...@...@-..@...
00024cf0: 3f2e b00b 3f2e b00b 3f2d b00b 3f2e b00b  ?...?...?-..?...
00024d00: 3e2e b00b 3e2e b00b 3e2d b00b 3e2e b00b  >...>...>-..>...
00024d10: 3d2e b00b 3d2e b00b 3d2d b00b 3d2e b00b  =...=...=-..=...
00024d20: 3d2e b00b 3c2e b00b 3c2d b00b 3c2e b00b  =...<...<-..<...
00024d30: 3c2e b00b 3b2e b00b 3b2d b00b 3b2e b00b  <...;...;-..;...
00024d40: 3b2e b00b 3b2e b00b 3a2d b00b 3a2e b00b  ;...;...:-..:...
00024d50: 3a2e b00b 3a2e b00b 392d b00b 392e b00b  :...:...9-..9...
00024d60: 392e b00b 392e b00b 382d b00b 382e b00b  9...9...8-..8...
00024d70: 382e b00b 382e b00b 382d b00b 372e b00b  8...8...8-..7...
00024d80: 372e b00b 372e b00b 372d b00b 362e b00b  7...7...7-..6...
00024d90: 362e b00b 362e b00b 362d b00b 352e b00b  6...6...6-..5...
00024da0: 352e b00b 352e b00b 352d b00b 350d 8057  5...5...5-..5..W
00024db0: 3f00 804b 3f21 b00b 342e b00b 342e b00b  ?..K?!..4...4...
00024dc0: 342d b00b 342e b00b 332e b00b 332e b00b  4-..4...3...3...
00024dd0: 332d b00b 332e b00b 322e b00b 322e b00b  3-..3...2...2...
00024de0: 322d b00b 322e b00b 3209 b00b 3200 ff2f  2-..2...2...2../
00024df0: 004d 5472 6b00 000c 1d00 ff01 0f48 5320  .MTrk........HS 
00024e00: 5669 6f6c 6120 4c65 6761 746f 00b0 0b7f  Viola Legato....
00024e10: 00b0 0755 88f5 70b0 0b27 2eb0 0b27 2eb0  ...U..p..'...'..
00024e20: 0b28 2db0 0b29 2eb0 0b2a 2eb0 0b2b 2eb0  .(-..)...*...+..
00024e30: 0b2b 2db0 0b2c 2eb0 0b2d 2eb0 0b2e 2eb0  .+-..,...-......
00024e40: 0b2f 2db0 0b2f 2eb0 0b30 2eb0 0b31 2eb0  ./-../...0...1..
00024e50: 0b32 2db0 0b33 2eb0 0b33 2eb0 0b34 2eb0  .2-..3...3...4..
00024e60: 0b35 2db0 0b36 2eb0 0b37 2eb0 0b38 2eb0  .5-..6...7...8..
00024e70: 0b38 2db0 0b39 2eb0 0b3a 2eb0 0b3b 2eb0  .8-..9...:...;..
00024e80: 0b3c 0a90 392d 23b0 0b3c 2eb0 0b3d 2eb0  .<..9-#..<...=..
00024e90: 0b3e 2eb0 0b3f 2db0 0b40 2eb0 0b40 2eb0  .>...?-..@...@..
00024ea0: 0b41 2eb0 0b42 2db0 0b43 2eb0 0b44 2eb0  .A...B-..C...D..
00024eb0: 0b44 2eb0 0b45 2db0 0b46 2eb0 0b47 2eb0  .D...E-..F...G..
00024ec0: 0b48 2c80 3955 0090 3b49 02b0 0b49 2db0  .H,.9U..;I...I-.
00024ed0: 0b49 2eb0 0b4a 2eb0 0b4b 2eb0 0b4c 2db0  .I...J...K...L-.
00024ee0: 0b4d 2eb0 0b4d 2eb0 0b4e 2eb0 0b4f 2db0  .M...M...N...O-.
00024ef0: 0b50 2eb0 0b51 2eb0 0b51 2eb0 0b52 2db0  .P...Q...Q...R-.
00024f00: 0b53 2eb0 0b54 2eb0 0b55 2080 3b56 0090  .S...T...U .;V..
00024f10: 3c46 0eb0 0b55 2db0 0b56 2eb0 0b57 2eb0  <F...U-..V...W..
00024f20: 0b58 2eb0 0b59 2db0 0b5a 2eb0 0b5a 2eb0  .X...Y-..Z...Z..
00024f30: 0b5b 2eb0 0b5c 2db0 0b5d 2eb0 0b5e 0980  .[...\-..]...^..
00024f40: 3c4f 0090 3e42 25b0 0b5e 2eb0 0b5f 2db0  <O..>B%..^..._-.
00024f50: 0b60 2eb0 0b61 2eb0 0b62 2eb0 0b62 2db0  .`...a...b...b-.
00024f60: 0b63 2eb0 0b64 2eb0 0b65 2eb0 0b66 2db0  .c...d...e...f-.
00024f70: 0b66 2eb0 0b67 2eb0 0b68 15b0 0b69 2eb0  .f...g...h...i..
00024f80: 0b69 2eb0 0b69 1580 3e51 0090 434d 19b0  .i...i..>Q..CM..
00024f90: 0b69 2db0 0b69 2eb0 0b6a 2eb0 0b6a 2eb0  .i-..i...j...j..
00024fa0: 0b6a 2db0 0b6a 2eb0 0b6a 2eb0 0b6a 2eb0  .j-..j...j...j..
00024fb0: 0b6a 2db0 0b6a 2eb0 0b6a 2eb0 0b6b 2eb0  .j-..j...j...k..
00024fc0: 0b6b 2db0 0b6b 2eb0 0b6b 2eb0 0b6b 0980  .k-..k...k...k..
00024fd0: 4350 0090 3e49 25b0 0b6b 2db0 0b6b 2eb0  CP..>I%..k-..k..
00024fe0: 0b6b 2eb0 0b6c 2eb0 0b6c 2db0 0b6c 2eb0  .k...l...l-..l..
00024ff0: 0b6c 2eb0 0b6c 2eb0 0b6c 2db0 0b6c 2080  .l...l...l-..l .
00025000: 3e43 0090 3c42 0eb0 0b6c 20b0 0b6d 2db0  >C..<B...l ..m-.
00025010: 0b6c 2eb0 0b6b 2eb0 0b6b 2eb0 0b6a 2db0  .l...k...k...j-.
00025020: 0b69 2eb0 0b69 2eb0 0b68 2eb0 0b68 2db0  .i...i...h...h-.
00025030: 0b67 2eb0 0b66 2eb0 0b66 2eb0 0b65 2db0  .g...f...f...e-.
00025040: 0b65 2eb0 0b64 2280 3c54 0090 434d 0cb0  .e...d".<T..CM..
00025050: 0b63 2eb0 0b63 2db0 0b62 2eb0 0b62 2eb0  .c...c-..b...b..
00025060: 0b61 2eb0 0b60 2db0 0b60 2eb0 0b5f 2eb0  .a...`-..`..._..
00025070: 0b5f 2eb0 0b5e 2db0 0b5d 2eb0 0b5d 2eb0  ._...^-..]...]..
00025080: 0b5c 2eb0 0b5c 2db0 0b5b 2eb0 0b5a 2eb0  .\...\-..[...Z..
00025090: 0b5a 2eb0 0b59 2db0 0b59 2eb0 0b58 2eb0  .Z...Y-..Y...X..
000250a0: 0b57 2eb0 0b57 2db0 0b56 2eb0 0b56 0db0  .W...W-..V...V..
000250b0: 0b56 2eb0 0b56 2db0 0b56 2080 4358 0090  .V...V-..V .CX..
000250c0: 3b46 0eb0 0b57 2eb0 0b57 2eb0 0b58 2db0  ;F...W...W...X-.
000250d0: 0b58 2eb0 0b59 2eb0 0b59 2eb0 0b5a 2db0  .X...Y...Y...Z-.
000250e0: 0b5a 2eb0 0b5b 2eb0 0b5b 2eb0 0b5c 2db0  .Z...[...[...\-.
000250f0: 0b5c 2eb0 0b5d 2eb0 0b5d 2eb0 0b5e 2db0  .\...]...]...^-.
00025100: 0b5e 1480 3b5a 0090 3e40 1ab0 0b5f 2eb0  .^..;Z..>@..._..
00025110: 0b5f 2eb0 0b5f 2db0 0b60 2eb0 0b60 2eb0  ._..._-..`...`..
00025120: 0b61 2eb0 0b61 2db0 0b62 2eb0 0b62 2eb0  .a...a-..b...b..
00025130: 0b63 2eb0 0b63 2db0 0b64 2eb0 0b64 2eb0  .c...c-..d...d..
00025140: 0b65 2eb0 0b65 2db0 0b66 0880 3e55 0090  .e...e-..f..>U..
00025150: 473a 26b0 0b66 2eb0 0b67 2eb0 0b67 2db0  G:&..f...g...g-.
00025160: 0b68 2eb0 0b68 2eb0 0b68 01b0 0b69 2eb0  .h...h...h...i..
00025170: 0b68 2eb0 0b68 2eb0 0b68 2db0 0b68 1d90  .h...h...h-..h..
00025180: 3c5b 11b0 0b68 2eb0 0b68 2eb0 0b68 2db0  <[...h...h...h-.
00025190: 0b68 2eb0 0b68 2880 4759 0080 3c56 0090  .h...h(.GY..<V..
000251a0: 3e5b 06b0 0b68 2eb0 0b68 2db0 0b68 2eb0  >[...h...h-..h..
000251b0: 0b68 2eb0 0b68 2eb0 0b68 0580 3e5b 0090  .h...h...h..>[..
000251c0: 434a 28b0 0b68 2eb0 0b68 2eb0 0b68 2eb0  CJ(..h...h...h..
000251d0: 0b68 2db0 0b68 1180 4357 0090 3c56 1db0  .h-..h..CW..<V..
000251e0: 0b68 2eb0 0b68 2eb0 0b68 2db0 0b68 2eb0  .h...h...h-..h..
000251f0: 0b68 1c80 3c55 0090 3e4e 12b0 0b68 2eb0  .h..<U..>N...h..
00025200: 0b68 2db0 0b68 2eb0 0b68 2eb0 0b69 2780  .h-..h...h...i'.
00025210: 3e4f 0090 434a 07b0 0b69 2db0 0b69 2eb0  >O..CJ...i-..i..
00025220: 0b69 2eb0 0b69 2eb0 0b69 2db0 0b69 0580  .i...i...i-..i..
00025230: 4359 0090 3c58 29b0 0b69 2eb0 0b69 2eb0  CY..<X)..i...i..
00025240: 0b69 2db0 0b69 2eb0 0b69 1080 3c59 0090  .i-..i...i..<Y..
00025250: 3e54 1eb0 0b69 2eb0 0b69 2db0 0b69 2eb0  >T...i...i-..i..
00025260: 0b69 2eb0 0b69 1b80 3e49 0090 4344 13b0  .i...i..>I..CD..
00025270: 0b69 2db0 0b69 2eb0 0b69 2eb0 0b69 2eb0  .i-..i...i...i..
00025280: 0b69 2680 4361 0090 3e54 07b0 0b69 2eb0  .i&.Ca..>T...i..
00025290: 0b69 2eb0 0b69 2eb0 0b69 2db0 0b69 06b0  .i...i...i-..i..
000252a0: 0b6a 2c80 3e49 0090 3758 02b0 0b69 2eb0  .j,.>I..7X...i..
000252b0: 0b69 2db0 0b69 2eb0 0b69 2eb0 0b69 2eb0  .i-..i...i...i..
000252c0: 0b69 0980 3759 0090 3b45 24b0 0b69 2eb0  .i..7Y..;E$..i..
000252d0: 0b69 2eb0 0b69 2eb0 0b69 2db0 0b69 1580  .i...i...i-..i..
000252e0: 3b56 0090 3e45 19b0 0b69 2eb0 0b69 2eb0  ;V..>E...i...i..
000252f0: 0b69 2db0 0b69 2eb0 0b69 2080 3e56 0090  .i-..i...i .>V..
00025300: 434a 0eb0 0b69 2eb0 0b68 2db0 0b68 2eb0  CJ...i...h-..h..
00025310: 0b68 2eb0 0b68 2b80 4358 0090 4a45 03b0  .h...h+.CX..JE..
00025320: 0b68 2db0 0b68 2eb0 0b68 2eb0 0b68 2eb0  .h-..h...h...h..
00025330: 0b68 2db0 0b68 0980 4a5c 0090 4358 25b0  .h-..h..J\..CX%.
00025340: 0b68 2eb0 0b68 2eb0 0b68 2db0 0b68 2eb0  .h...h...h-..h..
00025350: 0b68 1480 4351 0090 485e 1ab0 0b68 2eb0  .h..CQ..H^...h..
00025360: 0b68 2db0 0b68 2eb0 0b67 2eb0 0b67 2eb0  .h-..h...g...g..
00025370: 0b67 2db0 0b67 2eb0 0b67 2eb0 0b67 2eb0  .g-..g...g...g..
00025380: 0b67 2db0 0b67 2eb0 0b67 2eb0 0b67 2eb0  .g-..g...g...g..
00025390: 0b67 2db0 0b67 2eb0 0b67 0880 485b 0090  .g-..g...g..H[..
000253a0: 4758 26b0 0b67 2eb0 0b67 2db0 0b67 2eb0  GX&..g...g-..g..
000253b0: 0b67 2eb0 0b67 2eb0 0b66 2db0 0b66 2eb0  .g...g...f-..f..
000253c0: 0b66 2eb0 0b66 2eb0 0b66 2db0 0b66 2eb0  .f...f...f-..f..
000253d0: 0b66 2eb0 0b66 2eb0 0b66 2db0 0b66 2a80  .f...f...f-..f*.
000253e0: 4757 0090 4356 04b0 0b66 2eb0 0b66 2eb0  GW..CV...f...f..
000253f0: 0b66 2db0 0b66 2eb0 0b66 2eb0 0b66 2eb0  .f-..f...f...f..
00025400: 0b66 28b0 0b66 2eb0 0b65 2eb0 0b65 2db0  .f(..f...e...e-.
00025410: 0b65 1880 4359 0090 3c4e 16b0 0b65 2eb0  .e..CY..<N...e..
00025420: 0b65 2eb0 0b65 2db0 0b64 2eb0 0b64 2380  .e...e-..d...d#.
00025430: 3c4f 0090 354a 0bb0 0b64 2eb0 0b64 2db0  <O..5J...d...d-.
00025440: 0b64 2eb0 0b64 2eb0 0b63 2e80 3559 00b0  .d...d...c..5Y..
00025450: 0b63 0090 3758 2db0 0b63 2eb0 0b63 2eb0  .c..7X-..c...c..
00025460: 0b63 2eb0 0b63 2cb0 0b63 0d80 3759 0090  .c...c,..c..7Y..
00025470: 3c58 21b0 0b63 2eb0 0b63 2db0 0b63 2eb0  <X!..c...c-..c..
00025480: 0b63 2eb0 0b63 2eb0 0b64 2db0 0b64 2eb0  .c...c...d-..d..
00025490: 0b64 2eb0 0b64 2eb0 0b64 2db0 0b64 2eb0  .d...d...d-..d..
000254a0: 0b64 2eb0 0b64 2eb0 0b64 2db0 0b65 2eb0  .d...d...d-..e..
000254b0: 0b65 0180 3c59 0090 4158 2db0 0b65 2eb0  .e..<Y..AX-..e..
000254c0: 0b65 2db0 0b65 2eb0 0b65 2eb0 0b65 2eb0  .e-..e...e...e..
000254d0: 0b65 2db0 0b66 2eb0 0b66 2eb0 0b66 2eb0  .e-..f...f...f..
000254e0: 0b66 1780 4159 0090 4244 16b0 0b66 2eb0  .f..AY..BD...f..
000254f0: 0b66 2eb0 0b66 2eb0 0b66 2db0 0b66 2eb0  .f...f...f-..f..
00025500: 0b67 2eb0 0b67 2eb0 0b67 2db0 0b67 2eb0  .g...g...g-..g..
00025510: 0b67 2eb0 0b67 2eb0 0b67 2db0 0b67 2eb0  .g...g...g-..g..
00025520: 0b68 2eb0 0b68 2eb0 0b68 2db0 0b68 2eb0  .h...h...h-..h..
00025530: 0b68 2eb0 0b68 2eb0 0b68 2db0 0b68 2eb0  .h...h...h-..h..
00025540: 0b68 02b0 0b69 2eb0 0b68 2db0 0b68 2eb0  .h...i...h-..h..
00025550: 0b67 2eb0 0b67 2eb0 0b67 2db0 0b66 2eb0  .g...g...g-..f..
00025560: 0b66 2eb0 0b66 2eb0 0b65 2db0 0b65 2eb0  .f...f...e-..e..
00025570: 0b65 2eb0 0b64 2eb0 0b64 2db0 0b64 2eb0  .e...d...d-..d..
00025580: 0b63 0980 4248 25b0 0b63 2eb0 0b63 2db0  .c..BH%..c...c-.
00025590: 0b62 2eb0 0b62 2eb0 0b61 1490 3e42 1ab0  .b...b...a..>B..
000255a0: 0b61 2db0 0b61 2eb0 0b60 2eb0 0b60 2eb0  .a-..a...`...`..
000255b0: 0b60 1fb0 0b60 2eb0 0b60 2eb0 0b60 2db0  .`...`...`...`-.
000255c0: 0b60 2eb0 0b60 2eb0 0b60 2eb0 0b60 2db0  .`...`...`...`-.
000255d0: 0b61 2eb0 0b61 2eb0 0b61 2eb0 0b61 1680  .a...a...a...a..
000255e0: 3e56 0090 4341 17b0 0b61 2eb0 0b61 2eb0  >V..CA...a...a..
000255f0: 0b62 2eb0 0b62 2db0 0b62 2eb0 0b62 2eb0  .b...b-..b...b..
00025600: 0b62 2eb0 0b62 2db0 0b62 2eb0 0b63 2eb0  .b...b-..b...c..
00025610: 0b63 2eb0 0b63 2db0 0b63 2eb0 0b63 2eb0  .c...c-..c...c..
00025620: 0b63 2eb0 0b64 0a80 4352 0090 4744 23b0  .c...d..CR..GD#.
00025630: 0b64 2eb0 0b64 2eb0 0b64 2eb0 0b64 2db0  .d...d...d...d-.
00025640: 0b64 2eb0 0b64 2eb0 0b65 2eb0 0b65 2db0  .d...d...e...e-.
00025650: 0b65 2eb0 0b65 2180 4757 0090 474d 0db0  .e...e!.GW..GM..
00025660: 0b65 2eb0 0b65 20b0 0b66 2eb0 0b68 2db0  .e...e ..f...h-.
00025670: 0b68 2eb0 0b68 2eb0 0b68 2eb0 0b68 2db0  .h...h...h...h-.
00025680: 0b69 2eb0 0b69 2eb0 0b69 14b0 0b6a 2db0  .i...i...i...j-.
00025690: 0b69 2eb0 0b69 2eb0 0b68 2eb0 0b68 2db0  .i...i...h...h-.
000256a0: 0b68 0f80 4758 0090 4545 1fb0 0b66 2eb0  .h..GX..EE...f..
000256b0: 0b65 2eb0 0b65 2db0 0b65 2eb0 0b63 2eb0  .e...e-..e...c..
000256c0: 0b63 2eb0 0b62 2db0 0b61 2eb0 0b61 2eb0  .c...b-..a...a..
000256d0: 0b60 1bb0 0b60 2db0 0b60 2eb0 0b60 2eb0  .`...`-..`...`..
000256e0: 0b60 2eb0 0b60 2db0 0b60 1680 4559 0090  .`...`-..`..EY..
000256f0: 474e 18b0 0b60 2eb0 0b60 2eb0 0b60 2db0  GN...`...`...`-.
00025700: 0b60 2eb0 0b60 2180 4755 0090 4859 0db0  .`...`!.GU..HY..
00025710: 0b61 2eb0 0b61 2db0 0b62 2eb0 0b62 2eb0  .a...a-..b...b..
00025720: 0b62 2c80 485c 0090 4a56 02b0 0b63 2db0  .b,.H\..JV...c-.
00025730: 0b63 2eb0 0b65 2eb0 0b65 2eb0 0b65 2db0  .c...e...e...e-.
00025740: 0b65 2eb0 0b65 2eb0 0b66 2eb0 0b66 2db0  .e...e...f...f-.
00025750: 0b66 2eb0 0b68 2eb0 0b68 1eb0 0b68 2eb0  .f...h...h...h..
00025760: 0b68 2eb0 0b66 2db0 0b65 2eb0 0b65 0280  .h...f-..e...e..
00025770: 4a60 0090 4353 2cb0 0b65 2eb0 0b63 2db0  J`..CS,..e...c-.
00025780: 0b62 2eb0 0b61 2eb0 0b61 2eb0 0b61 2db0  .b...a...a...a-.
00025790: 0b61 2eb0 0b61 2eb0 0b61 2eb0 0b61 1880  .a...a...a...a..
000257a0: 435d 0090 435e 15b0 0b62 2eb0 0b5e 2eb0  C]..C^...b...^..
000257b0: 0b5a 2eb0 0b56 2db0 0b52 00b0 0b52 2480  .Z...V-..R...R$.
000257c0: 4352 0090 4f4e 0ab0 0b51 2eb0 0b51 2eb0  CR..ON...Q...Q..
000257d0: 0b51 2db0 0b51 2eb0 0b50 2eb0 0b50 0180  .Q-..Q...P...P..
000257e0: 4f59 0090 4e44 2db0 0b50 2db0 0b50 2eb0  OY..ND-..P-..P..
000257f0: 0b4f 2eb0 0b4f 2eb0 0b4f 0c80 4e5d 0090  .O...O...O..N]..
00025800: 4d44 21b0 0b4f 2eb0 0b4f 2eb0 0b4e 2eb0  MD!..O...O...N..
00025810: 0b4e 2db0 0b4e 2eb0 0b4e 2eb0 0b4d 2eb0  .N-..N...N...M..
00025820: 0b4d 2db0 0b4d 2eb0 0b4d 2eb0 0b4c 2eb0  .M-..M...M...L..
00025830: 0b4c 2db0 0b4c 2eb0 0b4c 2eb0 0b4c 2e80  .L-..L...L...L..
00025840: 4d57 00b0 0b4b 0090 4b44 2db0 0b4b 2eb0  MW...K..KD-..K..
00025850: 0b4b 2eb0 0b4b 2eb0 0b4a 2db0 0b4a 2eb0  .K...K...J-..J..
00025860: 0b4a 2eb0 0b4a 2eb0 0b49 2db0 0b49 2eb0  .J...J...I-..I..
00025870: 0b49 2eb0 0b49 2eb0 0b49 2db0 0b48 2eb0  .I...I...I-..H..
00025880: 0b48 2eb0 0b48 2eb0 0b48 2db0 0b47 2eb0  .H...H...H-..G..
00025890: 0b47 2eb0 0b47 2eb0 0b47 2db0 0b46 2eb0  .G...G...G-..F..
000258a0: 0b46 2eb0 0b46 2eb0 0b46 2db0 0b46 2eb0  .F...F...F-..F..
000258b0: 0b45 2eb0 0b45 2eb0 0b45 2db0 0b45 2eb0  .E...E...E-..E..
000258c0: 0b44 2eb0 0b44 2eb0 0b44 2db0 0b44 2eb0  .D...D...D-..D..
000258d0: 0b44 2eb0 0b43 2eb0 0b43 2db0 0b43 2eb0  .D...C...C-..C..
000258e0: 0b43 2eb0 0b42 2eb0 0b42 2db0 0b42 2eb0  .C...B...B-..B..
000258f0: 0b42 2eb0 0b41 2eb0 0b41 2db0 0b41 2eb0  .B...A...A-..A..
00025900: 0b41 2eb0 0b41 2eb0 0b40 2db0 0b40 2eb0  .A...A...@-..@..
00025910: 0b40 2eb0 0b40 2eb0 0b3f 2db0 0b3f 2eb0  .@...@...?-..?..
00025920: 0b3f 2eb0 0b3f 2eb0 0b3e 2db0 0b3e 2eb0  .?...?...>-..>..
00025930: 0b3e 2eb0 0b3e 2eb0 0b3e 2db0 0b3d 2eb0  .>...>...>-..=..
00025940: 0b3d 2eb0 0b3d 2eb0 0b3d 2db0 0b3c 2eb0  .=...=...=-..<..
00025950: 0b3c 2eb0 0b3c 2eb0 0b3c 2db0 0b3b 2eb0  .<...<...<-..;..
00025960: 0b3b 2eb0 0b3b 2eb0 0b3b 2db0 0b3b 2eb0  .;...;...;-..;..
00025970: 0b3a 2eb0 0b3a 2eb0 0b3a 2db0 0b3a 2eb0  .:...:...:-..:..
00025980: 0b39 2eb0 0b39 2eb0 0b39 2db0 0b39 2eb0  .9...9...9-..9..
00025990: 0b39 2eb0 0b38 2eb0 0b38 2db0 0b38 2eb0  .9...8...8-..8..
000259a0: 0b38 2eb0 0b37 2eb0 0b37 2db0 0b37 2eb0  .8...7...7-..7..
000259b0: 0b37 2eb0 0b36 2eb0 0b36 2db0 0b36 2eb0  .7...6...6-..6..
000259c0: 0b36 2eb0 0b36 2eb0 0b35 2db0 0b35 2eb0  .6...6...5-..5..
000259d0: 0b35 2eb0 0b35 1f80 4b3f 0fb0 0b34 2db0  .5...5..K?...4-.
000259e0: 0b34 2eb0 0b34 2eb0 0b34 2eb0 0b33 2db0  .4...4...4...3-.
000259f0: 0b33 2eb0 0b33 2eb0 0b33 2eb0 0b33 2db0  .3...3...3...3-.
00025a00: 0b32 2eb0 0b32 2eb0 0b32 2eb0 0b32 1bb0  .2...2...2...2..
00025a10: 0b32 00ff 2f00 4d54 726b 0000 1203 00ff  .2../.MTrk......
00025a20: 010f 4853 2043 656c 6c6f 204c 6567 6174  ..HS Cello Legat
00025a30: 6f00 b00b 7f00 b007 7f00 b007 7f81 f549  o..............I
00025a40: b00b 042d b00b 042e b00b 052e b00b 062e  ...-............
00025a50: b00b 072d b00b 0813 9035 011b b00b 092e  ...-.....5......
00025a60: b00b 0a2e b00b 0b2d b00b 0c2e b00b 0d2e  .......-........
00025a70: b00b 0e2e b00b 0f2d b00b 0f2e b00b 102e  .......-........
00025a80: b00b 112e b00b 102d b00b 0f2e b00b 0e2e  .......-........
00025a90: b00b 0d2e b00b 0c2d b00b 0b2e b00b 0a2e  .......-........
00025aa0: b00b 092e b00b 082d b00b 072e b00b 062e  .......-........
00025ab0: b00b 0526 b00b 052e b00b 062d b00b 072e  ...&.......-....
00025ac0: b00b 0825 8035 5a00 9037 1b09 b00b 092e  ...%.5Z..7......
00025ad0: b00b 0b2d b00b 0c2e b00b 0d2e b00b 0e02  ...-............
00025ae0: b00b 0f2d b00b 1001 8037 5900 9039 3f2d  ...-.....7Y..9?-
00025af0: b00b 102e b00b 102e b00b 102d b00b 102e  ...........-....
00025b00: b00b 102e b00b 102e b00b 102d b00b 112e  ...........-....
00025b10: b00b 112e b00b 1117 8039 5400 903a 1817  .........9T..:..
00025b20: b00b 112d b00b 112e b00b 112e b00b 112e  ...-............
00025b30: b00b 122d b00b 122e b00b 122e b00b 122e  ...-............
00025b40: b00b 122d b00b 122e b00b 122e b00b 132e  ...-............
00025b50: b00b 132d b00b 132e b00b 132e b00b 132e  ...-............
00025b60: b00b 132d b00b 132e b00b 142e b00b 142e  ...-............
00025b70: b00b 1416 803a 3b00 903c 0117 b00b 142e  .....:;..<......
00025b80: b00b 142e b00b 142e b00b 142d b00b 152e  ...........-....
00025b90: b00b 152e b00b 152e b00b 152d b00b 152e  ...........-....
00025ba0: b00b 152e b00b 152e b00b 162d b00b 162e  ...........-....
00025bb0: b00b 162e b00b 162e b00b 162d b00b 162e  ...........-....
00025bc0: b00b 162e b00b 172e b00b 172d b00b 1716  ...........-....
00025bd0: 803c 6018 b00b 172e b00b 172e b00b 172d  .<`............-
00025be0: b00b 171f b00b 1814 b00b 1a2e b00b 1b2e  ................
00025bf0: b00b 1c2e b00b 1d2d b00b 1e2e b00b 1f2e  .......-........
00025c00: b00b 202e b00b 202d b00b 212e b00b 222e  .. ... -..!...".
00025c10: b00b 232e b00b 242d b00b 252e b00b 262e  ..#...$-..%...&.
00025c20: b00b 262e b00b 272d b00b 282e b00b 292e  ..&...'-..(...).
00025c30: b00b 2a2e b00b 2b2d b00b 2c2e b00b 2d2e  ..*...+-..,...-.
00025c40: b00b 2d2e b00b 2e2d b00b 2f15 b00b 3086  ..-....-../...0.
00025c50: 9a28 b00b 382e b00b 372e b00b 372e b00b  .(..8...7...7...
00025c60: 372d b00b 372e b00b 372e b00b 372e b00b  7-..7...7...7...
00025c70: 372d b00b 372e b00b 362e b00b 362e b00b  7-..7...6...6...
00025c80: 362d b00b 362e b00b 362e b00b 362e b00b  6-..6...6...6...
00025c90: 362d b00b 362e b00b 352e b00b 352e b00b  6-..6...5...5...
00025ca0: 352d b00b 352e b00b 352e b00b 352e b00b  5-..5...5...5...
00025cb0: 352d b00b 352e b00b 352e b00b 342e b00b  5-..5...5...4...
00025cc0: 342d b00b 342e b00b 342e b00b 342e b00b  4-..4...4...4...
00025cd0: 342d b00b 342e b00b 342e b00b 332e b00b  4-..4...4...3...
00025ce0: 332d b00b 332e b00b 332e b00b 332e b00b  3-..3...3...3...
00025cf0: 332d b00b 332e b00b 332e b00b 332e b00b  3-..3...3...3...
00025d00: 322d b00b 322e b00b 322e b00b 322e b00b  2-..2...2...2...
00025d10: 322d b00b 322e b00b 322e b00b 322e b00b  2-..2...2...2...
00025d20: 312d b00b 312e b00b 312e b00b 312e b00b  1-..1...1...1...
00025d30: 312d b00b 312e b00b 312e b00b 312e b00b  1-..1...1...1...
00025d40: 312d b00b 302e b00b 302e b00b 302e b00b  1-..0...0...0...
00025d50: 302d b00b 302e b00b 302e b00b 302e b00b  0-..0...0...0...
00025d60: 302d b00b 2f2e b00b 2f2e b00b 2f2e b00b  0-../.../.../...
00025d70: 2f2d b00b 2f2e b00b 2f2e b00b 2f2e b00b  /-../.../.../...
00025d80: 2f2d b00b 2f2e b00b 2e2e b00b 2e2e b00b  /-../...........
00025d90: 2e2d b00b 2e2e b00b 2e2e b00b 2e2e b00b  .-..............
00025da0: 2e2d b00b 2e2e b00b 2d2e b00b 2d2e b00b  .-......-...-...
00025db0: 2d2d b00b 2d2e b00b 2d2e b00b 2d2e b00b  --..-...-...-...
00025dc0: 2d2d b00b 2d2e b00b 2d2e b00b 2c2e b00b  --..-...-...,...
00025dd0: 2c2d b00b 2c2e b00b 2c2e b00b 2c2e b00b  ,-..,...,...,...
00025de0: 2c2d b00b 2c2e b00b 2c2e b00b 2b2e b00b  ,-..,...,...+...
00025df0: 2b2d b00b 2b2e b00b 2b2e b00b 2b2e b00b  +-..+...+...+...
00025e00: 2b2d b00b 2b2e b00b 2b2e b00b 2b2e b00b  +-..+...+...+...
00025e10: 2a2d b00b 2a2e b00b 2a2e b00b 2a2e b00b  *-..*...*...*...
00025e20: 2a2d b00b 2a2e b00b 2a2e b00b 2a2e b00b  *-..*...*...*...
00025e30: 292d b00b 292e b00b 292e b00b 292e b00b  )-..)...)...)...
00025e40: 292d b00b 292e b00b 292e b00b 292e b00b  )-..)...)...)...
00025e50: 282d b00b 282e b00b 282e b00b 282e b00b  (-..(...(...(...
00025e60: 282d b00b 282e b00b 282e b00b 282e b00b  (-..(...(...(...
00025e70: 2814 b00b 280c b00b 352e b00b 3a2e b00b  (...(...5...:...
00025e80: 402d b00b 452e b00b 4b2d b00b 512e b00b  @-..E...K-..Q...
00025e90: 512e b00b 512d b00b 512e b00b 512e b00b  Q...Q-..Q...Q...
00025ea0: 512e b00b 512d b00b 512e b00b 512e b00b  Q...Q-..Q...Q...
00025eb0: 512e b00b 5116 902c 2017 b00b 512e b00b  Q...Q.., ...Q...
00025ec0: 512e b00b 512e b00b 512d b00b 512e b00b  Q...Q...Q-..Q...
00025ed0: 512e b00b 512e b00b 512d b00b 512e b00b  Q...Q...Q-..Q...
00025ee0: 512e b00b 512e b00b 512d b00b 512e b00b  Q...Q...Q-..Q...
00025ef0: 512e b00b 512e b00b 512d b00b 512e b00b  Q...Q...Q-..Q...
00025f00: 512e b00b 512e b00b 512d b00b 512e b00b  Q...Q...Q-..Q...
00025f10: 512e b00b 512e b00b 512d b00b 512e b00b  Q...Q...Q-..Q...
00025f20: 512e b00b 512e b00b 512d b00b 512e b00b  Q...Q...Q-..Q...
00025f30: 512e b00b 512e b00b 512d b00b 512e b00b  Q...Q...Q-..Q...
00025f40: 512e b00b 512e b00b 512d b00b 512e b00b  Q...Q...Q-..Q...
00025f50: 512e b00b 512e b00b 512d b00b 512e b00b  Q...Q...Q-..Q...
00025f60: 5115 802c 4f00 902a 3919 b00b 512e b00b  Q..,O..*9...Q...
00025f70: 512d b00b 512e b00b 512e b00b 512e b00b  Q-..Q...Q...Q...
00025f80: 512d b00b 512e b00b 512e b00b 512e b00b  Q-..Q...Q...Q...
00025f90: 512d b00b 512e b00b 512e b00b 512e b00b  Q-..Q...Q...Q...
00025fa0: 512d b00b 512e b00b 512e b00b 512e b00b  Q-..Q...Q...Q...
00025fb0: 512d b00b 512e b00b 512e b00b 5114 802a  Q-..Q...Q...Q..*
00025fc0: 4900 9026 4d1a b00b 512d b00b 512e b00b  I..&M...Q-..Q...
00025fd0: 512e b00b 512e b00b 512d b00b 512e b00b  Q...Q...Q-..Q...
00025fe0: 512e b00b 512e b00b 512d b00b 512e b00b  Q...Q...Q-..Q...
00025ff0: 512e b00b 512e b00b 512d b00b 512e b00b  Q...Q...Q-..Q...
00026000: 512e b00b 512e b00b 512d b00b 512e b00b  Q...Q...Q-..Q...
00026010: 512e b00b 512e b00b 5113 8026 5c00 902b  Q...Q...Q..&\..+
00026020: 511a b00b 512e b00b 512e b00b 512e b00b  Q...Q...Q...Q...
00026030: 512d b00b 512e b00b 512e b00b 512e b00b  Q-..Q...Q...Q...
00026040: 512d b00b 512e b00b 512a 802b 5b00 9032  Q-..Q...Q*.+[..2
00026050: 4a04 b00b 512e b00b 512d b00b 512e b00b  J...Q...Q-..Q...
00026060: 512e b00b 512e b00b 512d b00b 512e b00b  Q...Q...Q-..Q...
00026070: 512e b00b 512e b00b 512d b00b 512e b00b  Q...Q...Q-..Q...
00026080: 512e b00b 512e b00b 512d b00b 512e b00b  Q...Q...Q-..Q...
00026090: 512e b00b 512e b00b 512d b00b 512e b00b  Q...Q...Q-..Q...
000260a0: 512e b00b 5129 8032 5a00 902b 5305 b00b  Q...Q).2Z..+S...
000260b0: 512d b00b 512e b00b 512e b00b 512e b00b  Q-..Q...Q...Q...
000260c0: 512d b00b 512e b00b 512e b00b 512e b00b  Q-..Q...Q...Q...
000260d0: 512d b00b 512e b00b 512e b00b 512e b00b  Q-..Q...Q...Q...
000260e0: 512d b00b 512e b00b 512e b00b 512e b00b  Q-..Q...Q...Q...
000260f0: 512d b00b 522e b00b 522e b00b 522e b00b  Q-..R...R...R...
00026100: 5228 802b 5a00 9030 4605 b00b 522e b00b  R(.+Z..0F...R...
00026110: 522e b00b 522e b00b 522d b00b 522e b00b  R...R...R-..R...
00026120: 522e b00b 522e b00b 522d b00b 522e b00b  R...R...R-..R...
00026130: 522e b00b 522e b00b 522d b00b 522e b00b  R...R...R-..R...
00026140: 522e b00b 522e b00b 522d b00b 522e b00b  R...R...R-..R...
00026150: 522e b00b 522e b00b 522d b00b 5228 8030  R...R...R-..R(.0
00026160: 5f00 9034 5e06 b00b 522e b00b 522e b00b  _..4^...R...R...
00026170: 522d b00b 522e b00b 522e b00b 522e b00b  R-..R...R...R...
00026180: 522d b00b 522e b00b 522e b00b 522e b00b  R-..R...R...R...
00026190: 5210 8034 6100 902b 631d b00b 522e b00b  R..4a..+c...R...
000261a0: 522e b00b 522e b00b 522d b00b 522e b00b  R...R...R-..R...
000261b0: 522e b00b 522e b00b 522d b00b 522e b00b  R...R...R-..R...
000261c0: 5227 802b 5f00 9032 5407 b00b 522e b00b  R'.+_..2T...R...
000261d0: 522d b00b 522e b00b 522e b00b 522e b00b  R-..R...R...R...
000261e0: 522d b00b 522e b00b 522e b00b 522e b00b  R-..R...R...R...
000261f0: 522d b00b 522e b00b 522e b00b 522e b00b  R-..R...R...R...
00026200: 522d b00b 522e b00b 522e b00b 522e b00b  R-..R...R...R...
00026210: 522d b00b 522e b00b 522e b00b 522e b00b  R-..R...R...R...
00026220: 522d b00b 522e b00b 522e b00b 522e b00b  R-..R...R...R...
00026230: 522d b00b 522e b00b 522e b00b 522e b00b  R-..R...R...R...
00026240: 522d b00b 522e b00b 520f 8032 5b00 9034  R-..R...R..2[..4
00026250: 561f b00b 522e b00b 522d b00b 522e b00b  V...R...R-..R...
00026260: 522e b00b 522e b00b 522d b00b 522e b00b  R...R...R-..R...
00026270: 522e b00b 522e b00b 522d b00b 522e b00b  R...R...R-..R...
00026280: 522e b00b 522e b00b 522d b00b 522e b00b  R...R...R-..R...
00026290: 522e b00b 522e b00b 522d b00b 522e b00b  R...R...R-..R...
000262a0: 522e b00b 522e b00b 522d b00b 522e b00b  R...R...R-..R...
000262b0: 522e b00b 522e b00b 5219 8034 5900 9034  R...R...R..4Y..4
000262c0: 4014 b00b 522e b00b 522e b00b 522e b00b  @...R...R...R...
000262d0: 522d b00b 5225 8034 5900 902a 5e09 b00b  R-..R%.4Y..*^...
000262e0: 522e b00b 522e b00b 522d b00b 522e b00b  R...R...R-..R...
000262f0: 522e b00b 522e b00b 522d b00b 522e b00b  R...R...R-..R...
00026300: 522e b00b 522e b00b 520d 802a 5b00 9028  R...R...R..*[..(
00026310: 5820 b00b 522e b00b 522e b00b 522e b00b  X ..R...R...R...
00026320: 522d b00b 522e b00b 522e b00b 522e b00b  R-..R...R...R...
00026330: 522d b00b 522e b00b 522e b00b 522e b00b  R-..R...R...R...
00026340: 522d b00b 522e b00b 522e b00b 522e b00b  R-..R...R...R...
00026350: 5201 8028 5b00 902f 4d2c b00b 522e b00b  R..([../M,..R...
00026360: 522e b00b 522e b00b 522d b00b 522e b00b  R...R...R-..R...
00026370: 5201 b00b 5301 b00b 542d b00b 542e b00b  R...S...T-..T...
00026380: 542e b00b 542e b00b 542d b00b 542e b00b  T...T...T-..T...
00026390: 542e b00b 542e b00b 542d b00b 5422 9026  T...T...T-..T".&
000263a0: 5b0c b00b 542e b00b 542e b00b 542d b00b  [...T...T...T-..
000263b0: 542e b00b 542d 802f 5d01 b00b 542e b00b  T...T-./]...T...
000263c0: 542d b00b 542e b00b 542e b00b 542e b00b  T-..T...T...T...
000263d0: 540a 8026 6000 9024 4e23 b00b 542e b00b  T..&`..$N#..T...
000263e0: 542e b00b 542e b00b 542d b00b 542e b00b  T...T...T-..T...
000263f0: 542e b00b 542e b00b 542d b00b 542e b00b  T...T...T-..T...
00026400: 542e b00b 542e b00b 542d b00b 542e b00b  T...T...T-..T...
00026410: 542e b00b 542c 9030 4802 b00b 542d b00b  T...T,.0H...T-..
00026420: 542e b00b 542e b00b 542e b00b 542d b00b  T...T...T...T-..
00026430: 540a 8024 4924 b00b 542e b00b 542e b00b  T..$I$..T...T...
00026440: 542d b00b 542e b00b 542e b00b 542e b00b  T-..T...T...T...
00026450: 542d b00b 542e b00b 542e b00b 5420 8030  T-..T...T...T .0
00026460: 5300 9034 430e b00b 542d b00b 542e b00b  S..4C...T-..T...
00026470: 542e b00b 542e b00b 542d b00b 542e b00b  T...T...T-..T...
00026480: 542e b00b 542e b00b 542d b00b 542e b00b  T...T...T-..T...
00026490: 5409 8034 6100 9035 5825 b00b 552e b00b  T..4a..5X%..U...
000264a0: 552d b00b 552e b00b 552e b00b 552e b00b  U-..U...U...U...
000264b0: 552d b00b 552e b00b 552e b00b 552e b00b  U-..U...U...U...
000264c0: 552d b00b 552e b00b 552e b00b 552e b00b  U-..U...U...U...
000264d0: 552d b00b 552e b00b 552e b00b 552e b00b  U-..U...U...U...
000264e0: 552d b00b 552e b00b 552e b00b 552e b00b  U-..U...U...U...
000264f0: 552d b00b 552e b00b 552e b00b 552e b00b  U-..U...U...U...
00026500: 5513 8035 5b00 9035 4b1a b00b 552e b00b  U..5[..5K...U...
00026510: 552e b00b 552e b00b 552d b00b 561f 8035  U...U...U-..V..5
00026520: 5b00 9030 4a0f b00b 562e b00b 562e b00b  [..0J...V...V...
00026530: 562d b00b 562e b00b 562a 8030 5f00 902d  V-..V...V*.0_..-
00026540: 4d04 b00b 562e b00b 562d b00b 562e b00b  M...V...V-..V...
00026550: 562e b00b 562e b00b 5607 802d 6000 9026  V...V...V..-`..&
00026560: 5926 b00b 562e b00b 562e b00b 562e b00b  Y&..V...V...V...
00026570: 562d b00b 562e b00b 562e b00b 562e b00b  V-..V...V...V...
00026580: 562d b00b 562e b00b 561e 8026 4f00 9032  V-..V...V..&O..2
00026590: 5310 b00b 562e b00b 562d b00b 562e b00b  S...V...V-..V...
000265a0: 562e b00b 5629 8032 6000 9037 4605 b00b  V...V).2`..7F...
000265b0: 562d b00b 562e b00b 572e b00b 572e b00b  V-..V...W...W...
000265c0: 572d b00b 572e b00b 572e b00b 572e b00b  W-..W...W...W...
000265d0: 572d b00b 572e b00b 5712 8037 5300 9036  W-..W...W..7S..6
000265e0: 5c1c b00b 572e b00b 572d b00b 572e b00b  \...W...W-..W...
000265f0: 572e b00b 571d 8036 5c00 9032 5911 b00b  W...W..6\..2Y...
00026600: 572d b00b 572e b00b 572e b00b 572e b00b  W-..W...W...W...
00026610: 5728 8032 5f00 9030 5605 b00b 572e b00b  W(.2_..0V...W...
00026620: 572e b00b 572e b00b 572d b00b 572e b00b  W...W...W-..W...
00026630: 5706 8030 6100 902f 5828 b00b 572e b00b  W..0a../X(..W...
00026640: 572d b00b 572e b00b 572e b00b 5711 b00b  W-..W...W...W...
00026650: 582e b00b 572e b00b 572d b00b 572e b00b  X...W...W-..W...
00026660: 572e b00b 5781 7b80 2f5e 0090 3762 8550  W...W.{./^..7b.P
00026670: 8037 5f00 9032 6283 6080 324f 0090 3059  .7_..2b.`.2O..0Y
00026680: 8550 8030 5600 9039 5167 b00b 572e b00b  .P.0V..9Qg..W...
00026690: 562d b00b 562e b00b 552e b00b 552e b00b  V-..V...U...U...
000266a0: 552d b00b 542e b00b 542e b00b 532e b00b  U-..T...T...S...
000266b0: 532d b00b 532e b00b 522e b00b 522e b00b  S-..S...R...R...
000266c0: 5216 8039 6300 9030 4e17 b00b 512e b00b  R..9c..0N...Q...
000266d0: 512e b00b 502e b00b 502d b00b 502e b00b  Q...P...P-..P...
000266e0: 4f2e b00b 4f2e b00b 4f2d b00b 4e2e b00b  O...O...O-..N...
000266f0: 4e2d 8030 7000 902f 5601 b00b 4d2e b00b  N-.0p../V...M...
00026700: 4d2d b00b 4d2e b00b 4c2e b00b 4c2e b00b  M-..M...L...L...
00026710: 4c2d b00b 4b2e b00b 4b2e b00b 4a2e b00b  L-..K...K...J...
00026720: 4a2d b00b 4a2e b00b 492e b00b 492e b00b  J-..J...I...I...
00026730: 492d b00b 482e b00b 4821 802f 5e00 9028  I-..H...H!./^..(
00026740: 5b0d b00b 472e b00b 472d b00b 471a b00b  [...G...G-..G...
00026750: 472e b00b 462d b00b 452e b00b 452e b00b  G...F-..E...E...
00026760: 442e b00b 442d b00b 432e b00b 432e b00b  D...D-..C...C...
00026770: 422e b00b 422d b00b 412e b00b 412e b00b  B...B-..A...A...
00026780: 402e b00b 3f2d b00b 3f2e b00b 3e2e b00b  @...?-..?...>...
00026790: 3e2e b00b 3d2d b00b 3d2e b00b 3c2e b00b  >...=-..=...<...
000267a0: 3c2e b00b 3b2d b00b 3b2e b00b 3a12 8028  <...;-..;...:..(
000267b0: 0100 9024 421c b00b 3a2e b00b 392d b00b  ...$B...:...9-..
000267c0: 382e b00b 382e b00b 372e b00b 372d b00b  8...8...7...7-..
000267d0: 362e b00b 362e b00b 352e b00b 352d b00b  6...6...5...5-..
000267e0: 342e b00b 342e b00b 332e b00b 332d b00b  4...4...3...3-..
000267f0: 322e b00b 312e b00b 312e b00b 302d b00b  2...1...1...0-..
00026800: 302e b00b 2f2e b00b 2f2e b00b 2e2d b00b  0.../.../....-..
00026810: 2e2e b00b 2d2e b00b 2d2e b00b 2c2d b00b  ....-...-...,-..
00026820: 2c2e b00b 2b2e b00b 2a2e b00b 2a2d b00b  ,...+...*...*-..
00026830: 292e b00b 292e b00b 282e b00b 282d b00b  )...)...(...(-..
00026840: 272e b00b 272e b00b 262e b00b 262d b00b  '...'...&...&-..
00026850: 252e b00b 242e b00b 242e b00b 232d b00b  %...$...$...#-..
00026860: 232e b00b 222e b00b 222e b00b 212d b00b  #..."..."...!-..
00026870: 212e b00b 202e b00b 202e b00b 1f2d b00b  !... ... ....-..
00026880: 1f2e b00b 1e2e b00b 1d2e b00b 1d2d b00b  .............-..
00026890: 1c2e b00b 1c2e b00b 1b2e b00b 1b2d b00b  .............-..
000268a0: 1a2e b00b 1a2e b00b 192e b00b 192d b00b  .............-..
000268b0: 182e b00b 182e b00b 172e b00b 162d b00b  .............-..
000268c0: 162e b00b 152e b00b 152e b00b 142d b00b  .............-..
000268d0: 142e b00b 132e b00b 132e b00b 122d b00b  .............-..
000268e0: 122e b00b 112e b00b 112e b00b 102d b00b  .............-..
000268f0: 0f2e b00b 0f2e b00b 0e2e b00b 0e2d b00b  .............-..
00026900: 0d2e b00b 0d2e b00b 0c2e b00b 0c2d b00b  .............-..
00026910: 0b2e b00b 0b07 b00b 0b2e b00b 0b2d b00b  .............-..
00026920: 0c2e b00b 0d2e b00b 0e2e b00b 0f2d b00b  .............-..
00026930: 102e b00b 112e b00b 122e b00b 132d b00b  .............-..
00026940: 142e b00b 152e b00b 162e b00b 172d b00b  .............-..
00026950: 172e b00b 182e b00b 192e b00b 1a2d b00b  .............-..
00026960: 1b2e b00b 1c2e b00b 1d2e b00b 1e2d b00b  .............-..
00026970: 1f2e b00b 202e b00b 212e b00b 222d b00b  .... ...!..."-..
00026980: 232e b00b 231e 8024 6710 b00b 2407 b00b  #...#..$g...$...
00026990: 252e b00b 262e b00b 262e b00b 262d b00b  %...&...&...&-..
000269a0: 262e b00b 262e b00b 262e b00b 272d b00b  &...&...&...'-..
000269b0: 272e b00b 272e b00b 272e b00b 272d b00b  '...'...'...'-..
000269c0: 272e b00b 282e b00b 282e b00b 282d b00b  '...(...(...(-..
000269d0: 282e b00b 282e b00b 292e b00b 292d b00b  (...(...)...)-..
000269e0: 292e b00b 292e b00b 292e b00b 292d b00b  )...)...)...)-..
000269f0: 2a2e b00b 2a2e b00b 2a2e b00b 2a2d b00b  *...*...*...*-..
00026a00: 2a2e b00b 2a2e b00b 2b2e b00b 2b2d b00b  *...*...+...+-..
00026a10: 2b2e b00b 2b2e b00b 2b2e b00b 2b2d b00b  +...+...+...+-..
00026a20: 2c2e b00b 2c2e b00b 2c2e b00b 2c2d b00b  ,...,...,...,-..
00026a30: 2c2e b00b 2d2e b00b 2d2e b00b 2d2d b00b  ,...-...-...--..
00026a40: 2d2e b00b 2d2e b00b 2d2e b00b 2e2d b00b  -...-...-....-..
00026a50: 2e2e b00b 2e2e b00b 2e2e b00b 2e2d b00b  .............-..
00026a60: 2e2e b00b 2f2e b00b 2f2e b00b 2f2d b00b  ..../.../.../-..
00026a70: 2f2e b00b 2f2e b00b 2f2e b00b 302d b00b  /.../.../...0-..
00026a80: 302e b00b 302e b00b 302e b00b 302d b00b  0...0...0...0-..
00026a90: 302e b00b 312e b00b 312e b00b 312d b00b  0...1...1...1-..
00026aa0: 312e b00b 312e b00b 322e b00b 322d b00b  1...1...2...2-..
00026ab0: 322e b00b 322e b00b 322e b00b 322d b00b  2...2...2...2-..
00026ac0: 332e b00b 332e b00b 332e b00b 332d b00b  3...3...3...3-..
00026ad0: 332e b00b 332e b00b 342e b00b 342d b00b  3...3...4...4-..
00026ae0: 342e b00b 342e b00b 342e b00b 342d b00b  4...4...4...4-..
00026af0: 352e b00b 352e b00b 352e b00b 352d b00b  5...5...5...5-..
00026b00: 352e b00b 362e b00b 362e b00b 362d b00b  5...6...6...6-..
00026b10: 362e b00b 362e b00b 362e b00b 372d b00b  6...6...6...7-..
00026b20: 372e b00b 372e b00b 372e b00b 372d b00b  7...7...7...7-..
00026b30: 372e b00b 382e b00b 382e b00b 382d b00b  7...8...8...8-..
00026b40: 382e b00b 382e b00b 382e b00b 392d b00b  8...8...8...9-..
00026b50: 392e b00b 392e b00b 392e b00b 392d b00b  9...9...9...9-..
00026b60: 3a2e b00b 3a2e b00b 3a2e b00b 3a2d b00b  :...:...:...:-..
00026b70: 3a2e b00b 3a2e b00b 3b2e b00b 3b2d b00b  :...:...;...;-..
00026b80: 3b2e b00b 3b2e b00b 3b2e b00b 3b2d b00b  ;...;...;...;-..
00026b90: 3c2e b00b 3c2e b00b 3c2e b00b 3c2d b00b  <...<...<...<-..
00026ba0: 3c2e b00b 3c2e b00b 3d2e b00b 3d2d b00b  <...<...=...=-..
00026bb0: 3d2e b00b 3d2e b00b 3d2e b00b 3d2d b00b  =...=...=...=-..
00026bc0: 3e2e b00b 3e2e b00b 3e2e b00b 3e2d b00b  >...>...>...>-..
00026bd0: 3e2e b00b 3f2e b00b 3f2e b00b 3f2d b00b  >...?...?...?-..
00026be0: 3f2e b00b 3f2e b00b 3f2e b00b 402d b00b  ?...?...?...@-..
00026bf0: 402e b00b 402e b00b 402e b00b 402d b00b  @...@...@...@-..
00026c00: 402e b00b 412e b00b 412e b00b 412d b00b  @...A...A...A-..
00026c10: 412e b00b 412e b00b 4105 b00b 4200 ff2f  A...A...A...B../
00026c20: 004d 5472 6b00 0016 9500 ff01 1253 4620  .MTrk........SF 
00026c30: 5669 6f6c 696e 2049 204c 6567 6174 6f00  Violin I Legato.
00026c40: b00b 7f00 b00a 2900 b007 7f00 b007 7f85  ......).........
00026c50: d170 b001 232e b001 232e b001 242d b001  .p..#...#...$-..
00026c60: 252e b001 262e b001 272e b001 282d b001  %...&...'...(-..
00026c70: 292e b001 2a2e b001 2b2e b001 2b2d b001  )...*...+...+-..
00026c80: 2c2e b001 2d2e b001 2e2e b001 2f2d b001  ,...-......./-..
00026c90: 3022 b001 3100 903e 3e2e b001 312e b001  0"..1..>>...1...
00026ca0: 312d b001 312e b001 312e b001 310b 903f  1-..1...1...1..?
00026cb0: 3f23 b001 312d b001 3224 803e 110a b001  ?#..1-..2$.>....
00026cc0: 322e b001 322e b001 3216 9041 2d17 b001  2...2...2..A-...
00026cd0: 322e b001 3221 803f 3e0d b001 332e b001  2...2!.?>...3...
00026ce0: 332d b001 332e b001 332e b001 332e b001  3-..3...3...3...
00026cf0: 332d b001 342e b001 342e b001 342e b001  3-..4...4...4...
00026d00: 342d b001 342e b001 342e b001 342e b001  4-..4...4...4...
00026d10: 350a 9046 3623 b001 352e b001 352e b001  5..F6#..5...5...
00026d20: 351b 8041 4f13 b001 352d b001 3516 b001  5..AO...5-..5...
00026d30: 362e b001 352e b001 352d b001 352e b001  6...5...5-..5...
00026d40: 342e b001 342e b001 342d b001 342e b001  4...4...4-..4...
00026d50: 332e b001 332e b001 3316 9041 3e17 b001  3...3...3..A>...
00026d60: 322e b001 3217 8046 4c17 b001 322e b001  2...2..FL...2...
00026d70: 322d b001 312e b001 312e b001 312e b001  2-..1...1...1...
00026d80: 312d b001 302e b001 302e b001 302e b001  1-..0...0...0...
00026d90: 2f2d b001 2f2e b001 2f2e b001 2f2e b001  /-../.../.../...
00026da0: 2e0a 9043 4023 b001 2e02 8041 632c b001  ...C@#.....Ac,..
00026db0: 2e2e b001 2e2e b001 2d2d b001 2d16 9041  ........--..-..A
00026dc0: 3e18 b001 2d10 8043 4c1e b001 2c2e b001  >...-..CL...,...
00026dd0: 2c2d b001 2c2e b001 2c21 903c 360d b001  ,-..,...,!.<6...
00026de0: 2b2e b001 2b18 8041 3e15 b001 2b2e b001  +...+..A>...+...
00026df0: 2a2e b001 2a2e b001 2a2d b001 2a2e b001  *...*...*-..*...
00026e00: 292e b001 292e b001 292d b001 290a b001  )...)...)-..)...
00026e10: 292e b001 292e b001 292d b001 292e b001  )...)...)-..)...
00026e20: 292e b001 2a0b 9043 3e23 b001 2a2d b001  )...*..C>#..*-..
00026e30: 2a2e b001 2a2e b001 2b2e b001 2b07 803c  *...*...+...+..<
00026e40: 4026 b001 2b2e b001 2b2e b001 2c2e b001  @&..+...+...,...
00026e50: 2c2d b001 2c22 9048 460c b001 2c18 8043  ,-..,".HF...,..C
00026e60: 4b16 b001 2d2e b001 2d2d b001 2d2e b001  K...-...--..-...
00026e70: 2d2e b001 2e2e b001 2e2d b001 2e2e b001  -........-......
00026e80: 2e2e b001 2f2e b001 2f2d b001 2f2e b001  ..../.../-../...
00026e90: 2f2e b001 3009 b00b 5824 b00b 5701 b001  /...0...X$..W...
00026ea0: 302d b001 3009 b00b 560d 9046 3c18 b001  0-..0...V..F<...
00026eb0: 3002 8048 5007 b00b 5625 b001 3109 b00b  0..HP...V%..1...
00026ec0: 5625 b001 3108 b00b 5625 b001 3109 b00b  V%..1...V%..1...
00026ed0: 5625 b001 3109 b00b 5625 b001 3209 b00b  V%..1...V%..2...
00026ee0: 5625 b001 3208 b00b 5625 b001 3209 b00b  V%..2...V%..2...
00026ef0: 5625 b001 3209 b00b 5625 b001 3309 b00b  V%..2...V%..3...
00026f00: 5625 b001 3308 b00b 5725 b001 3309 b00b  V%..3...W%..3...
00026f10: 5725 b001 3309 b00b 5725 b001 3409 b00b  W%..3...W%..4...
00026f20: 5725 b001 3408 b00b 5725 b001 3409 b00b  W%..4...W%..4...
00026f30: 5701 9045 3207 8046 411d b001 3409 b00b  W..E2..FA...4...
00026f40: 5725 b001 3509 b00b 5725 b001 3508 b00b  W%..5...W%..5...
00026f50: 5725 b001 3509 b00b 5825 b001 3509 b00b  W%..5...X%..5...
00026f60: 590c b001 3622 b00b 590c b001 3521 b00b  Y...6"..Y...5!..
00026f70: 5a0d b001 3521 b00b 5b0c b001 3522 b00b  Z...5!..[...5"..
00026f80: 5b0c b001 3622 b00b 5c09 9046 3703 b001  [...6"..\..F7...
00026f90: 3721 b00b 5d0d b001 3821 b00b 5d0c b001  7!..]...8!..]...
00026fa0: 3908 8045 3b1a b00b 5e0c b001 3a22 b00b  9..E;...^...:"..
00026fb0: 5f0c b001 3c21 b00b 5f0d b001 3d08 9048  _...<!.._...=..H
00026fc0: 4316 b001 3e03 b00b 600c 8046 3a1f b001  C...>...`..F:...
00026fd0: 3e03 b00b 612b b001 3f03 b00b 622b b001  >...a+..?...b+..
00026fe0: 4002 b00b 622b b001 4103 b00b 6320 9045  @...b+..A...c .E
00026ff0: 380b b001 4303 b00b 6411 8048 4e1a b001  8...C...d..HN...
00027000: 4403 b00b 642b b001 4502 b00b 652b b001  D...d+..E...e+..
00027010: 4603 b00b 662b b001 4803 b00b 662b b001  F...f+..H...f+..
00027020: 4900 9043 3f03 b00b 672b b001 4a02 b00b  I..C?...g+..J...
00027030: 6826 8045 4505 b001 4b03 b00b 682b b001  h&.EE...K...h+..
00027040: 4d03 b00b 692b b001 4e03 b00b 6a2b b001  M...i+..N...j+..
00027050: 4f02 b00b 6b2b b001 5003 b00b 6b2b b001  O...k+..P...k+..
00027060: 5203 b00b 6c1d 8043 560e b001 5303 b00b  R...l..CV...S...
00027070: 6d2b b001 5402 b00b 6d2b b001 5503 b00b  m+..T...m+..U...
00027080: 6e22 b00b 6f00 b001 5700 9043 462e b001  n"..o...W..CF...
00027090: 5700 b00b 6e2e b00b 6e00 b001 572d b001  W...n...n...W-..
000270a0: 5700 b00b 6e2e b00b 6e00 b001 582e b001  W...n...n...X...
000270b0: 5800 b00b 6e0b 904a 4423 b001 5900 b00b  X...n..JD#..Y...
000270c0: 6e2d 8043 4f00 b001 5900 b00b 6e2e b00b  n-.CO...Y...n...
000270d0: 6e00 b001 592e b001 5a00 b00b 6e2e b00b  n...Y...Z...n...
000270e0: 6e00 b001 5a2d b001 5b00 b00b 6e2e b00b  n...Z-..[...n...
000270f0: 6e00 b001 5b2e b001 5b00 b00b 6e2e b00b  n...[...[...n...
00027100: 6e00 b001 5c2d b001 5c00 b00b 6e22 904b  n...\-..\...n".K
00027110: 3d0c b001 5d00 b00b 6e2e b00b 6f00 b001  =...]...n...o...
00027120: 5d2a 804a 5c04 b001 5d00 b00b 6f2d b00b  ]*.J\...]...o-..
00027130: 6f00 b001 5e2e b001 5e00 b00b 6f2d b001  o...^...^...o-..
00027140: 5f01 b00b 6f2d b001 5f01 b00b 6f2d b00b  _...o-.._...o-..
00027150: 6f00 b001 5f2d b001 5f01 b00b 6f2d b001  o..._-.._...o-..
00027160: 5f01 b00b 6f2d b001 5f01 b00b 6f2d b00b  _...o-.._...o-..
00027170: 6f00 b001 5f2d b001 5f01 b00b 6f2d b001  o..._-.._...o-..
00027180: 6001 b00b 6f2d b001 6001 b00b 6f2d b00b  `...o-..`...o-..
00027190: 6f00 b001 6016 904a 5117 b001 6001 b00b  o...`..JQ...`...
000271a0: 6f2d b001 6001 b00b 7006 804b 4f27 b001  o-..`...p..KO'..
000271b0: 6001 b00b 702d b00b 7000 b001 602d b001  `...p-..p...`-..
000271c0: 6101 b00b 702d b001 6101 b00b 702d b001  a...p-..a...p-..
000271d0: 6101 b00b 702d b00b 7000 b001 612d b001  a...p-..p...a-..
000271e0: 6101 b00b 702d b001 6101 b00b 702d b001  a...p-..a...p-..
000271f0: 6101 b00b 702d b00b 7000 b001 622d b001  a...p-..p...b-..
00027200: 6201 b00b 702d b001 6201 b00b 702d b001  b...p-..b...p-..
00027210: 6201 b00b 702d b00b 7000 b001 620a 9048  b...p-..p...b..H
00027220: 4715 804a 5b0e b001 6201 b00b 712d b001  G..J[...b...q-..
00027230: 6201 b00b 712d b001 6201 b00b 7109 b001  b...q-..b...q...
00027240: 6324 b00b 710a b001 6324 b00b 710a b001  c$..q...c$..q...
00027250: 6224 b00b 710a b001 6224 b00b 7109 b001  b$..q...b$..q...
00027260: 6224 b00b 710a b001 6224 b00b 710a b001  b$..q...b$..q...
00027270: 6124 b00b 710a b001 6116 904b 450e b00b  a$..q...a..KE...
00027280: 7109 b001 6124 b00b 710a b001 6122 8048  q...a$..q...a".H
00027290: 3502 b00b 710a b001 6024 b00b 710a b001  5...q...`$..q...
000272a0: 6024 b00b 7109 b001 6022 904d 3f02 b00b  `$..q...`".M?...
000272b0: 710a b001 6004 804b 4520 b00b 720a b001  q...`..KE ..r...
000272c0: 5f24 b00b 720a b001 5f24 b00b 7209 b001  _$..r..._$..r...
000272d0: 5f24 b00b 720a b001 5f24 b00b 7209 904a  _$..r..._$..r..J
000272e0: 4901 b001 5e24 b00b 720a b001 5e0f 804d  I...^$..r...^..M
000272f0: 5a15 b00b 7209 b001 5e24 b00b 720a b001  Z...r...^$..r...
00027300: 5e24 b00b 720a b001 5d24 b00b 720a b001  ^$..r...]$..r...
00027310: 5d0a 9048 531a b00b 7209 b001 5d08 804a  ]..HS...r...]..J
00027320: 5f1c b00b 720a b001 5d24 b00b 720a b001  _...r...]$..r...
00027330: 5c24 b00b 720a b001 5c24 b00b 7209 b001  \$..r...\$..r...
00027340: 5c16 b00b 7318 b001 5c16 b00b 7218 b001  \...s...\...r...
00027350: 5c16 b00b 7218 b001 5b08 8048 590d b00b  \...r...[..HY...
00027360: 7218 b001 5b16 b00b 7118 b001 5b16 b00b  r...[...q...[...
00027370: 710b 9048 4d0d b001 5b16 b00b 7118 b001  q..HM...[...q...
00027380: 5a15 b00b 7018 b001 5a16 b00b 7018 b001  Z...p...Z...p...
00027390: 5a16 b00b 7018 b001 5a16 b00b 6f16 9046  Z...p...Z...o..F
000273a0: 5c02 b001 5915 b00b 6f0a 8048 580e b001  \...Y...o..HX...
000273b0: 5916 b00b 6f18 b001 5916 b00b 6e18 b001  Y...o...Y...n...
000273c0: 5916 b00b 6e18 b001 5815 b00b 6e18 b001  Y...n...X...n...
000273d0: 5816 b00b 6d18 b001 5816 b00b 6d18 b001  X...m...X...m...
000273e0: 5816 b00b 6d18 b001 5715 b00b 6d18 b001  X...m...W...m...
000273f0: 5716 b00b 6c08 8046 5c10 b001 5716 b00b  W...l..F\...W...
00027400: 6c18 b001 5716 b00b 6c18 b001 5615 b00b  l...W...l...V...
00027410: 6b18 b001 5616 b00b 6b18 b001 5616 b00b  k...V...k...V...
00027420: 6b18 b001 5616 b00b 6a18 b001 5515 b00b  k...V...j...U...
00027430: 6a18 b001 5516 b00b 6a18 b001 5516 b00b  j...U...j...U...
00027440: 6918 b001 5516 b00b 6918 b001 5415 b00b  i...U...i...T...
00027450: 6918 b001 5416 b00b 6818 b001 5416 b00b  i...T...h...T...
00027460: 6818 b001 5416 b00b 6818 b001 5415 b00b  h...T...h...T...
00027470: 6818 b001 5316 b00b 6718 b001 5316 b00b  h...S...g...S...
00027480: 6718 b001 5316 b00b 6718 b001 5315 b00b  g...S...g...S...
00027490: 6618 b001 5216 b00b 6618 b001 5216 b00b  f...R...f...R...
000274a0: 6618 b001 5216 b00b 6518 b001 5215 b00b  f...R...e...R...
000274b0: 6518 b001 5116 b00b 6518 b001 5116 b00b  e...Q...e...Q...
000274c0: 6418 b001 5116 b00b 6418 b001 5115 b00b  d...Q...d...Q...
000274d0: 6418 b001 5016 b00b 6318 b001 5016 b00b  d...P...c...P...
000274e0: 6318 b001 5016 b00b 6318 b001 5015 b00b  c...P...c...P...
000274f0: 6218 b001 4f16 b00b 6218 b001 4f16 b00b  b...O...b...O...
00027500: 6218 b001 4f16 b00b 6218 b001 4f15 b00b  b...O...b...O...
00027510: 6118 b001 4e16 b00b 6118 b001 4e16 b00b  a...N...a...N...
00027520: 6118 b001 4e16 b00b 6018 b001 4e15 b00b  a...N...`...N...
00027530: 6018 b001 4d16 b00b 6018 b001 4d16 b00b  `...M...`...M...
00027540: 5f18 b001 4d16 b00b 5f18 b001 4d15 b00b  _...M..._...M...
00027550: 5f18 b001 4d16 b00b 5e18 b001 4c16 b00b  _...M...^...L...
00027560: 5e18 b001 4c16 b00b 5e18 b001 4c15 b00b  ^...L...^...L...
00027570: 5d18 b001 4c16 b00b 5d18 b001 4b16 b00b  ]...L...]...K...
00027580: 5d18 b001 4b16 b00b 5d04 b00b 5d14 b001  ]...K...]...]...
00027590: 4b1a b00b 5e13 b001 4b1b b00b 5e13 b001  K...^...K...^...
000275a0: 4a1b b00b 5e13 b001 4a1a b00b 5e14 b001  J...^...J...^...
000275b0: 4a1a b00b 5e13 b001 4a1b b00b 5f13 b001  J...^...J..._...
000275c0: 491b b00b 5f13 b001 491a b00b 5f14 b001  I..._...I..._...
000275d0: 491a b00b 5f13 b001 491b b00b 6013 b001  I..._...I...`...
000275e0: 481b b00b 6013 b001 481a b00b 6014 b001  H...`...H...`...
000275f0: 481a b00b 6013 b001 481b b00b 6013 b001  H...`...H...`...
00027600: 471b b00b 6113 b001 471a b00b 6114 b001  G...a...G...a...
00027610: 471a b00b 6113 b001 471b b00b 6113 b001  G...a...G...a...
00027620: 461b b00b 6213 b001 461a b00b 6214 b001  F...b...F...b...
00027630: 461a b00b 6213 b001 461b b00b 6213 b001  F...b...F...b...
00027640: 451b b00b 6213 b001 451a b00b 6314 b001  E...b...E...c...
00027650: 451a b00b 6313 b001 451b b00b 6313 b001  E...c...E...c...
00027660: 451b b00b 6313 b001 441a b00b 6414 b001  E...c...D...d...
00027670: 441a b00b 6413 b001 441b b00b 6413 b001  D...d...D...d...
00027680: 441b b00b 6413 b001 431a b00b 6414 b001  D...d...C...d...
00027690: 431a b00b 6513 b001 431b b00b 6513 b001  C...e...C...e...
000276a0: 431b b00b 6513 b001 421a b00b 6514 b001  C...e...B...e...
000276b0: 421a b00b 6613 b001 421b b00b 6613 b001  B...f...B...f...
000276c0: 421b b00b 6613 b001 411a b00b 6614 b001  B...f...A...f...
000276d0: 411a b00b 6613 b001 411b b00b 6713 b001  A...f...A...g...
000276e0: 411b b00b 6713 b001 401a b00b 6714 b001  A...g...@...g...
000276f0: 401a b00b 6713 b001 401b b00b 6813 b001  @...g...@...h...
00027700: 401b b00b 6813 b001 3f1a b00b 6814 b001  @...h...?...h...
00027710: 3f1a b00b 6813 b001 3f1b b00b 6813 b001  ?...h...?...h...
00027720: 3f1b b00b 6913 b001 3e1a b00b 6914 b001  ?...i...>...i...
00027730: 3e1a b00b 6913 b001 3e1b b00b 6913 b001  >...i...>...i...
00027740: 3e1b b00b 6a13 b001 3d1a b00b 6a14 b001  >...j...=...j...
00027750: 3d1a b00b 6a13 b001 3d1b b00b 6a13 b001  =...j...=...j...
00027760: 3d1b b00b 6a13 b001 3d1a b00b 6b14 b001  =...j...=...k...
00027770: 3c1a b00b 6b13 b001 3c1b b00b 6b13 b001  <...k...<...k...
00027780: 3c1b b00b 6b13 b001 3c1a b00b 6c14 b001  <...k...<...l...
00027790: 3b1a b00b 6c13 b001 3b1b b00b 6c13 b001  ;...l...;...l...
000277a0: 3b1b b00b 6c13 b001 3b1a b00b 6c14 b001  ;...l...;...l...
000277b0: 3a1a b00b 6d13 b001 3a1b b00b 6d13 b001  :...m...:...m...
000277c0: 3a1b b00b 6d13 b001 3a1a b00b 6d14 b001  :...m...:...m...
000277d0: 391a b00b 6e13 b001 391b b00b 6e13 b001  9...n...9...n...
000277e0: 391b b00b 6e13 b001 391a b00b 6e14 b001  9...n...9...n...
000277f0: 381a b00b 6e13 b001 381b b00b 6f13 b001  8...n...8...o...
00027800: 381b b00b 6f13 b001 381a b00b 6f09 b001  8...o...8...o...
00027810: 3825 b00b 6f09 b001 3825 b00b 6f09 b001  8%..o...8%..o...
00027820: 3825 b00b 7009 b001 3824 b00b 7009 b001  8%..p...8$..p...
00027830: 3825 b00b 7009 b001 3825 b00b 7009 b001  8%..p...8%..p...
00027840: 3825 b00b 7109 b001 3824 b00b 7109 b001  8%..q...8$..q...
00027850: 3825 b00b 7109 b001 3825 b00b 7109 b001  8%..q...8%..q...
00027860: 3825 b00b 7109 b001 3824 b00b 7209 b001  8%..q...8$..r...
00027870: 3725 b00b 7209 b001 3725 b00b 7209 b001  7%..r...7%..r...
00027880: 3725 b00b 7209 b001 3724 b00b 7309 b001  7%..r...7$..s...
00027890: 3725 b00b 7309 b001 3725 b00b 7309 b001  7%..s...7%..s...
000278a0: 3725 b00b 7309 b001 3724 b00b 7309 b001  7%..s...7$..s...
000278b0: 3725 b00b 7409 b001 3725 b00b 7409 b001  7%..t...7%..t...
000278c0: 3725 b00b 7409 b001 3724 b00b 7409 b001  7%..t...7$..t...
000278d0: 3725 b00b 7509 b001 3725 b00b 7509 b001  7%..u...7%..u...
000278e0: 3725 b00b 7509 b001 3724 b00b 7509 b001  7%..u...7$..u...
000278f0: 3625 b00b 7509 b001 3625 b00b 7609 b001  6%..u...6%..v...
00027900: 3625 b00b 7609 b001 3624 b00b 7609 b001  6%..v...6$..v...
00027910: 3625 b00b 7609 b001 3625 b00b 7709 b001  6%..v...6%..w...
00027920: 3625 b00b 7709 b001 3624 b00b 7709 b001  6%..w...6$..w...
00027930: 3625 b00b 7709 b001 3625 b00b 7709 b001  6%..w...6%..w...
00027940: 3625 b00b 7809 b001 3624 b00b 7809 b001  6%..x...6$..x...
00027950: 3625 b00b 7809 b001 3625 b00b 7809 b001  6%..x...6%..x...
00027960: 3625 b00b 7909 b001 3624 b00b 7909 b001  6%..y...6$..y...
00027970: 3525 b00b 7909 b001 3525 b00b 7909 b001  5%..y...5%..y...
00027980: 3525 b00b 7909 b001 3524 b00b 7a09 b001  5%..y...5$..z...
00027990: 3525 b00b 7a09 b001 3525 b00b 7a09 b001  5%..z...5%..z...
000279a0: 3525 b00b 7a09 b001 3524 b00b 7b09 b001  5%..z...5$..{...
000279b0: 3525 b00b 7b09 b001 3525 b00b 7b09 b001  5%..{...5%..{...
000279c0: 3525 b00b 7b09 b001 3524 b00b 7b09 b001  5%..{...5$..{...
000279d0: 3525 b00b 7c09 b001 3525 b00b 7c09 b001  5%..|...5%..|...
000279e0: 3525 b00b 7c09 b001 3524 b00b 7c09 b001  5%..|...5$..|...
000279f0: 3425 b00b 7d09 b001 3425 b00b 7d09 b001  4%..}...4%..}...
00027a00: 3425 b00b 7d09 b001 3424 b00b 7d09 b001  4%..}...4$..}...
00027a10: 3425 b00b 7d09 b001 3425 b00b 7e09 b001  4%..}...4%..~...
00027a20: 3425 b00b 7e09 b001 3424 b00b 7e09 b001  4%..~...4$..~...
00027a30: 3425 b00b 7e09 b001 341e b00b 7f10 b001  4%..~...4.......
00027a40: 342e b001 342d b001 342e b001 342e b001  4...4-..4...4...
00027a50: 342e b001 342d b001 332e b001 332e b001  4...4-..3...3...
00027a60: 332e b001 332d b001 332e b001 332e b001  3...3-..3...3...
00027a70: 332e b001 332d b001 332e b001 332e b001  3...3-..3...3...
00027a80: 332e b001 332d b001 332e b001 332e b001  3...3-..3...3...
00027a90: 332e b001 332d b001 322e b001 322e b001  3...3-..2...2...
00027aa0: 322e b001 322d b001 322e b001 322e b001  2...2-..2...2...
00027ab0: 322e b001 322d b001 322e b001 322e b001  2...2-..2...2...
00027ac0: 322e b001 322d b001 322e b001 322e b001  2...2-..2...2...
00027ad0: 322e b001 3228 b001 322d b001 332e b001  2...2(..2-..3...
00027ae0: 332e b001 332e b001 332d b001 342e b001  3...3...3-..4...
00027af0: 342e b001 342e b001 342d b001 342e b001  4...4...4-..4...
00027b00: 342e b001 352e b001 352d b001 3612 904a  4...5...5-..6..J
00027b10: 1f1c b001 372e b001 372e b001 382d b001  ....7...7...8-..
00027b20: 392e b001 392e b001 3a17 904b 1e17 b001  9...9...:..K....
00027b30: 3b2d b001 3b2d 804a 3001 b001 3c19 b001  ;-..;-.J0...<...
00027b40: 3d2d b001 3c10 904d 281e b001 3b2e b001  =-..<..M(...;...
00027b50: 3b0f 804b 3c1f b001 3b2d b001 3a2e b001  ;..K<...;-..:...
00027b60: 3a2e b001 3a1d 904f 3511 b001 3929 804d  :...:..O5...9).M
00027b70: 5104 b001 392e b001 392e b001 382e b001  Q...9...9...8...
00027b80: 382d b001 382e b001 382e b001 372e b001  8-..8...8...7...
00027b90: 372d b001 372e b001 362e b001 362e b001  7-..7...6...6...
00027ba0: 362d b001 352e b001 351e 904d 3210 b001  6-..5...5..M2...
00027bb0: 352e b001 351b 804f 3a12 b001 342e b001  5...5..O:...4...
00027bc0: 342e b001 341a b001 342d b001 342e b001  4...4...4-..4...
00027bd0: 342e b001 342e b001 342d b001 3418 904c  4...4...4-..4..L
00027be0: 3716 b001 3510 804d 3c1e b001 352e b001  7...5..M<...5...
00027bf0: 352d b001 352e b001 3515 904d 3419 b001  5-..5...5..M4...
00027c00: 352e b001 352d b001 351c 804c 3c12 b001  5...5-..5..L<...
00027c10: 352e b001 352e b001 360b 904f 3322 b001  5...5...6..O3"..
00027c20: 361f 804d 500f b001 362e b001 362e b001  6..MP...6...6...
00027c30: 362d b001 372e b001 3721 9048 370d b001  6-..7...7!.H7...
00027c40: 372d 804f 4f01 b001 372d b001 382e b001  7-.OO...7-..8...
00027c50: 382e b001 382e b001 382d b001 382e b001  8...8...8-..8...
00027c60: 392e b001 392e b001 392d b001 3920 b001  9...9...9-..9 ..
00027c70: 3a2d b001 3a2e b001 3a2e b001 3a2e b001  :-..:...:...:...
00027c80: 3a2d b001 3a2e b001 3a2e b001 3a2e b001  :-..:...:...:...
00027c90: 3a2d b001 3a2e b001 3a2e b001 3a2e b001  :-..:...:...:...
00027ca0: 3a2d b001 3a2e b001 3a08 8048 011b 904b  :-..:...:..H...K
00027cb0: 2e0b b001 3a2e b001 3a2d b001 3a2e b001  ....:...:-..:...
00027cc0: 3a2e b001 3a2e b001 3a00 904a 2c2d b001  :...:...:..J,-..
00027cd0: 3a2e b001 3a18 804b 2e16 b001 3a2e b001  :...:..K....:...
00027ce0: 3a2d b001 3a0c 9048 3d22 b001 3a2e b001  :-..:..H="..:...
00027cf0: 3a10 804a 591e b001 3a2d b001 3a2e b001  :..JY...:-..:...
00027d00: 3a17 9046 4417 b001 3a13 8048 5a1b b001  :..FD...:..HZ...
00027d10: 3a2d b001 3a2e b001 3a2e b001 3a2e b001  :-..:...:...:...
00027d20: 3a0b b001 3b2d b001 3a2e b001 3a2e b001  :...;-..:...:...
00027d30: 392e b001 392d b001 382e b001 382e b001  9...9-..8...8...
00027d40: 382e b001 372d b001 372e b001 3600 9043  8...7-..7...6..C
00027d50: 3522 8046 410c b001 362e b001 352d b001  5".FA...6...5-..
00027d60: 352e b001 352e b001 342e b001 342d b001  5...5...4...4-..
00027d70: 332e b001 332e b001 322e b001 3216 9040  3...3...2...2..@
00027d80: 4417 b001 321e 8043 3d10 b001 312e b001  D...2..C=...1...
00027d90: 312e b001 302d b001 3021 b001 302e b001  1...0-..0!..0...
00027da0: 302e b001 302e b001 302d b001 312e b001  0...0...0-..1...
00027db0: 312e b001 312e b001 312d b001 322e b001  1...1...1-..2...
00027dc0: 322e b001 322e b001 332d b001 332e b001  2...2...3-..3...
00027dd0: 332e b001 332e b001 342d b001 342e b001  3...3...4-..4...
00027de0: 342e b001 352e b001 352d b001 352e b001  4...5...5-..5...
00027df0: 352e b001 362e b001 362d b001 362e b001  5...6...6-..6...
00027e00: 372e b001 372e b001 372d b001 372e b001  7...7...7-..7...
00027e10: 382e b001 382e b001 382d b001 382e b001  8...8...8-..8...
00027e20: 392e b001 392e b001 392d b001 3a14 903d  9...9...9-..:..=
00027e30: 510f b001 392e b001 3a17 8040 5f16 b001  Q...9...:..@_...
00027e40: 3a2e b001 3a2e b001 3a06 803d 6105 b001  :...:...:..=a...
00027e50: 3b2e b001 3b1c 9039 4a11 b001 3b2e b001  ;...;..9J...;...
00027e60: 3b2e b001 3b2e b001 3b12 903b 481b b001  ;...;...;..;H...
00027e70: 3b29 8039 5905 b001 3b2e b001 3c2e b001  ;).9Y...;...<...
00027e80: 3e29 903d 6504 b001 401a 803b 6114 b001  >).=e...@..;a...
00027e90: 422e b001 4416 803d 680c 903e 580c b001  B...D..=h..>X...
00027ea0: 462d b001 482e b001 491b 9040 5413 b001  F-..H...I..@T...
00027eb0: 4b08 803e 5e26 b001 4d2d b001 4f0b 9042  K..>^&..M-..O..B
00027ec0: 6318 8040 5e0b b001 512e b001 5308 8042  c..@^...Q...S..B
00027ed0: 6915 9043 5e11 b001 552c b001 5714 9045  i..C^...U,..W..E
00027ee0: 5412 8043 6008 b001 5a20 9047 590e b001  T..C`...Z .GY...
00027ef0: 5d1d 8045 6510 b001 602e b001 6406 9049  ]..Ee...`...d..I
00027f00: 5c16 8047 6212 b001 6729 8049 7305 b001  \..Gb...g).Is...
00027f10: 6b23 904a 580a b001 6e2e b001 7215 904c  k#.JX...n...r..L
00027f20: 5902 b001 7423 804a 570b b001 7122 904e  Y...t#.JW...q".N
00027f30: 590c b001 6e2d 804c 5301 b001 6c1d 904f  Y...n-.LS...l..O
00027f40: 6910 b001 6916 804e 5b18 b001 662b 9051  i...i..N[...f+.Q
00027f50: 6903 b001 6423 804f 5c0b b001 612d b001  i...d#.O\...a-..
00027f60: 5e2e b001 5c2e b001 592e b001 572d b001  ^...\...Y...W-..
00027f70: 542e b001 512e b001 4f2e b001 4c2d b001  T...Q...O...L-..
00027f80: 4a2d b001 492e b001 482e b001 472e b001  J-..I...H...G...
00027f90: 462d b001 452e b001 442e b001 432e b001  F-..E...D...C...
00027fa0: 422d b001 412e b001 402e b001 3f2e b001  B-..A...@...?...
00027fb0: 3e0a b001 3e2e b001 3e2e b001 3f2d b001  >...>...>...?-..
00027fc0: 402e b001 412e b001 422e b001 432d b001  @...A...B...C-..
00027fd0: 432e b001 442e b001 452e b001 462d b001  C...D...E...F-..
00027fe0: 472e b001 482e b001 482e b001 492d b001  G...H...H...I-..
00027ff0: 4a2e b001 4b2e b001 4c2e b001 4d2d b001  J...K...L...M-..
00028000: 4d2e b001 4e2e b001 4f2e b001 502d b001  M...N...O...P-..
00028010: 512e b001 522e b001 521e b001 3a10 b001  Q...R...R...:...
00028020: 530a b001 5407 b00a 2e81 6fb0 0139 8242  S...T.....o..9.B
00028030: 8051 6181 18b0 0133 2eb0 0133 2eb0 0134  .Qa....3...3...4
00028040: 2db0 0134 2eb0 0135 2eb0 0135 2eb0 0136  -..4...5...5...6
00028050: 2db0 0136 2eb0 0137 2eb0 0137 2eb0 0138  -..6...7...7...8
00028060: 2db0 0138 2eb0 0139 2eb0 0139 2eb0 013a  -..8...9...9...:
00028070: 2db0 013a 2eb0 013b 2eb0 013c 2590 4215  -..:...;...<%.B.
00028080: 09b0 013c 2db0 013d 2eb0 013d 2eb0 013e  ...<-..=...=...>
00028090: 2eb0 013e 2db0 013f 2eb0 013f 2eb0 0140  ...>-..?...?...@
000280a0: 2eb0 0140 2db0 0141 2eb0 0141 2eb0 0142  ...@-..A...A...B
000280b0: 2eb0 0142 2db0 0143 2eb0 0143 2eb0 0144  ...B-..C...C...D
000280c0: 2d90 432b 01b0 0145 2db0 0145 2eb0 0146  -.C+...E-..E...F
000280d0: 2180 4251 0db0 0146 2eb0 0147 2db0 0147  !.BQ...F...G-..G
000280e0: 2eb0 0148 2eb0 0148 2eb0 0149 2db0 0149  ...H...H...I-..I
000280f0: 2eb0 014a 2eb0 014a 0bb0 014b 25b0 014c  ...J...J...K%..L
00028100: 8125 b001 4d37 9045 2b12 b001 4e37 b001  .%..M7.E+...N7..
00028110: 4f0e 8043 3c4a 8045 5c82 4090 4535 8103  O..C<J.E\.@.E5..
00028120: b001 5059 9043 3481 5d90 4239 1d80 4514  ..PY.C4.].B9..E.
00028130: 5380 433b 6a90 3b21 7980 4258 8330 b001  S.C;j.;!y.BX.0..
00028140: 4f81 4f90 4039 7f80 3b49 5e80 4059 827a  O.O.@9..;I^.@Y.z
00028150: 9040 2985 3c90 4235 5680 4057 8419 9040  .@).<.B5V.@W...@
00028160: 3f7c 8042 4437 8040 5d66 b001 4e81 5390  ?|.BD7.@]f..N.S.
00028170: 403e 816f 9042 3641 8040 3f81 1190 3e37  @>.o.B6A.@?...>7
00028180: 8205 9039 321d 8042 3d0c 803e 3d82 1f90  ...92..B=..>=...
00028190: 3b30 4280 394a 8130 903d 3b23 803b 5081  ;0B.9J.0.=;#.;P.
000281a0: 3580 3d5f 1790 3e37 816b 9040 4437 803e  5.=_..>7.k.@D7.>
000281b0: 5281 2b90 4256 1e80 405b 8520 9043 452c  R.+.BV..@[. .CE,
000281c0: 8042 5d84 12b0 014f 5390 4540 3d80 4357  .B]....OS.E@=.CW
000281d0: 8102 8045 5d82 4590 453f 8173 9043 4581  ...E].E.E?.s.CE.
000281e0: 4780 4512 1a90 4236 3a80 4350 8161 9040  G.E...B6:.CP.a.@
000281f0: 3f0b 8042 5e82 0880 4061 816e 9039 4859  ?..B^...@a.n.9HY
00028200: b001 5012 b001 5113 b001 5311 b001 5413  ..P...Q...S...T.
00028210: b001 5612 b001 5813 b001 5912 b001 5a17  ..V...X...Y...Z.
00028220: 8039 5900 903b 440e b001 5b12 b001 5c12  .9Y..;D...[...\.
00028230: b001 5d14 b001 5e81 00b0 015f 2a80 3b58  ..]...^...._*.;X
00028240: 0090 3945 8170 9040 3e81 7080 3956 8360  ..9E.p.@>.p.9V.`
00028250: 8040 5a05 9042 5185 3f90 3e4b 2180 4259  .@Z..BQ.?.>K!.BY
00028260: 8339 903d 5e40 803e 5c84 7a90 3e42 1b80  .9.=^@.>\.z.>B..
00028270: 3d5b 8463 9040 4e4b 803e 5683 5390 4160  =[.c.@NK.>V.S.A`
00028280: 3180 405f 0bb0 0a2e 851b 9043 4e75 8041  1.@_.......CNu.A
00028290: 5b84 5b90 4453 4d80 4359 8313 9045 454d  [.[.DSM.CY...EEM
000282a0: 8044 5d85 0390 4769 4d80 455e 8503 9048  .D]...GiM.E^...H
000282b0: 6b4d 8047 5a83 6080 4869 00ff 2f00 4d54  kM.GZ.`.Hi../.MT
000282c0: 726b 0000 15f5 00ff 0113 5346 2056 696f  rk........SF Vio
000282d0: 6c69 6e20 4949 204c 6567 6174 6f00 b00b  lin II Legato...
000282e0: 7f00 b007 7f00 b007 7f82 8260 b001 3589  ...........`..5.
000282f0: 30b0 011b 8121 b001 0b3a b001 0c65 b001  0....!...:...e..
00028300: 0d81 0eb0 010e 38b0 010f 6fb0 0110 23b0  ......8...o...#.
00028310: 0111 1bb0 0112 23b0 0113 41b0 0114 2cb0  ......#...A...,.
00028320: 0115 2db0 0116 16b0 0117 08b0 0118 08b0  ..-.............
00028330: 0119 1fb0 011b 0fb0 011c 08b0 011d 17b0  ................
00028340: 011e 1fb0 011f 18b0 0120 10b0 0121 10b0  ......... ...!..
00028350: 0122 73b0 0121 08b0 0120 1ab0 011f 22b0  ."s..!... ....".
00028360: 011e 11b0 011d 60b0 011e 11b0 011f 09b0  ......`.........
00028370: 0120 09b0 0121 09b0 0122 1bb0 0123 36b0  . ...!..."...#6.
00028380: 0124 8131 903e 124e b001 2581 10b0 0126  .$.1.>.N..%....&
00028390: 1290 401d 1eb0 0127 2a80 3e3b 1ab0 0128  ..@....'*.>;...(
000283a0: 13b0 0129 30b0 012a 13b0 012b 1db0 012c  ...)0..*...+...,
000283b0: 1b90 411b 02b0 012d 30b0 012e 1680 4040  ..A....-0.....@@
000283c0: 07b0 012f 1db0 0130 13b0 0131 13b0 0132  .../...0...1...2
000283d0: 13b0 0133 1db0 0134 14b0 0135 13b0 0136  ...3...4...5...6
000283e0: 0790 4320 1fb0 0137 27b0 0138 0280 4138  ..C ...7'..8..A8
000283f0: 1bb0 0139 1cb0 013a 7190 4116 33b0 013b  ...9...:q.A.3..;
00028400: 1580 4348 08b0 013c 27b0 013d 73b0 013e  ..CH...<'..=s..>
00028410: 73b0 013f 31b0 0140 13b0 0141 3f90 4826  s..?1..@...A?.H&
00028420: 4880 4141 00b0 0142 56b0 0143 8107 b001  H.AA...BV..C....
00028430: 421d b001 411d b001 4060 b001 3f21 904a  B...A...@`..?!.J
00028440: 0148 8048 3d81 1bb0 0140 0d90 482b 23b0  .H.H=....@..H+#.
00028450: 0141 2580 4a01 8112 b001 4216 904d 1048  .A%.J.....B..M.H
00028460: 8048 3181 09b0 0141 1f90 4c44 07b0 0140  .H1....A..LD...@
00028470: 4180 4d5b 16b0 013f 73b0 013e 68b0 013d  A.M[...?s..>h..=
00028480: 8120 b001 3c81 7790 4835 4880 4c56 34b0  . ..<.w.H5H.LV4.
00028490: 013d 28b0 013e 810e b001 3f81 2e90 4d15  .=(..>....?...M.
000284a0: 4880 4859 04b0 0140 810a b001 411a 904c  H.HY...@....A..L
000284b0: 2d48 804d 3c81 2890 512b 4880 4c4f 8128  -H.M<.(.Q+H.LO.(
000284c0: 904f 4248 8051 595c b001 4082 50b0 013f  .OBH.QY\..@.P..?
000284d0: 810b b001 3e51 904d 1448 804f 3b0f b001  ....>Q.M.H.O;...
000284e0: 3f20 b001 4054 b001 4125 904c 3248 804d  ? ..@T..A%.L2H.M
000284f0: 5c1b b001 4281 0d90 4a36 4880 4c46 8318  \...B...J6H.LF..
00028500: 904c 3348 804a 3d83 1890 4d10 4880 4c2a  .L3H.J=...M.H.L*
00028510: 8318 904f 1a48 804d 6381 28b0 0142 2eb0  ...O.H.Mc.(..B..
00028520: 013e 2eb0 013b 2db0 0138 2eb0 0135 2eb0  .>...;-..8...5..
00028530: 0132 2eb0 012f 2db0 012b 2eb0 0128 2eb0  .2.../-..+...(..
00028540: 0125 2eb0 0122 2db0 011f 2eb0 011c 2eb0  .%..."-.........
00028550: 0119 2eb0 0115 2db0 0112 2eb0 010f 2eb0  ......-.........
00028560: 010c 2eb0 0109 2db0 0106 2eb0 0103 2db0  ......-.......-.
00028570: 0100 8238 804f 6383 9f40 b00b 548b 23b0  ...8.Oc..@..T.#.
00028580: 0156 08b0 0157 26b0 0155 7eb0 0154 830f  .V...W&..U~..T..
00028590: b001 5300 b001 432e b001 432e b001 432e  ..S...C...C...C.
000285a0: b001 432d b001 432e b001 432e b001 432e  ..C-..C...C...C.
000285b0: b001 432d b001 432e b001 432e b001 432e  ..C-..C...C...C.
000285c0: b001 432d b001 432e b001 432e b001 432e  ..C-..C...C...C.
000285d0: b001 432d b001 432e b001 442e b001 442e  ..C-..C...D...D.
000285e0: b001 442d b001 442e b001 442e b001 442e  ..D-..D...D...D.
000285f0: b001 442d b001 442e b001 442e b001 442e  ..D-..D...D...D.
00028600: b001 442d b001 442e b001 440e 903c 3820  ..D-..D...D..<8 
00028610: b001 442e b001 442d b001 442e b001 442e  ..D...D-..D...D.
00028620: b001 452e b001 452d b001 452e b001 452e  ..E...E-..E...E.
00028630: b001 452e b001 452d b001 452e b001 452e  ..E...E-..E...E.
00028640: b001 452e b001 452d b001 452e b001 4502  ..E...E-..E...E.
00028650: 903e 402c b001 4504 803c 542a b001 452d  .>@,..E..<T*..E-
00028660: b001 452e b001 452e b001 452e b001 462d  ..E...E...E...F-
00028670: b001 462e b001 462e b001 462e b001 462d  ..F...F...F...F-
00028680: b001 462e b001 462e b001 462e b001 462d  ..F...F...F...F-
00028690: b001 4624 903c 480a b001 4626 803e 4e08  ..F$.<H...F&.>N.
000286a0: b001 462e b001 462d b001 462e b001 462e  ..F...F-..F...F.
000286b0: b001 4625 b001 472e b001 462e b001 462d  ..F%..G...F...F-
000286c0: b001 462e b001 4615 903f 6019 b001 4617  ..F...F..?`...F.
000286d0: 803c 5917 b001 462d b001 462e b001 462e  .<Y...F-..F...F.
000286e0: b001 462e b001 462d b001 462e b001 462e  ..F...F-..F...F.
000286f0: b001 462e b001 462d b001 462e b001 462e  ..F...F-..F...F.
00028700: b001 462e b001 462d b001 462e b001 4609  ..F...F-..F...F.
00028710: 9041 5b25 b001 460b 803f 5b23 b001 462d  .A[%..F..?[#..F-
00028720: b001 472e b001 472e b001 472e b001 472d  ..G...G...G...G-
00028730: b001 472e b001 472e b001 482e b001 482b  ..G...G...H...H+
00028740: 8041 5a02 b001 480f 9041 461f b001 482e  .AZ...H..AF...H.
00028750: b001 482e b001 480e b001 492e b001 482e  ..H...H...I...H.
00028760: b001 480b 8041 5d00 9043 5b23 b001 482d  ..H..A]..C[#..H-
00028770: b001 482e b001 482e b001 482e b001 482d  ..H...H...H...H-
00028780: b001 482e b001 482e b001 482e b001 482d  ..H...H...H...H-
00028790: b001 4722 8043 650c b001 472e b001 472e  ..G".Ce...G...G.
000287a0: b001 472d b001 472e b001 472e b001 472e  ..G-..G...G...G.
000287b0: b001 472d b001 472e b001 472e b001 472e  ..G-..G...G...G.
000287c0: b001 472d b001 462e b001 462e b001 462e  ..G-..F...F...F.
000287d0: b001 462d b001 462e b001 462e b001 462e  ..F-..F...F...F.
000287e0: b001 462d b001 462e b001 462e b001 462e  ..F-..F...F...F.
000287f0: b001 462d b001 452e b001 452e b001 452e  ..F-..E...E...E.
00028800: b001 452d b001 452e b001 452e b001 452e  ..E-..E...E...E.
00028810: b001 452d b001 452e b001 452e b001 452e  ..E-..E...E...E.
00028820: b001 442d b001 442e b001 442e b001 442e  ..D-..D...D...D.
00028830: b001 442d b001 442e b001 442e b001 442e  ..D-..D...D...D.
00028840: b001 442d b001 442e b001 442e b001 442e  ..D-..D...D...D.
00028850: b001 432d b001 432e b001 432e b001 432e  ..C-..C...C...C.
00028860: b001 432d b001 432e b001 432e b001 432e  ..C-..C...C...C.
00028870: b001 432d b001 432e b001 432e b001 4307  ..C-..C...C...C.
00028880: b001 43df 59b0 0138 8312 b001 4811 b001  ..C.Y..8....H...
00028890: 4a12 b001 4b11 b001 4d12 b001 4f0c 904b  J...K...M...O..K
000288a0: 3706 b001 5011 b001 5212 b001 5312 b001  7...P...R...S...
000288b0: 5511 b001 5612 b001 5712 b001 5835 b001  U...V...W...X5..
000288c0: 5935 b001 5a16 904a 3f0d b001 5b47 b001  Y5..Z..J?...[G..
000288d0: 5d35 b001 5e2e 804b 4e39 9048 4a4a b001  ]5..^..KN9.HJJ..
000288e0: 5f60 804a 3e46 9046 3752 b001 6046 b001  _`.J>F.F7R..`F..
000288f0: 6109 8048 4b4f b001 6281 0eb0 0163 8209  a..HKO..b....c..
00028900: b001 6424 b001 6523 b001 6702 9043 3e4d  ..d$..e#..g..C>M
00028910: 8046 5a09 b001 6881 31b0 0169 23b0 016a  .FZ...h.1..i#..j
00028920: 23b0 016b 35b0 016c 36b0 016d 2890 3e44  #..k5..l6..m(.>D
00028930: 0db0 016e 8116 8043 4181 05b0 016d 58b0  ...n...CA....mX.
00028940: 016c 35b0 016b 47b0 016a 35b0 0169 23b0  .l5..kG..j5..i#.
00028950: 0168 35b0 0167 24b0 0166 23b0 0165 35b0  .h5..g$..f#..e5.
00028960: 0164 35b0 0163 810e b001 627c b001 6134  .d5..c....b|..a4
00028970: b001 606b b001 5f23 b001 5e23 b001 5c12  ..`k.._#..^#..\.
00028980: b001 5b24 b001 5a69 b001 5981 78b0 0158  ..[$..Zi..Y.x..X
00028990: 2eb0 0156 2eb0 0155 2db0 0154 2990 3d51  ...V...U-..T).=Q
000289a0: 05b0 0153 2eb0 0152 2180 3e5f 0db0 0151  ...S...R!.>_...Q
000289b0: 2db0 0150 2eb0 014f 1080 3d61 1eb0 014e  -..P...O..=a...N
000289c0: 2eb0 014d 2db0 014c 2eb0 014a 2790 3951  ...M-..L...J'.9Q
000289d0: 07b0 0149 2eb0 0148 1fb0 0148 2eb0 0148  ...I...H...H...H
000289e0: 2290 3b4a 0cb0 0149 1c80 3961 11b0 0149  ".;J...I..9a...I
000289f0: 2eb0 014d 2eb0 0152 0bb0 0154 1690 3d63  ...M...R...T..=c
00028a00: 18b0 0156 0980 3b5f 25b0 0158 2780 3d66  ...V..;_%..X'.=f
00028a10: 06b0 015b 0590 3e56 29b0 015d 2eb0 015f  ...[..>V)..]..._
00028a20: 2790 404e 07b0 0162 0f80 3e5f 1eb0 0164  '.@N...b..>_...d
00028a30: 2eb0 0166 1590 4265 0e80 405a 0bb0 0169  ...f..Be..@Z...i
00028a40: 2eb0 016b 0480 426c 1690 4359 13b0 016d  ...k..Bl..CY...m
00028a50: 2eb0 0170 0e90 4551 1380 4360 0db0 0172  ...p..EQ..C`...r
00028a60: 2d90 474a 01b0 0174 2380 4562 0ab0 0177  -.GJ...t#.Eb...w
00028a70: 22b0 0179 1f90 494c 0880 4761 07b0 0178  "..y..IL..Ga...x
00028a80: 2eb0 0177 0f80 496d 1890 4a56 06b0 0176  ...w..Im..JV...v
00028a90: 2eb0 0175 1f90 4c5e 0fb0 0175 1f80 4a5b  ...u..L^...u..J[
00028aa0: 0fb0 0174 0b90 4e5c 22b0 0173 1480 4c5a  ...t..N\"..s..LZ
00028ab0: 1ab0 0172 0e90 4f62 1b80 4e5f 05b0 0171  ...r..Ob..N_...q
00028ac0: 2eb0 0171 1190 515e 1cb0 0170 0d80 4f61  ...q..Q^...p..Oa
00028ad0: 21b0 016f 2eb0 016e 2eb0 016e 2db0 016d  !..o...n...n-..m
00028ae0: 2eb0 016c 2eb0 016b 2eb0 016a 2db0 016a  ...l...k...j-..j
00028af0: 2eb0 0169 2eb0 0168 2eb0 0167 0c80 5152  ...i...h...g..QR
00028b00: 21b0 0167 2eb0 0166 2eb0 0165 2490 515e  !..g...f...e$.Q^
00028b10: 0ab0 0164 2db0 0163 2eb0 0163 2eb0 0162  ...d-..c...c...b
00028b20: 2eb0 0161 2db0 0160 2eb0 0160 2eb0 015f  ...a-..`...`..._
00028b30: 2eb0 015e 0380 5101 2ab0 015d 2eb0 015c  ...^..Q.*..]...\
00028b40: 2190 5137 0db0 015c 2eb0 015b 2db0 015a  !.Q7...\...[-..Z
00028b50: 1080 515d 1eb0 0159 2eb0 0159 2c90 5133  ..Q]...Y...Y,.Q3
00028b60: 02b0 0158 2db0 0157 2eb0 0156 1b80 515e  ...X-..W...V..Q^
00028b70: 0090 5136 13b0 0155 2eb0 0155 2db0 0154  ..Q6...U...U-..T
00028b80: 0a80 515b 0090 513f 24b0 0153 2eb0 0152  ..Q[..Q?$..S...R
00028b90: 2680 5159 0090 513c 08b0 0152 2db0 0151  &.QY..Q<...R-..Q
00028ba0: 2990 515e 05b0 0150 1580 5161 19b0 014f  ).Q^...P..Qa...O
00028bb0: 2eb0 014e 2db0 014e 2eb0 014d 2eb0 014c  ...N-..N...M...L
00028bc0: 2eb0 014b 2db0 014b 2eb0 014a 2eb0 0149  ...K-..K...J...I
00028bd0: 2eb0 0148 2bb0 0148 2eb0 0148 2eb0 0148  ...H+..H...H...H
00028be0: 2db0 0148 2eb0 0148 2eb0 0148 2eb0 0148  -..H...H...H...H
00028bf0: 2db0 0148 2eb0 0148 2380 5167 0bb0 0148  -..H...H#.Qg...H
00028c00: 2eb0 0148 2db0 0148 2eb0 0148 2eb0 0148  ...H-..H...H...H
00028c10: 2eb0 0148 2db0 0149 2eb0 0149 2eb0 0149  ...H-..I...I...I
00028c20: 2eb0 0149 2db0 0149 2eb0 0149 2eb0 0149  ...I-..I...I...I
00028c30: 2eb0 0149 2db0 0149 2eb0 0149 2eb0 0149  ...I-..I...I...I
00028c40: 2eb0 0149 2db0 014a 2eb0 014a 2eb0 014a  ...I-..J...J...J
00028c50: 2eb0 014a 2db0 014a 2eb0 014a 2eb0 014a  ...J-..J...J...J
00028c60: 2eb0 014a 2db0 014a 2eb0 014a 2eb0 014a  ...J-..J...J...J
00028c70: 2eb0 014a 2db0 014a 2eb0 014b 2eb0 014b  ...J-..J...K...K
00028c80: 2eb0 014b 2db0 014b 2eb0 014b 2eb0 014b  ...K-..K...K...K
00028c90: 2eb0 014b 2db0 014b 2eb0 014b 2eb0 014b  ...K-..K...K...K
00028ca0: 2eb0 014b 2db0 014b 2eb0 014c 2eb0 014c  ...K-..K...L...L
00028cb0: 2eb0 014c 2db0 014c 2eb0 014c 2eb0 014c  ...L-..L...L...L
00028cc0: 2eb0 014c 2db0 014c 2eb0 014c 2eb0 014c  ...L-..L...L...L
00028cd0: 2eb0 014c 2db0 014c 2eb0 014c 2eb0 014d  ...L-..L...L...M
00028ce0: 2eb0 014d 2db0 014d 2eb0 014d 2eb0 014d  ...M-..M...M...M
00028cf0: 2eb0 014d 2db0 014d 2eb0 014d 2eb0 014d  ...M-..M...M...M
00028d00: 2eb0 014d 2db0 014d 2eb0 014d 2eb0 014e  ...M-..M...M...N
00028d10: 2eb0 014e 2db0 014e 2eb0 014e 2eb0 014e  ...N-..N...N...N
00028d20: 2eb0 014e 2db0 014e 2eb0 014e 2eb0 014e  ...N-..N...N...N
00028d30: 2eb0 014e 2db0 014e 2eb0 014e 2eb0 014e  ...N-..N...N...N
00028d40: 2eb0 014f 2db0 014f 2eb0 014f 2eb0 014f  ...O-..O...O...O
00028d50: 2eb0 014f 2db0 014f 2eb0 014f 2eb0 014f  ...O-..O...O...O
00028d60: 2eb0 014f 2db0 014f 2eb0 014f 2eb0 014f  ...O-..O...O...O
00028d70: 2eb0 0150 2db0 0150 2eb0 0150 2eb0 0150  ...P-..P...P...P
00028d80: 2eb0 0150 2db0 0150 2eb0 0150 2eb0 0150  ...P-..P...P...P
00028d90: 2eb0 0150 2db0 0150 2eb0 0150 2eb0 0150  ...P-..P...P...P
00028da0: 2eb0 0150 2db0 0151 2eb0 0151 2eb0 0151  ...P-..Q...Q...Q
00028db0: 2eb0 0151 2db0 0151 2eb0 0151 2eb0 0151  ...Q-..Q...Q...Q
00028dc0: 2eb0 0151 2db0 0151 2eb0 0151 2eb0 0151  ...Q-..Q...Q...Q
00028dd0: 2eb0 0151 2db0 0152 2eb0 0152 2eb0 0152  ...Q-..R...R...R
00028de0: 2eb0 0152 2db0 0152 2eb0 0152 2eb0 0152  ...R-..R...R...R
00028df0: 2eb0 0152 2db0 0152 2eb0 0152 2eb0 0152  ...R-..R...R...R
00028e00: 2eb0 0152 2db0 0152 2eb0 0153 2eb0 0153  ...R-..R...S...S
00028e10: 2eb0 0153 2db0 0153 2eb0 0153 2eb0 0153  ...S-..S...S...S
00028e20: 2eb0 0153 2db0 0153 2eb0 0153 2eb0 0153  ...S-..S...S...S
00028e30: 2eb0 0153 2db0 0153 2eb0 0154 2eb0 0154  ...S-..S...T...T
00028e40: 2eb0 0154 2db0 0154 2eb0 0154 2eb0 0154  ...T-..T...T...T
00028e50: 2eb0 0154 2db0 0154 2eb0 0154 2eb0 0154  ...T-..T...T...T
00028e60: 2eb0 0154 2db0 0154 2eb0 0154 2eb0 0155  ...T-..T...T...U
00028e70: 2eb0 0155 2db0 0155 2eb0 0155 2eb0 0155  ...U-..U...U...U
00028e80: 2eb0 0155 2db0 0155 2eb0 0155 2eb0 0155  ...U-..U...U...U
00028e90: 2eb0 0155 2db0 0155 2eb0 0155 2eb0 0156  ...U-..U...U...V
00028ea0: 2eb0 0156 2db0 0156 2eb0 0156 2eb0 0156  ...V-..V...V...V
00028eb0: 2eb0 0156 2db0 0156 2eb0 0156 2eb0 0156  ...V-..V...V...V
00028ec0: 2eb0 0156 2db0 0156 2eb0 0156 2eb0 0156  ...V-..V...V...V
00028ed0: 2eb0 0157 2db0 0157 2eb0 0157 2eb0 0157  ...W-..W...W...W
00028ee0: 2eb0 0157 2db0 0157 2eb0 0157 2eb0 0157  ...W-..W...W...W
00028ef0: 2eb0 0157 2db0 0157 2eb0 0157 2eb0 0157  ...W-..W...W...W
00028f00: 2eb0 0158 2db0 0158 2eb0 0158 2eb0 0158  ...X-..X...X...X
00028f10: 2eb0 0158 2db0 0158 2eb0 0158 2eb0 0158  ...X-..X...X...X
00028f20: 2eb0 0158 2db0 0158 2eb0 0158 2eb0 0158  ...X-..X...X...X
00028f30: 2eb0 0158 2db0 0159 2eb0 0159 2eb0 0159  ...X-..Y...Y...Y
00028f40: 2eb0 0159 2db0 0159 2eb0 0159 2eb0 0159  ...Y-..Y...Y...Y
00028f50: 2eb0 0159 2db0 0159 2eb0 0159 2eb0 0159  ...Y-..Y...Y...Y
00028f60: 2eb0 0159 2db0 015a 2eb0 015a 2eb0 015a  ...Y-..Z...Z...Z
00028f70: 2eb0 015a 2db0 015a 2eb0 015a 2eb0 015a  ...Z-..Z...Z...Z
00028f80: 2eb0 015a 2db0 015a 2eb0 015a 2eb0 015a  ...Z-..Z...Z...Z
00028f90: 2eb0 015a 2db0 015a 2eb0 015b 2eb0 015b  ...Z-..Z...[...[
00028fa0: 2eb0 015b 2db0 015b 2eb0 015b 2eb0 015b  ...[-..[...[...[
00028fb0: 2eb0 015b 2db0 015b 2eb0 015b 2eb0 015b  ...[-..[...[...[
00028fc0: 2eb0 015b 2db0 015b 2eb0 015c 2eb0 015c  ...[-..[...\...\
00028fd0: 2eb0 015c 2db0 015c 2eb0 015c 2eb0 015c  ...\-..\...\...\
00028fe0: 2eb0 015c 2db0 015c 2eb0 015c 2eb0 015c  ...\-..\...\...\
00028ff0: 2eb0 015c 2db0 015c 2eb0 015c 0cb0 015d  ...\-..\...\...]
00029000: 2eb0 015c 2eb0 015c 0590 3953 28b0 015b  ...\...\..9S(..[
00029010: 2eb0 015b 2eb0 015a 2eb0 015a 2db0 015a  ...[...Z...Z-..Z
00029020: 1190 3b42 1db0 0159 2eb0 0159 0280 3960  ..;B...Y...Y..9`
00029030: 2cb0 0158 2db0 0158 2eb0 0158 1c90 3947  ,..X-..X...X..9G
00029040: 12b0 0157 2eb0 0157 0d80 3b5e 20b0 0156  ...W...W..;^ ..V
00029050: 2eb0 0156 2eb0 0156 2790 4058 07b0 0155  ...V...V'.@X...U
00029060: 2db0 0155 1980 3916 15b0 0154 2eb0 0154  -..U..9....T...T
00029070: 2eb0 0153 2db0 0153 2eb0 0153 2eb0 0152  ...S-..S...S...R
00029080: 2eb0 0152 2db0 0151 2eb0 0151 2eb0 0151  ...R-..Q...Q...Q
00029090: 2eb0 0150 2db0 0150 2eb0 014f 2eb0 014f  ...P-..P...O...O
000290a0: 1b90 423f 13b0 014f 2db0 014e 0d80 4059  ..B?...O-..N..@Y
000290b0: 21b0 014e 2eb0 014d 2eb0 014d 2db0 014c  !..N...M...M-..L
000290c0: 2eb0 014c 2eb0 014c 2eb0 014b 2db0 014b  ...L...L...K-..K
000290d0: 2eb0 014a 2eb0 014a 2eb0 014a 0cb0 014a  ...J...J...J...J
000290e0: 2db0 014b 2eb0 014b 2eb0 014b 0390 3e58  -..K...K...K..>X
000290f0: 2bb0 014b 2280 425d 0bb0 014b 2eb0 014b  +..K".B]...K...K
00029100: 2eb0 014b 2eb0 014b 2db0 014b 2eb0 014b  ...K...K-..K...K
00029110: 2eb0 014b 2eb0 014b 2db0 014b 1a90 3d65  ...K...K-..K..=e
00029120: 14b0 014b 2eb0 014b 0b80 3e5f 23b0 014b  ...K...K..>_#..K
00029130: 2db0 014b 2eb0 014b 2eb0 014b 2eb0 014b  -..K...K...K...K
00029140: 2db0 014c 2eb0 014c 2eb0 014c 2eb0 014c  -..L...L...L...L
00029150: 2db0 014c 2eb0 014c 2eb0 014c 2eb0 014c  -..L...L...L...L
00029160: 2db0 014c 0e90 3e49 20b0 014d 2d80 3d5b  -..L..>I ..M-.=[
00029170: 01b0 014d 2eb0 014d 2db0 014d 2eb0 014d  ...M...M-..M...M
00029180: 2eb0 014d 2eb0 014d 2db0 014d 2eb0 014d  ...M...M-..M...M
00029190: 2eb0 014e 2eb0 014e 2db0 014e 2eb0 014e  ...N...N-..N...N
000291a0: 2eb0 014e 2eb0 014e 2db0 014e 0290 4056  ...N...N-..N..@V
000291b0: 2cb0 014e 2180 3e5c 0db0 014e 2eb0 014f  ,..N!.>\...N...O
000291c0: 2db0 014f 2eb0 014f 2eb0 014f 2eb0 014f  -..O...O...O...O
000291d0: 2db0 014f 2eb0 014f 2eb0 014f 1890 414d  -..O...O...O..AM
000291e0: 16b0 014f 2db0 0150 0a80 4055 24b0 0150  ...O-..P..@U$..P
000291f0: 2eb0 0150 2eb0 0150 2db0 0150 2eb0 0150  ...P...P-..P...P
00029200: 2eb0 0150 2eb0 0150 2db0 0151 2eb0 0151  ...P...P-..Q...Q
00029210: 2eb0 0151 2eb0 0151 2db0 0151 2eb0 0151  ...Q...Q-..Q...Q
00029220: 2eb0 0151 0c90 434e 22b0 0151 2b80 415f  ...Q..CN"..Q+.A_
00029230: 02b0 0151 2eb0 0152 2eb0 0152 2eb0 0152  ...Q...R...R...R
00029240: 2db0 0152 2eb0 0152 2eb0 0152 2eb0 0152  -..R...R...R...R
00029250: 2db0 0152 2eb0 0152 2eb0 0153 2eb0 0153  -..R...R...S...S
00029260: 2db0 0153 2eb0 0153 2eb0 0153 0090 4453  -..S...S...S..DS
00029270: 2eb0 0153 1f80 4359 0eb0 0153 2eb0 0153  ...S..CY...S...S
00029280: 2eb0 0153 2eb0 0154 2db0 0154 2eb0 0154  ...S...T-..T...T
00029290: 2eb0 0154 2eb0 0154 2db0 0154 1790 4545  ...T...T-..T..EE
000292a0: 17b0 0154 2eb0 0154 0880 445d 26b0 0154  ...T...T..D]&..T
000292b0: 2db0 0155 2eb0 0155 2eb0 0155 2eb0 0155  -..U...U...U...U
000292c0: 2db0 0155 2eb0 0155 2eb0 0155 2eb0 0155  -..U...U...U...U
000292d0: 2db0 0155 07b0 0156 813b 9047 694d 8045  -..U...V.;.GiM.E
000292e0: 5e85 0390 486b 4d80 475a 8360 8048 69ea  ^...HkM.GZ.`.Hi.
000292f0: 2bb0 013d 8137 b001 3c92 76b0 0108 8524  +..=.7..<.v....$
00029300: b001 0982 00b0 010a 865c b001 0c81 6db0  .........\....m.
00029310: 010d 00b0 011c 8149 b001 1d2e b001 1d2e  .......I........
00029320: b001 1d2d b001 1d2e b001 1e2e b001 1e2e  ...-............
00029330: b001 1e2d b001 1e2e b001 1f2e b001 1f2e  ...-............
00029340: b001 1f2d b001 1f2e b001 202e b001 202e  ...-...... ... .
00029350: b001 202d b001 212e b001 212e b001 212e  .. -..!...!...!.
00029360: b001 212d b001 222e b001 222e b001 222e  ..!-.."..."...".
00029370: b001 222d b001 232e b001 232e b001 232e  .."-..#...#...#.
00029380: b001 232d b001 242e b001 242e b001 242e  ..#-..$...$...$.
00029390: b001 252d b001 252e b001 252e b001 252e  ..%-..%...%...%.
000293a0: b001 262d b001 262e b001 262e b001 262e  ..&-..&...&...&.
000293b0: b001 272d b001 272e b001 272e b001 282e  ..'-..'...'...(.
000293c0: b001 282d b001 282e b001 282e b001 292e  ..(-..(...(...).
000293d0: b001 292d b001 292e b001 2914 b001 2a00  ..)-..)...)...*.
000293e0: b001 282e b001 282d b001 292e b001 292e  ..(...(-..)...).
000293f0: b001 2a2e b001 2b2d b001 2b2e b001 2c2e  ..*...+-..+...,.
00029400: b001 2d2e b001 2d16 903c 4417 b001 2e2e  ..-...-..<D.....
00029410: b001 2e2e b001 2f2e b001 302d b001 302e  ....../...0-..0.
00029420: b001 312e b001 322e b001 322d b001 332e  ..1...2...2-..3.
00029430: b001 332e b001 341d b001 352e b001 352e  ..3...4...5...5.
00029440: b001 352d b001 352e b001 352e b001 352e  ..5-..5...5...5.
00029450: b001 362d b001 362e b001 362e b001 362e  ..6-..6...6...6.
00029460: b001 362d b001 362e b001 372e b001 372e  ..6-..6...7...7.
00029470: b001 372d b001 372e b001 372e b001 372e  ..7-..7...7...7.
00029480: b001 382d b001 382e b001 380f 903e 2f1f  ..8-..8...8..>/.
00029490: b001 382e b001 382d b001 382e b001 392e  ..8...8-..8...9.
000294a0: b001 391a 803c 4614 b001 392d b001 392e  ..9..<F...9-..9.
000294b0: b001 392e b001 392e b001 3a25 903f 3808  ..9...9...:%.?8.
000294c0: b001 3a2e b001 3a2e b001 3a2e b001 3a2d  ..:...:...:...:-
000294d0: b001 3a2e b001 3b03 803e 502b b001 3b2e  ..:...;..>P+..;.
000294e0: b001 3b2d b001 3b2e b001 3b2e b001 3c2e  ..;-..;...;...<.
000294f0: b001 3c2d b001 3c2e b001 3c2e b001 3c2e  ..<-..<...<...<.
00029500: b001 3c19 9041 3314 b001 3d12 803f 491c  ..<..A3...=..?I.
00029510: b001 3d2e b001 3d2e b001 3d2d b001 3d2e  ..=...=...=-..=.
00029520: b001 3d2e b001 3e2e b001 3e2d b001 3e2e  ..=...>...>-..>.
00029530: b001 3e2e b001 3e2e b001 3e2d b001 3f2e  ..>...>...>-..?.
00029540: b001 3f2e b001 3f2e b001 3f0d 9043 4120  ..?...?...?..CA 
00029550: b001 3f06 8041 2828 b001 3f2e b001 402e  ..?..A((..?...@.
00029560: b001 402d b001 402e b001 402e b001 402e  ..@-..@...@...@.
00029570: b001 402d b001 412e b001 4124 9045 3f0a  ..@-..A...A$.E?.
00029580: b001 411c 8043 5512 b001 412d b001 412d  ..A..CU...A-..A-
00029590: b001 422e b001 422d b001 432e b001 432e  ..B...B-..C...C.
000295a0: b001 432e b001 442d b001 442e b001 452e  ..C...D-..D...E.
000295b0: b001 452e b001 452d b001 462e b001 462e  ..E...E-..F...F.
000295c0: b001 4619 9046 3c15 b001 4711 8045 5b1c  ..F..F<...G..E[.
000295d0: b001 472e b001 482e b001 482e b001 482d  ..G...H...H...H-
000295e0: b001 492e b001 492e b001 4a2e b001 4a2d  ..I...I...J...J-
000295f0: b001 4a19 b001 4b2d b001 4a2e b001 4a2e  ..J...K-..J...J.
00029600: b001 492e b001 492d b001 4823 9048 2a0b  ..I...I-..H#.H*.
00029610: b001 481b 8046 5913 b001 482e b001 472d  ..H..FY...H...G-
00029620: b001 472e b001 462e b001 462e b001 462d  ..G...F...F...F-
00029630: b001 452e b001 452e b001 442e b001 440b  ..E...E...D...D.
00029640: 904a 2322 b001 442e b001 432e b001 432e  .J#"..D...C...C.
00029650: b001 422d b001 422e b001 420f 8048 551f  ..B-..B...B..HU.
00029660: b001 412e b001 412d b001 402e b001 402e  ..A...A-..@...@.
00029670: b001 402e b001 3f2d b001 3f2e b001 3e2e  ..@...?-..?...>.
00029680: b001 3e2d 904f 2601 b001 3e2d b001 3d2e  ..>-.O&...>-..=.
00029690: b001 3d2e b001 3c2e b001 3c2d b001 3c0b  ..=...<...<-..<.
000296a0: 804a 4123 b001 3b2e b001 3b2e b001 3b2d  .JA#..;...;...;-
000296b0: b001 3a2e b001 3a2e b001 392e b001 392d  ..:...:...9...9-
000296c0: b001 392e b001 382e b001 3821 804f 3e00  ..9...8...8!.O>.
000296d0: 904a 200d b001 372d b001 372e b001 372e  .J ...7-..7...7.
000296e0: b001 362e b001 362d b001 352e b001 352e  ..6...6-..5...5.
000296f0: b001 352e b001 342d b001 342e b001 332e  ..5...4-..4...3.
00029700: b001 332e b001 332d b001 322e b001 322e  ..3...3-..2...2.
00029710: b001 3115 804a 3400 9048 1d19 b001 312d  ..1..J4..H....1-
00029720: b001 312e b001 302e b001 302e b001 2f2d  ..1...0...0.../-
00029730: b001 2f2e b001 2f2e b001 2e2e b001 2e2d  ../.../........-
00029740: b001 2d2e b001 2d2e b001 2d2e b001 2c2d  ..-...-...-...,-
00029750: b001 2c2e b001 2c2e b001 2b2e b001 2b2d  ..,...,...+...+-
00029760: b001 2a2e b001 2a2e b001 2a2e b001 292d  ..*...*...*...)-
00029770: b001 292e b001 2810 904f 331e b001 282b  ..)...(..O3...(+
00029780: 8048 2903 b001 282d b001 272e b001 272e  .H)...(-..'...'.
00029790: b001 262e b001 262d b001 260b b001 2600  ..&...&-..&...&.
000297a0: b001 2981 00b0 012b 8112 b001 2c25 b001  ..)....+....,%..
000297b0: 2d24 b001 2e37 b001 2f81 24b0 0131 5cb0  -$...7../.$..1\.
000297c0: 0133 1b90 4e19 0ab0 0134 8136 b001 3548  .3..N....4.6..5H
000297d0: b001 3781 3080 4f45 8408 b001 3612 b001  ..7.0.OE....6...
000297e0: 3525 b001 3437 b001 334a b001 323c 904f  5%..47..3J..2<.O
000297f0: 240c b001 314a b001 303b 804e 2a0d b001  $...1J..0;.N*...
00029800: 2f81 00b0 012e 6eb0 012d 6eb0 012c 8149  /.....n..-n..,.I
00029810: b001 2b81 00b0 012a 8112 b001 296e b001  ..+....*....)n..
00029820: 2881 00b0 0127 825b b001 2682 4ab0 0125  (....'.[..&.J..%
00029830: 24b0 0124 815c b001 2382 24b0 0122 8137  $..$.\..#.$..".7
00029840: b001 2181 37b0 0120 8312 b001 1f81 12b0  ..!.7.. ........
00029850: 011e 8337 b001 1d81 24b0 011c 5cb0 011b  ...7....$...\...
00029860: 8112 b001 1a81 37b0 0119 6db0 0118 6fb0  ......7...m...o.
00029870: 0117 5ab0 0116 4ab0 0115 5bb0 0114 8101  ..Z...J...[.....
00029880: b001 137f b001 1282 25b0 0111 49b0 0110  ........%...I...
00029890: 8224 b001 0f82 6eb0 010e 836e b001 0d82  .$....n....n....
000298a0: 24b0 010c 6eb0 010b 8149 b001 0a82 00b0  $...n....I......
000298b0: 0109 8321 804f 5d00 ff2f 004d 5472 6b00  ...!.O]../.MTrk.
000298c0: 0012 2600 ff01 0f53 4620 5669 6f6c 6120  ..&....SF Viola 
000298d0: 4c65 6761 746f 00b0 0b7f 00b0 077f 00b0  Legato..........
000298e0: 077f 00b0 0127 9f47 b001 102e b001 102d  .....'.G.......-
000298f0: b001 102e b001 112e b001 112e b001 122d  ...............-
00029900: b001 122e b001 132e b001 132e b001 132d  ...............-
00029910: b001 142e b001 142e b001 152e b001 152d  ...............-
00029920: b001 162e b001 162e b001 162e b001 172d  ...............-
00029930: b001 172e b001 182e b001 182e b001 192d  ...............-
00029940: b001 192e b001 1a2e b001 1a2e b001 1a2d  ...............-
00029950: b001 1b2e b001 1b2e b001 1c2e b001 1c2d  ...............-
00029960: b001 1d2e b001 1d2e b001 1d2e b001 1e2d  ...............-
00029970: b001 1e2e b001 1f2e b001 1f2e b001 202d  .............. -
00029980: b001 202e b001 202e b001 212e b001 212d  .. ... ...!...!-
00029990: b001 222e b001 222e b001 232e b001 232d  .."..."...#...#-
000299a0: b001 242e b001 242e b001 242e b001 252d  ..$...$...$...%-
000299b0: b001 252e b001 262e b001 262e b001 272d  ..%...&...&...'-
000299c0: b001 272e b001 272e b001 282e b001 282d  ..'...'...(...(-
000299d0: b001 291c 9048 0112 b001 292e b001 2a2e  ..)..H....)...*.
000299e0: b001 2a2d b001 2b2e b001 2b2e b001 2b2e  ..*-..+...+...+.
000299f0: b001 2c2d b001 2c1b b001 2d13 b001 2e12  ..,-..,...-.....
00029a00: b001 2f1d b001 3112 b001 3213 b001 330c  ../...1...2...3.
00029a10: 904d 0107 b001 3412 b001 351d b001 362e  .M....4...5...6.
00029a20: b001 3715 8048 0107 b001 392f b001 3a26  ..7..H....9/..:&
00029a30: b001 3b1c b001 3c2f b001 3d81 44b0 013c  ..;...</..=.D..<
00029a40: 1cb0 013b 12b0 013a 13b0 0139 13b0 0138  ...;...:...9...8
00029a50: 13b0 0137 41b0 0136 13b0 0135 12b0 0134  ...7A..6...5...4
00029a60: 13b0 0133 13b0 0132 26b0 0131 2eb0 012f  ...3...2&..1.../
00029a70: 25b0 012d 13b0 012c 1cb0 012b 1db0 012a  %..-...,...+...*
00029a80: 25b0 0129 25b0 0128 13b0 0120 1cb0 011f  %..)%..(... ....
00029a90: 13b0 011e 13b0 011d 12b0 011d 26b0 011c  ............&...
00029aa0: 13b0 011b 12b0 011a 1880 4d52 04b0 0119  ..........MR....
00029ab0: 13b0 0118 25b0 0117 7ab0 0117 811f b001  ....%...z.......
00029ac0: 1682 06b0 0117 26b0 0117 38b0 0118 1790  ......&...8.....
00029ad0: 432d 33b0 0119 4bb0 011a 54b0 011b 67b0  C-3...K...T...g.
00029ae0: 011d 0ab0 011d 25b0 011e 13b0 011f 12b0  ......%.........
00029af0: 0120 30b0 0120 12b0 0121 1190 442c 15b0  . 0.. ...!..D,..
00029b00: 0122 1bb0 0123 0e80 434f 05b0 0124 1cb0  ."...#..CO...$..
00029b10: 0125 0ab0 0125 12b0 0126 2fb0 0127 1cb0  .%...%...&/..'..
00029b20: 0128 13b0 0129 25b0 012a 13b0 012b 25b0  .(...)%..*...+%.
00029b30: 012c 13b0 012d 1cb0 012d 0ab0 012e 12b0  .,...-...-......
00029b40: 012f 1cb0 0130 13b0 0132 13b0 0132 13b0  ./...0...2...2..
00029b50: 0133 0a90 3f2c 12b0 0134 1cb0 0135 25b0  .3..?,...4...5%.
00029b60: 0135 38b0 0136 2580 444c 26b0 0137 13b0  .58..6%.DL&..7..
00029b70: 0138 13b0 013a 25b0 013b 1cb0 013b 13b0  .8...:%..;...;..
00029b80: 013c 2eb0 013d 1cb0 013d 1db0 013e 09b0  .<...=...=...>..
00029b90: 013f 13b0 0140 13b0 0141 25b0 0142 2fb0  .?...@...A%..B/.
00029ba0: 0143 12b0 0144 0ab0 0144 8132 b001 4541  .C...D...D.2..EA
00029bb0: b001 4425 b001 442e b001 4524 903e 010a  ..D%..D...E$.>..
00029bc0: b001 472e b001 482d b001 4a2d 803f 3901  ..G...H-..J-.?9.
00029bd0: b001 4b2e b001 4d2e b001 4e2d b001 502e  ..K...M...N-..P.
00029be0: b001 512e b001 532e b001 552d b001 560d  ..Q...S...U-..V.
00029bf0: b001 572e b001 562e b001 552d b001 542e  ..W...V...U-..T.
00029c00: b001 532e b001 522e b001 522d b001 512e  ..S...R...R-..Q.
00029c10: b001 502e b001 4f2e b001 4e22 903c 010b  ..P...O...N".<..
00029c20: b001 4d2e b001 4d2e b001 4c1d 803e 3011  ..M...M...L..>0.
00029c30: b001 4b2d b001 4a2e b001 492e b001 482e  ..K-..J...I...H.
00029c40: b001 482d b001 472e b001 462e b001 452e  ..H-..G...F...E.
00029c50: b001 442d b001 442e b001 432e b001 422e  ..D-..D...C...B.
00029c60: b001 412d b001 402e b001 3f2e b001 3f2e  ..A-..@...?...?.
00029c70: b001 3e2d b001 3d16 b001 3d2e b001 3a2e  ..>-..=...=...:.
00029c80: b001 382d b001 362e b001 342e b001 322e  ..8-..6...4...2.
00029c90: b001 302d b001 2e2e b001 2c2e b001 2a2e  ..0-......,...*.
00029ca0: b001 282d b001 260c b001 262d b001 1d02  ..(-..&...&-....
00029cb0: b001 1d45 803c 3e81 53b0 0122 8403 b001  ...E.<>.S.."....
00029cc0: 2313 b001 2413 b001 2609 b001 2709 b001  #...$...&...'...
00029cd0: 2813 b001 2908 903a 1814 b001 2b1c b001  (...)..:....+...
00029ce0: 2c1c b001 2d26 b001 2e12 b001 2f1c b001  ,...-&....../...
00029cf0: 300a b001 3112 b001 3213 b001 331c b001  0...1...2...3...
00029d00: 344b b001 3642 b001 3741 b001 381c b001  4K..6B..7A..8...
00029d10: 390b 903f 1249 803a 360a b001 3a2e b001  9..?.I.:6...:...
00029d20: 3b2f b001 3c1c b001 3d2f b001 3e2f b001  ;/..<...=/..>/..
00029d30: 3f38 b001 404b b001 412f b001 4204 9042  ?8..@K..A/..B..B
00029d40: 3346 b001 4303 803f 3e3f b001 4434 b001  3F..C..?>?..D4..
00029d50: 432e b001 432d b001 432e b001 432e b001  C...C-..C...C...
00029d60: 442e b001 442d b001 442e b001 442e b001  D...D-..D...D...
00029d70: 442e b001 442d b001 442e b001 452e b001  D...D-..D...E...
00029d80: 452e b001 452d b001 4581 0490 432e 0480  E...E-..E...C...
00029d90: 4235 8268 b001 4367 b001 420d 8043 5200  B5.h..Cg..B..CR.
00029da0: 903e 3576 b001 415e b001 405d b001 3f4b  .>5v..A^..@]..?K
00029db0: b001 3e25 b001 3d1d b001 3c25 b001 3b4b  ..>%..=...<%..;K
00029dc0: b001 3a38 b001 392f b001 3838 b001 3738  ..:8..9/..88..78
00029dd0: b001 3681 3b80 3e3e 0090 433d 54b0 0137  ..6.;.>>..C=T..7
00029de0: 0ab0 0138 09b0 0139 09b0 013b 13b0 013c  ...8...9...;...<
00029df0: 13b0 013d 1cb0 013e 8144 b001 3f2f b001  ...=...>.D..?/..
00029e00: 403b 8043 5100 9046 1c19 b001 4139 b001  @;.CQ..F....A9..
00029e10: 4225 b001 4313 b001 4412 b001 4513 b001  B%..C...D...E...
00029e20: 4681 32b0 0147 38b0 0148 41b0 0149 2fb0  F.2..G8..HA..I/.
00029e30: 014a 2eb0 014a 2eb0 014a 2db0 014a 2eb0  .J...J...J-..J..
00029e40: 014b 2eb0 014b 2eb0 014b 2db0 014c 2eb0  .K...K...K-..L..
00029e50: 014c 2eb0 014c 2eb0 014d 2db0 014d 2eb0  .L...L...M-..M..
00029e60: 014d 2eb0 014e 2eb0 014e 2db0 014e 2780  .M...N...N-..N'.
00029e70: 466b 07b0 014e 2eb0 014f 2eb0 014f 2db0  Fk...N...O...O-.
00029e80: 014f 2eb0 0150 2eb0 0150 2eb0 0150 2db0  .O...P...P...P-.
00029e90: 0151 2eb0 0151 2eb0 0151 2eb0 0152 2db0  .Q...Q...Q...R-.
00029ea0: 0152 2eb0 0152 28b0 0153 83a8 67b0 0139  .R...R(..S..g..9
00029eb0: 820a b001 3993 61b0 012e 2eb0 0131 2db0  ....9.a......1-.
00029ec0: 0134 2eb0 0137 2eb0 013a 2eb0 013d 0690  .4...7...:...=..
00029ed0: 3534 27b0 0141 2eb0 0142 2eb0 0143 2eb0  54'..A...B...C..
00029ee0: 0144 2db0 0145 1290 3a43 1cb0 0146 2eb0  .D-..E..:C...F..
00029ef0: 0147 0580 354c 29b0 0148 2db0 0149 29b0  .G..5L)..H-..I).
00029f00: 014b 00b0 014b 12b0 014a 1090 3c4e 02b0  .K...K...J..<N..
00029f10: 0148 11b0 0147 12b0 0146 12b0 0144 0480  .H...G...F...D..
00029f20: 3a59 0db0 0143 12b0 0142 12b0 0141 12b0  :Y...C...B...A..
00029f30: 0140 11b0 013e 11b0 013d 12b0 013b 12b0  .@...>...=...;..
00029f40: 0139 12b0 0138 11b0 0137 12b0 0135 12b0  .9...8...7...5..
00029f50: 0134 12b0 0133 23b0 0132 23b0 0131 24b0  .4...3#..2#..1$.
00029f60: 0130 58b0 012f 58b0 012e 24b0 012c 11b0  .0X../X...$..,..
00029f70: 012b 2eb0 012b 2eb0 012b 2eb0 012b 2db0  .+...+...+...+-.
00029f80: 012b 2eb0 012b 2eb0 012b 2eb0 012b 2db0  .+...+...+...+-.
00029f90: 012c 2eb0 012c 2eb0 012c 2eb0 012c 2db0  .,...,...,...,-.
00029fa0: 012c 2eb0 012c 2eb0 012c 2eb0 012c 2db0  .,...,...,...,-.
00029fb0: 012c 2eb0 012d 2eb0 012d 2eb0 012e 2db0  .,...-...-....-.
00029fc0: 012e 2eb0 012f 2eb0 012f 2eb0 0130 2db0  ...../.../...0-.
00029fd0: 0130 2eb0 0130 2eb0 0131 2eb0 0131 2db0  .0...0...1...1-.
00029fe0: 0132 2eb0 0132 2eb0 0133 2eb0 0133 2db0  .2...2...3...3-.
00029ff0: 0134 2eb0 0134 2eb0 0134 2eb0 0135 2db0  .4...4...4...5-.
0002a000: 0135 2eb0 0136 2eb0 0136 2eb0 0137 2db0  .5...6...6...7-.
0002a010: 0137 2eb0 0138 2eb0 0138 2eb0 0138 2db0  .7...8...8...8-.
0002a020: 0139 0790 4141 27b0 0139 2580 3c59 09b0  .9..AA'..9%.<Y..
0002a030: 013a 2eb0 013a 2db0 013b 2eb0 013b 1290  .:...:-..;...;..
0002a040: 3f3c 1cb0 013c 2eb0 013c 2980 413c 04b0  ?<...<...<).A<..
0002a050: 013c 2eb0 013b 2eb0 013b 2eb0 013b 2db0  .<...;...;...;-.
0002a060: 013b 2eb0 013a 2eb0 013a 2eb0 013a 2890  .;...:...:...:(.
0002a070: 413e 05b0 013a 2eb0 013a 1e80 3f46 10b0  A>...:...:..?F..
0002a080: 0139 2eb0 0139 2db0 0139 2eb0 0139 0690  .9...9-..9...9..
0002a090: 3f44 28b0 0138 0180 414c 2db0 0138 2db0  ?D(..8..AL-..8-.
0002a0a0: 0138 2eb0 0138 2eb0 0138 1190 3e4a 0a80  .8...8...8..>J..
0002a0b0: 3f4e 13b0 0137 2db0 0137 2eb0 0137 2eb0  ?N...7-..7...7..
0002a0c0: 0137 2eb0 0136 2db0 0136 2eb0 0136 2eb0  .7...6-..6...6..
0002a0d0: 0136 2eb0 0136 2db0 0135 2eb0 0135 2eb0  .6...6-..5...5..
0002a0e0: 0135 2eb0 0135 2db0 0135 2eb0 0134 2eb0  .5...5-..5...4..
0002a0f0: 0134 2eb0 0134 2db0 0134 2eb0 0133 2eb0  .4...4-..4...3..
0002a100: 0133 2eb0 0133 1090 393e 0e80 3e41 0fb0  .3...3..9>..>A..
0002a110: 0133 2eb0 0133 2eb0 0132 2eb0 0132 2db0  .3...3...2...2-.
0002a120: 0132 2eb0 0132 2eb0 0131 2eb0 0131 2db0  .2...2...1...1-.
0002a130: 0131 2eb0 0131 2eb0 0131 1ab0 0131 814e  .1...1...1...1.N
0002a140: b001 3101 903a 452d b001 310b 8039 5223  ..1..:E-..1..9R#
0002a150: b001 322d b001 322e b001 332e b001 332e  ..2-..2...3...3.
0002a160: b001 342d b001 342e b001 352e b001 362e  ..4-..4...5...6.
0002a170: b001 3617 9035 4a09 803a 5f0d b001 372e  ..6..5J..:_...7.
0002a180: b001 372e b001 382e b001 382d b001 392e  ..7...8...8-..9.
0002a190: b001 392e b001 3a2e b001 3b2d b001 3b2e  ..9...:...;-..;.
0002a1a0: b001 3c2e b001 3c2e b001 3d2d b001 3d2e  ..<...<...=-..=.
0002a1b0: b001 3e2e b001 3e2e b001 3f2c b001 402e  ..>...>...?,..@.
0002a1c0: b001 402e b001 412d b001 422e b001 432e  ..@...A-..B...C.
0002a1d0: b001 432e b001 442d b001 452e b001 462e  ..C...D-..E...F.
0002a1e0: b001 462e b001 4716 b001 482e b001 472e  ..F...G...H...G.
0002a1f0: b001 462d b001 450e 8035 5920 b001 442e  ..F-..E..5Y ..D.
0002a200: b001 432e b001 422d b001 412e b001 402e  ..C...B-..A...@.
0002a210: b001 3f2e b001 3e2d b001 3d2e b001 3c2e  ..?...>-..=...<.
0002a220: b001 3b2e b001 3a2d b001 392e b001 382e  ..;...:-..9...8.
0002a230: b001 372e b001 362d b001 352e b001 342e  ..7...6-..5...4.
0002a240: b001 332e b001 332d b001 322e b001 312e  ..3...3-..2...1.
0002a250: b001 302e b001 2f2d b001 2e2e b001 2d2e  ..0.../-......-.
0002a260: b001 2c2e b001 2b2d b001 2a2e b001 292e  ..,...+-..*...).
0002a270: b001 281b b001 2881 54b0 0127 7cb0 0126  ..(...(.T..'|..&
0002a280: 8317 b001 2546 b001 2481 0eb0 0123 6ab0  ....%F..$....#j.
0002a290: 0122 7cb0 0121 811f b001 2058 b001 1f47  ."|..!.... X...G
0002a2a0: b001 1e58 b001 1d7c b001 1c58 b001 1b84  ...X...|...X....
0002a2b0: 4bb0 011a 7bb0 0119 23b0 0118 a959 b00b  K...{...#....Y..
0002a2c0: 7fa0 58b0 0b7f 8d5a b001 202e b001 232e  ..X....Z.. ...#.
0002a2d0: b001 262d b001 2a2e b001 2d2e b001 312e  ..&-..*...-...1.
0002a2e0: b001 342d b001 382e b001 3b2e b001 3f0c  ..4-..8...;...?.
0002a2f0: b001 402e b001 402d b001 402e b001 402e  ..@...@-..@...@.
0002a300: b001 402e b001 402d b001 4016 903c 4d18  ..@...@-..@..<M.
0002a310: b001 402e b001 402e b001 402d b001 402e  ..@...@...@-..@.
0002a320: b001 402e b001 402e b001 402d b001 402e  ..@...@...@-..@.
0002a330: b001 402e b001 402e b001 402d b001 402e  ..@...@...@-..@.
0002a340: b001 402e b001 402e b001 402d b001 400a  ..@...@...@-..@.
0002a350: 903a 4124 b001 402e b001 4025 803c 5309  .:A$..@...@%.<S.
0002a360: b001 402d b001 402e b001 402e b001 402e  ..@-..@...@...@.
0002a370: b001 412d b001 412e b001 412e b001 412e  ..A-..A...A...A.
0002a380: b001 412d b001 412e b001 412e b001 412e  ..A-..A...A...A.
0002a390: b001 412b 9038 4502 b001 412e b001 412e  ..A+.8E...A...A.
0002a3a0: b001 4119 803a 5715 b001 412d b001 412e  ..A..:W...A-..A.
0002a3b0: b001 412e b001 412e b001 412d b001 412e  ..A...A...A-..A.
0002a3c0: b001 412e b001 4114 903a 4c1a b001 412d  ..A...A..:L...A-
0002a3d0: b001 412e b001 4102 8038 5e2c b001 412e  ..A...A..8^,..A.
0002a3e0: b001 412d b001 412e b001 412e b001 412e  ..A-..A...A...A.
0002a3f0: b001 411c b001 422e b001 412e b001 412e  ..A...B...A...A.
0002a400: b001 412d b001 412e b001 412e b001 4119  ..A-..A...A...A.
0002a410: 9033 5c15 b001 402d b001 402e b001 4007  .3\...@-..@...@.
0002a420: 803a 5927 b001 402e b001 402d b001 402e  .:Y'..@...@-..@.
0002a430: b001 402e b001 3f2e b001 3f2d b001 3f2e  ..@...?...?-..?.
0002a440: b001 3f2e b001 3f2e b001 3f2d b001 3f2e  ..?...?...?-..?.
0002a450: b001 3e2e b001 3e0d 9037 4a21 b001 3e2d  ..>...>..7J!..>-
0002a460: b001 3e29 8033 5b05 b001 3e2e b001 3e2e  ..>).3[...>...>.
0002a470: b001 3e2d b001 3e2e b001 3e2e b001 3e2e  ..>-..>...>...>.
0002a480: b001 3f2d b001 3f24 9039 480a b001 3f2e  ..?-..?$.9H...?.
0002a490: b001 3f2e b001 3f11 8037 4a1c b001 402e  ..?...?..7J...@.
0002a4a0: b001 402e b001 4001 903c 4a2d b001 402d  ..@...@..<J-..@-
0002a4b0: b001 401d 8039 6011 b001 412e b001 412e  ..@..9`...A...A.
0002a4c0: b001 410c 9039 4821 b001 412e b001 4128  ..A..9H!..A...A(
0002a4d0: 803c 5b06 b001 422e b001 422d b001 4218  .<[...B...B-..B.
0002a4e0: 903a 5e16 b001 422e b001 432e b001 4305  .:^...B...C...C.
0002a4f0: 8039 5928 b001 432e b001 4323 903e 4a0b  .9Y(..C...C#.>J.
0002a500: b001 432e b001 442d b001 4411 803a 531d  ..C...D-..D..:S.
0002a510: b001 442e b001 442e b001 4400 903a 512d  ..D...D...D..:Q-
0002a520: b001 452e b001 451c 803e 5212 b001 452e  ..E...E..>R...E.
0002a530: b001 452d b001 450c 903c 5622 b001 462e  ..E-..E..<V"..F.
0002a540: b001 4627 803a 5f07 b001 462d b001 462a  ..F'.:_...F-..F*
0002a550: b001 471b 903f 5312 b001 472e b001 472e  ..G..?S...G...G.
0002a560: b001 4709 803c 5825 b001 472d b001 4727  ..G..<X%..G-..G'
0002a570: 903e 5107 b001 472e b001 472e b001 4714  .>Q...G...G...G.
0002a580: 803f 4119 b001 472e b001 472e b001 4804  .?A...G...G...H.
0002a590: 9041 412a b001 482d b001 4920 803e 5c0e  .AA*..H-..I .>\.
0002a5a0: b001 492e b001 4a2e b001 4b0f 903e 4a1e  ..I...J...K..>J.
0002a5b0: b001 4b2e b001 4c2b 8041 5203 b001 4c2e  ..K...L+.AR...L.
0002a5c0: b001 4d2d b001 4e1b 903f 6313 b001 4e2e  ..M-..N..?c...N.
0002a5d0: b001 4f2e b001 4f08 803e 5225 b001 502e  ..O...O..>R%..P.
0002a5e0: b001 5126 9043 4e08 b001 512e b001 522d  ..Q&.CN...Q...R-
0002a5f0: b001 5214 803f 5b1a b001 532e b001 532e  ..R..?[...S...S.
0002a600: b001 5403 903f 3f2a b001 552e b001 551f  ..T..??*..U...U.
0002a610: 8043 580f b001 562e b001 562d b001 570f  .CX...V...V-..W.
0002a620: 9041 511f b001 582e b001 582a 803f 6904  .AQ...X...X*.?i.
0002a630: b001 592d b001 592e b001 5a1a 9045 4b14  ..Y-..Y...Z..EK.
0002a640: b001 5b2e b001 5b2d b001 5c08 8041 6226  ..[...[-..\..Ab&
0002a650: b001 5c2e b001 5d25 9046 6909 b001 5e1c  ..\...]%.Fi...^.
0002a660: 8045 6111 b001 5e2e b001 5f2e b001 5f2e  .Ea...^..._..._.
0002a670: b001 602d b001 6003 b001 611f 8046 6d8b  ..`-..`...a..Fm.
0002a680: 48b0 013f 987b b001 402e b001 3f2d b001  H..?.{..@...?-..
0002a690: 3e2e b001 3d2e b001 3d2e b001 3c2d b001  >...=...=...<-..
0002a6a0: 3b2e b001 3a2e b001 3a2e b001 392d b001  ;...:...:...9-..
0002a6b0: 382e b001 382e b001 372e b001 362d b001  8...8...7...6-..
0002a6c0: 352e b001 352e b001 342e b001 332d b001  5...5...4...3-..
0002a6d0: 332e b001 322e b001 312e b001 302d b001  3...2...1...0-..
0002a6e0: 302e b001 2f2e b001 2e2e b001 2e2d b001  0.../........-..
0002a6f0: 2d2e b001 2c2e b001 2b2e b001 2b0d b001  -...,...+...+...
0002a700: 2b12 b001 2925 b001 2712 b001 2611 b001  +...)%..'...&...
0002a710: 2513 b001 2312 b001 2212 b001 2112 b001  %...#..."...!...
0002a720: 1f12 b001 1d13 b001 1b11 b001 1913 b001  ................
0002a730: 1712 b001 1612 b001 1411 b001 1313 b001  ................
0002a740: 1212 b001 1113 b001 1012 b001 0f12 b001  ................
0002a750: 0e24 b001 0d81 23b0 010f 12b0 0112 12b0  .$....#.........
0002a760: 0114 12b0 0115 1290 3e43 13b0 0116 24b0  ........>C....$.
0002a770: 0118 12b0 0119 12b0 011b 12b0 011c 12b0  ................
0002a780: 011d 13b0 011e 12b0 0120 12b0 0121 12b0  ......... ...!..
0002a790: 0122 12b0 0123 12b0 0124 12b0 0125 1b90  ."...#...$...%..
0002a7a0: 3c49 09b0 0126 13b0 0127 23b0 0128 25b0  <I...&...'#..(%.
0002a7b0: 0129 24b0 012a 4590 3946 4cb0 012c 0d80  .)$..*E.9FL..,..
0002a7c0: 3e3f 1a80 3c61 7cb0 012e 810c 9038 2906  >?..<a|......8).
0002a7d0: 8039 595a b001 2f24 b001 3112 b001 3212  .9YZ../$..1...2.
0002a7e0: b001 3349 b001 3448 b001 3582 22b0 0134  ..3I..4H..5."..4
0002a7f0: 0b90 3a45 1ab0 0132 48b0 0131 0e80 383a  ..:E...2H..1..8:
0002a800: 29b0 012f 6cb0 012e 25b0 012d 23b0 012c  )../l...%..-#..,
0002a810: 49b0 012b 7fb0 012a 24b0 0129 12b0 0128  I..+...*$..)...(
0002a820: 49b0 0127 2d90 3c53 3680 3a3b 8219 b001  I..'-.<S6.:;....
0002a830: 2825 b001 2948 b001 2a17 903e 560d b001  (%..)H..*..>V...
0002a840: 2b18 803c 580d b001 2d12 b001 2e12 b001  +..<X...-.......
0002a850: 3124 b001 3284 5290 3c5b 4a80 3e61 877a  1$..2.R.<[J.>a.z
0002a860: b001 2f12 b001 2d12 b001 2c12 b001 2b20  ../...-...,...+ 
0002a870: 803c 3c06 9037 4010 b001 2a2e b001 2a2e  .<<..7@...*...*.
0002a880: b001 2a2e b001 2b2d b001 2b2e b001 2b2e  ..*...+-..+...+.
0002a890: b001 2c2e b001 2c2d b001 2c2e b001 2d2e  ..,...,-..,...-.
0002a8a0: b001 2d2e b001 2d2d b001 2e2e b001 2e2e  ..-...--........
0002a8b0: b001 2f26 903a 3e08 b001 2f2d b001 2f2e  ../&.:>.../-../.
0002a8c0: b001 3121 8037 510d b001 312e b001 312d  ..1!.7Q...1...1-
0002a8d0: b001 322e b001 322e b001 322e b001 332d  ..2...2...2...3-
0002a8e0: b001 332c b001 3400 b001 3437 b001 3548  ..3,..4...47..5H
0002a8f0: b001 3636 b001 3725 b001 385a 903c 4b12  ..66..7%..8Z.<K.
0002a900: b001 3a24 803a 4838 b001 3b48 b001 3c48  ..:$.:H8..;H..<H
0002a910: b001 3d2e b001 3d2e b001 3d2e b001 3e2d  ..=...=...=...>-
0002a920: b001 3e19 9039 4215 b001 3e26 803c 6208  ..>..9B...>&.<b.
0002a930: b001 3f2e b001 3f2d b001 402e b001 402e  ..?...?-..@...@.
0002a940: b001 402e b001 412d b001 412e b001 412e  ..@...A-..A...A.
0002a950: b001 422e b001 422d b001 432e b001 432e  ..B...B-..C...C.
0002a960: b001 432e b001 442d b001 442e b001 452e  ..C...D-..D...E.
0002a970: b001 452e b001 452d b001 462e b001 462e  ..E...E-..F...F.
0002a980: b001 462e b001 472d b001 472e b001 482e  ..F...G-..G...H.
0002a990: b001 482e b001 480c b001 4993 3a80 3970  ..H...H...I.:.9p
0002a9a0: 8189 75b0 0155 822b b001 5489 70b0 0153  ..u..U.+..T.p..S
0002a9b0: 810a 9038 3d83 3cb0 0154 816a b001 5581  ...8=.<..T.j..U.
0002a9c0: 10b0 0156 48b0 0157 48b0 0158 8110 b001  ...VH..WH..X....
0002a9d0: 595a b001 5a5a b001 5b6d b001 5c35 b001  YZ..ZZ..[m..\5..
0002a9e0: 5d24 b001 5e24 b001 5f48 b001 6024 b001  ]$..^$.._H..`$..
0002a9f0: 617e b001 6245 9039 274a b001 632f 8038  a~..bE.9'J..c/.8
0002aa00: 4a81 28b0 0164 36b0 0165 24b0 0166 6bb0  J.(..d6..e$..fk.
0002aa10: 0167 8133 b001 685a b001 6922 903b 4258  .g.3..hZ..i".;BX
0002aa20: 8039 5915 b001 6a35 b001 6b81 32b0 016c  .9Y...j5..k.2..l
0002aa30: 6cb0 016d 825d 903c 564a 803b 5583 0490  l..m.].<VJ.;U...
0002aa40: 3e4d 2eb0 016c 1b80 3c54 08b0 016b 12b0  >M...l..<T...k..
0002aa50: 016a 12b0 0169 11b0 0167 12b0 0166 12b0  .j...i...g...f..
0002aa60: 0165 24b0 0164 12b0 0163 12b0 0162 23b0  .e$..d...c...b#.
0002aa70: 0160 24b0 015f 8259 9043 5b25 803e 5f84  .`$.._.Y.C[%.>_.
0002aa80: 33b0 0160 36b0 0161 6b90 3e51 3580 435f  3..`6..ak.>Q5.C_
0002aa90: 817a b001 626b b001 6347 b001 6405 903c  .z..bk..cG..d..<
0002aaa0: 5607 803e 5f81 4bb0 0165 8361 9043 592f  V..>_.K..e.a.CY/
0002aab0: 803c 5988 5480 4341 0590 3b46 8568 903e  .<Y.T.CA..;F.h.>
0002aac0: 5453 803b 3e84 22b0 0164 1e90 4759 3580  TS.;>."..d..GY5.
0002aad0: 3e58 8350 9045 5b3f 8047 5b89 4cb0 0163  >X.P.E[?.G[.L..c
0002aae0: 8375 8045 5f00 ff2f 004d 5472 6b00 000b  .u.E_../.MTrk...
0002aaf0: 1500 ff01 0f53 4620 4365 6c6c 6f20 4c65  .....SF Cello Le
0002ab00: 6761 746f 00b0 0b7f 00b0 077f 00b0 077f  gato............
0002ab10: 81f5 12b0 0112 2eb0 0112 2db0 0112 2eb0  ..........-.....
0002ab20: 0113 2eb0 0113 2eb0 0113 2db0 0114 1c90  ..........-.....
0002ab30: 3501 12b0 0114 2eb0 0114 2eb0 0115 2db0  5.............-.
0002ab40: 0115 2eb0 0115 2eb0 0116 2eb0 0116 2db0  ..............-.
0002ab50: 0116 2eb0 0117 2eb0 0117 2db0 0118 2eb0  ..........-.....
0002ab60: 0118 2eb0 0118 2db0 0118 2eb0 0118 2eb0  ......-.........
0002ab70: 0118 2eb0 0118 2db0 0118 2eb0 0119 2eb0  ......-.........
0002ab80: 0119 2eb0 011a 2db0 011a 2eb0 011b 2eb0  ......-.........
0002ab90: 011b 2eb0 011c 2db0 011c 2790 371b 07b0  ......-...'.7...
0002aba0: 011d 2eb0 011d 2eb0 011d 0880 355a 25b0  ............5Z%.
0002abb0: 011e 2eb0 011e 2eb0 011f 0490 393f 2ab0  ............9?*.
0002abc0: 011f 2db0 0120 1480 3759 1ab0 0120 2eb0  ..-.. ..7Y... ..
0002abd0: 0121 2eb0 0121 2db0 0122 2eb0 0122 2eb0  .!...!-.."..."..
0002abe0: 0122 2eb0 0123 2db0 0123 0eb0 0124 0d90  ."...#-..#...$..
0002abf0: 3a18 20b0 0123 2eb0 0123 1d80 3954 11b0  :. ..#...#..9T..
0002ac00: 0123 2eb0 0123 2db0 0122 2eb0 0122 2eb0  .#...#-.."..."..
0002ac10: 0122 2eb0 0122 2db0 0122 2eb0 0121 2eb0  ."..."-.."...!..
0002ac20: 0121 2eb0 0121 2db0 0121 2eb0 0120 2eb0  .!...!-..!... ..
0002ac30: 0120 2eb0 0120 2db0 0120 2eb0 0120 2eb0  . ... -.. ... ..
0002ac40: 011f 2eb0 011f 2db0 011f 0d90 3c01 21b0  ......-.....<.!.
0002ac50: 011f 2eb0 011e 1c80 3a3b 12b0 011e 2db0  ........:;....-.
0002ac60: 011e 2eb0 011e 2eb0 011e 2eb0 011d 2db0  ..............-.
0002ac70: 011d 2eb0 011d 2eb0 011d 2eb0 011d 2db0  ..............-.
0002ac80: 011c 2eb0 011c 2eb0 011c 2eb0 011c 2db0  ..............-.
0002ac90: 011b 2eb0 011b 2eb0 011b 2eb0 011b 2db0  ..............-.
0002aca0: 011b 2eb0 011a 2eb0 011a 2eb0 011a 1b80  ................
0002acb0: 3c60 12b0 011a 2ab0 011a 2db0 011e 2eb0  <`....*...-.....
0002acc0: 0122 2eb0 0126 2eb0 012a 2db0 012f 2eb0  ."...&...*-../..
0002acd0: 0133 27b0 0137 83e9 17b0 0152 12b0 0150  .3'..7.....R...P
0002ace0: 12b0 014d 12b0 014b 13b0 0148 11b0 0147  ...M...K...H...G
0002acf0: 13b0 0146 8258 b001 4589 74b0 0144 49b0  ...F.X..E.t..DI.
0002ad00: 0143 24b0 0142 24b0 0140 12b0 013f 13b0  .C$..B$..@...?..
0002ad10: 013e 36b0 013d 8164 b001 3b2e b001 3b2e  .>6..=.d..;...;.
0002ad20: b001 3b2d b001 3b2e b001 3c2e b001 3c2e  ..;-..;...<...<.
0002ad30: b001 3c2d b001 3d2e b001 3d2e b001 3d2e  ..<-..=...=...=.
0002ad40: b001 3d16 902c 2317 b001 3e2e b001 3e2e  ..=..,#...>...>.
0002ad50: b001 3e2e b001 3f2d b001 3f2e b001 3f2e  ..>...?-..?...?.
0002ad60: b001 3f2e b001 402d b001 402e b001 402e  ..?...@-..@...@.
0002ad70: b001 412e b001 412d b001 412e b001 412e  ..A...A-..A...A.
0002ad80: b001 422e b001 422d b001 422e b001 432e  ..B...B-..B...C.
0002ad90: b001 432e b001 432d b001 442e b001 442e  ..C...C-..D...D.
0002ada0: b001 442e b001 442d b001 452e b001 452e  ..D...D-..E...E.
0002adb0: b001 452e b001 462d b001 462e b001 462e  ..E...F-..F...F.
0002adc0: b001 462e b001 472d b001 472e b001 472e  ..F...G-..G...G.
0002add0: b001 482e b001 482d b001 482e b001 482e  ..H...H-..H...H.
0002ade0: b001 492e b001 492d b001 492e b001 4a15  ..I...I-..I...J.
0002adf0: 902b 3f19 b001 4a1e 802c 5d10 b001 4a2d  .+?...J..,]...J-
0002ae00: b001 4a2e b001 4b2e b001 4b2e b001 4b2d  ..J...K...K...K-
0002ae10: b001 4c2e b001 4c2e b001 4c2e b001 4d2d  ..L...L...L...M-
0002ae20: b001 4d2e b001 4d2e b001 4d12 b001 4e2e  ..M...M...M...N.
0002ae30: b001 4d2e b001 4d2d b001 4d2e b001 4d2e  ..M...M-..M...M.
0002ae40: b001 4d2e b001 4d2d b001 4d2e b001 4c2e  ..M...M-..M...L.
0002ae50: b001 4c2e b001 4c2d b001 4c2e b001 4c2e  ..L...L-..L...L.
0002ae60: b001 4c2e b001 4c2d b001 4b2e b001 4b2e  ..L...L-..K...K.
0002ae70: b001 4b2e b001 4b2d b001 4b2e b001 4b2e  ..K...K-..K...K.
0002ae80: b001 4b2e b001 4a2d b001 4a2e b001 4a2e  ..K...J-..J...J.
0002ae90: b001 4a2e b001 4a2d b001 4a2e b001 4a2e  ..J...J-..J...J.
0002aea0: b001 4901 9029 4a2d b001 492d 802b 5b00  ..I..)J-..I-.+[.
0002aeb0: b001 492e b001 492e b001 492e b001 492d  ..I...I...I...I-
0002aec0: b001 4917 b001 492e b001 4a2e b001 4a2d  ..I...I...J...J-
0002aed0: b001 4a2e b001 4a2e b001 4a2e b001 4b2d  ..J...J...J...K-
0002aee0: b001 4b2e b001 4b05 8029 4629 b001 4b0c  ..K...K..)F)..K.
0002aef0: 9029 4522 b001 4b2d b001 4c2e b001 4c2e  .)E"..K-..L...L.
0002af00: b001 4c2e b001 4c2d b001 4c28 b001 4d2e  ..L...L-..L(..M.
0002af10: b001 4d2e b001 4d2d b001 4d2e b001 4d2e  ..M...M-..M...M.
0002af20: b001 4e2e b001 4e1a 8029 5613 b001 4e2e  ..N...N..)V...N.
0002af30: b001 4e2e b001 4f06 9029 5428 b001 4f2d  ..N...O..)T(..O-
0002af40: b001 4f2e b001 4f2e b001 4f2e b001 502d  ..O...O...O...P-
0002af50: b001 502e b001 502e b001 5011 8029 571d  ..P...P...P..)W.
0002af60: b001 512d b001 511d 9029 5611 b001 512e  ..Q-..Q..)V...Q.
0002af70: b001 512e b001 522d b001 522e b001 522e  ..Q...R-..R...R.
0002af80: b001 522e b001 522d b001 532e b001 532e  ..R...R-..S...S.
0002af90: b001 532e b001 532d b001 542e b001 542e  ..S...S-..T...T.
0002afa0: b001 542e b001 542d b001 5411 9030 591d  ..T...T-..T..0Y.
0002afb0: b001 552e b001 5522 8029 5c0c b001 552d  ..U...U".)\...U-
0002afc0: b001 552e b001 562e b001 562e b001 562d  ..U...V...V...V-
0002afd0: b001 562e b001 572e b001 572e b001 572d  ..V...W...W...W-
0002afe0: b001 572e b001 572e b001 582e b001 582d  ..W...W...X...X-
0002aff0: b001 5805 9035 5329 b001 581c 8030 5d12  ..X..5S)..X..0].
0002b000: b001 592e b001 592d b001 592e b001 592e  ..Y...Y-..Y...Y.
0002b010: b001 592e b001 5a2d b001 5a2e b001 5a2e  ..Y...Z-..Z...Z.
0002b020: b001 5a1b b001 5b00 b001 5b02 9037 5b2c  ..Z...[...[..7[,
0002b030: b001 590a 8035 6224 b001 582d b001 562e  ..Y..5b$..X-..V.
0002b040: b001 552e b001 542e b001 522d b001 5104  ..U...T...R-..Q.
0002b050: 8037 692a b001 502e b001 4e2e b001 4d2d  .7i*..P...N...M-
0002b060: b001 4c2e b001 4a2e b001 4a2e b001 4a2d  ..L...J...J...J-
0002b070: b001 4a2e b001 4a2e b001 4a2e b001 4a2d  ..J...J...J...J-
0002b080: b001 4a2e b001 4a2e b001 4a2e b001 4a2d  ..J...J...J...J-
0002b090: b001 4a2e b001 4a2e b001 4a2e b001 4a0a  ..J...J...J...J.
0002b0a0: 902b 4623 b001 4a2e b001 4a2e b001 4a2e  .+F#..J...J...J.
0002b0b0: b001 4a2d b001 4a0b b001 4b0b 9032 4622  ..J-..J...K..2F"
0002b0c0: b001 4b0e 802b 4820 b001 4b2e b001 4b2e  ..K..+H ..K...K.
0002b0d0: b001 4b2d b001 4b2e b001 4b2e b001 4b2e  ..K-..K...K...K.
0002b0e0: b001 4b2d b001 4b2e b001 4b22 9036 390c  ..K-..K...K".69.
0002b0f0: b001 4b24 8032 570a b001 4c2d b001 4c2e  ..K$.2W...L-..L.
0002b100: b001 4c2e b001 4c2e b001 4c2d b001 4c2e  ..L...L...L-..L.
0002b110: b001 4c2e b001 4c2e b001 4c2d b001 4c2e  ..L...L...L-..L.
0002b120: b001 4c2e b001 4c2e b001 4d2d b001 4d2e  ..L...L...M-..M.
0002b130: b001 4d16 9032 4918 b001 4d18 8036 5b16  ..M..2I...M..6[.
0002b140: b001 4d2d b001 4d2e b001 4d2e b001 4d2e  ..M-..M...M...M.
0002b150: b001 4d2d b001 4d2e b001 4d21 b001 4e2e  ..M-..M...M!..N.
0002b160: b001 4d2e b001 4d0b 9036 6023 b001 4d0d  ..M...M..6`#..M.
0002b170: 8032 5f20 b001 4d2e b001 4c2e b001 4c2e  .2_ ..M...L...L.
0002b180: b001 4c16 9032 4d17 b001 4b19 8036 1815  ..L..2M...K..6..
0002b190: b001 4b2e b001 4b2e b001 4b2d b001 4a22  ..K...K...K-..J"
0002b1a0: 902d 410c b001 4a24 8032 520a b001 4a26  .-A...J$.2R...J&
0002b1b0: b001 4a2e b001 4a2e b001 4a2d b001 4a07  ..J...J...J-..J.
0002b1c0: 902b 4e23 802d 0104 b001 4a2e b001 4a07  .+N#.-....J...J.
0002b1d0: 802b 5c27 b001 4a2d b001 4a2e b001 4a2e  .+\'..J-..J...J.
0002b1e0: b001 4b2e b001 4b2d b001 4c2e b001 4d2e  ..K...K-..L...M.
0002b1f0: b001 4d1d b001 4e2e b001 4e2e b001 4e2d  ..M...N...N...N-
0002b200: b001 4e2e b001 4f2e b001 4f0b 902e 4423  ..N...O...O...D#
0002b210: b001 4f2d b001 502e b001 502e b001 502e  ..O-..P...P...P.
0002b220: b001 5116 802e 5717 b001 512e b001 512e  ..Q...W...Q...Q.
0002b230: b001 522e b001 522d b001 5222 902b 460c  ..R...R-..R".+F.
0002b240: b001 532e b001 532e b001 5310 902e 441d  ..S...S...S...D.
0002b250: b001 5425 802b 4f09 b001 542d 9032 5101  ..T%.+O...T-.2Q.
0002b260: b001 542e b001 5418 802e 6315 b001 552e  ..T...T...c...U.
0002b270: b001 552e b001 552e b001 560a 9034 5423  ..U...U...V..4T#
0002b280: b001 5609 8032 5625 b001 562e b001 572e  ..V..2V%..V...W.
0002b290: b001 572d b001 5716 b001 5800 9036 562c  ..W-..W...X..6V,
0002b2a0: 8034 5c02 b001 572e b001 571c b001 582e  .4\...W...W...X.
0002b2b0: b001 582e b001 582d b001 582e b001 582e  ..X...X-..X...X.
0002b2c0: b001 592e b001 592d b001 592e b001 592e  ..Y...Y-..Y...Y.
0002b2d0: b001 592e b001 5a2d b001 5a2e b001 5a2e  ..Y...Z-..Z...Z.
0002b2e0: b001 5a05 9039 4629 b001 5b03 8036 462a  ..Z..9F)..[..6F*
0002b2f0: b001 5b2e b001 5b2e b001 5b2e b001 5b10  ..[...[...[...[.
0002b300: b001 5c08 8039 3926 b001 5b2e b001 5b2d  ..\..99&..[...[-
0002b310: b001 5b2e b001 5a2e b001 5a0b 903e 4a23  ..[...Z...Z..>J#
0002b320: b001 5a2d b001 592e b001 592e b001 592e  ..Z-..Y...Y...Y.
0002b330: b001 5916 903c 5b17 b001 5829 803e 5605  ..Y..<[...X).>V.
0002b340: b001 582e b001 582e b001 572d b001 5722  ..X...X...W-..W"
0002b350: 9039 450c b001 5722 b001 5712 803c 5d1c  .9E...W"..W..<].
0002b360: b001 572d b001 562e b001 562e b001 560b  ..W-..V...V...V.
0002b370: 9038 5923 b001 552d b001 552e b001 542e  .8Y#..U-..U...T.
0002b380: b001 540c 8039 6122 b001 542d b001 532e  ..T..9a"..T-..S.
0002b390: b001 532e b001 532e b001 522d b001 522e  ..S...S...R-..R.
0002b3a0: b001 512e b001 512e b001 512d b001 502e  ..Q...Q...Q-..P.
0002b3b0: b001 502d 903a 5901 b001 4f2e b001 4f2d  ..P-.:Y...O...O-
0002b3c0: b001 4f1c 8038 5512 b001 4e2e b001 4e2e  ..O..8U...N...N.
0002b3d0: b001 4e0a b001 4e81 70b0 014e 2eb0 014d  ..N...N.p..N...M
0002b3e0: 2eb0 014d 2db0 014d 2eb0 014d 2eb0 014c  ...M-..M...M...L
0002b3f0: 0b80 3a5b 0090 3c42 23b0 014c 2db0 014c  ..:[..<B#..L-..L
0002b400: 2eb0 014c 2eb0 014b 2eb0 014b 2db0 014b  ...L...K...K-..K
0002b410: 2eb0 014b 2eb0 014a 0590 3e4b 29b0 014a  ...K...J..>K)..J
0002b420: 2db0 014a 2eb0 014a 0280 3c5e 2cb0 0149  -..J...J..<^,..I
0002b430: 2eb0 0149 2db0 0149 2eb0 0149 2db0 0149  ...I-..I...I-..I
0002b440: 2eb0 0149 2eb0 0149 2db0 0149 2eb0 0149  ...I...I-..I...I
0002b450: 2eb0 0149 2eb0 0149 2db0 0149 2eb0 0149  ...I...I-..I...I
0002b460: 2eb0 0149 2eb0 0149 1690 3c58 17b0 0149  ...I...I..<X...I
0002b470: 2eb0 014a 2eb0 014a 1380 3e58 1bb0 014a  ...J...J..>X...J
0002b480: 2db0 014a 2eb0 014a 2eb0 014a 2eb0 014a  -..J...J...J...J
0002b490: 2db0 014a 2eb0 014a 2eb0 014a 2eb0 014a  -..J...J...J...J
0002b4a0: 2db0 014b 2eb0 014b 2eb0 014b 2eb0 014b  -..K...K...K...K
0002b4b0: 2db0 014b 2eb0 014b 2eb0 014b 2eb0 014b  -..K...K...K...K
0002b4c0: 2db0 014b 2eb0 014b 2eb0 014b 2eb0 014b  -..K...K...K...K
0002b4d0: 2db0 014c 2eb0 014c 2190 3f65 0db0 014c  -..L...L!.?e...L
0002b4e0: 0180 3c5a 2db0 014c 2db0 014c 2eb0 014c  ..<Z-..L-..L...L
0002b4f0: 2eb0 014c 2c90 3e59 02b0 014c 0c80 3f56  ...L,.>Y...L..?V
0002b500: 21b0 014c 2eb0 014c 2eb0 014c 2eb0 014d  !..L...L...L...M
0002b510: 2db0 014d 0a90 3c48 0e80 3e5f 16b0 014d  -..M..<H..>_...M
0002b520: 2eb0 014d 2eb0 014d 2db0 014d 2eb0 014d  ...M...M-..M...M
0002b530: 1590 3a5c 0e80 3c63 0bb0 014d 2eb0 014d  ..:\..<c...M...M
0002b540: 2db0 014d 2eb0 014d 2eb0 014e 2eb0 014e  -..M...M...N...N
0002b550: 2db0 014e 2eb0 014e 2eb0 014e 2eb0 014e  -..N...N...N...N
0002b560: 2db0 014e 2eb0 014e 2eb0 014e 2eb0 014e  -..N...N...N...N
0002b570: 2db0 014e 2eb0 014e 09b0 014f 0090 3754  -..N...N...O..7T
0002b580: 0e80 3a57 20b0 0150 2eb0 0151 2db0 0153  ..:W ..P...Q-..S
0002b590: 2eb0 0155 2eb0 0157 2eb0 0157 2db0 0157  ...U...W...W-..W
0002b5a0: 2eb0 0158 0880 3770 26b0 0158 2eb0 0158  ...X..7p&..X...X
0002b5b0: 1690 394d 17b0 0159 2eb0 0159 2eb0 0159  ..9M...Y...Y...Y
0002b5c0: 2eb0 015a 2db0 015a 22b0 015b 8170 8039  ...Z-..Z"..[.p.9
0002b5d0: 3e81 7090 3456 8360 8034 5981 7090 2d5b  >.p.4V.`.4Y.p.-[
0002b5e0: 830f 802d 5c51 902d 5b83 6080 2d5c 8170  ...-\Q.-[.`.-\.p
0002b5f0: 9028 6383 6080 2842 8170 902d 4a81 7080  .(c.`.(B.p.-J.p.
0002b600: 2d63 00ff 2f00 4d54 726b 0000 0025 00ff  -c../.MTrk...%..
0002b610: 0111 4220 5669 6f6c 696e 2049 204c 6567  ..B Violin I Leg
0002b620: 6174 6f00 b00b 7f00 b007 7f00 b007 7f00  ato.............
0002b630: ff2f 004d 5472 6b00 0000 2600 ff01 1242  ./.MTrk...&....B
0002b640: 2056 696f 6c69 6e20 4949 204c 6567 6174   Violin II Legat
0002b650: 6f00 b00b 7f00 b007 7f00 b007 7f00 ff2f  o............../
0002b660: 004d 5472 6b00 0000 2200 ff01 0e42 2056  .MTrk..."....B V
0002b670: 696f 6c61 204c 6567 6174 6f00 b00b 7f00  iola Legato.....
0002b680: b007 7f00 b007 7f00 ff2f 004d 5472 6b00  ........./.MTrk.
0002b690: 0000 2200 ff01 0e42 2043 656c 6c6f 204c  .."....B Cello L
0002b6a0: 6567 6174 6f00 b00b 7f00 b007 7f00 b007  egato...........
0002b6b0: 7f00 ff2f 004d 5472 6b00 0003 1400 ff01  .../.MTrk.......
0002b6c0: 0f53 4620 5669 6f6c 696e 7320 4861 726d  .SF Violins Harm
0002b6d0: 00b0 0b50 00b0 077f 00b0 077f 00b0 0100  ...P............
0002b6e0: 2eb0 0100 2eb0 0100 2db0 0100 2eb0 0100  ........-.......
0002b6f0: 2eb0 0100 2eb0 0100 2db0 0100 2eb0 0100  ........-.......
0002b700: 2eb0 0100 2eb0 0100 2db0 0100 2eb0 0100  ........-.......
0002b710: 2eb0 0100 2eb0 0100 2db0 0100 2eb0 0100  ........-.......
0002b720: 2eb0 0100 2eb0 0100 2db0 0100 2eb0 0100  ........-.......
0002b730: 2d90 5c01 01b0 0100 2eb0 0100 2db0 0100  -.\.........-...
0002b740: 2eb0 0100 2eb0 0100 2eb0 0100 2db0 0100  ............-...
0002b750: 2eb0 0100 2eb0 0100 2eb0 0100 2db0 0100  ............-...
0002b760: 2eb0 0100 2eb0 0100 2eb0 0100 2db0 0100  ............-...
0002b770: 2eb0 0100 2eb0 0100 2eb0 0100 2db0 0100  ............-...
0002b780: 2eb0 0100 2eb0 0100 2eb0 0100 2db0 0100  ............-...
0002b790: 2eb0 0100 2eb0 0100 2eb0 0100 2db0 0100  ............-...
0002b7a0: 2eb0 0100 2eb0 0100 2eb0 0100 2db0 0100  ............-...
0002b7b0: 2eb0 0100 2eb0 0100 2eb0 0100 2db0 0100  ............-...
0002b7c0: 2eb0 0100 2eb0 0100 2eb0 0100 2db0 0100  ............-...
0002b7d0: 2eb0 0100 2eb0 0100 2eb0 0100 2db0 0100  ............-...
0002b7e0: 2eb0 0100 2eb0 0100 2eb0 0100 2db0 0100  ............-...
0002b7f0: 2eb0 0100 2eb0 0100 2eb0 0100 2db0 0100  ............-...
0002b800: 2eb0 0100 2eb0 0100 2eb0 0100 2db0 0100  ............-...
0002b810: 2eb0 0100 2eb0 0100 2eb0 0100 2db0 0100  ............-...
0002b820: 2eb0 0100 2eb0 0100 2eb0 0100 2db0 0100  ............-...
0002b830: 2eb0 0100 2eb0 0100 2eb0 0100 2db0 0100  ............-...
0002b840: 2eb0 0100 2eb0 0100 2eb0 0100 2db0 0100  ............-...
0002b850: 2eb0 0100 2eb0 0100 2eb0 0100 2db0 0100  ............-...
0002b860: 2eb0 0100 2eb0 0100 2eb0 0100 2db0 0100  ............-...
0002b870: 2eb0 0100 2eb0 0100 2eb0 0100 2db0 0100  ............-...
0002b880: 2eb0 0100 2eb0 0100 2eb0 0100 2db0 0100  ............-...
0002b890: 2eb0 0100 2eb0 0100 2eb0 0100 2db0 0100  ............-...
0002b8a0: 2eb0 0100 2eb0 0100 2eb0 0100 2db0 0100  ............-...
0002b8b0: 2eb0 0100 2eb0 0100 2eb0 0100 2db0 0100  ............-...
0002b8c0: 2eb0 0100 2eb0 0100 2eb0 0100 2db0 0100  ............-...
0002b8d0: 2eb0 0100 2eb0 0100 2eb0 0100 2db0 0100  ............-...
0002b8e0: 2eb0 0100 2eb0 0100 2eb0 0100 2db0 0100  ............-...
0002b8f0: 2eb0 0100 2eb0 0100 2eb0 0100 2db0 0100  ............-...
0002b900: 2eb0 0100 2eb0 0100 2eb0 0100 2db0 0100  ............-...
0002b910: 2eb0 0100 2eb0 0100 2eb0 0100 2db0 0100  ............-...
0002b920: 2eb0 0100 2eb0 0100 2eb0 0100 2db0 0100  ............-...
0002b930: 2eb0 0100 2eb0 0100 2eb0 0100 2db0 0100  ............-...
0002b940: 2eb0 0100 2eb0 0100 2eb0 0100 2db0 0100  ............-...
0002b950: 2eb0 0100 2eb0 0100 2eb0 0100 2db0 0100  ............-...
0002b960: 2eb0 0100 2eb0 0100 2eb0 0100 2db0 0100  ............-...
0002b970: 2eb0 0100 2eb0 0100 2eb0 0100 2db0 0100  ............-...
0002b980: 2eb0 0100 2eb0 0100 2eb0 0100 2db0 0100  ............-...
0002b990: 2eb0 0100 2eb0 0100 2eb0 0100 2db0 0100  ............-...
0002b9a0: 2eb0 0100 2eb0 0100 2eb0 0100 2db0 0100  ............-...
0002b9b0: 2eb0 0100 2eb0 0100 2eb0 0100 03b0 0101  ................
0002b9c0: 12b0 0100 3480 5c6d b440 b00b 6000 ff2f  ....4.\m.@..`../
0002b9d0: 004d 5472 6b00 0003 8200 ff01 0f48 5320  .MTrk........HS 
0002b9e0: 5669 6f6c 696e 7320 4861 726d 00b0 0b7f  Violins Harm....
0002b9f0: 00b0 077f 00b0 077f 8f00 b00b 7f84 c140  ...............@
0002ba00: b00b 202e b00b 212e b00b 222d b00b 232e  .. ...!..."-..#.
0002ba10: b00b 242e b00b 262e b00b 272d b00b 282e  ..$...&...'-..(.
0002ba20: b00b 292e b00b 2b2d 9059 0101 b00b 2c16  ..)...+-.Y....,.
0002ba30: b00b 2d2e b00b 2c2e b00b 2c2d b00b 2c2e  ..-...,...,-..,.
0002ba40: b00b 2c2e b00b 2c2e b00b 2c2d b00b 2c2e  ..,...,...,-..,.
0002ba50: b00b 2c2e b00b 2c2e b00b 2c2d b00b 2c2e  ..,...,...,-..,.
0002ba60: b00b 2c2e b00b 2c2e b00b 2c2d b00b 2c2e  ..,...,...,-..,.
0002ba70: b00b 2c2e b00b 2c2e b00b 2c2d b00b 2c2e  ..,...,...,-..,.
0002ba80: b00b 2c2e b00b 2c2e b00b 2c2d b00b 2c2e  ..,...,...,-..,.
0002ba90: b00b 2c2e b00b 2c2e b00b 2c2d b00b 2c2e  ..,...,...,-..,.
0002baa0: b00b 2c2e b00b 2c2e b00b 2c2d b00b 2c2e  ..,...,...,-..,.
0002bab0: b00b 2c2e b00b 2c2e b00b 2c2d b00b 2c2e  ..,...,...,-..,.
0002bac0: b00b 2c2e b00b 2c2e b00b 2c2d b00b 2c2e  ..,...,...,-..,.
0002bad0: b00b 2c2e b00b 2c2e b00b 2c2d b00b 2c2e  ..,...,...,-..,.
0002bae0: b00b 2c2e b00b 2c2e b00b 2c2d b00b 2c2e  ..,...,...,-..,.
0002baf0: b00b 2c2e b00b 2c2e b00b 2c2d b00b 2c2e  ..,...,...,-..,.
0002bb00: b00b 2c2e b00b 2c2e b00b 2c2d b00b 2c2e  ..,...,...,-..,.
0002bb10: b00b 2c2e b00b 2c2e b00b 2c2d b00b 2c2e  ..,...,...,-..,.
0002bb20: b00b 2c2e b00b 2c2e b00b 2c2d b00b 2c2e  ..,...,...,-..,.
0002bb30: b00b 2c2e b00b 2c2e b00b 2c2d b00b 2c2e  ..,...,...,-..,.
0002bb40: b00b 2c2e b00b 2c2e b00b 2c2d b00b 2c2e  ..,...,...,-..,.
0002bb50: b00b 2c2e b00b 2c2e b00b 2c2d b00b 2c2e  ..,...,...,-..,.
0002bb60: b00b 2c2e b00b 2c2e b00b 2c2d b00b 2c2e  ..,...,...,-..,.
0002bb70: b00b 2c2e b00b 2c2e b00b 2c2d b00b 2c2e  ..,...,...,-..,.
0002bb80: b00b 2c2e b00b 2c2e b00b 2c2d b00b 2c2e  ..,...,...,-..,.
0002bb90: b00b 2c2e b00b 2c2e b00b 2c2d b00b 2c2e  ..,...,...,-..,.
0002bba0: b00b 2c2e b00b 2c2e b00b 2c2d b00b 2c2e  ..,...,...,-..,.
0002bbb0: b00b 2c2e b00b 2c2e b00b 2c2d b00b 2c2e  ..,...,...,-..,.
0002bbc0: b00b 2c2e b00b 2c2e b00b 2c2d b00b 2c2e  ..,...,...,-..,.
0002bbd0: b00b 2c2e b00b 2c2e b00b 2c2d b00b 2c2e  ..,...,...,-..,.
0002bbe0: b00b 2c2e b00b 2c2e b00b 2c2d b00b 2c2e  ..,...,...,-..,.
0002bbf0: b00b 2c2e b00b 2c2e b00b 2c2d b00b 2c2e  ..,...,...,-..,.
0002bc00: b00b 2c2e b00b 2c2e b00b 2c2d b00b 2c2e  ..,...,...,-..,.
0002bc10: b00b 2c2e b00b 2c2e b00b 2c2d b00b 2c2e  ..,...,...,-..,.
0002bc20: b00b 2c2e b00b 2c2e b00b 2c2d b00b 2c2e  ..,...,...,-..,.
0002bc30: b00b 2c2e b00b 2c2e b00b 2c2d b00b 2c2e  ..,...,...,-..,.
0002bc40: b00b 2c2e b00b 2c2e b00b 2c2d b00b 2c2e  ..,...,...,-..,.
0002bc50: b00b 2c2e b00b 2c2e b00b 2c2d b00b 2c2e  ..,...,...,-..,.
0002bc60: b00b 2c2e b00b 2c2e b00b 2c2d b00b 2c2e  ..,...,...,-..,.
0002bc70: b00b 2c2e b00b 2c2e b00b 2c2d b00b 2c2e  ..,...,...,-..,.
0002bc80: b00b 2c2e b00b 2c2e b00b 2c2d b00b 2c2e  ..,...,...,-..,.
0002bc90: b00b 2c2e b00b 2c2e b00b 2c2d b00b 2c2e  ..,...,...,-..,.
0002bca0: b00b 2c2e b00b 2c2e b00b 2c2d b00b 2c2e  ..,...,...,-..,.
0002bcb0: b00b 2c2e b00b 2c2e b00b 2c2d b00b 2c2e  ..,...,...,-..,.
0002bcc0: b00b 2c2e b00b 2c2e b00b 2c2d b00b 2c2e  ..,...,...,-..,.
0002bcd0: b00b 2c2e b00b 2c2e b00b 2c2d b00b 2c2e  ..,...,...,-..,.
0002bce0: b00b 2c2e b00b 2c2e b00b 2c2d b00b 2c2e  ..,...,...,-..,.
0002bcf0: b00b 2c2e b00b 2c2e b00b 2c2d b00b 2c2e  ..,...,...,-..,.
0002bd00: b00b 2c2e b00b 2c2e b00b 2c2d b00b 2c2e  ..,...,...,-..,.
0002bd10: b00b 2c2e b00b 2c2e b00b 2c2d b00b 2c2e  ..,...,...,-..,.
0002bd20: b00b 2c2e b00b 2c2e b00b 2c2d b00b 2c2e  ..,...,...,-..,.
0002bd30: b00b 2c2e b00b 2c2e b00b 2c2d b00b 2c2e  ..,...,...,-..,.
0002bd40: b00b 2c2e b00b 2c2e b00b 2c2d b00b 2c10  ..,...,...,-..,.
0002bd50: b00b 2d1f 8059 3e00 ff2f 004d 5472 6b00  ..-..Y>../.MTrk.
0002bd60: 0000 2200 ff01 0e53 4620 5669 6f6c 6173  .."....SF Violas
0002bd70: 2048 6172 6d00 b00b 7f00 b007 7f00 b007   Harm...........
0002bd80: 7f00 ff2f 004d 5472 6b00 0000 2100 ff01  .../.MTrk...!...
0002bd90: 0d53 4620 4365 6c6c 6920 4861 726d 00b0  .SF Celli Harm..
0002bda0: 0b7f 00b0 077f 00b0 077f 00ff 2f00 4d54  ............/.MT
0002bdb0: 726b 0000 0018 00ff 010b 496c 7961 2045  rk........Ilya E
0002bdc0: 6669 6d6f 7600 ff20 0100 00ff 2f00 4d54  fimov.. ..../.MT
0002bdd0: 726b 0000 0013 00ff 0106 4d49 4449 2d33  rk........MIDI-3
0002bde0: 00ff 2001 0100 ff2f 004d 5472 6b00 0000  .. ..../.MTrk...
0002bdf0: 1300 ff01 064d 4944 492d 3900 ff20 0102  .....MIDI-9.. ..
0002be00: 00ff 2f00 4d54 726b 0000 0014 00ff 0107  ../.MTrk........
0002be10: 4d49 4449 2d31 3000 ff20 0103 00ff 2f00  MIDI-10.. ..../.
0002be20: 4d54 726b 0000 0025 00ff 0118 5669 6e74  MTrk...%....Vint
0002be30: 6167 6520 4f72 6761 6e73 204a 6520 7427  age Organs Je t'
0002be40: 6169 6d65 00ff 2001 0400 ff2f 004d 5472  aime.. ..../.MTr
0002be50: 6b00 0000 1400 ff01 074d 4944 492d 3832  k........MIDI-82
0002be60: 00ff 2001 0500 ff2f 004d 5472 6b00 0000  .. ..../.MTrk...
0002be70: 1400 ff01 074d 4944 492d 3934 00ff 2001  .....MIDI-94.. .
0002be80: 0600 ff2f 004d 5472 6b00 0000 1400 ff01  .../.MTrk.......
0002be90: 074d 4944 492d 3935 00ff 2001 0700 ff2f  .MIDI-95.. ..../
0002bea0: 004d 5472 6b00 0000 1400 ff01 074d 4944  .MTrk........MID
0002beb0: 492d 3936 00ff 2001 0800 ff2f 004d 5472  I-96.. ..../.MTr
0002bec0: 6b00 0000 1400 ff01 074d 4944 492d 3937  k........MIDI-97
0002bed0: 00ff 2001 0900 ff2f 004d 5472 6b00 0000  .. ..../.MTrk...
0002bee0: 1400 ff01 074d 4944 492d 3938 00ff 2001  .....MIDI-98.. .
0002bef0: 0a00 ff2f 004d 5472 6b00 0000 1400 ff01  .../.MTrk.......
0002bf00: 074d 4944 492d 3939 00ff 2001 0b00 ff2f  .MIDI-99.. ..../
0002bf10: 004d 5472 6b00 0000 1500 ff01 084d 4944  .MTrk........MID
0002bf20: 492d 3130 3000 ff20 010c 00ff 2f00 4d54  I-100.. ..../.MT
0002bf30: 726b 0000 0015 00ff 0108 4d49 4449 2d31  rk........MIDI-1
0002bf40: 3031 00ff 2001 0d00 ff2f 004d 5472 6b00  01.. ..../.MTrk.
0002bf50: 0000 1500 ff01 084d 4944 492d 3130 3200  .......MIDI-102.
0002bf60: ff20 010e 00ff 2f00 4d54 726b 0000 0015  . ..../.MTrk....
0002bf70: 00ff 0108 4d49 4449 2d31 3034 00ff 2001  ....MIDI-104.. .
0002bf80: 0f00 ff2f 00                             .../.
